<?xml version="1.0" encoding="UTF-8"?>
<svg id="Capa_2" data-name="Capa 2" xmlns="http://www.w3.org/2000/svg" viewBox="0 0 156.78 261.88">
  <g id="Capa_1-2" data-name="Capa 1">
    <path d="M35.32,156.8l-17.36,1.31.69,15.98,15.94.53,1.44,17.12,15.69-.93.79-15.69,16.75-1.56.67-33.28,16.75-1.56.41-33.41,15.89-1.22c1.49-3.7,1.44-12.34-.06-16.18l-15.72-.85-.77-16.72-16.1.02-.76,16.7-16.64,1.2-.91,33.62-17.36.56.26-34.73,17-1.1.48-33.87,17.02-.81.34-34.09,16.87-.78L87.44,0h51.52s.81,17.04.81,17.04l16.97.8.05,34.99-16.85,2.23-.86,31.89-16.91.84-.34,34.11-17.07.78-.34,34.13-17.07.77-.33,34.14-16.89.73-.71,16.76-16.69.69-.71,16.77-16.7.69-.71,16.77-16.69.66-.72,17.1L0,261.42v-103.85s17.12-1.16,17.12-1.16l.48-33.92,17.32-.55.4,34.85ZM122.48,52.63l16.58-.6-.02-17.04-34.24.36.08,33.6c5.91.62,12.95.47,16.33-.41l1.27-15.91Z"/>
  </g>
</svg>