<?xml version="1.0" encoding="UTF-8"?>
<svg id="Capa_2" data-name="Capa 2" xmlns="http://www.w3.org/2000/svg" viewBox="0 0 126.19 138.57">
  <defs>
    <style>
      .cls-1 {
        fill: #1d1d1b;
      }
    </style>
  </defs>
  <g id="Capa_1-2" data-name="Capa 1">
    <path class="cls-1" d="M65.5,130.85l-2.4-3.15c-.17-.23-5.11-2.25-5.34-1.52l-.61,1.96-.61,1.95c-.55,1.79,3.95-.57,5.2,6.14-2.28.77-4.39.42-5.52-1.91l-3.12,1.06c-.49.17-1.29,1.2-1.79,1.21-1.46.05-2.52-3.37-2.8-5.62l-4.11.93-4.72-.99.27-3.17-2.78-2.58c-.24-.22-.72-1.13-.94-.98l-1.61,1.1-3.07-5.33c-.26,2.57-.26,3.75-1.77,5.06-.66.57-1.79,1.04-2.84,1.22l-.98-3.62c-.06-.41.27-1.53-.13-1.48l-2.26.24c-1.46.16-3.92-2.31-3.97-4.04-.01-.4,1.21-.94,1.45-.64l1.22,1.59c1.78-1,2-3.27,1.27-5.66l-5.14-.75c-.37-.05-1.58.41-1.69.06-.84-2.75,2.81-.55,3.13-5.13.15-2.08,3-1.72,4.69-1.85-.4-.84-.94-2.19-.56-2.71s2.04-.3,2.65,0c1.57.76,3.36,1.62,2.35,3.6-.76,1.49-2.77,2.34-4.54,2.96-1.24,3.48,4.77,1.36,6.4,3.27.93.17,5.35-4.47,5.27-5.99l-2.67-1.38c-.77-.4-1.75-1.94-1.04-2.34l3.81-2.18c-2.39-1.56-3.61-1.86-6.36-2.8l1.76-1.39-1.83-3.14-3.22,2.73-2.88-1.54,1.23-2.85c-1.78-.86-3.57-2.08-4.15-3.5.32-.61,1.2-1.74.86-2.1s-2.05-1-2.47-.75l-6.34,3.71c-1.67-.97-3.78-1.48-5.07-.67.24,1.06.34,2.27.11,3.08l1.21.84c.25.18.17.96.29,1.27,1.83.65,5.5,3.96,4.06,4.82l-1.47.87c-.74.43-2.38,1.08-2.66.91l-.46-2.68-3.86-.48.58-3.82c-3.3-1.14-1.77,5.2-5.25,2.69-.29-2.72-.43-7.88.11-10.71.11-.56,1.66-1.65,1.28-2.07-.49-.55-1.14-1.24-.96-1.55l1.06-1.87-1.65-1.04v-5.8s2.32,1.49,2.32,1.49c.38-1.72.51-2.9.89-3.49.72-1.1,4.71-1.18,4.85-.58.58,2.54-3.65,2.96-3.33,7.93l-2.58-.63c.11-.2-.79.78-.53.97l1.55,1.13,3.9,2.84.31,2.7,6.78-.73-3.11-4.22.95-1.35c.63-.89-2.11-2.18.05-4.47.74-.78,1.36-1.91,1.29-2.91-.06-.84-1.19-1.8-1.97-2.59l-1.71-1.72-.82,1.61c-.21.41-1.8.58-1.84.12l-.23-2.41c2.96-1.24,8.04,2.03,8.63-2.89.23-1.93,2.03-3.18,2.52-4.53l1.46-4.01c2.02-5.56,1.86-5.64,3.44-10.6l-4.97-.78,1.2-4.22c1.8-.76,1.45-2.11,1.88-3.64,1.18-4.24,3.21-8.43,2.57-13.17l-3.08-.72c-.92-.22-1.38-2.61-1.36-3.51l3.45.15.95,1.43,1.93-1.64c2.87,2.84,5.26,1.3,6.02,2.66.24.42.37,1.75.62,2.28.99,2.11,3.7-.13,5.01-.88,1.12-.64,4.47-.13,4.01-2.61-.18-.97-.7-2.18.17-3.3,1.72-2.21,4.37-3.71,6.3-3.55,1.5.13,3.13,6.38,3.58,8.25.21.9,2.28.76,3.26.23.85-.46,1.32-2.29.81-3.2l-2.11-3.73,4.51-1.76,1.29-3.56c-1.88-3.97-.2-4.69-1.81-6.34l2.17-1.2c3.82.47,7.23-2.32,7.82-.74.81,2.16-1.99,3.69-2.98,4.85-1.14,1.34,2.02,2.56,2.67,5.16l4.61,1.56,1.25-4.58c-2.97-.91-4.58-2.33-4.56-5.34,5.85-1.24,3.7,4.41,8.86-.03.68-.58,2.32.56,2.62,1.44l1.16,3.43c3.13-.45,5.47-.41,8.14.3l-.27,2.99,2.8,2.76,2.72.7,2.16,3.28c.07-2.9,1.35-4.45,3.43-5.22,1.03-.39,2.34,3.06,1.95,5.22,2.35-1.87,5.71.62,6.14,2.56.1.44-.73,1.27-1.02,1.12l-1.86-.97c-1.32.32-1.84,3.84-.44,4.6,1.47.8,3.96.85,5.54.7,1.44,3.39-1.33-.73-2.62,5.42-.23,1.1-3.19,1.25-4.35,1.36.46.8.98,2.3.45,2.74-1.4.3-3.7-.56-4.57-1.57s.26-2.92,1.18-3.43l4.4-2.41c1.5-.45-11.07-2.11-7.29-2.16-.31,0-1.09.44-1.31.67l-2.92,3.05c-.29.3-.66,1.51-.49,1.86.34.69,4.96,2.45,3.33,3.45l-3.5,2.15c1.97,1.62,3.24,2,5.66,2.62l-1.59,1.4,1.82,2.63,2.39-1.71c.57-.41,2.08.37,2.83.74l-.77,3.13c1.22.42,2.46.78,3,1.39.65.74.5,2.31.33,3.63.15.44,2.1.93,2.72.52l5.05-3.3c1.98.63,4.17,1.18,5.16,1.01-.21-1.89-.26-2.41-.23-3.29l-1.16-.74c-.26-.16-.15-.85-.23-1.31-1.28-.68-3.58-1.67-3.92-3.29-.3-1.41,2.72-3.09,3.75-2.48.49.47.81,1.97,1.42,2.05l2.81.37-.18,4.11c.75-.69,2.03-2.21,2.58-2.94.31-.41,2.05-.29,2.08.17.2,2.92.21,7.46-.01,9.93-.03.38-1.46.98-1.33,1.3l.79,1.85c.12.29-.55,1.18-.81,1.4-.7.58,2.68.56,1.4,7.12l-.97-.87c-.24-.21-1.28-.71-1.3-.4l-.15,1.78c-.06.76-1.2,1.96-1.95,2.06-.98.12-2.82-.08-3.43-.35l3-4.83c.21-.34.18-1.69.31-2.04s.96-.41,1.46-.43l1.06.27c.3.07.09-1.24-.23-1.32-1.92-.48-5.15-2.83-4.59-5.47l-6.37.64c1.88,2.38,2.46,3.69,2.52,6.05.14,5.09-.85,1.44-1.69,5.41-.16.75.82,2.62,1.64,2.67l5.73.36c-.58,1.75-2.01,3.04-2.67,4.32l-3.13,6.09c-1.18,2.31-3.45,8.15-4.21,11.35l-.84,3.51c-.05.21-.04,1.06.1.95l.95-.66,3.67,1.3c.04.43-.24,1.92-.47,2.77l-.47,1.73c-.1.37-1.24.37-1.85.5l-.16,4.23c-1.51,2.32-1.98,4.44-2.39,7.02-.34,2.15-1.4,4.2-.2,6.51l3.17-.15,1.81,4.04-2.88-.08c-.38-.01-1.19.28-1.31-.01l-.71-1.69-2.29,1.9c-1.34-1.33-2.75-2.18-4.41-2.08-2.28.14-1.94-1.94-2.61-3.27-.88-1.77-3.71-.8-4.81.82-.41.6-2.29.2-2.83-.16l-2.24,2.93.77,1.71c.82,1.82-7.04,8.11-8.48,4.93-.83-1.84-1.55-3.49-2.07-5.33-.28-.99-.27-3.13-1.41-3.36-2.25-.46-3.54,1.35-4.34,3.24l1.32,1.06,1.27,3.7-4.62,1.68-1.07,3.39,1.31,6.05c.05.25.46.9.59,1.09-.1-.15-2.32,2.29-3.81,1-3.25.16-4.49,2.3-7.09,1.16,1.34-5.77,2.44-2.8,3.21-4.65.31-.75.21-2.15-.24-2.74ZM94.66,20.57c-.18-3.19-2.11-4.68-4.36-5.7l-1.52-.69.51,8.66,5.37-2.27ZM108.52,92.67c-1.64,2.57-2.99,4.17-5.5,5.46.24.32,2.4.63,3.1.29.83-.41,3.5-4.76,2.4-5.75ZM35.8,121.54l3.61,1.99.03-9.11-3.57,1.06c-1.14.34-3.03,1.1-2.41,2.78.35.95,1.51,2.83,2.34,3.29Z"/>
  </g>
</svg>