<?xml version="1.0" encoding="UTF-8"?>
<svg fill="#6A7F6B" id="Capa_2" data-name="Capa 2" xmlns="http://www.w3.org/2000/svg" viewBox="0 0 85.24 365.84">
  <g id="Layer_1" data-name="Layer 1">
    <path d="M15.68,116.21c.68-.05.83.65,1.29.9.5.27,1.09.43,1.55.04.72-.61-.08-.97-.4-1.28-.67-.66-.26-1.94-1.52-2.34-.41-.13-.01-.92.5-1.28,2.54-1.77,2.19-6.37-.58-7.71-.16-.08-.39,0-.59,0-.57,0-1.42.64-1.63-.06-.22-.74.28-1.69,1.11-1.97,1.75-.59,2.08-1.91,2.08-3.48-.47-.44-1.03.44-1.64-.27,1.71-1.01,1.29-2.82,1.57-4.41.13-.73.46-1.59-.15-2.15-.73-.66-1.26.56-2.09.46.46-.96.42-1.77-.67-2.25-.64-.29-1-.89-.7-1.49.29-.57.99-.31,1.49-.16.69.21,1.61,1.36,1.99.12.33-1.08,1.22-2.48-.46-3.62-2.54-1.72-2.51-2.51-.1-4.55.62-.52.96-.92.87-1.85-.14-1.42-1.24-3.31,1.37-3.89.43-.1.21-.66-.27-.86-.65-.26-1.48-.15-1.96-.83.39-.5.82-.39,1.18-.25,2.15.81,1.62-.97,1.57-1.83-.03-.51-.6-.94-.05-1.58.45-.52.12-.8-.5-.92-1.79-.36-1.19-1.2-.19-1.74,1.77-.96,1.19-1.77.04-2.71-1.22-1.01-2.37-1.97-1.03-3.82.66-.91.26-2.18-.3-3.13-.6-1.01-1.46-.02-2.2-.06-.73-.04-1.42.62-2.2.09.39-.91,1.65-1.11,1.73-2.32.05-.75.76-.31,1.14-.18,1.62.54,2.21,1.92,2.58,3.41.13.53.13,1.13.59,1.48.22.17.66.18.95.09.43-.13.41-.48.12-.79-1.32-1.39-.49-2.77.17-4.61.15,1.38.21,2.35.38,3.29.09.51.15,1.23.82,1.26.62.04.51-.7.73-1.09.13-.22.22-.46.43-.9-.14,2.34,1.24,4.47,3.24,5.4.85.4,1,0,.89-.68-.15-.97-.19-1.9-1.06-2.72-.82-.78-1.54-2.09,1-2.56-2.03-.72-2.48-1.57-.77-2.68.39-.25.98-.93.63-1.08-1.85-.82-.15-2.86-1.45-3.85-.32-.25-.39-1.13.06-1.28,2.11-.68,1.04-2.18.89-3.35-.14-1.08-.32-1.95,1.21-1.85.37.02.83-.12.65-.52-.95-2.09.62-4.1.1-6.21-.32-1.28-.75-2-2.11-1.59-.8.24-1.65.42-1.81-.56-.14-.87.78-1.06,1.49-1.37,1.16-.49,2.48.36,3.62-.71.7-.65.98-1.05.78-2.02-.26-1.24-.95-2.58.58-3.71.53-.39.72-1.58.32-2.31-.41-.75-1.08.08-1.64.07-.79,0-1.66-.19-1.85-.93-.17-.64.72-.87,1.26-1.11,2.35-1.04,2.4-1.26,1.05-3.58-.3-.52-.53-1.13-.58-1.72-.07-.67.42-.88.93-.47.48.4.75,1.63,1.35,1.13.61-.51.9-1.7.9-2.6,0-1.49-.42-2.96-1.67-3.99-1.08-.88-.77-1.47.36-1.87.96-.33,2.18-1.57,2.12-1.71-.71-1.59,1.26-1.95,1.31-3.13.02-.51.23-1.21.97-1.03.6.15.64.82.71,1.36,0,.07,0,.14,0,.2.06,3,.05,3.06,3.13,3.39,2.19.23.51,1.36.5,2.19,1.78-.28,2.8-1.07,2.59-2.96-.04-.36-.26-.87.4-.96,1.35-.18.75-1.14.64-1.86,1.07-.34,1.82.81,3.08.33-1.14-.73-1.89-1.55-2.28-2.63-.17-.46-.32-.96.11-1.33.36-.31.78.02,1.16.09.75.15,1.15.77,1.48,1.33.51.85.98,1.58,2.45.79-1.57,2.67.45,2.91,1.99,3.69-1.13.62-1.16,1.57-1.15,2.59.01.8.03,1.62.8,1.94.92.38,1.03-.53,1.35-1.11.21-.39.53-.87,1.13-.68.57.18.64.63.54,1.16-.09.46-.26.98.16,1.36,1.05.94.39,1.33-.49,1.69-.38.16-.86.39-.57.87.28.48.77.22,1.04-.08,1.58-1.69,2.19-.12,2.49.93.36,1.26.99,2.35,1.48,3.52,1.1,2.62,1.28,5.35-.52,7.75-.95,1.26-.52,2.2.02,3.3.55,1.12.72,2.21.09,3.42-.86,1.66.91,3.5-.21,5.21-.14.22-.02.56.29.66.31.1.55-.09.61-.38.21-1.02.84-.99,1.68-.85,1.11.19.53,1.1.78,1.64.2.44.03,1.04.11,1.55.16.98.32,1.98,1.78,1.41.36-.14.82-.08,1.22-.03.48.06,1.02.24,1.09.77.09.69-.54,1.07-1.03,1.02-2.26-.22-2.32,1.33-2.52,2.88-.11.87-.38,1.71-.59,2.57-.25,1.04-.34,2.04.55,2.84,1.41,1.28,1.47,2.17-.77,2.37.32.79,1.54.86,1.17,1.83-.21.54-.78.43-1.27.44.01.58.5.83.85,1.04.93.56,2.99.56.94,2.31,2.51,1.3-.95,4.08,1.34,5.44.22.13.24.36.08.49-1.57,1.27-.97,2.7-.37,4.16.2.48-.11,1.51.8,1.23.57-.17,1.18-.85.91-1.81-.58-2.12-.52-2.11,1.75-1.59,1.27.3,2.9,1.27,3.18-1.35,1.48.8,1.24,1.63.26,2.5-1.19,1.06-1.47,2.26-.56,3.63.25.38.49.83,1.1.76.59-.06,1.48-.23,1.45.59-.03.76-.94,1.41-1.63,1.17-2.25-.78-2.01.56-1.9,1.96.06.74.04,1.5-.02,2.24-.1,1.22.04,2.18,1.61,2.16.63,0,1.1.33,1.07.98-.04.81-.69.9-1.34.89-.14,0-.27-.03-.41-.04-.57-.01-1.24-.52-1.67.2-.2.34.16.72.47.75.7.06.95,1.68,1.97.57.05-.05.09-.1.15-.14.9-.49,2.14-1.14,2.74-.26.64.94-.43,1.9-1.27,2.48-1.19.82-2.18,1.72-1.25,3.2.52.82,1.41,1.86,2.36,1.7,1.02-.18.72-1.61,1.07-2.47.2-.48.05-1.11.28-1.57.21-.43.97-.73.98.03.01,1.36.9,1.12,1.65,1.19.7.07,1.58.15,1.5.97-.08.84-.96,1.08-1.77.97-.58-.08-1.14-.29-1.74-.44-.16,1.43,1.07,2.75.48,4.22-.98-.09-.63-1.8-1.56-1.31-.89.47-.13,1.44.05,2.2.15.65.42,1.53.13,1.97-.94,1.39.33,1.14,1.02,1.41-.25,1-2.48,1.49-.79,2.9-2.11,1.25.37,3.07-.53,4.4-.55.8-.13,1.51-.08,2.2-.87.43-1.09-.96-1.89-.5.85,1.91,1.33,2.06,2.58.76.86-.89,1.84-.6,2.6-.07.93.65,1.78.81,3.4-.23-1.1,1.49-1.78,2.44.2,2.27.87-.07,1.33.42.55,1.26-.12.13-.36.37-.35.38.44.48,1.61.82.52,1.66-.97.76-2.21.98-3.44.9-.42-.03-.84-.58-1.25.02-.25.36-.36.81-.1,1.15.29.39.66.52,1.23.22.82-.44,1.6.57,1.51.84-.48,1.43.48,3.09-.75,4.38-1.22,1.28-1.19,2.66-.01,3.95.99,1.08.54,1.52-.64,1.74-.48.09-.9.18-1.26.58-1.64,1.87-1.61,2,.69,3.23.44.24,1.24.37,1,1.05-.25.68-.91.31-1.43.17-.62-.17-1.32-.8-1.86-.07-.43.57.21,1.14.4,1.7.26.76.53,1.52.76,2.18-.69.82-1.38-1.33-1.95.26-.39,1.06-.17,1.56.98,1.59-.15,1.43.86,1.6,1.9,2.01.74.29.23.95-.36,1.09-.7.17-1.44.17-2.89.33,1.81.58,1.96,1.28,1.53,2.41-.47,1.25.98,2.62-.06,3.95-.05.07.21.53.41.6.53.2.97-.11,1.19-.55.53-1.1,1.18-2.2,1.42-3.37.22-1.11.75-1.97,1.43-2.89-.63,1.35,1.18,2.23.57,3.5-.2.41.97,1.97-.94,1.16-.5-.21-.3.61-.23.93.32,1.37-.22,2.54-.77,3.71-.68,1.47-.71-.22-1.09-.23-.96,1.7.33,3.54-.36,5.33-.29.76.78,1.32,1.52,1.7,1.1.57.73-.91,1.38-1,.52.79-.45,1.56-.02,2.37.64.18.69-.45.99-.75.48-.47.94-.07,1.27.15.47.32.14.75-.19.98-1.16.83-2.08,2.12-2.27,3.29-.3,1.92,2.31.24,2.76,1.67-.45.81-1.11-.2-1.62.17-.27,1.22,1.87.78,1.41,2.08-.22.63-.84.84-1.37,1.13.05.14.07.29.15.37.77.75,2.58.45,2.58,1.67,0,1.25-1.66.64-2.52,1.13-1.85,1.06-2.11,2.22-.44,3.29.98.63.9,1.36-.02,1.6-1.52.4-2.22,1.17-2.16,2.71,0,.23-.24.47-.36.71-.22.43-1.21.53-.7,1.22.45.6,1.18.16,1.72-.02,1.98-.64,3.23-2.1,4.19-4.06-.95,1.9.78,3.5.28,5.29-.08.29-.01.85.18.96,3.41,1.93-1.05,1.99-.74,3.16-.59,0-.97.34-.87.88.34,1.76-1.46,2.49-1.96,3.92-.33.96-.16,1.23.16,1.89.4.83,1.67,1.87-.61,2.19-1.24.17-.96,1.3-.33,2.06.33.4.92.58,1.32.93.37.32,1.21.34.98,1.09-.16.53-.8.34-1.23.47-1.32.4-1.64,1.92-1.92,2.82-.27.89-.95,2.19-.19,3.36.21.33.15.78-.28,1.08-.41.28-1.38.39-.98,1.01.42.66,1.29,1.1,2.18,1.15.51.03,1.02-.46,1.66.1-1.19,1.03-1.88,2.28-1.32,3.9-.83.09-.66-.67-1.04-.89-.08.09-.23.18-.22.27.13,2.62.74,5.21-.92,7.72-.58.87-.51,2.67.93,3.15,1.3.43,2.8.43,3.61-1.31.69-1.49,1.64-2.86,2.68-4.2.07,1.36-.15,2.62.09,3.89.06.34-.09.76-.55.51-1.49-.81-1.5.37-1.54,1.21-.04.67.09,1.36-.14,2.02-.1.3-.11.67-.64.6-1.64-.24-2.24.42-1.71,2.06.32,1.01.48,1.97.3,3-.09.54-.13,1.22-.8,1.25-.74.03-.74-.66-.74-1.2,0-.47.1-.95-.5-1.39-1.13,1.9.58,4.03.04,5.29-.66,1.53-.55,3.25-1.29,4.81.27.12.75.31,1.19.56.32.18.43.84.33.84-1.96-.08-.85,2.73-2.95,2.63.71.58,1.24.88,1.58,1.34.35.46.21,1.08-.49.9-2.63-.7-2.14.64-1.52,2.17.12.3.06.67.11,1.32,1.5-2.06,3.76-1.51,5.61-2.16.54-.19,1.19-.08,1.35.56.17.72-.36,1.28-1,1.29-2.31.02-2.58,1.41-2.35,3.22.13,1.01-.19,1.85-.75,2.68-.33.49-.76,1.09-.46,1.71.89,1.83-.34,2.14-1.64,2.32-1.13.15-1.37.61-1.3,1.78.08,1.24-.59,2.52-1.66,3.18-.78.48-1.04.91-.99,1.76.09,1.59,1.41,2.06,2.45,2.76.84.57,1.16-.3,1.65-.78.38.57,0,1.75,1.11,1.61,1.62-.2.21-1.84,1.17-2.6.7,1.37,1.53,2.04,2.59.35.16-.25.58-.34.89-.48.56-.25,1.23-.57,1.73-.11.5.46.01,1.03-.25,1.46-.96,1.58-1.33,3.19-.85,5.07.27,1.06.01,2.23-1.58,2.19-.17,0-.34.08-.51.13,1.15,2.47-2.6,3.26-1.92,5.58.15.52-.32.93-.65.79-1.92-.82-1.92,1.16-2.15,1.81-.6,1.74-1.59,2.96-3,4.05-1.22.94-1.21,2.85-2.64,3.71-.05.03-.07.11-.11.17-.51.93-2.36,1.51-1.37,2.75.77.96,2.25.42,3.3-.21.62.52.29.98.03,1.32-.77,1.04-.87,1.78.05,3.01,1.07,1.43-.01,3.42.34,5.14.01.05-.31.24-.49.26-1.73.18-2,1.45-2.02,2.81-.02,1.35-.49,2.04-1.92,2.4-.93.24-2.32.24-2.64,1.79-.19.93-.96.3-1.51.18-1.31-.3-2.29.62-2.08,1.95.11.66.52,1.13,1.17,1.28.72.17.92-.39,1.1-.93.13-.37.2-.8.85-.98.25,1.72.51,3.41.73,5.11.09.69-.51,1.18-.96,1.07-.85-.21,0-1.06-.44-1.7-1.07,1.29-2.69,2.09-1.17,4.33.54.8,1.09,3.13-1.41,3.44-.35.04-.33.35-.42.6-.8,2.14-3.71,2.37-4.3,4.73-.03.12-.45.29-.5.24-1.57-1.49-1.83,1.02-2.93.95-.32-.02-.46.33-.41.61.69,3.34-1.19,1.66-2.42,1.24-.25-.08-.5-.15-1.53-.46,2.45,2.75.28,4.92.25,7.27-.11,8.19.11,16.37.58,24.55.08,1.37-.42,1.86-1.73,1.84-3.21-.03-6.42-.06-9.62,0-1.72.04-2.25-.7-2.17-2.35.51-10.02.36-20.05.47-30.08.01-1.38-.02-2.47-1.7-2.74-1.2-.19-1.53-1.09-1.74-2.2-.22-1.19-.57-2.41-2.36-2.04-1.06.22-1.12-.8-1.23-1.47-.24-1.52-1.08-2.57-2.36-3.56-.42.88-.52,1.79-1.52,2.13-1.29.44-2.01.32-1.87-1.26.03-.35.46-.79-.19-1.02-2.73-.96-2.57-3.31-2.61-5.64-.61.31-.77.76-.88,1.31-.14.7-.5,1.48-1.3,1.28-.94-.24-.76-1.14-.58-1.89.32-1.33.68-2.65-.22-3.97-.71-.03-.56,1.01-1.25,1.12-.55-.31-.03-.92-.34-1.39-.84-1.31.19-2.27.88-3.24.54-.76.78.03,1.07.27,1.25,1.03,2.97.55,3.06-1.03.06-1.04,1.23-2.79-1.23-3.17-.29-.04-1.16-1.59-2.07-2.21-.31-.21-.15-.64.13-.89,1.2-1.07.93-1.64-.35-2.64-2.87-2.24-4.49-7.13-2.33-10.7,1.3-2.15,1.01-3.41-.87-5.16-.57-.53-.9-1.36-1.21-2.1-.5-1.21-1.08-2.01-2.65-1.71-1.37.25-.74-.61-.44-1.19.23-.44.98-.86.38-1.36-.31-.25-.99-.32-1.49.1-.6.52-1.35.55-1.8-.09-.41-.57.02-1.23.51-1.6.98-.75,1.07-2.01,1.84-2.91,1.69-1.95-.34-2.67-1.48-3.36-2.35-1.41-2.68-2.28-1.29-4.57.34-.56,1.07-1.09.61-1.8-.38-.59-1.11.28-1.66-.03.04-.68.57-.8.93-1.07.52-.39.99-.96.65-1.54-.4-.68-.75.19-1.15.27-1.06.19-2.16-1.34-1.82-2.55.13-.45.39-.87.58-1.31.16-.37.3-.74.44-1.12-.75-.5-.95.5-1.49.36-.02-.09-.11-.23-.07-.33.83-2.02,2.43-3.96.53-6.24-.3-.36-.28-1,.06-1.35.47-.47,1.08-.13,1.48.18.58.45,1.06,1.04,1.56,1.6.43.48.64,1.32,1.55,1,.83-.29.43-1.05.5-1.6.06-.45-.02-.92-.05-1.49-.81.22-.51,1.37-1.81,1.31,1.56-1.87-1.73-3.64.27-5.58.1-.09.08-.5-.02-.57-1.78-1.23-.44-3.54-1.71-4.93-.45-.49-.3-.85.3-1.07.42-.16.8-.42.55-.9-.26-.51-.74-.12-1.11-.08-1.83.17-2.31-1.84-3.8-2.38-.53-.19.68-1.05,1.21-.99,1.53.17,1.69-.57,1.55-1.78-.13-1.12.41-1.71,1.57-1.49,1.15.21,1.92-.58,2.82-1,.73-.35.94-.97.5-1.7-.43-.72-1.03-.65-1.54-.16-.72.71-1.67.48-2.5.73-.59.18-1.17-.03-1.36-.59-.24-.69.43-.97.9-1.14,1.13-.41,2.31-.7,3.54-.09-.94-1.49-2.19-1.13-3.45-.9-.49.09-1.15.32-1.5-.28-.35-.59.3-.81.59-1.14,1.41-1.62-.1-3.59.77-5.28-.87.7-.51,2.13-1.72,2.51-1.97-2.61-.14-5.63-.91-8.34q1.71.22,2.91,3.09c.2-.65.58-1.23.43-1.52-.97-1.79-.44-3.84-1.05-5.65-.7-2.08-.52-3.05,1.5-3.9,1.4-.59,1.17-1.03.36-2.04-.68-.84-2.12-1.85-.47-3.19.45-.36.02-.68-.3-.97-1.02-.91-2.04-1.75-.88-3.37.31-.43-.28-1.51-.44-2.24-.76-.09-.88.56-1.32.72-.77.29-1.22.21-1.05-.77.13-.8.2-1.62.35-2.42.29-1.55-.7-2.95-2.3-3.14-.51-.06-1.28.15-1.18-.68.07-.65.67-1.06,1.38-.9.84.19,1.53.28,2.24-.44.59-.61.74.25.97.56.52.71.96,1.49,1.48,2.2.49.66,1.02.45,1.55-.02.59-.52.13-.7-.08-1.2-.34-.78-2.32-2.22.44-2.72.82-.15.95-.96.26-1.56-.68-.59-1.11-1.49-2.59-1.59,2.45-1.41,2.23-2.84.86-4.4-.46-.52-.48-1.24-.56-1.93-.05-.43-.09-1.18-.7-1.06-1.45.29-1.51-.7-1.48-1.56.07-2.25-1.21-3.63-2.89-4.74-.59-.39-.87-.61-.39-1.21,1.31-1.64,2.02-3.38.83-5.49,1.36,1.03,1.34,2.73,2.43,3.97.88-1.07.21-2.02.07-2.93-.16-1.05-.11-1.77.91-2.61,1.15-.94,2-2.66,1.96-4.08-.05-1.92.91-3.48,1.12-5.43-1.17,3.38,1.6,3.61,3.51,4.69.04-2.18.46-4.34-2.25-5.69,1.28-.39,1.94-1,1.11-2.05-.74-.94-.22-2.93-2.31-2.77-.23.02-.47-.42-.26-.64.26-.28.63-.52,1-.61.96-.23,2.24.04,2.21-1.61.31.81.61,1.62.93,2.43.17.44.31.97.97.79.6-.17,1.24-.39,1.19-1.18-.1-1.68-.24-3.37-.39-5.05-.04-.48-.42-.48-.76-.38-.57.17-1.13.38-1.88.64.13-1.07.92-1.24,1.5-1.57.58-.32,1.44-.46,1.2-1.37-.26-.99-1.12-.75-1.87-.72-.74.02-1.48-.02-2.22-.06-.53-.03-.94-.33-1.04-.84-.13-.65.51-.73.89-.94.65-.35,1.72-.03,1.74-1.3.03-1.58.09-3.15-.76-4.57-.19-.31-.52-.52-.86-.26-.75.59-1.42,1.25-1.04,2.36-2.15-.47-2.19-.56-1.06-2.3.28-.43.9-.89-.01-1.26-.75-.31-.41-.45-.09-.94.95-1.46.47-2.78-1.01-3.23-2.15-.66-2.34-1.37-.84-3.25-.08-.1-.18-.31-.24-.29-.85.18-1.98,1.1-2.4-.2-.34-1.06,1.01-1.36,1.79-1.57,2.69-.72-.3-1.94.35-2.88,1.25.41,1.9,1.52,2.38,2.55.69,1.46,1.56,2.46,3.21,2.71.96.14,1.51,1.1,2.51,1.3,2.72.55,2.98.38,2.63-2.14Z"/>
  </g>
</svg>