<?xml version="1.0" encoding="UTF-8"?>
<svg fill="#6A7F6B" id="Capa_2" data-name="Capa 2" xmlns="http://www.w3.org/2000/svg" viewBox="0 0 173.03 383.05">
  <g id="Layer_1" data-name="Layer 1">
    <path d="M89.57,382.19c-1.54,1.13-3.27.96-4.94.55-1.61-.39-3.16-1.02-4.82-1.31-1.18-.2-1.36-.74-.52-1.58,1.25-1.26,1.93-2.68,1.91-4.46,0-.35.1-.74.26-1.06.57-1.19.69-2.49.97-3.75.74-3.23.1-6.43.05-9.64-.03-1.66-.33-3.32.06-4.98.13-.58-.02-1.13-.16-1.7-.22-.86-.46-1.72-.4-2.62.24-3.51-.36-6.96-.69-10.44-.3-3.05-.73-6.09-.29-9.19.21-1.48-.28-3-.16-4.52.18-2.29-.09-4.56-.25-6.84-.13-1.7.05-3.43.11-5.14.11-2.91.19-5.83.37-8.74.08-1.27-.44-2.08-1.49-2.67-.54-.31-1.07-.66-1.59-1-.31-.2-.59-.44-.75-.78-.16-.34-.25-.71.08-1.01.26-.24.6-.22.87-.05.63.37,1.22.81,1.85,1.18.8.47.95.37,1.03-.55.13-1.37-.19-2.41-1.63-2.99-.95-.38-1.79-1.06-2.66-1.64-.43-.29-.64-.69-.29-1.2.35-.51.77-.42,1.21-.14.79.51,1.56,1.04,2.38,1.5,1.03.57,1.27.45,1.4-.7.2-1.81.31-3.64.52-5.45.27-2.32.32-4.66.83-6.97.41-1.87.33-3.83.72-5.73.13-.65-.08-1.24-.45-1.77-.39-.57-.33-.98.64-1.09-.82-.21-1.38-.43-1.82-.9-.35-.36-.68-.68-.92.16-.09.31-.45.04-.59-.17-.28-.44-.58-.86-1.03-1.14-1.27,1.09-1.79.94-2.71-.8-1.29.72-2.24,2.2-4.04,1.88-.03-.09-.14-.24-.11-.37.11-.56.04-.96-.66-.86-.44.06-.79-.07-1.19-.26-.67-.34-1.34-.6-1.23-1.56.04-.32-.13-.64-.52-.64-.39,0-.5.33-.54.65-.04.36-.02.73-.06,1.09-.06.56-.22,1.06-.96.89-.54-.12-.97.17-1.4.49-.23-.87.59-1,.8-1.53-.39-.12-.76-.28-1.14-.34-.22-.03-.51.28-.63-.12-.1-.32,0-.63.32-.8.27-.14.62-.14.79-.54-.51-.21-1.02-.42-1.55-.63-.48.13-.51.62-.73.95-.38.55-.69,1.13-1.4.37-.28-.3-.3.05-.4.18-.15.19-.38.55-.52.09-.16-.55-.27-.69-.59-.14-.15.25-.3.47-.6.26-.38-.28-.65-.36-.72.24-.02.17-.12.3-.32.23-1.33-.49-1.55.73-2.01,1.41-.42.61-.6,1.16-1.53.61-.38-.23-1.09.04-1.63.15-1.48.3-2.61-.81-2.34-2.3.06-.33.36-.34.52-.53.28-.32.84-.48.33-1.11-.28-.35.13-.67.46-.84.61-.33.49-.7.13-1.12-.27-.31-.46-.8-.8-.92-.9-.34-.55-1.12-.75-1.71-.07-.22.02-.53.2-.52,1.07.07,1.16-1.34,2.15-1.38.12,0,.34-.26.34-.26-.53-.69.07-1.25.2-1.87.08-.36-.54-.88-.23-.94.93-.17,1.23-1.34,2.25-1.26.36.03.71,0,1.11,0-.06-.16-.07-.22-.1-.24-.35-.3-1.31,0-1.08-.76.16-.57.81.25,1.35-.09-.6-.91.3-1.62.4-2.49.04-.31.21-.32.43-.22.31.14.61.16.87-.09.49-.46.54-1.42,1.55-1.32.18.02.19-.45.15-.7-.06-.43.15-.76.5-.88.98-.32.94-.96.65-1.73-.05-.13-.04-.29-.08-.66.76.59.84,1.29.99,1.96.11.5.37.98.92.81.41-.13,1.29-.07.92-1.02-.14-.35.18-.45.39-.56.38-.2.7-.45.96-.78.31-.4.62-.55.96,0,.12.19.32.31.52.12.16-.16.16-.4.06-.59-.12-.23-.29-.43-.42-.66-.13-.23-.28-.5.04-.67.26-.15.49.01.69.19.38.33.56.86,1.07,1.11.45-.53-.22-1.51.3-1.55.61-.05.91-.5,1.4-.57.45-.06,1.04.66,1.13,1.29.46.03.39-.58.76-.65.05.07.17.15.16.2-.12.58-.05,1.11.6,1.24.63.13.41.57.53.92.17.48-1.37,1.01.06,1.4-.07.14-.11.31-.22.4-.31.27-.65.5-1.07.82.11.39,1.34.35.55,1.23-.3.33.21.71.74.52.33-.12.51-.32.63-.63.09-.24.19-.61.37-.66,1.39-.43,1.13-1.33.7-2.21,1.33-1.09,2.98-1.58,4.07-2.88.15-.18.33-.3.53-.29,1.03.02,1.81-.57,2.55-1.07.41.26.32.64.48.91.36-.34.72-.68,1.2-1.14.28,1.11.65,2.06,1.93,2.18.11-2.57.32-5.2.73-7.8.12-.78-.08-1.34-.98-1.44-.25-.03-.62,0-.69-.27-.24-.92-.82-.44-1.6-.19.98-1.19.66-2.27.52-3.33-.12-.94-.38-1.06-1.38-.79-.67.18-1.31.59-2.02.03-.19-.16-.57-.05-.59.28-.04.62-.14,1.28.04,1.85.14.45.33,1.02,1.13,1.08.47.04.63.81.63,1.32,0,.77-.11,1.55-.2,2.32-.04.39-.34.52-.67.49-.25-.02-.49-.13-.74-.2-1.34-.42-2.09-.07-2.57,1.2-.22.59-.49,1.14-.85,1.66-.6.87-1.34,1.22-2.41.96-.61-.15-1.24-.55-1.93-.06-.17.12-.59-.07-.87-.18-.87-.33-1.55-.19-2.18.48-.83.89-3.14,1.23-4.13.56-.45-.31-.96-.67-.49-1.4.27-.42.03-.85-.41-1-.47-.16-.55.38-.8.61-.28.25-.08.58-.12.87-.16,1.28-.71,1.63-2.02,1.4-1.71-.3-2.06-.64-2.33-2.3-.13-.77-.34-.87-1.03-.55-.36.17-.62.59-1.11.42-.33-.47.16-.77.22-1.16.04-.28.02-.54-.22-.7-.33-.22-.59-.03-.81.22-.46.5-.6,1.1-.46,1.74.11.49.26.94-.53.93-.21,0-.37.2-.44.4-.17.49-.37.87-1.01.63-.3-.11-.45.18-.63.35-.41.38-.5.88-.62,1.4-.11.45-1.09-.11-.96.77.04.27-.27.55-.51.48-1.39-.35-2.03.99-3.1,1.36-.44.15-.75.48-1.25.16-.28-.18-.64-.04-.88.16-.49.4-1.09.28-1.63.41-.6.15-.93.12-.81-.61.02-.1.02-.22-.02-.3-.6-1.2-.34-1.97.86-2.45.29-.12.59-.22.89-.29.42-.1.54-.29.55-.76.02-.67.21-1.35,1.16-1.33.49.01.72-.3.82-.78.05-.24.21-.6.39-.64,1.59-.39.85-1.51.91-2.39-.16-.04-.22-.06-.26-.06-.56.07-.83,1.14-1.58.53-.71-.57-1.29-1.24-.94-2.28.08-.24.12-.51-.08-.88-.67.73-1.36,1.42-2.45.86-.52-.27.03-.65-.22-1.02-.48.48-.98.91-1.69.36-.38-.29-.8.07-1.2.14-.96.15-1.49-.06-1.67-.7-.19-.66.33-1.88,1.01-2.01.78-.15,1.25-.58,1.77-1.12.56-.58,1.18-1.14,2.07-1.3.48-.09.92-.46,1.35-.76.35-.25.65-.64.41-1.07-.51-.91-.3-1.67.51-2.44-1.02-.2-1.54-.6-1.3-1.61.16-.66-.47-1.28-.03-2.04-.91-.03-1.47.35-2.01.71-.9.61-1.89.82-2.95.75-.89-.06-1.72-.04-2.6.25-.88.29-1.43-.62-2.11-1.02-.58-.34-.06-.83.08-1.23.1-.28.34-.57-.05-.81-.32-.2-.7-.37-.98.01-.34.48-.62.61-1.13.21-.38-.3-.67.08-.92.34-.58.58-.65,1.38-.78,2.25-.43-.52-.15-1.04-.37-1.47-.33.12-.26.67-.6.65-1.03-.04-1.29.59-1.19,1.74-.7-.56-1.41-.44-1.75-1.07-.13-.23-.26-.23-.49-.08-1.45.94-3.15.48-4.72.78-.2.04-.44-.08-.62-.02-.47.16-.86.53-1.45.24-.6-.29-.33-1.08-.92-1.38-.28-.15-.24-.63-.08-.86.88-1.29,1.68-2.65,2.87-3.72.63-.57,1.3-.55,2.39-.03-.85-1.19.33-2.01-.28-3.03-.47.68-1.01,1.29-1.59,1.87-.34.33-.58.44-.88.06-.35-.44-.56-.45-.94.02-.59.7-1.25.38-1.57-.82-.77.9-1.62,1.41-2.74.72-.28-.17-.61,0-.92.03-1.09.12-1.64-.55-1.27-1.59.17-.49.46-.92.93-1.22.21-.14.43-.37.24-.65-.19-.28-.46-.17-.69,0-1.2.86-2.37-.27-3.56-.07-.15.03-.54-1.49-.39-1.69.5-.64,1.04-1.24,1.56-1.86.03-.04.1-.08.13-.07,1.27.54,1.96-.58,2.73-1.12.64-.45.79.49,1.18.14.32-.28.08-.99.77-1.02.25-.01.53.02.76-.27-.24-.9-.86-1.73-.82-2.76.01-.36-.14-.75.34-.91.77-.26.84-.84.7-1.51-.15-.7-.67-.37-1.09-.45-1.63-.33-1.73-.38-3.34.12-.05.02-.13.01-.15.04-.38.65-.43-1.74-1.06-.1-.16.42-1.23-.24-1.88-.07-.64.16-1.23-.05-1.84-.12-.15-.02-.43-.02-.44-.06-.16-1.66-1.16-.43-1.74-.47-.76-.05-1.54.1-2.31.17-.84.08-1.63-.41-1.85-1.37-.15-.64-.19-1.21.7-1.74,2.16-1.27,2.09-1.39,3.79-1.6-.18-.5-.92-.55-.83-1.29-.74,1.34-1.89.77-2.71.61-.82-.17-1.55-.44-2.39-.15-.58.2-1.13.22-1.39-.52-.32-.91-.17-1.94.44-2.19.9-.37,1.55-1.22,2.64-1.25.62-.02.89-.48.66-1.13-.08-.24-.22-.48-.09-.76.28-.32.68-.19,1.03-.23.66-.07,1.31-.1,1.64-.83.06-.13.22-.24.37-.28,1.83-.58,2.7-2.24,3.98-3.44.68-.64,1.39-1.74,2.68-1.22.34-.44-.31-.8,0-1.21.36-.18.79-.11,1.01.13.54.59.93.43,1.4-.06.71-.76,1.39-1.65,2.61-.77.22.16.48-.09.7-.24.9-.59.91-.58,1.4.47.04.08.15.13.23.2.3-.14.15-.7.54-.69.48.02.47.48.54.83.09.4,0,.84.25,1.21.02.04.09.04.14.07.39-.04.43-.39.58-.65.81-1.44,1.98-2.37,3.69-2.45,1.15-.05,1.98-.36,2.1-1.72.04-.47.43-.92.73-1.53-1.57.46-3.11-.02-4.61.39-.12-.44-.27-.88-.37-1.32-.27-1.14.05-1.47,1.22-1.56,1.01-.08,2.03-.35,3-.61,1.71-.45,3.16-.29,4.55.74.17.12.35.22.59.09.42-.5-.42-.91-.14-1.42.71-.07.57.83,1.12.95.41-.25-.28-.54.04-.79.12-.1.32-.08.4.04.65,1.01,1.43,1.09,2.45.5.72-.41,1.6-.54,2.43-.44.76.09,1.1-.08,1-.88-.02-.2.06-.41.11-.74-1.32,0-2.39-.79-3.62-1.09-.6-.15-.96-.57-.82-1.14.14-.59-.44-1.38.51-1.77.57-.23,1.05-.69,1.63-.9.8-.29,1.67-.76,2.44.15.27.32.53.24.77-.08.19-.25.59-.16.75-.5.35-.78,1.05-.74,1.73-.64.83.13,1.62.2,2.35-.37.28-.22.71-.29,1.06-.17.62.2,1.09.53,1.65-.3.42-.62.65.4,1.15.49.33-1.2,1.23-1.36,2.51-1.01-.55-1.37.66-2.27.53-3.48-.02-.22.41-.42.71-.54,1.31-.5,2.68-.75,4.07-.77.46,0,.93,0,1.39-.03,1.13-.07,2.05.62,2.35,1.72.03.1.03.21.06.31.15.42.11.95.66,1.12.43.13.81-.05,1.4-.67.23.01.2.18.2.33-.08,1.87,0,2.04,1.76,1.8,1.05-.14,1.36.4,1.67,1.14.35.81,1.35,1.08,1.99.53.24-.2.51-.37.7-.61.64-.82,1.32-1.07,2.18-.28.23.21.56.22.89.2,1.05-.06,1.1-.09.95-1.19-.07-.49-.12-.73.5-.39.69.38.23-.72.78-.63.54.56.32,1.38.61,2.03.17.38-.03,1.23.89.75.06-.03.26.13.36.23.78.82.77.82,1.67.19.08-.05.19-.06.4-.13-.05.74-.16,1.54.91,1.62.27.02.36.37.39.62.11.97.67,1.03,1.45.58.19.67.06,1.23,0,1.94.91-.44,1.8-.67,2.78-.51.65.11.78-.34.57-.91-.16-.43-.45-.83-.35-1.46.82.46.75,1.43,1.24,1.99.36-.16.44-.5.32-.67-.51-.65-.39-1.25-.11-1.96.12-.31-.05-.71.46-.8.48-.08.66.18.76.58.04.15.1.29.39.31.25-1.79.07-3.6.2-5.4.02-.31-.13-.47-.44-.53-.36-.07-.41-.38-.53-.68-.42-1.07-.96-1.31-1.87-.74-.66.41-1.09.73-1.62-.16-.33-.56-.8-.26-1.16.12-.42.43-.81.46-1.11-.12-.19-.37-.47-.52-.88-.51-.81.01-1.47-.49-2.23-.68-.81-.21-.81-1.01-.96-1.64-.15-.63.32-.85.77-1.18.71-.52,1.89-.37,2.21-1.08.31-.68.24-1.59.47-2.4.15-.51.39-.8.69-1.2.61-.82,1.24-1.72,1.51-2.8-1.12-.46-1.82.95-2.82.52-.86-.37-1.9.01-2.62-.75-.67.57-.12,1.39-.67,2.07-.07-.8-.11-1.46-.2-2.12-.04-.26-.21-.49-.53-.45-.23.03-.45.26-.38.42.6,1.42-1.01,2.02-1.1,3.2-.38-.86.13-1.82-.5-2.6-.74.96-1.63,1.66-2.93,1.62-.32-.01-.58.06-.67.48-.26,1.3-.57,1.37-1.74.31.06.92-.31,1.47-1.08,1.79-.7.29-1.21.98-2.09.88-.66-.08-1.21-.07-1.75.63-.48.62-1.3-.25-2.03-.15-.26.03-.51-.45-.29-.88.24-.48-.64-.58-.35-1.26.27-.63-.05-1.56,1.37-1.33-1.02-.47-1.82-.87-2.64-.19-.31.25-.54.33-.97.14-1.19-.55-1.21-.51-1.74.53-.07.14-.15.27-.22.41q-.61,1.27-1.89.38c-.33.64-.22,1.44-.73,1.97-.51.06-.28-.67-.75-.64-.34.33-.19.79-.31,1.17-.11.34-.16.82-.59.82-.51,0-.41-.49-.43-.84-.01-.2.03-.42-.17-.61-.5.27-.16.86-.45,1.21-.36-.04-.49-.87-1.07-.29-.82.82-1.71.87-2.53,0-.72-.76-1.65-.72-2.56-.72-.31,0-.6.11-.92,0-.96-.29-1.13-.53-1.08-1.61.02-.32-.04-.62-.3-1.05-.51,1.04-1.46,1.58-2.1,2.41-.14.17-.31.4-.48.33-.77-.31-1.52.15-2.31.01-.79-.14-1.57-.4-2.42-.41-.65,0-1.79.06-1.45-1.34.09-.38-.48-.65-.89-.72-1.33-.21-1.9-1.02-1.95-2.33-.51-.22-1.04.61-1.56.05-.4-.44-.56-.98-.48-1.59.05-.37.12-.65.47-.9.36-.25.93-.29,1.06-1.04-.77.38-1.39.05-2.01-.25-.32-.15-.64-.34-1.04-.18-.46.18-.69-.08-.77-.5-.14-.73-.62-.88-1.3-1.09-1.11-.33-2.35-.5-3.17-1.48.06-.24.41-.23.45-.38.48-1.74,1.95-1.45,3.14-1.42.88.02,1.69-.2,2.52-.32.74-.11,1.51-1.26,1.47-2.01-.01-.16-.04-.38-.2-.38-.77.01-.93-.83-1.44-1.04-1.1-.46-.58-1.34-.54-1.95.05-.69.94-.89,1.47-.84,1.63.16,3.33-.07,4.83.96.6.41,1.43.89,2.26.21.13-.1.45-.1.6-.01,1.14.72,2.51.38,3.7.8.7.25,1.21-.14,1.68-.55.25-.22.51-.54.78-.29.59.55,1.18.23,1.73.09,1.1-.27,2.13.2,3.22.18.69-.01.88-.2,1.14-.66.27-.48.24-1.2.93-1.35.9-.19,1.82-.36,2.74-.44.5-.04.64.66,1.14.78.4-.37-.15-.78.12-1.24.5-.05.94.62,1.54.33.65-.32.79.56,1.29.6.29-.34-.16-.74.23-1.14.43.53.93.76,1.42.04.12-.17.38-.38.52-.22.79.85,1.53-.11,2.3-.05.46.03.93-.26.97.52.01.26.21.33.46.19,1.08-.62,1.81-.17,2.37.78.05.09.12.17.19.25.21.22.37.57.74.48.35-.08.43-.41.48-.73.05-.3.08-.61.14-1.06,1.13.56.13,2.22,1.13,2.3,1.19.09.32,2.04,1.78,1.54.18-.59.34-1.24.56-1.87.28-.8.84-1.3,1.7-1.4.75-.09,1.32-.2,1.54-1.18.11-.48.37-1.29,1.12-1.5.33-.09.36-.38.28-.63-.23-.71-.08-1.22.67-1.48.27-.09.46-.29.38-.59-.11-.4-.45-.29-.75-.34-1.58-.25-2.83.23-3.83,1.48-.38.48-.9.85-1.36,1.27-.68-.36-.13-.97-.38-1.5-.42.03-.92.79-1.38-.02-.2-.35-.56-.24-.76.07-.23.35-.41.73-1,.85-.16-.38-.01-1.55-1-.63-.17.16-.39.07-.59.02-.81-.19-1.56.08-2.24.45-.64.34-1.21.43-1.95.39-.72-.04-1.53.15-2.19.55-.46-.21-.03-.6-.25-.84-.08.03-.21.04-.24.09q-.62,1.36-1.91.98c-.14-.04-.38-.19-.39-.17-.84,1.19-1.99.2-2.98.4-1.36.28-2.09-.2-2.64-1.5-.38-.9-1.13-1.34-1.85-1.84-.33-.23-.87-.32-.8-.84.12-.92-.53-1.53-.75-2.37-.51.3-.13,1.09-.67,1.13-.37.03-.81-.02-1.19-.03-1.27-.04-2.49-.21-3.73-.49-1.58-.35-2.05-.75-2.41-2.33-.07-.3-.12-.62-.41-.81-.09.05-.21.08-.26.15-.25.41-.05,1.18-.76,1.22-.71.05-.49-.81-.95-1.19-.41.29-.15,1.22-1.09,1.14-.64-.06-.85.84-1.35,1.21-.71.54-.8.53-1.36-.15-1.14-1.39-2.65-2.1-4.43-2.12-.73-.01-1.37.02-1.68-.77-.16-.41-.46-.51-.86-.53-.6-.02-1.17-.13-1.31-.84-.09-.45.67-1.58,1.22-1.58.86,0,1.14-.86,1.84-1.03.1-.02.22-.24.22-.37,0-.92-.18-1.9,1.03-2.27-.18-.96.64-1.86.41-2.7-.23-.83.19-1.54.01-2.34-.12-.54.18-1.14.99-1.07.2.02.49.06.6-.05.98-.91,2.21-.4,3.31-.63.25-.05.62.08.76-.06,1.15-1.05,1.86-.05,2.87.78-.31-1.17.13-1.83.61-2.6.6-.96,1.4-1.15,2.3-1.35.61-.13,1.23-.18,1.84-.32.52-.12.84.92,1.43.22.55.59,1.1,1.19,2.02,1.13,0,0,.07.29.05.43-.07.41-.2.81-.27,1.22-.04.21.02.43.22.54.23.12.41-.02.53-.19.24-.34.43-.72.69-1.04.23-.3.42-1.27.88-.09.12.3.42-.09.59-.24.96-.82,2.06-.87,3.22-.63.64.13,1.28.4,1.51,1,.32.82,1.39,1.27,1.14,2.36-.01.06.1.15.15.22.58-.57.8-.27.73.36-.08.74.8.37.9.86.05.25-.21.48-.05.76.59-.11.44-.92,1-1.06.24.33-.12.85.35,1.11.23.13.62.4.65.36.69-.86,2.21.14,2.56-1.23.67.15.3,1.41,1.31,1.01.11-.04.31.12.3.3-.1,1.17.65,1.14,1.35.83.52-.24.63.64.94.28.33-.38.67-.07,1-.2.55-.2.55.69,1.06.7.14-.22.27-.44.4-.65.12.05.26.05.29.12.23.41.52.8.63,1.24.36,1.37,1.13,1.91,2.5,1.64.13.39-.33.79.08,1.25.56.02.89-.88,1.58-.56q0,1.42,1.19,1.43c.14.55-.76.76-.47,1.36,2.76-1.13,2.78-1.12,3.96.66.72-1.38.92-2.69.18-4.02.35-.27.5.16.78.08.05-.04.03-.12-.03-.23-.2-.37-.83-.62-.44-1.18.32-.45,1.57-.51,1.98-.13.22.21.32.54.68.64.42-.07.54-.54.94-.72.91-.41,1.74-.29,2.26.6.36.61.6.86,1.29.3.89-.72,2.01-.57,3.06-.35.33.07.62.2.82-.12.63-1.04,1.5-.67,2.35-.44.99.27,1.37.01,1.37-.97,0-.35-.11-.47-.52-.68-.81-.42-2-.63-2.13-1.9-.01-.13-.14-.27-.25-.36-1.32-1.06-1.4-1.44-.67-3.15.3-.69,1.67-1.23,2.68-1.04.92.17,1.2.03,1.3-.96.22-2.23.38-4.46.53-6.7.05-.68-.03-1.36.05-2.03.19-1.61-.32-2.97-1.4-4.15-.22-.24-.43-.47-.43-.8,0-.9-.29-1.43-1.32-1.1-.63.2.1-.91-.63-.66-.33.11-.69.15-1,.22-.21-.33-.02-.45.15-.56.35-.22.86-.41.59-.92-.22-.43-.65-.05-.99-.04-1,.03-1.43.98-2.37,1.54.12-.79.08-1.43-.58-1.88-.28-.02-.44.29-.68.48-.21.16-.36.32-.63.02-.56-.61-1.3-.77-2.05-.61-.36-.47,1.32-.7.03-1.17,1-.64.14-1.34.05-2.01-.03-.24.12-.38.28-.52.23-.19.6-.38.26-.73-.27-.29-.72-.39-.97-.06-.41.52-1.11.56-1.5,1.08-.12.16-.34.23-.6.19-.4-.45.3-.83.09-1.32-1.45-.03-2.58,1.6-4.18.9-.07-.53.63-.69.58-1.35-.89.3-1.66.03-2.52-.27-.89-.31-1.73-.32-1.68-1.47-.5-.15-.78.21-1.12.24-.37.03-1.02.92-1.11-.39-.03-.41-1.08-.35-1.66-.06-.22.12-.38.35-.59.5-.21.15-.54.43-.65.36-.72-.43-1.51.07-2.07-.08-.73-.19-1.02.02-1.45.41-.23.21-.49.4-.77.52-.42.17-.74-.02-.78-.47-.04-.36.05-.73.05-1.09,0-.46-.17-.91-.65-.94-1.15-.06-1.69-1.03-2.49-1.59-.68-.47-.62-.94.02-1.52.49-.44.86-1.29,1.78-.69.08.05.31-.04.41-.14.13-.12.05-.39-.06-.4-.94-.13-1.17-1.53-2.33-1.27-.32.07-.49-.2-.45-.49.06-.42-.09-.62-.48-.81-1.21-.6-.6-1.73-.68-2.65-.03-.35.34-.3.56-.41.93-.49.96-.89.19-1.59-.58-.53-1.38-1.01-.56-1.95.04-.05-.03-.19-.04-.29-.08-1.29.19-1.53,1.38-1.23.25.06.51.12.76.18.21.05.43.12.53-.14.11-.26.08-.56-.19-.69-1.06-.53-2.07-1.11-2.87-2.01-.21-.24-.47,0-.6.25-.2.41-.21.92-.63,1.31-.76-.36-.24-1.25-.67-1.72-.53-.23-.11.93-.81.52-.37-.22-.52.19-.73.4-.85.83-1.33.9-1.98-.08-.47-.71-1.03-.96-1.77-1.06-1.36-.18-1.39-1.45-1.74-2.34-.31-.79.45-1.44.9-2.04.24-.31.75-.3,1.18-.15.36.12.77.16,1.03-.14.31-.37-.06-.65-.23-.96-.31-.6-.53-1.25-.89-1.81-.37-.57-.33-1.27-.04-1.63.55-.69.66-1.49,1.01-2.23.51-1.11.51-1.14-.47-1.89-.57-.44-1.14-.87-1.65-1.4-.76-.79.08-1.34.16-1.95.08-.6.93-.55,1.48-.47,1.67.26,1.71.27,2.59-1.08q.73-1.12,1.92-.69c.39.14.78.36,1.18.37.63.02,1.38.6,1.88-.29,1.63-.15,3.3-.5,4.72.87.25-.41,1.05-.43.83-1.11-.32-1.01-1.14-1.51-2.14-1.44-.12-.42.52-1.16-.35-1.23-.7-.06-.73-.65-1.1-.9-.38-.26-.97.28-1.53.04.2-.8,1.05-.2,1.43-.73-.26-.59-.81-.48-1.28-.41-.82.11-1.53.15-1.37-1.01.03-.19-.03-.25-.19-.32-.55-.25-1.04-.85-1.18-1.53-.06-.29-.21-.46-.43-.61-.17-.12-.37-.2-.53-.33-.66-.48-.84-1.21-.81-1.94.04-.82.97-.95,1.41-.95.91,0,.94-.6,1.22-1.12.39-.7-.07-1.05-.47-1.46-.62-.63-1.06-1.36-1.39-2.18-.18-.44-.13-.8.1-1.18.55-.95,1.03-1.04,2.33-.37.56.28.85,1.23,1.79.47.61-.49,1.09-.91,1.16-1.71.02-.25.33-.42.2-.82-.55-.05-1.25.16-1.62-.66-.2-.44-.86-.79-.5-1.32.4-.58.51-1.5,1.58-1.48,1.78.03,3.56-.33,5.35.27.46.15.92,1.08,1.6.32.16.6.6,1.06.99,1.49.54.59.31,1.14.08,1.77,1.45-.62,2.05-1.51,1.6-2.7-.41-1.08.01-1.87.63-2.55.42-.46.6-.89.36-1.38-.47-.95.12-1.55.7-2.01.48-.38.61-.62.52-1.24-.1-.67-.6-1.47.23-2.14.1-.08-.3-.94-.6-1.34-.54-.72-1.2-1.28-2.06-1.68-.43-.2-.6-.55-1.2-.23-.65.35-1.74-.48-1.76-1.44-.01-.73-.35-1.05-.87-1.3-.35-.17-.66-.27-.46-.78.11-.29-.16-.55-.4-.58-.6-.09-.63-.69-.98-.98-.99-.84-.74-2.19-1.33-3.2-.15-.26-.08-.7.15-.88.69-.55,1.03-1.47,1.93-1.8.04-.68-1.01-.85-.77-1.56.2-.6.88-.82,1.24-1.35.46-.67,1.16-.43,2.36.63.43-.04.39-.44.49-.7.6-1.5,1.45-1.83,3.12-1.57,1.36.21,2.68.71,4.09.6.31-.03.49.1.68.27.36.33.6.16.91-.12,1.23-1.08,3.1-.78,3.89.56.31.52-.1,1-.05,1.48.41.16.52-.36.97-.29-.12.62-.76.98-.85,1.79.47-.31.87-.74,1.37-.16.27.31.95.29,1.1-.08.15-.37.7-.74.31-1.25-.51-.67-.32-1.02.49-1.15.17-.03.34-.23.47-.38.96-1.12,1.64-1.1,2.84-.35,1.42.9,1.95,2.31,2.49,3.71.88-.03,1.46-.32,1.76-1.11.14-.38.37-.78.68-1.03.41-.33.67-.64.5-1.18-.15-.48.16-.8.44-1.1.3-.32.7-.6,1.01-.04.35.61,1.09.49,1.36.39.56-.21,1.07-.07,1.57-.14,1.75-.24,3.23.33,4.7,1.1.2.1.42.14.59,0,.64-.54.87-.36.87.43,0,.35.33.42.56.21.45-.42.67-.66,1.07.16.39.81.83.67,1.65.12.79-.53,1.67-1.03,2.57-1.23.56-.12,1.31.24,1.86.57.76.46.05,1.11-.02,1.87.77-.37,1.46-.49,2.19-.14,1.56.75,1.89,1.94.69,3.23-.53.58-.15,1.28-.43,1.68-.58.82-.51,1.78-.87,2.61-.25.56-.22.98.2,1.41.21.22.52.45.39.8-.43,1.1.27,1.25,1.07,1.35.2.03.43-.01.55.27-.61.35-1.21.08-1.81,0-.29-.04-.67.2-.48.38.8.8.3,1.76.4,2.64.15.07.3.11.43.19.52.31,1.19-.01,1.65.3.42.3.44,1.02,1.18,1.09.31.03.43.47.33.78-.22.67-.04,1.49-.72,2-.11.09-.19.25-.24.39-.15.42.05,1.16-.46,1.22-.75.09-1.54-.17-2.2-.61-.38-.25-.56-.76-1.17-.88-.17.39.34.62.28.92-.08.38-.37.59-.71.74-.08-.07-.19-.12-.23-.2-.19-.4.08-1.18-.46-1.21-.77-.04-.35.81-.55,1.23-.29.59-.09,1.53-1.25,1.35-.41-.06-.54.39-.66.75-.2.63-.56,1.01-1.28.7-.09-.04-.26-.07-.29-.03-.37.51-1.26-.18-1.51.72-.24.86.38,1.08.85,1.45.06.05.04.19.09.41-.54.05-1.24-.1-1.35.75-.06.48-.7.76-.24,1.49.24.38-.44,1.09-1,1.4-.42.24-.84.47-.99.94-.13.4-.53,1,.11,1.19.43.13,1.21.25,1.19-.95.85.99,1.52,1.79,1.7,3.08.78-.74.6-1.74,1.3-2.35.42-.2.75.38,1.22.33.55-.06.34-.88.97-.91.32,1.08-.7,1.24-1.33,1.88,1.08.18,1.93.58,2.73,1.1.24.16.59.19.9.21,1.1.06,1.69.61,1.71,1.65.04,1.52.18,1.63,1.57,1.11.26-.1.36-.04.51.13.09.11.22.2.33.29.78-.97,1.84.02,2.7-.39.18-1.35,2.06-.87,2.33-2.17.03-.16.6-.38.82-.3.97.33,1.84-.1,2.75-.24,1-.15,1.51.18,1.91,1.14.12.29.17.68.39.83.68.47.62,1.11.34,1.66-.68,1.33-1.07,2.78-1.81,4.09-.43.75-.78,1.03-1.57.83-.29-.07-.62-.11-1.03.09.57.49,1.45.4,1.86,1.23-1.13.27-1.4.93-.97,2.03.29.73-.56,1.46-.22,2.27.02.04-.11.21-.18.21-1.19.07-.89,1.27-1.41,1.85-.45.51-.04.84.4.83.8-.02,1.04.29,1.14,1.05.09.72.83.86,1.43,1.05.23.07.35-.08.48-.27.64-.93.64-.92,1.44,0,.69-.75,1.02-1.61.48-2.54-.48-.83.8-.31.63-.97-.12-.45-.1-1.15.81-.67.31.16.34-.23.38-.49.1-.64.64-.8,1.17-.35.11.09.17.23.29.39.25-.51.17-1.08.54-1.5.61-.02.92.49,1.3.9,1.14-1.4,2.55-1.36,4-1,.75.18,1.11,1.42.77,2.1-.46.93-1.36,1.5-2.15,1.62-.9.14-1.44.86-2.32.93-.52.04-.32.94-.99,1,.49.64.95.5,1.49.38,1.73-.37,1.74-.34,2.46,1.34.33.78,1.25,1.16,2,.75.5-.28.92-.32,1.47-.12.57.21,1.22.16,1.83.28,1.03.2,1.65.48,1.56,1.2-.08.67-.42,1.34-1.18,1.61-.15.05-.29.18-.43.17-1.36-.11-1.44.88-1.61,1.82-.11.62-.02,1.11.5,1.53.31.25.55.52.58,1.02.08,1.42.15,1.46-1.17,1.98-.69.27-1.19,1-2.12.79-.41-.09-.47.61-.77.89-.33.31-.61.59-1.06.21-.26-.23-.53-.33-.82-.03-.43.44-.79.28-1.21-.09-.47-.41-1.11-.18-1.1.43,0,.42-.05.57-.42.6-1.15.1-.62.75-.52,1.35,1.02-.33,1.85-.85,2.91-.71,1.28.16.73,1.61,1.66,1.96-.89.68-1.93.96-2.69,1.76-.72.76-1.68,1.19-2.8.67-.33-.15-.77-.38-1.04-.12-.72.71-1.67.94-2.5,1.4-.85.47-.8,1.7.02,2.26q.37.25.68,1.46c.38-.47.76-.67,1.09.11.71-.82,1.33-1.61,1.83-2.65.91,1.14-.3,1.75-.28,2.63.8-.43.99-1.33,1.65-1.83,1.32.92,2.87,1.24,4.35,1.75.9.31,1.24,1.03,1.67,1.69.18.28-.86,1.99-1.26,2.18-.18.09-.4.1-.59.16-.36.11-.47.4-.45.73.02.3.25.46.51.52.41.09.83.09,1.23.19,1.02.27,1.29,1.37.51,2.11-.39.38-.73.78-1.3,1.01-.71.3-1.03-.35-1.64-.4-.14.56-.25.96.55,1.12.47.09.94,0,1.36.08.55.12,1.31-.28,1.65.53.12.27.32.11.52.02.37-.16.79-.39,1.18-.25.54.2.82.11,1.13-.41.32-.54,1.54-.81,1.88-.36.52.69.85.24,1.31.08.76-.26,1.46-.71,2.35-.14,1.1.7,1.26,1.89.13,2.58-.47.29-1.06.37-1.31.97-.04.1-.27.18-.4.17-.4-.05-.86-.32-1.11.2-.3.6-.53,1.24-.76,1.88-.04.1.08.3.18.39.13.12.31.05.42-.07.25-.26.45-.59.73-.8.24-.18.62-.28.78.12.09.22-.02.6.38.26.42-.36.81-.41,1.25-.03.27.24.46.02.66-.15.3-.25.63-.79,1.02-.33.4.47,1.42.67.94,1.66-.01.02.04.08.14.26.76-1.18,1.94-1.25,3.11-1.14.44.04,1.42-.01.92,1.1-.21.47.82,1.19-.29,1.6-.63.24-1.2.17-1.81-.03-.19-.06-.41-.05-.67-.07-.26.42.36.58.28.92-.12.49-.6.32-.89.49-1.05.6-1.17,1.71-.24,2.48.39.32.62.66.67,1.17.04.46.06.85-.55.87-.39.01-.64.05-.71.58-.07.57-1.02.8-.72,1.59.36.96.41,2.03,1.25,2.81.74.69.63,1.59-.18,2.26-.34.28-.49.66-.84,1.21.8-.25,1.37.39,2.08.06.1-.05.29.07.42.15.96.59,2.07.97,2.96.8.65-.13,1.15.44,1.83.19.38-.14.46.35.5.64.09.57-.5,1.62-1.08,1.86-1.53.65-3.06,1.15-4.55-.36.13.39.26.78.38,1.15-1.06,1.12-2.28.17-3.4.35-.34.05-.72-.03-1.07-.11-.42-.1-.6.17-.69.46-.17.58-.05,1.26-.73,1.63-.15.08.1.25.13.38.17.97.16.96-.95,1.09-.2.02-.39.15-.6.16-.42.03-.91-.05-1.01.5-.11.61.45.59.82.71.36.12.6.41.88.63,1.14.89,1.13,1.67-.17,2.27-.99.46-2.08.6-3.16.19-.26-.1-.52-.16-.7.09-.2.28-.21.6.02.87.24.27.53.5.8.75.2.18.37.36.26.67-.1.27-.4.57.05.8.37.19.78.39,1.19.27.45-.13.37-.55.35-.92-.03-.45.04-.8.58-.35.07.05.2.12.25.09,1.07-.57,1.27-.57,2.39.17.27.18.5.18.67-.06.24-.33.43-.7.66-1.07q.46.68.57,1.81c.33-.21.13-.56.22-.83.07-.2.24-.5.39-.31.67.88.8.12,1.18-.28.74-.78,1.28-1.68,1.78-2.62.6.35.27,1.08.86,1.43.78-.46,1.39-1.13,1.94-2.12.35.81.89.71,1.6.75,1.3.07,2.58-.72,3.89-.05.63.32.67.22,1.73,1.41-1.07.8-1.94,1.93-3.47,1.87-.1,0-.11.33.01.85-.53-.03-.92-.56-1.46-.39-.37.46.63.6.27,1.02-.24.28-.59.43-.98.39-.1,0-.23-.01-.3.04-.46.31-1.19.38-1.28,1.02-.08.61.57.88,1.01,1.05.56.23.75.42.49,1.01-.22.51-.1.99.59.92.68-.07,1.13.55,1.88.42.64-.11.8.79.53,1.46-.27.66-1,.5-1.4,1.09.59.23,1.42-.18,1.69.7.07.23.46,0,.7-.04.77-.1,1.72.48,1.98,1.15.18.47.22.9-.22,1.28-.73.64-1.41,1.24-2.42,1.54-.9.27-1.79.21-2.67.38-.24.05-.5-.07-.74.09-.34.22-.49.52-.45.92.03.4.3.51.63.55.69.08,1.26.29,1.77.85.41.46,1.11.68.46,1.43.53.68-.03,2.08,1.45,2.15.22.01.48.24.62.43.35.47.78.71,1.35.57.58-.14.97.31,1.47.39.59.1.86.56.9,1.04.05.65-.73,1.8-1.19,1.79-.61-.01-1.12.11-1.57.52-.1.09-.33.13-.44.08-.54-.26-.79-.03-1.28.28-.46.29-.77.51-1.1.98-.49.71-1.24,1.25-1.87,1.87-.58.57-.52.98.16,1.39,1.44.87,1.79,1.63,1.55,3.17-.14.89.01,1.82-.2,2.65-1,.51-2.03-.17-3.06.2-.62.23-.56-.64-.95-.85-.22.65-.51.9-1.24.5-.51-.28-1-1.28-1.81-.34-.14.16-.4-.09-.48-.26-.32-.66-.95-.25-1.41-.38-.6-.17-.16.68-.63.91-.49-.21-.29-.96-.92-1.23-.49.13-.97.78-1.81.32-.33-.18-1.29.13-1.72.77-.46.69-1.15.93-1.98,1.02-.8.09-1.62.22-2.36.71-.39.26-.75.36-.9.89-.04.15-.76-.12-.8.59-.02.34-.56.64-1,.3-.89-.67-1.07-.18-1.09.62,0,.16,0,.31-.21.37-.66-.24-.7-1.12-1.54-1.53.37,1.05.95,1.79.86,2.85-.13,1.44-.68,2.32-2.07,2.46-.7.07-1.51-.71-2.11.24-.12-.08-.26-.14-.36-.24-.53-.53-1.17-.43-1.74-.19-.51.22-.9.26-1.24-.18-.66-.83-1.69-.69-2.55-1.03-.41-.16-.54.22-.81.32-.38.14-.81.45-1.12-.03-.39-.6-.67-.42-1.09-.02-1.01.94-2.64,1.27-4.02.86-.62-.18-1.24-.1-1.85,0-.2.04-.41.05-.62.09-.62.11-1.92.96-2.27,1.49-.19.29-.41.42-.78.34-1.1-.25-2,.21-2.71.98-.52.56-1.39.23-1.89.84-.1.12-.33-.18-.44-.35-.27-.44-.3-1-.83-1.5,0,.43.04.76-.01,1.07-.05.32-.01.86-.58.63-.32-.13-1.03-.06-.74-.84.12-.33.13-.71-.09-1.22-.63.71-.53,1.88-1.63,1.99.3.76,1.27.49,1.46,1.23-.51.43-.93-.41-1.49-.04.21.81,1.32,1.64.15,2.54-.35-.04-.43-.43-.71-.56-.12,0-.17.06-.14.19.07.34.45.82.05.98-.38.15-.9.42-1.33.19-.61-.33-1.05-.35-1.45.29-.2.31-.56.25-.85.09-.8-.43-1.69-.58-2.53-.89-1.07-.4-1.25-2.21-.32-3.17.28-.29.76-.36.95-.81-.12-.52-.92-.51-.88-1.19.02-.41-.31-.65-.75-.6-.46.05-.84.27-.85.76-.02,2.03-.24,4.07.2,6.08.11.52.33,1.02.81,1.28.58.31.57.54,0,.82-.08.04-.12.15-.18.22,1.33.22-.12,1.32.61,1.78.54,0,.85-.99,1.61-.47.38.26.96,0,1.29.44l.38,1.47c.54.69.85,1.36-.44,1.9.91.15,1.45.43,1.67,1.18.16.54.66.78,1.2.9.31.07.72.16.73.49.04,1.15.63,2.02,1.3,2.86.13.16.16.26.02.36-.12.09-.29.11-.43.16-.27.09-.49.24-.32.56.13.25.38.35.66.27.53-.15.95-.44,1.04-1.04.23-1.54.81-3.03.56-4.63-.03-.21-.03-.41.28-.61.45.22.79.74,1.36.86.2.04.32.17.39.41.26.93.9,1.14,1.36.37.38-.64.65-.72,1.28-.47.23.09.59-.16.89-.22.32-.05.64.04.84.31.22.32-.32,1.35.8.81.59-.28.92.48,1.58.35,1.1-.22,1.12-.1.78,1.06-.02.08.05.19.12.38.93-.18,1.87-.29,2.7.47.24.22.87.26,1.2.11.95-.42.7.36.84.76.46.09.69-.44,1.14-.39.26.03.59-.05.6.3.03.85.7.76,1.22.93.74.24,1.53.28,2.21.73,1.2.8,1.23,1.71,0,2.53-.25.17-.57.25-.86.36-.34.13-.78.18-.69.68.08.44.35.79.86.72,1.41-.18,1.83.93,2.42,1.82.13.2.19.52.13.75-.38,1.43-.38,1.51.7,2.26.6.42,1.22.81,1.75,1.39-.14.63-1.05.77-.98,1.67.05.61-1.11,1.13-1.83,1.01-.47-.08-.86-.24-1.22.31-.24.36-.73-.43-1.19.11.33.74,1.19,1.18,1.42,2.05.11.42.63-.24.74.17.08.28-.03.61-.05.92-.01.27.21.25.39.35.7.39,1.36.86,2.03,1.3.42-.12.45-.54.61-.84.44-.82,1.2-.9,1.68-.05.34.6.92.68,1.36.67.48-.01.77-.15,1.17.33.32.38,1.28-.32,1.25-.89-.02-.38-.24-.68-.4-1-.22-.43-.2-.46.45-.7.41-.15.52-.46.49-.84-.02-.29-.46-.46-.23-.82.89-.26.84.76,1.34,1.04.28-.42,0-.73-.11-1.06-.2-.63-.57-1.21.69-1.05.4.05,1.15-.61,1.3-1.43.14-.76.23-.75,1.2-.48.37-.42-.26-.89.11-1.36.11-.08.23,0,.32.13.17.24.21.85.67.19.18-.25.46-.24.65.03.16.24.3.46.55.11.24-.34.5-.86.94-.45.58.55,1.8.1,1.94,1.28.03.27.08.61.38.6,1.14-.04,2.1.47,3.09.9.31.14.51,0,.6-.29.09-.3.18-.6.22-.91.12-.84,1.08.2,1.23-.56.42.14.22.51.26.78.06.44-.09.91.15,1.48.54-.49.32-1.18.68-1.6.32-.36.68-.79.91.11.14.56.46.18.68.06.35-.18.77-.91.84-.74.4,1.03.72.11,1.06.04.35-.07.43.16.53.42.32.76.66.93,1.64.71,1.05-.24,2.48-.47,3.38.74.16.21.39.58.56.46,1.06-.74,1.72.35,2.55.55,2.17.53,2.68,1.57,2.05,3.8.84-.03,1.5.5,2.28.69.75.19,1.37.56,1.8,1.37.54,1.02,1.99,1.22,2.53,2.34.04.09.14.15.21.23.48.6.73,1.23.39,2.01-.35.79-1.14.68-1.72.75-.48.06-1.06-.32-1.24.42-.18.72-.62,1.5.11,2.19.41.39.69.92,1.3,1.09.29.08.76.12.78.43.03.46.22.93.14,1.35-.11.56-.56.97-1.16.71-.86-.38-1.66-.24-2.48.06-.65.23-1.23-.1-1.81-.28-.55-.16-.94-.15-1.34.4-.92,1.26-2.11,1.57-3.69,1.25-.76-.15-1.84-.35-2.62.43-.19.19-.58.19-1.05.34.78.43,1.24,1.06,1.85,1.55.42.34.73,1.14.67,1.69-.08.71.25.95.71,1.2.4.22.95.29.74.96-.05.17.05.29.23.34,1.24.31,1.72,1.68,2.92,2.07.35.11.53.49.35.91-.28.65-.28.96,0,1.35-.92.67-2.17.18-3.09.89-.1.08-.37.1-.43.04-.8-.88-.89.13-1.31.5.97.7,1.92,1.4,2.87,2.09.2.15.48.23.46.56-.02.25-1.32,1.71-1.55,1.67-.69-.12-1.45.1-2.04-.56-.57-.63-1.07-.58-1.66-.03-1.09,1.01-1.22.99-1.55-.46-.15-.67-.33-1.3-.89-1.77-1.19.72-2.4,1.38-3.67.36-.49-.39-.44.72-1.1.16-.64-.54-1.56-.75-2.06-1.6-.16-.27-.66-.5-1.12-.42-.15.03-.31.05-.46.02-.37-.08-.35-1.11-1-.46-.27.27-.35.74-.53,1.11-.02.03-.09.04-.23.09-.17-.71-.37-1.39-1.29-1.51-1.22-.16-1.52-.06-2.16,1.02-.75,1.26-1.42,1.53-2.81,1.34-.9-.12-1.41-.57-1.7-1.37-.14-.38-.26-.66-.65-.12-.21.29-.74-.04-1.13.28-.57.46-.92-.02-1.25-.68-.27.65-.43,1.25-1.34,1.04-.79-.18-1.66.04-2.29.73-.46.51-.89.37-1.32-.1-.67-.75-1.49-1.12-2.51-.93-.39.08-.69-.23-1.05-.25-.57-.04-1.21-.4-1.49.57-.13.43-.76.42-1.22.21-1.07-.48-2.25-.02-2.81.55-.71.72-1.5.32-2.09.71-.37.24-.67-.61-.9.01-.12.33-.36.7-.18,1.05.3.58.54.95-.23,1.51-.75.55-1.42,1.09-2.3.78-.67-.24-1.6,0-1.99-.95-.13-.32-.57-.02-.86,0-.72.04-1.48.21-1.87-.69-.27-.63-.87-1.17-.43-1.93-.44-.33-.8.27-1.22.04-.21-.29.26-.4.1-.91,0-.01-.22.06-.42.07-1.11.09-1.11.08-.7-.93.17-.42.24-.78-.22-1.08-.5-.34-.39-1.24-1.17-1.34-.21.12-.09.27-.07.41.11.69-.14.87-.79.59-.19-.08-.35-.76-.63-.14-.4.85-.76.37-1.17.05-.26-.2-.05-.64-.42-.76-1.3.57-.33,1.36-.14,1.98-.22.26-.44.25-.64.26-.32.02-2.19.79-2.44,1-.11.1-.36.23-.39.2-.58-.69-1.26.29-1.63,0-.57-.45-1.07-.12-1.59-.19-.72-.1-.81-.89-1.29-1.36-.5.25-.55.72-.54,1.18.05,2.65-.42,5.3-.05,7.96.06.46-.06.93.76.73.44-.11.59.67,1.05.86.31-.18-.04-.5.12-.67.52-.53.76-.84.85-1.22.22-.87,1.06-1.29,1.98-.88.58.26.77.06.81-.47.02-.26-.03-.52,0-.78.05-.37-.23-.89.29-1.05.47-.15,1.19-.22,1.39.19.45.94.87.04,1.28.06.18.6-.5.93-.37,1.48.1,0,.23.06.27.02,1.14-1.11,1.07-1.06,2.12.27.6.76,1.02,1.54,1.09,2.46.74.18.78-.72,1.42-.7.11.19.3.4.34.64.15.95.71,1.58,1.55,1.93.41.17.75.28.79.81.04.48.51.62.86.84.44.28.9.53.79,1.2-.05.3.18.41.47.5.46.15.45.19.04.87.85.14,1.94-.22,2.22,1.09.07.34.59.35.94.45.72.22,1.57.33,1.5,1.41-.02.31.21.29.42.3.42.03.83.08,1.24.12.29.02.63.2.54.43-.3.84.5,1,.85,1.38-.11.16-.15.28-.23.32-1.16.66-1.23,1.11-.17,1.95.89.71,1.87,1.32,2.83,1.94.21.14.59.13.65.38.12.51,1.05.69.56,1.44-.48.73-.96.97-1.83.74-.64-.17-1.27-.48-1.68.35-1.3.02-.16.75-.37,1.23-1.1.24-1.97-.38-2.84-1-.26.25-.09.75-.55.84.34.44-.29,1.24.68,1.5.68.18,1.28.67,1.76,1.25.34.41.27.69-.08,1.06-.75.82-1.71.92-2.71.89-.87-.02-1.78-.31-2.46.54-.14.17-.39.16-.58.03-.48-.31-1.02-.13-1.52-.19-.95-.12-1.89.04-2.83-.52-.57-.33-1.46-.38-2.26-.3-1.27.13-1.27.09-1.66-1.22-.04-.15-.07-.3-.26-.34-.37.03-.27.56-.75.61-.12-.56-.23-1.13-.36-1.74-.24-.15-.47.04-.7.1-.24.06-1.29.34-1.32.29-.29-.48-.99-.35-1.26-.85-.47-.89-1.51-1.43-1.58-2.58-.02-.26-.42-.57-.52-.38-.43.79-1.68.49-1.89,1.52-.08.4-.22.77-.84.65-.38-.07-.23.35-.19.57.09.5.43.94.34,1.62-.53-.42-.57-1.02-.85-1.46-.14-.22-.3-.47-.6-.39-.28.07-.38.34-.42.6-.07.52-.15,1.08.18,1.52.59.79.75,1.97,1.97,2.22.16.03.41.31.39.43-.18,1.09,1.06,1.98.39,3.15-.48.27-1.05.03-1.53-.01-.32.39.01.78-.16,1.12-2.02-.91-3.45-.17-3.76,2.04-.27,1.86-.4,3.73-.62,5.59-.06.57-.17,1.13-.28,1.7-.09.47-.17,1.03.14,1.36.7.76.35,1.27-.24,1.82-.35.33-.5.8-.52,1.28-.04.99-.11,1.98-.09,2.97.02.81.23.96.96.67,1.06-.43,2.08-.95,3.13-1.43.41-.19.82-.23,1.07.25.23.45.09.81-.3,1.08-.26.18-.53.33-.81.46-.66.31-1.34.59-2,.89-.43.2-.85.4-1.26.63-.48.28-.75.7-.8,1.27-.07.88-.21,1.76-.24,2.65-.1,3.12-.43,6.23-.57,9.35-.11,2.53-.46,5.1.32,7.62.29.95.22,1.97.1,2.96-.32,2.76-.28,5.5.03,8.26.26,2.27.08,4.58.31,6.87.42,4.35.55,8.74,1.05,13.08.31,2.65.04,5.32.58,7.94.12.6,0,1.24-.04,1.87-.02.36-.14.73-.1,1.08.44,4.09.91,8.2,2.16,12.13.63,1.98,1.62,3.84,2.45,5.75.34.77.58,1.56.51,2.42-.09,1-.44,1.31-1.39,1.05-.39-.11-.69-.09-1.04.03-1.44.51-2.95.63-4.46.65.08-.24.21-.49.22-.73.03-.5.92-.85.41-1.33-.44-.41-1.04.14-1.57.22-.51.08-1,.29-1.39.63-.22.19-.53.39-.23.75.28.1.51,0,.75-.12.72-.37.71-.35,1.27.4.1.13.38.12.57.18ZM111.62,213.74c.14-.3.4-.21.56-.32-.63-.38.32-1.23-.56-1.64-1-.47-1.83-1.59-3.07-.47-.36.32-.96-.3-1.29.22-.39.61-.75.74-1.11.01-.14-.28-.23-.33-.36-.04-.27.56-.69.41-1.18.36-1.4-.12-2.46-.9-3.58-1.6-.63-.4-1.15-.84-1.47-1.52-.44-.94-.95-1.77-2.22-1.25-.08.03-.2-.04-.3-.05-1.62-.24-1.93,0-1.73,1.54.19,1.4.23,2.8.24,4.21.01,1.35.12,2.72,0,4.06-.09.99.78.91,1.18,1.31.42.41.69-.23,1.02-.41.32-.17.57-.46.89-.63,1.06-.57,2.05-1.2,2.53-2.38.04-.09.1-.25.14-.25,1.11.05,1.63-1.14,2.65-1.34,0,.17.05.29.01.37-.19.51.04.84.5.96.43.1.42-.3.52-.59.13-.37.5-.55.87-.48.45.08.49.47.47.86-.01.24-.13.53.28.65.29-.32.45-.88.97-.91.58-.03.32.86,1.03.95.04-.06.11-.2.2-.33.16-.24.23-.66.65-.47.27.12.23.43.21.69-.02.49-.11,1.02.53,1.33.1-.22.21-.35.21-.49-.03-.97.42-1.28,1.35-1.13.55.09,1.09-.08,1.58-.5-.54-.47-1.19-.32-1.73-.72ZM80.47,216.88c-.03.29.19.39.31.55.95,1.43.53,2.58-1.13,3.02-.47.12-.85.3-1.13.73.44.22.8.49,1.13.84.42.45,2.07.47,2.32.04.48-.82.93-1.14,1.55-.14.17.27.99-.08.73.5-.47,1.07.39.91.87,1.16.67.34,1.33-.14,2,.03.11.03.38-.16.37-.2-.19-.87.72-1.33.78-2.07.12-1.66.19-3.33.26-4.99.01-.31,0-.83-.27-.82-1.19.04-1.16-1.11-1.67-1.72-.4.47.48,1.17-.35,1.39-.72.19-.63-.71-.98-.89-1.74.69-3.38,1.45-4.79,2.56ZM106.04,102.8c-1.37-1.24-1.65-1.3-2.91-.52-.24.15-.55.32-.65,0-.16-.55-.87-.33-.94-.63-.24-1.02-.66-.38-1.02-.16-.81.48-.81.48-1.51-.1-.06,3.3-.48,6.53-.4,9.84.48-.01.79-.21,1.1-.39,2.29-1.37,4.23-3.19,6.2-4.97.3-.27.52-.65.75-1,.39-.58.24-.94-.44-1.15-.49-.15-1.11-.16-1.31-.8.4-.26.7.06,1.14-.12ZM98.64,115.5c.44-.15.53-.41.64-.64.24-.56.53-.75,1.2-.53.72.23,1.4-.17,1.97-.64,1.98-1.62,3.52-3.65,5.11-5.63.35-.43.57-1.01.09-1.4-.52-.42-.81.23-1.09.53-1.74,1.87-3.61,3.58-5.69,5.06-.55.39-1.12.78-1.56,1.27-.45.5-1.07,1.02-.67,1.97ZM112.54,57.28c.31-.92-.37-1.63.1-2.34.4-.6.14-1.38-.3-1.48-.52-.12-1.21-.57-1.58-.32-.74.49-.51,1.93-1.82,1.99.01.15,0,.3.04.45.1.45-.05.73-.54.73-.25,0-.42.05-.34.34.15.5-.15.63-.54.74-.6.17-1.09.68-1.83.43q.29.83.81,1.35c.48-.39.71-1.31,1.6-.86,1.11.57,1.93-.2,2.47-.81.65-.73,1.15-.72,1.91-.23ZM108.21,63.5c-1.17-.59-2.16-.7-3.1-.93-.42-.1-.59.1-.31.51.16.24.09.39-.21.41-.41.03-.83.07-1.24.07-.35,0-.66.1-.71.46-.1.62-.15,1.24-.18,1.86-.03.68.64.02.8.38.06.14.24.24.26.38.11.85.72,1.46.96,2.36.12-.37.16-.65.45-.74,1.01-.33,1.22-1.06,1.08-2.02-.16-1.07.04-1.98,1.26-2.32.23-.06.44-.19.94-.41ZM77.89,229.43c-.47-.59-1.02-.87-1.76-.75-.73.12-.85-.23-.79-.92.08-.94.79-1.5,1.29-2.16-.55-.41-.88-.24-1.21.09-.26.26-.6.62-.94.4-1.4-.9-1.97,1.01-3.12.87-.31.66.15.82.62.96,1.91.57,3.68,1.69,5.91,1.51ZM137.13,95.62c-1.68-.5-2.79-.2-3.54.81-.26.35-.15.58.08.8.31.29,1.97.32,2.12-.02.5-1.12,1.41-.84,2.27-.77.35.03.67.28,1.06.18.55-.14,1.07-.88.75-1.12-.6-.45-1.32-.76-2.05-1.16-.25.46-.45.82-.7,1.27ZM66.08,222.27c-1.24-.38-1.35-1.26-1.75-1.94-.53-.9-1.2-1-1.85-.24-.38.45-.6,1.01-1.1,1.41-.29.24-.37.81.36.79.32,0,.56.14.85.27,1.02.49,2.06.45,3.49-.29ZM127.77,111.55c-.42.39.47.56.12.94-.63.67-.77,1.44-.59,2.34.06.32-.2.71.3.89.39.14.77.03.97-.29.74-1.17,1.39-2.4,1.81-3.73.11-.33-.21-.74-.49-.45-.68.74-1.45.19-2.12.3ZM109.95,38.13c-.1-.21-.15-.37-.25-.47-.2-.2-.57-.31-.7-.12-.53.8-1.59.94-2.1,1.68-.29.42-.4.66-.91.34-.33-.21-.6-.03-.76.29-.22.46-.13.92.14,1.32.2.29.48.32.82.15.56-.27,1.14-.51,1.71-.74,1.14-.46,1.13-1.81,2.03-2.46ZM107.15,111.28c1.64-.58,2.96-1.44,4.53-1.4.26,0,.35-.18.35-.41,0-.28-.11-.56-.39-.59-.46-.06-.93-.02-1.39-.03-1.88-.04-2.33.28-3.09,2.44ZM104.48,118.29c-.42.74-.93,1.37-1.13,2.08-.23.84-1.56.52-1.47,1.56,1.51.52,2.11.41,2.71-.56.38-.61.42-1.36.71-2.02.11-.25-.4-.78-.83-1.07ZM82.91,230c.54.05.68-.62,1.19-.65.34.16-.1.73.31.75,1.25.05,2.49-.13,3.56-.83.37-.24.44-.76.02-1.04-.21-.13-.44-.63-.97-.03-.69.77-1.6,1.38-2.89.68-.91-.49-1.19-.14-1.21,1.12ZM152.94,210.65c-.51.01-.43.06-.71,1.09-.16.58-.07.88.38,1.15.45.27.9.25,1.25-.17.34-.4.76-.68,1.22-.92.18-.1.32-.27.3-.5-.02-.25-.21-.34-.43-.37-.65-.09-1.31-.19-2.02-.29ZM88.35,365.13s.09-.33-.21-.44c-.36-.13-.58.15-.75.41-.11.17-.2.37-.25.57-.19.81-.35,1.62-.52,2.44-.09.43-.11.92.39,1.04.62.15.8-.39.88-.85.17-.97.29-1.95.46-3.16ZM26.89,190.82c-.24-.68-.67-.66-1.08-.7-.5-.05-1.03.11-1.5-.27-.29-.24-.6-.14-.8.17-.3.46-.41,1-.13,1.47.24.39.59.14.95,0,.8-.3,1.53-.88,2.55-.67ZM115.75,150.33c.51,1,1.72,1.5,1.57,2.81.47-1.07.73-2.12.61-3.26-.71.23-1.44.01-2.19.45ZM99.5,81.67c-.1.04-.21.08-.31.12.09.49-.58,1.04.34,1.47.36.17.3.51.27.81-.03.34,0,.65.42.66.33,0,.6-.19.74-.48.22-.46.17-.92-.18-1.3-.41-.45-.86-.86-1.29-1.28ZM134.01,149.72c1.16.77,1.36.76,1.96-.1.67-.95.46-1.63-.79-2.56.4,1.49.14,2.08-1.18,2.66ZM73.19,145c-.14-.54-.25-1.09-.43-1.62-.08-.24-.35-.38-.63-.37-.29,0-.44.23-.53.48-.27.69.04,1.48.79,1.98.17.12.36.22.56.09.2-.12.22-.33.24-.56ZM120.45,116.15c-.21-.38-.54.29-.88-.19-.36-.51-1-.16-1.25.27-.21.36-.25.96.08,1.3.39.4.74-.11,1.06-.29.43-.25.89-.52.99-1.09ZM105.72,193.88c.19.47.88.48.99,1.03.05.23,0,.56.39.52.39-.05.66-.28.74-.67.19-.88-.38-1.44-1.28-1.26-.29.06-.61.08-.83.38ZM61.45,126.87c-.62.46-1.1.19-1.61-.12-.21-.13-.54-.13-.73.08-.3.33.03.6.19.82.78,1.04,1.5.83,2.15-.78ZM100.76,230.24c-1.4.58-1.56.55-2.04-.38-.14.17-.26.33-.4.47-.26.25-.56.45-.32.9.24.44.58.56,1.03.42.7-.21,1.4-.42,1.73-1.42ZM103.62,169.58c-.66.67-1.37,1.14-.97,2.14.11.28.27.63.66.43.34-.17,1.03-.53.71-.79-.63-.51-.08-1.14-.4-1.78ZM116.57,113.92c.41,1.13-.57,2.1-.25,3.23.21-.74,1.41-.49,1.32-1.45-.07-.74-.67-1.18-1.07-1.78ZM46.26,206.09c-.74-.44-1.58-.73-1.47-1.74-.61.17-1.09.41-1.05.94.05.58.56.84,1.11.92.41.06.83.12,1.4-.12ZM69.39,85.77c-.77-.59-.51-1.6-1.07-2.23-.16-.18-.28-.52-.59-.37-.3.14-.54.5-.34.77.54.71.92,1.6,2.01,1.84ZM33.37,147.31c.31.06.7.18.73-.27.03-.34-.11-.74-.39-.96-.28-.22-.6-.06-.85.13-.28.22-.56.46-.82.7-.17.16-.21.37-.06.55.19.24.47.3.63.03.21-.35.43-.41.75-.19ZM54.83,233.42c-.65.3-.9,1.02-1.61.74-.23-.09-.57-.13-.6.25-.02.32.15.6.51.68,1.01.24,1.45-.15,1.7-1.67ZM125.02,65.25c.24.25.56.41.93.37.46-.05.94-.14,1.21-.59.04-.07.04-.22-.01-.29-.37-.5-.86-.17-1.29-.13-.35.03-.74.11-.84.64ZM61.79,226.16c.73-.06,1.33-.17,1.85-.54.23-.16.35-.39.21-.67-.17-.33-.5-.47-.77-.25-.46.38-1.11.6-1.3,1.46ZM129.77,117.14c.07-.35-.16-.56-.47-.68-.47-.18-1.05.21-1.15.75-.04.22.03.4.27.48.47.15,1.23-.15,1.34-.55ZM92.96,206.58c.23,1.33-1.14,1.04-1.6,1.68,1.49.6,1.86.26,1.6-1.68ZM91.44,210.54c-.45.85-.54,1.78-.5,2.74.71-.79.97-1.69.5-2.74ZM131.39,99.69c.09-.77.14-1.51,1.13-1.65-.71-.38-1.32-.39-1.76.13-.53.62.21.98.63,1.52ZM58.67,58.89c.57-.88,1.69-.54,2.45-1.04-1.92-.73-2.18-.63-2.45,1.04ZM115.73,163.07c.2.67.34,1.13.49,1.6.1.31.25.59.63.48.36-.11.38-.45.36-.75-.05-.85-.79-.9-1.48-1.33ZM80.48,133.78c.29-1.15.59-2.29.96-3.74-.85,1-1.29,2.6-.96,3.74ZM97.13,231.38c.01-.37-.15-.62-.49-.71-.37-.1-.9.45-.86.9.03.34.23.6.59.62.55.03.67-.39.76-.81ZM150.05,232.83q-.54,1.78,1.01,2.23c-.18-.83-.44-1.55-1.01-2.23Z"/>
  </g>
</svg>