<?xml version="1.0" encoding="UTF-8"?>
<svg fill="#6A7F6B" id="Capa_2" data-name="Capa 2" xmlns="http://www.w3.org/2000/svg" viewBox="0 0 220.09 306.67">
  <g id="Layer_1" data-name="Layer 1">
    <path d="M90.85,177.13c-.68,1.04.27,3.1-1.83,2.86-2.06-.23-1.08-2.2-1.68-3.51-.54.88-1.04,1.82-2.2,1.62-1.01-.17-1.98-.29-2.66,1.19-.21-1.26-.36-2.15-.51-3.04-.06-.35-.09-.74-.51-.83-.55-.12-.69.37-.87.72-.17.34-.4.78-.31,1.09.3.97.01,1.68-.89,1.92-.92.24-1.6-.19-2.21-1.03-.32-.45-.02-1.58-1.01-1.34-1.02.25-.67,1.22-.72,1.95-.07.99-1.86,3.07-2.83,3.02-1.92-.09-3.29.55-4.05,2.37-.37.88-1.37,1.29-1.51,2.45-.1.79-1.17-.08-1.2-.13-.57-1.04-1.53-.83-2.22-.5-1.57.75-3.19.19-4.77.36-.87.09-.69-1.41-1.24-2.1-.14.06-.31.1-.42.21-.38.36-.25,1.4-1.08,1.09-.65-.25-.17-.95-.05-1.42.2-.74.04-.53-.58-.53-.7,0-.17-.74,0-1.05.98-1.72,2.02-3.4,3.47-4.99-2.4.41-2.77.03-1.93-2.03.6-1.46,1.49-2.74.9-4.51-.28-.84.66-1.39,1.37-1.85.53-.35.99-.81,1.54-1.27-.61-.62-1.34-.11-1.97-.27-.75-.19-1.64-.5-1.75-1.29-.11-.84.73-1.07,1.46-1.13.94-.07,1.23-.79,1.58-1.47.25-.48.13-.99-.16-1.33-.35-.4-.75.01-1.09.19-1.88.95-3.16.45-3.72-1.66-.25-.93-.59-1.72-1.47-1.92-.94-.21-1.27.74-1.54,1.4-.31.78-1.06.8-1.43.62-.9-.44-1.59-1.24-1.65-2.33-.03-.45.14-.89.09-1.37-.09-1-.49-1.3-1.48-1.05-2.56.66-3.17.17-3.41-2.53-.05-.63-.15-1.26-.23-1.92-2.59,1.38-3.26,1-3.42-1.84-.04-.75-.15-1.5-.24-2.37-1.15.46-1.44,1.51-2.05,2.26-.31.38-.66.74-1.19.5-.57-.25-.45-.8-.36-1.24.36-1.76,1.84-3.79,3.38-4.69-1.17-.67-2.36-1.3-3.5-2.02-.42-.27-1.19-.54-.61-1.34.43-.58.69-1.43,1.74-.98.53.23,1.12.34,2.24.67-1.26-1.51-.8-3.65-3.12-3.85-.43.59.64,1.75-.75,1.99-1.01.17-1.64-.12-2.2-1.08-.55-.95-1.72-1.46-1.91-2.77-.12-.77-.69-.43-.99-.01-.16.22-.15.55-.24.82-.21.66.26,1.84-.77,1.86-.85.02-.65-1.16-.7-1.75-.12-1.44-1.24-2.42-1.53-3.79-.15-.73-2.42-.87-2.99-.28-.55.57-1.55.72-1.17,2.08.23.82-.89.87-1.58.56-1.04-.47-1.25.02-1.23.92,0,.53,0,1.07-.08,1.59-.2,1.26-.94,1.44-1.97.91-.35-.18-.89-.7-1.05-.42-1.32,2.23-4.2-.41-5.47,1.83-.05.09-.43.12-.49.05-.95-1.17-2.34-1.35-3.61-1.9-1.67-.73-1.82-2.15-1.04-3.93.25-.58.56-1.15.38-1.81-.49-.21-.82.13-1.18.27-.49.19-1,.51-1.48.08-.54-.47.03-.92.06-1.37.11-1.54,1.26-3.08-.04-4.65-1.22-1.48-1-2.89.42-4.16.33-.3.65-.68.63-1.24-1.64.42-3.22.95-4.75,1.64-.39.18-.87.22-1.14-.15-.35-.49.2-.77.46-.99,1.18-1,2.64-1.47,4.01-2.13.43-.21,1.29-.22,1.01-.93-.27-.66-.11-1.79-1.32-1.81-.29,0-.61,0-.87-.11-.65-.26-1.47-.58-1.34-1.39.12-.8.95-.63,1.59-.66.87-.04,1.72.38,2.69.03-.3-1.04-1.21-1.58-1.77-2.35-.59-.82-.93-1.79-.24-2.48.77-.76,1.83-.6,2.7.19.62.57,1.05,1.45,2.2,1.41-.08-1.26-.03-2.49-.41-3.68-.14-.42-.27-.8.13-1.12.35-.28.71-.32,1.11,0,.69.57,1.27.45,2-.14,1.12-.89,2.42-.21,2.55,1.22.05.59.06,1.18.1,1.76.18,2.19,1.87,3.43,4.04,2.84,1.1-.3,2.18-.34,3.27-.22.31.03.89-.05,1.01.49.1.48-.26.73-.54,1.04-.23.25-1.04-.15-.73.77.29.86.83.41,1.27.44.65.03.87-.33.89-1,.05-1.53.89-2.29,1.97-1.9.92.33.63,1.47,1.33,1.99,1.68-1.31,0-2.69.02-4.02,0-.45-.7-.05-1.05,0-.87.12-1.76.25-2.45,1.45-.11-1.14.49-1.56.7-2.35-1.6,1.16-1.93-1.42-2.84-.98,1.03.16,2.43.02,3.24-1.52.14-.26.38-.52.12-.78-.14-.13-.56-.21-.62-.13-1.05,1.34-3.11.24-4.15,1.72.69-1.53,2.03-2.56,2.74-4.06.26-.53.63-1.01.44-1.54-.3-.83-1-.36-1.51-.24-.91.22-1.88.11-2.07-.77-.22-.97.46-1.97,1.53-1.97,2.21,0,2.74-2.15,4.23-3.03.24-.14.56-.77.17-.86-1.25-.31-.91-1.81-1.95-2.33-.69-.35-.67-1.25-.14-2.01.61-.87.65-1.71-.49-2.21-.5-.22-1.04-.39-.91-1.08.11-.63.2-1.39.96-1.55,1.46-.31,1.61-1.25,1.05-2.31-.57-1.07-.51-1.94.4-2.79-.78-.3-1.15.15-1.48.5-.52.55-1.1,1.12-1.79.55-.63-.52-.09-1.28.22-1.75,1.13-1.67,1.65-3.54,1.96-5.64-.69-.3-2.24-.02-2.18-1.22.05-1.09-.61-1.72-.8-2.58-.25-1.15.61-1.72,1.6-1.92.99-.2.84-.67.45-1.28-.12-.19-.41-.35-.41-.53,0-.46.11-.97.54-1.21,1.53-.83,1.1-4.88,4.46-2.73.63.41,1,.38,1.11-.58.14-1.27.4-2.58.88-3.75.36-.88.87-2.03,2.24-1.66,1.35.36,1.64,1.28,1.16,2.52-.4,1.02-.22,2.09-.18,3.45.49-.86,1.17-.34,1.72-.61.32-.16.91.08.85-.61-.13-1.59.79-1.71,2.03-1.55.46.06,1.06.24,1.43-.3.02-.39-.24-.56-.5-.67-1.26-.52-1.48-1.33-.78-2.49.22-.36.71-.83.22-1.25-.38-.33-.73.11-1.08.3-.81.44-1.44.8-1.65-.69-.13-.9-1.16-1.56-.86-2.78.15-.6-.76-.55-1.26-.6-.93-.08-1.84-.1-2.59-.81-1.09-1.02-.78-2.18.44-2.93,1.76-1.08,3.54-.45,5.59-.29-.67-1.05-.88-1.97-1.69-2.68-.75-.66-.35-1.69.18-2.31.54-.63,1.31-.53,2.04.04.85.67,1.44,1.71,2.61,2.05.32-1.3.07-2.53,0-3.75-.05-1.04.6-1.4,1.46-1.08,1.3.49,2.15-.03,2.1-1.46-.02-.41-.15-.81-.21-1.22-.12-.74-.53-1.67.31-2.1,1.03-.54,1.3.65,1.95,1.27.55-1.83,1.7-2.11,3.21-1.25.44.25.76.02,1.15-.14.78-.31,1.57-.83,2.35.09.23.27.68.29.98.05,1.04-.81,2.16-.68,3.32-.39.3.08.71.24.9-.24.17-.43.09-.74-.31-1.06-.81-.63-1.17-1.32-.78-2.5.13-.38.34-.95.47-.86.59.42,1.27-.79,1.72.15.41.84,1.17,1.27,1.9,1.76.39.27.75.64,1.24.21.53-.47.53-1.02.21-1.6-.38-.69-1.36-1.46-.63-2.15.74-.7,1.7.06,2.55.45,1.68.76,2.48-.85,3.58-1.55,1.33-.85,2.02-2,1.43-3.7-.14-.41,0-1.15.65-1.29.59-.13.97.3,1.26.78.75,1.23,1.36,1.96,2.67.34.92-1.14,2.35-.4,2.76,1.18.17.63.74.67,1.28.65.54-.02.95-.23.9-.84-.07-.9-.2-1.77-.86-2.51-.45-.5-.58-1.03.05-1.68.58-.59,1.06-.68,1.79-.46.89.27,1.81,1.49,2.68.47.73-.84-.31-1.72-.65-2.55-.4-.98-.67-1.82.95-1.88.92-.03,2.06-2.01,1.54-2.7-.65-.87-.07-1.29.35-1.75.56-.61,1.21-.57,1.86,0,.33.29.79.43,1.19.64.52-.72-.26-1.09-.34-1.63-.11-.71.07-1.32.77-1.6.7-.28,1.14.09,1.35.73.53,1.64,2.67,2.21,2.7,4.21.01.73.6.42.89.16.83-.76,1.88-1.24,2.09-2.65.26-1.71,1.51-.99,2.42-.54.44.22.45.58.86-.17.39-.73,1.39-1.44,2.45-.51.61.53,1.09.66,1.3-.42.14-.71.67-1.34,1.48-1.28,1.1.08.75,1.04.76,1.67.01,1.24.63,1.56,1.68,1.24,1.06-.32,1.96-.22,2.54.76.46-.15.4-.5.51-.75.36-.78.86-1.48,1.82-1.34,1.2.17.92,1.18.94,1.98.03,1.01-.53,2.57.44,2.85.9.26,1.7-1.16,2.36-2.05.47-.63.9-1.78,1.79-1.21.78.49.18,1.47-.24,2.18-.3.5-.6,1.02-.91,1.51-.33.52-1.12.95-.66,1.65.53.8,1.38,1.41,2.37,1.28,1.87-.24,3.86-.22,5.22-2,.29-.38.66-.7.59-1.15-.1-.67-.65-.28-.99-.25-1.37.1-2.59-.72-3.97-.56-.32.04-.65-.31-.66-.72,0-.53.32-.85.74-1.12.7-.46,1.59-.23,2.37-.57-.3-.8-1.04-.87-1.53-1.25-.56-.42-.92-.81-.51-1.6.37-.73.75-1.15,1.6-.83.77.29,1.52.63,2.31.84.73.2,1.58.33,2.14-.29.61-.67.58-1.48-.01-2.25-.31-.41-.72-.99.17-1.21,1.18-.28,1.33-1.22,1.49-2.14.13-.77.42-1.42.98-1.96.61-.59,1.33-.42,1.93-.15.6.26.66.9.48,1.53-.54,1.97-.34,4.06-1,6.02-.4,1.19-.13,1.95,1.45,2,1.21.04,2.69,0,3.38,1.5.06.13.27.27.42.28,1.25.14,1.71-1.7,3.07-1.26,1.81.58,1.66-.99,2.21-1.9.42-.7,0-1.95,1.1-2.11.55-.08.38-1.29,1.29-.61.66.49.95,1.09.81,1.77-.44,2.25-.27,4.62-1.26,6.78-.27.59-.71,1.53-.01,1.91.77.42,1.61,0,1.94-.95.21-.61.57-.72,1.06-.36.94.69,2.08,1.24,2.73,2.14.69.97,1.49,1,2.4,1,1.05,0,1.71-.43,1.43-1.64-.19-.84.2-1.39.93-1.68.71-.28,1.03.19,1.29.78.37.83.79.46,1.14-.03.27-.38.42-.88.74-1.19.65-.63,1.32-.93,1.6.36.1.47-.07,1.21.74,1.14.59-.05,1.16-.38,1.36-.98.17-.48.43-.92.38-1.51-.04-.52,0-1.33.84-1.23.65.08,1.55-.22,1.91.61.67,1.54,1.92,2.64,2.79,4.02.12-.07.3-.12.3-.18,0-1.26.88-2.04,1.83-2.09,1.18-.05.93,1.35,1.17,2.12.23.77-.56,2.03.49,2.32.82.23,1.58-.77,2.22-1.47.36-.39.73-.96,1.45-.61.89.44.22,1.02.24,1.57.04,1.17-.74,2.23-.35,3.39.17.52-.16.82-.46,1.04-1.46,1.08-.77,2.21-.09,3.32.3.5.71.94,1.05,1.42,1.53,2.14,1.5,2.22-.87,2.91.49.86,1.08,1.16,1.98.38.38-.33,1.05-.42,1.51-.11.73.48-.62.81-.13,1.36.74-.44,1.35-.97,2.46-.67,1.08.29,1.66-.64,1.5-1.79-.06-.44-.32-.81-.18-1.34.11-.44.08-.8.63-.82.38-.01.7.09.8.52.12.51.26,1.02.38,1.54.11.47-.14,1.18.54,1.3.53.09.67-.57.99-.88.58-.56.19-2.53,1.96-1.42.16-.32-.65-.65.06-1,.79-.39,1.94.17,1.95,1.05,0,.34-.11.69-.24,1.01-.32.82-1.43,1.57-.64,2.5.74.89,1.6-.16,2.41-.29,1.14-.19,1.8.21,1.55,1.35-.26,1.22.33,1.67,1.25,2.16,1.92,1.03,3.79.94,5.7.06.72-.33,1.48-.36,2.25-.23.46.08,1.06-.17,1.08.74.02.68.12,1.27-.67,1.56-.59.22-1.22.39-1.89,1.26,2.62-.12,2.6,2.01,3.48,3.45.42.68-.21.92-.09,1.37-1.72.34-1.11,1.21-.51,2.13.1.15.07.54-.06.65-.7.67-.74,1.11.2,1.65.36.21.45.88-.21,1.27-1.18.7-.89,1.45-.03,2.25.97.91.72,1.52-.7,1.93-.46.13-1.15-.13-1.22.7-.05.66.42.92.88,1.2.2.12.39.27.57.42.45.4,1.39.56,1.05,1.4-.3.74-1.04.31-1.56.17-.53-.14-.88-.19-1.07.45-.16.55-.05.97.47,1.16.8.31,1.36.75,2.5.11,1.29-.73,3.12-.52,4.73-.65.95-.08,1.94-.19,2.84.02.83.2,1.95.25,1.89,1.74-.05,1.09.95.6,1.47.49,1.54-.31,3.09-.31,4.64-.34.93-.01,1.89.16,2,1.53.13,1.54-.89,1.44-1.88,1.68-.92.22-2.4-.12-2.62.92-.18.86,1.06,1.49,1.86,2.1.9.68,1.89,1.35,2.29,2.51.48,1.4-.32,2.4-1.67,1.89-1.18-.44-1.88-.9-1.25.92.07.21-.1.56-.24.79-.36.62-1.59,1.08-1.2,1.63.44.63.26,1.19.48,1.9.92-.45,1.15-1.43,1.69-2.11.33-.41.63-.72,1.17-.53.57.2.5.72.53,1.19.04.63-.36,1.15-.25,1.87.56,3.44.49,3.46,2.78,6.16.31.37.56.73.71,1.19.43,1.28.04,1.95-1.35,1.91-.34,0-.68-.04-1.27-.08,1.05,1.56,2.97,1.74,3.94,3.29-.98.26-1.53-.2-2.11-.52-.62-.35-1.25-.68-2-.59-.69.08-1.25.51-1.56,1.05-.33.57.27.96.64,1.3,1.05.96,1.06,2.36,1.56,3.55.15.35.15.85-.26,1.13-.51.36-.9-.04-1.25-.32-.32-.26-.53-.64-.85-.9-.37-.3-.61-1.15-1.21-.68-.42.33.05.96.2,1.45.32,1,1.58,2.01-.1,2.98-.42.24.1.46.21.69.61,1.36.18,2.71-.11,4.04-.12.53-.56.41-1,.22-1.1-.49-.84.12-1,.95-.46,2.32.91,3.79,2.04,5.26-.36.99-1.99-.03-1.7,1.08.26,1-.14,2.85,1.99,2.69.94-.07,1.1.55.74,1.36-.5,1.14-1.32,2.04-2.26,2.76-1.11.85-1.4,1.5.15,2.15-.49.57-1.07.16-1.54.39-.66.33-1.21.62-.55,1.42,1.04,1.27,1.57,2.58.76,4.22-.18.37.19.98.21,1.49.02.53.22,1.21-.7,1.3-1.51.15-1.53.81-.55,1.77.15.15.21.39.33.63-1.17.42-1.44-.99-2.37-.98-.48.59-.13,1.22-.05,1.83.31,2.19-.83,3.55-3.02,3.33-1.05-.1-2.07,1.25-2.71.52-1.07-1.21-1.12-.21-1.44.38-.78,1.47-.36,2.35,1.36,2.85,1.17.34,1.14.34,1.08,1.49-.01.21.45.36.35.84-1.01.09-1.56-.85-2.43-1.15-.07.8.58,1.26.84,1.88.2.48.63,1.07.13,1.45-.61.48-1.05-.24-1.46-.58-.3-.24-.48-.64-.89-1.23-.23,1.27-.07,2.48-1.35,2.97-.4.15-.09.64-.05.97.06.49.7,1,.13,1.45-.52.42-.9-.43-1.44-.37-.06.09-.17.18-.18.28-.1.81.54,1.96-.52,2.32-.91.31-1.22-.9-1.77-1.44-.52-.51-.83-1.12-1.72-.48-.31.22-1.07.37-1.48-.01-.5-.47-.86-.24-1.23.05-.48.39-.24.83,0,1.26.07.14-.01.39.08.48.39.41.71,1,.25,1.33-.44.31-.92-.23-1.24-.65-.17-.23-.32-.47-.5-.73-.89.83-.72,1.68-.05,2.66-1,.06-1.16-1.06-1.88-.98-1.17.12-2.46-.73-3.45.86-.54.86-1.65,1.03-2.87.33-.82-.47-2.25-1.22-3.01.46-.05.1-.16.29-.17.28-2.18-1.02-3.21,2.14-5.72,1.07.98,1.3,1.61,2.15,2.42,3.24-1.39-.23-1.94-1.12-2.65-1.76-.3-.27-.59-.69-1.05-.42-.43.24-.36.72-.28,1.12.22.97.58,1.93.18,3.09-.35.31-.9-1.04-1.25-.06-.13.36-.86.66-.16,1.26.14.11.05,1.44-1.05,1.16-1.19-.31-3.12.12-4.15.77-.93.59-1.96,1.35-3.01.1-.14-.16-.36-.25-.54-.38-.61,1.4-2.6,1-3.19,2.47-.21.53-.55,1.05-.93,1.48-.29.33-.75.52-1.13.77-.57-1.39-2.08-.96-2.97-1.57-.94-.65-1.57-.48-2.3.02-.99.68-2.05.55-2.49-.4-.48-1.05-1.24-1.17-2.08-1.58-.94-.45-1.06-.14-1.03.59.03.85-.2,1.64-.91,1.97-.84.39-.97-.82-1.71-1.1-.53.97-.1,1.81.22,2.66.27.71.8,1.51-.63,1.54-.19,0-.54.3-.53.34.75,1.68-.6,1.75-1.58,2.22-1.18.57-.18,1.44.17,1.6,1.64.75,2.45,1.84,2.11,3.7-.07.36.6.61.28,1.12-.53.09-.82-.36-1.22-.56-.58-.29-1.24-1.07-1.79-.33-.51.69-1.47,1.54-.35,2.61.45.43.94,1.12.25,1.68-.45.36-.95-.09-1.42-.4-.24-.16-.62-.72-1.05-.28-.41.43.03.75.28,1.05.3.35.47.88.99.96,2.42.4,2.65,2.61,3.54,4.27.22.41.29.95-.25,1.21-.42.2-.82,0-1.1-.34-.83-.98-1.65-1.98-2.51-3.02-.67.53-.49,1.01,0,1.45,1.21,1.06,1.36,2.33.79,3.8-.15-.05-.31-.08-.46-.15-.55-.23-.6-1.37-1.63-.79-.89.51-.55,1.07-.33,1.74.09.29-.04.65-.07.98-.34-.06-.73-.02-1-.19-.47-.3-.86-.72-1.29-1.09-.46.59.33,1.06.01,1.57-.35.56-.92.64-1.52.73-.74.11-.74-.46-.88-.85-.39-1.07-.35-2.5-2.25-1.94-.56.17-1.06-.61-1.47-1.11-1.18,1.74-1.88,1.82-3.51.48-.73,6.02-.5,12.03-.13,18.03.37,6,.9,11.99,1.33,17.99.37,5.2-.23,10.38-.27,15.57-.03,3.6-.3,7.19-.31,10.79,0,7.55.97,15.07.71,22.63-.21,6.18-.2,12.37-.37,18.55-.12,4.45.61,8.82,1.2,13.2.21,1.56-.24,2-1.74,1.95-2.41-.08-4.83-.07-7.23.03-1.48.06-2.04-.49-1.89-1.95.5-4.81.98-9.64.66-14.48-.54-8.36.1-16.74-.36-25.1-.15-2.83-.41-5.65-.56-8.47-.24-4.57.84-9.03,1.1-13.56.47-8,2.21-15.92,1.88-23.96-.33-8.13-1.21-16.24-1.08-24.39,0-.62.06-1.46-1.17-1.08-1.34.41-2.7-.71-2.55-2.17.14-1.36-.2-2.68,0-4.02.12-.81-.18-1.74-1.13-1.66-1.89.16-2.62-1.16-3.5-2.36-.32-.43-.54-.82-1.26-.5-2.39,1.06-2.87.67-4.67-1.23-.78-.82-1.24-1.43-1.25-2.52,0-.67-.46-.85-.9-.31-.39.48-.95.66-1.4,1-1.57,1.19-2.57.56-3.3-.95-.32-.67-.4-.78-1.23-.35-1.11.58-2.23-.05-2.69-1.48ZM194.15,109.22c-.76-1.34-1.23-2.79-1.94-4.16-.35-.67-.68-1.37-1.31-1.84-.41-.31-.88-.45-1.29-.14-.53.39-.17.86.06,1.24,1.14,1.89,2.16,3.89,4.48,4.9Z"/>
  </g>
</svg>