<?xml version="1.0" encoding="UTF-8"?>
<svg fill="#6A7F6B" id="Capa_2" data-name="Capa 2" xmlns="http://www.w3.org/2000/svg" viewBox="0 0 232.49 350.82">
  <g id="Layer_1" data-name="Layer 1">
    <g>
      <path d="M18.87,253.87c-.13,0-.25,0-.38,0-.4-.53-.8-1.07-1.2-1.6-.27-.19-.78-.4-.77-.57.12-1.99-1.43-2.25-2.8-2.72,1.03-1.02,1.04-1.05,2.22-.57,1.4.57,2.7,1.26,4.36.69.75-.26,2.01-.23,1.18,1.43-.39.78-.31,1.89.54,2.56.99.77,1.93-.04,2.73-.42.96-.46,1.64-1.48,2.91-1.32-.3-1.13-.89-.76-1.37-.72-2.04.18-2.78-.45-2.84-2.45-.02-.78.25-1.68-1.11-1.53-.58.06-.5-.44-.46-.86.11-.92.39-1.89.2-2.75-.16-.78.62-2.64-1.63-1.93-1.02.32-1.33-.85-1.78-1.53-.45-.68-.09-1.09.5-1.44.33-.19.87-.45.64-.87-1.77-3.17,1.65-3.02,2.75-3.65,1.75-1,2.02-2.48,2.48-3.95.23-.74-.45-1.19-1.29-.88-2.04.74-4.11,1.42-6.11,2.26-.77.32-1.2.27-1.24-.53-.06-1.38-1.15-2.76-.3-4.39-1.19,1.24-2.38,2.47-3.55,3.73-.27.29-.44.65-.88.74-.72.15-1.4,1.22-2.12.44-.52-.56-.37-1.52.01-2.26.87-1.67-.18-2.46-1.47-2.9-1.03-.36-1.23-1.03-.59-1.56,1.02-.86,1.12-2.25,2.11-2.93-1.43-1.51-2.6-.8-3.79.27-.57.51-1.28.62-1.99.36-.31-.8.41-.74.68-1.03.38-.41.42-.79-.2-1.07-2.25-1.05-2.25-1.06-1.17-3.59-1.07.56-2.01.07-2.53-.65-.69-.98.65-1.35.94-2.02.59-1.36,2.02-1.35,2.88-2.23,1.4-1.42.48-3.22,1.22-4.84-1.06.17-1.53.85-2.14,1.31-1.34.99-2.58.16-3.31-.66-.76-.85.58-1.26,1.05-1.89,1.19-1.58,2.72-2.1,4.57-2.06.75.01.72-.62.91-1.09.72-1.78.92-3.73,1.82-5.46.63-1.22-1.14-1.32-1.25-2.4-.05-.47-.73-1.18-.54-1.86.18-.67.93-.77,1.51-.64.97.21,1.85-1.18,2.59-.42,1.08,1.12,3.32,1.02,3.28,3.34.54-.63-.12-1.29.42-1.81.14.13.3.22.39.37,1.93,3.13,3,3.4,6.3,1.59.95-.52,1.71-.56,1.6.82-.04.45-.3.78.26,1.12.69.41.67-.19.99-.48,1.78-1.65,3.55-1.65,4.88-.07,1.37-1.8,1.32-2.3-.44-3.46-.94-.62-.93-1.49-.06-1.87,2.08-.91,2.01-3.12,3.2-4.58-.78.2-1.42.63-2.31.65,1.03-2.05,1.99-3.96,2.96-5.89.87.22.25,1.65,1.28,1.51.81-.11.63-1.07,1-1.58.9-1.25.93-2.74,1.18-4.16.13-.73.49-1.93-.63-1.88-1.06.05-2.64-.39-3.1,1.36-.48,1.85-1.7,3.25-2.97,4.71,1.21-2.49-1.28-3.9-1.58-5.94-.25-1.69-1.27-3.26-.92-5.28-2.05,2.03-2.91,4.16-1.94,7.04-1.35-1.07-2.5-1.76-2.26-3.34-.32-1.21-.12-2.78-2.01-2.91.4-.82,1.16-.81,1.89-.77,1.89.1,3.52-.53,4.92-1.76.58-.5.92-.87,1.41.18.51,1.09,1.54.94,2.35.28.82-.67,1.43-1.54,1.76-2.6.24-.76.19-1.65,1.14-2.15.57-.3.45-1.07.1-1.62-.41-.64-1.01-.27-1.41-.05-.8.44-1.51,1.02-2.36,1.61-.39-1.1-.79-2.23-1.24-3.49-.78,1.18.68,2.13,0,3.13-1.03-.22-.65-1.28-1.3-1.83-.7.61-1.54,1.47-1.87-.37-.26-1.42-1.44-.64-2.32-.7.16-1.33.3-2.56.49-4.13-1.02,1.15-2.04,1.95-2.23,3.37-.83-.02-.53-1.03-1.25-1.16-.2.61-.28,1.31-.63,1.82-.29.42.17,2.53-1.41.83-.3-.32-.22.11-.27.2-.06.11-.05.26-.08.39-.28,1.05-1.38.37-1.96.91-.19.17-.6-.19-.67-.56-.14-.76.25-1.36.84-1.66.72-.38.73-.49-.06-.64.11-.44-.38-1.06.2-1.33,1.94-.92,2.39-3.18,4.13-4.38,1.28-.88,2.4-2.01,4.28-2.6-2.02-.74-4-.92-4.67-3.04-.13-.42-.7-.28-1.09-.2-.43.09-.37.41-.4.76-.11,1.76-.29,3.51-.41,5.27-.06.9-.36,1.63-1.43,2.34.39-1.83-.87-3.26.14-4.98.44-.75-1.11-1.53-1.38-2.54-.26-.95-1.88-1.04-1.61-2.48.05-.29-.67-.24-1.04-.11-.56.2-1.09.49-1.66.67-.67.22-1.21-.08-1.49-.67-.3-.63.25-.95.68-1.26.7-.49,1.48-.9,2.11-1.47.36-.33,1.42.29,1.1-.57-.35-.93-.34-1.95-.8-2.77-.27-.48-1.06-.03-1.36.35-1.35,1.71-3.32,2.49-5.13,3.57-.73-.41.64-1.34-.29-1.59-.64-.17-1,.55-1.45.91-1,.8-3.34.51-4.09-.5-.34-.45-.38-1.06.02-1.23,1.33-.58,1.63-2.75,3.6-2.3.57.13,1.08-.39,1.02-.72-.48-2.92,1.76-1.23,2.59-1.35.67-.09,1.31.54,2.34.06.8-.37,1.93.6,2.63,1.58.73,1.02,1.7,1.94,3.12.95.68-.47,1.34-.66,1.92.09.41.54.9.27,1.25.11,1.02-.48,1.86-.42,2.5.74.42-1.13-.81-1.33-.73-2.1.4-.47.84-.09,1.75.18-1.29-1.18-1.04-2.11-.18-2.73.93-.67,1.44.47,2.16.74,2.17.82,3.05,2.31,2.93,4.51-.03.59.36.87.68.6,1.7-1.44,3.27.35,4.95-.14-.05,1.08-1.02,1.2-1.51,2.22,1.4-.81,2.34-.21,3.4.31-.68-1.61-1.02-3.15-.98-4.82.68-.22.89,1.06,1.71.56.3-.11.12-.36.03-.58-.78-1.9.32-3.61,2.34-3.61.53,0,2.37,2.48,2.08,3-.94,1.67-1.38,3.26,0,4.9.06.07-.1.31-.16.47.14.04.2.05.27.07,1.18.21.81-1.97,2.19-1.42.9.36,1.47,1.47,2.6,1.26,1.09-.21.84-1.04.61-1.73-.39-1.18-.85-2.34-1.32-3.62.93.28,1.62.64,2.28,1.21-.93-2.6-2.53-5.07-.46-7.94-1.14.8-1.88.42-2.26-.6-.53-1.44-1.55-1.62-2.85-1.38-.42.08-1.07.36-1.21-.24-.19-.78.64-.69,1.08-.83,1.88-.6,3.74-1.48,5.66-1.62,1.54-.11,3.13.76,4.71,1.11.58.13.93.35,1.45-.74.9-1.92.41-4.39,2.34-5.89.51-.4.92-1.06,1.59-1.04,1,.03.07,1.03.58,1.4.66.49.05,1.91.55,1.85,1.95-.24,3.92-.68,5.76-1.36.58-.22-.14-1.32-.21-2.03-.06-.67-.57-.74-1.17-.75-.91-.03-2.44.49-2.37-.88.04-.82,1.75-1.12,2.68-.8,1.98.68,1.8-.76,2.24-1.9-1.1.15-2.04.27-2.98.4q-.21-2.22.93-4.01c-2.99-1.02-2.96-1-4.24,1.67-.41.86-.84,1.79-1.94,2.35-.39-1.13.28-2.11.7-2.74,1.66-2.52,1.81-5.51,2.86-8.11.79-1.96.55-4.59,2.71-6.08,1-.69.87-2.27,1.73-3.26.47-.54-.44-.8-.82-1.1-.55-.43-1.17-.77-1.7.02-1.1,1.65-.53-.62-1.53-.19-.22.16-.39.97-.79,1.61-.26.44-.39.88-1.13.89-.9,0-2.08,1.07-2.64.13-.52-.88,1.09-1.63,1.26-2.26.37-1.39,1.56-.51,2.03-1.21-.5-.58-1.09.23-1.59-.09-.02-.11-.08-.31-.04-.33.92-.51,1.43-1.53,2.52-1.85.92-.27.43-.98.2-1.46-.27-.56-.71-.75-1.26-.23-.48.45-1,.85-1.52,1.27-.35.28-.55,1.32-1.04-.08-.28-.82-.99.25-1.21.57-.85,1.27-1.85,1.18-3.1.72-1.09-.41-1.23-.96-.48-1.72.75-.76,1.41-1.55,1.88-2.62-.77-.28-1.25.24-1.49.65-.76,1.3-1.97.6-2.93.65-.54.03-1.42-.63-.77-1.59.91-1.33,3.48-2.29,5.12-1.91-.24-.28-.62-.54-.6-.76.05-.58.74-.46.91-.33,1.41,1.06,2.48-.91,3.86-.38.42.16.56-.5.46-.88-.32-1.17-1.21-1.54-2.13-.88-2.48,1.78-5.11.64-7.67.55-.73-.03-1.43-.35-1.61-1.47,1.52.48,3.01-.99,4.49.29.31.26.66,0,.75-.36.25-.97-.76-.67-1.12-1.01.2-.77.99-.82,1.59-1.44h-3.63c.25-.95,1-.72,1.97-1.18-1.73.3-2.64,0-2.52-1.48.03-.37.39-.5.73-.58.88-.19,1.39.23,1.74,1.12.1-1.26,1.71-1.61,1.52-3-.03-.25.5-.33.85-.34.83-.02,1.01,1.18,1.69,1.08.8-.12.77-.28.94,1.78.1-.66.2-1.31.33-2.2.85,1.22.71,2.36.72,3.59.51-.47.12-1.2.82-1.56.74,1,.87,2.1.49,3.5.84-.53.35-1.54,1.12-1.89.69.71.36,1.76.36,2.37,0,2.1,1.41,2.85,2.77,3.69.76.47,1.37,1.01,1.89,1.71.25.34.6.54,1.04.38.45-.16.57-.5.45-.95-.51-1.95.46-3.05,2.06-3.97.81-.47,1.51-1.22,2.07-2.62-1.93,1.41-3.67,2.11-5.67,2.26,1.96-.92,3.12-2.61,4.47-4.09.29-.32.94-.57.47-1.08-.37-.4-.86-.02-1.24.24-.22.14-.43.32-.62.5-.47.44-1.05.75-1.62.41-.76-.45-.13-1.06,0-1.58.12-.5.57-1.09-.02-1.44-.82-.49-.89.48-1.27.84-.14.13-.22.33-.35.48-.34.37-.51,1.11-1.16.89-.84-.3-.08-1.03-.32-1.81-.54,1.62-1.64,1.59-2.8,1.22-.54-.17-.55-.57-.41-1.12.34-1.44,1.42-1.05,2.39-1.04-.22-.6-1.42-.33-1.11-1.34.23-.76.94-.56,1.42-.82,1.74-.95,3.46-1.01,5.42.09-.5-1.07-1.56-.92-1.96-1.61.59-.91,1.63.91,2.11-.41.51-1.41-.2-2.43-1.65-2.06-2,.5-3.29-.64-4.49-1.76-.82-.77.18-1.42.82-1.4,1.14.03,2.27.43,3.41.63.79.14,1.59.55,2.38-.07.91-.72.13-1.23-.13-1.86-.47-1.12.27-1.84,1.62-1.41.76.24.68.19.83-.52.19-.94.61-1.96,2-2.09-1.94.52-2.53-.67-2.94-2.04-.17-.58.29-.89.75-.99,1.27-.27,1.66.79,2.2,1.64.57-.55-.72-1.62.59-1.89,1.06-.22,1.17.74,1.51,1.27.45.7.67,1.55,1.05,2.48.42-.95-.54-1.69-.12-2.58,1.05.9,1.64,2.04,2.1,3.38.48-.81-.17-1.43.16-2.53.58,2.05,1.52,2.65,3.24,1.76.49-.25.98.17.5-.78-.31-.63.22-1.57.85-2.04.76-.55,1.26.18,1.88.57.93.58,1.93,1.35,3.12.15.4-.41,1.51-.59,2.03-.34,1.33.65,2.37-.35,3.61-.41-1.98-.35-3.84-1.04-5.9-1.42.91-1.17.92-1.93-.83-1.88-.47.01-1.23.19-1.28-.55-.06-.83.82-.66,1.28-.88-.5-.76-1.93.69-2.04-.84-.06-.76-1.36-1.87-.16-2.15,1.22-.28,2.84-.95,3.99.04,1.32,1.13,2.68.94,3.84.29.94-.53,1.52-1.51,2.88-1.01.5.18.64-.54.69-1.01.16-1.6.82-3.06,1.31-4.57.25-.79.72-1.54,0-2.41-.48-.57-.11-1.28.49-1.45,1.15-.33,1.42-1.12,1.75-2.13.55-1.7,2.06-.62,3.13-.81.52-.09,1.13.86,1.57.11.39-.68-.53-.94-.86-1.38-.56-.72-1.18-1.38-1.92-2.23,1.4-.38,4.4,1.49,3.01-2.16,1.14-.4,1.51,1.53,2.64.72.51-.37,1.23,1.03,1.42,0,.2-1.07,1.05-2.15.6-3.19-.89-2.06-1-2.02,1.2-2.83-.62-1.1-1.72-1.6-2.7-2.24-.49-.32-.82-.81-.49-1.34.43-.68.74.14,1.12.2.91.14,1.64.63,2.43,1.02.75.37,2.25.66,3.13-.63.91-1.33,2.17-1.65,3.63-.79.46.27.95.54,1.48.18.85-.58,2.14-.98.9-2.39-.27-.31-.67-.66-.52-1.22.76.1.69,1.1,1.41,1.25.16-.74.62-1.35.89-2.05.47-1.23-.05-1.59-.85-2.21-1.69-1.29-2.01-3.4-2.79-5.22-.21-.49.12-1.18.93-1.48.92,2.12,2.99,3.51,3.73,5.77,1-.91,1.16-1.85.12-4.33-.67-1.59-.77-3.15-.74-4.83.79.32,1.62.49,2.02,1.56.18-1.13-.39-1.84-.61-2.64-.17-.6-.87-1.36-.2-1.81.88-.58,1.07.61,1.76,1.17-.37-1.34-1.5-2.66.45-3.46.48-.2.87-.36,1.24.06.74.84.33,1.59-.43,2.49,1.12-.45,2.52-.7,1.78.82-.92,1.87-.03,1.63,1.17,1.59.3-.01.6.17,1.14.34-1.1.88-1.47,2.17-2.78,2.6-.53.18-.58.65-.37,1.16.54,1.3.47,2.69.44,4.4,1.37-1.28,2.4-2.9,4.39-1.47.43.31.96-.53,1.33-.99.61-.78,1.31-1.31,2.55-.83-1.15,1.26-.91,3.06-2.36,4.23,1.29.54,2.02-.58,2.98-.3.2,1.87-1.58,3.53-.45,5.49.6-.03.58-.69.85-1.08.42-.58.48-1.65,1.17-1.75,1.25-.19,2.56-.03,3.84.02.15,0,.43.3.41.37-.49,1.34,1.03,1.74,1.21,2.46.4,1.6,1.44,2.57,2.46,3.57-.41.98-1.56.16-1.9,1.14.9,1.41,2.59,1.87,3.93,2.77,1.12.75,1.16,1.47-.07,2-.81.35-.91,1.06-1.43,1.9,1.57-.48,2.24-.17,1.28,1.5,1.17-1.39,2.37-1.33,4.01-.04-1.21-1.9.03-2.43.97-2.8,1.31-.51,1.49.46,1.6,1.51.06.59,1.39.94,2.08.66,1-.41,2.5.56,2.57,1.65.17,2.91.11,3.01-2.14,3.39.45.36,1.47-.06,1.36,1.05-.1,1-.86.76-1.46.93-1.23.33-1.85,2.01-3.44,1.5-.16.65.74.39.52,1.04-.03.01-.2.18-.35.15-1.01-.17-1.96.09-2.91.38-.44.13-1.05.19-.86.82.23.78.69.24,1.08.07.66-.29,1.32-.68,2.17-.12-.75.96-1.49,1.91-2.22,2.87-.11.15-.21.34-.24.53-.13.8,1.99,4.77,2.8,4.99.99.27,1.1.89.88,1.65-.55,1.9-.54,3.34,1.79,4.16.98.34.99,1.81.44,2.84-.61,1.14-.72,2.26-.07,3.38.31.53.36,1.46,1.22,1.34.79-.11,1.74-.21,1.93-1.35.18-1.11.84-1.76,2.3-1.84-1.22,1.72,0,2.2,1.21,2.55.84.24,1.67.28,1.66,1.47,0,.26.3.63.72.42.26-.13.37-.45.23-.68-.96-1.58-.51-3.33-.64-5.17.94.27,1.59.77,2.06,1.61.24-.87-.14-1.6-.4-2.32-.64-1.76-.08-2.81,1.76-3.14.47-.08.3-.52.52-.74.39-.37.8-.45,1.26-.16.63.41.97,3.58.84,4.24-.22,1.13-1.31,2.06-.81,3.34.18.46-.16.62-.4.75-1.38.74-1.66,2.22-2.43,3.26,2.22.56,4.52.53,6.32,2.13.22.19.62.15.93.26,1.22.43,1.8,1.03.27,2.21,1.93-.85,2.23.57,2.51,1.61.33,1.22-.95,1.04-1.56,1.51-1.56,1.2-3.42,1.38-5.15,2.01-.34.13-.54.38-.53.75,0,.58.26,1.02.81,1.25.98.41,1.95.82,2.93,1.23.8.34,1.48.83,2.21,1.85-2.31-.58-4.3-1.08-6.29-1.58.14,2.51.68,3.1,2.99,3.41.59.08,1.59-.21,1.21,1.11-.12.41.25.73.76.36,1.39-1.01,1.03.51,1.56,1.18-.1-1.82,1.05-1.83,2.21-1.78.19,0,.4.05.56.15.53.33.76,1.16.42,1.33-1.51.72,1.22,3.4-1.43,3.2-1.63-.12-1.3,1.64-2.53,1.77,1.97.64,2.76,2.29,3.74,3.73.25.37.5.84.11,1.27-.32.35-.74.09-1.13.08-1.54-.04-2.16-1.39-3.14-2.22-.33-.28-.48-.96-1.04-.68-.56.27-.05.64.08.98.35.94-.58.64-.93.87-1.15.73-1.89,2.55-1.15,3.41.83.97,1.89.92,2.87.02.29-.27.66-.57,1.06-.41.8.32,1.91-1.38,2.49.41.07.2.47-.08.59-.32.4-.8.64-1.23,1.58-.31.66.65.98-.45,1.34-.96.28-.39.4-1.17,1.09-.88.55.23.46.87.36,1.55.52-1.91,1.84-1.57,3.09-1.31.66.14.76.66.58,1.25-.38,1.26-2.09,2.18-3.71,1.97.53.8,1.55.09,2.11.72-2.4,2.03-4.94,3.66-8.42,2.89,1.96,1.72,3.11,3.96,4.91,5.66.32.3,0,.4-.12.61-1.22,2.03-2.53,4.16-4.95,4.66-1.58.33-1.65,1.49-1.86,2.34-.25,1.01.48,1.98,1.54,2.53,1.11.57,2.6.77,2.75,2.65-.96-.44-2.04-1.17-2.75-.27-.78.97-.41,2.08.5,3,.34.34.56.9.28,1.67-1.08-1.01-2.56-1.23-3.27-2.68-.54-1.1-1.74-.34-1.88.12-.36,1.25-1.28,2.12-1.81,3.24-.39.82.12,1.1.6,1.43,1.01.69,2.05,1.34,2.98,2.2-1.55.15-2.61-1.25-4.36-1.29.71,1.25,1.54,2.19,1.42,3.55-.06.69.07,1.01-.67,1.63-1.62,1.36.98,1.57,1.14,2.61.04.29,1,.17,1.33.73-.29.69-1.27.37-1.54,1.12.54.6,1.34.75,2.05,1.02,1.47.54,1.38,1.04.12,1.61,1.35,1.04,1.39,3.08,3.59,3.89-1.61.63-2.86.09-3.78,1.1.43.53,1.09.76,1.79.83.58.06,1.29-.16,1.46.65.17.78-.42,1.23-.98,1.58-.39.24-1.28.08-.1.69.37.19,1.17,1.5.64,2.26-.52.76-1.48,1-2.49.52-.77-.36-1.55.22-2.71.23.79.38,1.16.63.74,1.38-.65,1.17.17,2.55,1.22,2.1,2.18-.93,2.89,1.42,4.49,1.66.32.05.57.63,1.14.36.72-.34,1.51-2.44,2.21.03,1.18-1.09,2.07.25,3.11.36.49.05.74-.44.55-.81-.38-.72-.42-1.71-1.47-1.98-.29-.07-.82-.47-.63-.61,2.16-1.6-.12-1.78-.76-2.47-.31-.34-.38-4.41-.04-4.74.18-.17.49-.39.67-.35,1.12.28,2.17.57,3.4.52.6-.03.66,1.57.88,2.52.45-.21-.09-.96.7-.99.59.87.91,1.91.88,3.09.77-.27.26-1.18.86-1.46.48.2.14.76.45,1.03.24-.37-.15-.95.42-1.24.64.37,1.03.97,1.69,1.92-.08-1.18-.15-1.99-.2-2.8-.04-.57-.39-1.29.27-1.63.83-.44.77.81,1.58.99-1.43-2.06.69-2.06,1.46-2.8.4-.38,1.04.02,1.09.46.12,1.18.69,2.57.46,3.43-.25.93-.76,2.26-1.79,3-.48.35-.92.73-1.49,1.19h1.3c.12.53-.26.59-.49.8-.35.31-1.45.22-.73,1.16.51.67,1.05.34,1.52-.11,1.3-1.23,2.96-2.01,4.62-2.1,1.74-.09,3.53.5,5.26.92.68.16,1.24.7,1.37,1.63-1.79-.16-3.53.64-5.46-.97,1.05,2.89,3.41,1.32,4.87,2.44-1.29.76-2.32,1.82-4.23,1.35,1.04,2.9,4.1,3.47,5.77,6.14-2.03-1.42-3.61-2.47-5.11-3.62-.79-.6-1.44-.58-2.11.06-.42.4-1,.75-.66,1.49.41.87,1.13,1.01,2,.9.93-.11,1.85-.04,2.74.31.62.23.79.72.23.96-1.72.74-.61,1.98-.33,2.71.42,1.09.84,2.21,1.31,3.3.08.18.35.41.3.49-1.05,1.84.89,2.03,1.59,2.9.22.28.41.67.16.9-1.02.91-1.92,1.88-2.62,3.09-.32.55-.94-.04-1.16-.56-.26-.64-.6-.97-1.36-.75-.79.23-.74.75-.94,1.43-.5,1.74.14,3.55-.52,5.25-.17.45.39.43.62.58.32.21.52.24.88-.24,1.6-2.12,2.16-2.08,3.49-.01.77,1.2,1.78.54,2.39.05,1.44-1.14,2.9-2.02,4.77-2.27.78-.1,1.45-.63,2.14.21.14.17.83.2.91.07.8-1.31,2.09-.54,3.03-.56,1.01-.02,2.66.02,2.45,2.03-.05.53.58,1.12.93,1.75-4.04-.28-7.7,2.3-11.82.53.21,1.14.85,1.07,1.26,1.31,1.31.77,1.32,1.75.11,2.71-.59.47-1.82.73-.99,1.92.67.96,1.26,2.11,2.82,1.61,1.85-.59,3.58-1.63,5.77-1.27.27.37-1.11.94-.07,1.49.64.33.93-.22,1.39-.36,1.84-.57,3.65-1.54,5.65-1.06.75.18,1.42-.37,2.14,0-.12.75-.7,1.18-1.17,1.8.55-.05,1.01-.06,1.46-.14,1.96-.35,3.57.45,4.56,2.18.49.86.21,1.23-.59,1.69-2.6,1.5-5.47,1.06-8.23,1.13-.96.03-1.97-.94-2.91-1.53-.82-.52-2.08-.69-2.38-.13-.57,1.05-1.34.79-2.11.91-1.17.19-2.27.64-3.48.74-.91.07-1.5.79-1.84,1.65-.39.98-.77,1.96-1.12,2.86,2.36,1.44,5.74-.16,7.64,2.69-2.07.66-4.07-.69-5.97.52-.51.32-1.23-.31-1.83-.6-.66-.31-1.26-.38-1.79.24-.52.62-.39,1.24,0,1.84.56.88,1.5,1.53,1.53,2.71-1.49.31-1.6-1.61-2.72-1.73-.77.39-.52,1.52-1.46,1.8-.41-.93.24-1.59.37-2.33.13-.73.12-1.6-.56-1.95-.52-.26-1.07.36-1.47.79-.59.64-1.13,1.34-1.61,1.93.39.98,1.73.11,1.94,1.13.17.83-.8.66-1.18.98,2.12.54,4.28-.02,6.42.32.98.16.63-.5.24-.95,1.23-.83,2.09-2.94,4.07-1.17.96-1.52,1.84.29,2.57.08,1.41-.4.64.78.97,1.11.53.52.35,1.14-.36,1.36,2.42.71,5.11,1,6.38,4.01-1.2-.26-2.07-.85-1.61,1.25.31,1.42.1,3.14.48,4.71.18.76-.74,1.03-1.02,1.62-.96,2.05-2.17,3.78-4.33,4.9-1.61.84-1.92,2.93-2.77,4.48-.35.65.39.9.85,1.1,1.2.53,2.05,1.4,2.67,2.6-1.84,1.39-3.28.08-4.67-.76-.66-.4-1.07-.76-1.65-.07-.42.5-.75,1.09-1.07-.1-.11-.4-.65-.16-.82.07-.58.79-1.41.83-2.63.8,2.23,2.88,2.27,6.02,2.15,9.18-.03.68.5,1.21.86,1.45,2.18,1.46,3.94,3.38,5.78,5.18,0-2.24.05-4.43-.03-6.61-.02-.66-.37-1.45.49-1.61.75-.14,1.06.62,1.26,1.3.21.72.24,1.53.87,2.06.96-.43.22-1.28.68-1.91,1.44,1.68,3.1,3.76,2.66,5.59-.5,2.09,1.17,4.15-.36,6.01-.28.34-.08,1.02-.67,1.12-.59.1-.65-.53-.95-.84-.99-1.04-1.55-2.24-1.33-4.24-1,1.26-.39,2.35-1.24,3.2-.48-1.61-1.5-2.7-2.85-3.57-1.08-.7-1.44-.33-1.5.73-.12,2.11-.12,4.24-.74,6.32-.53-2.26-.29-4.6.04-6.81.32-2.22-1.03-3.29-2.14-4.6-.57-.68-1.2-.12-1.76.24-.46.3-.7.74-.95,1.23-1.06,2.06-1.08,2.04,1.2,1.99.32,0,.64.05,1.08.09-.48,1.32-1.59,1.03-2.46,1.25-.68.18-1.62.18-1.78,1.02-.12.65.5,1.16.97,1.63,1.42,1.42,1.1,5.33-.63,6.36-1.11.66-1.85,1.44-2.13,2.68-.09.39-.28.81-.73.84-.53.04-.59-.5-.66-.84-.17-.77-.18-1.27-1.35-.97-1.13.29-1.96-.84-2.83-1.56-1.13-.93-.96-1.68-.14-2.81,1.01-1.38-.83-.46-1.01-.99.91-1.26,1.09-2.97,2.47-3.94.44-.31.44-.76.1-1.22-.62-.83-1.42-1.51-2.39-1.65-.6-.09-.36.99-.57,1.19-2.09,1.97-.79,4.66-1.57,6.88-.14.41.02.96-.8,1.16-.4-1.44-.67-2.98-2.31-3.76-1.09-.52-1.44-.44-1.8.74-.72,2.39-.7,4.98-1.88,7.28-.71-.23-.56-.75-.5-1.16.32-2.16.49-4.37,1.08-6.45.52-1.83.23-2.8-1.6-3.55-1.06-.44-2.3-1.3-1.31-2.95-.85.17-1.72-.12-2.56.3.08,1.14,1.59,1.7,1.17,3-1.72-.88-1.71-.87-1.76,1.1-.02.6-.08,1.19-.16,1.78-.03.24-.17.46-.41,1.06-.59-1.8-.94-3.27-.93-4.97-1.08.79-2.8.54-2.73,2.55.02.54-.72.3-1.1-.02-.65-.55-1.29-1.11-1.94-1.66-1.81,1.74.39,2.44,1.28,3.37.29.31.8.6,1.17.96.41.39,1.2.82.76,1.39-.29.38-1.16.34-1.78.42-.52.07-1.1-1.14-1.45-.24-.35.91-1.26,1.9-.64,2.96.49.85.25,1.32-.2,2.11-1.07,1.87-2.77,3.45-2.85,5.8,0,.06-.05.12-.09.17-1.7,2.95-1.68,2.89,1.78,3.64,2.17.47,4.41.67,6.37,2.02,1.83,1.27,1.96-1.04,2.86-1.77.39,3.51,1.35,4.11,4.97,3.05.41-.12.74-.25,1.11-.03,2.09,1.27,4.62,1.23,6.56.57,2.01-.69,3.65-.5,5.53-.19,1.95.32,1.24-1.6,1.84-2.49,1.05.79.07,2.58,1.39,3.06,1.44.52,1.74-1.09,2.79-1.85,1.58,3.2,5.25,3.82,8.13,6.44-2.18-.11-3.36-1.44-5.12-1.59,2.5,1.6,1.73,4.46,2.71,6.68.71,1.61,1.86,4.07.03,6.2-.69.81-1.13.98-1.92.4-.63-.46-1.3-3.21-1.79-3.67-1.5-1.43-.28-4.4-3.07-5.14-.08,1.63.75,2.97,1.12,4.71-1.04-.67-.81-1.68-1.47-2.21-.82.42-.54,1.41-1.02,2.13-1.32-.89-2.18-2.05-2.97-3.35-.13.13-.28.24-.4.38-.78.88-.88,2.58-2.79,2.09-.6-.15-.51,1.88-1.66.95-1.12-.9-2.24-1.91-2.65-3.37-.13-.47-.09-1.04-.72-.92-.69.12-.26.74-.33,1.15-.4,2.07,1.14,3.62,1.42,5.5.03.18.23.49.27.48,2.29-.64,1.05,1.84,2.07,2.35.16.08.31.61.22.71-1.61,1.79.44,3.89-.65,5.78-.77.34-1.84-1.91-2.6.06-.34.9-1.17,1.55-.75,2.87.59,1.88-.49,3.65-1.37,5.3-.53.99-1.87.66-2.33-.78-.3-.95-.5-1.22-1.41-.81-.48.21-.78-.04-1.1-.51-1.01-1.47-1.19-2.93-.42-5.34-1.52-.46-1.37,3.78-3.63,1.27-.94-1.04.32-1.32.42-1.99-.52-.14-.98.77-1.4.13-.28-.43.21-.84.43-1.23.29-.5.8-.91.63-1.6-.13-.06-.28-.19-.35-.15-2.72,1.28-3.87.93-4.34-1.88-.19-1.12-.74-1.91-1.1-2.86-.34-.9-.71-1.78-1.04-2.61-1.14.17.28,1.5-.81,1.42-.82-.05-1.11-.89-1.24-1.62-.44-2.46-1.97-4.89-.24-7.57.79.89.9,2.19,1.79,2.95,1.78-1.62.59-3.32.29-4.98-.05-.28-.26-.33-.59-.3-1.56.15-2.14-.38-1.44-1.74,1.05-2.04.06-2.86-1.49-3.69-1.21-.65-2.41-1.34-3.43-2.39.16,2.72.31,5.25.48,8.13-2.56-1.98-2.7-4.65-2.9-7.07-.2-2.33-1.21-3.82-3.75-3.59-7.58.68-15.18,1.25-22.73,2.28-.71.1-1.21.43-1.73.87-4.54,3.88-7.33,8.99-9.99,14.19-.18.35-.23.79-.46,1.1-4.56,6.06-2.91,13.08-2.91,19.78,0,3.17.22,6.36.22,9.54,0,6.71,1.01,13.34,1.38,20.02.13,2.38.35,4.76.57,7.13.12,1.37-.14,2.02-1.82,1.93-3.43-.19-6.88-.12-10.32-.07-1.52.02-1.9-.57-1.79-2.05.54-6.75.37-13.5,0-20.26-.32-5.76-.45-11.53-.5-17.29-.01-1.78-.7-2.94-1.9-4.12-4.67-4.6-10.21-7.99-15.63-11.56-4.7-3.1-9.28-6.39-13.91-9.6-.11-.08-.25-.13-.32-.23-3.21-4.77-8.35-4.82-13.26-5.43-.51-.06-1.02-.17-2.09-.35,1.5.94,2.88.3,3.86,1.37.49.53,1.45.36.7,1.55-.46.72.58.59.96.77.62.3,2.11-.2,1.15,1.38-.3.5.17.31.32.36,1.45.46,1.5,2.07,1.07,2.65-.69.95-2.38.55-3.06-.08-1.73-1.58-3.58-3.07-4.38-5.55-.97-2.98-2.89-3.52-5.96-2.15,1.03,1.46,3.21,1.66,3.92,3.76-1.72-.82-3.4-1.26-4.72-2.54-.87-.84-1.85-1.11-1.84.69,0,.61-.28,1.21-.69,1.33-2.36.65-1.3,2.46-1.38,3.85-.07,1.21,1.06,2.39-.28,3.65-.87.82-1.32.75-1.81-.13-.87-1.55-2.35-3.02-.66-4.97-.81-.54-1.93.55-2.38-.9-.37,1.5-.52,2.73-.38,3.99.07.61.17,1.35-.34,1.68-1.27.82-1,1.96-.89,3.2-1.52-1.51-3.21-2.84-3.29-5.22-.03-.92-.1-1.84-.21-2.75-.06-.46-.23-.96-.77-1.04-.61-.09-1.21.12-1.65.53-.43.4-.12.88.11,1.27,1.13,1.96,2.11,3.97,2.83,6.12.24.71.33,1.39.31,2.08-.71.39-.61-.68-1.22-.47,0,.95-.13,1.97.03,2.95.3,1.82-1.14,2.69-2.06,3.69-.57.61-1.18-.5-1.59-1.05-2.1-2.82-2.02-2.7-4.99-.88-.96.59-1.93,1.33-3.06,1.63-1.76.47-3.58-.57-4.71-2.97-.7-1.48-.9-.88-1.43,0-1.08,1.81-.46,3.61.04,5.36.27.95.46,1.77-.16,2.63-.91-.09-.67-1.07-1.15-1.44-.88-.68.11-2.7-2.14-2.56-1.23.07-2.39-.18-3.47.63-.24.18-.6.22-.85.3-.51-.42-.24-.8-.1-1.14.71-1.72.2-4.63-1.02-5.87-.5-.51-.87-.23-1.09.22-.32.65-.6,1.33-.77,2.03-.13.52-.08,1.25-.83.84-.43-.24-1.54-.15-1.04-1.41.61-1.53-.48-3.5,1.09-4.84.37-.31.47-1.92,1.49-.27.49.8,3.48-1.12,3.05-2.12-.79-1.83.8-2.49,1.39-3.54.42-.75.58-2.13,1.41-2.2,1.1-.09,2.3.39,3.38.83,2.54,1.05,5.17,1.61,7.88,1.29,1.19-.14,1.07-1.13.39-1.93-1.29-1.52-1.59-3.34-1.62-5.31-.17.09-.36.14-.48.26-.4.44-.87,1.05-1.44.7-.56-.35.07-.94.14-1.43.26-1.86,1.4-3.73.02-5.79-.75,1.22-.51,2.72-1.79,3.86.06-1.77.16-3.24.88-4.65-.73-.2-.92.3-1.2.6-.43.47-1.17.65-1.31.11-.39-1.48-2.16-2.26-1.86-4.1.27-1.62-.56-3.27-.13-4.86-.41-.56-1.26,1.71-1.54-.34-.06-.44-.79.07-1.15.31-.74.49-1.34,1.07-2.43.51-.58-.3-1.33-.39-1.48-1.05-.17-.78.62-1.02,1.14-1.43,1.59-1.21,3.12-2.49,4.68-3.75-1.02-1.14-1.93-2.35-2.65-3.81-.32,1.36-.67,2.82-1.02,4.29-.44-1.18-.74-2.31-.22-3.46.38-.84.22-1.42-.76-1.6-.13.12-.26.24-.39.36ZM211.54,219.24c-1.55-.94-2.13-3.09-4.27-3.33-.2,2.35.21,4.7.39,7.06.05.66.3,1.62.88,1.63,1.16.02,1.67.87,2.58,1.77-.38-2.06-.99-3.67-.89-5.4.02-.39-.42-.78.38-.52,1.38.45.96-.54.94-1.2.6.32,1.25,1.08,1.85.11.66-1.06,1.36-2.13,1.59-3.39.1-.58.18-1.21-.38-1.65-.76-.6-3.71-.15-4.65.89-.89.99.4,1.53.78,2.25.31.58.78,1.07.81,1.77ZM59.91,272.92c-1.86-1-3.7-2.04-5.58-3-.75-.38-1.67-.4-2.12.4-.43.75-.34,1.59.35,2.36,2.08,2.34,4.94,3.02,7.72,4.07.33-1.18-.48-1.97-.37-2.89,1.33,1.57,1.54,4.21,4.33,4.38,2.16.13,4.3.71,7.06.58-4.08-2.32-7.64-4.3-11.39-5.9ZM111.02,299.51c.12-.81.18-1.18.24-1.56.54-3.95.09-7.94.54-11.9.56-4.93.97-9.88,1.31-14.83.31-4.47-1.65-7.12-5.96-8.38-.19-.05-.48-.12-.52-.24-.56-1.88-3.18-2.66-2.79-5.09-.05.57-.09,1.14-.15,1.91-.66-.44-1.35-1.51-1.85-.23-.74,1.9-3.04,1.38-4.09,2.78-.25.33-.87.02-.85-.43.05-1.23-.76-2.45,0-3.68.23-.38.63-.78.23-1.25-.36-.41-.84-.29-1.3-.17-.53.14-1.07.27-1.64.42.3.25.87-.09.92.64-2.46-.27-3.34.92-3.08,3.24.09.83-.67.87-1.25.95-1.43.2-2.62.81-3.59,1.89-.94,1.05-.27,1.96.2,2.91.53,1.06,1.32.7,2.01.3,1.4-.82,2.87-.16,4.36-.48-.34.99-.85,1.61-1.65,2.01,1.75.56,3.34-2.11,5.03.36.55.81,1.95,1.62,1.36,2.41-.69.92-2.04,1.99-3.48,1.43-.95-.37-1.89-.4-3.06-.92.76,1.71,2.27,2.63,2.39,4.58-1.07-.99-1.91-1.78-3.05-2.84.15.65.15.92.26,1.13,3.57,6.2,7.13,12.4,10.74,18.58.29.49.74.98,1.24,1.25,2.54,1.43,5.03,2.92,7.49,5.21ZM36.22,239.76c-.51.06-.69.13-.84.09-1.62-.45-1.7.51-1.78,1.74-.09,1.4.38,1.68,1.6,1.18.58-.24.53.18.64.6.24,1.01.34,2.3,1.02,2.91,1.15,1.04,1.89-.65,2.87-.97.13-.04.25-.08.38-.11.47-.09.99-.13,1.26.32.29.48-.42.57-.5.94-.21.94-1.18.98-2.06,1.43.65.21,1.32.3,1.34.45.23,2.2,1.15,1.35,2.1.53.25-.21.52-.51.87-.33.64.34.11.96.28,1.56.6-.69,1.01-.78,1.91-.22,1.16.71,1.66,2.07,2.94,2.54.69.25,1.27.59.94,1.43-.31.79-.82,1.15-1.83,1.1-1.95-.1-3.7-.94-5.59-1.23-1.74-.26-3.17,1.03-3.03,2.75.05.63.37.96,1.08.7.46-.17,1.02-1.06,1.42-.06.39.96,1.82,1.8.82,2.99-.9,1.08-.36,1.59.49,2.07,1.01.57,1.94,1.32,3.31.92.89-.26,1.95.35,2.34.99.91,1.51,2.72,1.81,3.71,3.14.2.28.73.5.98-.03.22-.45-.12-.71-.52-.9-.64-.32-1.34-.63-1.07-1.75,1.29.78,2.51-.37,4.14.28-.56-.97-.54-1.64-.51-2.39.05-1.48,1.19-2.75.82-4.13-.61-2.29-2.18-4.1-3.92-5.59-1.52-1.29-3.5-1.92-4.59-3.89-.55-1-.67-1.52.17-2.1.72-.5.66-.91.11-1.41-.93-.85-1.86-1.69-2.82-2.51-.41-.35-.89-.79-1.09.21-.1.53-.27,1.17-.98.93-.59-.2-1.28-.45-1.46-1.21-.16-.64-.19-1.35-.48-1.92-.64-1.27-.61-3.4-3.09-2.57-.51.17-.98-.28-1.29-.76-.35-.55-.69-1.14-1.61-1.24.58,1.16-.05,2.59,1.52,3.51ZM124.82,284.8c2.29-3.11,4.65-6.18,6.85-9.36.99-1.42,2.13-3.23,2.19-4.64.08-2.02.83-4,.46-6.23-.53.49-.93,1.05-1.48,1.33-.82.41-1.76.51-2.59-.08-.59-.42-.44-1,.04-1.32,1.63-1.07,2.7-2.85,4.93-3.26,1.16-.21,3.11-.73,2.86-2.79-4.22.88-7.02,3.89-10.14,6.46,1.31-2.41,4.15-3.61,4.97-6.42-3.12.85-4.9,2.8-6.11,5.7-1.74,4.18-1.9,8.51-1.94,12.87-.02,2.54-.34,5.08-.04,7.73ZM81.42,273.89c1.14.78,2.31,1.51,3.4,2.35.97.75,1.87,1.61,2.78,2.44.25.23.4.58.15.89-.27.34-.63.47-1.04.18-.67-.47-1.34-.94-2.01-1.41,2.96,5.93,6.41,11.24,13.5,12.94-2.57-5.04-5.07-9.93-7.56-14.82-1.11-2.18-1.16-2.05-2.91-2.87-.83-.39-1.5-.49-2.23-.15-1.27.59-2.54.64-4.08.45ZM196.18,286.39c-.93.05-2.05,1.01-1.79-1.06.14-1.12.52-2.07.75-3.11.1-.47.7-1.24-.47-1.25-3.04-.01-6.08-.01-9.11,0-.56,0-1.01.47-.54.89,1.73,1.53,2.48,3.71,3.84,5.46.43.55,1.19,1.05,1.91.85,1.04-.29.32-1.23.44-1.88.06-.32.05-.66.48-.88.5.44,1.03.9,1.56,1.37.15.13.28.28.42.42q1.65,1.79,2.52-.83ZM70.89,276.35c-.99-2-2.23-3.69-3.81-5.07-.33-.29-.93-.73-1.16-.62-1.57.8-1.25-.46-1.34-1.19-.23-1.81-2.31-4.49-4.09-5.17.03.21,0,.43.09.58.68,1.17,1,2.51.06,3.51-.87.93-2.09.13-3.12-.17-1.05-.3-2.08-.6-3.5.04,5.84,2.8,11.36,5.44,16.87,8.09ZM42.41,175.92c.28-.65.99-.05,1.02-.62.02-.35-.42-.46-.75-.51-.57-.1-1.07.03-1.35.58-.88,1.69-1.82,3.35-2.59,5.09-.56,1.26.15,3.1,1.01,2.95,2.21-.38,4.42-.81,6.61-1.31,1.74-.39,1.02-2.1,1.46-3.16.42-1.01-.82-.89-1.42-1.16-1.31-.6-2.61-1.21-3.99-1.86ZM200.07,230.45c-.76,1.94-1.93.77-2.92.83-.56.04-1.38-.34-1.58.38-.23.82.41.96,1.12.77.23-.06.46.18.32.34-1.18,1.4.49,2.38.62,3.63-.96-.02-1.06-.79-1.42-1.28-.26-.36-.42-.92-1.02-.73-.54.16-1.04.62-.96,1.14.15,1.02.3,2.69.85,2.87,1.1.37,2.24,1.58,3.14,1.2,1.61-.68,3.6-.94,4.67-2.69-2.95-1.13-2.18-3.91-2.83-6.47ZM42.71,187.83c.47,2.19,1.09,2.44,2.85,1.17.43-.31.92-.5,1.32-.77,1.73-1.15-.27-2.84.46-4.22.22-.42,0-.93-.56-1.09-.18-.05-.39-.01-.58.02-2.02.36-4.04.7-6.05,1.1-.58.12-1.27.43-.99,1.2.34.95.74,1.92,1.33,2.71.63.84,1.5,1.02,2.22-.13ZM134.57,255.09c.87-.53,1.46,1.64,1.85.36.54-1.77,1.1-.61,1.46-.21.61.69,1.63.87,1.79.28.28-.99,1.45-1.26,1.48-2.18.04-1.18-1.04-.33-1.45-.67-.19-.16-.23-.61-.21-.92.04-.63-.15-.99-.82-1.11-.97-.19-1.94-.35-2.55-1.32-.26-.41-.72-.24-1.03.07-1.57,1.58-3.38,3.01-3.64,5.63.58,0,1.17-.24,1.69.15.5.38,1.07.66,1.64,1,.08-.47-.47-.76-.22-1.07ZM156.49,264.39c-.97,3.12-.57,4.09,2.02,5.54.16.09.27.28.38.43,1.75,2.43,4.69,2.1,7.06,3.18-1.75-1.1-3.47-2.43-3.63-4.42-.18-2.2-1.15-4.05-1.75-6.06-.13-.42-.22-1.2-.89-1.03-.66.17-.31.86-.38,1.35-.19,1.27,1.21,2.33.43,3.86-1.04-1.15-2.79-1.17-3.24-2.87ZM84.71,283.17c-2.3-3.72-4.56-7.47-6.92-11.15-.56-.87-2.19-.51-2.35.52-.15.94-.45,2.08.17,2.89,2.44,3.18,5.13,6.12,9.1,7.74ZM156.69,272.72c-.01-.83-.55-.77-.83-1.01-1.54-1.31-3.41-2.32-4.43-4.1-.37-.64-.41-1.39-1.31-1.38-.96,0-1.29.71-1.61,1.5-.37.94-.13,1.96-.87,2.94-.57.76.06,2.4,1.27,2.44,2.59.09,5.2-.24,7.78-.39ZM198.68,242.72c1.24-.69,2.01.14,2.88.24,1.11.12.95-1.44,1.89-1.67.42,1.33.81,2.58,1.71,3.59.38.43.8.86-.23,1.04-.65.11-.36.66-.17.9.42.52.99.9,1.7.87.38-.01.65-.38.52-.7-.48-1.23-.26-3.35-.66-3.63-1.54-1.1-.88-2.31-.82-3.53.06-1.18-.47-1.21-1.33-.74-1.06.58-2.18.92-3.4.99-1.49.09-2.21,1.71-3.71,1.92-.38.05-.6.78-.07,1.32,1.06,1.07,2.23,1.68,3.85,1.27-.24-1.14-1.34-1.21-2.18-1.89ZM42.89,166.58c-1.94.75-3.41,1.98-5.33,1.98-.15,0-.43.16-.43.24.14,2.1-1.82,2.9-2.82,4.39,7.21-.11,6.66.46,8.58-6.6ZM200.07,247.8c.92-1.98-.79-2.07-1.88-2.34-.65-.16-1.72-.67-2.19.14-.57.97.52,1.46,1.04,2.1.53.65,1.5.88,1.72,1.83-.5.28-.92-.06-1.36-.12-.88-.13-.99.4-.64.93.76,1.18,2.07,1.58,3.31,2,.33.11.78-.37.67-.56-.97-1.72.62-2.86,1-4.19-.71-.56-.99.37-1.67.21ZM173.92,163.7c.35.43.85,1.29,1.01,1.23,1.55-.59,2.03.72,2.74,1.49.55.59,1.09,1.14,1.82.64,1.09-.75,1.67-2,1.35-3.24-.15-.58-.61-1.53-1.98-1.35-1.64.22-3.02,1.52-4.94,1.23ZM206.96,223.6c-.21-2.4-.38-4.57-.59-6.74-.11-1.08-.86-1.3-1.73-1.02-.98.32-.36,1.04-.1,1.43.53.81.34,1.32-.15,2.1-.42.67-1.3,1.12-1.21,2.15.03.4-1.09.82-.36,1.19.51.26,1.31.95,1.91.42.91-.8,1.48-.31,2.22.46ZM52.29,240.76c.19-.73-.51-1.27-.78-1.45-.67-.46-1.1.38-1.55.81-.28.27-.06,1.05-.81.84-.51-.14-.7-.6-.7-1.08,0-.53-.47-.97-.24-1.53.27-.65-.28-.85-.68-.97-.59-.18-.81.37-.96.77-.24.63-.37,1.44.21,1.86,1.54,1.12,2.22,2.74,2.93,4.38.21.48.56,1.01,1.2.52.48-.36,1.01-.77.16-1.36-.42-.29-.92-1-.06-1.08,1.3-.12.45-1.45,1.27-1.7ZM44.49,161.27c-1.69-1.55-.37-2.15.54-2.97.94-.84,1.68-.72,2.21.34.42.84.87.32,1.29.12.58-.27.94-.66.67-1.42-.66-1.87-2.12-2.29-3.42-.86-.58.64-1.49.63-2,1.2-1.03,1.15-1.55.83-1.73-.66-1.5,1.82-.74,3.14,2.43,4.24ZM136.52,272.01c1.67-1.34,3.06-2.43,4.42-3.56.57-.48.9-1.18,1.03-1.88.2-1.06-.35-2.09-1.16-2.5-.86-.43-1.05.76-1.4,1.32-1.23,1.94-2.19,4.01-2.9,6.62ZM171.15,277.47c.79.75,1.38.9,1.88,1.19,1.49.85,2.74,2.04,3.88,3.29.34.38.27,1.27.95,1.34.86.08.88-.83,1.22-1.36.9-1.39.01-2.15-1.05-2.66-2.03-.97-4.18-1.6-6.88-1.8ZM10.41,198.38c.06,1.24.11,2.49.18,3.73.02.37.4,1.03.55.74.46-.9,3.54.18,1.78-2.35-.38-.54.4-1.04.6-1.57.19-.53.23-1.15-.37-1.36-.64-.22-1.15-1.01-1.97-.57-.54.29-.99.67-.78,1.39ZM81.82,92.07c-.74-.26-1.64-.39-1.65.27-.01,1.44,2.63,1.35,2.16,3.32-.06.23.62.23,1.03.06.59-.25,1.2-.46,1.83-.59.89-.18.77-.53.43-1.21-.84-1.71-1.92-2.74-3.8-1.85ZM75.53,249.72c.39-.56.45-1.01-.4-1.07-1.55-.12-3.29,1.44-3.48,3.04-.1.85.41,1.05,1.05,1.09,2.19.14,2.7-.42,2.83-3.06Z"/>
      <path d="M17.28,252.28c.4.53.8,1.07,1.2,1.6-.01.13-.02.26-.01.39.13.13.27.25.4.38-1.86,2.67-2.28,5.74-2.37,8.68-.57.89-1.9-1.83-2.09.75-.05.65-1.32-.03-1.42-.55-.6-2.91-2.06-5.78-.71-8.84.13-.28.38-.51.58-.76,2.15,1.7,2.56-1.38,4.05-1.48.12,0,.24-.11.36-.16Z"/>
      <path d="M14.75,149.52c-1.96,1.34-2.93,3.24-4.96,3.83-.39.11-.88,1.62-1.08-.22-.07-.67-.85.14-1.08.43-.96,1.18-2.09,1.11-3.3.57-.68-.3-1.19-.93-.52-1.54,1.4-1.28,2.81-2.41,4.77-3.04,2.05-.66,3.85-.19,6.17-.03Z"/>
      <path d="M20.38,170.66c1.89.13,1.69,1.7,2.01,2.91-.7.55-1.43.93-1.05,2.17.19.61-.18,1.59-.95,2.21-1.34,1.09-1.68,2.85-2.67,4.25-.31-4.13.82-7.91,2.66-11.54Z"/>
      <path d="M225.1,236.93c-3.21-.9-6.7-.38-9.47-2.66,3.12-1.74,8.52-.29,9.47,2.66Z"/>
      <path d="M19.44,281.11c-2.31-1.86-2.67-4.34-2.54-6.97.02-.51.21-1.02.4-1.5.12-.33.47-.49.81-.45.36.04.24.39.29.63.21,1.05.39,2.87.61,3.04,1.85,1.47.01,3.24.63,4.71.09.21.08.55-.2.54Z"/>
    </g>
  </g>
</svg>