<?xml version="1.0" encoding="UTF-8"?>
<svg fill="#6A7F6B" id="Capa_2" data-name="Capa 2" xmlns="http://www.w3.org/2000/svg" viewBox="0 0 280.73 372.38">
  <g id="Layer_1" data-name="Layer 1">
    <g>
      <path d="M63.32,146.67c-1.12-1.28-1.25-2.79-1.07-4.4.07-.59-.39-.86-.92-.64-.14.06-.3.11-.43.19-1.4.87-2.84,1.65-4.46,2.04-.58.14-1.06.49-1.16,1.05-.2,1.13-1.05,1.43-1.93,1.76-.28.11-.53.27-.95.49-.24-.94.28-1.61.38-2.34.1-.7.3-1.37.63-2,.33-.62.68-1.24.98-1.87.53-1.11,1.17-2.01,2.59-2.03.56,0,1-.42,1.38-.82.15-.16.31-.4.31-.59,0-.44-.39-.34-.69-.39-1.94-.33-3.08-1.56-3.1-3.48,0-1.09.12-2.18-.33-3.23-.18-.42.14-.71.32-1.05.41-.81.33-1.43-.11-1.67-.76-.41-1.82-.17-2.25.57-.39.67-.71,1.39-1.1,2.06-.3.51-.75.5-1.13.02-.34-.43-.69-.85-.97-1.32-.3-.5-1.07-.31-1.28-.96.23-1.23,1.63-1.91,1.65-3.26,0-.13-.12-.26-.18-.38-.94,1.33-.95,1.32-2.97,2.27-.99.47-1.85,1.16-2.91,1.5-.39.12-.57.5-.75.85-.31.61-.9.84-1.53.96-.37.07-.67-.1-.65-.46.04-1-.01-2.01.48-2.97.41-.8.25-1.01-.59-1.44-.56-.28-1.13-.54-1.67-.85-.61-.35-1.15-.8-1.54-1.42-.85-1.36-.95-1.82.72-2.36.67-.22,1.31-.51,1.99-.7,2.06-.56,3.45.07,4.43,1.98.18.34.25.73.6.98.22.16.75.06.81-.2.05-.22.12-.46.09-.68-.13-.9.18-1.69.58-2.47.65-1.27,1.19-2.55.96-4.03-.14-.91.53-1.56.97-2.39-.54-.1-.92-.15-1.29-.24-.44-.11-.71-.43-.54-.86.38-.92.1-1.6-.49-2.35-.77-.98-1.39-2.08-2.03-3.15-.7-1.17-.6-2.01,1.03-1.78.23.03.48.07.7.03.21-.04.55-.17.57-.31.13-.84.43-1.05,1.25-.62.54.29.94-.09.84-.66-.07-.38-.16-.77-.31-1.12-.17-.4-.52-.63-.94-.42-.98.49-2,.88-3.08,1.11-.13.03-.35,0-.43-.09-.19-.22-.05-.44.14-.57.79-.55,1.48-1.14,1.37-2.26-.03-.26.17-.68.39-.81,1.15-.68,1.19-1.93,1.62-2.98.39-.36.83-.68,1.16-1.1.28-.36,1.15-.64.56-1.2-.35-.34-1,.11-1.44.42-.74.52-.32,1.24-.27,1.89-.74.01-1.35.35-1.91.8-.62.5-1.31.87-2.07,1.08-1.12.31-2.21.32-3.02-.66-.74-.89-1.52-.96-2.47-.39-.27.16-.63.14-.83-.16-.19-.29-.09-.62.06-.88.15-.26.35-.53.59-.69.32-.21.72-.3,1.07-.48,1.16-.59,1.48-1.16,1.32-2.44-.17-1.4-.32-2.79-.55-4.18-.13-.81.05-1.56.26-2.31.08-.29.27-.56.47-.79.37-.43,1.5-.43,1.12-1.18-.28-.56-1.13.16-1.74.11-.7-.05-1.42-.01-2.1-.16-.92-.2-1.67.06-2.44.51-1.09.64-2.02,1.46-2.93,2.33-.79.75-1.6,1.46-2.76,1.58-.38-1.17-.04-2.05.71-2.84.98-1.02,1.93-2.05,3.14-2.81.44-.28,1.02-.44,1.19-1.04-.15-.03-.32-.12-.42-.08-1.75.87-3.49,1.76-5.24,2.64-.81.41-1.34,1.04-1.62,1.91-.53,1.64-1.01,3.29-1.99,4.74-.13.19-.18.43-.23.66-.33,1.65-.85,3.17-2.37,4.15-.24.15-.36.5-.53.76-.26.39-.49.8-.77,1.17-.18.24-.43.54-.77.41-.37-.14-.29-.51-.19-.79.34-1.04.61-2.12,1.09-3.09.68-1.35.36-2.58-.13-3.84-.14-.36-.79-.43-.99-.1-.4.67-.75,1.37-1.13,2.04-.93,1.63-1.82,3.28-2.48,5.05-.38,1.02-.98,1.95-1.52,2.9-.1.17-.38.34-.57.33-.18,0-.48-.23-.51-.39-.18-1.15-.35-2.31-.43-3.48-.04-.56.38-1.01.68-1.46.56-.84,1.12-1.69,1.65-2.56.19-.32.4-.68.2-1.09-1.24.64-2.37,1.6-3.06,2.6-.76,1.1-1.99,1.1-2.55-.11-.62-1.37-1.49-2.57-2.25-3.84-.32-.53-.6-1.11-.77-1.71-.34-1.21-.78-2.37-1.38-3.48-.31-.57-.14-.9.42-1.08,1.15-.37,2.29-.51,3.41.12.33.18.65.43,1.22.3-.06-.78-.67-1.34-.91-2.04-.22-.67-.5-1.32-.69-2-.2-.72-.64-1.42-.39-2.4,1.01.39,2,.49,2.99.63,1.28.18,2.44.68,3.31,1.63,1.23,1.35,2.88,1.44,4.5,1.66.34.05.56-.28.56-.62,0-.3-.09-.62-.2-.91-.8-2.12-1.6-4.24-2.43-6.36-.33-.85-.9-.99-1.31-.25-.87,1.55-2.27,2.06-3.88,2.26-.54.07-1.09.1-1.64.13-3.67.25-4.28.22-4.27-.21.02-.8,3.08-3.79,4.24-4.12.75-.21,1.51-.4,2.26-.62.37-.11.75-.23.94-.61.07-.36-.16-.6-.36-.84-.85-1.06-1.01-2.28-.81-3.55.21-1.32.33-2.63,0-3.96-.05-.19.06-.5.21-.62.25-.22.63-.18.87.02,1.39,1.13,2.92,2.13,4,3.58.87,1.16,1.08,2.58.99,4.02-.02.39-.17.77-.17,1.16,0,1.06.25,2.05,1.26,2.6.9.48,1.81.9,2.61,1.56.78.65,1.17,1.62,1.85,2.4.52-.59.09-.99-.12-1.34-.75-1.28-1.57-2.53-2.34-3.8-.48-.79-.35-1.15.47-1.36.23-.06.47-.06.69-.11.94-.23,1-.24.88-1.27-.2-1.79.68-3.34,1.1-4.99.23-.9,1.18-1.35,2.01-1.43,1.74-.16,2.66-1,2.88-2.71.04-.28.28-.55.47-.8.26-.35.64-.46,1.04-.32.29.1.58.26.8.47.66.61,1.36.61,2.17.33.73-.26,1.51-.4,2.27-.61,2.25-.61,4.36-.25,6.26,1.07,1.14.79,2.42,1.06,3.73,1.27.56.09.94-.34.77-.86-.59-1.79-1.31-3.52-2.25-5.15-.8-1.38-1.78-1.82-3.33-1.55-.77.13-1.53.33-2.29.48-.38.07-.78.14-1.16.13-.95-.04-1.54-.55-1.83-1.51-.47-1.51-.79-1.81-2.17-1.9-.38-.02-.77.08-1.16.1-.49.03-.78-.09-.45-.64.22-.37.3-.73-.06-1.05-.31-.27-.7-.39-1.09-.29-.53.14-1.03.38-1.55.52-.46.13-.94-.29-.94-.79,0-.23.05-.46.08-.7.24-2.15-.64-3.77-2.59-4.7-.86-.4-1.66-.88-2.39-1.47-.75-.61-1.56-.96-2.55-1.08-.84-.1-1.66-.42-2.48-.67-.11-.03-.23-.23-.24-.35-.01-.12.09-.28.19-.37.11-.1.28-.14.43-.18,2.01-.62,4.02-1.24,6.04-1.86.88-.27,1.07-.9.47-1.56-.56-.62-1.26-.92-2.07-.98-1.25-.09-2.5-.17-3.73.19-.9.26-1.81.51-2.71.75-.83.23-1.66.39-2.7.18,3.1-1.62,6.07-3.02,9.46-2.73.26-.55-.09-.66-.33-.8-.71-.41-1.23-.97-1.46-1.76-.31-1.08-1.13-1.41-2.14-1.49-2.02-.17-4.05-.35-6.07-.54-.3-.03-.62-.08-.89-.21-.23-.11-.28-.46-.07-.58,1.29-.75,2.63-1.38,4.2-1.01.84.2,1.67.44,2.51.58,1.03.17,1.63-.54,1.37-1.57-.08-.34-.34-.58-.67-.54-.62.07-1.22.25-1.84.34-1.54.21-2.95-.12-4.2-1.06-.16-.12-.31-.4-.28-.59.02-.18.26-.45.43-.48,1.33-.18,2.59-.5,3.74-1.23.41-.26.9-.21,1.37-.06.45.15.88.33,1.34.43.52.12.92-.11,1.13-.6.1-.21.16-.44.24-.66.55-1.59.88-1.7,2.17-.55,1.04.94,2.11,1.86,2.9,3.05.48.71.78.71,1.59.29.21-.11.39-.27.59-.39.34-.22.72-.37,1.07-.05.45.41.23.87-.03,1.26-.43.65-.9,1.28-1.35,1.92-.32.46-.25.88.17,1.23.6.51,1.23.96,2.01,1.17.53.14,1.09.22,1.57.47,1.95,1.04,3.5.26,4.82-1.12.83-.86,1.76-1.54,2.74-2.19.13-.09.27-.18.41-.21.13-.03.33-.02.42.06.09.08.14.3.1.41-.19.42-.34.94-.67,1.21-.97.76-1.47,1.8-1.97,2.87-.84,1.79-1.84,3.43-3.57,4.54-.58.37-1.04.95-1.47,1.5-.49.62-.46,1.32-.01,1.96.46.65,1.05,1.16,1.77,1.51.35.17.73.28,1.09.42,2.52.94,2.55,1.21,3.98-1.38.85-1.55,1.76-3.17,3.58-3.89.23-.09.39-.29.29-.55-.05-.13-.19-.25-.32-.32-.79-.42-1.67-.36-2.52-.42-.58-.04-1.16-.09-1.87-.14.58-.7,1.24-.67,1.82-.82.83-.22,1.68-.38,2.51-.6.44-.11.72-.47.52-.88-.8-1.63-.64-3.36-.62-5.07.02-1.42-.14-2.79-.52-4.17-.7-2.55-.62-5.09.34-7.59.45-1.16,1.03-2.28,1.2-3.55.04-.29.2-.61.41-.82.43-.44.39-1.22,1.06-1.47.75.59.19,1.3.09,1.89-.3,1.85-.73,3.68-1.12,5.51-.08.38-.21.76-.27,1.14-.16,1.15-.3,2.3-.46,3.59.62-.61,1.14-1,1.94-.82.53.12,1.09.03,1.64.09,2.02.22,3.64,1.11,4.25,3.15.37,1.23,1.16,1.76,2.27,2.1,1.27.39,2.54.81,3.78,1.29,1.66.64,3.39,1.13,4.78,2.46.19-.32.34-.5.4-.7.38-1.2.38-1.21,1.41-.62.68.38.94.29,1.16-.46.15-.52.28-1.06.38-1.6.15-.84-.09-1.18-.97-1.2-3.77-.08-6.27-2.11-8.01-5.24-.77-1.38-1.75-2.59-2.64-3.87-.07-.1-.07-.32-.01-.43.06-.11.24-.2.38-.2,3.06-.01,6.08.4,8.98,1.36,1.64.54,3.03,1.56,4.04,3.06,1.13,1.67,2.11,1.65,2.67-.25.56-1.9,1.64-3.01,3.34-3.85.96-.47,1.74-1.31,2.59-2.01.7-.58,1.4-.9,2.36-.65,1.46.39,2.74-.02,3.86-1.09,1.55-1.48,3.5-2.34,5.37-3.33,1-.53,2.07-.7,3.18-.63,1.07.07,1.8-.21,2.04-1.41.12-.59.49-1.14.81-1.68.36-.61.51-.6,1.53-.07l-.02-.02c-.21.91-.41,1.83-.64,2.74-.28,1.09-.06,1.97.84,2.72.69.58.63.64.03,1.35-.44.52-.36.8.28.99.22.07.5.02.68.14,1.51.96,2.85,1.18,3.78-.75.06-.13.24-.28.36-.28,1.38.03,2.75-.72,4.14-.05.71.34.9,1.03,1.2,1.66.6,1.27,1.69,1.53,2.84.69,1.14-.83,2.24-1.7,3.37-2.54.52-.38,1.08-.53,1.76-.47,1.39.13,1.39.08,1.79,1.36.02.07.06.15.06.23.2,1.97,1.26,3.05,3.25,3.33,1.25.17,1.99,1.17,2.78,2.03.33.36.77.28.9-.16.23-.75.38-1.52.61-2.26.53-1.72,2.02-2.69,3.76-2.47.63.08,1,.71.63,1.19-.47.62-.99,1.21-1.54,1.76-.98,1-2.04,1.94-3,2.97-1.46,1.57-3.18,2.2-5.29,1.71-.23-.05-.45-.14-.68-.17-.6-.09-.92.16-.93.72,0,.08,0,.16.02.23.31,1.29-.17,2.34-1.1,3.15-2.07,1.81-1.58,2.26-.12,3.98,2.22,2.62,4.33,5.35,6.49,8.02.34.42.7.83,1.08,1.22.08.08.31.1.42.05.12-.05.24-.22.25-.34.15-1.74-.3-3.41-.53-5.11-.03-.25-.3-.4-.53-.35-.37.09-.73.26-1.09.4-.28.11-.63.35-.86.12-.38-.38.03-.72.24-1,.91-1.27,1.85-2.52,2.78-3.78.81-1.1,1.72-2.04,3.19-2.16.14-.01.3-.12.4-.23.1-.1.2-.26.18-.38-.02-.11-.2-.3-.29-.28-1.36.26-2.8-.03-4.08.81-1,.66-2.19.44-3.35.53.04-.33.02-.44.07-.47,1.03-.83,2.05-1.68,3.1-2.48.64-.49,1.44-.57,2.21-.7.61-.1.73-.47.41-1.02-.22-.4-.7-.64-.71-1.17.12-.08.27-.25.36-.22,1.04.32,2.19.16,3.17.72.34.19.67.43,1.03.56,1.16.42,2.24-.3,2.28-1.54.02-.54-.06-1.09-.13-1.63-.08-.64,0-1.25.25-1.83.17-.41.51-.62.93-.5.75.22,1.49.47,2.21.76.62.25,1.19.3,1.8,0,.73-.37.85-.92.25-1.42-1.02-.85-2.04-1.7-3.06-2.56-.98-.82-1.72-1.82-2.25-2.96-.15-.33.04-.65.4-.67.7-.05,1.41-.08,2.11-.03,3.77.27,7.51.68,10.49,3.36,1.23,1.11,2.63.79,4.01.68.34-.03.69-.34.98-.59.59-.51,1.14-1.07,1.72-1.59.52-.48,1.08-.92,1.78-1.11,1.38-.36,2.64-.96,3.85-1.69.48-.29,1.01,0,.98.54-.06.85-.18,1.71-.31,2.55-.08.54-.28,1.06-.35,1.6-.09.73.27,1.24,1.01,1.29.65.05,1.19.06,1.65.64.43.54,1.15.47,1.76.44,2.33-.1,4.24.9,6.03,2.24.58.43.98.94,1.27,1.63.4.96.53,2.19,1.87,2.49.14.03.28.36.31.57.09.57.32,1.03.74,1.43.46.44.35.82-.19,1.09-.43.21-.83.45-.96.96-.13.52-.53,1.13-.19,1.57.47.62.95-.11,1.43-.24.52-.14,1.05-.38,1.58-.4,1.96-.08,3.88-.45,5.81-.78.3-.05.62-.05.93-.04.38.02.63.56.43.9-.08.13-.2.23-.29.35-.16.23-1,.22-.36.73.29.24.74-.07,1.02-.37.28-.31.31-.7.33-1.1.05-1.14-.41-2.14-.91-3.12-.61-1.18-1.27-2.34-.95-3.77.1-.47-.11-.92-.41-1.31-.38-.49-.76-.99-1.14-1.48-.27-.35-.62-.47-1.02-.23-.54.32-1.05.68-1.58,1.01-.53.34-1.05.68-1.59.99-.36.21-.75.21-1.09-.07-.39-.32-.26-.7-.06-1.05,1.85-3.17,4.53-5.33,8.01-6.5,1.22-.41,2.48-.21,3.72-.3.11,0,.29.14.32.25.03.11-.05.33-.15.39-.87.52-1.72,1.09-2.64,1.5-.87.39-1.68.84-2.39,1.46-.83.72-.83,1.37-.04,2.19.33.34.7.63,1.17.73.85.19,1.32.82,1.69,1.51,1.05,1.94,1.84,3.97,1.95,6.21.05,1.01.14,2.03.21,3.04.03.48.18.91.47,1.31.25.34.71.46,1.02.2.54-.46,1.05-.94,1.56-1.42.73-.67,1.57-.98,2.56-.95,2.19.05,4.37.23,6.53.62.31.06.69.06.89.25,1.24,1.13,2.84,1.62,4.25,2.44.41.23.4.68-.02.92-.95.55-1.91,1.07-2.85,1.63-.54.32-.68.81-.53,1.42.24,1.01.79,1.87,1.28,2.75.13.24.44.46.71.55.8.26,1.63.46,2.44.68.53-.82-.42-1.6.14-2.33.47-.61,1.22-.65,1.82-1.01.37-.22.53-.59.53-.99-.05-2.51,1.09-4.51,2.71-6.3.54-.59.84-1.31,1.2-2,.26-.49.79-.59,1.16-.18,1.2,1.33,2.36,2.7,3.53,4.07.3.36.55.76.85,1.12.36.44.82.38,1.13-.14.24-.4.43-.83.65-1.25.17-.33.18-.77.69-.99.28.57-.06,1.05-.27,1.48-.77,1.56-1.3,3.14-1.22,4.94.06,1.3-.55,2.4-1.62,3.23-.86.67-1.66,1.43-2.2,2.4-.29.51-.14,1.06.38,1.08.76.04,1.41.17,1.74.92.4.9.38,1.82.03,2.74-.32.84-.97,1.4-1.65,1.94-.1.08-.2.26-.19.39.02.28.26.37.5.38.47.02.94-.03,1.4.02.49.05,1.22-.55,1.41.15.14.52-.67.74-1.1,1.06-.19.14-.38.28-.52.46-.22.29-.17.61.08.84.71.65,1.62.92,2.5,1.22,1.03.36,2.05.75,3.07,1.16.1.04.19.26.18.39-.02.12-.17.22-.28.32-.05.05-.15.08-.22.06-1.57-.27-2.85.36-4.14,1.18-1.6,1.01-3.43,1.08-5.23.72-1.27-.25-2.45-.43-3.55.44-.17.13-.45.16-.67.16-.67,0-.74.5-.8.95-.08.58.38.89.83.98,1.3.25,2.59.58,3.94.52,1.29-.06,2.46.21,3.43,1.14.28.26.65.43.99.61.46.24.91.21,1.31-.13.36-.3.72-.6,1.03-.96,1.26-1.47,2.91-2.35,4.65-3.08,1.67-.7,1.67-.69,2.44-2.21.27.14.57.25.8.43.67.54,1.41.6,2.22.43.54-.11,1.08-.21,1.62-.26,1.21-.12,1.44.2.98,1.28-.22.5-.46.99-.65,1.51-.16.44-.3.89-.37,1.35-.36,2.31.23,3.38,2.47,4.06,1.21.36,2.37.78,3.45,1.41.87.51.95.8.56,1.71-.41.95-1.09,1.71-1.72,2.5-.27.34-.25.74.03,1.07.25.3.59.54.79.87.69,1.12,1.74,1.2,2.87,1.09.59-.06,1.04-.31,1.22-.92.02-.07.05-.15.08-.22,1.04-2.31,2.48-3.21,4.95-2.96,1.17.11,2.32.37,3.41.82.79.33,1.6.63,2.39.95.57.23.69.56.34,1.09-2,3.07-4.53,5.18-8.5,4.69-.23-.03-.47-.05-.7-.07-.45-.5-.88-1.03-1.96-1.12.68.76,1.34.92,1.97,1.11,1.16.93,2.4,1.2,3.93,1.01,2.33-.29,4.47.38,6.19,2.15.59.61,1.34,1.07,1.99,1.63.26.23.28.61-.02.81-1.76,1.15-3.41,2.55-5.71,2.44-.23-.01-.47.03-.7.08-.52.11-.81.52-.72,1.03.14.82.5,1.48,1.34,1.77,1.11.37,2.23.74,3.34,1.11.52.17,1.03.36,1.54.55.66.26.93.8.97,1.47.01.23.06.48,0,.7-.61,2.39-1.37,4.68-3.94,5.72-.34.14-.77.15-1.02.67.62.62,1.28,1.26,1.92,1.92.09.1.14.29.12.42-.03.27-.26.4-.5.4-.54-.01-1.09-.05-1.62-.13-.62-.09-1.23-.25-1.84-.33-1.07-.14-1.25-.02-1.58.91-.16.44-.26.9-.42,1.34-.45,1.28-.45,1.28-.09,2.56-.56.1-.82-.36-1.14-.66-1.3-1.24-2.58-2.51-3.87-3.77-.62-.61-1.28-1.14-2.17-1.33-.56-.12-.85.03-1.02.63-.08.3-.09.62-.19.91-.04.11-.21.24-.33.25-.13,0-.29-.1-.38-.21-.1-.11-.14-.27-.18-.42-.44-1.82-.44-1.84-2.39-2.06-1.39-.16-2.55-.57-3.3-1.89-.45-.79-1.84-1.16-2.69-.88-.48.16-.82.55-.82,1.04,0,.7.09,1.4.22,2.09.22,1.18.35,1.25,1.58,1.12.54-.06,1.09-.12,1.63-.18.64-.06,1.23.04,1.76.46.85.68,1.98.93,2.66,1.88.35.48.57.93.26,1.5-.15.27-.29.56-.42.84-.33.7-.26,1.37.16,2,.17.26.36.51.52.78.19.33.55.71.49,1.01-.1.57-.69.95-.75,1.62-.03.31-.53.19-.82.11-1.09-.31-1.35.03-1.7.99-.4,1.11-.78,2.2-.85,3.39-.02.43.33.76.76.67,1.37-.31,2.74-.63,4.11-.97.61-.15,1.2-.36,1.81-.5.44-.1.98-.44,1.33-.08.51.52-.14.98-.31,1.46-.18.51-.56.99-.63,1.51-.35,2.29-1.38,4.3-2.45,6.31-.29.53-.08.89.52,1.02.38.08.79.08,1.15.2,1.44.46,2.63.17,3.5-1.1.48-.7,1.57-.93,1.64-1.89.06-.82-.76-1.33-1.04-2.06-.18-.49-.66-.93-.34-1.51.18-.34,1.07-.11,1.68.4.55.46.97,1.03,1.2,1.71.36,1.11.97,1.87,2.18,2.19,1.19.31,1.89,1.33,2.6,2.28.58.77.6.77,1.72.34.46-.18.86-.09.89.37.14,1.73,1.18,3.24,1.13,5.01-.02.62.44.95,1.01,1.13,1.86.58,3.72,1.18,5.58,1.77,2.11.67,4.05,1.66,5.74,3.1.67.57,1.09,1.32,1.54,2.06.59.99.78,1.04,1.88.61.58-.23,1.15-.5,1.74-.7.5-.17.96.26.84.78-.26,1.14-.52,2.28-.82,3.42-.21.78-.73,1.38-1.27,1.95-.54.57-1.09,1.12-1.61,1.71-.28.31-.37.7-.14,1.08.11.19.31.35.5.45.08.04.31-.07.38-.18.37-.6.75-1.19,1.3-1.65.84-.7,1.63-.79,2.6-.27.85.45,1.18,1.1,1.07,2.13-.06.54-.18,1.08-.22,1.62-.05.72.07,1.41.61,1.95.57.58.88,1.28,1.09,2.05.08.3.14.65.33.87,1.3,1.53,1.28,3.47,1.66,5.28.11.53-.05.89-.62,1.07-1.65.53-3.08.02-3.84-1.57-.42-.88-.98-1.56-1.69-2.2-1.17-1.06-1.83-2.52-2.7-3.81-.13-.19-.18-.43-.3-.64-.31-.54-.93-.9-1.06-.64-.22.41.01.77.21,1.08,1.26,1.99.95,3.89-.42,5.65-.97,1.25-1.22,2.89-2.29,4.07.23,1.18-.89,2.3-.09,3.53.28.44.35,1.03.46,1.56.11.53-.24.89-.81.84-.31-.02-.62-.12-.93-.15-.84-.08-1.4.12-1.41.48-.02.63.58.63.94.88.62.43.64.74.1,1.31-.27.28-.59.51-.84.81-.16.19-.07.46.12.61.18.14.39.26.61.34,1.63.65,2.64,1.85,3.34,3.43.51,1.14,1.16,2.21,1.75,3.31.38.71.13,1.2-.72,1.26-1.48.11-2.97.14-4.45-.08-.39-.06-.77-.14-1.16-.16-.51-.03-.83.37-.77.93.08.82.38,1.49,1.1,1.97.94.63,1.52,1.56,1.98,2.57.3.65.17,1.02-.46,1.34-.35.17-.75.26-1.07.46-1.43.93-2.58,1.89-1.98,3.98.4,1.39.35,2.95-.16,4.4-.05.13-.18.27-.31.32-.24.1-.46-.05-.57-.25-.23-.41-.48-.82-.61-1.26-.3-1-.84-1.85-1.52-2.62-.34-.38-.48-1.17-1.13-.98-.33.1-.5.73-.76,1.12-.35.52-.74.51-1.03-.08-.58-1.18-1.4-2.26-1.54-3.65-.04-.43-.33-.91-.65-1.21-1.05-1-1.04-2.2-.85-3.48.14-.93.26-1.86.3-2.79.03-.54-.06-1.1-.2-1.62-.13-.44-.4-.87-.95-.91-.46-.03-.58.45-.98.76-.49-1.28-.67-2.55-.69-3.85-.02-1.34-.23-2.65-.57-3.94-.06-.22-.15-.44-.6-.48-.17,2.06-1.12,3.97-1.13,6.09,0,1.61-.54,3.07-1.12,4.53-.34.85-.79.98-1.4.4-1.36-1.29-2.74-2.57-4-3.96-.62-.69-1.2-.88-2.04-.65-2.09.56-4.19.44-6.27-.08-.6-.15-.76-.57-.4-1.04.71-.93,1.48-1.83,2.15-2.79.94-1.34,2.16-2.26,3.75-2.64.87-.21,1.59-.54,2.04-1.4.37-.71,1.05-1.17,1.77-1.48,1.23-.53,1.74-1.52,1.89-2.76.09-.77.16-1.56.15-2.33-.01-.69-.61-1.12-1.32-.98-.45.09-.9.26-1.32.46-1.01.49-1.97.34-2.93-.14-.7-.35-1.43-.68-1.95-1.28-1.12-1.27-2.64-1.91-4.03-2.8-.69.5-.41,1.19-.54,1.75-.17.74-.11,1.57-.75,2.15-1.08-.3-.94-1.29-1.15-2.07-.02-.07-.01-.16-.03-.23-.51-2.11-1.42-3-3.69-3.16-.72-.05-.96-.3-1.16-.85-.37-1.04-.66-2.06-.45-3.2.24-1.33-.23-2.63-.34-3.96-.02-.29-.18-.61-.37-.85-.76-.98-1.63-1.83-2.99-2.49.1,1.26.95,2.07.81,3.1-.13,1.01-.3,2.01-.44,3.01-.02.15-.03.35.04.46.62.93.28,1.56-.55,2.14-.37.26-.64.68-.9,1.06-.36.54-.34,1,.2,1.44.75.62,1.25,1.39,1.64,2.26.13.28.28.57.33.87.35,1.91.15,2.12-1.78,1.88-.23-.03-.47-.06-.7-.06-.52,0-.85.32-.85.89,0,1.4.07,2.79.54,4.13-2.79.67-2.77.68-4.22,3.24-.43.76-.9,1.47-.7,2.4.03.14,0,.34-.09.44-1.04,1.16-1,2.57-.96,3.99.01.48-.29.71-.79.44-.81-.44-1.32-.2-1.79.48-.22.32-.5.6-.75.9-.77.93-.79.95,0,1.94,1.66,2.11,2.26,4.43,1.45,7.04-.25.82-.6.99-1.42.65-1.44-.6-2.87-1.25-4.3-1.88-.36-.16-.71-.34-1.07-.49-2.09-.89-2.96-.72-4.58.94-.37.38-.51.98-1.17,1.07-.38.05-.83.13-.86.64-.04.56.6,1.53,1.1,1.66.17.04.48-.09.59-.24.28-.37.43-.84.71-1.21.72-.97,1.62-1.68,2.87-1.88.55-.09,1.08-.09,1.6.15,1.35.62,2.71,1.23,3.93,2.09.57.4,1.15.82,1.78,1.11.52.24.95.49,1.23,1.01.34.66,1.07.89,1.6,1.35.28.25.25.54-.03.79-.11.1-.24.21-.38.27-1.54.66-2.8,1.61-3.76,3.05-.49.74-1.37,1.23-2.1,1.86.43.52.86.97,1.2,1.49.54.82,1.23,1.39,2.18,1.67,1.47.43,2.36,1.4,2.82,2.88.3.96.8,1.86,1.16,2.81.12.33-.09.6-.46.68-.8.17-1.54-.12-2.3-.29-.45-.1-1.06-.4-1.34-.05-.68.83-1.34.84-2.19.37-.09-.05-.42.16-.54.33-.19.24-.26.57-.44.82-.18.26-.46.49-.79.3-.17-.1-.32-.37-.33-.56-.01-.46.08-.93.1-1.4.02-.43-.17-.75-.54-.96-.46-.26-.91-.22-1.32.07-.52.36-.94.83-1.24,1.39-.38.69-.74,1.38-1.15,2.05-.31.51-.37,1-.17,1.56.4,1.1.78,2.21,1.16,3.32.13.37.27.74.37,1.11.23.86-.1,1.25-.93,1.01-1.5-.42-3.04-.73-4.42-1.54-.91-.53-1.17-.34-1.23.8-.04.62-.02,1.25-.06,1.88-.02.31-.12.61-.22.9-.08.22-.24.42-.5.37-.12-.02-.28-.17-.32-.3-.16-.44-.26-.9-.41-1.34-.32-.93-.46-1.02-1.56-1-.23,0-.47.07-.7.07-.48,0-.76-.28-.71-.73.14-1.24.38-2.46.3-3.73-.03-.54.31-1.04.67-1.46.35-.42.74-.81,1.04-1.27.65-1,1.44-1.56,2.72-1.42,1.23.14,1.89-.98,2.79-1.55.67-.43.65-1.22.63-1.92-.04-1.74.09-3.43,1.12-4.94.33-.48-.2-1.09-.83-1.04-.93.07-1.66.41-2,1.35-.08.22-.13.45-.23.66-.33.7-.68.81-1.27.39-.51-.37-.98-.78-1.5-1.13-.52-.36-.93-.16-.96.43-.02.39.08.8,0,1.17-.14.66-.35.14-.55,0-.11-.07-.36-.12-.41-.06-.8.93-1.78,1.73-1.55,3.22.25,1.61-.19,3.25.14,4.88.08.42-.36.75-.77.6-1.54-.58-3.07-.39-4.63-.12-.84.15-1.71.23-2.57.21-1.25-.04-2.11.42-2.57,1.6-.08.21-.26.38-.37.53-.43.08-.62-.18-.8-.44-.6-.88-1.09-.97-1.84-.13-.92,1.04-2.31,1.62-2.96,2.96-.14.29-.51.28-.84.28-.54,0-1.09.03-1.63.1-1.58.23-1.65.23-1.66-1.27-.01-1.2-.33-2.28-.83-3.31-.53.03-.48.41-.53.68-.2,1.09-.63,2.09-1.05,3.11-.42,1.01-.72,2.06-.91,3.15-.15.86-.73,1.39-1.56,1.57-1.16.24-2.33.22-3.48-.09-.6-.16-.88-.7-.65-1.27.2-.51.51-.97.71-1.47.14-.35.23-.74.26-1.12.02-.33-.17-.7-.52-.65-1.56.21-2.68-.66-3.86-1.42-.2-.13-.4-.24-.61-.36-.98-.6-1.83-.6-2.73.29-1.52,1.48-3.48,2.04-5.53,2.32-.55.07-.95-.32-.85-.83.26-1.39.63-2.75,1.3-4,.96-1.79,2.23-2.33,4.28-1.95.69.13,1.39.19,2.09.28-.24.47-.47.94-.32,1.49.06.23.21.45.45.4.19-.04.43-.21.5-.38.3-.71-.21-1.1-.66-1.5-.25-.91-.35-1.83-.3-2.78.02-.35-.31-.53-.66-.46-.3.06-.59.21-.88.31-1.2.39-2.37.3-3.29-.59-.89-.86-1.75-.82-2.75-.3-.48.25-1.02.41-1.53.59-.83.3-1.68.5-2.5.02-.76-.44-1.32-.16-1.89.36-.45.41-.78,1-1.58,1.09-.66-.64-1.15-1.58-2.32-1.69-.96-.09-1.39.12-1.42,1.02-.02.47.01.94.06,1.41.88,8.87,1.9,17.73,3.08,26.56.33,2.48.62,4.97.56,7.48-.06,2.2.35,4.37.6,6.54.5,4.35,1.17,8.68,1.78,13.02.11.75.19,1.52.75,2.27.8-.73,1.17-1.59,1.64-2.38,1.4-2.36,2.7-4.78,3.24-7.51.44-2.22.93-4.44.5-6.74-.1-.53-.06-1.09,0-1.63.04-.39.25-.75.73-.76.36,0,.6.23.7.53.15.44.27.9.32,1.36.37,3.81-.18,7.51-1.64,11.04-1.17,2.82-2.57,5.54-4.49,7.94-.48.6-.68,1.19-.51,1.95.36,1.68.56,3.39.63,5.12.04,1.04.46,1.36,1.5,1.38.39,0,.78-.01,1.17-.07,7.68-1,16.13,2.38,20.39,5.99,3.54,3,6.25,6.56,8.51,10.51,3.38,5.92,6.95,11.72,11.19,17.06,2.98,3.74,6.45,7.02,10.07,10.14,4.16,3.59,8.72,6.62,13.35,9.55.59.37,1.16.79,1.7,1.23.13.11.17.44.11.63-.1.33-.42.5-.74.4-.44-.14-.88-.34-1.27-.58-4.49-2.72-8.83-5.65-12.94-8.93-3.68-2.94-7.05-6.21-10.17-9.72-3.12-3.52-5.82-7.37-8.28-11.37-1.68-2.73-3.23-5.54-4.92-8.27-2.15-3.47-4.52-6.76-7.8-9.3-3.46-2.68-7.28-4.52-11.64-5.24-2.02-.34-4.04-.45-6.07-.4-.62.02-1.25.1-1.85.25-.73.18-.92.91-.38,1.45.94.94,1.91,1.84,2.73,2.9,2.69,3.43,4.56,7.3,6.13,11.31,1.8,4.59,3.27,9.3,4.2,14.16.6,3.15,1.11,6.31,1.44,9.5.57,5.6.83,11.22,1.02,16.85.1,2.81.36,5.62.37,8.43,0,.55.02,1.1-.04,1.64-.1.92-.59,1.42-1.49,1.52-.38.04-.78.02-1.16-.04-.6-.09-1.02-.48-1.09-1.07-.09-.77-.1-1.56-.1-2.34-.02-6.1.16-12.21-.08-18.31-.42-10.85-2.26-21.46-6.47-31.55-.94-2.24-2-4.42-3.26-6.5-.41-.66-.9-1.28-1.39-1.89-.24-.3-.57-.54-1.01-.48-.46.06-1,.57-1.08,1.11-.06.38-.04.78-.01,1.16.25,3.12.52,6.23.77,9.35.15,1.8.44,3.57.9,5.31.69,2.67,1.01,5.36.94,8.13-.08,2.81-.02,5.62.39,8.43.3,2.01.29,4.05-.34,6.04-.51,1.63-1.48,2.46-3.22,2.55-2.13.1-4.2-.33-6.27-.77-1.61-.34-3.21-.69-4.83-.97-1.18-.21-1.61.15-1.71,1.31-.05.62-.04,1.25-.03,1.88.08,4.22.04,8.44.43,12.66.26,2.8.14,5.63.14,8.45,0,6.73-.01,13.46-.09,20.19-.03,2.89-.24,5.78-.37,8.67-.01.23-.06.47-.16.68-.05.11-.22.23-.35.24-.12,0-.35-.09-.37-.18-.11-.37-.21-.75-.21-1.13-.01-1.56.02-3.13.02-4.7,0-8.92-.03-17.84,0-26.76.01-3.92-.46-7.81-.67-11.71-.13-2.34-.2-4.69-.26-7.03-.02-.7-.04-1.41-.04-2.11,0-.77-.27-1.39-1.01-1.7-1.42-.58-1.43-1.65-1.16-2.92.65-3.06,1.23-6.14,1.87-9.2.21-1,.32-2,.31-3.03-.04-3.44.13-6.88-.28-10.32-.17-1.45.19-2.96.25-4.44.1-2.42.04-4.86.86-7.19.1-.29.1-.62.1-.93.01-1.11-.59-1.63-1.63-1.32-5.04,1.54-10.27,2.06-15.46,2.74-5.59.74-11.23.79-16.87.53-2.19-.1-4.38-.41-6.46-1.1-2.53-.85-5.07-.8-7.65-.51-1.01.11-2.03.23-3.04.21-4.07-.07-8.14.19-12.18.58-4.75.46-9.48,1.05-14.09,2.37-4.64,1.33-8.92,3.37-12.63,6.5-3.05,2.57-5.36,5.69-6.84,9.39-1.17,2.91-2.02,5.92-2.14,9.09-.07,1.79-.49,3.57-.36,5.38.23,3.12.46,6.24.69,9.36,0,.08.02.15.04.23.35,2.12-1.06,2.52-2.78,2.13-.41-.09-.65-.45-.72-.85-.1-.61-.18-1.24-.18-1.86,0-3.29-.11-6.58.05-9.86.22-4.54.77-9.04,2.41-13.34,2.1-5.5,5.51-9.96,10.34-13.33,3.5-2.45,7.34-4.17,11.45-5.27,3.86-1.03,7.79-1.68,11.76-2.12,5.29-.59,10.59-.87,15.91-.91,2.18-.02,4.37-.3,6.54-.55.68-.08,1.35-.39,1.99-.67,3.71-1.65,7.65-2.28,11.65-2.44,3.98-.15,7.98-.11,11.97.02,2.89.09,5.76.45,8.64.71,2.34.22,4.68.22,7.02.54,1.79.24,2.88-.73,2.98-2.5.22-3.6.21-7.19-.09-10.79-.5-6.08-1.32-12.13-1.33-18.24,0-3.52-.23-7.03-.41-10.55-.07-1.32-.3-2.64-.46-3.96-.54-4.58-.77-9.19-1.02-13.8-.3-5.54-.79-11.08-.93-16.63-.01-.47-.07-.94-.17-1.39-.14-.67-.55-1.05-1.26-1.21-2.13-.47-2.11-.49-.93-2.3.51-.78.98-1.59,1.51-2.46-.49-.66-1.3-.46-1.9-.75-.6-.3-1.2-.29-1.74.2-.1.09-.32.13-.44.08-.86-.38-1.5,0-2.14.52-.41.35-.89.83-1.44.43-.64-.45-1.23-1.05-.93-1.97.37-1.16-.15-2.15-.56-3.16-.21-.53-.55-.57-1.02-.09-.22.22-.41.64-.71.5-.92-.43-1.66.11-2.47.31-1.08.27-1.54-.08-1.71-1.27-.02-.15-.04-.31-.03-.47.08-1.08-.47-1.73-1.36-2.26-.63-.38-.61-.86-.05-1.31.55-.44,1.14-.82,1.68-1.27.42-.35.44-.98,0-1.2-1.67-.82-3.31-1.78-5.33-1.11-1.71.57-3.44,1.04-5.17,1.55-.37.11-.75.24-1.13.32-.68.14-1.12-.3-.89-.93.49-1.32.85-2.7,1.64-3.88.49-.73.59-1.35-.01-2.11-.39-.49-.19-.8.41-1.07.55-.25,1.22-.24,1.66-.73-.07-.52-.53-.53-.86-.69-.52-.25-1-.48-.74-1.21.18-.49-.06-.92-.29-1.33-.72-1.3-1.44-2.6-2.15-3.9-.7-1.27-.81-1.33-2.19-1-.38.09-.76.21-1.14.25-.21.02-.62-.06-.64-.14-.2-1.28-1.79-1.16-2.21-2.23-.18-.47-.66-.65-1.13-.74-.42-.08-.82,0-.94.45-.73,2.7-2.93,3.93-5.14,5.14-.64.35-1.12.06-1.14-.59-.02-.6.42-1.26-.1-1.8-.52-.53-1.26-.58-1.95-.69-.69-.11-1.51-.53-2.05-.3-1.4.61-1.96-.06-2.52-1.14-.29-.58-.9-.67-1.11-.23-1.12,2.34-3.41,2.8-5.53,3.55-.58.2-1.22.28-1.84.32-.31.02-.66-.23-.58-.58.39-1.83.48-3.74,1.31-5.45.61-1.27,1.72-1.96,3.07-2.35,1.11-.32,1.11-.38.66-1.45-.15-.36-.33-.71-.46-1.08-.25-.72-.76-1.16-1.46-1.42-.96-.36-1.83-.88-2.67-1.46-.64-.45-1.27-.91-1.73-1.56-.41-.59-.92-1.09-1.62-1.29-.83-.24-1.03-.88-1.14-1.6.55-.34.89-.86,1.15-1.43.84-1.84,1.98-3.34,4.08-3.85.23-.06.38-.32.29-.55-.08-.2-.26-.43-.45-.49-.44-.13-.91-.15-1.37-.23-.97-.18-1.74-.63-2.11-1.62-.1-.27-.09-.63-.49-.78-.6,2.33-1.31,4.63-1.01,7.1.07.61-.05,1.24-.09,1.86ZM259.58,144.32c-.38-.42-.68-1.07-1.55-.52.6.19,1.09.35,1.57.5.37,1.14,1.32,1.56,2.35,1.88-.44.87-1.27,1.34-1.96,1.96-.92.83-1.82,1.69-2.66,2.6-.45.48-.29,1.22.27,1.9.27.32.83.63,1.43.07.54-.51,1.04-.6,1.64-.11,1.08.89,2.36.59,3.59.57.85-.02,1.16-.52.69-1.23-1.07-1.63-1.85-3.39-2.57-5.2-.08-.21-.29-.36-.44-.54-.52-.95-1.42-1.43-2.35-1.88ZM166.15,19.41c.27.23.53.48.83.69.07.05.24-.05.37-.09-.05-.12-.08-.31-.16-.33-.35-.11-.71-.17-1.06-.24-1.86-.82-3.5-1.99-4.98-3.37-1.14-1.06-2.03-.77-3.09.08-.44.36-.66.86-.69,1.42-.05.86.05,1.7.29,2.53.36,1.27.6,1.45,1.78,1.01,1.74-.65,3.64-.77,5.33-1.62.38-.19.91-.05,1.38-.07ZM59.56,50.88c-.65-.22-1.23-.05-1.78.31-.58.39-1.13.88-1.78,1.12-1.13.42-1.54,1.09-1.43,2.32.16,1.8-.53,3.36-1.74,4.7-.26.29-.56.56-.78.87-.67.93-.4,1.86.64,2.25.29.11.6.19.9.26,3.05.69,6.1,1.37,9.15,2.04.61.13,1.26.21,1.84-.1.76-.41,1.51-.83,2.21-1.33.71-.51.79-1.29.29-2.07-.21-.33-.47-.62-.72-.93-1.38-1.7-2.79-3.37-4.13-5.11-1.04-1.36-2.19-2.66-2.69-4.36,1.3.76,2.17,2,3.23,3.03.89.87,1.58,2.06,3.08.98.2-.14.6.03.91.02.46-.02.94,0,1.38-.11,1.53-.35,1.92-1.09,1.38-2.52-.33-.88-.84-1.25-1.77-1.21-.46.02-.93.1-1.38.2-1.28.29-2.47.1-3.58-.61-.33-.21-.67-.44-1.03-.52-.87-.2-1.72-.22-2.2.77ZM97.64,53.4c-1.27,1.75-1.3,4.18-3.11,5.63-.11.09-.19.26-.22.4-.03.14-.01.32.06.43.08.11.26.18.4.2.71.08,1.12-.45,1.63-.79,1.18-.8,2.35-1.12,3.67-.16,1.07.77,1.31.65,1.89-.58.91-1.9,2.1-3.66,2.82-5.66.16-.43.46-.82.7-1.21.13-.21.36-.36.59-.25.19.09.39.28.46.47.3.81.49,1.65.26,2.53-.16.61-.29,1.22-.42,1.83-.32,1.54-.32,1.67,1.21,2.23,1.8.65,2.56,1.94,2.68,3.74.03.39.02.78.05,1.17.02.23.05.48.17.67.11.18.33.39.51.4.17.01.48-.2.51-.36.2-.99.45-2,.47-3,.04-1.69.83-3.17,1.19-4.76.11-.48.53-.76,1.06-.78.57-.02,1.01.32,1.17.94.3,1.2.58,2.4.93,3.85,1.12-.65,2.3-.5,3.45-.63.46-.06.93-.15,1.37-.29,1.2-.39,2.42-.56,3.68-.68.98-.1,1.85-.25,2.56.6.07.08.35.1.42.03.15-.15.34-.38.31-.55-.18-1.24-.46-2.46-.6-3.7-.18-1.57-.52-3.08-1.1-4.55-.31-.8-.61-1.61-.87-2.43-.22-.68-.2-1.32.15-2.03.9-1.82.64-3.76-.3-5.4-1.31-2.3-3.04-4.36-4.76-6.39-.57-.68-1.29-.83-2.11-.46-.28.13-.57.27-.87.35-1.86.48-3.71.53-5.53-.17-.44-.17-.49-.57-.14-.92,1.27-1.3,2.9-1.78,4.63-2.07.36-.06.81.05.97-.45-.11-.57-.53-.95-.86-1.37-.48-.61-1.02-1.18-1.54-1.77-.68-.78-1.43-1.39-2.52-1.57-1.06-.17-1.81-.89-2.35-1.8-.2-.34-.4-.68-.55-1.04-.3-.74-.81-1.14-1.61-1.11-1.37.06-2.63-.23-3.78-1.01-.46-.32-.91-.07-1.22.33-.24.31-.41.66-.64.98-.42.59-.95,1.03-1.66,1.24-.07.02-.2.02-.23-.02-.08-.12-.2-.31-.16-.39.21-.41.48-.8.71-1.2.4-.67.44-1.3-.15-1.92-.63-.68-1.2-1.43-1.81-2.16.13-.23.29-.41.36-.62.81-2.31.56-2.7-1.88-2.91-.16-.01-.31-.04-.47-.05-.39-.03-.83-.13-1.11.2-.48.58-.9,1.22-1.34,1.84-.03.04.03.15.06.22.11.37.64.47.61.84-1.14,1.67-2.83,2.58-4.46,3.45-1.69.91-3.71,1.07-5.47,1.9-.13.06-.42-.13-.59-.26-.06-.05-.02-.31.05-.43.39-.66,1.14-1.12,1.16-1.99.03-1.26.84-1.95,1.81-2.55.46-.29,1-.52,1.24-1.04.2-.42.39-.97.12-1.35-.39-.55-.81,0-1.19.18-.35.16-.68.39-1.04.53-1.55.61-2.98.75-4.29-.65-.93-.98-1.6-.94-2.68-.16-.38.27-.7.62-1.07.91-.63.5-.72,1.04-.54,1.85.51,2.29,1.03,4.61.61,6.96-.19,1.05-.02,1.8.72,2.54.44.43.36.84-.23,1.07-1.17.46-1.91,1.28-2.48,2.36-.68,1.3-1.74,2.19-3.15,2.66-.44.15-.89.33-1.28.58-.7.45-1.05,1.27-.77,2.04.42,1.18.91,2.33,1.42,3.47.14.32.52.35.82.22.5-.22,1.03-.43,1.44-.77.75-.63,1.62-.93,2.52-1.2.67-.21,1.38-.36,2-.68,1.65-.86,3.17-.57,4.64.4.46.3.96.56,1.34.94.69.69,1.42,1.2,2.41,1.33.35.05.88.11.75.65-.04.17-.51.3-.8.33-1.77.17-3.5.55-5.34.1-1.5-.37-3.11-.12-4.56.66-1.32.72-2.75,1.1-4.22,1.37-.85.16-1.69.22-2.56.13-.61-.06-.95.5-.76,1.12.02.07.05.15.09.21.93,1.35.59,2.67-.07,3.99-.17.35-.31.72-.54,1.02-.38.51-.35,1.07-.11,1.56.85,1.79,2.43,2.78,4.14,3.59.25.12.61-.02.92-.05,1.43-.12,2.57-.6,2.94-2.19.12-.52.44-1,.67-1.49.3-.64.6-1.34,1.22-1.69,1.52-.85,2.48-2.1,2.99-3.73.02-.07.09-.13.15-.18.22-.16.44-.1.6.09.33.38.45.85.37,1.32-.19,1.23-.31,2.5-.69,3.67-.77,2.38-1.53,4.77-2.84,6.93-.32.53-.56,1.12-.75,1.71-.14.42.14.74.47.99.27.2.57.27.88.11.28-.14.55-.31.78-.51,1.39-1.15,3.02-1.14,4.68-1.02.33.03.47.42.27.71-.47.64-1.08,1.12-1.72,1.57-.44.31-.87.67-1.25,1.05-.31.31-.36.73,0,1.04,1.43,1.22,2.87,2.42,4.32,3.61.24.19.69-.06.7-.37.03-.61-.32-1.2-.05-1.84.82-1.95,1.51-3.95,3.12-5.45.57-.53,1.25-1.07,1.53-1.76.7-1.72,2.18-2.57,3.73-3.5ZM199.69,50.79c-.78.61-1.25,1.51-1.82,2.34-.78,1.12-1.8,1.94-3.11,2.38-.51.17-1.17.09-1.51.56-.45.62.38.92.49,1.42.18.8.15,1.56-.29,2.26-.21.33-.48.61-.75.89-.32.33-.39.67-.08,1.03.68.75,1.34,1.52,2.08,2.2.33.31.5.57.35.98-.19.49.36,1.09-.23,1.52-.16,0-.32,0-.47,0-1.07-.06-1.44.12-1.66.81-.19.59,0,1.06.82,1.48,1.27.64,2.42,1.41,3.39,2.46.15.17.38.28.58.4.74.44,1.36.32,1.81-.4.29-.46.5-.97.7-1.48.6-1.53,1.18-3.06,1.76-4.6,1.4-3.65,2.8-7.3,4.18-10.95.33-.87.6-1.78.83-2.68.11-.45.09-1.07-.37-1.27-1.06-.45-1.58-1.55-2.49-2.03-1.49-.79-2.75-1.75-3.75-3.1-.34-.46-.91-.39-1.15.11-.34.7-.62,1.43-.92,2.15-1.07,2.62-.87,2.58,1.44,3.23.05.01.07.12.17.29ZM186.63,42.04c-.26.05-.81.11-1.32.27-1.63.53-3.25,1.11-4.88,1.66-.46.16-.84.42-1.09.84-1.85,3.16-2.29,2.02.6,4.51.41.36.83.79,1.32.96,1.46.5,2.05,1.84,2.97,2.86.22.24.37.56.05.8-.15.11-.45.1-.65.04-.62-.19-1.04-.65-1.5-1.08-.56-.53-1.13-1.14-1.81-1.46-1.87-.86-3.47-2.1-5.04-3.39-.75-.61-1.64-.89-2.57-1.08-.53-.11-.91.12-1.17.56-.31.53-.31,1.26-.86,1.64-1.21.84-1.45,2.18-1.83,3.44-.37,1.23-.15,1.78,1,2.24.53.21.93.46,1.32.86.45.46.86.38,1.09-.18.58-1.39,1.43-2.6,2.35-3.77.23-.3.48-.66.95-.47.34.13.38.46.43.77.13.85.07,1.74.56,2.5.75,1.18,1.39,2.48,2.37,3.44.78.76,2.12.21,3.17.5.08.02.15.03.23.05,1.27.27,1.32.4.65,1.69-.14.27-.27.56-.31.86-.04.26.19.42.45.43.42.03.81-.14.99-.5.27-.56.51-1.14.65-1.74.59-2.5,1.15-5.02,1.7-7.53.08-.37.07-.78-.02-1.15-.26-1.08,0-2.03.68-2.86.94-1.15,1.14-2.56,1.4-3.93.22-1.14-.4-1.76-1.87-1.78ZM161.07,43.75c-1.94.42-2.94,1.44-4.08,2.25-.7.5-1.03,1.12-1.09,1.96-.08,1.25-.23,2.49-.33,3.73-.02.23.02.46.06.69.04.26.53.46.77.32.2-.12.41-.24.56-.41,2.34-2.52,4.67-5.04,7-7.57.22-.24.31-.53.19-.86-.46-1.23-.9-2.47-1.38-3.7-.11-.27-.1-.46.15-.58.7-.32.57-.83.34-1.37-.56-1.37-1.1-2.76-1.3-4.24-.1-.74-.11-.74,1.07-1.22-.6-.94-1.39-1.68-2.26-2.32-.71-.52-1.27-1.14-1.68-1.92-.22-.41-.46-.82-.75-1.19-.69-.89-1.54-.95-2.42-.19-.43.37-.64.77-.59,1.42.12,1.29-.08,1.5-1.2,1.86-.52.16-1.07.23-1.59.38-.98.26-1.24.61-1.34,1.64-.11,1.13.27,2.15.56,3.2.3,1.08,1.01,1.47,2.06,1.54,1.34.09,1.68-.13,1.89-1.44.22-1.39.44-2.77.7-4.15.06-.34.08-.8.76-.91.03,1.42.07,2.81-.07,4.21-.22,2.09-.44,4.19-.62,6.29-.14,1.58.32,2.06,1.99,2.16.69.04,1.4-.12,2.61.42ZM47.34,55.81c.66-.25.68-.76.78-1.19.33-1.47,1.05-2.77,1.69-4.11.27-.57.59-1.19,1.19-1.39,1.14-.38,1.76-1.23,2.31-2.2.19-.33.44-.74.89-.52.29.14.27.55.24.85-.05.39-.14.77-.23,1.14-.2.76-.3,1.54-.24,2.32.03.38.06.87.47,1,.56.19.6-.35.68-.71.16-.68.63-1.07,1.2-1.35.92-.44,1.85-.83,2.78-1.24.31-.14.59-.33.48-.69-.25-.84.15-1.14.91-1.23.66-.08.92-.54.98-1.14.06-.58-.39-.77-.81-1-2.01-1.09-3.3-2.52-2.75-5.08.33-1.52-.55-2.58-2.09-2.78-.92-.12-1.91-.2-2.8,0-2.99.67-3.06.56-3.15,3.86,0,.23.04.47.09.7.16.79.03,1.55-.14,2.32-.39,1.81-1.13,3.44-2.61,4.6-1.23.96-.91,2.59-1.78,3.69-.1.12.02.46.11.67.54,1.19,1.04,2.41,1.78,3.47ZM60.07,77.24c.44-.62.74-1.06,1.06-1.5.2-.27.33-.54.06-.82-.5-.52-.13-.84.27-1.1.84-.54,1.85-.85,2.25-1.93.07-.2.52-.35.8-.37,2.06-.1,3.99-.77,5.94-1.29.69-.18,1.84.08,1.91-.96.08-1.19-1.14-1.1-1.9-1.29-4.62-1.18-9.26-2.27-13.87-3.45-1.47-.38-2.93-.4-4.42-.36-.92.03-1.19.36-.86,1.16.92,2.24,1.88,4.46,2.86,6.68.19.42.46.85.8,1.14,1.6,1.35,3.1,2.85,5.08,4.08ZM125.94,31.79c-.01-.13,0,.11.03.34.49,3.48.98,6.95,1.48,10.43.1.7.2,1.39.34,2.08.11.56.5.8,1.02.68,1.13-.25,2-.79,2.43-1.95.79-2.12,1.62-4.23,2.45-6.33.31-.79.3-1.42-.33-2.13-.8-.92-.67-1.61.25-2.38.47-.4,1.03-.69,1.57-1,.49-.28.91-.61,1.14-1.13.41-.93.71-1.9.81-2.92.04-.36-.2-.59-.55-.59-.31,0-.63.03-.93.1-1.06.26-1.43.79-1.27,1.86.07.46.24.91.29,1.37.02.2-.06.53-.2.6-.35.19-.58-.11-.72-.39-.32-.63-.58-1.28-.9-1.9-.62-1.21-.78-1.28-1.99-.96-.38.1-.74.28-1.12.34-1.32.18-2.25,1.02-3.19,1.85-.5.44-.72,1.01-.64,2.04ZM149.45,37.7s.36-.01.67-.08c.52-.11.83-.45.82-.99-.01-1.95-1.95-4.73-3.72-5.31-.76-.25-1.58-.32-2.29.07-1.23.66-2.49,1.31-3.6,2.15-1.34,1.02-2.76,1.77-4.44,1.9-.98.08-1.59.57-1.93,1.45-.85,2.18-1.68,4.37-2.51,6.57-.11.28-.14.61-.15.91-.01.25.16.45.4.51.14.03.32.02.44-.05.64-.37.93-1.05,1.31-1.63.75-1.14,1.78-1.46,3.04-1.16.61.14,1.2.34,1.8.53.73.24,1.4.19,1.91-.44.5-.61.52-1.29.18-1.98-.55-1.11-.75-2.4-1.68-3.33-.14-.14-.23-.48-.15-.63.16-.33.53-.24.83-.2,1.23.16,2.12.89,2.97,1.73.83.81,1.04.81,1.91-.05.58-.58,1.13-.8,1.86-.41.64.34,1.33.45,2.3.42ZM124.75,276.43c-1.27-.08-2.51-.14-3.74-.24-2.87-.23-5.74-.58-8.62-.71-4.29-.19-8.58-.22-12.87-.02-2.89.13-5.73.64-8.51,1.47-.36.11-.69.33-1.03.52-.06.03-.12.14-.1.19.04.13.1.32.2.37.28.13.58.23.88.31,3.36.81,6.83,1.05,10.22.93,3.73-.13,7.48-.13,11.21-.62,3.79-.5,7.57-1.05,11.34-1.66.36-.06.79-.07,1.03-.53ZM165.36,129.84c-.07.66.34,1.04.98.76,2.27-1.01,4.65-1.85,6.55-3.56.49-.44.97-.7,1.65-.71,1.43-.03,2.25-.88,2.72-2.17.54-1.47,1.15-2.9,1.71-4.36.14-.36.25-.74.33-1.12.12-.53-.3-.96-.81-.83-.53.14-1.03.43-1.56.5-1.44.19-2.68.74-3.78,1.69-.73.63-1.65.86-2.62.87-.86,0-1.72,0-2.58,0-.44,0-.69.22-.83.65-.87,2.68-1.28,5.47-1.78,8.29ZM166.6,26.94c-.08,1.48.21,2.48,1.02,3.31.39.4.39,1.01.34,1.56-.04.47-.15.93-.18,1.39-.09,1.28.15,2.49.82,3.58.1.16.4.33.56.29.18-.04.37-.29.44-.48.1-.29.19-.63.12-.91-.3-1.27-.11-2.47.39-3.65.22-.52.25-1.11-.14-1.56-.64-.73-.33-1.26.24-1.79.17-.16.38-.31.47-.51,1.14-2.44,1.45-4.16-1.51-4.82-1.67-.37-3.3-.97-4.48-2.36-.37-.44-.87-.27-1.25.08-.99.89-2.04,1.69-3.16,2.4-.51.32-.9.85-1.28,1.34-.54.69-.45,1.09.3,1.5,1.23.67,2.49,1.29,3.72,1.97.82.45,1.19,1.45,2.12,1.79.95-.67.17-1.97,1.45-3.12ZM237.51,90.23c.29-.04.72,0,1.04-.18,1.05-.57,1.95-1.32,2.11-2.61.12-.93.22-1.86.3-2.79.07-.81-.28-1.39-1.02-1.63-.44-.14-.92-.21-1.38-.21-1.18,0-2.32-.13-3.43-.61-.34-.15-.76-.15-1.14-.13-.2.01-.43.18-.57.34-.17.2-.09.45.09.63.27.28.6.51.84.8.64.79.97,1.61.17,2.51-.14.16-.24.4-.28.62-.08.41.42.98-.22,1.22-.46.18-.88-.22-1.31-.36-.51-.17-1.07-.22-1.58-.38-1-.31-1.83-.03-2.61.59-.78.62-1.7,1.09-2.2,2.02.59,1.19,1.87.88,2.82,1.27.42.18.91.25,1.37.28.94.05,1.85.17,2.74.5.92.35.96.27,1.11-.74.17-1.17.57-1.52,1.65-1.41.46.05.92.16,1.49.27ZM159.84,129.78c1.03.2,1.54.8,2.13,1.28.6.5,1.18.36,1.48-.36.71-1.67,1-3.44,1.17-5.22.08-.8-.39-1.16-1.17-.96-1.28.33-2.55.72-3.83,1.03-.56.14-.89-.14-.82-.78.02-.14-.02-.33-.11-.41-.06-.06-.31-.01-.39.07-.51.59-1,1.19-1.5,1.79-1.68,2.05-3.37,4.09-5.04,6.14-.37.45-.19.9.35,1.08,2.02.67,3.96.42,5.93-.31,2.21-.82,2.23-.75,1.8-3.36ZM119.96,135.96c.03-.81.12-1.74.1-2.66-.04-2.02-1.4-3.3-3.42-3.28-.55,0-1.1-.07-1.64,0-.77.11-1.65.14-2.25.55-2.12,1.47-3.76,3.3-3.53,6.16.04.51.24.92.68,1.16.91.5,1.9.71,2.94.63.79-.06,1.17-.71,1.64-1.23,1.22-1.36,2.68-1.82,4.44-1.25.3.1.59.19,1.05-.08ZM168.35,50.7c.13-.99-.12-1.52-.63-1.96-.7-.62-1.45-1.2-2.05-1.9-.9-1.05-1.29-.95-2.22.08-1.25,1.39-2.49,2.78-3.72,4.19-.67.76-1.32,1.54-1.93,2.34-.64.84-.3,1.68.76,1.9.37.08.81.15,1.15.03,1.01-.36,2.03.1,2.99-.1,1.2-.25,2.12.21,3.1.68.31.15.65.04.8-.27.81-1.69,1.32-3.49,1.75-4.98ZM53.06,29.93c-.03,1.21.37,1.85.88,2.47,1.4,1.69,2.97,3.22,4.55,4.73.46.44.98.83,1.63.86,1.12.04,2.14.37,3.16.77.4.16.81-.21.75-.62-.13-.87-.43-1.66-1-2.34-1.3-1.56-2.55-3.16-3.56-4.94-.27-.47-.65-.89-1.03-1.27-1.01-.98-2.05-1.93-3.08-2.88-.23-.21-.47-.42-.74-.57-.32-.18-.69-.08-.77.26-.33,1.28-.59,2.58-.8,3.52ZM202.68,71.47c.04.13.07.27.11.4,1.7.21,3.4.42,5.1.64.38.05.77.14,1.13.27,1.84.67,1.83.68,1.8,2.6,0,.47-.03.94,0,1.41.02.21.11.47.27.6.2.17.46.04.63-.13,1.06-1.07,2.2-1.96,3.74-2.29.68-.15,1.39-.54,1.45-1.36.06-.77-.54-1.26-1.1-1.7-.12-.1-.26-.17-.41-.22-1.53-.53-2.74-1.51-3.7-2.78-.63-.83-1.35-1.01-2.25-.59-2.26,1.04-4.51,2.09-6.76,3.14ZM102.45,73.87c.9-.75,1.54-1.71,2.62-2.06.57-.18,1.09-.66,1.75-.38.36.15.07.9-.73,1.76-.48.52-.99,1-1.46,1.51-.21.23-.42.47-.56.74-.21.39-.03.75.21,1.08.2.28.49.38.82.31,1.65-.37,2.82-1.61,4.25-2.37.2-.1.34-.58.28-.83-.23-1.06.06-2,.51-2.93.32-.66.1-1.21-.4-1.68-.17-.16-.33-.33-.5-.5-1.07-1.02-1.95-1.17-3.14-.47-.32.19-.6.5-.83.8-.5.64-1.16,1.03-1.88,1.35-.86.38-1.71.74-2.65.91-.45.08-.9.23-1.32.42-.28.13-.46.44-.44.77.02.37.32.56.63.58,1.03.06,1.95.43,2.83.99ZM152.77,117.45c.35-.11.53-.12.62-.21,1.08-1.01,2.11-2.07,3.22-3.06,1.05-.94,1.68-2,1.53-3.47-.1-.98.15-1.86,1.05-2.44.84-.54.83-1.44.93-2.29.04-.33-.09-.67-.42-.75-1.07-.28-2-.85-2.97-1.35-.48-.24-.91-.07-1.22.36-.18.25-.36.51-.5.78-.34.62-.22.94.44,1.3,1.56.84,1.57.85.27,1.83-.68.51-1.42.96-2.12,1.44-.45.3-.93.58-1.35.92-.54.45-.57,1.15-.05,1.64.34.31.75.54,1.13.81.88.63.9.9.69,1.98-.18.89-.97,1.4-1.23,2.5ZM61.98,105.78c.2-.58.35-1.1.56-1.58.23-.54.83-.68,1.22-1.05.11-.1.23-.23.27-.37.28-.94.92-.84,1.68-.67,1.6.35,2.62-.23,3.29-1.77.16-.36-.07-.83-.45-.92-.15-.04-.3-.08-.46-.08-2.61-.05-5.27-.66-7.77.67-.2.11-.45.15-.68.17-.95.08-1.56.61-1.99,1.43-.22.41-.52.78-.74,1.19-.68,1.23-.27,2.23,1.09,2.35,1.32.11,2.61.33,3.97.64ZM139.22,85.82c-.08,0,.16-.05.37.01.25.08.3.33.2.56-.19.47-.64.66-1.04.9-.54.33-.66.84-.54,1.42.06.31.14.61.23.91.18.59.51.76,1.06.57,1.23-.43,2.17-1.11,2.62-2.45.67-2,1.46-3.95,2.2-5.92.3-.8.66-1.6.63-2.48,0-.31-.04-.63-.15-.91-.14-.33-.48-.36-.8-.31-.21.03-.63.15-.51.28.74.77,0,.88-.45,1.06-.88.36-1.8.46-2.75.52-1.33.09-1.37.16-1.37,1.58,0,.31-.1.74.07.9.78.77.2,1.22-.29,1.74-.27.28-.52.58-.75.89-.25.34.01.77.48.79.15,0,.31-.03.78-.07ZM179.97,128.37c.85,1.14,1.88,1.65,3.38,1.28,4.01-.98,8.05-1.88,12.08-2.81.61-.14,1.2-.33,1.72-.7.28-.2.28-.6,0-.78-1.06-.65-2.17-.75-3.37-.46-4.18.98-8.36,1.91-12.54,2.88-.42.1-.96.01-1.25.59ZM151.49,124.87c.06.54.09,1.09.21,1.62.06.26.36.33.57.17.3-.24.55-.55.81-.83,2.34-2.51,4.45-5.25,7.16-7.4.67-.53,1.28-1.15,1.85-1.79.63-.7.39-1.94-.45-2.41-.17-.1-.46-.07-.66,0-.21.07-.4.24-.57.4-2.76,2.77-5.51,5.54-8.28,8.31-.54.54-.73,1.18-.65,1.93ZM50.38,76.18c1.21.08,2.35.31,3.46.72.81.3,1.61.6,2.49.58.21,0,.5-.07.61-.21.16-.21-.03-.43-.22-.59-1.76-1.54-3.55-3.04-5.29-4.61-1.69-1.52-1.84-1.57-3.42-.03-.56.54-1.2.99-1.75,1.54-.28.27-.47.73-.19,1.06.55.64,1.15,1.28,1.83,1.77.45.33,1.05.02,1.58-.1.3-.07.62-.09.89-.13ZM82.78,152.56c-.49-.49-.19-1.19-.43-1.75-.05-.12-.26-.3-.31-.27-.19.09-.43.23-.49.41-.08.28-.11.62-.02.89.29.89.71,1.71,1.31,2.45.61.76.54.97-.17,1.49q-1.08.79-.65,2.01c.18.51.36,1.03.53,1.54.15.46.44.81.81,1.11.33.27.75.45.99.04.8-1.39,1.97-1.9,3.52-1.74.21.02.47-.07.66-.18.19-.11.39-.28.48-.48.16-.33-.03-.63-.32-.77-1.37-.67-2.16-2-3.29-2.94-.31-.26-.54-.56-.59-.97-.06-.44.1-1.07-.48-1.17-.4-.07-.87.23-1.31.35-.07.02-.15-.02-.24-.03ZM193.04,119.73c-1.44.07-2.45.11-3.45.17-1.1.07-1.1.07-1.44,1.32-.18.64-.4.77-.99.44-.99-.55-2.13-.84-2.67-2.09-.3-.7-1.33-.64-1.77-.01-.86,1.23-1.37,2.61-1.73,4.06-.09.37.3.75.71.74.16,0,.31-.02.46-.04,2.38-.4,4.76-.84,7.15-1.19.91-.14,1.62-.52,2.16-1.23.46-.61.91-1.23,1.59-2.16ZM90.47,139.78c-.44.35-.37.86-.51,1.3-.28.93-.17,1.68.82,2.15.92.43,1.34,1.28,1.63,2.2.12.37.19.76.3,1.13.18.6.35,1.2.56,1.79.15.44.29.98.85,1.01.62.03.66-.56.78-.99.12-.45.18-.92.27-1.38.17-.84.22-1.74.55-2.52.64-1.51.5-2.57-1.02-3.52-.79-.5-1.3-1.23-2.43-.92-.54.15-1.21-.15-1.8-.25ZM50.56,86.67c-.04-.28-.23-.44-.46-.48-2.1-.33-4.1-.98-6.05-1.8-.07-.03-.16-.04-.23-.02-.22.06-.52.08-.61.23-.09.14-.03.49.1.62,1.45,1.52,1.89,3.35,1.79,5.4-.05,1.08.21,1.26,1.37,1.49.23.05.46.07.69.13.63.17,1.09-.06,1.35-.63.68-1.49,1.34-2.99,2-4.5.06-.13.03-.3.04-.45ZM88.2,127.92c-1.82,1.36-2.51,3.3-3.44,5.06-.74,1.41-.68,1.7.61,2.44.32.19.58.5.84.79.25.29.44.64.69.93.34.39.86.37,1.22-.02.61-.65.96-1.39.98-2.29.03-.94.14-1.89.71-2.66.55-.75.42-1.35.03-2.12-.4-.78-.97-1.38-1.64-2.14ZM190.51,42.29c1-.99,1.89-1.29,2.7-1.74.33-.18.75-.28.85-.73.06-.27-.58-.59-1.14-.62-1.04-.05-1.85.39-2.36,1.24-.97,1.63-1.41,3.45-1.63,5.31-.04.37.27.56.61.52.3-.04.61-.14.88-.3,1.7-1,3.56-1.55,5.47-1.97.76-.16,1.5-.42,2.22-.69.34-.13.37-.47.17-.77-.73-1.1-1.67-1.52-3-1.09-1.4.45-2.82.81-4.77.83ZM140.41,124.54s0,0-.01,0c0,1.33-.03,2.66.01,3.99.03.77.71,1.08,1.33.63.31-.23.62-.49.82-.81,1.18-1.88,2.02-3.88,2.15-6.13.03-.53-.13-.94-.61-1.15-.94-.39-1.89-.75-2.84-1.09-.39-.14-.82.14-.83.58-.03,1.33-.01,2.66-.01,3.98ZM212.41,136.88c-.02-.53-.24-.87-.59-1.05-1.04-.52-2.09-1.01-3.16-1.48-.46-.2-.96.07-1.03.61-.19,1.38-.35,2.76-.5,4.15-.04.4.12.77.42,1.04.29.26.62.47.91.72.38.33.36.69-.03.93-.52.32-1.22.38-1.54.98-.08.16-.01.44.07.63.04.1.29.22.39.18.5-.2.97-.46,1.47-.67.95-.41,1.48-1.1,1.43-2.16,0-.23,0-.47.01-.7.01-.92.33-1.66,1.18-2.11.27-.15.54-.32.75-.54.14-.15.18-.41.22-.52ZM190.77,64.46c-.99-.6-1.64-.89-2.16-1.33-.79-.67-1.47-1.47-.88-2.63.36-.7.22-1.37-.04-2.03-.29-.76-.14-1.37.53-1.84.19-.14.37-.29.53-.46.09-.1.21-.33.17-.39-.13-.18-.32-.39-.51-.42-1.01-.16-1.61.19-1.9,1.27-.5,1.88-.86,3.8-1.34,5.69-.36,1.38.1,2.42,1.1,3.34.47.43.95.51,1.49.25.9-.42,1.79-.86,3-1.44ZM143.33,94.18c.33.02.63-.09.81-.36.21-.32.42-.67.48-1.04.29-1.57,1.06-2.91,1.9-4.22.5-.78,1.08-1.52,1.66-2.24.61-.77.97-1.53.58-2.56-.24-.64-.24-1.37-.33-2.06-.04-.31-.03-.71-.42-.68-.26.01-.58.24-.74.46-.31.44-.57.93-.76,1.43-1.12,3.14-2.23,6.3-3.32,9.45-.15.43-.24.89-.29,1.35-.03.24.17.42.43.47ZM83.45,65.47c-1.14-.39-2.14.5-3.25.2-.31-.08-.53.38-.32.68.58.83,1.17,1.65,1.78,2.46.25.32.6.5,1.02.45,1.47-.18,2.94-.33,4.4-.57.74-.12.91-.83.42-1.43-1.05-1.3-2.4-1.96-4.06-1.77ZM250.18,153.2s.19,0,.42,0c.86-.02,1.19-.49.73-1.18-.79-1.2-1.29-2.72-3.07-2.89-.2-.02-.45-.19-.57-.36-.69-1-1.71-.9-2.72-.91-.51,0-.94.14-1.1.66-.15.5.12.9.47,1.23.17.16.36.33.57.39,1.05.29,1.74.95,2.15,1.95.26.64.75.94,1.45.96.46.01.93.09,1.66.16ZM141.5,191.6c-.82-.19-1.68-.27-2.44-.61-.91-.4-1.58-.26-2.36.31-1.95,1.43-1.98,1.43-1.63,3.88.08.54.12,1.09.23,1.62.08.36.38.49.72.35,1.06-.43,1.82-1.12,2.22-2.25.53-1.55,1.43-2.79,3.26-3.31ZM39.09,76.69c-.14-1.03-.14-1.03.44-2.19.57-1.14.76-2.36.68-3.62-.02-.32-.16-.64-.51-.67-.21-.02-.5.06-.64.2-.9.96-1.77,1.95-2.65,2.93-.22.25-.32.57-.21.86.39,1.04.32,2.14.45,3.22.09.76.67,1.1,1.56,1.02.73-.07,1.02-.45.97-1.29-.01-.15-.05-.31-.07-.46ZM83.73,132.5c.79-.93,1.05-1.85,1.41-2.71.43-1.03.27-1.34-.85-1.72-.72-.24-1.49-.76-2.22-.15-.57.47-1,.69-1.59.09-.11-.11-.47-.09-.65,0-.63.28-.93.81-.92,1.5,0,.51.23.91.7,1.13,1.35.62,2.7,1.22,4.14,1.87ZM207.7,62.19c-.02-.22-.01-.3-.04-.37-.39-1.11-.93-2.14-1.59-3.11-.14-.21-.46-.13-.59.08-.73,1.21-1.09,2.58-1.52,3.91-.47,1.46-1.41,2.79-1.32,4.39.02.4.64.03,3.58-3,.38-.39.77-.78,1.11-1.2.19-.23.28-.54.36-.7ZM217.81,109.1c-.16,0-.31,0-.47.03-.3.04-.68.04-.73.42-.02.18.14.44.29.58.79.75,1.6,1.48,2.4,2.22.44.41.46.7-.13,1.04-.56.33-.81.69-.64,1.31.16.6.29,1.21.49,1.8.11.32.41.47.75.33.51-.21,1-.46,1.13-1.08.08-.38.06-.8.22-1.14.71-1.58.77-2.96-.95-3.96-.18-.11-.29-.36-.4-.56-.42-.79-1.12-1.03-1.96-.99ZM194.46,35.43c-.14.06-.32.08-.42.18-.17.16-.28,1.87-.13,1.99,1.25,1.02,2.36,2.41,4.27,1.79,1.11-.36,2.12-.33,3.09.4.24.18.64.22.83-.1.09-.15,0-.46-.1-.64-.19-.33-.49-.61-.7-.93-.44-.68-.94-.89-1.76-.55-.96.4-1.82.02-2.56-.67-.4-.37-.79-.75-1.21-1.1-.37-.31-.83-.41-1.31-.38ZM107.47,161.88s0,0,0,0c-.04-.54-.07-1.08-.11-1.62-.01-.15-.05-.3-.1-.45-.16-.49-.52-.74-1.03-.78-.48-.04-.94.02-1.31.35-.52.46-1.04.92-1.5,1.44-1.51,1.74-1.39,2.09.81,2.51.76.14,1.51.3,2.28.41.65.1,1-.24,1-.93,0-.31-.03-.62-.05-.92ZM77.89,63.01c.45-.07.85-.07,1.21-.19.69-.23,1.27-1.35,1.02-1.87-.46-.95-1.94-1.75-2.91-1.4-1.24.45-2.47.84-3.78,1.03-.11.02-.29.22-.28.32.03.2.14.52.27.55,1.14.25,2.21.6,3.2,1.27.35.24.88.2,1.27.28ZM120.86,71.22c-.59,0-3.73.83-4.25,1.14-.36.21-.57.84-.41,1.24.4,1.04,1.3,1.58,2.39,1.43.62-.08,1.23-.21,1.85-.3.6-.09,1.47.32,1.75-.26.37-.78-.57-1.13-1.03-1.61-.49-.51-.95-.97.2-1.2.16-.03.14-.25-.04-.34-.13-.07-.3-.07-.45-.11ZM124.27,180.62c.57-.76.95-1.16,1.2-1.62.62-1.13.69-2.38.58-3.63-.05-.52-.41-.82-.9-.95-.48-.13-.99-.15-1.24.33-.49.94-1.4,1.44-2.09,2.17-.25.26-.26.61.02.82.93.71,1.79,1.49,2.43,2.89ZM229.83,109.84c0-.98,0-1.75,0-2.52,0-.5-.12-.99-.57-1.2-1.4-.64-2.63-1.71-4.29-1.67-1.52.04-2.91-.41-4.23-1.13-.2-.11-.41-.24-.63-.3-.32-.09-.63,0-.77.33-.11.24.04.44.25.57,1.13.67,2.21,1.28,3.67,1.25,2.34-.06,4.2.96,5.24,3.21.25.54.48,1.16,1.34,1.46ZM203.81,69.32c.53.1.95-.14,1.35-.32,1.28-.56,2.55-1.16,3.82-1.74,1.08-.49,1.16-.68.69-1.75-.16-.36-.31-.71-.5-1.06-.23-.43-.61-.53-.96-.27-.96.69-3.47,3.61-4.4,5.14ZM58.63,116.37c.85.92,1.15,1.92,1.06,3.07-.03.38-.04.78,0,1.16.06.69.52,1.03,1.3,1.02.77-.01,1.23-.35,1.27-1.06.05-.93.01-1.86-.02-2.78-.02-.53-.33-.83-.87-.91-.91-.15-1.82-.33-2.73-.49ZM156.93,22.11c-.56-.41-1.21-.24-1.78-.19-1.21.11-2.41-.58-3.6,0,.27,1.19.53,2.39.8,3.58.03.15.1.29.15.44.12.33.54.47.73.21.46-.6,1.1-1.13.7-2.05-.18-.41.11-.48.48-.5,1.35-.07,1.35-.08,2.53-1.5ZM164.96,171.92s.35.02.63-.08c.36-.13.7-.34,1.01-.56.46-.32.42-.92-.12-1.1-1.31-.44-2.44-1.01-2.63-2.58,0-.07-.05-.16-.11-.2-.17-.14-.36-.37-.54-.36-.17,0-.45.24-.48.4-.16,1-.29,2.01-.38,3.02-.04.42.23.73.55.98.52.41,1.13.52,2.06.5ZM151.32,103.34c.02.23.02.47.08.69.13.55.98,1.04,1.47.87.75-.26,1.63-1.78,1.28-2.51-.48-.99-.67-2.06-1.04-3.07-.06-.16-.35-.31-.55-.33-.26-.03-.38.22-.43.46-.27,1.29-.53,2.59-.8,3.89ZM92.26,72.71c.15.05.31.1.46.15,1.16-1.42,2.34-2.83,3.48-4.27.12-.15.15-.47.07-.63-.08-.16-.38-.33-.54-.3-.98.21-1.94.47-2.9.74-.33.09-.55.37-.45.7.34,1.21.31,2.41-.11,3.62ZM54.9,98.82c-2.3-.81-4.14.05-6.09,1.63,1.2.3,2.17.51,3.11.8.97.3,1.67.04,2.11-.85.27-.54.86-.9.86-1.58ZM85.6,113.91c.15-.02.31,0,.45-.07,1.41-.65,2.82-1.3,4.22-1.98.36-.17.73-.51.57-.9-.26-.63-.6-.07-.88.07-.3.15-.59.21-.87,0-.31-.23-.58-.52-.9-.74-.58-.4-1.26-.27-1.57.35-.46.89-.88,1.81-1.29,2.73-.1.22,0,.44.27.52ZM191.54,130.88c-.34-.25-.65-.13-.94-.05-1.41.42-2.82.85-4.22,1.3-.36.11-.46.53-.2.73,2.36,1.77,2.66,1.91,4.27-.3.39-.54,1.01-.96,1.09-1.68ZM165.84,137.18c1.27.03,3.54-.83,4.34-1.65.24-.25.22-.56.02-.85-.83-1.21-1.86-1.35-2.92-.33-.61.59-1.16,1.24-1.71,1.89-.13.15-.23.44-.18.61.05.16.33.25.44.32ZM147.86,103.21c.46,0,.92-.26,1.03-.76.25-1.04.43-2.1.61-3.16.02-.1-.11-.3-.22-.35-.12-.05-.33-.04-.43.04-.73.57-1.46,1.13-2.14,1.75-.49.45-1.22.89-.9,1.69.31.75,1.17.58,1.81.77.07.02.15,0,.23,0ZM186.51,94.48c-.44-.83-.88-1.73-1.38-2.59-.18-.31-.57-.24-.83-.04-1.27,1.02-2.61,1.94-4.08,2.65-.21.1-.33.36-.22.6.05.11.22.24.35.25.85.07,1.72.19,2.38-.54.4-.44.41-1.29,1.13-1.38.83-.1,1.07.77,1.56,1.22.11.1.23.23.37.28.13.05.32.06.44,0,.11-.06.16-.24.28-.45ZM149.02,53.55c-.87-.17-1.31.12-1.72.49-.4.37-.33.89.16,1.12,1.57.74,3.29.72,4.96.95.12.02.3-.11.38-.22.17-.23.04-.44-.14-.61-1.1-1.05-2.39-1.68-3.65-1.74ZM198.63,121.74c.91.11,1.58-.27,1.93-1.22.13-.36.32-.71.44-1.08.25-.79-.39-1.7-1.3-1.84-.35-.05-.56.19-.69.49-.36.86-.72,1.71-1.09,2.57-.29.68-.08,1.05.7,1.07ZM78.27,65.82c-.02-.41-.13-.65-.37-.69-.38-.07-.78-.09-1.16-.08-1.46.07-2.23,1.11-1.9,2.53.13.55.76.9,1.27.7,1.21-.47,1.62-1.6,2.15-2.46ZM179.02,106.35c-.46.01-.93-.03-1.34.26-.28.2-.47.52-.24.78.62.67,1.3,1.4,2.19,1.62.71.17,1.09-.78,1.77-.97.07-.02.13-.08.19-.13.27-.24.2-.8-.11-1.01-.75-.5-1.6-.51-2.45-.55ZM173.76,114.61c-1.04-.23-2.08-.49-3.13-.68-.67-.12-1.24.15-1.51.81-.18.42-.31.87-.41,1.32-.09.41.33.75.74.6,1.44-.54,2.74-1.44,4.32-2.06ZM216.14,104.12c.42,0,.72-.15.87-.42.37-.67.37-1.38-.11-1.98-.72-.88-1.68-1.37-2.84-1.37-.19,0-.42.18-.55.35-.17.21-.08.49.13.61,1,.57,1.62,1.41,2.02,2.47.07.17.35.26.48.35ZM144.52,95.75c-.7,0-1.15.67-.86,1.14.45.73.93,1.44,1.43,2.13.2.28.53.36.82.17,1.14-.74,1.7-1.55.25-2.43-.4-.24-.72-.6-1.11-.85-.18-.12-.43-.13-.54-.16ZM161.33,166.18c.02-.86.02-1.55-.55-2.1-.35-.33-1.07-.26-1.16.18-.19.89-.36,1.78-.46,2.69-.06.52.54,1.07,1.03,1.07.57,0,.82-.39.97-.85.11-.37.14-.76.18-.99ZM181.41,41.33c.48-.11,1.31-.29,2.13-.5.12-.03.28-.23.27-.33-.02-.21-.08-.49-.23-.6-.92-.69-2.01-.74-3.1-.76-.34,0-.55.27-.61.6-.18.95.3,1.58,1.55,1.59ZM145.28,161.8c-1.19-.59-2.5-.39-3.48-1.3-.05-.05-.3.05-.41.14-.56.44-.7,1.28-.35,1.88.25.41.78.55,1.45.32.94-.33,1.86-.69,2.79-1.03ZM190.14,99.82c.9.02,1.13-.36.85-1.03-.37-.9-.92-1.61-1.88-1.91-.48-.15-.93.03-1.25.39-.31.35-.14.72.09,1.05.58.83,1.13,1.72,2.2,1.5ZM135.92,45.78s-.44,0-.82.04c-.3.03-.67.06-.7.44-.01.18.18.43.34.56,1.02.78,2.22,1.06,3.46,1.22.25.03.42-.19.4-.44-.09-1.25-.53-1.73-1.65-1.81-.23-.02-.46,0-1.03,0ZM201.42,83.11c.23-.19.31-.22.34-.28.22-.4.36-.88.66-1.2.55-.6.93.12,1.4.26.28.08.41-.16.39-.41-.24-2.27-.72-2.14-2.28-1.42-.48.22-1.05.29-1.44.81.1.74.5,1.39.93,2.23ZM148.57,155.88c1.59.15,2.52-.25,3.11-1.32.21-.39-.15-1.06-.59-1.01-1.26.15-2.31.77-3.19,1.65-.18.19-.04.47.19.56.28.11.59.14.48.11ZM243.03,97.82c-.12-.25-.18-.6-.39-.77-.79-.62-1.67-1.12-2.68-1.3-.12-.02-.3.07-.41.16-.19.17-.23.45-.07.62.8.84,1.61,1.66,2.45,2.45.27.26.6.1.75-.22.13-.27.21-.58.34-.94ZM99.32,149.65c-.9.33-1.64.56-2.34.87-.49.21-.65.65-.5,1.16.06.22.14.45.24.66.29.64.67.8,1.31.55.84-.32.92-.49.62-1.59-.07-.27.02-.43.18-.61.2-.22.51-.36.5-1.04ZM113.09,147.23c-.07.01-.16,0-.22.04-.8.41-1.2,1.37-.84,2.11.2.41.45.8.72,1.17.19.27.49.35.82.24.35-.12.78-.12,1.01-.48.29-.45-.31-.65-.32-1-.04-.73-.4-1.31-.8-1.88-.08-.11-.25-.15-.38-.22ZM186.68,135.42c-.89-1.33-1.9-1.74-2.9-2.12-.5-.19-.91.1-1.13.58-.2.42-.44.85-.16,1.32.07.11.26.21.4.21,1.16.02,2.32,0,3.8,0ZM155.99,198.75c.05.35.24.61.59.58.98-.07,1.79-.45,2.27-1.36.21-.39.7-.67.53-1.21-.11-.36-1.13-.43-1.71-.08-.66.4-1.26.89-1.6,1.62-.06.13-.06.3-.08.44ZM93.55,62.49c-1.28,1.55-1.81,2.72-2.11,4.6,2.45-1.1,2.68-1.61,2.11-4.6ZM154.27,49.33c-.04-.14-.05-.43-.19-.56-.28-.25-.57-.03-.82.15-.63.46-1.26.9-1.87,1.39-.44.35-.31.84.25,1.07,1.53.61,2.22.27,2.54-1.27.05-.23.06-.46.09-.78ZM134.7,129.85c.1-1.28-.09-2.46-.34-3.64-.11-.53-.21-1.07-.37-1.59-.1-.32-.37-.5-.72-.38-.32.11-.52.37-.52.7,0,.3.05.63.17.9.57,1.34,1.18,2.67,1.77,4.01ZM201.1,40.6c-.67.33-1.67-.35-2.21.66.59.61,1.4.59,2.15.75.38.08.77.14,1.15.17.44.03.78-.18.8-.63.02-.43-.25-.74-.68-.82-.38-.07-.77-.08-1.23-.12ZM26.09,78.97c.29.63.53,1.29.88,1.89.26.47.62.89.99,1.28.38.4,1.31.14,1.58-.43.22-.46-.13-.74-.47-.93-1.02-.56-2.06-1.06-2.98-1.82ZM49.4,32.81c1.56.59,2.91.74,4.37.98-1.23-2.28-1.54-2.35-4.37-.98ZM180.83,97.01c-.38.06-.78.08-1.13.21-.18.06-.33.31-.41.51-.09.25.09.46.29.58.71.42,1.46.52,2.24.25.32-.11.48-.39.47-.73-.02-.34-.19-.6-.53-.68-.3-.08-.61-.09-.93-.14ZM177.19,132.07c.66-.12,1.27-.47,1.84-.86.44-.3.45-.84.01-1.16-1.29-.96-1.89-.59-2.17.68-.07.3-.14.6-.16.91-.01.26.15.42.47.44ZM193.08,122.42c.95-.15,1.85-.27,2.74-.46.15-.03.36-.36.34-.53-.07-.65-.39-1.23-1.01-1.45-.52-.18-.85.32-1.11.69-.34.5-.9.89-.97,1.75ZM255.35,178.49c-.05.33-.11.64-.15.95-.05.39-.14.84.35.97.43.12.72-.24.96-.53.74-.91.47-2.2-.62-3.02-.11-.08-.31-.1-.44-.06-.11.04-.25.21-.24.32.02.46.09.93.14,1.37ZM94.5,126.37c-.37.06-.98.13-1.58.25-.54.1-.69.59-.36,1.04.84,1.14,1.5,1.12,2.29-.05.13-.19.22-.4.32-.61.14-.3-.09-.64-.67-.63ZM170.64,183.82c-1.57.07-2.24,1.54-3.47,2.12-.19.09-.04.42.17.56.37.23.77.19,1.08-.05.85-.65,1.67-1.34,2.48-2.03.09-.08.13-.31.08-.42-.05-.1-.24-.14-.34-.18ZM224.49,96.65c-.07-.54-.15-1.08-.23-1.61-.01-.07-.05-.14-.08-.22-.1-.29-.55-.39-.79-.17-.22.21-.45.43-.62.68-.48.69-.43,1.1.17,1.62.17.15.37.3.58.38.2.08.47.15.66.09.36-.11.34-.46.31-.77ZM191.77,87.6c-.04-.71-.79-1.35-1.42-1.22-.46.1-.76.69-.78,1.54,0,.5.4.85.93.78.78-.1,1.3-.55,1.27-1.11ZM147.15,50.64c-1.56-1.15-2.21-1.1-3.03.18-.1.16-.11.48,0,.63.1.16.38.27.59.27.98.03,1.68-.54,2.45-1.08ZM236.91,121.94c1.25.86,1.82,1.69,2.49,2.42.08.08.31.11.42.06.11-.05.23-.24.22-.36-.15-1.67-.65-2.07-3.13-2.12ZM160.95,73.3c-.3,1.68-1.41,2.63-1.18,4.21,1.4-1.02,2.28-2.03,1.18-4.21ZM129.98,127.99c-.23.26-.39.42-.53.6-.1.12-.18.25-.25.38-.37.68-.25,1.03.45,1.17.43.09.94.36,1.28-.07.26-.32-.04-.72-.17-1.07-.13-.35-.24-.73-.77-1.01ZM201.1,128.04c-.7.05-.95.32-1.02,1.24-.03.42-.25,1.06.33,1.16.48.09.62-.57.88-.92.18-.24.32-.51.45-.79.17-.35-.19-.73-.64-.69ZM68.32,59.65c-.08.11-.16.22-.24.33.42.42.83.87,1.28,1.26.3.26.7.28,1.09.22.24-.03.47-.17.48-.41,0-.19-.11-.5-.25-.56-.77-.31-1.57-.57-2.35-.84ZM202.02,86.21c-.16.06-.38.07-.42.17-.09.19-.16.45-.09.63.3.85,1.05,1.05,1.84,1.1.26.02.37-.27.29-.49-.27-.78-.77-1.32-1.62-1.41ZM147.18,160.27c-.27.03-.46.2-.47.44-.07,1.17.54,1.78,1.64,1.7.27-.02.46-.23.32-.46-.32-.52-.69-1.01-1.07-1.5-.08-.1-.27-.12-.41-.18ZM71.21,66.54c-.86-.88-1.34-1.14-2.29-1.31-.55-.1-1.09-.13-1.49.5,1.19.44,2.38.63,3.78.81ZM111.02,67.23c.06-.71-.21-1.09-.82-1.12-.4-.02-.81.08-.88.54-.07.51.61,1.2,1.17,1.21.36,0,.48-.3.53-.62ZM131.85,60.66c0-.17,0-.41-.03-.64-.06-.49-.25-.9-.82-.96-.42-.04-.62.44-.41,1.09.11.36.28.72.46,1.05.06.11.24.22.37.22.28,0,.36-.24.4-.48.01-.08.02-.15.03-.29ZM46.68,63.35c.31,0,.67.04.76-.35.11-.46-.19-.73-.58-.88-.5-.2-1.04-.47-1.51.03-.12.13-.14.46-.06.64.25.65.84.57,1.39.56ZM152.07,170.96c-.04-.13-.08-.26-.12-.38-.43.11-.88.17-1.27.35-.54.25-1.16.47-1.16,1.24,0,.06.06.16.11.18.61.24.98-.23,1.4-.52.37-.26.69-.57,1.04-.86ZM104.52,94.91c.04-.77-.22-1.29-.85-1.55-.19-.08-.48-.1-.64-.01-.4.21-.17.48.02.73.27.36.5.75.78,1.11.07.1.32.19.37.15.16-.12.26-.32.33-.42ZM145.32,191.28c-.1-.09-.2-.26-.29-.26-.55,0-1.05.18-1.41.6-.11.12-.08.44-.01.62.12.29.39.49.71.44.41-.07.97-.91,1-1.4ZM50.65,67.51c-.11.09-.28.15-.32.26-.14.46-.1.92.14,1.34.23.4.57.98.99.84.65-.22.09-.75,0-1.13-.09-.37-.29-.71-.47-1.05-.06-.12-.23-.18-.34-.26ZM75.51,136.07c-.05-.44-.32-.7-.72-.81-.54-.14-1,.33-.98.99,0,.25.14.45.39.5.61.11,1.27-.24,1.31-.68ZM209.11,38.7c-.36.08-.77-.07-.79.36,0,.15.27.36.46.45.35.16.72.29,1.09.34.16.02.42-.18.52-.34.13-.22-.01-.49-.24-.57-.36-.13-.74-.18-1.03-.24ZM217.24,124.52c-.43,0-.81.36-.74.58.19.57,1.39.91,1.76.47.08-.09.07-.32.01-.43-.24-.46-.68-.6-1.03-.62ZM125.57,185.12c-.05-.13-.07-.31-.17-.4-.41-.37-1.09-.24-1.32.25-.05.1-.02.34.06.39.38.27.81.36,1.24.13.1-.05.12-.25.18-.38ZM151.2,81.11c-.15-.61-.48-1.11-.94-1.5-.18-.16-.43-.13-.6.06-.08.1-.16.29-.12.4.27.7.41.78,1.66,1.04ZM47.65,64.92c-.03-.06-.03-.16-.08-.19-.47-.3-1.45-.16-1.83.32-.16.2.02.43.24.52.64.27,1.16,0,1.61-.45.04-.04.04-.13.06-.2ZM253.07,175.84c.48-.02.88-.34.76-.63-.19-.47-.57-.69-1.07-.63-.35.04-.52.31-.47.65.06.44.35.63.79.61ZM164.62,113.35c.08.13.12.32.23.37.55.23,1.38-.49,1.29-1.13-.03-.23-.28-.37-.51-.31-.54.15-.88.53-1.01,1.07ZM62.38,137.53c.04-.26-.06-.46-.3-.54-.38-.14-.77-.11-1.13.07-.12.06-.19.23-.25.36-.02.05.04.16.1.2.39.29.82.45,1.3.24.12-.05.2-.22.29-.33ZM195.07,107.55c-.4-.02-.68.13-.71.48-.05.53.41.58.78.64.34.06.66-.09.67-.45.02-.48-.42-.58-.74-.67ZM139.23,28.34c-.14.03-.32.01-.43.09-.32.25-.51.6-.54,1-.02.27.16.48.44.41.5-.11.82-.44.87-.97.03-.25-.1-.44-.34-.54ZM125.1,71.21c-.17.02-.4.03-.63.07-.24.04-.49.16-.44.41.04.17.27.35.46.43.3.14.6.03.85-.18.11-.09.24-.23.26-.35.03-.3-.2-.35-.49-.38ZM127.43,77.26c-.07-.42-.33-.69-.75-.75-.28-.04-.44.16-.44.42,0,.59.38.99.83.87.24-.07.35-.27.36-.54ZM167.17,150.93c.28,0,.5-.15.47-.4-.04-.29-.16-.59-.33-.82-.11-.14-.41-.24-.58-.19-.34.09-.44.4-.36.73.1.42.41.62.81.69ZM115.27,75.9c-.1-.38-.38-.48-.71-.47-.33,0-.64.14-.69.49-.06.38.21.56.55.56.4,0,.76-.11.85-.58ZM241.55,126.5c.16-.02.39-.03.6-.1.13-.04.3-.13.35-.25.1-.24-.06-.43-.26-.53-.2-.1-.41-.2-.62-.23-.34-.04-.57.16-.62.49-.05.35.13.56.56.61ZM105.08,79.09c.56-.06.97-.37,1.24-.86.04-.07-.08-.34-.15-.35-.56-.1-1.04.09-1.42.51-.07.08-.06.3,0,.42.05.12.22.18.34.28ZM244.34,126.29c.66.45,1.19.6,1.74.65.24.02.48-.07.48-.35,0-.26-.21-.41-.44-.46-.53-.12-1.07-.21-1.77.16ZM150.77,76.37c.25-.05.43-.2.45-.44.04-.43-.44-.84-.89-.74-.11.02-.26.17-.29.28-.11.43.3.91.73.9ZM229.5,149.32c.34,0,.63-.09.69-.46.02-.12-.09-.36-.18-.38-.21-.04-.46-.02-.65.05-.23.09-.37.31-.24.56.06.11.25.15.38.22ZM42.09,70.88c.07-.01.17,0,.21-.04.38-.38.67-.8.57-1.38-.01-.06-.09-.12-.16-.14-.06-.02-.16-.02-.21.02-.45.35-.62.82-.55,1.38,0,.06.09.11.14.16ZM167.07,102.37c-.25-.01-.47.08-.44.35.04.4.28.71.7.72.18,0,.46-.16.52-.32.21-.51-.24-.58-.57-.71-.07-.03-.14-.03-.22-.04ZM78.59,143.95c-.47.1-.62.44-.59.86.01.26.18.5.44.38.39-.18.47-.6.46-.99,0-.09-.2-.17-.3-.25ZM182.06,70.61c-.05-.36-.41-.54-.89-.43-.12.03-.27.16-.31.27-.08.28.37.64.8.62.26-.01.39-.2.41-.46ZM148.51,78.42c.34-.19.56-.47.54-.87,0-.12-.12-.29-.22-.32-.1-.03-.3.07-.35.16-.12.26-.21.54-.27.83-.03.16.11.24.29.2ZM104.05,90.86c-.06-.13-.1-.33-.19-.36-.38-.13-.76-.11-.97.28-.12.23.04.44.26.51.42.13.71-.05.9-.43ZM71.95,54.39c.06-.04.16-.08.17-.13.09-.46-.26-.66-.56-.85-.09-.06-.31-.04-.38.03-.08.08-.1.28-.05.4.14.37.38.63.83.56ZM188.36,137.06c-.46.09-.53.48-.61.84-.02.1.1.24.19.35.02.03.15,0,.21-.04.37-.23.45-.58.36-.98-.01-.06-.09-.11-.14-.17ZM62.22,123.16c-.73-.19-1.19.05-1.66.28.51.02,1.04.25,1.66-.28ZM44.15,67.66c.41-.23.75-.52.84-1.02.01-.06-.04-.15-.1-.19-.05-.04-.18-.06-.21-.03-.24.29-.47.59-.69.91-.12.17-.05.3.15.33ZM155.11,41.55c-.02-.2-.13-.31-.28-.22-.33.19-.56.48-.54.89,0,.08.23.23.29.2.4-.15.49-.5.52-.87ZM50.58,36c.01-.38-.25-.51-.54-.59-.23-.06-.47,0-.46.28.01.3.18.57.51.63.23.04.41-.09.49-.32ZM140.09,92.46c.35-.1.44-.41.47-.71.01-.11-.11-.24-.18-.37-.19.11-.41.19-.55.35-.16.19-.1.44.06.63.04.05.13.07.2.1ZM153.29,77.83c.16-.29,0-.46-.18-.58-.19-.13-.41-.17-.59,0-.18.18-.17.41.02.55.24.19.53.22.75.02ZM77.8,85.81c-.06-.11-.12-.35-.27-.48-.18-.17-.48.22-.44.6.02.23.11.48.37.47.27,0,.31-.27.34-.59ZM92.98,14.03c-.25,0-.49.1-.46.34.03.34.34.46.64.47.1,0,.3-.13.31-.23.05-.35-.18-.51-.49-.59ZM116.31,66.18c.25-.04.46-.14.36-.43-.03-.09-.25-.17-.37-.17-.23,0-.46.12-.35.41.04.1.24.13.36.18ZM213.37,113.86c-.2.02-.5,0-.44.29.03.14.32.27.52.32.22.05.47-.05.44-.32-.03-.25-.3-.27-.52-.29ZM82.58,114.25c.05.27.26.34.47.31.11-.01.29-.16.28-.23-.02-.26-.24-.34-.46-.31-.11.01-.2.16-.3.24ZM128.95,79.37c-.1-.28-.23-.56-.58-.55-.06,0-.17.24-.16.36.03.32.19.56.55.52.07,0,.12-.22.19-.33ZM125.6,164.65c-.06-.11-.1-.27-.2-.33-.2-.12-.43-.1-.54.12-.03.06.08.27.17.32.19.1.41.09.57-.11ZM150.93,194.6c-.08-.11-.16-.3-.25-.32-.29-.04-.36.2-.33.42.02.12.14.31.23.32.28.03.35-.19.35-.43ZM212.24,39.11c-.11.06-.28.1-.3.18-.03.1.07.23.12.35.11-.06.28-.1.3-.19.03-.1-.07-.23-.12-.35ZM86.23,116.6c-.1-.09-.2-.24-.31-.25-.23-.03-.48.02-.42.33.02.09.24.19.36.18.11,0,.22-.15.36-.26ZM167.24,116.61c.05-.18,0-.29-.18-.31-.06,0-.16.04-.18.09-.07.2-.12.4-.16.6-.01.06.05.13.07.19.1-.06.23-.1.29-.18.08-.11.11-.26.15-.4ZM139.07,162.37c.12-.05.24-.09.36-.14-.06-.11-.1-.28-.19-.3-.1-.03-.23.08-.35.12.06.11.12.21.18.32Z"/>
      <path d="M254.17,116.36c-1.22-1.71-2.98-2.83-3.65-4.74-.16-.47-.69-.83-1.1-1.18-.88-.75-1.42-1.68-1.52-2.82-.1-1.17-.23-2.3-1.1-3.11.64-.69,1.25-.13,1.73-.41.4-.23.79-.5,1.18-.75.07-.04.13-.11.2-.12,2.04-.28,3.77-1.49,5.75-1.93,1.24-.28,2.48-.28,3.71.07.54.15.72.61.4,1.1-.38.59-.75,1.2-1.21,1.73-.81.94-.94,1.86-.32,3,.56,1.02.92,2.15,1.32,3.25.25.68.19.72-.76,1.28-.5.29-.64.68-.28,1.15.68.88,1.18,1.84,1.4,2.93.18.9.1,1.84.68,2.75-1.02.11-1.5-.3-1.77-.85-.45-.92-1.05-1.51-2.11-1.62-.52-.05-.78-.48-.96-.93-.2-.53-.52-.95-1.05-1.2-.27-.13-.71.07-.7.38.03.68.09,1.36.14,2.04Z"/>
      <path d="M193.26,24c.32-.95.63-1.7.42-2.62-.25-1.11.28-2,1.19-2.59.68-.45,1.11-1.01,1.48-1.72.41-.78.92-.97,1.76-.62,1.05.43,2.07.63,3.17.29.22-.07.5-.15.69-.07,1.47.64,3.03.45,4.56.53.45.02.67.47.46.85-.11.2-.24.4-.4.57-.53.6-.69,1.11-.06,1.82.57.64.48.72.49,2.19-.86-.05-1.49-.92-2.4-.67-.79.22-1.24.91-1.87,1.35-1.9,1.34-3.96,1.74-6.2,1.02-1.03-.33-2.05-.78-3.29-.32Z"/>
      <path d="M279.84,147.3c-.02.26,0,.58-.08.88-.28,1.03-.16,1.97.45,2.87.6.89.6,1.9.4,2.92-.13.69-.76,1.04-1.41.79-1.14-.44-2.01-1.18-2.39-2.37-.34-1.03-.72-1.99-1.43-2.88-1.04-1.31-.15-3.94,1.4-4.54,1.61-.63,3.14.51,3.06,2.33Z"/>
      <path d="M30.64,20.66c-.66-.13-1.41-.27-2.14-.45-.11-.03-.23-.23-.24-.36,0-.12.1-.35.19-.36.98-.16,1.61-.87,2.37-1.41,1.77-1.26,3.71-1.97,5.94-1.35.52.14,1.08.16,1.61.26.4.08.68.33.91.67.3.43.26.96-.18,1.22-1.14.66-2.2,1.49-3.48,1.89-1.56.49-3.13.95-4.69,1.42-.29.09-.66.13-.76-.25-.04-.16.15-.41.27-.59.12-.19.34-.33.2-.7Z"/>
      <path d="M7.78,92.61c-.04.15-.04.33-.13.44-.8,1.04-1.41,2.19-2.63,2.92-1.4.84-2.62,1.97-3.93,2.95-.24.18-.53.31-.8.45-.05.03-.19,0-.2-.04-.04-.13-.12-.33-.06-.4.71-.83,1.42-1.66,2.16-2.46.76-.84,1.02-1.71.41-2.76-.45-.77-.49-1.65-.5-2.5-.01-1.22.86-2.23,2.07-2.5.97-.21,1.92.31,2.45,1.39.37.76.44,1.67,1.13,2.28.05.04.03.14.05.22Z"/>
      <path d="M166.31,216.35c1.22.12,2.22.41,3.03,1.25,1.12,1.16,1.33,2.58,1.32,4.08,0,.31-.08.62-.15.92-.16.67-.11,1.55-.8,1.84-.79.34-1.17-.55-1.66-.98-.59-.51-1.15-1.04-1.68-1.61-.42-.45-.82-.93-1.14-1.46-.57-.94-.59-1.91.13-2.82.33-.42.65-.85.95-1.23Z"/>
      <path d="M223.22,21.89c1.23.1,2.59.04,3.96-.29,1.04-.24,2.16,0,3.21.34.12.04.26.19.29.32.07.3-.16.42-.39.43-1.11.02-2.12.33-3.1.88-.9.5-1.9.64-2.93.61-.85-.03-1.71,0-2.56,0-.45,0-.95.4-1.33.05-.33-.3-.51-.77-.72-1.18-.18-.37.03-.82.43-.92.37-.09.76-.19,1.14-.16.62.05,1.23.19,2.01-.07Z"/>
      <path d="M232.25,37.43c-1.49.58-2.66.89-3.89.5-3.01-.96-6.11-1.24-9.25-1.15-.23,0-.46-.05-.69-.1-.07-.01-.18-.08-.18-.13,0-.15,0-.34.08-.43.65-.68,1.52-.85,2.38-.71,1.86.3,3.73.36,5.6.52.54.04,1.07.21,1.59.37.67.21,1.31.53,1.98.71.66.18,1.35.25,2.39.42Z"/>
      <path d="M213.91,21.6s.11-.02.17.01c1.35.64,2.45,1.62,3.61,2.53.45.35.54.92.56,1.48.02.73-.54,1.13-1.26.88-1.14-.4-2.07-1.03-2.51-2.24-.27-.73-.62-1.42-.91-2.14-.09-.22,0-.45.34-.51Z"/>
      <path d="M97.13,4.4c.29-1.46.68-2.88,1.79-3.97.16-.16.36-.28.56-.41.06-.04.2-.04.22,0,.08.12.2.31.15.38-.84,1.38-1.32,3.01-2.75,3.98,0,0,.02.02.02.02Z"/>
      <path d="M212.1,20.36c-.06.04-.13.11-.18.1-.42-.05-.67-.34-.83-.7-.08-.17.01-.33.19-.32.42.01.95.63.82.92Z"/>
      <path d="M99.04,30.63c-.35-.69-.1-1.22.14-1.68.73-1.39,1.66-2.67,2.96-3.57,1.08-.76,2.3-1.32,3.43-2.01.93-.56,1.93-.57,2.94-.49.13,0,.3.15.35.26.04.11,0,.35-.09.42-.37.28-.75.63-1.17.74-2.14.54-3.65,2.04-5.24,3.41-1.11.95-2.19,1.94-3.32,2.93Z"/>
    </g>
  </g>
</svg>