<?xml version="1.0" encoding="UTF-8"?>
<svg fill="#6A7F6B" id="Capa_2" data-name="Capa 2" xmlns="http://www.w3.org/2000/svg" viewBox="0 0 304.49 314.44">
  <g id="Layer_1" data-name="Layer 1">
    <g>
      <path d="M16.95,314.44c-.44-.63-2.58-.27-1.14-1.98-.4-.32-.76-.87-1.2-.93-1.23-.16-1.29-1.07-1.17-1.84.16-1,1.15-1.63,1.95-1.15,1.24.74,2.01-1.27,3.17-.26,1.3,1.14,2.96,1.56,4.55,2.12.37.13.59.75.16,1.21-.31.32-.32.88-1.17.63-1.16-.33-2.4-.38-3.39-1.19-.95.98-.47,2.26-.71,3.39h-1.05Z"/>
      <path d="M239.64,165.08c.52-.45.97-1.1,1.81-.67.85.45.81.92.46,1.83-.16.43.87,1.36.61,2.34.24-.65.25-1.29.31-1.95.17-2.05.39-4.15,1.79-5.86.36-.44.64-.36,1,0,.79.78,2.37.87,2.1,2.59-.03.17,1,.51,1.83.91-1.36-2.03.14-1.63,1.02-1.76-.41-.54-1.75-.54-1.32-1.23.29-.46.95-1.47,1.96-1.23.59.14,1.12.3.95-.61-.29-1.56.34-2.27,1.96-2.16-.32-.53-1.46-.48-1.08-1.11.31-.52.96-1.31,1.79-1.11.78.19.78.93.56,1.6-.35,1.03-.06,2.03.43,2.86.88,1.49,1.51,3,1.33,4.76-.07.67.02.95.83.74,1.12-.3.51.92.94,1.33.23.22-.58.53-1.04.55-1.68.09-1.53.01-.8,1.65.27.62,1.16,1.57.03,2.48-.88.71-1.59.34-2.2-.15-.68-.55-.92-.47-1.2.32-.23.64-.79,1.12-.71,1.92.08.82-.28,1.35-1.13.73-.71-.51-1.22-.23-1.7.23-.44.43-.88.8-.41,1.63.7,1.24-.52,1.64-1.47,2.18,1.58.9,3.36,1.66,3.08,3.67-.19,1.35-.69,1.42-2.46,1.13.88,1.31-.05,2.07-1.01,2.15-1.74.15-.1,1.68-1.03,2.16-.13.07.79.72,1.33.81.98.18,1.26-.55,1.17-1.3-.11-1,.7-1.15,1.24-1.42.83-.42.55.64.94.88.41-.12.57-.47.52-.81-.15-1,.64-1.75,1.2-1.5.69.31,1.56,0,2.23.93.63.86,1.32,1.8,2.14,2.55.23.2.99.22,1.15.02.72-.86,1.56-.32,2.34-.34,1.35-.04,1.6-.83,1.62-2.23.02-1.14.06-2.39.42-3.53.25-.79,1.08-.66,1.67-.6.91.09-.03.92.44,1.3.89-.36,1.87-.59,1.69-1.97-.1-.72.74-.99,1.05-1.54.14-.26.51-.26.79-.09.4.25.47.63.42,1.07-.15,1.13-.29,2.25-.43,3.4.79.03.7-.54.92-.84.49-.69,1.19-1.17,1.91-.57.48.4,1.16.8.39,1.95-1.32,1.99-2.7,3.69-5,4.48-.42.15-.82.32-.69.83.16.65.88,1.15,1.29.96,1.22-.56,2.48-.4,3.73-.49,1.58-.12,1.71-1.66,2.36-2.57.68-.95,1.22-.51,1.73-.22.73.41.19,1.03-.18,1.26-.99.63-.58,1.93-1.42,2.66-.39.34.07.77.55.74.52-.03,1.2,0,1.52-.31,1.21-1.17,1.79-.6,2.21.65.19.57,1.33.92.44,1.73-.96.87-1.23,2.43-3,2.52-1.53.08-1.84-1.08-2.68-2.13.08,1.97-1.38,1.61-2.23,1.55-.74-.05-1.38-.85-.74-1.85.43-.67,1.21-1.54.23-2.11-1-.58-2.29-1.03-3.45-.22-1.55,1.09-2.56,2.69-3.69,4.17-.63.83-.14,1.39.47,1.98-.71.29-1.41-.37-2.13.21,1.09.56,2.3.83,3.17.13,2.08-1.67,3.85-.45,5.63.38.65.3,1.32.42,1.95.69.36.15.86.22.61.83-.2.48-.66.65-.99.38-1.02-.82-2.01-.56-3.07-.18-.72.26-1.36-.12-2.01-.38-.74-.3-1.51-.5-2.33-.14.98.2,1.26,1.36,2.7,1.26,1.2-.08,2.43,1.56,2.14,3.2-.13.72,0,.88.54.82,1.26-.12,2.41.34,3.6.55.74.13,1.53.3,1.22-.93-.08-.33,0-.54.24-.77,1.22-1.2.94-2.31-.2-3.41-.61-.59-.97-1.31-.69-2.22.31-1.01,1.13-.56,1.76-.68.63-.12,1.25-.34,1.88-.42.62-.07,1.14.23,1.48.77.38.59-.02,1.17-.19,1.68-.27.79-.74-.21-1.14-.01-.96,1.2,1.61,1.86.3,3.25,1.25-.1,2.33.18,2.56-1.49.07-.51.74-1.58,1.48-1.35.73.23,0,1.01-.1,1.52-.31,1.46-1.18,2.94.7,4.06.3.18.55.76.3,1.39-1.11-.11-2.2-.07-3.02.99-.26.34-.99,1.05-1.41-.12-.13-.36-.38.02-.43.18-.22.62-1.02,1.36-.24,1.87,1.09.71,2.24,1.54,3.75.86.78-.35,1.67-.5,2.52-.66.87-.17,1.18.42,1.19,1.14.01,1.02.47,1.8,1.21,2.4.98.8.55,1.79.13,2.49-.32.54-1.23.29-1.93.3-.93.02-2.05-.97-2.85.31-.67-.76-1.77.54-2.36-.48-.62-1.06-.64-2.02.67-2.6.83-.36.54-1.1.22-1.41-.89-.85-2.49-2-3.15-1.55-1.73,1.17-4.55.72-5.27,3.42-.13.48-.67.87-.21,1.42.39.47.85.54,1.5.58,1.4.08,2.83.36,4.14.85,1.17.43,1.1,1.97-.04,2.58-.39.21-.86.52-1.31.16-.6-.47.48-.73.17-1.21-1.09.24-2.17-.04-3.24-.26-.61-.13-1.07.12-1.59.22.1.4-.99,1.02.29,1.21,1.27.19,1.93.58.79,2-1.7,2.13-.82-1.1-1.78-.33-.09.19.26.94-.4,1.36-.52-1.22-1.98.32-2.53-.99.15,1.23-.14,2.29-.27,3.44-1.58-.41-3.15-1.05-4.74-1.13-.98-.05-1-.42-.89-.96.16-.76.46-1.5.81-2.2.16-.32.01-.51-.14-.54-1.18-.21-1.54-1.32-2.29-2.01-.25-.23-.39-.64-.82-.33-.7.5-1.2.09-1.37-.48-.22-.76.54-.73,1.02-.87.31-.09.52-.24.51-.79-1.1.57-1.73.18-1.91-.97-.03-.22-.24-.61-.26-.6-1.72.55-3.35-.85-4.99-.31-1.27.41-1.15,1.9-1.61,2.9-.37.82.65.75,1.09,1.03.66.42,1.17.91.54,1.68-.78.96.21,2.31-.76,3.21-.05.05.07.44.13.45,2.38.1,2.12,3.48,4.62,3.64.79.05.29,1.41.33,2.3.78-.3,1.1-1.67,2.29-.94.3.18.26-.42.24-.65-.03-.4-.24-.79-.22-1.18.03-.66.51-1.06,1.09-1.24.6-.18,1.03.18,1.26.7.27.59.25,1.17-.45,1.45-.42.17-.81.38-.6.83.11.24.57.4.89.46.36.06.87-.68,1.07.19.13.59-.24,1-.68,1.32-.19.14-.41.23-.6.35-1.04.63-1.97,1.24-.03,1.95.54.2,1.14.67.94,1.32-.45,1.46.41,1.18,1.17.94,1.64-.51,3.46-.65,4.59-2.24.47-.66,1.28-.33,2.31-.54-2.13-1.19-.34-1.82.04-2.46.42-.72,1.22-.13,1.59.32,1.11,1.36,2.04.39,3-.23.6.91-1.54,1.64.39,2.59-1.57.03-2.66.18-2.79,1.76-.05.64-.72,1.03-1.49.93-.29-.04-.59-.11-.87-.06-.72.14-1.31.53-1.67,1.16-.16.28.02.58.29.74.74.42,1.41.18,1.87-.42.7-.92,1.66-.27,2.44-.52,2.34-.76,4.71-1.37,7.01-2.25,1.89-.72,3.92-1.06,5.9-1.55.21-.05.61-.03.67.09.82,1.59,3.32,1.57,3.54,3.74.04.43.37.85.59,1.26.46.82.97,1.26,1.58,0,.35.67.03,1.56.91,1.67.31.04.79-.06.97-.28.5-.62-.65-.71-.47-1.39.69.04,1.14.43,1.39,1.03.3.7.77.72,1.21.26.37-.39.99-1.03.27-1.46-.93-.55-.87-1.59-1.46-2.3-.6-.72.36-2.31,1.33-2.29.83.02,1.38.44,1.06,1.36-.18.52-.95,1.09-.37,1.51.6.44,1.43.73,2.31.55,1.75-.36,1.77-.29,1.54,1.62-.09.75.55.79,1.06.86.69.09,1.43.02,2.04.43.5.33,1,.73.45,1.41-.36.45-.56.89-1.37.35-.59-.4-1.17.67-1.86.9-.28.1-.55.77-.79.49-1.38-1.65-1.71.14-2.11.73-.98,1.43-1.52.94-2.11-.24-.15-.3-.02-1.47-.83-.36-.08.11-.31.11-.47.16-.4-1.45-1.74-.55-2.51-1.03-.34-.21-.49-.18-.7.09-.77,1-1.12.23-1.24-.4-.17-.94-1.04-1.2-1.5-1.84-.09-.12-.29-.23-.45-.24-1.88-.05-3.81-.61-5.09-1.87-.58-.57-1.16.58-1.49-.26-.19-.47-.69-.85-.47-1.44.24-.65.84-.71,1.41-.87.63-.17,1.28.27,2.02-.19-.73-.94-1.69-.77-2.51-.53-2.92.86-5.8,1.82-8.7,2.75-.38.12-.64.34-.88.74-.38.62.5,2.03-1.12,1.87.28.78.49,1.59.85,2.32.17.36.56.64.43,1.08-.09.32-.26.7-.51.89-.4.29-.58-.17-.82-.41-1.02-.98-2.24-1.69-2.87-3.14-.53-1.23-2.25-1.29-3.33-.44-.32.25-.45.53-.34.91.16.56.49.92,1.11.96.75.04,1.51.05,2.26.15.34.05.75.31.68.68-.05.28-.47.73-.67.71-.81-.1-1.84.47-2.38-.14-.64-.73-.83-.08-.98.16-.52.84-.85,1.84-2.18,1.54-.24-.05-.4.23-.38.49.05.61.58.71,1,.83,2.19.63,4.39,1.25,6.6,1.83,2.16.57,4.29,1.29,6.59,1.18.73-.04,1.05-.45,1.35-.93.7-1.1,1.49-1.96,2.82-2.42,1.46-.51,1.45-1.16.25-3.4-.28,1.58-1.21,1.58-2.36,1.22-.29-.09-1.38-1.12-.84.53.11.33-.96.55-1.51.34-.6-.22-.7-.81-.43-1.32.26-.49.7-.9,1.08-1.37-.68-.45-2.1-.37-1.92-1.22.23-1.09,1.37-1.81,2.54-2.36.19.9.36,1.69.54,2.53.36.35,1.23-1.75,1.39.21,0,.09,1.12.34,1.46.12,1.3-.86,1.85.14,2.4.89,1.11,1.5,1.75,3.26,2.3,5.01.36,1.13.22,2.29-1.16,2.95-1.26.61-1.23,1.48-.01,2.26.53.34,1.14.57,2.12,1.04-1.24.07-1.92-.38-2.64-.58-.34-.09-.72-.25-.94.14-.28.51.12.75.5.92,2.34,1.06,4.57,2.39,7.03,3.16,1.25.39,2.16.82,1.09,2.29-.33.45-.35.96-.02,1.48.68,1.08-.49,1.48-.92,1.98-.67.77-.76-.52-1.24-.63-.52.21-.22,1.17-.94,1.1-.52-.06-.24-.71-.51-1.04-.47.41-.64.9-.68,1.52-.06.8-.72,1.53-1.25,1.71-.78.27-.74-.93-1.22-1.42-.14,1.1-.14,1.1-1.36,1.02-.08,0-.21.1-.26.18-1.11,1.74-2.53,1.06-3.98.57-.71-.24-1.29-.36-1.11-1.35.26-1.39-1.39-.07-1.51-1-2.01.38-1.97-1.1-1.77-2.25.59-3.34-.63-6.35-1.56-9.4-.36-1.17-1.44-2.01-2.71-2.3-3.53-.82-7.08-1.59-10.62-2.38-.22-.05-2.85.72-2.99.63-.74-.5-1.81.11-2.45-.87-.38-.58-.91-2.17-1.89-.35-.18.34-.56.31-.65-.04-.4-1.57-2.11,1.19-2.27-.67-.18-1.99-1.55-.41-2.03-.77-2.56-1.96-5.72-1.73-8.57-2.6-2.91-.88-5.9-1.48-8.87-2.13-.63-.14-1.58-.65-1.68.71-.08.98.17,1.59,1.3,1.59.58,0,1.15.16,1.72.28,1.6.33,1.68.63.89,2.06-.29.52-.79,1.14-.4,1.8.61,1.04-.25,1.57-.77,2.07-.81.76-.84-.67-1.19-.63-2.26.23-2.16-1.77-3.01-2.92-.56-.76-1.29-1.35-1.15-2.41-.88-.05-1.06-1.39-1.96-1.2-.76.16-1.04-.31-1.19-.73-.69-1.85-1.87-1.57-3.55-1.49-1.89.08-3.86-.44-5.82-.2-1.48.18-3.05.09-4.41,1.19,1.36.61,2.85.31,4.42,1.11-1.4.22-2.48.2-3.53-.09-1-.27-1.92,0-2.19.87-.29.94.74,1.19,1.45,1.39,1.31.37,2.55,1.41,4.01.03.6-.56,1.38.07,1.62.98.41,1.56,2.38,2.22,3.64,1.21.48-.39.92-.34,1.46-.26.88.13,1.86.13,2.35-.73.44-.77.83-1.29,1.75-.92.75.3.83.83.38,2.25.63.01,1.28-.26,1.86.18.38.29.91.76.58,1.12-1.59,1.72.18,1.43.97,1.73,2.74,1.02,5.49,2.03,8.22,3.07.61.23,1.16.37,1.85.17,1.61-.46,1.68-.37,1.91,1.37.08.6,2.48,2.37,3.11,2.28.06,0,.11-.03.17-.05.66-.24,1.32-.26,1.69.44.5.95-.84.95-1.01,1.75-.14.64-.61-.6-1.29-.47.13.83.73,1.63-.04,2.6-.34.42.54,1.71,1.31,1.79,1.14.12,2.28.87,3.49.17.6-.35,1.31-.26,1.7.4.6,1.01-.72,1.2-.99,1.88-.27.67-.6-.57-1.12-.57-.58.77-.54,2.37-2.24,1.73-.33-.13-.32.11-.4.35-.74,2.11-.71,2.04-2.53.97-.49-.29-.88-1.19-1.87-.58-.38.23-.67-.84-.83-1.32-.17-.53.34-1.13.84-1.17,1.89-.15,2.4-.87,1.36-2.56-.18-.29-.02-.77-.02-1.39-.68.65-1.4,1.5-1.55-.21-1.07.89.1,1.67-.44,2.52-.43-1.93-2.17-3.24-2.25-5.33,0-.15.17-.43-.04-.42-2,.09-1.73-1.66-1.82-2.65-.1-1.13-.34-1.71-1.43-1.97-1.22-.29-.88,1.01-1.54,1.41-.89-.75-.52-2.54-2.13-2.7-.46-.05-1.02-.61-1.33.21-.25.69.28.92.74,1.19,1.84,1.06,2.27,2.44,1.36,4.24-.12.24-.15.78-.1.8,1.04.31,1.42,1.79,2.7,1.58.68-.12,1.46-.31,1.55.53.08.76-.73,1.83-1.15,1.83-1.21,0-2.24.65-3.44.66-.73,0-.86-.18-.82-.67.16-1.73-1.03-2.54-2.14-3.53-1.34-1.19-2.47-2.17-3.51.23-.14.32-.59.35-.67.02-.18-.74-1.14-1.04-.78-2.15.46-1.43,1.19-2.83,1.14-4.4-.01-.41.37-1.36-.72-.67-.05.03-.4-.25-.46-.43-.48-1.63-1.91-1.65-3.19-2.01-3.71-1.06-7.39-2.19-11.11-3.3.44,2.05,1.5,2.91,3.37,2.45.99-.24,1.82.33,2.88.03-.2.9-.67,1.54-1.31,2.24,1.1.18,1.89.19,2.78-.54.61-.51,1.89-.4,2.32.33.54.92,1.37,2.01.56,3.23-.15.23-.5.35-.63.58-1.31,2.45-1.86,2.59-4.25,1.07-.03,1.26.47,1.77,1.79,1.77.52,0,1.08-.18,1.56-.05.67.18,1.47.51.63,1.43-.22.24-.42.47-.14.74.26.25.59.31.97.18,1.94-.65,3.03-.3,4.21,1.31.54.74,1.1,1.24,2.11,1.55,1.14.35,1.78,1.7,2.52,2.72.16.23.39.7.42.69,1.99-.88,2.34,1.13,3.39,1.89.97.7,1.86,1.27.65,2.58-.4.44-.05.97.72.94.84-.04,1.86.08,1.77,1.12-.04.44-.87,1.77-1.9.53-1.53,1.44-3.35-.55-4.92.42-.7.43-.73-.18-.97-.56-.57-.9-.96-1.94-1.94-2.54-.47-.29-.6-1.34-1.55-.42-.4.39-.55-.56-.87-.85-.47-.42-.21-.85.11-1.23.28-.33.65-.48,1.09-.47.51.02.94-.12,1.07-.69.11-.49-.13-.91-.59-.87-.53.05-1.05-1.09-1.59-.02-.11.22-.57.28-.65.5-.79,2.04-1.15.52-1.61-.18-.45,1.35-2.65,1.97-3.97,1.28-.54-.28-1.47.33-1.75-.71-.38.23-.58.6-.57,1.01,0,.45.05,1.04.74.93.61-.09,1.19-.16,1.62.34.23.27.73.71.15,1.01-1.35.71-.29,1.13.16,1.53.69.62,2.46.82.69,2.21-.08.06,0,.53.14.62,1.47.98.49,1.79-.17,2.6-.46.56-3.55.58-4.09.06-.29-.28-1.69-.75-2.29-.86-.64-.12-.73-.75-.82-1.22-.13-.7.4-1.1,1-1.21.65-.12,1.29-.1,1.46-.94.07-.35.25-.69-.14-.94-.3-.19-.71-.39-.96-.08-.41.51-.69,1.09-1.14.06-.29-.66-1.05-1.46.02-1.92,1.51-.65,1.14-2.17,1.76-3.22.18-.31-.38-1.05-.52-.81-.57,1.01-1.17.88-1.92.36-.9,1.46-1.03,0-1.45-.38-.6-.53-.57-1.83-1.85-1.51-.12-.55-.8-.92-.54-1.57.24-.6.72-1.04,1.37-.79.82.33,1.48-.08,2.2-.22.59-.12.44-.53.39-.95-.06-.57-.2-.66-.59-.23-.54-.74-1.02-.52-1.73-.11-.36.21-.96-.52-.71-1.08.35-.77.01-1.06-.6-1.33-.61-.27-1.21-.52-1.73.17-.28.37-.79.96-.96.16-.33-1.57-1.31-1.9-2.65-1.93-.38,0-.48-.71-1.04-.45-.11.98.71,1.55,1.25,1.95,1.31.98.89,2.11.52,3.2-.14.4-.39.63-.02,1.02.53.56.56.93-.19,1.51-.65.51-.27,1.25.43,1.71.41.27,1.02.3,1.29,1.25-2.36-1.21-4.86-1.33-6.91-2.78-1-.7-2.05-1.29-3.42-.97-.95.22-1.12.64-.89,1.47.37,1.33-.54,2.85-1.78,3.12-.76.17-.54-.78-1.16-.93.14.97.27,1.86.4,2.76-.1.02-.21.04-.31.06-.31-1.21-.78-2.4-.89-3.63-.13-1.47-1.53-2-1.95-3.25-.71,1.64-.73,1.64-4.53-.17-.25,1.48-.07,2.96-.11,4.56-.22-2.07-1.9-2.32-2.98-1.74-1.29.69-2.05-1.09-3.19-.23-.1.08-.8-1.13-.73-2.02-.21.77-1.12.78-1.4,1.46-.07.17-.46.39-.5.36-.97-.87-2.07-.07-3.1-.24-.72-.12-.81-.63-1-1.05-.27-.6.18-1.01.67-1.24.3-.14.68-.17,1.01-.13.51.06,1,.1,1.1-.52.15-.9-.81-.7-1.08-.71-.82-.03-1.25-.2-1.48-1.08-.26-.95,0-1.42.88-1.75,2-.75,2.02-.87.51-2.09-.85-.69-.87-2.14.06-2.74.79-.51,1.01-1.21,1.18-2.3-.42.35-.51.97-.85.81-.66-.31-1.21-1.08-1.09-1.65.28-1.37-.73-2.07-1.18-3.25-.19.79-.03,1.48-.51,1.99-.38-.02-.52-.34-.56-.58-.39-2.28-2.26-2.11-3.87-2.36-.75-.12-1.18.35-1.57.9-2.19,3.18-4.38,6.37-6.58,9.54-.42.61-.58,1.26-.57,1.98.06,4.98-.06,9.95-.34,14.92-.24,4.23.86,8.36,1.15,12.56.34,4.96.62,9.92,1.36,14.85.15,1.03-.27,1.39-1.23,1.39-5.04-.01-10.07-.02-15.11,0-1.2,0-1.51-.65-1.45-1.68.14-2.69.17-5.38.44-8.06.53-5.14.11-10.3.6-15.43.3-3.2.49-6.41.81-9.61.11-1.05-.26-1.58-1.17-2.04-5.07-2.55-10.14-5.12-15.16-7.76-1.24-.65-2.55-.5-4-.92.23.88,1.08,1.47.49,2.23-.42.54-.55,1.97-1.73.49-.63-.8-4.05.46-4.4,1.49-.04.11-.09.32-.06.33,1.55.73.14,2.51,1.22,3.41.16.13.31.56.26.6-1.24,1.02-.81,2.49-1.12,3.77-.38,1.59-2.29,1.49-3.39,2.33-.46.35-2.15.23-3.31-.07-1.52-.38-1.75-1.34-1.81-2.61-.03-.67-.48-1.16-1.07-1.5-1.49,2.28-1.26,3.18,1.17,4.51.59.32,1.33.73,1.09,1.39-.32.89-1.14,1.46-2.05,1.9-.7.34-.83-.18-1.25-.4-.78-.42-1.73-1.29-2.54-.78-.93.58-1.16.17-1.38-.48-.25-.75.22-1.46.9-1.39,2.37.23,1.92-1.86,2.56-2.99.42-.74-.26-1.17-.97-1.28-.75-.11-.92.31-.73.96.02.06.03.12.02.17-.13.8-.63,1.58-1.25,1.72-.61.14-.75-.88-1.07-1.4-.14-.23-.14-.55-.2-.86-.98,1.07-2.88.46-3.49,2.12-.48,1.29-2.13,2.19-1.4,4.05-.19.17-.51-.11-.84-.13-.89-.05-1.3.47-1.37,1.25-.07.81.53.93,1.17.94.75,0,1.41.21,1.72.96.28.68-.44.87-.7,1.28-.12.2-.39.46-.55.28-.53-.6-.88-.76-1.52-.02-.14.17-1.27-.47-1.93-.78-.19-.09-.41-.44-.55-.15-1.29,2.7-4.56,3.43-5.95,6.01-.18.33-.75.48-.5.99.21.41.63.46,1.06.48.53.02,1.06.05,1.49.42.43.37.67.55.08,1.19-.62.68-1.45,0-2.1.83-.88,1.13-.93-.63-1.53-.87-.64-.26-1.26-1.23-1.87-.96-.79.34-2.01.8-1.26,2.32.19.39-.78,1.06-1.21,1.49-.49.49-.65-.56-1.19-.93-.03,2.34-1.83,1.08-2.59,1.03-1.23-.07-2.93-.43-2.7-2.5.03-.3.17-1-.7-.78-.9.23-1.05-.62-1.15-1.16-.12-.64.5-.83,1.03-.97.48-.13,1.05-.03,1.52-.7-.72,0-1.68.28-1.6-.7.06-.83.17-1.89,1.18-2.17.76-.22,1.04-.5,1.41-1.26.42-.87,1.65-1.28,2.27-2.25.26-.4,1.1.07,1.27.54.34.91,1.01,1.17,1.84,1.36.59.14,1.05.49,1.05,1.22,0,.22-.58.7.2.69.4,0,.73-.33.68-.68-.22-1.35.81-2.12,1.35-3.12-.11,1.05,1.02,1.52,1.14,2.5.13,1.02,1.11,1.31,1.83,1.32.83.01,1.18-.8,1.17-1.68-.49-.18-.87,1.14-1.31.15-.2-.46-.86-.92-.35-1.57.44-.56,1.12-.95,1.67-.53,1.14.86,1.97.08,2.6-.5.95-.87,2.3-1.62,2.09-3.46-.44,1.32-1.39.52-1.83.7-1.76.7-1.44-.93-1.38-1.28.18-.93.8-1.63.76-2.82-.04-1.54,1.73-.34,2.54-.86.4-.26.8-.04,1.19-.12,2.2-.47,3.91-1.66,5.16-3.48-1.04.48-3.06-.02-3.45-1.07-.47-1.25-1.3-.83-1.57-.2-.71,1.66-1.69,2.35-3.58,2.68-1.61.28-2.69,1.99-3.15,3.79-.17.66-.62,1.52-1.2,1.58-1.54.16-.95,1.16-1.16,2.04,1.28-.76,2.89-.8,3.9-.17.61.38.95.91.52,1.6-.21.33-.49,1.17-.95.54-.85-1.15-1.76.29-2.56-.26-1.4-.95-1.26,1-2.08,1.14-1.13-1.31-1.12-1.29.29-2.94.25-.29.37-.72.48-1.1.19-.6.55-1.38-.02-1.79-.54-.38-1.04.34-1.5.65-1.58,1.07-3.12,2.2-4.8,3.16,1.51-1.97,3.76-3.12,5.67-5-1.72-.09-2.06-1.83-3.41-2.22-.41-.12-.66-.34-1.24-.2-1.55.39-3.41-.38-4.6,1.35-.05.07-.72-.12-.92-.35-.74-.8-1.23-.28-1.69.27-.62.75-.93,1.99-2.34,1.34-.18.41-1.39.41-.53,1.23,1.37,1.32.19,2.22-.67,2.79-.72.48-.83,1.07-1.02,1.7-.2.7-.21,1.34.88,1.1.74-.16,1.39.02,1.82.71.54.86-.56.83-.69,1.31-.26.89-1.13,1.46-1.17,2.5-.02.52-.14,1.28-1.21.89-.77-.28-1.01.57-1.19,1.19-.16.56-.25,1.15-.42,1.7-.34,1.11,0,1.5,1.08,1.03.66-.29,1.19-.12,1.08.54-.15.89-.3,1.67.32,2.45.5.64.9,1.35,1.39,2.11.5.12.52-.65,1.01-.67.37-.02.71.03.94.34.19.26.21.53-.04.79-1.14,1.21-.97,2.34.21,3.43.38.35.9.82.5,1.35-.94,1.26.02,1.61.86,2.07.35.19.97.3.78.75-.17.41-.85.99-1.12.91-1.29-.39-1.82.57-2.37,1.27-.58.73-.82.67-1.2-.08-.28-.56-.64-1.05-.81-1.7-.19-.77-.6-1.56-1.13-2.14-.85-.93-1.04,1.52-1.84.53-.63-.77-.97-1.1-1.64-.15-.67.95-1.87,1.46-2.03,2.88-.12,1.06-.94,2.13.94,2.4.47.07.93.98.47,1.22-.46.24-.04,1.83-1.29.87-.19-.15-.95.22-1.3.52-.54.46-.18.89.23,1.29.25.23.49.64.28.95-.55.83-.13,1.11.59,1.38.51.19,1.05,1.03.89,1.08-.74.22-.78,1.28-1.5,1.26-1.23-.04-2.43.78-3.71.05-.38-.22-.98-.17-1.5.16-.7.45-1.46.4-2.04-.31-.27-.33-.56-.74-.96-.25-.33.4-.14.79.35.95.58.2,1,.57.65,1.15-.28.47-.69,1.16-1.29,1.03-.63-.13-1.05-.77-.88-1.51.2-.84-.27-.99-.92-1.11-.92-.17-1.43-.89-1.36-1.93.05-.69-.46-.24-.68-.35-.88-.43-.91-.61-.04-1.2.37-.25.34-.57.37-.91.12-1.2,1-1.22,1.92-1.33,1.06-.12,1.22.56,1.48,1.33.35,1.05.62,2.31,2.25,1.98,1.11-.23,1.43-.81.7-1.71-.87-1.07-.89-1.96.51-2.41,1.16-.37-.02-2.01,1.28-2.12.84-.07,1.67.3,2.51-.34.6-.46.96-.91,1.19-1.62.77-2.38,1.02-4.91,2.03-7.22.33-.75.18-1.33-.46-1.85-.59-.49-1.04-1.11-1.28-1.86-.45-1.35-1.13-1.47-2.38-.61-.79.54-1.66.61-1.59-.72.06-1.16-.7-1.91-1.11-2.83-.59-1.34-1.9-.99-2.83-1.02-.64-.02-.64,1.05-.32,1.74.17.37.42.78.07,1.14-.36.37-.78.05-1.14-.08-1.27-.45-2.52-1.02-3.59.42-.36.48-.66.2-.9-.25-.61-1.17-1.33-.93-2.22-.23-1.05.82-2.21,1.48-3.33,2.21-.26-.39-.14-1.94-1.05-.34-.13.22-.4.43-.55.23-1.08-1.45-.96.2-1.34.51-.44.35-.71,1.23-1.22,1.07-.47-.15-.77-.91-1.11-1.41-.14-.2.17-.56-.25-.76-.23.41-.54.79-.65,1.22-.28,1.07-1.95,2.04-.27,3.31.08.06-.13,1.26-.9.89-.88-.43-.99.19-1.28.66-.77,1.24-.76,2.78-1.67,4.01-.32.43-.89,1.38-.86,1.41,1.26,1.31.1,2.24-.44,3.25h.03c-.67-.92-2-.96-2.49-2.12-.69.73-1,1.63-2,1.95-.03-.93-.09-1.82-1.41-2.04.66,1.46.09,2.36-1.25,2.85-.37.13-.13.36-.15.55-.17,1.39-.57.86-1.5,1.54-2.53,1.85-2.57-1.44-4.09-1.71-.89-.16-.48-1.71.82-2.07.74-.2,1.18-.46,1.14-1.25-.02-.5-.21-1.19-.75-.54-1.17,1.39-1.31-.04-1.6-.56-.33-.6-.28-1.32-1.22-1.61-.5-.15-.72-1-.29-1.69.16-.27,0-.6-.25-.77-.39-.27-.43.21-.63.34-.95.63-1.75.09-2.39-.51-.68-.62-.61-1.38.21-1.91,1.54-.99-.44-2.07.07-3.1-.09.14-.16.29-.26.41-1.63,1.85-2.6,1.78-3.92-.3-.47-.74-.92-1.5-1.28-2.29-.63-1.41-.34-1.81,1.17-1.63.59.07,1.07.14,1.22-.57.04-.2.32-.65-.28-.51-2.05.48.18-1.65-1.02-1.68.2-.69.77-.82,1.37-.84.36-.01.62.16.89.44,1.45,1.5,4.01,1.73,5.71.57.09-.06.2-.11.3-.17-.78-1.01.1-1.95.08-2.89-.02-1.21-.97-2.06-2.55-2.6,2.02-.19,3.37.7,4.85.97.55.1,1.26.41,1.62-.18.32-.53-.38-.89-.62-1.33-1-1.82-2.65-2.7-4.56-3.31-.85-.27-1.35.03-1.83.59-.4.47-.24,1.15-1.1,1.55-.69.32.58.83.78,1.46-1.81-.18-1.17,2.11-2.57,2.42-.18-.56-.09-1.12.04-1.67.13-.52.42-1.09-.54-1.05-.55.02-.78-.42-.72-.81.09-.54.78.15,1.06-.47-.54-.67-1.77-.83-1.85-2.02-.03-.38-.43-.47-.84-.37-.42.1-.55.35-.61.73-.11.73.15,1.25,1.17,1.69-2.14-.11-3.86.76-5.83.17.71-.88.53-1.47-.65-1.52.39-.9,1.22-.84,1.85-1.23-.29-.03-.52-.03-.75-.07-.45-.07-1.13-.06-1.12-.59.02-.63.92-.87,1.03-1.64.04-.25.89-.15,1.09.13.82,1.14,1.5,2.02,2.86.49.17-.19,1.46.02,2.05-.63.42-.46.03-1.21-.15-1.07-1.16.87-2.16-1.02-3.3-.06-.41.35-.92.19-.68-.6.15-.5.09-1.05.25-1.55.33-1.05.41-1.63,2.1-1.02,1.23.44,3.07,1.56,4.73.46.12-.08.34-.04.51-.02.1.01.2.11.35.2-.29,1.08-1.64.3-2.19,1.31,1.37-.05,2.49.14,2.33,1.82-.03.29.41.31.72.29.77-.05,1.09.35.95,1.08-.18.93.35,1.25,1.27,1.33-.87-.97-.18-2.58-1.75-3.37-.7-.35-.33-1.57-.42-2.34-.08-.7.92-.39,1.45-.29,1.13.2,1.84-.79,2.91-.94,1.87-.26,3.63-.43,5.27.68.27.18.42.16.58-.05.86-1.11,1.82-.76,3.01-.53.95.18.04,1.83,1.32,1.27.44,1.46,2.64,1.05,2.88,2.72.1,0,.3,0,.3-.02.26-1.16,3.07-.7,1.83-2.66-.68-1.07-.45-2.33-1.21-3.37-.94-1.28-.53-2.32.89-3.15.35-.21.69-.43,1.02-.68,1.62-1.21,2.39-.94,2.73,1.11.11.67.26,1.08.91,1.26.6.16,1-.09,1.35-.56.24-.33.38-1.18.9-.69.45.43,1.21.79,1.2,1.61,0,1.42,1.47,3.16,2.9,3.18.74.01,1.25.22,1.66.75,1.02,1.31,2.33,1.04,3.67.78.59-.11.72-.5.81-.99.08-.48.17-.89-.51-1.07-.8-.21-.57-.81,0-.83,1.5-.06,3.02-.66,4.54-.06-.06.18-.06.32-.13.38-.48.44-1.74.13-1.4,1.37.32,1.17,1.21.58,1.89.52.76-.07,1.5-.26,2.26-.3,1.3-.07,2.16-.48,1.96-2.01-.1-.83,1.03-1.15.81-2.19-.37-1.78-1.84-2.72-2.74-4.08-.03-.05-.13-.11-.13-.1-1.69,1.92-2.7-1.54-4.38-.55-.67.4-.65-.63-.57-.87.42-1.31-1.15-1.89-1.02-3.04-.58.11-1.14-.3-1.77.25-1.12.98-1.76.57-1.62-1.22-.61.77-1.05,1.32-1.77,2.22-.26-2.73-2.1-2.72-3.87-2.99-1.76-.26-3.59-.28-5.25-1.08,4.39.06,8.68,1.28,13.09.95.21-.02.37-.27.25-.67-.74-.31-1.37.29-2.06.42-.38.07-.72.03-.92-.31-.18-.3.09-.51.18-.78.29-.78.93-1.35,1.28-2.12.31-.66,1.74-.4,2.15.49.55,1.18.92,2.04,2.55,1.54.61-.19,1.53.44,2.25.81.71.36,1.36.47,1.89-.2.75-.94,1.62-1.14,2.84-1.16.76-.01.9.27,1.11.67.33.64-.1.93-.64,1.17-.53.24-1.55.19-1.32,1.01.16.58,1.1.64,1.78.83,1.49.42,3.01-.06,4.99.67-.99-1.94-1.76-3.46-2.55-4.97-.19-.36-.56-.64-.67-1.01-.42-1.48-1.01-2.07-2.3-.68-.56.6-1.3.42-1.97.12-.87-.39-1.99-3.8-1.61-4.67.42-.95,1.86-.31,2.2-1.63.17-.68,1.6-.36,2.17-.53,1.82-.57,3.01,1.16,4.6.73.11-.03.24-.02.35,0,.93.19,1.56-.31,2.11-.95.18-.2.1-.55-.1-.6-.71-.16-1.43-.29-2.16-.33-1.1-.05-2.39.24-2.86-1.13-.5-1.46.27-2.86,1.55-3.32.29-.1,1.19-.1.79-.34-1.32-.79,1.75-1.84-.35-2.54-1.34-.44-1.86-2.09-1.56-3.32.19-.8,1.49-1.34,2.31-1.95.17-.12.49-.02.68-.13,1.17-.68,1.86-.57,1.97.97.07,1.07,1.21,1.47,1.68,2.33.32.6.49-.11.72-.24,1.06-.62,1.59-.22,2.08.82.36.77,1.19,1.25-.09,1.84,1.19.05.72,1.18,1.13,1.73,1.48,1.98,4.4,2.21,5.58,4.57.18.36.51.28.72.07.46-.46.84-.52,1.3.02.23.27.66.4.9,0,.28-.45-.11-.76-.4-1.03-.49-.45-1.12-.22-1.69-.29-.35-.05-.75-.11-.81-.53-.06-.41.24-.59.61-.71.65-.22,1.29-.48,1.82-.68.39-.93-1.61-.93-.59-1.86,1.02-.93,2.13-.91,3.11.89.15-2.2,1.03-3.02,2.79-2.65.08.02.18-.08.26-.12-.53-.74-.23-1.28.54-1.36,1.21-.12,2.44-.06,3.67-.04.24,0,.39.18.44.46.3,1.81.31,1.81,2.25,2.02-.32-1.07-.9-2.02-.94-3.12-.02-.57-.39-1.25.38-1.51.59-.2,1.12.24,1.54.63.25.22.35.6.55.89.18.28.31.69.77.57.33-.09.38-.39.4-.7.1-1.28.62-1.86,1.95-1.19.37.19,1.03.22,1.14-.11.82-2.36,1.55-.51,2.28.02.32.23.54.62,1.16.64-.18-.76.34-1.58-.99-1.99-.76-.23-.22-1.28.09-1.81.57-.93,1.33-1.75,2.17-2.83-1.74.52-3.43.3-4.68,1.66-.54.59-.39,1.52-1.29,2.02-.32.18-.5.47-1.07.62-1.35.36-1.55-.09-1.45-1.21.03-.36.32-.92-.38-.91-.49,0-1.35.16-1.22.66.42,1.59-.67.84-1.09.72-1.39-.42-2.56-.49-3.6.84-.58.75-1.92.17-2-.92-.16-2.08-1.18-3.7-2.35-5.3-.59-.8.18-2.13,1.6-2.3,1.61-.19,1.64-1.2,1.72-2.36.07-1.02,1.17-1.22,1.74-1.41.68-.22,1.21.78,1.01,1.49-.59,1.99,1.32,2.79,1.9,4.21.2.48.96.03,1.47-.02,1.25-.12,2.49-.49,3.15,1.24.44,1.13,1.67,1.19,2.73.85,1.51-.48,3.05-.82,4.61-1.07.06,0,.13,0,.17-.03,1.34-1.23,2.38-2.78,4.07-3.64.21-.11.02-.64-.27-.7-2.26-.48-3.46-2.03-4.34-4.02-.38-.84-1.38-1.02-2.14-.88-.94.17-1.99-.41-2.81.38-.84.8-1.42-1.32-2.27-.17-1.04-1.01-1.99.33-3.11.13-1.08-.19-1.03-.84-1.19-1.4-.21-.74.36-1.39,1.04-1.31,2.07.22,2.7-1.51,3.91-2.54-2.36-1.05-3.9-.58-5.28,1.44-.64.93-1.05-.55-1.68-.28-.12-.32-.23-.63-.44-1.19-.79,1.18.42,2.32-.41,3.33-.98-1.08-.78-2.38-.77-3.63,0-.37.21-.49.58-.42.29.05.72.01.7-.33-.15-3.38,3.14-1.36,4.33-2.7.21-.23,1.32.24,1.52,1.09.11.45.19.94.41,1.33.36.64,1.01.45,1.58.4.3-.03.63-.17.61-.5-.03-.53-.62-.44-.93-.66-.87-.63-.79-3.09.16-3.66.53-.31,1.34-1.17,1.02.5-.13.7.76.44,1.13.73.42.32.48-.41.45-.64-.09-.63,1.23-.94.4-1.63-.85-.7-1.71-1.43-2.8-1.74-.32-.09-.49.26-.63.52-.27.52-.61.97-1.75,1.51,1.4-2.44.64-3.85-1.2-4.98-1.55-.95-2.66-3.05-5.13-1.15.47-1.48,1.8-2.82-.68-3.07-.46-.05-.17-.95-.29-1.45-.16-.67-.4-1.22-1.11-1.43-.79-.23-1.09.35-1.28.92-.98-2.54-1.99-4.77-4.88-5.69-1.46-.47-2.19.91-3.41.75-.18-.03-.1.39-.05.62.11.53.57,1.16-.23,1.52-.83.37-1.68.11-2.34-.33-.85-.57.42-.89.33-1.42-.02-.11-.06-.22-.14-.51-1.1,1.4-1.97.43-2.53-.37-.46-.66.2-1.14,1.07-1.22-1.54-.54-1.25-2.6-2.84-3.01-.23-.06.06-.5.26-.72,1.16-1.24,2.45-2.26,4.25-2.31.59-.02,1.02-.11.99-.88-.02-.66-.43-.74-.91-.8-.76-.09-1.88-1.3-1.75-2.03.09-.5-.04-.61-.48-.64-1.26-.1-2.16-.6-2.62-1.92-.18-.52-.75-.83-1.42.07-.8,1.07-1.85,1.93-2.09,3.34-.05.32-.42.62-.61.35-.66-.93-.73-.35-1.01.25-.16.35-.48.12-.64-.2-.11-.23-.14-.69-.56-.4-.4.27-.81,1.05-1.07,0-.15-.61-1.22-.94-.52-1.81.48-.59,1.05-.75,1.71-.49.66.25,1.26.05,1.9-.03.68-.09.86-.48.84-1.09-.02-.57.14-1.24-.75-1.27-2.22-.06-4.18-1.11-6.26-1.67-.52-.14-.82.03-1.13.52-1.19,1.86-2.17,1.88-3.38-.09-.87-1.42-1.99-2.06-3.58-2.02-.34,0-.84,0-.99.2-.69.96-1.12.65-1.84-.04-.71-.68-1.34.05-1.64.67-.67,1.42-1.61,2.09-3.15,1.44-.82-.34-1.47.4-2.34.23-.48-.1-.61.85-.28,1.44.52.9-.1,1.47-.66,1.95-.74.64-1.12-.08-1.5-.58-.14-.19-.25-.43-.52-.35-.34.09-.47.39-.37.69.21.67-.64,1.85.97,1.93.35.02,1.4.77.02,1.2-.55.17-.11.96-.72,1.05-.6-.14-.52-.87-.98-1.15-.2.49-.39.96-.57,1.4-.77-.02-.51-.73-.79-.97-.23.47-.48.92-.69,1.39-.26.6-.45.99-1.02.18-.44-.64-.93-.54-1.59-.03-.69.54-1.5.38-2-.53-.4-.74-.65-1.45.3-1.92,1.62-.8.15-2.49,1.03-3.55.16-.2-2.44-.87-2.91-.44-.73.66-1.23,1.29-1.69-.27-.3-1.01-3.41-1.91-4.26-1.28-1.05.78-1.55.31-1.76-.62-.24-1.08-1.07-1.48-1.76-1.11-1.5.81-2.1.05-2.59-1.23-.75.88-1.35,2.38-2.43,1.59-.87-.63.42-1.5.84-2.24.16-.29.18-.64.53-.84,1.2-.71.83-1.46.02-2.19-.73-.66-1.09-1.52-1.29-2.44-.18-.88.45-1.24,1.15-1.5.67-.25.83.1.85.68.02.81.39.25.62.14.37-.18.79-.24.68.3-.15.77-.12,1.07.79.86.49-.11.56.32.38.7-.33.7.13,1.27.41,1.8.18.34.39,1.01.93.91.67-.13.56-.75.53-1.29-.02-.33.02-.84.22-.98.93-.64,1.35-1.35,1.5-2.56.14-1.11,1.27-2.09.22-3.3-.03-.04-.04-.11-.03-.17.04-1.37,1.86-1.26,2.07-2.65.19-1.29,1.19-1.8,2.52-1.27.51.21.93.13,1.02-.51.09-.6-.38-1.05-.78-.95-2.39.57-1.6-1.94-2.64-2.67-.22-.15.02-.59.3-.71.59-.25,1.38-.13,1.57.32.55,1.27.59.62,1.09-.04.37-.49,1.17-1.52,1.88-.02.25.53,2.26-.2.87,1.5,1.51-.03,2.25-.36,2.32-1.9.1-2.52,1.57-.15,2.52-.7-1.39-.83-2.34-2.13-3.87-2.71-.32-.12-.91-.27-.7-.58.86-1.27,0-2.4-.06-3.59-.07-1.62,1.56-1.14,2.71-1.53-1.91-.97-.55-2.25-.33-3.36.11-.55-.09-1.19.74-1.86.96-.79,1.88-.2,2.74-.69.48-.28.79.68.55,1.29-.16.43-.53.77-.72,1.19-.35.76-.2,1.59.27,2.16.4.49,1.02.27,1.5-.23.47-.48.97-.26,1.37.18.39.43.56,1.25,1.46.68.34-.21.47.18.55.47.17.62.03,1.15-.42,1.61-1.39,1.41-1.51,3.9-.13,5.35.6.63.5,1.39.77,2.06.35.89-.65.43-.99.67.18.38.53.29.76.22,1.69-.52,2.54-.67,1.42,1.6-.35.7.91,2.13,2.03,2.56.56.22,1.01.38,1.4.86,1.89,2.28,3.64,2.35,5.74.36,1.03-.97,2.36-1.41,3.73-1.68.6-.12,1.55.18,1.04-1.09-.36-.91.7-.4.95-.75-.57-.98-1.34-.97-2.28-.63-.58.21-1.44.53-1.7-.24-.27-.84.7-.67,1.17-.91.29-.15.53-.4.76-.74-1.02.16-1.73-1.41-2.84-.37-.39-.54-1.14-1.11-1.18-1.54-.13-1.17,1.09-1.68,1.82-2.39.55-.52,1.15-.5,1.66.15.1.13.25.27.4.33.6.21.92,1.32,1.76.68.68-.52.69-1.34.4-2.09-.47-1.22.07-3.03-1.96-3.36-.19-.03-.5-.51-.45-.68.49-1.58-.56-2.18-1.64-2.88-1.61-1.04-.22-2.16.35-2.7,1.3-1.26.37-1.54-.57-1.47-1.36.1-2.19-.32-2.89-1.45-.26-.42-.86-.83-1.5-.59-.59.22-.92.6-.89,1.33.03.86-.46,1.52-1.35,1.52-.71,0-1.45-.26-.82-1.31.12-.2-.33-.22-.51-.33-1.59-.96-1.57-1.42.21-2.43-.56-.38-1.5-.45-.81-1.58.37-.59-.45-1.23-1.19-1.44-.28-.08-.58-.11-.87-.09-1,.08-1.3-.61-1.56-1.35-.12-.35-.16-.79.32-.81.72-.03,1.55-.31,2.07.52.11.18.2.37.3.58,1.61-1.62,2.54-1.63,3.44-.18,1.07-2.41.3-4.93.11-7.47-.37.53-.18,1.77-1.01,1.54-.72-.2-.97-1.28-.91-2.2-.55.15-.52,1.07-1.16.66-.46-.29-.77-.91-.62-1.37.5-1.51.35-3.22,1.36-4.58.22-.3.42-.63.79-.61,1.42.07,1.32-.98,1.51-1.93-.2-.04-.37-.13-.5-.09-.58.19-1.49.73-1.65,0-.16-.71.64-1.55,1.53-1.54.96.01,1.57-.37,1.97-1.12.2-.36.37-.6.77-.51.48.11.62.5.61.94-.01.41-.19.86-.07,1.21.16.46.31,1.29,1.17.54.34-.29.87-.34,1.26-.6,1.59-1.04,2.74-.39,3.81.87.74.89,1.73.65,2.52.2.52-.29.24-1.31-.03-1.38-.96-.24-1.54-1.41-2.74-1.03-.7.22-1.27.12-1.18-.89.03-.34.07-.73-.56-.87-1.12-.25-1.54-1.19-1.39-2.25.12-.9-.07-1.28-1.05-1.32-1.27-.06-1.84-.9-1.8-2.13.06-2.4,0-2.58-2.17-1.75-.83.32-.92.08-1.31-.34-1.64-1.77-2.16-1.84-4.37-.7-.86.44-1.68-.1-1.64-1.09.02-.35.05-.69.07-1.04l.45-3.97c1.12-1.06,2.21-2.09,3.66-2.79,2.16-1.04,4.3-.86,6.45-.46.39-.52-.76-1.41.25-1.4.69,0,1.59-1.24,2.21.14.12.28.2.99.8.35.38-.41.22-.66-.17-.99-.68-.58-1.45-.72-2.29-.7-.63.01-1.26,0-2.1,0,.59-.5,1.07-.39,1.48-.33,2.23.3,3.88-.49,4.85-2.52.38-.8.9-.76,1.57-.55,1.32.4,2.41,1.18,3.4,2.08.8.73,1.62.61,2.13-.1.56-.77,1.12-1.08,2.15-.64-.83-1.37-2.41-1.39-3.39-2.71,1.7.27,2.81,1.22,4.09,1.76,1.97.83,3.21.16,3.56-1.92.05-.3.11-.6-.16-.8-.22-.16-.42,0-.63.13-.46.29-.61,1.5-1.38.8-.73-.68-.35-1.8-.3-2.72.02-.32,1.01-.4.48-1.03-.36-.42-.93-.47-1.47-.42-.23.02-.45.11-.67.19-.52.21-1.22.32-1.43-.17-.2-.46-.41-1.18.18-1.71.59-.53.45-1.49,1.36-1.94.78-.38,1.08-.31,1.21.46.24,1.43,1.05,1.37,2,.76.41-.26.75-.61,1.25-.31.87.52,1.28-.08,1.72-.65-.74-.53-.09-2.06-1.1-2.08-1.41-.03-.76-.93-.9-1.49-.57-.43-.89.66-1.39.2-.52-.48-1.52.31-1.8-.67-.24-.82.39-1.26.73-1.9.92-1.74,2.29-2.74,3.95-3.52.56-.27,1.01-.34,1.58.14,1.5,1.28,2.88.93,3.81-.87.59-.19.5,2.07,1.59.48.27-.39.59.35.79.66,1.05,1.57,1.51,1.63,2.9.37.31-.28,2.55-.16,3.12.17.66.38,1.31.78,1.98,1.12.43.22.84.35,1.16-.27.78-1.53,1.78-.68,2.41.03,1.16,1.34,3.16,1.28,3.91-.28.25-.51-.06-.7-.5-.89-.9-.39-1.39-.97-.67-1.93-.67-.55-1,.44-1.65.33.31-.78,1.12-1.11,1.03-2.15-.08-.89.89-1.27,1.84-.86.36.16.7.2.85-.25.11-.35.08-.76-.27-.94-1.21-.59-2.28-1.54-3.96-1.55.49.96,1.9.96,1.67,2.28-1.3-.26-2.05-1.15-2.72-2.16-.65-1-1.25-1.54-2.46-.48-.66.58-1.79.14-2.6-.17-.9-.35.03-.92,0-1.28-.06-.6-.14-1.97-1.05-1.67-2.07.67-2.53-1-3-2.05-.35-.78-.6-.91-1.26-.87-.35.02-.7.09-1.01-.16-.8-.67-.24-2.18-.56-2.32-1.63-.67-.56-1.41-.07-1.82.62-.51-.02-1.52.91-1.86.1-.04-.52-.84-.93-.71-1.33.41-1.5-.59-1.78-1.37-.38-1.06.68-1.17,1.24-1.59-1.53-1.04-1.78-2.41-1.15-4.31.29-.89.17-2.02-.41-2.84-.84-1.19-1.25-2.3-.44-3.68.16-.28-.05-.78-.12-1.47-.39,1.36-.67,2.46-1.03,3.55-.24.73-.8,1.2-1.59,1.1-.45-.05-1.11-.51-.89-.86.39-.62-.76-1.8.72-1.93.78-.07.41-.2.18-.67-.4-.83-.06-1.86-1.01-2.64-.35-.28.81-.8,1.33-1,.72-.28,1.32-.29.86-1.38-.37-.87.52-1.12,1.13-.99,1.67.36,2.31-.72,2.87-1.91.19-.4.48-.49.81-.54.46-.08.93-.79,1.39-.12.41.6,0,1.11-.43,1.53-.29.28-.63.52-.94.79-.63.53-.14,1.09.03,1.56.28.75.75.2,1.13.02,1.46-.67,2.51-1.93,3.3-3.14.78-1.19,1.79-.19,2.5-.85.79-.73,1.5-.73,2.1.43.28.54,1.22,1.42,1.71.24.43-1.03.7.8,1.53-.21,1.04-1.27-.12-2.51.73-3.52.07-.09-.33-.85.41-1.05.23-.06.34-.22.27-.53-.22-1,.49-2.36,1.42-3.07.97-.74,1.66-.52,2.03.54.36,1.04.66,1.96,2.08,1.44.28-.1.52.19.67.46.52.93,1.62.46,1.78.15.66-1.32,2.15-1.37,3.04-2.26.42-.42,1.58-.34.72-1.58-.51-.74.91-.66,1.31-1.24.43-.61,1.67-.03,2.41.28.73.31.72,1.21.24,1.83-.8,1.05-.2,2.78-1.73,3.44.45.96-.07,2.22.96,3.14.29-.64.56-1.19.8-1.75.26-.59.42-1.28,1.24-1.28.8,0,1.02.68,1.31,1.25.19.36.35.74.52,1.11-1.02,0-1.11,1.19-1.81,1.49-2.21.94-2.04,3.1-2.27,4.82-.15,1.11-.2,2.11-.94,2.96-.37.43-.63.86-.25,1.4.35.5.97,1.01,1.44.81,1.39-.6,1.2.14,1.05,1.01-.05.29-.32.71.26.76,1.11.1,1.28.1,1.18,1.06-.13,1.19.99,1.25,1.42,1.9.12.17.7-.17.57-.4-1.16-1.94.35-3.02,1.4-4.3-.37-.12-.88-.19-.88-.29-.09-1.56-1.33-2.35-2.18-3.39-.3-.36-.07-.79-.12-1.18-.12-.99,1.55-1.9.14-2.93.79-1.12.07-2.64,1-3.72.29-.49.35-1,.07-1.5-.82-1.47-.04-1.84,1.22-1.62,1.05.18,1.32-.3,1.2-1.11-.06-.39-.71-.69-.1-1.15.52-.39,1.19-.54,1.63-.13.97.89,1.37.43,1.96-.44.41-.61,1.24-.82,1.95-1.11.4-.16,1.06-.29.99-.85-.07-.56-.42-1.08-1.09-1.2-.11-.02-.23-.01-.35-.03-1.07-.19-.9-1.24-1.29-1.9-.13-.23-.02-.49.26-.54.69-.11,1.32-.16,2.02.23,1,.56,2.24.68,2.97,1.71.68-.92,2.5-.21,2.63-1.36.14-1.2,1.41-1.24,1.56-2.26.07-.43.57-.19.87-.01.3.18.56.23.61-.23.24-2.01,1.56.1,2.16-.56.48.67.2,1.25-.3,1.71-.6.54-.68,1.17-.53,2,1.1-1.14,1.87-.02,2.5.44.89.65.72,1.86.3,2.73-.38.79-.33,1.3.24,1.85.36.35.57.87.88-.19.27-.93,1.08-.63,1.49.19.28.55.32,1.26,1.13,1.55.33-.72-.31-1.05-.58-1.46-.6-.88-.23-1.73.13-2.47.35-.74,1-.4,1.66-.16.95.34,1.54-.34,1.71-1.19.47-2.44,3.44-3.6,5.32-3.65.44-.01.46.45.65.72.41.57.25,1.41.92,1.89.62-.11.17-1.74.89-1.07.57.53,1.63.07,1.72,1.01.08.88-.49,1.43-1.3,1.64-.72.19-1.52.19-1.91,1,.33.58.74-.03,1.08.11.67.27,1.61.04,1.92.96.27.81-.13,1.34-.85,1.69-.55.27-.4.67-.14,1.01.81,1.08.71,1.89-.78,2.25.41.4.68.21.96.15,1.42-.31,1.39.06,1.87,1.39.34.93.16,2.44,1.67,2.79-1.54,1.18-1.31,1.72,1.11,2.83-.2.59-.89.17-1.25.67.95.94,2.72,1.13,2.89,2.9.16-.11.42-.23.41-.31-.31-2.48,2.08-5.16-.72-7.54-.82-.7-1.74-1.96-.78-3.5.39-.63.13-1.67.15-2.52,0-.18.07-.37-.33-.39-1.09-.05-1.79-.93-1.41-1.84.38-.9.17-1.44-.6-1.9-1.03-.62-.96-1.76-.94-2.68.02-.56.29-1.49,1.69-1.07.64.19,2.18.44,2.92-.17,1.71-1.4,3.16.12,4.67.3.47.06.52,1.97,1.18,2.49,1.29.99.4,1.36-.23,1.92-1.42,1.29-2.42.43-3.45-.74.8,1.1-.61,2.24.38,3.38.26-1.2.75-1.62,1.92-.82.51.35,1.42.12,2.14.12.23,0,.53-.13.27-.42-1.41-1.51,1.26-.69.98-1.69-.07-.25.6-.14.83.11.52.57.27,1.18.05,1.8-.37,1.06-1.11,2.12,0,3.2.63.61,1.14.71,1.73-.02.36-.45.9-.79,1.18-1.28.85-1.5,1.72-1.52,2.82-.27.6.69.96.49,1.07-.4.12-.98.29-1.95,1.71-1.46.36.12.46-.29.63-.5.59-.76,1.35-.76,2-.23.6.48.89.48,1.4-.11.61-.7,1.57-.5,2.04.01.4.44,1.4,1.14.43,2.03-.11.11-.28.25-.28.37.03.43,1.59.16.46,1.25-.93.9-1.91,1.42-3.14,1.54-.44.04-1.04-.5-1.29-.03-.3.57-.52,1.41-.31,1.96.41,1.06.54,1.9-.54,2.54-.43.25-.06.27.05.42.7.92.68,1.75-.11,2.68-.32.37-.25,1.09-.29,1.66-.06.75.54,2.01-1.18,1.32-.23-.09-.62.35-.37.59.74.71-.42,1.1-.25,1.83,1.84-.61,3.08.16,4.03,1.6.55.84,1.3.92,2.15.56.65-.28,1.29-.54,2.02-.49.44.03.84-.13.91-.63.08-.54-.16-.81-.71-1.01-.6-.22-1.72-.42-1.44-1.16.3-.8,1.23-1.12,2.34-1.07,1.04.05,2.24-.2,2.79-1.5.26-.61.33-1.61,1.45-1.42,1.11.19,1.89.96,2.16,1.91.16.57.33,1.2.43,1.82.09.53-.62,1.44.39,1.52.76.06,1.65,1.04,2.46-.5.71-1.35,2.49-1.46,4.01-1.15.77.16.08.91.28,1.34.54.13,1.25-.82,1.31-.27.07.68,1,1.11.42,2.01-.58.91-.71,2.01.44,2.96.31-.77.91-1.29.67-2.31-.12-.51-.22-1.7,1.15-1.33.64.17.25-.3.21-.49-.15-.61.04-.78.62-.56.34.13.7.25.79-.28.08-.45.28-.99.73-.49.5.55,1.5-.43,1.76.87.26,1.28.42,2.45-.05,3.67-.53,1.36.27,2.49.5,3.74.19.99.27,2.39-.61,3.41.58.29,1.04.32,1.45.04,1.01-.7,1.8-.44,2.25.79.15.41.13,1.11.79.86.71-.27.12-.75-.01-1.14-.12-.38-.41-.71-.27-1.16.78-2.56.71-4.99-1.14-7.14-.39-.45-.37-.96-.12-1.48.36-.71.48-1.43.14-2.19-.31-.67,0-1.28.58-1.44,1.24-.33,2.44-1.08,3.79-.66.26.08.44.21.54-.1.5-1.58,1.63-.35,2.03-.18.75.32.66,1.58.14,1.98-2.15,1.67-.26,2.5.6,3.56.14.17.52.39.51.4-.94,1.47.8,2.44.68,3.75-.02.17.06.36,0,.51-.82,2.11,1.34,2.23,2.18,3.22.25.3.5-.04.68-.28,1.54-2.15,4.28-2.84,5.92-4.89.36-.45.99.44,1.55-.25-1.66-.34-.35-1.48-.63-2.27-.15-.42.33-.57.68-.6.99-.1,1.45.52,1.85,1.31.23.46.62.83.97,1.22.72.8.74,1.64-.07,2.3-1.29,1.04-1.98,2.38-2.44,3.93-.17.55-.47.97.27,1.25.38.14.59.81,1.19.3.55-.46.32-.88.14-1.4-.33-.94-.26-1.78.96-1.97.47-.07.76-.23.82-.72.17-1.29,1.16-.88,1.91-.88.37,0,.66.19.62.66-.07,1.03-.77,1.17-1.59,1.21-.13,0-.26.19-.37.28.08.45.38.42.68.43,1.32.05,1.87.8,1.08,1.84-.63.83-.67,1.87-1.43,2.65-.76.78.17,2.06.64,2.25,1.95.79.64,1.57.12,2.28-.37.5-.94.84-1.42,1.25,1.31,1.25.84,2.26-1.39,2.99.33.7,1.08.6,1.63.88.14.28.29.55.43.83,1.18,1.47-1.06,2.1-.9,3.55.82-.65,1.56-.43,2.36-.3,1.05.18,2.2.6,3.09-.46-.05,1.45-1.07,2.4-1.77,3.53-.01-.52,0-1.04-.05-1.56-.04-.39-.38-.79-.66-.42-.71.95-1.84.86-2.73,1.33-.6.32-.9.69-.85,1.61.06,1.13,1.11.8,1.27,1.3.44,1.46.9.6,1.35.09.64-.73.8-1.81,1.69-2.37.17,1.15.44,2.3.48,3.46.03.86.16,1.86-1.2,2.17-.52.12-1.47.86-.48,1.73.83.73-.35,1.04-.3,1.58.5.21,1.62-.22,1.39.43-.2.57.21,1.49-.6,1.79-.7.26-1.22-.19-1.67-.69-.08-.09-.13-.19-.19-.29-.35-.52-.48-1.64-1.39-1.02-.65.45-1.4,1.56-.78,2.28,1.5,1.75.33,2.86-.62,4.12-.28.37-1.13,1-.53,1.18.85.26,1.05,1.85,2.43,1.01,3-1.82,6.09-3.49,9.14-5.22.5-.29,1.05-.51,1.53-.82.44-.29,1.54-.21,1.25-.82-.3-.64-.28-1.75-1.32-1.89-.78-.1-1.4-.39-1.43-1.24-.04-1,.69-1.35,1.61-1.48-.89-1.05-2.08-.87-2.98-.63-1.64.43-1.58-.6-1.71-1.57-.1-.72.62-1.88-1.05-1.67-.34.04-.75-.59-.48-.93.69-.89,1.47-1.73,2.33-2.43.08-.07,1.88-1.57,1.9.73,0,.89,1.02,1.77,1.23,3.33.59-1.39,1.3-1.05,1.91-.71.46-.66-.11-1.44.51-1.9.23-.17.51.07.52.29.03.86,1.1,1.74-.26,2.59.52.05.8.09,1.08.11.37.03.82.38,1.07-.18.17-.37-.06-.67-.25-.97-.27-.43-.79-.78-.53-1.39.1-.23.34-.33.59-.21.56.27.92.71,1.03,1.33.08.44-.04.94.48,1.23,1.74.97.85,2.06-.15,2.65-1.61.96-1.33,1.66-.23,2.8.98,1,1.61.65,2.28-.2.45-.56.58-1.45,1.74-.74.51.31,1.08-.31.57-1.07-.19-.28-.41-.55-.58-.94,2.52,1.79,5.01.71,7.7-.04-.39.91-1.11.94-1.7,1.15-.95.34-1.72.96-2.48,1.6-.21.18-.6.35-.32.67,1.68,1.92-.44,1.94-1.37,2.65,1.05.04,2.02.91,2.96-.17.27-.31.7-.13.81.29.17.68.43.19.71.12,2.57-.58,4.94,1.12,7.5.72.1-.02.23.21.58.54-2.75-.62-5.18-.18-7.62.14-.78.1-1.61-.23-2.42-.32-.5-.06-1.12-.12-.45.65.21.24.46.55-.13.45-.91-.16-.94.75-1.54,1.14-.72-.91-.85-2.55-2.53-2.38-1.82.19-3.77-.12-5.22,1.48-.39.44-.72.81-.33,1.36.26.37.35.92,1.14.63.44-.16,1.09.24,1.65.37.41.09.6.41.63.75.03.4-.4.32-.63.45-.49.27-1.29.39-1.24,1.05.05.68.58,1.31,1.17,1.67.35.21.96.26,1.34.1.57-.24-.05-.69-.01-1.04.07-.84-.47-2.22,1.37-1.67.68.21.16-.71.62-.81,1.29-.28,2.48-1.08,3.87-.75.53.13.98.01,1.23-.4,1.01-1.66,2.56-1.82,3.7-.33.24.31.33.74.49,1.13.39-.05.17-.32.16-.49-.03-.5-.35-1.07.29-1.41.4-.21.82-.08,1.14.2.68.6.09.93-.24,1.42-.23.34-.04.92-.17,1.36-.32,1.06.04,2.83-2.19,1.85-.83-.36-1.24.58-1.45,1.46.56,0,1.1-.13,1.56.03.83.28,2.53.22,1,1.84-.62.66.52.7.47,1.26-.12,1.33-2.5,2.85-3.93,2.32.02,1.14,2,1.4,1.2,2.81-.73.08-.34-.92-.95-1.01-.55.4-.03,1.12-.43,1.58-.48-.25.06-.93-.61-1.21-.11,1.17-.39,2.28.69,3.16.41.34.65,1.31.43,1.26-1-.21-.32,2.31-1.75,1.01-.25-.23-.42-.12-.55.09-1.25,1.87-2.11.23-2.99-.39-1.02-.73-1.92-1.56-1.73-3.1.08-.7-.86-.98-1.42-1.09-.45-.1-1.07.12-1.42.75-.39.72-.49.66-1.18-.17-.62.13-.67,1.45-.87,1.1-.56-.99-1.5.64-1.87-.49-.35-1.06-.08-1.69.99-2,.5-.14,1.67.18,1.1-.86-.42-.77-.74-2.49-2.34-1.58-1.42.8-2.45,2.12-3.53,3.33-.29.33-.05.81.29.79.91-.05,1.11.38,1.1,1.16-.01.88-.43,1.46-1.23,1.72-1.04.33-1.24.9-.44,1.62,1.84,1.67,1.7,3.35.23,5.18-.58.72-1,1.57-1.64,2.59,3.27.51,5.94-.91,8.6-2.03,2.96-1.24,5.79-2.8,8.63-4.2.32.24.13.38,0,.43-1.6.63-2.3,1.38-.3,2.52.68-.1.06-1.51,1.12-1.31,1.01.19,1.39.94,1.53,1.9.06.45.28.88.46,1.31.46,1.15.2,1.98-1.08,2.23-1.05.2-1.34.7-.76,1.56.33.49.26.86-.02,1.27-.22.32-.72.57-.25,1.02.32.3.65-.07.96-.08,1.41-.05,1.75-1.58,3.02-2.18-.2.84-1.44,2.02.65,1.79.48-.05.4.82-.02,1.26-.25.26-.48.59-.21.92.32.38.65.09.9-.15.59-.57,1.44-.47,2.08-.88.36-.24.77-.35,1.09.07.28.36.27.77.07,1.16-.16.31-.42.57-.57.88-.4.82-1.5,1.76.59,1.98.89.09.86,1.38,1.46,2.08-.93-.96-2.06.79-2.95-.35-.15-.2-.34.17-.41.38-.14.43-.13.83.38,1,1.43.5,2.7,1.37,4.43.94,1.4-.35,1.39-2,2.79-2.26.29.89-1,1.38-.64,2.37,1.09-.38,1.4-1.76,2.59-1.92.41.88-.86,1.01-.79,1.89,1.13-.4,2.36.58,3.43-.54.3-.31.55.11.75.43.99,1.61.55,3.41.52,5.09-.02,1.06-1.13,1.31-2.2.92-1.13-.42-2.41-.97-2.22,1.18.02.24-.08.48-.36.53-.42.08-.64-.22-.85-.5-.33-.42-.39-1.19-1.25-.9-.71.24-.51.81-.56,1.31-.09.86-.13,1.48-1.34.76-.65-.39-1.55.56-2.58.38-1.46-.26-3.01.06-4.48-.52-1.04-.41-2.36-1.03-1.87,1.45-1.19-.88-1.94-2-3.3-1.41.65,1.7.26,2.28-1.55,2.89-.81.27-1.44.8-2.43.91-1.68.19-2.26-.06-2.28-1.81,0-.42.6-1.15-.36-1.19-.62-.03-1.34.11-1.26,1.06.06.68-.48,1.03-.85,1.47-1.14,1.32-2.39,2.57-3.42,3.97-.75,1.02-1.18,0-1.73-.08-.62-.1-.39-.46-.2-.89.25-.58.88-1.47-.12-1.77-1.12-.33-1.97.5-2.18,1.52-.26,1.27.2,2.6-.21,3.93-.18.58.63.79,1.17.62,1.28-.4,2.37-.82,2.55,1.27.06.65,1.55,1.01,1.95.47.61-.83,1.47-1.64,2.18-1.46,1.18.3,1.26,1.65,1.35,2.77.01.14.2.27.45.57.22-.66-.33-2.16,1.29-1.14.68.43.79-.78.67-1.27-.19-.78-.36-1.5-.3-2.32.02-.32-.44-.68.07-1.01.49-.32,1-.38,1.48-.03.8.58,1.59,1.17,2.33,1.82.36.32.58.9.29,1.28-.72.93-1.51,2.07-2.32,2.59-1.19.76-.65,1.32-.5,2.06.02.09.19.14.26.23.72.96.05,1.7-.39,2.48,1.28.04,1.1,1.24,1.5,1.96.04.08-.22.43-.4.5-.5.2-.88-.11-1.25-.42-.44-.37-.68-1.33-1.5-.74-1.15.84.39,1.45.3,2.28-.07.62.43.68.96.28.95-.7,1.38-.36,1.35.76-.01.55.31.88.79,1.02.5.15.75-.08.82-.61.05-.44.34-.49.51-.09.26.58.64.47.97.2,1.19-.96,2.32-.47,3.54-.04,1.27.45,2.62.29,3.93.09.77-.11,1.38.02,1.85.67.5.7-.28.86-.49,1.27-.44.86-.8,1.75-1.3,2.61-.8,1.37-1.1.96-1.66-.25.36,1.7-.62,2.65-1.66,3.34-.83.55-1.92.84-2.93.94-.74.08-.64-.68-.4-1.16.31-.61.89-.89,1.56-1.01.39-.07.89-.08.8-.69-.06-.45-.33-.78-.8-.8-.82-.04-1.71-.58-2.36.38-.46-.54-.04-.85.1-1.19.3-.71.03-1.14-.68-1.31-1.26-.31-1.89.71-2.67,1.35-.6.49-.73,1.09-.37,1.87.59,1.31.45,1.08-.9,1.53-.75.25-1.98.98-1.75,2.28.28,1.57-.66,1.26-1.42.92-.9-.4-1.71-1.02-1.98-2.07-.11-.42-.24-.85-.69-.93-.64-.11-.45.54-.65.84-.1.14-.14.43-.25.45-1.74.31-2.29,1.87-3.11,3.1-.6-.37.02-.86-.44-1.28-.31,1.52-2.34.45-2.63,1.75-.2.9.19,1.93.31,2.92.63-.14.53-.56.6-.88.13-.67.51-1.07,1.21-.99.6.07.71.6.98,1.06.86,1.44-.11,2.79-.02,4.17-1.04-.13-1.55-1.06-2.26-1.68-.55.79-.11,1.31.13,1.9.32.79-.28,1.45-.84,1.71-.6.29-.7-.6-1.03-.95-.64-.68.29-1.31.17-2.61-1.04,1.88-2.26,2.45-3.88,2.21-.56-.08-1.09.39-1.19.87-.13.6.57.76.99,1.03,1.63,1.07,3.33,2.07,2.97,4.48-.09.58.6.83.82,1.27.22.43,1.04,1.04-.02,1.51-.48.21-.88.5-.46,1.04.37.48.95.49,1.43.2.66-.4,1.26-.9,2.03-1.46-.38-.16-.57-.27-.78-.33-.72-.22-1.39-.54-1.25-1.41.13-.81.82-.68,1.46-.82.63-.15,1.72-.5,1.19-1.77-.4-.96.56-.79,1.01-.95.27-.09.81-.18.56.46-.3.78.17,1.24.76,1.1.63-.16.67-.93.43-1.5-.51-1.24-1.08-2.44-1.63-3.66ZM236.58,121.21c-.13.12-.24.31-.39.34-1.8.39-2.93,1.91-4.53,2.64-.85.39-.11.99-.14,1.5-.04.7.39.75.9.71.66-.06,4.68-3.91,4.74-4.57.02-.21-.14-.43-.21-.65-.12.01-.25.02-.37.03ZM214.72,44.31c.17-2.1.14-2.13-1.99-2.1-.64,0-1.28.02-1.91.03-1.1.02-2.2.48-2.05,1.6.1.73.1,2.61,2.04,1.81.47-.2,1.02.12,1.48.37.53,1.14,0,2.12-.91,2.49-1.4.56-1,1.2-.41,1.99.44.59.94,1.13,1.5,1.81.29-.66.44-1.18.73-1.6.43-.6,1.18-.66,1.37.05.44,1.7,1.99,2.3,3.1,3.23.6.49,1.02.85,1.02,1.7,2.33-.81,3.76-2.76,5.9-3.55.53-.19,1.48-.43,1.15-1-.41-.72.02-1.82-.99-2.22-1.06-.42-1.65-1.41-2.46-2.12-.76-.67-3-.63-3.46.31-.57,1.17-1.8,1.39-2.63,2.17-.4-.59-1.2.47-1.55-.39-.3-.75-.27-1.6.51-1.79,2.31-.57,1.48-1.16.14-1.93-.27-.16-.4-.56-.59-.85ZM235.46,219.94c-.32.71-1.03.91-1.64,1.22-1.47.73-3,1.36-3.19,3.33-.02.23-.32.44-.49.66-.77-.66-1-.04-.85.5.23.84,1.17.58,1.79.78.59.19.53-.22.56-.7.16-2.62.47-2.79,2.99-3.45,1.05-.28,2.05-.03,3.03-.25.43-.1,1.4.3,1.33-.67-.06-.78-.99-.81-1.37-.67-1.01.39-1.47-.36-2.11-.75.72-.89,2.51-1.61.42-2.96-.31-.2-.52-.9-.2-1.3.66-.83.07-1.22-.39-1.78-.39-.47-.68-1.06-.99-1.56-.89-1.42-2.11-2.63-3.23-3.89-.12-.13-.55-.22-.61-.15-.91,1.12-2.97.62-3.4,2.48-.1.42-.51.86-1.36.53-2.49-.96-3.08-1.05-3.64,1.53-.11.51-.44.97-.94,1.2-.27.12-.43-.1-.5-.34-.36-1.25-.94-2.32-2.18-2.94-.27-.13-.61-.6-.55-.83.34-1.39-.9-1.32-1.64-2.09,0,1.17-.42,2.13.87,2.51-1.72,1.21-2.29,2.42-1.58,3.29.46.57,3.05.33,4-.48.13,1.1,1.21,1.6,1.54,2.59-.86.28-1.18-.59-1.81-.61-.21.88,1.08,1.89.48,2.2-1.41.74-.52,1.3-.09,1.85.38.49-.75,1.5.66,1.62.44.04.92.67.43,1.23-.28.33-.13.99-.85,1.05-.24-.35-.49-.72-.76-1.12-.22.48.14,1.11-.44,1.38-.6-.25-.32-.89-.62-1.16-.46,1.15-1.46,1.9-2.12,2.89-.28.42-.55,1.12.14.91,1.95-.6,1.39.87,1.66,1.76.71-.26,1.41-.4,1.43-1.46,0-.55.75-1.3,1.12-1.06,1.04.67.96-.12,1.15-.65.37-1.06.47-2.41,2.24-1.8.33.11.7-.38.9-.74.28-.52.66-.67,1.25-.89.8-.29,1.31-.54,1.91.15.88-1.63,1.85-.17,2.15.23.54.71.86.42,1.38.21,1.4-.56,2.57-1.64,4.14-1.82ZM87.24,128.4s-.08.28-.21.33c-.56.21-.78,1.44-1.68.63-.84-.75-.44-1.36.22-2.05.66-.69,1.43-1.19,2.21-1.72.42-.29,1.02-.46.77-1.17-.25-.73-.82-.98-1.52-.83-1.56.34-3.26.08-4.65,1.17-.49.38-1.14.2-1.38-.27-.35-.67.37-.75.77-.82.88-.14,1.57-.44,1.78-1.41.29-1.34-1-.43-1.36-.97-.94-1.41-1.44-.65-1.82.46-.14.41-.06.97-.65,1.14-.63-1.24-.39-3.12.37-3.36,1.28-.41,1.17-2.16,2.43-2.62-.12-.26-.17-.63-.37-.75-1.18-.67-1.62-1.81-2.13-2.97-.32-.72-.79-1.43-1.7-1.76-.18.51-.28,1.03-.54,1.45-.23.39-.95.51-.96.07-.03-1.85-3.42-2.83-.98-5.31-1.08.17-1.83.07-2.26.92-.67,1.32-1.21.92-1.67-.18-.16-.37-.39-.7-.56-1.01-1.17.05-.86,2.04-2.32,1.65-.95-.25-1.17.18-.57.82.87.93-.14,1.2-.48,1.61-.53.64-.77-.02-.96-.39-.31-.62-.4-.58-.56.08-.14.58-.51.89-.88.15-.37-.75-.54-.19-.82.04-.36.29-.41.86-1.03,1.01-.19-.67-.35-1.35-.56-2-.12-.38-.41-.59-.8-.35-.25.15-.56.59-.37.7,1.37.84-.11,1.68.03,2.24.42,1.64-.8,1.75-1.6,1.97-.7.2-1.22,1.83-2.22.44-.11.13-.24.24-.34.38-.73.96-1.77-.03-2.6.39-.03.01-.24-.73-.69-.25-.22.23-.29.57-.08.8,1.13,1.23,1.33,2.98,2.37,4.25,1.78,2.18,3.98,4.23,1.99,7.42-.07.11-.02.36.06.49.98,1.69-.07,3.35-.61,4.69-.41,1.03.84.69.48,1.49-1.11,2.49-.36,4.74,1.12,6.98.32.48,2.42,1.14.59,2.48.76.2,1.51.66,1.98.46,1.25-.53,1.1.41,1.23.99.12.56-.31.97-.65,1.38-.6.71-1.25,1.47.22,1.95.35.12.33.38.43.65.39.99,1.63.66,2.28,1.36.14.15.81-.42.8-.76-.09-1.77.82-1.24,1.76-.88.36.14,1.22.34.78-.43-.81-1.42.91-.82,1.03-1.51.07-.42.53-.35.86-.11.59.45.74,1.08.51,1.73-.36,1.03-.35,2,.54,2.7.55.44.84.86.91,1.57.15,1.45,1.12,2.91-.18,4.31-.12.13.07.77.11.77,1.25-.02,3.29.33,3.61-.25.87-1.6,1.81-1.18,2.89-.74.74.31,1.17.22,1.16-.62,0-.51.78-.57.58-1.13-1.92-.66-2.21-1.74-.74-3.08.52-.47.72-1.17,1.41-1.52.77-.39.68-.58-.13-1.08-.7-.43-2.02.2-2.09-.98-.05-.8-.46-1.02-.97-1.23-2.11-.88-4.21-1.77-6.14-3.01.89-.06,3.16-1.5,2.92-1.77-1.38-1.52.02-3.07-.06-4.71-.9.66-1.73,1.17-2.76.85-.48-.15-.69-.75-1.34-.74-.75.02-2.31.79-1.39-1.2.02-.05-.22-.22-.34-.33-1.51-1.23-1.5-1.2.35-2.04.7-.32,1.55-.89,2.09-.23.64.79-1.04.71-.89,1.51,1.59.4,2.1,0,3.13-.92.58-.52.89-1.98,2.25-1.32.44-1.12,1.68.51,1.99-.51.3-1,.97-1.03,1.73-1.1.71-.07,1.15-.4,1.38-1.13.4-1.29,1.31-1.11,1.95-.34.81.98,1.46,1.09,2.48.35.34-.25.89-.55,1.5-.36-.23.94-1.35.86-1.84,1.78,1.02-.29,2.35.66,2.66-.06.73-1.65,1.61-1.12,2.65-.66.29.13.58.15.77-.15.18-.28.13-.57-.1-.79-.65-.61-1.88-.21-2.27-1.29-2.17,1.37-1.31-1.2-2.27-1.46ZM140.06,42.75c-.02.23-.03.46-.06.68-.1.78-.39,1.3-1.31,1.32-.76.02-1.31.04-.94-1,.13-.35-.34-.16-.46-.25-.77-.58-1.01-1.83-.99-2.36.06-1.51,2.36-2.74.61-4.61-.04-.05,0-.28.08-.31,1.43-.8.68-2.33,1.15-3.46.38-.92.68-1.78,1.77-2.04,1.15-.27,2.24-.48,2.71,1.25.78-3.41,2.49-6.74-1.02-9.6-.64.39-1.33,1.26-2.42.53-.29-.19-.48.14-.7.34-.44.41-.87,1.06-1.61.43-.7-.6-1.26-1.32-.98-2.26.23-.8,1-.88,1.75-.79.26.03.59.17.75-.21q-4.92-1.34-5.27-2.49c.61-.13.91,1.12,1.65.39.32-.31.46-.76.18-1.12-1.75-2.28-.29-3.16,1.64-3.86.08-.03.09-.28.2-.66-1.02.56-1.79.02-2.29-.46-.67-.65.54-1.06.63-1.78-.61.19-1.17.37-1.71-.06-.36-.29-1.03-.3-1.03.11,0,1.32-1.13,2.48-.54,3.82.59,1.32.39,2.37-.8,3.22-.49.35-.8.75-.06,1.19,1.62.97.65,1.94.02,3.22-.19-.49-.25-.71-.35-.91-.25-.54-.05-1.45-.93-1.47-.69-.02-.9.71-1.08,1.24-.35,1.06-1,1.63-2.28,1.44,1.27,1.33,1.16,1.68-.62,2.47-1.06.47-2.64,3.83-1.9,4.36,1.37.99.15,1.34-.22,1.92.49.33,1.12-.06,1.59.54-.61.52-.87,1.13-.78,2.05.04.44.55,2.06-.75,1.82-1.94-.35-1.01.76-.78,1.31.52,1.26.56,2.4-.11,3.63-.6,1.11.38,1.84,1.03,2.33.67.5.82-.47,1.04-.91.16-.32.28-.83.62-.74,1.31.31,1.97-.69,2.86-1.24.7-.44,1.12.07,1.02.61-.21,1.15.51,2.32-.13,3.44-.16.28-.23.6.21.66.28.04.57-.04.86-.07-.27-1.05,1.08-1.25,1.12-1.8.15-1.74,1.89-.26,2.27-1.29,1,.54.96,1.36.6,2.26-.49,1.24.06,2.06,1.25,2.03,1.49-.04.26,1.81,1.46,1.78-.04.62-.48.88-.97,1.12-.26.12-.62.21-.74.43-.25.47-.9.95-.39,1.53.54.62.96-.16,1.44-.25,1.67-.32,2.27-1.92,3.52-2.7.45-.28,1.01-.38,1-1.06-.03-1.26-.05-2.52-.8-3.69ZM118.11,230.7c-.4.88-1.18,1.48-.82,2.21.44.9.05,1.63-.03,2.47-.1,1.1-.62,2.35.3,3.35.5.54,2.22-.02,1.45,1.65,1.1.06,1.41.34.47,1.25-.33.32.28.32.47.45.28.17.62.21.53.73-.36,2.01.98,3.05,2.46,3.86,1.17.64,2.49,1.02,3.71,1.57,4.4,1.99,8.83,3.92,13.35,5.62.45.17,1.11.61,1.11-.38,0-3.35.5-6.76-1.99-9.66-1.6-1.86-2.91-3.96-4.35-5.94-.21-.28-.43-.73-.69-.76-2.16-.28-2.06-1.8-1.81-3.49-1.82.82-3.19-.34-4.74-.76.23,1.57-1.72,3-.06,4.55.32.3.53.78.69,1.21.28.76.02,1.4-.68,1.78-.67.37-1.09.36-1.47-.57-.72-1.72-1.37-3.71-4.01-3.24-.39.07-.82-.65-.7-1.25.14-.68.61-.93,1.3-.86.75.08,1.5.24,2.04-.58.26-.39.34-.66.11-1.08-.25-.45-.54-.33-.87-.18-1.63.74-2.03-.22-2.11-2.03-.57,1.43-1.31,2.18-2.45,2.1-.95-.07-.96-1.03-1.22-2.02ZM85.61,175.97c-.61.87-1.04,1.42-1.4,2.01-.66,1.07,0,2.25.8,2.13,1.54-.23,1.31,1.38,2.21,1.58,1.63.36,1.31,1.08.49,2.01-.07.08.22.49.37.74,1.19,2.07,3.29,3.09,5.13,4.4.29.21.88.32,1.04-.22.16-.55-.31-.9-.75-1.03-1.92-.58-1.53-2.1-1.34-3.44.05-.37.02-1.52.9-1.03.49.27,1.8.39,1.2,1.63-.18.37-.47.75,0,1.06.14.09.46,0,.66-.09.45-.21.96-.76.74-1.05-.89-1.19-.47-2.75-1.27-3.91-.19-.28-.67-.71-.68-.7-1.55,1.44-1.04-.63-1.44-.91-.53.2-.77,1.29-1.2.7-.37-.5-1.18-1.17-.86-1.91.38-.87,1.19-1.1,2.05-.5.39.27.85.44,1-.07.34-1.21.77-2.43.22-3.74-.45-1.09-1.44.83-1.78-.39-.92.33-2.4-1-2.71,1.12-.83-1.08-1.72-2.09-1.67-3.21.1-2.15-.76-1.88-2.16-1.24-.86.39-1.8.38-1.91-.92-.1-1.15-.05-1.16-.63-2.13-.76,2.63-.46,5.25-.32,7.86.05.97-.25,2.17.85,2.67,1.06.48,1.23-1.02,2.46-1.39ZM231.84,235.69c1.14.04,2.12-.14,2.61-1.01.32-.57-.13-1.39-.67-1.62-1.24-.53-1.81-1.68-2.66-2.56-.55-.57-.32-1.3.44-1.19,1.11.16,2.32-.3,3.35.56.58.48,1.35.73,2.13.34.57-.29,1.71.24,1.72-.75.01-1.18-.94-.6-1.57-.52-.1.01-.26-.04-.31-.11-1.22-1.83-3.31-1.01-4.93-1.61-.84-.31-1.53-.07-2.27.45-.92.64-1.88,1.83-3.15.44-.17-.19-.53-.16-.62.05-.72,1.65-2.52,1.72-3.72,2.63-1.16.88-1.89.73-2.87-.02-.49-.37-1.05-.53-1.5.15-.22.33-.79.6-.53,1,.46.69,1.2,1.06,2.05,1.2,3.62.6,7.23,1.17,10.76,2.19.61.18,1.25.28,1.73.38ZM103.76,238.52c.65.34,1.08.81.93,1.41-.34,1.35.62,1.55,1.46,1.61,1.22.09,2.01.72,2.88,1.48.53.46.7,2.4,2.19.91.18-.19.85.26,1.12.68.22.34.39.76.86.81,1.86.19,3.73.37,5.69.56q-.99-2.11-2.31-1.14c-.11.08-.33.04-.5.02-.42-.05-.92.34-1.24-.29-.35-.68-.41-1.34.02-1.99,1.11-1.67.83-3.3-.15-4.9-.24-.39-.4-.98-.96-.86-.53.11-.9.57-.8,1.18.32,2.04-1.66,1.89-2.61,2.48-1.16.72-1.81-.86-2.39-1.55-.68-.81-.19-1.86.62-2.63.38-.36.63-.85.99-1.35-1-.21-1.81-.46-2.22.64-.16.44-.6.41-.89.22-1.27-.86-2.55-1.72-3.75-2.68-.25-.2-.28-.64-.73-.35-.47.3-1.18.43-1.03,1.22.08.41-.32,1.1.35,1.2,1.18.18,2.09.72,3.09,1.34.62.39,1.27.59,1.17,1.3-.14.94-1.13.16-1.78.7ZM118.36,16.73c.51,1.72,1.75,3.21,1.34,5.06-.15.65-.03,1.11.06,1.72.28,1.82,1.91,2.5,2.63,3.88.39.75.79.48,1.06-.17.6-1.46.9-3.01,1.28-4.54.17-.68.24-.95-.61-1.2-1.09-.33-1.13-1.06-.13-1.72.39-.26.74-.66,1.17-.75,1.61-.35.82-1.65.99-2.51.2-1.01-.82-.46-1.25-.71-.58-.35-1.01-.73-1.09-1.46-.12-1.07-.4-2.13-.2-3.29-.78.58-1.46,1.16-1.9,1.99-.31.58-.71,1.1-1.51.89-.34-.09-.77-.2-.93.18-.22.53.39.62.65.89.3.31,1.06.49.76.99-.28.46-.84,1.02-1.61.62-.21-.11-.44-.17-.72.14ZM238.25,70.06c-2.93,1.82-5.83,3.62-8.73,5.43-.31.19-.55.52-.3.89.34.51.59.12.78-.17.32-.49.5-.26.94-.05,1.54.75,1.59,1.46.27,2.51-.29.23-.51.92-.39,1.26.4,1.08.19,1.6-1.02,1.63-.11,0-.35.4-.31.55.44,1.49,3,2.01,4.2.82,1.08-1.07,2.07-2.23,3.09-3.36.53-.59.73-1.27.65-2.1-.19-1.89-.14-3.75.75-5.52.22-.45.52-1.07.06-1.88ZM288.46,258.52c.52-.06,1.87,0,1.69-.81-.21-.99-.25-2.36-1.71-2.93-2.88-1.12-5.61-2.7-8.68-3.24-.56-.1-1.68-.66-2.17.37-.41.86.45,1.22.88,1.72.38.45.82.84,1.24,1.25,1.03.99,1.87,2.07,3.61,2.12.9.03,2.95.39,1.57,2.46-.27.41.09.93.61,1.07.45.12.58-.18.61-.6.09-1.32.9-1.65,2.34-1.41ZM63,246.5c-.06.66.3.9.67,1.03,1.78.65.7,1.79.08,2.11-1.02.53-.71.97-.36,1.61.33.62.65,1.24.99,1.85.33.61.76,1.12,1.52.81.68-.27,1.56-.5,1.41-1.51-.11-.68.29-1.1.53-1.61.4-.84,1.36-1.11,1.9-.76,1.03.67-.7.86-.48,1.61,1.09.14,1.68-1.09,2.82-.98.94.1,1.43-.49.71-1.45-.21-.28-.46-.61-.09-.91.4-.32.76.02,1.11.2.65.33.7,1.34,1.56,1.49.15-1.13-.6-1.67-1.26-2.2-.58-.47-1.3-.77-1.91-1.21-.31-.22-.3-.91-1.01-.4-.58.42-.59.68-.25,1.24.41.68.09,1.28-.56,1.59-.72.34-1.18-.05-1.55-.69-.3-.52-.42-1.22-1.12-1.42-.43.37.43,1.43-.35,1.19-.78-.24-1.61.99-2.12-.13-.46-1-1.38-1.05-2.22-1.47ZM20.81,282.58c-2.11-.83-3.77.71-5.55,1.78-.5.3-.63.84,0,1.27,1.57,1.06,3.5,1.03,5.22,1.32,1.51.25,3.24-.64,4.81-1.28.92-.38.97-.75.44-1.54-1.17-1.76-2.9-1.72-4.93-1.54ZM101.48,166.87c-1.4.61-1.86,1.19-.86,2.41.81.99,1.32,2.1,2.9,2.09.89,0,1.66.34,2.17,1.38.37.74.77,1.45,1,2.26.38,1.37,1.54,1.23,2.58,1.25.45.01.98.09,1.15-.53.27-.97-1.67-4.01-2.7-4.27-.7-.18-1.48-.05-1.93-.93-.47-.91.15-1.45.5-1.96-1.13-1.39-3.42,3.06-3.76-1.26-.29.77-.47,1.27-.83,2.23-.09-1.2-.15-1.88-.21-2.68ZM207.63,249.76c.32-1.33.72-2.53.55-3.87-.27-2.12-3.27-4.73-5.07-4.04-1,.38-1.16.2-1.1-.8-.78.65-.62,1.49-.81,2.19-.46,1.72.58,2.73,2.31,2.32,1.26-.3,1.89.27,1.48,1.57-.19.62.09.72.38.95.73.57,1.48,1.11,2.25,1.69ZM27.55,160.99c-.81-.3-1.11-.15-.91.78.12.56.18,1.22-.29,1.63-.37.32-.96.78-.55,1.04,1.05.67.85,2.36,2.26,2.61.33.06.98,0,.99-.08.21-1.5,1.98-1.54,2.5-2.73.3-.69.89-1.03,1.55-.77,1.22.49.78-.91,1.37-1.08-.53-.22-.41-1.51-1.59-.84-.25.14-1.1-.28-1.56.33-1.08-1.16-2.64-.01-3.77-.89ZM210.62,76.01c-.07-.92-.38-1.81-.14-2.5.42-1.22-.75-1.18-1.05-1.24-.75-.16-.75.5-.54,1.05.19.48-.02,1.02-.4.95-1.65-.31-1.56,1.37-2.48,1.96,1.33-.17,2.03,1.42,3.57.95.81-.25,1.17,1.19.88,1.78-.29.59-.4,1.14-.55,1.74-.13.51-.8.95.07,1.37.82.4.95-.43,1.3-.8.81-.87.74-2.35,2.07-2.92.49-.21.96-.72.68-1.43-.28-.72-.76-1.17-1.59-1.1-.57.05-1.14.12-1.84.2ZM214.82,224.01c-.09-.26-.11-.38-.17-.47-.06-.09-.17-.18-.27-.21q-1.8-.43-.59-1.92c.13-.17.34-.4.31-.55-.08-.37-.41-.3-.71-.25-1.13.2-2.22.34-3.14-.64-.3-.32-.85-.33-1.34-.22-.98.23-1.78.96-2.88.9-.42-.03-.39.29-.18.73.45.98.22,2.26,1.52,2.86.31.14.22.81-.14,1.24-.37.44.61,2.64,1.14,2.59.51-.05,1.03-.52.59-.93-1.43-1.32-.42-2.16.36-3.21,1.43-1.92,2.16-1.93,3.36.08.07.11.08.59.22.31.51-1.05,1.25.02,1.91-.31ZM27.12,289.41c.49.97-.6,1.88.59,2.78.37.27-.07,1.6-.72,2.07-.61.44-1.96.36-1.68,1.35.2.74,1.44.26,2.21.38.29.04.57.12.86.17.32.06.63-.02.69-.36.05-.26-.02-.57-.11-.82-.14-.37-.88-.05-.84-.73.68-.48,1.79.47,2.31-.65.95-2.02,1.92-4.03,2.88-6.05-1.76.84-3.87,1.01-4.33,3.16-.86-.24-.7-1.18-1.84-1.3ZM171.18,233.02c.64.15,1.43.12,1.7.74.67,1.53,1.92,1.23,3.14,1.21,1.63-.03,3.19-.69,4.86-.52.88.09.82-.68.78-1.25-.04-.59.19-1.56-.78-1.44-3.23.39-6.51.35-9.69,1.27ZM108.83,67.24c-1.02.86-1.87-1.16-2.9-.04-.12-.13-.23-.26-.36-.38-.84-.77-.92-1.67-.57-2.71.19-.58.5-1.14.18-1.85-.57-1.24-2.15-1.42-2.69-2.66-.7.62-1.71.29-2.47.67.11.64.7.58.89.83.61.82,1.7.78,2.38,1.66,1.35,1.75-.97,1.54-1.1,2.46-.08.54-.71,1.06-.42,1.62.31.59,1.03.38,1.6.42.63.04,1.23-.29,1.81.52.56.79,2.93.37,3.64-.54ZM17.35,273.52c1.92.79,3.78.89,5.78.77,1.51-.09,1.94-1.24,2.83-1.9.46-.34-.12-.6-.58-.63-1.05-.07-2.1-.15-3.14-.3-.3-.04-1.08-.07-.65-.67.62-.87.46-1.16-.53-1.39-1.05-.25-1.37.22-1.49,1.13-.18,1.34-.94,2.29-2.22,2.99ZM209.82,41.53c1.98.39,3.74-.15,5.5-.26.23-.01.66-.42.63-.5-.47-1.23.74-1.37,1.24-1.95.34-.39.76-.66.88-1.24.1-.48.15-.82-.4-.91-.36-.06-1.06-.21-.96.31.18.93-.42.64-.79.65-.58.02-1.16-.07-1.74-.09-1-.03-1.84.77-2.87.6.67,1.53-.81,2.23-1.49,3.39ZM113.06,196.51c.54-1.81.65-1.91.07-2.53-.59-.63-.43-.98.12-1.39,1.56-1.16-.79-2.93.64-4.11,0,0-.06-.09-.1-.14-.63-.77-3.51-1.02-3.82-.2-.35.95-.71,1.08-1.59.9-.33-.07-1.05.28-1.01.7.06.61.64.59,1.08.3.81-.54,1.43-.2,2.01.37.53.51,1.22.65,2.38.78-1.83,1.02-2.22,2.41-2.61,4.12,1.6-1.32,2.35-.64,2.83,1.19ZM238.95,102.39c-.09.5,1.38.56.58,1.4-.21.22-.36.53,0,.73.37.2.79.2,1.19.04.34-.14.35-.42.24-.73-.77-2.15,1.04-2.29,2.22-3.11.84-.59,1.81-.6,2.66-.94.88-.36,1.32-1.26,2.29-1.39.68-.09,1.21-.62.9-1.34-.33-.75-.97-.41-1.49-.11-2.45,1.39-5.08,2.35-7.77,3.15-.31.09-.72.12-.83.65.55.22,1.46.03,1.48,1.02-.34.51-1.07-.01-1.47.64ZM274.93,252.18c.27,1.93.53,3.37.66,4.82.12,1.35,1.31,1.94,2.1,2.58.52.44.24-1.15.89-1.53.34-.2.56-.6.89-.83.79-.57.68-1.19.09-1.76-1.17-1.14-2.39-2.23-3.59-3.34-.21-.19-.46-.41-.77-.23-.3.17-.25.49-.26.29ZM233.99,83.79c1.14.3,1.83-.13,2.55-.28,1.51-.31,2.9-1.06,4.53-.92.67.06,1.73.21,1.89-.78.17-1.1-.73-1.45-1.66-1.62-.86-.15-1.72-.31-2.58-.47-.47-.09-.93-.15-1.3.26-1.08,1.2-2.16,2.4-3.43,3.8ZM242.3,75.16c-1,0-3.55,2.22-3.4,3.29.16,1.22,1.6.69,2.41,1.11.34.18.79.17,1.2.21.71.07,2.69-1.42,2.69-2,0-.99-1.79-2.61-2.89-2.61ZM65.4,270.25c-.5-.62-1.12-1.39-1.77-2.14-.04-.05-.49.11-.56.25-.4.86-1.26,1.17-1.92,1.72-.84.69-1.03,1.39-.11,2.13.89.72,1.54,2.34,2.51,2.18,1.55-.26,1.2-2.14,1.64-3.35.06-.16.09-.34.21-.8ZM91,119.16c-.67-.48-.66-1.59-1.17-2.4-.34-.53-1.77-1.16-1.89-.66-.37,1.6-1.94,2.26-2.42,3.67-.1.29-.08.6.37.55,1.02-.11,1.83.49,2.71.83,1.36.54,2.45-.21,2.4-2ZM15.91,295.21c3.03-3.41,6.9-5.71,10.39-8.5-1.03.18-2.15.3-2.81.91-.91.86-1.81,1.08-2.99,1.15-.9.05-1.83.39-2.01,1.74-.31,2.23-.72,2.35-2.59,1.29-.05-.03-.19.1-.39.22.98.9.55,1.92.41,3.18ZM151.12,30.68c-.77-.33-1.29-.17-1.51.77-.21.88.12,1.64.8,1.88.8.29,1.69.97,2.67-.04,1.01-1.04,2.31-1.81,2.14-3.53-.18-1.83-1.85-.15-2.5-1.03-.11-.15-.56.48-.43.73.75,1.51-.48,1.04-1.16,1.22ZM204.33,252.77c1.65-.49,3.01-1.06,2.95-1.31-.26-1.17-1.54-1.27-2.24-2.01-.2-.21-.45-.37-.69-.53-1-.69-3.1-.6-3.83.33-.4.5-.58.84-1.16.33-.26-.23-.52-.26-.66.14-.13.38,0,.9.34.82,1.24-.31,2.31.55,3.44.43,1.75-.18,2.16.11,1.86,1.81ZM219.32,203.42q1.76-1.27,4.24-.88c.28.04.6.13.86.05.58-.2.97-.68.46-1.18-.83-.82-1.53-2.02-3-1.66-.31.08-.53.2-.75-.09-1.06-1.39-1.37-.21-1.75.53-.54,1.05-.29,2.12-.05,3.23ZM228.87,204.51c1.94,2.45,3.73,4.72,6.12,7.07-.96-5.39-2.53-7.19-6.12-7.07ZM246.88,170.12c-.16.05-.31.1-.47.15-.04.16-.13.33-.12.49.05,1.15.35,2.46-1.65,1.54-.57-.26-1.17.34-1.58.88-.44.59.25.9.3,1.25.24,1.84,1.4.83,2.21.83.46,0,.98-.29,1.35-.14.3.12.39.96.89.33.25-.3.38-1.02.2-1.29-.82-1.2-1.29-2.49-1.13-4.03ZM247.45,235.28c-1.57-2-1.52-1.93-3.5-.43-.58.44-1.95.13-2.09-.47-.67-2.94-1.57-.19-2.24-.08-.51.08-.69.92-.48,1.52.23.65.84.57,1.35.49,2.3-.33,4.6-.68,6.96-1.04ZM207.86,40.67c-.47,0-2.96,2.32-2.76,2.65,1.13,1.81-.07,2.07-1.4,2.54-.43.15-.4,1.24-.13,1.69.37.6.74-.27,1.13-.29.93-.06.79-1.1,1.51-1.56,1.21-.78,2.23-2.23,2.44-3.9.07-.58-.13-1.03-.8-1.12ZM206.56,209.46c-.45.96.22,1.58.81,1.61.99.06.48-.78.43-1.29-.07-.71.24-1.24.78-1.67.48-.38.69-.88.89-1.46.48-1.36-.59-2.13-1.33-2.43-1.11-.45-.49.94-.89,1.38-.31.34-.54.76-.86,1.1-.44.47-.72.9-.17,1.5.32.35.46.81.34,1.25ZM95.44,162.85c.71-.27,1.82-.2,2.93-.24.23,0,.46-.1.69-.11.71-.03,1.23-.37,1.55-.97.26-.49.02-.99-.39-1.2-.68-.33-.61.29-.58.66.06.87-.58.89-1.15.97-.63.1-1.1-.08-1.44-.71-.17-.31.03-1.92-1.11-.46-.17.22-.49-1.37-1.41-1.42-.21-.01-.48.11-.62.26-.46.49-.86,1.5-.51,1.67.8.39.44,1.87,2.05,1.54ZM111.55,233.61c-1.08-.36-1.52-.79-.49-1.56.29-.22.24-.97-.17-1.02-1.01-.13-1.47-.87-2.03-1.5-.58-.66-1.04.07-1.56.03-.41-.04-.5.51-.41.59.65.53.54,1.78.93,1.93,1.3.5-.59,1.28.23,1.54,1.05.34,2.15.86,3.49,0ZM94.58,145.42c1.29-.68-1.4-.83.09-1.45.31-.13.81-.1.36-.6-.28-.32-.73-.55-1.06-.13-.8.99-2.29,1.45-2.15,3.19.08.98,1.66,3.03,2.42,2.54.62-.4,1.68-.89,1.68-1.86,0-.93-.87-.49-1.37-.54-.53-.05-1.07-.03-1.42-.51-.15-.21.01-.41.16-.61.54-.73,1,.07,1.29-.01ZM62.06,259.75c1.22-.26,2.29-.75,3.22-1.44.51-.38.6-1.08.08-1.53-.97-.84-2.32-.63-3.47-.84-.44-.08-.61,1.22-.18,1.98.07.13-.05.47-.18.6-1.17,1.1.03.99.54,1.23ZM115.59,197.94c.05.64,1,.38.99.78-.02,1.28,1.4,2.03,1.14,3.39-.18.96.39.94,1.05.64.88-.4,2.01-.68.73-1.94-.26-.26-.38-.73-.43-1.12-.26-1.81-1.95-2.68-3.49-1.75ZM15.51,271.3c.59-.12.71-.52.68-1.04-.06-.91-.04-1.54,1.17-1.9,1.14-.35-1.13-1.14-.1-1.92.17-.13-.2-.58-.5-.5-1.07.27-2.52.58-2.61,1.67-.09,1.08.05,2.4.73,3.45.1.15.42.16.65.24ZM91.7,78.8c.62-1.43-.51-3.36,1.39-4.26.02-.01-.02-.22-.07-.32-.63-1.08-.34-1.74.87-2.07.36-.1.59-.47.39-.83-.21-.37-.59-.22-.94-.1-1.09.36-1.47,1.29-1.62,2.25-.12.78-.32,1.51-1.09,1.64-.71.13-.88.43-.86,1.03.02.59,0,1.29.81,1.29.93,0,.8.78,1.11,1.37ZM196.39,209.31c-1.39-.1-2.28-.1-2.57,1.07-.79-1.12-1.39-.09-2.11.13-.48.15-1.26-.02-.97.74.16.41,1.3.91,1.38.82,1.19-1.33,1.55-.09,2.24.55.43.4.99.96,1.92.68-.64-1.32-2.09-2.56.11-3.99ZM215.54,256.61c-.45.25-1.01.55-1.53.9-.07.05,0,.53.12.59.96.47,1.31,1.43,1.91,2.2.86,1.1,1.92.2,2.43-.24.76-.65-.31-.9-.74-1.27-.48-.41-.92-.88-1.14-1.52-.14-.43-.45-.67-1.05-.66Z"/>
      <path d="M39.12,289.81c.3.83,1.08,1,1.78,1.29.52.21,1.18.81.89,1.06-.55.46-.66,1.3-1.19,1.52-.61.25-.62-.68-1-1.01-.06.09-.14.17-.17.26-.69,2.34-.65,2.4,1.85,2.58.12,0,.23-.02.35-.02.71-.02,1.46.25,1.49.92.02.72-.79,1.27-1.24,1.78-.33.37-.55-.81-1.08-1.16-.46,1.39-.76,2.55,1.25,2.81.36.05,1.82.68.18,1.38-.28.12-.09.39.02.59.83,1.52.3,1.9-1.01,3.09-1.51,1.37-2.84,1.52-4.71,1.24-1.2-.18-1.19-1.09-1.77-1.56-.51.67-.54,1.68-1.7,1.9-.7.13-.45.61.06.91.64.38,1.35.3,2.04.35.88.07,1.44.62,1.44,1.48,0,.87-.85,1.52-1.39,1.73-.73.29-.77-.91-1.2-1.41-.25.65.06,1.97-.71,1.73-1.19-.37-3.17-.16-3.07-2.4-.62.16-.5,1.37-1.31.97-.44-.21-.71-.83-.58-1.37.18-.73.77-.95,1.5-.9.68.04,1.93.54,1.76-.51-.11-.69-.92-2.11-1.91-2.12-1.22-.01-1.62-.61-2.01-1.47-.47-1.02.33-1.48.91-2.03,0,0-.03.01-.03.01,1.24-.41,2.49-.82,3.9-1.29-.3.61-.56.85-.1,1.55.67,1.01,1.49.74,2.25,1.01.56.2,1.22.96,1.65.18.33-.58.09-1.37-.57-1.97-.72-.65-1.22-1.5-.15-2.34.62-.49.35-1,.13-1.56-.51-1.29.01-1.97,1.41-1.76.55.08,1.06.34,1.24-.41.17-.68-.43-.64-.83-.85-1.35-.71-1.39-1.89-.15-2.82.6-.46,1.2-.92,1.8-1.38Z"/>
      <path d="M229.89,50.23c-.14-.28-.29-.55-.43-.83,1.34-.75,1.38-3,3.52-2.89-1.14-.37-1.78-.93-1.41-2.09.21-.65.69-.9,1.37-.67,1.76.59,2.01,1.26,1.25,3.66,1.38-.73,3.07-.33,3.99-1.91.44-.75,1.47.15,2.17-.52-.35-.5-.93-.24-1.36-.37-.57-.18-1.33-.4-1.29-.99.03-.49.62-1.27,1.04-1.32.49-.06,1.57.1,1.58.74.01,1.46,1.35,1.62,2.06,2.04.96.57,2.21.57,2.89,1.76.17.29,1.11.26.96-.62-.19-1.17.4-1.16,1.22-.91.84-.02,1.69-.04,2.53-.05.7.29,1.42.55,2.1.88.56.27,1.06.69.64,1.37-.27.45-.37,1.3-1.4.73-.45-.25-1.22-.04-1.85-.25-.45-.15-1.17-.44-1.47.07-.39.68.51.73.81,1.08.27.31.67.56.34,1.02-.27.38-.62.14-.94.02-1.39-.55-2.75-1.03-3.64.8-.08.16-.67.06-.35.51.41.58.21.82-.41.93-.48.08-1.02.63-1.4-.02-.48-.82-1.08-.94-1.91-.64-.9.32-.33.88-.35,1.41-.03.87-.59.8-1.23.45-.71-.38-1.13-1.06-2.02-1.34-.82-.26-1.41-.25-2.12.05-.44-.5-1.42-.59-.98-1.73.26-.68-.37-1.31-.96-1.71-.73-.49-1.18.15-1.64.55-.4.35-.79.69-1.32.81Z"/>
      <path d="M58.33,72.17c.09.7-2.14,1.29.12,2.06-1.88.26-2.57,1.58-2.76,2.88-.13.89-.64,1.93-.97,1.93-1.03,0-1.68.77-2.57.92-.49.08-.57-.36-.56-.7.04-1.04-.47-1.57-1.45-1.85-1.26-.36-1.41-1.53-1.39-2.54.02-1.05,1-1.14,1.84-1.17.92-.03,1.81-.51,2.75-.09,1.2.53.39-.8.99-1.1,1.34-.66,2.61-.6,3.99-.35Z"/>
      <path d="M186.14,16.58c-.33-.97.41-2.2,1.33-2.52,1.58-.54,2.88.19,4.23.75.41.17.88.6.59.9-1.23,1.27-.2,3.95-2.75,4.37-1.05.17-2.25.07-3.1-.16-1.21-.34-2.19-1.52-3.58-1.87-.39-.1-.05-.6.19-.85.46-.48.73-1.3,1.66-.94.47.18.85.66,1.44.34Z"/>
      <path d="M249.99,45.26c-.84.02-1.69.04-2.53.05.32-1.26-.62-1.71-1.45-2.18-.51-.29-1.1-.42-1.22-1.12-.06-.32-.44-.65-.04-.94.33-.24.75-.34,1.17-.19.61.22-.08.73.3,1.25.67-1.62,1.51-1.15,2.43-.4,1.02.83,2.03,1.34,2.73-.38.14-.35.44-.59.83-.48.45.12,1.17.43,1.03.78-.48,1.19.78.74,1.01,1.26-.04.63-.73.1-.94.7-.01.21.44.27.64.52.33.41.51.89.2,1.28-.38.49-.87.06-1.26-.13-.41-.2-.75-.56-1.15-.79-.9-.53-1.4-.05-1.75.75Z"/>
      <path d="M263.3,89.6c-.52,1.58-.24,1.97,1.4,1.66.85-.17,1.89.1,2.54-.87.42-.63.67.04.89.29.62.68,2.01.87,1.6,2.19-.15.48-.36,1.39-1.34.81-.56-.33-.5.27-.63.51-.57,1.01-1.46,1.41-2.58,1.37-.06,0-.12,0-.17.01-.47.04-.34-1.98-1.26-.36-.48-.57-1.25-1.29-.57-1.93.89-.83.68-1.13-.23-1.57-.38-.18-1.01-.28-.92-.9.1-.67.52-1.12,1.28-1.22Z"/>
      <path d="M81.27,188.6c1.31.16,2.33.76,3.24,1.53.36.31.94.81.46,1.32-.46.48-1.02-.04-1.38-.35-1.16-1-2.3-1.98-4-1.77-.28.04-.73-.14-.83,0-1.02,1.32-1.22.07-1.58-.5-.21-.34-.4-.82-.01-1.12.33-.25.65.1.9.33.57.51,1.25.9,1.87.32.8-.76-.12-1.23-.54-1.71-.43-.49-.5-1.02-.47-1.62.03-.47,0-1.06.52-1.19.69-.18.85.4.96.95.05.22.14.57.27.6,2.54.56,1.31,1.92.59,3.21Z"/>
      <path d="M281.69,119.9c-.65.89-.38,2.11-1.41,1.75-.63-.22-1.08-1.07-.18-2-.91.22-1.56,1.14-2.28.4-.49-.5-.76-1.17-.22-1.89.57-.76,1.44-.93,1.95-.32.82.97,1.66,1.05,2.82,1.02,1.02-.03,1.69,1.01,2.24,1.78.36.51-.74.72-.76,1.32-.69-.45-1.36-.11-2.06-.09-.45.01-.3-.98-.1-1.95Z"/>
      <path d="M53.54,287.74c1.56.32,2.95.6,4.41.2.47-.13,1.02.18,1.22.78.29.9-.43,1.41-.84,1.98-.37.51-.62-.22-.92-.3-1.27-.35-2.56-.65-3.86-.82-.8-.11-.97-.68-1-1.19-.04-.76.62-.66,1-.64Z"/>
      <path d="M190.01,268.44c-.22,1.23-.21,1.22-1.38.91-.44-.12-.77,1.03-1.24.18-.23-.41-.71-.82-.43-1.43.3-.64.77-1.01,1.48-1.04.58-.02,1.16.07,1.73-.01.78-.11,1.48-.21,2.04.53.73.95-.43,1.16-.69,1.66-.48.93-.63.85-1.51-.8Z"/>
      <path d="M62.61,123.73c1.04.5,1.33,1.35,1.04,2.4-.16.6-.6,1.14-.08,1.77.23.28.79.55.34.97-.32.3-.82.46-1.3.22-1.23-.62-1.56-1.95-2.02-3.01-.4-.92.93-1.44,1.5-2.13.1-.11.3-.14.51-.22Z"/>
      <path d="M134.47,240.69c-.1.64.89.99.09,2.02-1.02,1.33-1.47.5-1.78-.09-.81-1.52-1.45-3.14-2.06-4.76-.29-.77.14-1.06.94-.89,1.13.24,2.94,2.55,2.8,3.72Z"/>
    </g>
  </g>
</svg>