<?xml version="1.0" encoding="UTF-8"?>
<svg fill="#6A7F6B" id="Capa_2" data-name="Capa 2" xmlns="http://www.w3.org/2000/svg" viewBox="0 0 401.8 238.35">
  <g id="Layer_1" data-name="Layer 1">
    <g>
      <path d="M353.98,189.12c-.59-.22-1.23-.31-1.53-1.03-.65-1.56-1.64-2.53-3.54-2.54-1.06,0-.97-1.34-1.83-1.98,1.39-.32,1.22,1.01,2.01,1.04.49-.75.02-1.25-.52-1.6-1.74-1.12-3.53-2.19-5.3-3.26-.3-.18-.61-.32-1-.16-1.31.52-1.25.42-1.61.14-.67-.53-1.61-.63-1.57-1.92.03-1.17-1.09-1.71-2.21-2.26.19.8.93,1.81-.18,2.01-1.02.18-2.37-.42-2.29-1.59.11-1.63-1.14-1.29-1.81-1.86-.82-.69-1.1-1.22-2.35-.38-1.09.73-2.51-.05-2.88-1.56-.41-1.69-1.35-2.25-3.08-2.24-1.58,0-3.29-1.34-4.71-.45-1.71,1.07-3.2.59-4.6-.03-6.93-3.07-14.36-2.25-21.59-3.03-1.55-.17-1.82.72-1.94,1.81-.07.66-.22,1.14-.89,1.27-.84.16-.83-.48-.99-1.05-.36-1.31-1.28-1.54-2.25-.75-.78.63-1.32.64-1.94-.07-.58-.66-1.26-.69-2.12-.61-4.77.43-9.55.76-14.33,1.15-1.04.08-2.56-.31-1.74,1.78.09.24.34,1.75-1.04,1.92-1.12.14-1.77-.29-2.15-1.24-.12-.3.02-.88-.45-.81-1.92.29-3.3-2.41-5.4-.92-.17.12-.39.22-.5.39-.5.8-.15,2.34-1.39,2.39-1.21.05-2.45-.53-3.62-.81-.04-1.07,1.25-.49,1.26-1.45-5.03.78-10.04,1.51-15.03,2.34-2.89.48-5.75,1.17-8.63,1.71-6.98,1.3-12.16,5.06-15.76,11.16-2.36,4.01-4.85,7.94-6.6,12.28-.58,1.45-.82,2.78-.43,4.35,1.71,6.74,2.54,13.66,3.32,20.54.57,5.03-.56,10.13-.31,15.22.04.86-.44,1.32-1.33,1.31-2.85-.01-5.71-.04-8.56-.02-1.78.02-2.38-.85-2.3-2.54.13-2.64-.03-5.31.24-7.93.52-5.26-.71-10.41-.84-15.63-.05-2.14-.21-4.29-.1-6.43.07-1.23-.23-2.24-.94-3.2-7.57-10.27-17.89-16.25-30.13-19.14-2.34-.55-4.83-.5-7.26-.67-.75-.05-1.52-.21-2.09.68-.32.5-1,.67-1.7.24-2.33-1.42-4.67-1.89-6.91.21-.3.28-.84.34-.94.02-.7-2.24-2.69-1.38-4.13-1.77-1.17-.32-2.38-.5-3.58-.67-.88-.13-2.19-1.09-2.15.97,0,.38-.51.34-.85.44-1.77.52-3.73.8-4,3.24-.07.64-.83.56-1.25.5-.52-.07-1.21-.1-1.42-.75-.15-.46.08-.85.6-.95.97-.18.54-.52.18-.98-.86-1.08-1.93-1.9-2.61-3.25-.61-1.22-2.12.26-3.26.36-.53.04-1,.66-1.58,1.07,1.94,1.25,1.05,2.91.23,4.04-.79,1.09-2.32,1.04-3.4-.03-.93-.91-.74-2.23-.87-3.4-.06-.59.88-1.54-.35-1.64-.93-.08-1.25.96-1.32,1.82-.03.41.22.84.2,1.26-.04.88-.95,1.01-1.48,1.39-.62.44-.81-.37-1.02-.75-.43-.75-.26-2.17-1.48-2.01-.91.12-.51,1.51-1.17,2.43-1.13-3.23-3.72-1.92-5.68-1.68-1.54.18-.55,1.9-.55,2.95,0,.49.91.93.19,1.48-.42.32-.95.21-1.41-.09-.83-.54-1.8-.21-2.52.01-1.41.43-1.95-.16-2.38-1.28-.26-.66-.41-1.37-1.48-1-1.04.35-.84.97-.62,1.69.13.41.24.82-.37,1.31-.46-2.12-1.61-2.21-3.04-1.09-.6.47-.89,1.04.14,1.35,1.75.52,1.6.79.14,1.81-1.44,1-2.38.53-3.42-.22-1.42-1.03-3.39-.88-4.13.68-.41.86-1,.91-1.48.73-1.07-.38-1.95.09-2.91.32-1.74.42-3.18,1.01-2.35,3.2-.81.28-.83-.23-.97-.62-.66-1.75-1.88-1.14-2.68-.37-1.06,1.02-1.74,2.58-3.56,1.2-.1-.07-.51.05-.55.16-.67,1.93-2.48,1.58-3.9,1.98-.77.22-1.59.48-2.03,1.13-.9,1.33-1.97,1.64-3.5,1.25-1.03-.26-5.29,2.37-5.55,3.42-.16.63-.34,1.75.84,1.84,1.2.09,2.19.44,2.16,1.75-.03,1.38-1.35,1.52-2.32,2.05-.46.25-2.29-.99-1.53,1.22.18.54-1.61.74-2.39.39-2.87-1.3-5.89-1.02-8.89-1.11-.77-.02-2.36.44-2.16-1.25.16-1.32.98-2.2,2.62-1.8-1.64-1.38-3.24.24-4.86-.08.37-.62,1.01-.51,1.48-.77.79-.44,2.59.02,1.93-1.77-.52-1.4-1.48-3.03-3.2-2.47-1.91.62-3.92,1.4-5.17,3.27-.53.79-1.45.83-2.34.67-1.08-.19-.46-.9-.53-1.47-.09-.83-.39-1.66-.73-2.44-.43-.98-.04-1.48.82-1.82.93-.37,1.45-.39.89.87-.1.22.54.38.83.08.44-.45.55-1.1,1.03-1.58.6-.6.58-1.18-.63-.95-.66.12-1.4-.07-1.98-.86,1.13-.48,2.31-.7,1.25-2.53-.58-1,1.31-1.14,2.15-1.26.76-.11,1.16.05.52-.8-.18-.24-.07-.76.16-.68,2.12.71,2.78-1.91,4.71-1.72-.55-.7-.94-1.19-1.32-1.68-.16-.21-.25-.5-.63-.4-1.28.36-1.15.28-1.79-.89-.82-1.51-2.26-2.41-3.97-2.35-1.24.04-2.34.64-.84,2.66-2.02-.84-3.55-.97-4.97-1.63-1.47-.68-3.47.39-3.88,2.26-.32,1.46-.68,1.88-2.05,1.28-.57-.25-1.09.04-1.49.39.03.63.4.61.76.6.65-.02,1.26.2,1.17.91-.12,1.03-.9.24-1.37.33-1.39.26-2.68.09-3.66-1.11-.23-.29-.8-.52-.92-.23-.68,1.63-2.32,1.25-3.5,1.83-1.52.74-1.74,1.79-.48,3.35-1.76-1.52-2.7-1.03-3.58.65-.61,1.16-1.65,2.1-2.8,3.53-.35-1.68.65-2.1.64-2.92-.01-.66-.09-1.21-.91-1.07-.48.09-1.35.03-.93.97.37.83.1,1.23-.72,1.35-1,.14-1.81-.35-1.92-1.26-.12-1-.39-1.88-.7-2.83-.27-.84.08-1.87,1.31-2.06.49-.07,1.02-.06,1.45-.26.34-.15,1.23-.1.73-.91-.27-.44-.68-.69-1.26-.24-.61.49-1.48,1.65-2.07.58-.6-1.07.93-1.23,1.6-1.75,2-1.58,3.6-1.71,5.3.6.8,1.09,2.3,2,4.2.6-.88-.39-1.53-.88-2.22-.95-1.89-.18-1.92-1.05-1.42-2.6.58-1.77,1.16-2.52,2.77-.92.95.95,2.14.77,3.21.28,1.71-.79,3.33-1.78,5.77-2.14-1.57-.84-2.39-1.52-3.89-.89-1.38.58-2.69-.36-3.26-1.71-.44-1.04-.83-1.52-2.04-1.19-1.26.35-1.76-.39-1.93-1.6-.23-1.67-.95-3.02-2.97-2.93-.59.03-.68-.35-.85-.76-.97-2.31-2.8-3.68-5.08-4.5-.82-.29-1.27-1.02-1.06-1.62.35-1.03.98-2.04,1.72-2.83.29-.31.66.54.95.92.88,1.16,1.61,1.7,2.27-.26.21-.62.1-2.1,1.37-1.72.99.29,2.66.44,2.01,2.34-.04.13-.04.4-.02.4,2.71.59,1.56,4.21,4.54,5.32-1.23-1.81.31-4.13-2.31-4.99.05-.84,1.13.06,1.19-.69.12-1.51.55-1.05,1.1-.2.2.32.55.55.88.23.36-.35.04-.63-.24-.87-.21-.19-.49-.36-.6-.6-.32-.69-.81-1.37-.17-2.19.69-.88,1.42-.18,1.91.07.88.45,1.64.96,2.69,1.18,1.3.28,1.38,1.46.64,2.59.66.07.8-.38.81-.63.08-1.92,1.47-1.8,2.14-.9.9,1.21,1.94-1.12,2.37.35.26.9.06,1.94.34,2.83.34,1.09,1.94,1.06,2.33,2.32.12.4.76-.04.98-.41.28-.47.4-1.11-.29-1.2-1.9-.24-2.36-1.19-1.75-2.9.26-.75-.48-.95-.91-1.25-1.42-.97-2.86-1.9-4.3-2.84-1.72-1.12-3.29-2.17-5.68-1.4-2.18.71-3.61-.61-3.47-2.81.05-.84-1.15-1.62-.16-2.33,1.3-.93,2.63-1.92,4.1-2.45,1.28-.46,1.64-1.19,1.4-2.25-.19-.82-.26-1.38.63-1.72.23-.09.57-.14.34-.57-1.21-2.3.82-2.68,2.12-3.12,1-.34,2.09-1.06,3.35-.36.52.29,1-.32,1.13-1.09-.64-.1-1.38-.46-1.84-.23-1.49.71-2.73,1.13-3.92-.56-.35-.49-1.21-.09-1.77.28-.35.23-.68.5-1.06.66-.12.05-.53-.18-.53-.26.13-2.17-3.69-.64-3.07-3.29.13-.54-.25-1.08-.41-1.61-.42-1.38-.19-2.43,1.01-3.71,1.53-1.64,4.41-1.44,5.12-4.1.11-.41,1.37-.52,2.09-.77-.33-1.52-1.86-2.16-2.33-3.52-.21-.62-.4-.18-.72-.06-.84.33-1.68-.47-1.66-.9.08-2.03-1.81-4.07.04-6.09.36-.39.2-1.11-.09-1.41-1.67-1.74-2.15-4.3-4.09-5.81-.24-.19-.87-.14-.71-.56.6-1.63-.35-2.78-.95-4.14-.44-1-.87-1.53-1.97-1.55-1.27-.02-2.53-.24-3.79-.18-2.66.14-4.01-1.51-4.12-4.01-.11-2.6.38-4.1,3.22-4.38.75-.07,1.42-.91,2.13-1.39,1.95-1.32,3.2-1.03,3.98,1.13.45,1.24.83,1.9,1.96.62.59-.67.92-.52,1.11.31.1.45.38.86.9.55.42-.25.41-.71.21-1.15-.06-.13-.09-.32-.19-.38-2.73-1.63-2.45-4.29-2.41-6.9,0-.6-.35-1.43-1.03-1.48-.92-.06-.92.89-1.15,1.54-.27.76.41,1.35.27,2.75-1.15-1.67-1.17-3.2-1.72-4.5-.46-1.1-.49-2.02.47-2.83.84-.71,1.58-1.28,2.75-.37,1.28.98,2.89,1.49,3.6,3.19.26.63,1.12,1.23,1.96.9.79-.31.7-1.06.64-1.84-.16-1.95.68-2.36,2.65-1.95,1.53.32,2.6,1.73,4.46,1.4.88-.16.83,1.73,1.55,2.32,1.81,1.47-1.66,1.06-.45,2.22.77-.69,1.96-.65,3.03-.78,1.04-.13,2.24.26,2.47,1.68,1.43-.61.98-2.05,1.63-2.98.5-.71-.74-.57-1.31-.49-.53.07-1.27.51-1.25-.47,0-.69.21-1.33,1.33-1.13,1.28.23,2.1-1.14,1.5-2.28-.86-1.62-.57-3.62-1.78-5.17-.2-.26.17-1.49.88-2.02,1.28-.96,1.62.76,2.58.89.01-1.62-1.6-1.39-2.44-2.09.72-1.05,1.75-1.01,2.71-1.08.35-.02.72.04,1.06.15,1.08.37,2.7-2.18,3.35.63.32,1.37,1.65,2.46,1.1,4.11-.27.82-.34,1.64,1.09,1.37.49-.09.76.68.92,1.28.22.79.4,1.65,1.74,1.2.86-.29,1.19.46.82,1.3-.31.72-.78,1.4-.96,2.15-.29,1.22,0,2.34,1.55,1.89,1.34-.4,1.82-.18,1.95,1.21.06.58.66,1.1.84,1.69.27.88.65,2.01-.05,2.65-.84.77-.94-.73-1.54-.89-.81-.21-1.65-.3-2.63-.47.74,2.09,2.29,2.64,4.55,2.42-1.31,1.62-2.25,2.81.66,3.12,1.29.13-.33,1.17-.08,2.02.79-.55,1.65-.84,2.58-.71.65.09,1.17-.02,1.24-.79.05-.55.11-.99-.54-1.44-2.04-1.43-1.99-1.49.16-3.41-2.81-.51-2.84-1.78-1.12-3.59.19-.2-.28-.92-.24-1.39.09-1.33,1.97-2.02,3.08-1.07.95.81,1.32,1.23,1.65-.49.29-1.51,1.61-1.56,2.62-.23.2.27.16.58.67.62,4.63.42,4.75.55,5.43,5.09,0,.06.09.11.16.2,1.22-.31,1.13-1.4,1.13-2.23,0-1.98,1.26-2.65,2.86-3.08,1.35-.36,2.58-1.62,4.13-.56.53-.81,1.57-.94,2.11-1.94,1.33-2.44,4.91-2.64,6.13-.28.92,1.77,1.77.72,2.46.28.75-.48,1.17-1.38,1.94-.04.11.2.94-.01,1.43-.04-.17-.48.58-.74-.07-1.57-.98-1.26-2.58-1.7-3.38-3.1-.29-.5-1.06-.09-1.59.11-1.17.44-1.68.09-1.4-1.18.17-.79.15-1.57-.84-1.58-.88-.01-1.89.05-1.88,1.45,0,.82.03,1.86-1.24,1.84-1.16-.02-1.85-.65-1.93-1.85-.06-.91-.6-1.81-.14-2.73.65-1.31-.5-2.26-1.16-2.33-3.53-.37-6.29-2.6-9.52-3.63-.76-.24-2.11-1.34-2.39-.19-.25,1.02.99,2.19,2.21,2.69.36.15.86-.05,1.25.07.43.14.67.57.55,1.04-.15.58-.56.56-.99.29-.86-.54-1.72-.55-2.63-.11-.82.4-1.57,0-2.13-.55-.64-.63-.45-1.43-.03-2.13.63-1.06.58-1.64-.84-1.87-.88-.14-1.73-.64-2.53-1.09-.85-.48-1.59-.96-1.63.7-1.43-1.18-.15-2.64-.83-3.68-.7-.11-.56.33-.61.65-.21,1.23-1.47,1.44-2.11,1.28-.96-.25-.23-1.22,0-1.8.23-.58.47-1.1-.12-1.52-.75-.53-.94.1-1.22.64-.34.66-.97.93-1.63.65-.78-.33-.8-1.02-.61-1.81.66-2.86.99-2.92,3.7-3.1.99-.07,1.69-.06,2.5.4.5.29.77-.49.98-.49,1.7,0,3.47-.1,5.07.37.74.21.06,2.18,1.35,2.6.37.12,1,.76.94.45-.22-1.13,2.08-.81,1.1-2.1-.46-.6-.63-1.25-.7-1.98-.07-.72.01-1.21.9-.79.45.22.93.21,1.08-.26.15-.48-.42-.67-.72-.93-2.76-2.36-5.52-4.72-8.17-7.22,1.77.4,2.78,1.91,4.2,2.8.86.54,1.49,1.98,2.67,1.36,1.24-.65-.46-1.75.03-2.78,1.19.13,1.16,1.31,1.66,1.97.69.93,1.58.73,2.91.31-.75,1.16-.68,2.11-1.68,2.62-.51.26-.12.77.3.96.36.16.88.46,1.05-.17.5-1.83,1.87-3.51.87-5.6-.3-.63-.31-1.47-1.1-1.71-.55-.17-.86-.63-.59-.9,1.62-1.61.15-3.03-.25-4.45-.43-1.54-.58-2.87,1.27-3.4,1.4-.4.8-1.81,1.48-2.61.56-.66,1.08-1.67,1.83-1.34.75.33,1.83.72,1.97,2,.1.89.21,1.97-.26,2.48-1.1,1.19-.54,1.67,1.05,2.08-1.1.43-2,.57-1.81,1.43.22.99.92-.11,1.35.17,1.41.88,2.99,1.58,4.17,2.7.78.74,1.09.62,1.35-.11.21-.59.24-1.18.78-1.66.45-.41.09-.73-.4-.89q-3.4-1.13-5.44-4.38c1.59.09,3.2-.4,3.9,1.56.43,1.2,1.01.04,1.5.12-.19-1.98,1.71-1.93,2.68-2.77-.09-.63-1.54-.32-1-1.26.49-.86,1.26-1.76,2.38-1.55,1.28.25,2.19,1.5,2.21,2.54.02.91-.68,2.42-2.16,2.25-.72-.08-.7.04-.63.54.05.44-.31,1.25.48,1.14,1.12-.15,2.47.46,3.19.04,1.29-.74,1.12,0,1.25.7.08.42.18.86.13,1.27-.11.82-.25,1.88.83,1.77,1.08-.11,2.1-.88,2.02-2.25-.02-.39-.51-.93.03-1.09,3.1-.92,3.65-5.17,7.2-5.46.07,0,.16-.02.2-.07.42-.48-.79-1.88.34-1.51,1.27.42,2.8.64,3.84,1.72.15.15.39.47.39.46,1.8-1.39,3.12.34,4.67.61,1.65.29,1.38,1.34,1.53,2.31.04.26-.23.6-.74.55-.39-.03.08-1.56-.79-.42-.46.59-.72,1.19-.25,1.95.51.84.79,1.84,1.35,2.63,1.49,2.09,3.08,4.1,4.63,6.16.69-.64.25-1.62,1.11-2.12,1.11-.65,2.66-.07,3.66,1.72.29.52.38,1.29,1.06.86.42-.27,1.82.05,1.18-1.33-.27-.57.67-.59.79-1.13.29-1.25-.83-2.41-2.54-2.29-1.19.09-2-.43-2.4-1.33-.35-.79.17-1.49,1.45-1.69-1.31-.44-2.6.61-3.34-.73-.58-1.05-.75-2.14-.3-3.28.38-.97-.25-1.62-.69-2.35-.39-.63-.71-1.31-1.08-2,1.04-.24,1.01.92,1.73.92.43-.48.05-.91-.26-1.06-2.16-1.09-.35-2.46-.18-3.61.11-.8.74-.18,1.03.2.32.42.24,1.16,1.05,1.17,2.71.03,2.96.3,3.13,3.32q1.09-.54,1.15-2.36c1.07.8,2.08,1.34,1.82,2.9-.15.93,1.01-.28,1.12.7-1.08.5-1.21,1.43-.58,2.45.78,1.26,1.54.41,2.31-.08.61-.38,1.26-.37,1.76.18.54.6.99,1.38.67,2.16-.4.98-1.1.75-1.57,0-.26-.42-.53-.78-.98-.46-.6.42-.12.83.15,1.25,1.43,2.3,3.77,2.15,5.93,1.98,1.09-.09,2.05.59,3.16.16.94-.36,1.25-1.17.62-1.56-1.6-.98-1.75-4.08-4.82-2.85,1.43-2.15.87-4.22.91-6.17.02-.98-.3-1.97.19-2.92.39-.77,1.11-1.13,1.92-1.2.75-.06.98.66,1.08,1.14.21.97,1.41,1.43,1.18,2.64-.13.67.64.41.98.41,2.19.06,3.08.73,2.78,2.8-.22,1.46-.14,2.96-1.11,4.42-1.85,2.78-1.16,5.6-.15,8.83,1.09,3.49,3.32,2.37,5.32,2.79.31.07.57-.04.7-.34.17-.4-.03-.7-.32-.93-.7-.57-1.29-1.09-.64-2.13.94-1.51.56-4,3.2-4.24.07,0,.14-.03.21-.04,1.3-.13,3.83,2.21,3.71,3.48-.05.47-.5.99.03,1.38,1.32.95,1.19,2.32,1.21,3.68.01.7-.02,1.51.81,1.83.74.28,1.2-.28,1.65-.74,1.75-1.76,4.11-2.84,5.51-5,.42-.64,1.49-.48,1.69-.14.44.76.52.71.98.06.46-.65.45-.93-.36-1.18-.7-.21-1.35-.63-1.21-1.53.13-.8.65-1.28,1.46-1.31.68-.02.97-.2.62-.89-.18-.35-.66-.74-.15-1.09.21-.15.67.01.99.1.64.17.69.57.49,1.15-.18.53.11,1.13-.23,1.67-.56.89.02,1.29.93,1.68-.17-1.16-.54-2.41,1.22-2.98-.24,1.85.63,3.3,1.23,4.75.64,1.54-.08,2.34-.98,3.04-1.19.92-1.62,1.85-.66,3.08,1.36,1.75,2.79,3.44,4.19,5.17.57.7,1.37.81,2.14.66.76-.15.56-1.11.87-1.5,1.86-2.32.41-4.31-.03-6.6-.29-1.51-1.05-3.56-.68-4.64,1.59-4.62-3.17-5.27-4.49-7.99-.51-1.05-1.49-1.71-.07-2.69.67-.46,1.01-.98.23-1.71-.49-.45-.86-1.22-.08-1.62.6-.31,1.07-1.41,2.01-.68.63.48,1.3,1,.8,1.95-.45.87-.2,1.39.64,1.92,1.27.81,2.39,1.52.46,3.2-1.01.88-.15,2.63,1.07,3.99.46-1.14,1.42-1.85,1.17-3.12-.08-.41.1-.61.4-.88.64-.57,2.87-.29,1.41-2.02-.65-.77-.3-2.1-1.93-2.53-1.03-.27-1.92-2.08-2-3.66-.05-1.1-.24-2.34-.14-3.27.25-2.31-1.3-2.73-2.63-3.56-.46-.29-1.24-.34-1.25-1.02-.01-.71.64-.87,1.24-.92.9-.09,1.31-.53,1.08-1.43-.41-1.63-1.71-1.14-2.76-1.07-1.15.08-.3.81-.41,1.21-.51,1.84-.23,3.6.07,5.39.05.29-.17.53-.5.6-.31.06-.59,0-.72-.3-.18-.46-.3-.95-.46-1.42-.52-1.58-1.23-2.85-3.31-1.73-.82-2.33,3.39-2.22,1.74-4.79,2.54,1.22,2.16-.77,2.32-1.73.13-.77-.06-1.6.75-2.06.69-.38.89-.87.62-1.59-.15-.42-.34-.86-.86-.8-.71.09-.66.85-.97,1.3-.16.22-.31.45-.59.86-.54-.82-.45-1.7-.71-2.39-.33-.9-.69-2.56,1.41-2.35.19.02.55-.06.55-.11.12-2.21,2.25-2.48,3.6-3.58.67,1.42,1.17,3.39,3.57,2.09.05-.03.17,0,.2.03,2.38,3.1,3-.76,4.47-1.2.82-.24,1.38-1.15,2.48-.62,2.6,1.24,2.75,1.14,3.92-1.76,1.82,1.17,3.55,2.49,5.46,3.43.9.44.32.92.49,1.35.28.72.62,1.59,1.38,1.64.84.05.67-.92.83-1.51.05-.21.06-.49.2-.6,1.59-1.26,2.24-3.23,3.58-4.66.62-.66,1.45-1.09,1.82-2.03.27-.71.91-1.15,1.73-.86.82.29,1.18.8,1.05,1.81-.07.53-.32,1.32.75,1.89.92.49-.89,1.4-.43,2.5,1.04-.13.96-1.41,1.83-1.93.62,1.97-1.66,4.14.54,6,.79-1.33-.3-2.64-.03-3.95.15.11.29.15.32.23.35.9.03,2.37,1.06,2.58.85.18,1.73-.81,2.34-1.65.21-.29.57-.78.73-.73,2.61.78,2.56-1.78,3.5-2.91,1.1-1.33,2.27-1.51,3.77-1.22,1.46.28,1.36,1.44,1.37,2.47,0,1.58,1.6,1.84,2.17,2.94.33-1.9-.74-3.39-1.3-4.93-.89-2.43-.57-3.2,2.09-3.11.12-.67-1.26-1.25-.17-1.98.92-.62,1.27.45,2.38,1.17-.93-2.35-.75-3.99.19-5.73.74-1.37,3.62-3.55,5.11-3.46,1.71.11,1.34,1.75,1.86,2.65.27.46-.27.95.88.82,1.27-.14,2.06,1.01,1.93,2.29-.12,1.16-.76,2.04-2.19,1.48-.28-.11-.57-.3-.71.09-.13.36.03.72.33.95.46.35.94.19,1.42-.01.65-.27,1.68-.77,1.88-.02.21.83,1.02,1.86.23,2.74-.94,1.04-.43,1.62.29,2.51,1.13,1.41,3.04,2.03,3.66,3.97.25.78,1.49.22,2.12.75-.79.95-2.02,1.9.12,2.69.5.18.66.78.56,1.05-.47,1.31-.73,3.13-1.71,3.74-2.55,1.59-1.36,4.28-3.03,6.5,2.1-.44,2.12-1.73,2.44-2.72.24-.73.28-1.91,1.03-1.91.92,0,2.17.7,2.28,1.63.18,1.52,1.72,2.18,1.66,3.91,1.73-2.62,4.44-3.59,6.26-5.57.21-.23.45-.28.76-.12.43.23,1.04,1.01,1.3.01.16-.6-.09-1.61-1.06-1.5-1.83.2-1.94-.59-1.42-2,.11-.3,0-.71-.06-1.05-.1-.58-.73-1.36.29-1.56.81-.16,1.9-.4,2.22.92.03.13.19.23.21.36.1.6-.11,1.35.74,1.6.31.09.65-.07.62-.38-.06-.75.5-1.63-.25-2.24-1.44-1.18-1.64-3.27-3.23-4.3-.53-.34-.48-.85-.41-1.34.41-2.85,1.84-5.83,5.41-6.2.79-.08,1.41-.03,1.62.92.36,1.59.96,3.13-.6,4.54-.73.66,0,1.63.13,2.42.12.73.98.18,1.32.31,1.33.5,2.72.66,4.05,1.05.17-1.69,2.91-3.56,4.08-2.57.86.72,1.62,1.97,1.67,3.3.02.57-.02,1.13.2,1.67,1.54,3.74,1.25,5.42-1.6,8.22,2.43-.26,2.81.56,1.5,2.35-.25.34-.06.98-.19,1.45-.19.74-.11,1.85-.81,2.11-2.95,1.08-1.14,2.09,0,3.23.53-.63.97-1.38,1.61-1.86.96-.74,1.96-2.46,3.17-.1.38.74,1.04.18,1.24-.41,1.1-3.17,2.19-6.35,3.22-9.55.11-.35-.04-1.14-.2-1.18-1.74-.44-1.54-3.03-3.59-3.16-.46-.03-1.21-.61-.93-1.44.21-.62.15-1.46,1.17-1.55.68-.06,1.23-.52,1.35-1.22.38-2.3,2.18-2.5,4.08-2.78-.66-1.04-.51-2.19-.28-3.23.27-1.2,1.41-1.97,2.51-2.07,1.23-.11,2.22.76,2.99,1.78,1.2,1.61.74,3.31-.08,4.75-.98,1.73-.53,3.59-.4,5.18.17,1.97-.58,2.28-1.97,2.36-.87.05-1.39.2-1.29,1.19.04.38-.12.81-.51.83-2.06.12-2.12,1.83-2.58,3.2-.94,2.85-1.84,5.71-2.84,8.8.67-.42,1.29-.61,1.58-1.02,1.03-1.45,1.73-1.25,2.34.29.19.47.45,1.06,1.05.78.53-.25,1.15-.62.83-1.49-.14-.39-.07-.85-.11-1.27-.1-.98.32-1.67,1.18-2.07.94-.43,1.21.44,1.68.93.24.25.56.42.97.72.24-1.16,1.53-1.89.19-3.32-.75-.8-.48-2.49,1.41-2.38,1.06.06,1.51-.69,2.16-1.18,1.28-.96,2.64-.31,2.73.76.13,1.72,1.45,2.7,2.05,4.04.44.99.67,2.16,1.37,3.13-.03-1.17,2.46-2.24-.02-3.53-.62-.32-.37-.91.2-1.13.52-.2,1.16-.42,1.65-.29,1.62.41,2.33.15,2.09-1.77-.16-1.3,1.38-2.05,2.32-1.19.77.71.78.17,1.16-.29.81-1,1.84-2.39,3.18-1.37,1.4,1.06,1.43,2.52-.22,3.83-.63.5.11,1.62-.11,2.56-.73,3.1-2.16,4.61-5.37,5.04-.91.12-.72.69-.58,1.27.11.45,1.13,1.12.22,1.27-1.42.23-1.35,3.14-3.55,1.74-1.05-.67-2.56.3-3.72-.93-.51-.54-.93.2-.48.89.5.76.23,1.47-.59,1.2-1.44-.47-2.67.5-4.1.22-1.64-.33-4.05,3.06-4.08,5.67.99-.72,2.13-1.19,2.68-2.05.73-1.14,1.49-1.29,2.63-1.03,1.2.28,1.25,1.21,1.36,2.15.03.27.2.52.45,1.11.46-1.21,1.34-1.92,2.23-1.89,1.06.04,1.57.91,1.47,2.15-.04.52,1,.79,1.06,1.51.1,1.23-1.43,2.1-2.77,1.56-.45.6-.18,1.05.31,1.44,1.7,1.35,3.32,2.77,4,4.94.3.96.98.13,1.44.3.54.2.94.19,1.18-.48.2-.54.25-.97-.31-1.28-1.18-.65-1.5-1.48-.56-2.6.1-.13.12-.53.03-.58-2.17-1.44-.57-3.67-1.17-5.42-.28-.8.12-.87.75-.7.53.15.78-.14.96-.59.14-.36-.46-1.12.56-1.04.78.06,1.25.29,1.61,1.1.63,1.43,1.87,2.88,3.4,1.81,1.38-.97,3.42-1.96,2.9-4.49-.19-.94-.05-2.16.41-2.98.71-1.24.68-2.34.34-3.61-.13-.48-.42-1.2.28-1.53.64-.29,1.23-.02,1.76.43.51.43,1.05.82.6,1.58-.17.29-.56.47-.49.89,2.19-.37,3.06-1.44,3.68-4.68.58.73.44,1.74,1.39,2.24.95-1.56,3.31-2.13,3.51-4.18.23-2.28,1.37-3.6,3.27-4.53.14-.07.31-.34.27-.46-.41-1.28.2-1.85,1.36-1.68,1.54.22,2.98.98,3.27,2.6.2,1.16.08,2.62-1.59,3-.41.09-.92.03-.69.71.52,1.55-.38,3.36.82,4.77.57.67.12,1.03-.16,1.64-1.3,2.87-1.91,2.95.56,4.97.41-.65-.71-1.06-.19-1.81.3.34.58.63.85.95.42.5.86,1.11,1.58.82.76-.3.23-1,.23-1.52.02-1.76.97-2.31,2.75-2.19,1.63.11,2.85.43,3.73,1.93.23.39,1.75,2.12,1.63-.52-.05-1.05,2.59-1.68,3.54-.95.58.44.89,1.07,1.37,2.22.47-2.15,2.19-2.67,3.09-4,.48-.71,1.28-1.3,2.51-.07,1.07,1.07,1.87,3.26,4.22,2.6.41-.12.85.65.47.88-1.66.99-.48,2.02.13,2.58.67.61.09,1.39.63,1.9.75-.28,1.09-1.09.88-1.53-.85-1.81.77-3.37.31-5.21-.27-1.09,1.21-1.75,2.18-1.98.96-.23,1.72.35,1.62,1.61-.03.36.15.8.59,1.08.35.22,1.28.47.74.95-.52.45-1,1.59-2.04,1-.39-.22-1.05-.52-1-.16.27,2.01-2.23,2.69-2.05,4.75,1.83-1.46,3.58-2.85,5.45-4.34.21.98-.46,1.2-.79,1.58-.57.63-.78,1.6-.2,1.9,1.39.72,1.94,2.49,3.73,2.68,1.43.15,1.74,1.6,1.22,3.01-.48,1.29-.98,2.33-2.18,3.09-1.06.67-1.97,1.58-3.19,2.59,1.31.2,2.5-.47,3.66.69-1.97.15-3.82.3-3.1,2.84-2.29.03-2.73,1.46-2.77,3.4-.03,1.74-.33,3.47-.53,5.35-1.34-.68-2.31-.53-2.91,1.15-.37,1.03-1.43,1.59-2.66.91-1.15-.64-2.2-.11-2.89.67-.67.75-1.25,1.75-.25,2.85.69.76-.58,1.58.02,2.58-1.79-1.74-2.52-1.12-2.86.85-.18,1.03-1.36,1.71-.86,3.07.3.82-.54.51-.99.41-1.93-.44-3.16.04-3.93,2.12-.6,1.61-2.14,2.59-4.03,2.85.05.83.6.97,1.28,1.04.84.08,1.66.33,2.5.34,2.1.04,2.45,1.32,2.23,3.02-.09.7-.42,1.4-.39,2.09.02.75,1.3,1.53-.44,2.08-1.35.43-2.05.22-2.38-1.61-.25,1.04-.26,1.68-.55,2.14-.5.8-1.71,1.45-.73,2.51.96,1.04,2.11,2.05,3.76,1.48.6-.21,1.15-.42,1.4.34.2.61-.31.99-.79,1.08-.84.18-.95.35-.64,1.25.45,1.33.68,2.76-1.51,3.11-1.17.19-1.63,1.54-2.26,2.47-.41.6-.01,1.08.76,1.09,2.33.05,4.58-.29,6.62-1.51.18-.11.94-.17.33-.62-1.69-1.24.42-1.4.66-1.68.55-.66,1.95-1.31,2.39-.27.36.85,1.75,2.51-.62,3.28-1.42.46-1.36.72-.02,1.91.79.7.51,2.96-.39,2.9-2.57-.19-3.64.84-3.22,3.62,1.57-.75,3.21-1.36,4.99-1.48.74-.05,1.41-.55,1.41-1.58,0-.72.34-1.39,1.02-1.8.1.04.27.06.33.15.34.5-.47,1.76.73,1.55.81-.14.24-1.1.09-1.67-.4-1.44-.21-2.63,1.41-3.04,1.95-.49,1.83,1.21,2.24,2.89.57-1.76,1.45-1.19,2.36-1.13,1.97.14,3.36,1.58,5.22,2.03,1.16.28.34,1.75.45,2.67.13,1.02-.85.82-1.4.81-1.03-.03-2.22,1.24-3.14-.46-.25-.47-.83.18-1.22.68-.92,1.2-1.11,3.01-3.09,3.39-1.24.24,1,1.89-.64,2.36-.19.06,1.31,4,1.61,4,1.28.02,1.88-.78,2.62-1.77.9-1.19,1.95-2.6,4.05-1.79,1.19.46,3.17-.56,3.01,1.99-.01.18.78-.09,1.17-.07.83.03,1.43.58,1.65,1.36.11.39.54,1.03-.2,1.3-.69.26-1.59,1.04-2.14.27-.96-1.35-1.69-.63-2.62-.11-.66.37-1.41.59-2.13.88.36.63.91.12,1.22.43.19.19.45.41.48.64.04.36-.28.37-.59.39-1.4.07-2.27.7-2.27,2.23,0,.17-.3.49-.32.48-2.62-1.41-1.41,1.18-1.67,1.81-.56,1.36-1.84,1.9-2.63,2.97.86.47,1.61.69,2.65.17,1.11-.55,2.48.99,2.66,2.9.03.33-.24.68.12.97,1.5-.96,1.99-3.75.76-5.23-.4-.48-.92-.93-.46-1.37.45-.44,1.24-.78,1.84.07.52.71,1.67.39,2.06,1.52.56-2.43.55-2.39-1.32-2.79-1.06-.23-.68-1.04-.32-1.48.38-.46,1.02-.87,1.6-.98,2.27-.45,3.44-2.17,4.43-3.93.66-1.16,1.55-.7,2.19-.52.64.18,1.32.83.74,1.84-1.05,1.81.8.67,1.19,1.06-.49,1.06-1.94,1.67-1.38,3.18.14.37-.28.79-.62.69-2.03-.63-2.02,1.41-2.93,2.35.93-.25,1.85-.5,2.94-.79.05,1.92-.02,3.66-1.75,4.82-.56.38-1.08,1.06-1.87.32-.12-.11-.46-.16-.57-.07-2.58,1.91-6.25,1.76-8.42,4.48-.42.53-.47.91-.21,1.53.44,1.04.67,2.18,1.1,3.22.62,1.5-.51,2.47-1.16,3.43-.45.66-1.69.95-2.54.3-.79-.6-.12-1.46,0-2.18.07-.37.45-.68.74-1.09-2.18-.5-3.54.89-5.14,1.7-1.57.79-2.04,3.14-4.51,2.78.64.86,1.22,1.33.78,2.41-.68,1.65,1.33,1.41,2.03,2.07.55.51,1.54.46.36,1.27-.61.42-.46.79-.2,1.25.32.56.75.16,1.13.1.72-.11.68-.52.51-1.1-.25-.88-.39-1.78-.36-2.79.15,2.05,3.15,2.43,2.77,4.84.26-1.03,2.42-1.88-.01-3.2-.56-.31.36-1.82.84-2.58.41-.64,1.16-.59,1.99.07.63.5.09,2.41,2,1.49-1.86,1.13-2.33,3.18-3.86,4.34-.4.3-.61.87-.08,1.3.42.34.82.07,1.13-.25.35-.36.72-.72.96-1.15.47-.86.39-1.89,2.17-1.33,1.17.37,1.99-1.65,1.72-2.84-.43-1.92-.28-2.9,1.95-3.23,1.31-.19,2.36-2.05,3.97-.62.84-1.28,2.35-1.69,3.45-2.62.85-.71,1.67-1.29,2.89-.84,1.22.45,1.53-.75,1.76-1.4.49-1.36,1.06-2.51,2.65-1.74,1.58.76.28,2,.12,3.04.64.19,1.16.19,1.51-.44.13-.24.43-.66.47-.64,2.19,1.17,2.74-1.51,4.01-1.72,1.67-.27,2.22-1.26,3.15-2.22.6-.62,1.78-1.26,2.05.57.11.76.49,1.77,1.36,1.65.91-.12.55-1.09.55-1.8,0-1.16,2.59-1.71,3.8-.6.71.65,1.37.86,2.22,1,1.69.27,1.9,1.85,2.52,3.04.21.4-.08.68-.5.75-2.57.4-2.12,2.18-1.78,3.9.07.35.21.69-.18,1.14-1.74-1.37-2.7-.27-3.26,1.31-.4,1.11-2.4.93-1.93,2.6-1.22-.76-1.79-.08-1.86,1.24-1.02-.76-.21-1.45-.57-2.14-1.09.59-1.21,2.22-.98,2.51,1.57,1.96-.09,1.54-1.12,1.86-.78.24-1.42.89-2.13,1.36-.52.34-1.35.62-.73,1.42.5.64,1.25.98,2.07.37.53-.39.92-.88,1.15-1.51.15-.39.41-.81.91-.8.62,0,.81.52.93,1.01.27,1.09.78,1.84,2.05,1.77,1.37-.08.87,1.4,1.51,2,.22-.19.53-.34.52-.45-.32-2.31.42-2.79,2.35-1.42.81.57,1.25-.23,1.8-.59.62-.41,1.23-1.29,2.04-.57.82.72.51,1.69.1,2.56-.06.12-.2.21-.28.32-.55.73-1.5,1.8-.65,2.36.97.64,1.73-.51,2.07-1.49.47-1.39,1.72-2.41,1.71-4.07,0-.89,1.14-1.25,1.75-1.16.93.15,1.56,1.01,1.54,2.04,0,.53-.32,1.06-.64,1.99,1.34-.83,2.38-1.18,3.1.32.49,1.03,1.06-.15,1.61-.1.34,2.69-.43,3.21-3.68,2.46.15.94,1.75.99,1.26,2.4-.31.88-.85,1.19-1.5,1.61-.69.44-1.22.19-1.78-.15-1.06-.65-2.05-1.16-1.9.82-.83.03-.71-.5-.81-.89-.28-1.13-1.11-1.4-2.14-1.29-1.22.13-1.17,1.21-1.23,1.96-.22,2.85-.16,2.85-2.79,3.55,2.12.62,4.16,1.57,6.52.57,1.26-.53,2.94-2.17,3.64,1.33.63-1.48.65-2.35.58-3.21-.04-.52-1.01-1.2.16-1.48.89-.21,2.24-.17,2.14.97-.13,1.58.4,2.91.75,4.33.72,2.97-1.7,2.76-3.38,3.45.33-2.53.23-2.65-2.2-2.35-.72.09-1.47.28-2.06-.22-2.57-2.18-5.71-1.9-8.74-2.01-1.46-.05-2.86.06-2.28,2.22.21.79-.43,1.31-1.07,1.32-.93.02-.49-.77-.52-1.28-.12-1.96-1.61-3.53-3.11-3.33-.21.03-.58-.05-.61.02-1.05,2.8-2.91.81-4.4.71-.9-.06-2-.27-1.2-1.71.21-.38.13-1.12-.37-.94-1.25.46-2.52-1.23-3.76.19-.27.31-1.22.14-1.83.03-4.37-.79-8.66-1.9-12.93-3.1-1.36-.38-2.76-.61-4.13-.91.39.78.47,1.49-.77,1.25-.64-.12-1.19-.24-1.86-.07-1.03.26-1.19.88-.54,1.46.98.87,1.72,2.1,3.27,2.25.98.09,2.11.25,1.18,1.86-.36.62.13,1.62.9,1.97.9.4.96-.56,1.26-1.05.61-.99,4.26-.96,4.83.06.2.37.33.77.51,1.16.32.7,1.91.52,1.47,1.48-.52,1.11-1.63,2.41-2.81,2.33-1.61-.11-1.09.9-1.33,1.56-.16.18-.32.35-.48.53ZM320.02,160.75c-1.83,1.05-2.4,3.9-5.17,3.61-.07,0-.17.3-.41.76,2.14-.32,4.28,1.88,6.16-.8-.7-.15-1.05,1.03-1.54.16-.25-.45-.03-.98.44-1.3.81-.55,1.55-.84,1.81.54.06.32.04.77.52.78.17,0,.42-.18.5-.34.43-.91-1.23-3.35-2.31-3.42.54-1.4-.42-2.64-.63-4.12.4.15.66.16.77.29.26.33.42.74.67,1.08.59.77,2.05.47,1.8-.32-.32-1.01-1.49-1.26-2.32-1.7-.92-.49-1.6.55-2.39.9.35.46-.69,1.24.42,1.57.62.19,1.73.74.95,1.37-.76.61-1.51,2.48-3.1,1.05-.48-.43-.97-.84-1.49-1.21-.97-.69-1.74-1.06-1.77.76-.02,1.28-1.1,2.19-2.17,1.93-2.17-.53-2.75-.52-4.21,1.37,3.31,1.13,6.47,1.34,9.49-.96,1.17-.89,2.65-1.36,3.99-2.02ZM290.26,145.12c.74.21,1.72-.01,1.9,1.01.19,1.06-.8,1.24-1.43,1.62-1.72,1.02-4.31.31-5.42,2.81-.13.3-1.31.27-.78,1.36.24.48-.16.75-.64.88-1.38.37-2,1.02-1.02,2.46.44.65-.85,2.42-1.42,2.07-.56-.34-.87-.8-1.24.07-.27.64-.79,1.41-.62,1.94.26.79,1.12.2,1.7.13.71-.08,1.4-.29,2.09-.46,1.2-.31,2.73-.18,2.67-2.15-.01-.32.47-.79.96-.65.3.08.8.5.76.63-.55,1.74.66.85,1.19.77.61-.08,1.19-.33,1.84-.52-1.93-2.35-2.3-4.45-.24-5.19-.06.22-.05.48-.17.62-.82.96-.35,1.68.39,2.39.92.88,1.49.31,2.07-.44.69-.9,1.35-.23,1.8.23,1.11,1.12,1.75.76,2.74-.29,1.05-1.1.47-1.99.1-2.91.75-.7,1.85.74,2.15-.39.29-1.07-1.02-.94-1.62-1.3-.7-.42-1.16-.8-.88-1.67.31-.96.41-1.93.4-2.94,0-.61.05-1.5.87-1.52,1.6-.05,2.56-1.27,3.87-2.05.01,1.16-.85,1.66-1.14,2.45-.17.46-.13.84.39,1.05.74-1.9,3.44-.1,4.14-2.2.14-.42.76-.84,1.26-.5.78.53-.03.8-.32,1.09-.52.52-.06.71.28.97.48.37,1.24.56,1.05,1.43-.12.54-.18,1.07.61,1.02.56-.04.85-.37.94-.97.27-1.86,2.77-3.11,1.49-5.42-.05-.08.04-.33.14-.38,1.36-.81,1.38-1.57.24-2.74-.52-.53-.26-1.75.38-2.32.59-.53,1.37-.4,1.49.65.69-.53-.62-2.1,1.19-1.77,1.01.19,1.96.96,1.45,1.8-.8,1.34-1.39,2.71-1.85,4.25,1.44.36,2.06-.5,2.41-1.7.23-.77.41-1.5,1.32-1.8,1.15-.37,2.14-1.03,3.09-1.8.66-.54,1.58-.6,2.46-.57-.26.99,1.43,1.98-.09,3.03-.82.57-.14,1.14.4,1.49.41.27.51,1.33,1.18.81,1.89-1.48,3.68-3.11,5.56-4.72-2.25-1.23-6.06-1.84-8.21-1.87-2.64-.03-5.65,1.17-7.67-1.76-.28-.41-.83-.35-1.15-.02-1.12,1.15-2.78.84-4.16,1.67-1.77,1.07-3.97,1.8-6.06,2.46-.68.21-1.02.72-1.21,1.38-.57,1.98-1.76,3.07-3.96,3.03-1.93-.03-2.98,1.22-2.11,2.91,1.07,2.07-1.17,1.87-1.59,2.88-.33.79-1.1-.15-1.49-.52-.91-.85-1.64-.49-2.48.17ZM158.46,67.23c.91-.24,2.17-.04,1.89.87-.44,1.48-.24,2.55.6,3.7.44.6-.24.81-.5,1.2-1.59,2.32-1.57,5.64,0,7.66.55.71,1.2.38,1.7,0,.55-.41,1.02-.96,1.45-1.5.56-.7,1.86-.45,1.87-.39.27,1.59,2.9,1.9,2.17,3.99-.05.14.09.43.23.53q2.09,1.49.96,3.74c-.29.58-.69,1.52-.01,1.67,1.22.28,2.47,1.77,3.86.18.46-.52,1.93-4.4,1.49-4.54-1.5-.52-1.68-1.96-2.42-3.03-.54-.78-.09-1.94-.96-2.49-1.19-.76-1.7-1.67-2.02-3.16-.29-1.31-1.14-2.34.08-3.57.13-.13-.03-.71-.22-.97-2.59-3.83-5.29-7.57-8.94-10.5-.53-.42-.8-.44-1.35.18-1.37,1.55-2.35,3.65-4.77,3.98-.13.02-.25.13-.35.23-.24.25-.66.5-.39.87.18.25.77.53.89.44,1.42-1.11,2.16.01,3.06.81.46.41,1.08.27,1.65.1ZM205.42,182.9c.62-.51.88-.73,1.15-.94,5.62-4.45,10.2-10.03,15.75-14.57,1.05-.86,1.17-1.93.06-2.69-1.09-.74-1.58-3.1-3.7-1.52-2.37,1.76-4.23,4.11-6.55,5.86-4.53,3.41-5.84,8.22-6.71,13.87ZM270.43,159.53c-.91-.45-1.07-1.93-2.46-1.32-2.09.92-4.22,1.73-6.34,2.58-.87.35-.97.72-.4,1.59,1.28,1.99,3.42,1.84,4.98,1.45,3.71-.93,7.34-2.29,10.85-3.89,1.08-.5.74-.79.09-1.28-1.57-1.19-1.87.57-2.34,1.2-.8,1.07-1.4.45-1.94.01-.74-.61-.66-1.18.38-1.5.99-.3.37-.87.13-1.33-.32-.62-.54-1.32-1.55-1.1-2.21.48-1.56,2-1.41,3.59ZM215.95,18.81c.11.59.08.83.19.94.58.63.54,1.35.11,1.96-.65.92-.99-.05-1.5-.28-.54-.24-1.44.5-1.39.58,1.11,1.69-3.02,3.36.07,5.2.84.5,1.14,1.83,2.6,1.51.8-.18.94.49.9,1.1-.06.79-.67.68-1.12.48-.64-.28-1.23-.7-1.84-1.07-.46-.28-.92-.44-1.37-.01-.38.36-.15.77-.07,1.19.14.76,1.06,1.16.84,2.12-.09.41-.28,1.27.66,1.26.67,0,1.66.3,1.82-.65.29-1.69,2.95-2.28,2-4.56-.23-.54.6-.64,1.09-.69.42-.04,1.11.4,1.05-.53-.05-.69-.54-.76-1.1-.61-1.51.4-1.59-.36-1.24-1.5.21-.68.46-1.35.56-2.05.25-1.82-.43-3.2-2.28-4.4ZM301.45,163.25c-.11-.77-1.59-.3-.97-1.35.35-.6,1.11-.6,1.44-.04.97,1.62,1.6,1.53,2.32-.18.18-.43.89-.68,1.4-.92,1.34-.64,2.55-1.54,4.08-1.8.7-.12.99-.84.9-1.52-.06-.44-.64-.49-.84-.2-1.69,2.47-3.83.56-5.75.61-1.55.04-3.17.17-4.08,1.42-1.03,1.41-1.53,3.23-3.72,3.52,1.72.16,3.45.31,5.21.48ZM332.36,145.3c-.86,1.92,1.39,4.04-.51,5.88-.03.03,0,.15.04.2.59.92.53,1.77.05,2.8-.42.9.25,1.78.88,2.48.28.31.66.47,1.15.23,3.22-1.62,3.78-6.68.74-8.47-1.34-.79-2.05-1.61-2.35-3.11ZM272.32,50.63c.03,1.09,1.43,1.41.78,2.63-.71,1.33-1.02,2.87-1.1,4.41-.08,1.56-1.03,1.54-2.51,1.22,1.32,1.08.18,2.09.31,3.11q1.41-.46,2.79.3c-.59-2.96-.6-3,2.48-3.96.89-.28,1.05-.93,1.15-1.61.54-3.51-.19-4.67-3.91-6.11ZM80.27,55.59c.08,3.09.35,3.42,3.06,4.25.59.18.92.47.81,1.24-.28,2.09.44,3.58,2.67,4.12.59.14,1.1.59,1.18,1.35.04.38-1.76.13-.31.87.84.43,1.33-.09,1.52-.94.25-1.1.08-1.78-1.15-2.33-2.2-1-2.88-2.92-1.59-4.37,1.11-1.26.59-1.35-.57-1.97-1.8-.98-4.4.24-5.63-2.22ZM185.25,178.67c.09-.16.17-.32.26-.49-2.82-2.94-6.3-4.96-9.98-6.68-.33-.16-.66-.27-.83.26-.82,2.57-1.54.21-2.31-.22.1,1.86.09,1.9,1.38,2.26.97.27,1.89.59,2.81,1.02,2.87,1.33,5.78,2.57,8.67,3.85ZM333.89,120.1c1.24,1.21,1.64,3.61,4.05,1.98.47-.32.52.45.65.82.22.64.79.53,1.27.51.68-.03.73-.54.74-1.08.01-.93.02-1.86.08-2.78.04-.54.04-1.03-.6-1.18-.5-.12-1.01-.11-1.35.39-.25.37-.28,1.13-1,.74-1.38-.75-2.46.11-3.84.61ZM241.8,164.36c.84-.16,1.27,1.73,2.28.6.83-.93,1.39-2.01.3-3.21-.42-.46-.03-.95.24-1.35.29-.43.65-.85.17-1.32-.56-.53-1.12-.13-1.51.24-.73.67-1.37,1.45-2.04,2.18-1.46,1.59-1.47,2.77-.01,4.34.11.12.36.11.53.15.44-.57-.57-1.08.06-1.63ZM248.45,163.35c1.54,0,2.89-1.37,2.18-2.34-1.18-1.6-.62-2.41.73-3.39.9-.65.42-1.73-.22-2.21-.95-.72-1.21-.23-.95.84.08.35-.57.26-.9.31-.82.15-1.25.37-.9,1.42.32.96.32,2.07-.98,2.57-.57.22-1.33.44-.92,1.34.38.82,1.03,1.34,1.96,1.46ZM264.81,156.74c.14-.1.35-.29.6-.4,1.14-.46,1.85-3.18,3.58-.68.07.1.66-.11.98-.25,1.61-.74,3.28-1.4,2.72-3.79-.1-.43.25-1.06-.43-1.14-.56-.07-.47.54-.58.94-.56,1.98-1.66,2.43-3.38,1.26-.54-.37-.93-.5-1.23,0-.65,1.07-1.4,1.92-2.71,2.17-.51.1-.65.58-.1.9.41.24-.35.94.56.98ZM310.46,104.95c-.36,2.38-.77,4.04-3.11,4.06-.54,0-.94.19-.78.93.11.51.47,1,.76.76,1.29-1.02,1.91.27,2.86.56.84.25,2.25.65,2.78-.22.5-.81-.74-1.34-1.35-1.82-.76-.61-.64-1.59-.26-1.88,2.45-1.88-.27-1.43-.9-2.39ZM101.89,51.36c.13,2.26,1.2,2,2.57,1.13.44-.28,1-.61,1.59-.2.43.3.89.21,1.08-.22.19-.43-.22-.79-.48-1.11-1.7-2.12-2.97-2.18-5.7-.41-.56.36-1.22.45-.84,1.35.1.25.02.64.37.69.84.13.51-.93,1.42-1.23ZM275.15,42.03c-.4-.64-.63-1.3-1.09-1.68-.52-.43-1.26-.89-1.87-.84-.77.07-.44,1.07-.71,1.6-.64,1.3.87,2.73-.27,4.02-.06.07.11,1.46,1.1,1.07.91-.36,1.89-.89,2.28-1.77.36-.83-.53-1.35-1.13-1.85-.27-.22-.57-.48-.28-.89.7-.31,1.02.82,1.97.33ZM87.97,55.45c.26.54-.51,2.04,1.01,1.85,1.07-.14,1.41-1.27.97-2.39-.03-.07-.06-.13-.08-.2-.24-.83-.28-1.47.94-1.17.69.17,1.43.02,1.44-.82.01-1.05-.79-1.64-1.69-1.98-.73-.28-1.89.02-1.82.55.2,1.47-1.09,2.54-.76,4.15ZM174.77,89.64c.57.86,1.18,1.69,1.71,2.58.53.9,1.11,1.03,1.84.27,1.38-1.43,2.18-.83,2.93.71.3.62.12,1.32.48,1.98.8-1.38-.16-5.15-1.36-5.65-.19-.08-.51-.17-.6-.09-1.6,1.57-3.18.86-5,.2ZM183.84,106.7c-1.16.74-2.32.69-1.5,2.14.31.54-.04,1.48-.49,1.76-1.86,1.12-.25,2.34-.02,3.33.22.95,1.48.41,2.3.37.95-.05,1.72-.49,3.16-1.45-5.46.23-4.48-2.82-3.44-6.14ZM344.05,145.61c-.38-2.25-.56-4.17,1.53-5.76.78-.59,1.09-2.05-.67-2.73-.25,1.23-.46,2.58-1.93,2.69-1.08.08-1.27.68-1.39,1.48-.31,2.06,1.18,3.12,2.47,4.32ZM183.58,102.23c-.6-.45-1.07-.88-1.62-1.2-.99-.56-3.73,1.07-3.23,1.83.97,1.47-.32,1.9-.89,2.63.83.72,1.46,1.34,2.57.79.43-.21.7-.15.59-.76-.38-2.01.97-2.76,2.58-3.3ZM183.52,141.62c1.88.79,3.49,1.53,5.15,2.14.53.19,1.32.62,1.71-.17.3-.6-.01-1.21-.44-1.77-.97-1.27-3.12-.38-3.83-2.16-.06-.14-.72.21-.78.54-.19.9-1.13.73-1.81,1.42Z"/>
      <path d="M64.86,209.14c1.47-2.48.76-3.99-1.91-4.45-.95-.16-1.64-1.08-1.85-1.89-.25-.98.89-.92,1.51-1.05,1.87-.39,3.76-.67,5.64-1.03.27-.05.63-.3.73.05.52,1.82,1.28,3.66,1.32,5.5.01.84-1.39,1.8-2.28,2.53-.91.74-2.16-.72-3.16.33Z"/>
      <path d="M353.98,189.12c.16-.18.32-.35.48-.53.56-.51,1.95,1.6,2.01-.63,0-.07.48-.2.74-.19,2.67.14,4.48,2.57,4.01,5.12-.14.78-.26,1.2-1.09,1.13-.77-.06-1.32-.37-1.56-1.17-.25-.82.11-1.64.08-2.74-2.12,1.56-3.68,1.28-4.68-1Z"/>
    </g>
  </g>
</svg>