<?xml version="1.0" encoding="UTF-8"?>
<svg fill="#6A7F6B" id="Capa_2" data-name="Capa 2" xmlns="http://www.w3.org/2000/svg" viewBox="0 0 214.24 385.92">
  <g id="Layer_1" data-name="Layer 1">
    <g>
      <path d="M49.42,124.21c.36-1.19,1.7-1.26,2.41-2.04-.4-.85-1.12-.43-1.68-.56-1.21-.28-2.45-.47-3.49-1.32-.75-.62-1.63-1.24-1.64-2.19-.01-1.26,1.35-.75,2.05-1.13.82-.44,1.81-.53,2.7-.85.6-.22,1.25-.57.86-1.38-.26-.54-.62-1.3-1.41-.75-.66.46-1.09.36-1.17-.36-.2-1.75-1.58-1.42-2.67-1.59-.24-.73.18-1.27.4-1.83q1.44-3.71-2.23-5.41c-.6-.28-1.22-.55-1.13-1.32.11-.91.96-1.11,1.61-1.09,1,.03,2.09.14,2.94.6,1.24.67,1.9.03,2.54-.74.85-1.02-.25-1.77-.51-2.64-.03-.11-.27-.14-.4-.24-1.02-.81-1.31-2.16-.6-2.9.76-.79,2.03-.19,2.84.62.43.44.71,1.03,1.43,1.1.08-.16.2-.29.21-.43.08-1.02-1.72-1.99-.69-2.67.9-.59,1.64,1.03,2.45,1.67,1.5,1.18,2.63,2.74,4.97,2.78,1.19.02,2.39,1.34,3.53,2.16.74.53,1.32.76,2.05-.02.65-.7,1.12-1.31.36-2.24-.53-.64-1.78-1.6.45-1.48.46.02.41-.48.21-.71-.37-.45-.67-1.17-1.46-.91-1.5.51-2.9,1.17-4.22-.53-.42-.55-1.22.93-2.25.34.72-.96,2.53-1.8.55-3.2-.44-.31,0-.86.51-1.03.65-.21,1.32-.39,1.95-.58.04-.78-.94-.62-1.02-1.41.68-.17,1.4-.35,2.09-.52.22-1.03-1.34-.38-1.13-1.49.11-.56-1.41-1.18-.35-1.91.64-.44,1.6-.72,2.44-.05.91.73,1.89,1.38,2.77,2.14,1.12.98,2.16.7,2.44-.8.39-2.14.4-4.31,1.41-6.37.9-1.81-1.55-1.26-2.14-2.48.85.18,1.49.32,2.4.52-1.07-1.38-1.96-2.06-3.48-1.11-.61.38-1.5.37-2.26.43-.6.05-1.36.37-1.76-.28-.41-.66.54-.86.68-1.33.33-1.16,1.38-2.31.18-3.55-.6-.62-.2-1.12.17-1.67.55-.81,1.58-1.16,2.08-1.85.53-.74,1.8-1.24,1.41-2.49-.3-.98-1.25-.79-1.98-.99-.64-.18-1.73.06-1.75-.82-.03-1.17,1.16-.69,1.84-.88.53-.15,1.05-.29,1.89-.53-1.35-1-2.76-2.32-1.61-3.56.86-.93.47-2.77,2.25-2.95,1.39-.14,2.45,1.08,3.84.79.29-1.55.15-3.17.88-4.61.66-1.29-.77-.8-1.08-1.31-.59-.97-2.81-.63-2.43-2.12.39-1.55,2.2-1.42,3.62-1.4-.01-.24.03-.43-.04-.52-.75-.89-1.95-2.47-1.28-2.9,1.41-.92,3.27-1.29,5.14-.52,2.71,1.12,5.41,2.45,8.54,1.35.7-.24,1.33-.35,1.71-1.15-.74-.26-1.26.57-2,.29-.67-.26-1.44-.44-1.73-1.1-.39-.87.51-1.3,1.01-1.67,1.55-1.16,2.83-3.05,5.27-2.28.33.1.77-.23.84-.68.06-.38-.28-.47-.55-.63-1.44-.88-1.85-3.01-.87-4.65.38-.64,1.33-1.33.22-1.92-.91-.48-.99.72-1.43,1.19-.81.89-.63,2.32-1.69,3.07-.17.12-.4.17-.76.31-.17-2.46,1.76-3.87,2.54-5.75.45-1.08.94-1.98.26-3.08-.73-1.17-1.43-.18-2.2-.06-.98.16-1.98-.38-2.27-1.31-.3-.93.79-1.02,1.38-1.27,1.99-.83,2.95-3.23,1.99-5.13-.25-.5-.59-1.28-.2-1.52.62-.38,1.5-.55,2.23-.46.74.09,1.43.59,2.14.9.64-2.05,2.82-3.33,2.82-5.72,0-.52.63-.6,1.15-.42,1.81.64,3.73-.22,5.56.43.95.34,1.48-.32,1.13-1.14-.8-1.86.3-2.23,1.69-2.38,1.83-.19,2-1.45,2.79-2.85,1.24-2.18.56-5.19,3.24-6.77,1.37-.81,2.02-.45,2.76.43.93,1.1,1.95,2.04,3.25,2.77.29-.8.47-1.62.86-2.32.48-.86,1.52-1.1,1.84-.16.8,2.32,4.21,2.6,4.1,5.74.15-2.26,2.17-2.86,3.16-4.27.67-.96,1.89-1.49,3.2-.3,2.55,2.31,2.52,2.66-.88,4.56-.05.03-.07.14-.17.36.88.88,3.47.92,1.98,3.32-.16.26.71.6,1.12.26,1.08-.91,2.54-.35,3.72-1.09.56-.35,2-.3,2.2.7.17.88-.46,1.78-1.63,1.93-.62.08-1.23.4-1.85.4-2.28.01-3.44.96-2.96,3.34.13.64-.19.83-.61,1.09-1.16.73-.92,1.85-.45,2.73.49.91,1.37.59,2.28.28,2.07-.7,4.08-1.34,5.04-3.6.22-.53.7-1.06,1.41-1.16.38,1.03.59,1.16,3.77,2.06-3.79,1.7-7.76,2.63-8.71,7.15.72.88,1.37-.8,2.4-.54-.46,1.77,1.32,2.63,1.66,4.14.15.68.69,1.33.68,1.99-.05,1.82.64,2.22,2.26,1.55.75-.31,1.61-.5,1.73.78,0,.08,0,.22.04.23,3.61,1.19,3.09,3.08.63,5.01.68.66,1.12.43,1.55.24,2.22-.96,5.33-.23,6.72,1.64.4.54,1,1.2.42,1.91-.56.68-1.37.7-2.16.29-.48-.25-.96-.5-1.48-.78-.59,1.15,2.08,1.99.29,2.9-1.91.98-2.45,5.49-6.05,2.28-.17,2.46-3.45,2.41-3.52,5.01,2.31-1.74,2.73.8,3.85,1.67,1.38-.55-.37-2.17,1.16-2.79,1.72-.7,3.32-.66,4.47.67,1.23,1.42,2.58,1.59,3.99.88,2.22-1.11,3.9.46,5.79.9.57.13,1.19.83,1,1.45-.3.92-1.54,1.3-2.11,1.05-1.8-.77-3.25.42-4.77.7-1.83.34-.13,1.93-.27,2.96-.88.31-.84-.5-1.08-.9-.3-.49-.7-1.15-1.22-.78-.51.36-.99,1.16-.98,1.76.01.87.62.43,1.18.26.76-.22.5.59.56.95.5,3.19,1.14,3.53,4.1,2.17.2-.09.45-.05,1.03-.09-1.05,1.21-.87,2.16.51,2.93-1.86.05-3.6-.04-4.6,2.1,2.02-.24,3.33.86,4.6,2.1.56.54,1.59.98.98,1.81-.42.58-.58,1.76-2.06,1.41-2.07-.49-2.26,1.68-3.3,2.73,1.69.94,3.91-.83,5.27,1.45.27.46,1.91.11,2.19-1.2.08-.37.09-.81.3-1.1.46-.65,1.12-1.39,1.92-1.11,1.04.36,1.16,1.78.96,2.39-.45,1.4-.2,3.02-1.25,4.25-.28.33-.71.77-.33,1.25.34.44.88.2,1.34.15.62-.08,1.24-.24,1.86-.31,1.84-.2,3.34-.33,3.12,2.49-.13,1.6,2.12,2.69,2.07,4.61-.01.46.37,1.19.19,1.35-2.45,2.07-1.69,4.98-1.83,7.87-.48-.36-.66-.47-.81-.61-.55-.52-.35-2.06-1.5-1.59-1.03.42-.5,1.52-.36,2.49.22,1.46-.86,2.84-1.84,3.59-.99.75-1.44,1.52-1.25,2.47.19.96.87,1.43,2.15,1.05,1.23-.37.9,1.01.63,1.37-1.54,2.03.47,2.01,1.42,2.54.46.25,1.12.16,1.54.45.55.37,1.48.71,1.29,1.51-.17.67-.97,1.05-1.72,1.01-1.16-.06-2.05-.04-1.11,1.45.23.36.35.92-.05,1.05-2.64.85-.55,2.83-1.03,4.18-.2.54.14.79.81.7,1.5-.21,2.38.71,2.25,2.03-.24,2.52,1.35,3.66,3.09,4.7-.07.94-1.06,1.02-1.29,1.71.08.12.13.29.24.35,2.17,1.11,5.23,1,5.73,4.43.09.62,1.2,1.95,2.07.15.97-2.01,3.12-2.19,4.86-2.97.6-.27,1.65-.58,1.91.2.38,1.12-.11,2.23-1.28,3.17,1.95-.24,3.13.45,3.55,2.26.07.28.31.57.54.77,1.47,1.29,1.48,1.29.83,2.9.84.89,2.86-.78,3.05,1.14.19,1.87-2.12,1.09-3.05,2.21,1.14.73,2.56.61,3.35,1.66.43.57,1.09,1.45.21,1.76-2.24.78-.69,1.46-.12,2.23.2.28.74.77.19.9-1.82.44-.73,1.39-.44,2.13.42,1.09.09,2.1-.84,2.38-2.16.64-1.5,2.52-1.93,3.88-.21.66.27,1.21,1.12,1.09.61-.08,1.23-.37,1.86.06.11,1.12-1.07,1.08-1.62,1.56.53.74,1.52.33,1.92,1.1.01.69-.68.8-1.09,1.06-1.42.88-3.13,1.55-.11,2.71.97.37,2.43,1.31.42,2.49-.13.08-.3.16-.36.28q-1.15,2.33-3.97,1.88c-.1,1.43,1.03,2.6.79,4.05-.17,1.06-.07,2.08-1.57,1.02-1.39-.98-1.83-.09-1.81,1.13.02,1.61.6,2.93,2.36,3.37.31.08.63.08.93.18,1.25.44,2.99.66,3.33,1.95.35,1.33-1.2,2.06-2.29,2.63-1.72.91-1.23,2.68-1.78,4.09.62.13,1.4-1.15,1.9.12.26.64.7,1.35.17,2.01-.49.62-1.13.39-1.71.03-.54-.34-1.03-.31-1.5.14-.57.55-.42,1.12-.09,1.72.72,1.31.47,3.08,2.17,3.96.68.35.38,1.46.4,2.24,0,.45-.32,1.01.15,1.33.59.39,1-.23,1.46-.47,1.01-.52,1.8-1.25,2.14-2.41.07-.25.38-.52.64-.61.36-.12.64.22.6.53-.26,2.36,1.16,1.56,2.35,1.3.26-.06.57.11.84.18.13.95-1.05,1.06-.95,1.88.31.46.71.19.99,0,1.68-1.15,2.76-.64,3.46,1.15.6,1.51,1.53,2.33,2.57.46,1.33-2.4,3.81-1.54,6.14-2.76-.93,1.83-1.2,2.84.16,4.3.92,1,.16,3.41-.67,5.05-.34.67-1.15,1.29.37,1.55.48.08.19.67.06,1.01-.14.37-.46.68-.51,1.05-.23,1.49-.18,3.16-2.66,2.63,1.11,1.94,3.01,1.65,4.29,2.58-.63.74-1.22.22-1.71,0-.82-.37-1.15.04-1.47.65-.21.4-.68.85-.23,1.22.4.32.9.25,1.5-.06,1.03-.54,5.12,3.2,4.47,4.16-.97,1.45.21,1.69.66,2.39.62.96,1.56,1.99-.67,2-1.15,0-1.85.97-1.82,1.78.02.75-.08,1.97,1.43,2.27,1.12.23,2.01.83,1.55,2.74-.25,1.05.19,2.66-.07,4.07-.1.52.18,1.22.94,1.47,1.3.42,1.86,1.86,1.26,2.57-.65.77-1.71,2.18-3.16,1.45-1.19-.59-1.45-.43-1.51.88-.14,2.73-1.96,0-2.88.91,1.13,2.16,3.47,2.9,5.42,3.42,2.29.61,1.44,1.93.75,2.38-2.06,1.34-1.67,2.59-.19,4.08-1.56.57-2.05-.92-3.04-1.13-.59-.12-1.19-1.23-1.78-.26-.39.64-.4,1.49.28,2.16.66.66,1.55,1.06,2.02,1.94.48.91.59,1.64-.56,2.08-1.06.41-2.07.58-.06,1.4.72.29-.68,2.08.53,3.46-1.43-.08-2.38-1.9-3.06,0-.09.25-.63.17-.82-.11-.93-1.36-1.25-.7-2.15.24-1.15,1.2-1.87-.57-2.59-1.19-.42-.37-.52-1.1-1.37-1.07-.34,4.26.95,8.39.75,12.68-1.45-.08-1.04-1.58-1.89-2.38-.29.8-.56,1.54-.86,2.37-.92-1.17.17-2.47-.64-3.68-.81.27-1.44.94-1.75,1.62-1.23,2.75-1.83,1.05-2.49-.29-.42-.86-.77-1.78-2.01-1.58.55,2.35-1.06,5.19-3.14,6.82-1.58,1.24-1.56,3.35-.94,5.19.56,1.66,2.17,2.04,3.66,1.91,1.46-.13,2.9-.67,4.31-1.12,1.23-.39,2.33.14,3.01.85.66.69-.5,1.5-.71,2.29-.68,2.6-1.54,5.21-1.47,7.9.07,2.59-1.12,3.95-3.57,3.57-.8-.12-.61-.79-.85-1.23-1.13-2.15-1.24-4.81-3.77-6.26-1.2-.69-1.68-.67-2.08.49-.3.87-.79,1.66-.71,2.7.16,1.95-.98,3.34-2.57,5.04.15-3.31-3.25-3.39-4.03-5.65-.04-.12-.25-.17-.38-.26-.73,1.17-2.3,1.23-3.06,2.24-.52.69-.16,1.68,0,2.53.11.58.57.45.92.32,1.76-.68,2.89.24,3.44,1.68.39,1.02,2.87,1.97.44,3.39.28.37.55.74.82,1.1-.14.61-.63.34-.97.43-.54.15-1.23.33-1.07,1,.2.84.85.36,1.36.23,1.06-.28,2.17-.3,3.24-.45,2.55-.35,1.87,2.08,2.73,3.38q-2.63.04-1.56,4.71c-.96.39-1.29-.96-2.04-.8-.88.18-1.52,0-2.19-.75.69,1.56-.43,2.92.12,4.58-1.9-.86-2.05-2.84-3.61-4.11.22,2.01.16,3.78-1.11,5.01-1.52,1.48-.2,3.35-1,5.14-1.37-2.01-.87-4.19-1.74-6.27-.29,1.95-.59,3.9-.91,6.06-1.33-1.1-1.13-2.94-2.22-4.05-.3-.31-.36-.89-.94-.75-.88.22-.2.78-.13,1.11.24,1.06.6,2.1.91,3.15-3.1-1.08-6.27-.78-9.42-.81-.7-.14-.47-1.32-1.67-1.71-.17,1.8-.65,3.43-2.53,4.16-.26.1-.44.45-.6.72q-2.42,4.07-6.21,5.55c1.42.77,2.6,1.6.8,3.03-.53.42-.55,1.24-.24,1.76.38.65.94,1.28.2,1.84-.72.54-1.79.54-2.45-.02-.99-.85-2.38-1.21-2.98-2.57-.55-1.25-1.37-1.49-2.25-.22-.09.13-.18.26-.28.38-.83.95-2.19,1.8-2.36,2.85-.19,1.2,1.57,1.54,2.46,2.3.57.48,1.2,1.24.86,2.07-.36.9-1.38.84-2.08.65-1.63-.45-3.89,1.33-4.94-1.43-.25-.66-.76.17-1.03.41-5.62,5.1-11.42,9.99-17.91,13.98-.97.6-1.35,1.45-1.4,2.56-.35,8.38-.13,16.74.62,25.08.23,2.6-.06,2.98-2.78,2.93-5.63-.09-4.8.85-4.85-4.65-.05-5.77-.05-11.54.09-17.31.05-1.83-.57-2.89-2.1-3.8-4.06-2.44-8.05-5.01-12.05-7.55-.62-.39-1.19-.9-1.88-.21-1.45,1.46-3.7,1.72-5,3.42-.37.48-1.11.84-1.7.53-.78-.41-.3-1.19-.05-1.67.64-1.28.92-2.48-.27-3.72-1.19.88-.2,2.88-1.95,3.73.3-2.08-.46-3.33-2.62-3.37-.43,0-.85-.42-.69-.8,1.15-2.68-1.1-3.39-2.63-4.53-.59.49-.93,1.21-1.2,1.94-.54,1.48-1.46,1.42-2.18.32-1.02-1.56-1.42-1.11-1.84.3-.15.52-.42,1-.8,1.88-.49-1.25-.08-2.47-1.14-3.19-.32.61-.63,1.2-.94,1.79-.25-.1-.49-.13-.51-.21-.63-2.57-1.54-3.51-3.29-.65-.2.33-.82.54-1.25.54-1.09,0-1.84.21-1.91,1.51-.05,1.02-.92.62-1.47.64-.72.03-.64-.51-.58-1,.03-.23.12-.5.05-.7-.4-1.02.21-3-1.32-2.85-1.66.16-.2,1.72-.34,2.64-.09.59.15,1.28-.56,1.79-1.37-.78-.89-2.35-1.31-3.56-1.03.51-.77,1.64-1.53,2.35-.72-.49-.7-1.83-2.34-1.55-1.77.31-1.51,1.4-1.99,2.39-.77,1.59-1.73,1.12-2.69.05-2.45-2.73-2.47-2.72-4.97-.09-.97,1.02-1.99,2.38-2.41-.37-.08-.54-.64-.7-1.1-.75-.73-.08-.47.68-.73.98-1.27,1.46-1.61,3.88-4.18,4.02-.49.03-.59.69-.89,1-1.48,1.52-1.37,4.43-4.32,4.77-.59.07-.51,1.67-.64,2.6-.23,1.51.2,3.58-2.51,3.13-.07-.01-.21.03-.21.03.31,2.43-2.65,3.25-2.69,5.57-.02,1.48-.46,2.8-1.8,3.86-.88.7-1.73,1.8-1.53,3.21.07.48.06,1-.47,1.22-.46.19-.77-.21-.93-.53-.52-1.07-1.74-.97-2.57-1.51-1.43-.93-.82,1.28-1.9,1.42.55-2,.48-3.98.27-6-.24-2.36,1.84-3.52,3.13-5,1.08-1.24,2.4-2.63,1.87-4.05-.66-1.74-1.58-3.87-4.11-3.9-.68.45.69,1.51-.5,1.74-1.01.19-1.29-.57-1.62-1.36-.71-1.69-2.07-3.43.91-4.36.39-.12.63-.74.35-.99-2.16-1.89.36-2.38,1.06-3.4-.7-.45-1.33-.16-1.87.08-.75.35-1.46.81-2.08-.08-.7-1.01.41-1.34.83-1.91.18-.25.5-.41.37-.88-1-.37-2.05-.77-3.26-1.22v2.81c-1.03-2.39-2.85-3.52-5.28-3.89-.77-.12-.45-.59-.27-1.05.26-.64.45-1.32.73-2.15-1.35.04-1.98,1.08-2.89,1.58-.53.29-1.06.51-1.53.09-.62-.55-.27-1.17.14-1.67.4-.48.81-1.05,1.34-1.32,1.88-.97,3.27-2,1.7-4.34-.28-.42.24-.65.68-.94,1.43-.93,1.17-2.79,1.95-4.12.21-.36-.54-.4-.88-.51-.67-.22-1.36-.37-2.03-.59-.7-.23-1.38-.62-1.47-1.38-.1-.88.86-1.01,1.36-1.47.06-.05.13-.1.2-.13,1.2-.48,3.15.19,3.56-1.21.37-1.26-2.09-1.13-2.45-2.65,1.06-.54,1.71.36,2.52.59,1.09.31,2.37,1.01,2.41-1.36.04-2.07,1.44-3.83,3.13-5.11,1.02-.77,1.39-1.45.47-2.51-.32-.37-.54-.85-.13-1.28.36-.38.71.12,1.06.12,1.55.03,3.11.04,4.61.51,2.35.72,3.8-1.53,5.88-1.75.66-.07,1.24-.72,2.02-.37.38.77-.83,1.11-.56,1.59.27.48.11,1.96,1.48,1.08.45-.29.86-.05,1.32.16,1.2.53,2.93-1,2.73-2.36-.31-2.07.84-4.67,2.59-5.41,1.45-.61,3.39-.69.68-2.57-.85-.59-.05-2.39.04-3.63.05-.78.89-1,1.69-.87,1.11.18,1.78-.59,2.41-1.26.61-.65,1.12-1.24,2.13-1.29.73-.03,1.44-.57,1.32-1.37-.11-.73-1.23-1.34-1.52-1.22-2.82,1.1-3.34-2.28-5.39-2.7-.54-.11-.95-1.39-1.86-.87-.79.45-1.02,1.34-.89,2.29.09.68.08,1.37-.09,2.08-.43-1.19-.98-2.28-1.12-3.57-.14-1.31-.83-2.44-2.49-2.26-1.33.14-1.47-.36-.98-1.49.41-.93.68-1.92,1.41-2.79.71.58,1.25,1.78,2.27,1.09.66-.45.63-1.56.27-2.19-.35-.62.23-2.41-1.72-1.64-.7.28-1.6-2.76-1.04-3.64.53-.84,1.73-1.09,2.13-1.77,1.09-1.83,1.97-3.66,4.54-3.6.31,0,.76-.67.37-1.15-.4-.49-.9-.16-1.25.14-.89.77-2,.91-3.06,1.2-.68.19-1.47.42-1.96-.28-.45-.64.22-1.16.46-1.71.03-.07.08-.14.14-.19.7-.73,1.06-1.6.78-2.58-.07-.25-.75-.59-.96-.49-.99.48-1.87,1.15-2.14,2.32-.19.8.12,1.77-.82,2.33-.72-.89.1-2.08-.95-3.28.56,2.7-2.57,1.93-3.1,3.7.58-1.57,1.11-3.16,1.77-4.69.48-1.12.62-1.98-.87-2.29-2.43-.51-1.65-2.79-2.16-4.24-.52-1.46-.72-1.93-1.85-.58-.53.63-1.22.75-1.91.31-.6-.38-.66-1.03-.57-1.69.22-1.73,2.56-4.36,4.29-4.7.66-.13,1.06-.21.76-1-.18-.49.31-1.43-.87-1.2-.39.08-.78.2-1.17-.36.47-1.07,1.48-1.63,2.47-2.24.62-.38,1.65-.6.99-1.71-.52-.88-1.3-1.51-2.35-1.11-.7.27-1.38,1.27-1.23-.5.03-.3-.53-.07-.77.1-1.64,1.17-2.01.52-1.8-1.18.22-1.79.59-3.66-1.62-4.65-.5-.22-.54-.78-.15-1.21.57-.63,1.32-1.07,2.1-.59,1.01.63,2.13,1.64,3.1.55,1.02-1.15,1.03-2.81.34-4.26-.44-.93-.47-1.74-.14-2.71.27-.79.59-1.85.28-2.49-.47-.97-.19-2.67-1.51-2.83-1.02-.13-1.08,1.82-2.33,2.02-.63-.8.12-1.37.26-2.01.14-.64.23-1.04-.45-1.59-2.56-2.04-2.39-3.18.71-4.88-.61-.54-2.2-.46-1.26-1.99.26-.42-.28-1.55-.74-2.14-.61-.8-.97-1.67-.22-2.29.74-.61,1.91-.41,2.63.21,1.27,1.1,2.75,2.07,3.35,3.79.17.49.95.85,1.03.38.35-1.92,2.56-2.74,2.86-4.69-1.1-.26-.88,1.77-2.41.8-1.38-.86-.74-1.55-.57-2.51.46-2.67-.72-3.9-3.23-3.3-1.91.46-2.49-1.15-3.32-2.09-.58-.66.37-.87.89-.62,1.6.78,2.13-.56,2.73-1.44.72-1.06-.32-1.39-1.01-1.94-1.05-.84.11-1.69.18-2.62-.41-.45-1.02.11-1.49-.14-.87-.48-1.49-1.26-1.57-2.21-.1-1.11,1.11-.56,1.59-.98.51-.45,1.52.1,1.65-1.24.26-2.61,1.21-3,3.74-1.96.49.2.93.63,1.73.39-1.07-1.93.84-3.62.38-5.61-.13-.55.08-1.24-.67-1.1-1.83.33-3.03-1.07-4.56-1.47-1.26-.33-1.89-1.37-1.49-2.23.37-.8,1.73-.89,2.67-.36.39.22.85.43,1.14.68,1.88,1.59,3.23,1.01,4.36-.87,1.09-1.82,2.6-2.68,4.75-2.18.15.04.31.02.47.05,1.53.21,2.13-1.12,2.66-2,.74-1.24-.33-.95-1.02-.72-.43.14-.83.33-1.7.67.92-1.69,2.13-2.66,2.51-4.14.14-.55.54-.88-.2-1.31-1.19-.7-.6-1.19.29-1.59,1.74-.78,4.1-.82,3.66-3.93-.08-.57,2.1-1.66,3.38-2.17,3.6-1.46,4.14-2.35,3.38-6-.31-1.49-.98-1.7-2.1-.86-.62.47-1.26.97-1.42,1.83-.09.46-.21.93-.38,1.37-.45,1.18-.94,2.35-2.05,3.07-.08.05-.47-.16-.53-.32-.53-1.43-.12-2.77.49-4.08.26-.56,1.02-.79,1.02-1.57-1.21-.19-1.57.69-2.1,1.48-.36.53-.43,2.38-1.74.65-.22-.28-.59-.03-.78.24-.39.55-.22,1.14.14,1.54.63.69,1.42,1.22,2.09,1.88.27.27.42.74.15,1.09-.33.42-.73.11-1.03-.11-.96-.71-2.03-1.52-2.19-2.7-.19-1.41-1.07-.91-1.88-.9.43-1,1.37-1.15,2.04-1.63.54-.39,1.5-.5.59-1.46-.31-.33-.36-.89.16-.89,1.88-.02,1.88-1.94,2.92-2.82,1.11,2.46,2.38,2.61,4.47.64.61-.57,1.15-.02,1.69.27.73.39,1.52.6,2.22.05.51-.4.15-.85-.18-1.2-.67-.72-1.41-.98-2.29-.32-.24.18-.58.45-.82.41-1.03-.18-2.1,1.35-3.02.06-.96-1.36.16-2.03,1.1-2.8.72-.59.96-6.05.33-6.88-.8-1.04-1.48-.03-1.45.46.1,1.91-1.52,3.08-1.84,4.78-.17.94-.67,2.03-1.74,1.92-1.13-.12-1.38-1.1-1.42-2.3-.06-1.51.01-2.97.25-4.45.1-.61-.07-1.38.86-1.39.73,0,1.08.52,1.29,1.18.19.59.46,1.15.86,1.7-.03-.98-.46-2.06.07-2.86.72-1.08-.02-1.51-.65-1.82-1.68-.8-2.07-1.94-.82-3.29,1.48-1.6.92-4.41,3.32-5.4,1.41-.58,2.81-1.21,4.24-1.71.55-.19,1.06-.29,1.25-1.19-1.99.41-2.91-1.62-4.7-1.89-.64-.1-1.32-.96-1.04-1.89.27-.91,1.15-.66,1.81-.74.77-.09,1.51.53,2.3.11.39.38.94.69,1.15,1.16.68,1.47,1.37,2.2,2.81.68.66-.7,1.38-.52,1.84.46.28.59.42,1.37,1.47,1.54-.3-2.23.18-4.53-1.72-6.27-.15-.14-.15-.72,0-.86,1.6-1.42-.03-1.79-.76-2.45ZM135.04,336.72c-1.66,1.48-3.53.42-5.27.45-.59.01-1.38-.55-1.56-1.3-.23-.95.73-1.12,1.28-1.45,1.32-.8,2.74-.12,4.12-.12.48,0,.93.61,1.42-.15,1.11-1.73.32-4.45-1.68-5.16-.79-.28-.53-.77-.67-1.25-.35-1.15-.41-2.99-1.91-2.83-1.49.16-2.72.2-3.91-.71-.27-.21-.65-.25-.85.05-1.73,2.51-4.05,4.67-5.06,7.6-.39,1.12-.39,1.84-1.86,2.09-.91.16-3.12,1.05-1.56,2.58,1.64,1.6.39,2.24-.47,2.92-.71.57-1.76,1.25-1.44,1.92.9,1.9,1.31,3.61.46,5.7-.2.49.24,1.33-.4,2.13-.65.81-.44,2.01.33,2.84.87.94,1.73.35,2.51-.24,3.14-2.37,6.53-4.49,9.33-7.22,2.5-2.44,5.86-4.13,7.21-7.83ZM95.64,351.25l.18.63c2.99,1.89,5.97,3.8,8.98,5.65.92.56,2.01,1.82,2.86,1.26,1.09-.71.47-2.32.39-3.53-.07-.99,0-2.32-.91-2.77-.83-.41-1.33.88-2.05,1.31-.34.2-.67.45-1.1.05.04-.19.03-.44.14-.61q2.78-4.24-2.31-4.84c-.16-.02-.32,0-.47-.04-.87-.19-1.29-.78-1.57-1.6-.17-.5.86-1.75-.55-1.38-.73.19-2.45.51-1.64,2.23.86,1.85,1.22,3.5-1.95,3.64ZM194.33,205.26c.16-.79,1.34-.02,1.4-1.02-.87-.21-2.17-1.55-2.54-.29-.57,1.93-1.73,3-3.04,4.31-1.62,1.62-.83,2.75,2.58,3.86-.72-1.1-.14-1.69.29-2.61.85-1.83,2.08-2.34,3.78-2.62.33-.05.97-.29.73-1.04-.91-.73-2.13-.13-3.2-.58ZM38.44,318.1c-.21-1.19-.8-2.09-1.7-1.27-.79.73-1.18,1.47-2.52,1.2-.41-.08-1.03.84-1.75-.05-.27-.34-.88,0-1.19.41-.33.43-.27.95-.03,1.33.86,1.39,2.57,2.17,3.73,1.74,1.44-.53,2.9-1.77,3.45-3.37ZM203.88,229.3c1.94-.04,3.02-1.52,4.3-2.61.47-.4.03-.84-.3-1.2-1.87-2.07-3.65-1.81-4.98.74-.1.2-.27.37-.37.57-.48.96.34,2.47,1.35,2.5ZM179.02,134.31c1.98.4,3.57.32,2.09,2.6-.83,1.28-.85,3.09-1.85,4.48-.55.78.03,1.61,1.07,2.28.78-2.52,3.76-3.83,3.07-7.08-.48-2.25-1.32-3-4.38-2.28Z"/>
      <path d="M17.67,313.12c.17,1.22-.34,1.42-1.37,1.16-2.25-.56-3.03-2.52-4.06-4.21-.28-.46-.24-1.32.32-1.75.88-.68,1.44,1.15,2.39.39,1.06,1.4,2.8,2.39,2.72,4.41Z"/>
    </g>
  </g>
</svg>