<?xml version="1.0" encoding="UTF-8"?>
<svg fill="#6A7F6B" id="Capa_2" data-name="Capa 2" xmlns="http://www.w3.org/2000/svg" viewBox="0 0 141.06 345.98">
  <g id="Layer_1" data-name="Layer 1">
    <path d="M51.85,251.66c-1.37,2.84-2.86,1.49-4.49.36,1.13,1.28-.31,2.43.1,3.66.2.59-2.27,1.17-2.91.54-.75-.75-1.24-.77-2.1-.11-.98.75-5.02-.29-4.77-1,.31-.92-.76-2.19,1.09-3,1.83-.81,3.1-1.22,4.74.05.59.46,1.11-.05,1.1-.69,0-1.21-.06-1.21,1.02-1.63.45-.84-2.28-.26-.76-1.58-.69-.26-1.28-1.08-2.12-.12-1.36,1.56-2.63,1.49-3.75-.34-.64-1.04-2.64-.81-2.63-2.52-1.39,1.21-1.92-.6-2.92-.79-.52-.1-.74-.3-.74-.96-.02-1.7-1.23-2.91-2.25-4.15-.23-.28-.67-.57-1.12-.39-.54.21-.37.64-.22,1.03.42,1.05-.7,1.43-1.15,1.58-.75.25-.87-.69-.99-1.24-.15-.66-.16-1.28-.91-1.68-.52-.27-1.18-.97-.53-1.44.58-.42,1.31-1.14,2.38-.37,1.65,1.19,3.1,2.75,5.74,1.84.8-.28,3.09-.13,3.55,1.82.2.86.8,1.26,1.7.99.96-.29,1.57-.84,1.38-1.94-.1-.59-.09-1.2-.16-2.18,1.4,1.51,2.69,1.03,4.18.39-.59-.65-1.31-.6-1.91-.79-1.74-.54-3.85-.39-4.79-2.42-.09-.2-.44-.4-.69-.42-1.5-.08-2.27-.51-3.3-1.77-.43-.53-1.17-.11-1.76-.23-1.51-.31-3.21-.82-4.71.29-.41.3-.72.58-.78,1.11-.3,2.64-.31,2.63-3,1.74-.19-.06-.39-.1-.7-.17.69-1.01.48-2.51,2.31-2.7.35-.03,1.92-1.37-.2-2.05-.85-.27-1.23-1.44-2.36-1.8-.96-.31-1.69-1.13-2.78-.29-.31.24-.85.19-1.14-.18-.51-.65.6-1.01.35-1.75-1.19-.08-2.59-1.19-2.89,1.31-.13,1.09-1.03-.75-1.74-.27-.32-.79-1.09-.74-1.75-.8-.75-.07-1.56.17-2.07-.62.99-.28.27-1.73.76-1.66.89.12,1.83-1.74,2.73.14.5,1.04,1.21-1.02,2.25-.31.26.17-.29-.93-.23-1.45,1.79-.33,1.78,3.08,3.98,1.53-.18-.21-.47-.4-.49-.62-.05-.53-1.46-.72-.52-1.38.73-.52,1.73-.73,2.31.38.7,1.32,1.98,2.43,3.26,1.64,1.07-.66,2.53-1.79,1.93-3.71-.48-1.54-2.17-1.91-2.94-1.78-1.67.27-1.74-.45-1.89-1.53-.14-1-.56-1.6-1.64-.75-.47.37-.55.06-.9-.25-1.5-1.32-3.14-2.5-5.38-2.1-.61.11-1.08-.02-1.47-.5-.54-.67-1.15-.47-1.56.11-.59.84.35.77.76,1.01.46.28.92.56,1.53.93-.76.65-1.41.44-1.97.06-2.33-1.58-5.38-2.3-6.74-4.98.35-.69.82-.43,1.2-.45.85-.06,1.79-.58,1.63-1.2-.19-.72-1.08-1.33-1.79-1.84-.27-.2-.67.27-.55.62.6,1.78-1.12,1.63-1.92,1.95-.92.36-1.21-1.16-2.18-1.18.23-.91.18-2.36.73-2.61,1.5-.68,2.24-2.18,4.05-2.62,2.22-.55,2.43-2.97.8-4.71-.4-.43-.74-.48-1.27-.2-1.78.92-3.18-.26-4.67-.89-.45-.19-.15-2.81.38-3.07.89-.44,1.79-.72,1.35-2.06-.17-.53,3.58-1.8,3.65-1.38.15.98,2.84.6,1.28,2.32-.06.07.09.38.21.52.24.27.55.46.92.22,1.19-.78,3.23,1.93,3.88-.86.22-.95.74-.7,1.17-.37,1.1.83,2.32.76,4.24.61-1.56-1.17-2.42-2.41-4.22-2.25-.57.05-1.33.15-1.38-.52-.06-.87.85-.64,1.41-.77,1.01-.23,1.86.56,2.96.4-.56-.86-1.77-1.24-1.75-2.27,0-.17.54-1.18,1.21-1.29,1.28-.2,1.43,1,1.86,1.85,1.02-.61.22-1.34.44-1.9,1.52.48,1.5.48,1.82-.98.12-.58.77-.74,1.28-1.2-.91-.68-1.68-1.64-2.65-1.88-2.1-.54-.36-2.04-.97-2.96-.17-.26,3.28-1.22,3.89-.85.32.19.57.72.96.1.28-.45.59-.83,1.14-.41.35.28.36.72.23,1.13-.69,2.23,1.39,1.38,2.19,1.66,1.35.47,1.13-.33.65-1.13-.16-.27.12-.57.4-.6.95-.12,1.15-.62.82-1.4-.37-.88-1-1.52-2.06-1.42-1.1.1-2.18.4-3.28.48-.51.04-1.61.34-.91-.99.31-.59.29-1.62-.52-1.94-1.12-.44-.86.76-1.17,1.23-.63.93-1.32.21-1.84.01-1.4-.55-2.83-.6-2.93-3.06-.06-1.58,1.21-3.92-.97-5.49-.38-.27-.94-2.46,1.26-2.52.4-.01.87-.1.93-.64.09-.82.6-.85,1.17-.5,1.41.86,2.98,1.59,4.12,2.71.74.73,1.39,1.21,2.48,1.35-.27-1.06-.51-2.07-1.3-2.87-.62-.64-.52-1.38-.17-2.08.45-.9.98-1.77,1.5-2.64.24-.39.82-.78.45-1.22-.46-.54-1.02-.08-1.48.2-1.35.81-2.06-.49-2.82-1-.67-.45-.03-1.54.33-2.14.41-.68,1.15-1.83,2.05-1.29.83.5,2.31-.35,2.66,1.5.21,1.11,2.16.18,3.26.57.06-.93,2.21-.99,1.13-2.29-.6-.72.93-1.98-.37-1.98-1.13,0-.62,1.53-.92,2.36-.07.18-.2.34-.38.63-.73-.45-1.09-.98-.84-1.8.6-1.99-.32-3.31-2.05-4.25-.26-.14-.58-.3-.43-.58,1.39-2.46-1.16-2.31-2.23-3.1-.37-.27-.92-.32-1.36-.51-.38-.17-.79-.4-.55-.92.26-.58.88-.67,1.2-.3,1.27,1.44,3.44,1,4.84,2.19-.91-1.32-2.53-1.81-3.79-2.59-1.14-.71-.39-1.58-.83-2.11-.66-.8-.95-1.18.25-1.71.29-.13.46-1.25.21-1.63-1.13-1.69.22-1.61,1.25-1.74.43-.05.95.05.91-.53-.04-.6-.52-.12-.78-.19-.65-.18-1.15-1.18-1.08-1.21,1.32-.64-1.01-1.83.69-2.81,1.7-.99,2.04-.56,2.68.72.28.56.85.9,1.49,1.02.38.07.7-.09.77-.49.09-.47.59-1.29,1.12-1.52-.66-.47-2.47-.5-.87-1.89.32-.27-.75-1.18-1.59-.78-1.59.74-2.1.05-2.34-1.36-.31-1.74-.78-3.46-1.08-5.2-.12-.69-2.22-1.32-.42-1.95,2.27-.8.8-3.3,2.5-4.18.06-.03.08-.29.02-.35-.83-.8-1.95-.04-2.93-.54-.66-.34-.56.45-.5.92.23,1.76-1.34.87-2.03,1.26-.7-1.39-2.48-1.43-3.44-2.73-.9-1.23-1.13-1.86,0-2.94.63-.61,1.72-1.42.19-2.35-.33-.2-.49-.76-.15-1.08.49-.46.9,0,1.24.33.83.78,1.14,2,2.42,2.44.87.29,1.51,1.26,2.63.46.51-.36.73.14.77.57.1,1.05.65,1.66,1.76,1.55,1.13-.11,1.08-1.13,1.25-1.87.24-1.02-.33-1.8-1.32-1.98-1.56-.28-3.15-.34-4.82-.51,1.05-.96.61-1.7-.3-2.26-.88-.53-1.42-1.05-1.47-2.2-.07-1.44.93-1.09,1.68-1.45.88-.42,1-1.4.61-2.29-.16-.36-.48-.65-.72-.98-1.44-1.98-2.85-3.08-5.04-3.85.99-.58,2.4.18,2.93-1.09.12-.28.56-.44.37-.84-1.15-2.49-1.06-2.37.88-3.8,1.04-.77,1.34-.39,1.61.43.29.89.93,1.19,1.75,1.11.83-.09,1.47-.65.69-1.34-1.23-1.09-.63-1.81.35-2.56-1.6-.72-2.4-3.47-1.23-4.34.73-.55,2.21.14,2.61-1.72.84,2.01,2.74,1.99,3.89,3.26,1.43,1.59.36,2.82.27,4.18-.13,1.81-.37,3.61.79,5.21.43.6,1.04.9,1.82.51.25-.12.52-.3.77-.29,2.08.09,3.3-.79,3.68-2.8.08-.41-.01-.63.6-.77,1.09-.24,2.35-.14,3.08-1.38.43-.73.97.67,1.72.15.08-.66-.79-2.08,1.27-1.57.77.19.52-.75.26-1.2-.7-1.2-1.66-2.06-3-2.7-1.01-.48-3.15-.71-1.67-2.86,1.03-1.49,2.53-1.32,3.8-1.07,1.22.24,2.34,1.05,3.01,2.3,1.24,2.29,2.97,2.86,5.82,1.94-.75-.36-2.52.13-1.44-1.53.15-.23-.39-.09-.62-.06-.9.14-1.07-.32-.59-.88.97-1.13.24-1.48-.68-2.12-1.75-1.2-1.95-2.1-1.27-3.74-3.36,1.31-4.69-1.59-6.75-3.03.17-.81,1.55.05,1.68-1.03.14-1.16-1.02-.88-1.43-1.37-.83-.98-.72-2.34-1.36-3.47-.73-1.31-2.08-2.3-2.29-3.92-.01-.11-1.29.25-1.47-.74-.88.78.51,1.83-.7,2.27-2.03.74-3.67-.58-5.22-1.32-1.89-.91.95-1.88.35-3.19-1.02.86-2.17-.1-3.4.31-.71.24-.98-1.2-1.04-1.7-.14-1.15-.71-2.49.73-3.5,1.42-1-.65-1.18-.67-1.93-.01-.39-1.25-.4-.85-.87.91-1.08.41-2.32.79-3.41.15-.43.7.07,1.03.28,2.66,1.71,4.98,3.81,7.32,5.9.83.75,1.4,1.74,2.97.86.92-.51,2.05,1.14,3.44.48-1.4-.54-.75-2.37-2.09-3.03-.06-.03-.02-.26-.02-.39-2.6.98-1.97-1.56-2.77-2.46-1.01-1.15-2.43-1.46-3.69-2.06-.93-.44-.92.82-1.55,1.02-.52-1.7-.59-1.81,1.43-3.02,1.46-.87.88-1.43-.05-2.01-.92-.58-2.03-.68-3.04-.31-2.27.82-3.97.18-5.05-2.16,1.54-.21,2.85.47,4.22.77.6.13,1.37.45,1.65-.33.3-.84-.62-.93-1.13-1.16-1.73-.76-3.63-.73-5.84-.96,4.57-1.27,7.87.56,11.04,2.85.5.36.89,1.4,1.64.75.5-.43.64-1.37.32-2.09-.35-.79-1.03-1.44-.97-2.49,2.27,1.16,3.37,2.87,3.24,5.32-.07,1.31.91,2.26,1.62,3.16.48.61,1.56.53,2.44-.17,1.17-.93.53-2.61,1.74-3.5.15-.11-.38-.63-.83-.73-.59-.14-1.45-.06-1.53-.79-.08-.73.88-.47,1.26-.81.18-.16.22-.47.4-.9.55.68.85,2.1,2.11.88.23-.22.82-.11.93.19.87,2.36,2.75,4.47,1.97,7.25-.11.38-.28.55-.6.73-.23.12-.37.38-.56.57,1.9,1.2-.02,2.76.34,4.45.43-.57.61-1.09.93-1.19,3.48-1.05,3.94-1.96,2.59-5.18-.17-.4-.95-.91-.28-1.29.46-.26,1.25-.5,1.8.24.4.54.96.96,1.74,1.71-.24-.85-.73-1.41-.25-1.99.61-.74.2-1.33-.5-1.62-1.56-.65-1.05-1.27.31-2.07-1.13-.23-1.56-1.42-2.76-.29-.68.65-1.36-.52-2.05-.81-.77-.33.05-.74.22-1.11.06-.12.15-.23.24-.33.69-.82.85-2.07.3-2.6-.81-.78-1.48.47-2.2.88-.21.12-.22.5-.62.48-2.22-3.27-3.67.51-5.51.69-.32-.76.09-1.24.42-1.75.38-.57.29-1-.42-1.26-.76-.27-1.53-.64-.99-1.59.47-.82,1.11-1.62,2.28-1.24,1.65.53,2.47-.23,3.1-1.74-1.51-.17-2.68-.76-3.63-1.95,1.31.04,2.12,1.11,3.22,1.1,2.22-.02-.32-1.99,1.21-2.43-1.71.29-3.22.43-4.73.16-.45-.08-1.07-.29-.83-.91.18-.45.73-.28,1.13-.18.47.11.96.45,1.38.37.63-.11,1.76-.66.91-1.23-1.22-.81-1.84-3.07-4.08-2.03-.03.01-.11-.07-.29-.19,1.56-1.34,3.15-1.82,5.01-.5.31-.64.21-1.26.6-1.75.25-.31.02-1.07-.29-1.03-1.84.21-3.27-2.05-5.41-.63-.79.52-1.9-.6-2.77-1.28,1.01-.69,2.02.57,3.08-.45-2.2-.17-.96-1.88-1.55-2.82-.15-.23.16-.55.46-.56,1.41-.02,2.85-.73,3.41-1.58.79-1.21-.61-2.62-.91-3.99-.01-.05.05-.12.14-.32,1.25,1.13,1.25,3.21,3.13,3.73-.64,3.01,1.82,4.95,2.74,7.42.56,1.49,1.27,2.35,2.49.32.92-1.54,1.52.72,2.57.21-.87-1.16-.28-1.93,1-2.35-.15-.23-.19-.4-.29-.44-.67-.27-1.62.08-1.95-.86-.05-.14.04-.45.16-.51.83-.41,1.46.12,2.11.49.36.21.73.39,1.1.59.39.21.78.26,1.18-.02.48-.34.25-.64.04-1.04-.28-.54-.59-1.32.58-1.11,2.23.41,1.83-1.18,2.18-2.39.65-.02.29,1.09,1.11,1.14.48-.6-.25-2.52,1.8-1.73.24.09,1.48-.62.42-1.39-.82-.59-1.04-1.66-2.25-2.01-1.5-.43.43-1.82-.5-2.75-.35-.35.55-.53,1.03-.5.35.03.74.12.96-.21,1.04-1.54,1.9-.82,2.81.51.1-2.93-.42-5.47-1.08-8.33,1.11.48,1.84,2.36,2.83-.06-.29,2.9-1.22,5.35,0,8.11.64-1.68,1.18-3.1,1.73-4.52.21,2.57-1.43,4.82-1.2,7.46.69-.88,1.52-1.36,2.42-1.86.97-.54,1.66-1.78,1.91.48.85-.68-.06-1.46.49-2.02q.93,2.35,2.56,3.47c.55-1.45-1.15-2.64-.46-4.05.11-.22-.41-.8.24-.65,2.75.63,1.74-1.51,2.17-2.64.62.41.22,1.03.34,1.53.13.52.17,1.07.74,1.52.79-.78.23-1.82.61-2.73.59.52.18,1.23.44,1.76.5,1,1.14-.04,1.75-.08-.19,1.21-1.7,2.04-.53,3.26.05.05-.11.44-.24.5-1.04.39-1.74.98-1.92,2.15-.16,1.06-.56,2.09-.81,3.14-.24.98-.61,1.95-.41,2.99,2.07.06,3.93-1.55,6.13-.64,1.04.43,1.2,1.85,2.51,1.88-.33.63-.65,1.27-.99,1.9-.91,1.7-.56,2.53,1.38,2.66.99.07,1.22.61.98,1.09-.64,1.25.26,1.77.9,2.54.54.65,1.93,1.07.93,2.42-.14.19.19,1.24.88,1.66,1.64,1.01,1.8,3.2.31,4.28-.9.65-1.78,1.11-.63,2.34.41.44.16,1.72-.62,1.45-3.56-1.24-5.23,1.04-7.16,3.34,1.82-.09,3.55.72,5.24-.49.14-.1,2.25-.51,2.94,1.3.98,2.59-.48,4.68-.72,7-.06.62-.65,1.25.23,1.97,2.58-3.46,4.74-7.17,6.26-11.04.75-1.91,2.56-3.13,2.82-5.44-.18,1.72.34,2.07,1.68.99-.11.83-1.06,1.5,0,1.95.82.35,1.18-.45,1.31-.95.38-1.44,2.31-1.14,2.67-2.6.25,1.36-.52,2.58.33,3.78.28.4-.14.87-.73,1-.74.17-1.48.37-2.44.62.94.76.79,1.36.49,2.48-.39,1.46.2,3.68,1.64,4.76.98.74,1.06,1.4.93,2.84,1.02-1.46,1.73-2.47,2.5-3.56.81,1.12.1,1.73-.36,2.36-.68.93-1.51,1.75-.96,3.1.28.69-.26.93-.98.79-.74-.14-1.3.59-.96.87,1.96,1.66-.12,4.31,1.73,6.07.46.44.36,1.92-1.16,2.69-1.42.71-2.7,1.35-4.31,1.44-.67.04-.96,2.22-.46,2.92.58.83,2.04,1.63-.58,1.94-1.35.16-3.73.8-2.96,3.35.1.35-.16.62-.49.81-1.11.61-.71,1.54-.33,2.29.38.74,1.09.27,1.75.25,1.5-.04,3.01.39,4.47-.38-.24-.48-.56-.93-.71-1.43-.18-.61.37-.79.83-.96.61-.23.76.19.81.61.13,1.07.53,1.95,1.8,2.48.36-1.01.9-1.9-.37-2.75-.54-.36-.5-.96-.09-1.43.94-1.09,1.35-2.45,1.97-3.74.87.51.04,1.31.48,1.84.39.06.43-.26.55-.48.36-.65.87-1.71,1.58-1.21.91.64-.23,1.2-.7,1.7-.53.57-.75,1.46-.23,1.81.64.43,1.1-.32,1.54-.9,1-1.3,2.11-2.43,3.99-2.71,1.37-.2,1.49.82,2.11,1.39.78.7-.22,1.13-.43,1.37-1.35,1.56-1.28,3.65-2.44,5.33.99.15,1.55-.41,2.21-.75.59-.3,1.11-1.52,1.73.2.37,1.02,1.73-.19,2.68.29-2.44-.08-4.41,1.59-7.04,1.22-1.96-.27-3.42,1.29-4.96,2.7,1.49.59,1.5-.96,2.59-.84-1.05,1.51-2.22,3.17-.05,4.45.83.49,1.07,1.14,1.49,1.78.06.09,0,.25,0,.38-2.55.74-2.62,1.18-.68,3.06.45.43.9,1.31.74,1.8-.65,2.08-.66,4.14-.38,6.25.04.32-.02.71-.45.81-.43.11-.59-.21-.79-.5-.24-.34.01-1.13-.74-.99-.61.11-.48.74-.52,1.19-.06.64.1,1.58.77,1.39,2.33-.65,2.26,1.8,3.59,2.47h-2.55c-.79.61,1.95,2.37-.95,2.38-.34,0,.22,2.18.75,3.19.44.84,1.08.47,1.55-.27.4-.62.96-.65,1.13.19.1.51.22.68.79.59,1.04-.17,1.25.46.55.95-1.09.77,1.25,1.76-.41,2.69-.53.29-1.1.94-1.93,1.22-.86.29-2.48-.06-2.35,1.34.12,1.28.15,3.2,2.74,2.29-.46.97-1.53.73-1.74,1.71,1.12-.17,1.94.35,2.61.88-.38,3.07-3.99,3.11-5.21,5.38,1.64,1.31,3.18.27,4.38-.57,1.05-.73,1.51-.61,2.46,0,1.36.88,0,1.11-.24,1.63-.32.67-.24,1.27.47,1.83.78-1.56,1.92-2.31,3.73-2.76,1.74-.43,1.7,1.03,2.52,1.45.47.25-.58,1.16-1.02,1.54-.85.73-2.33.98-2.54,2.16-.19,1.08-.67,1.95-1.55,2.98,2.24-.24,2.37.53,1.45,1.84-.18.26-.54.53.02.77.23.1.58.41.72.09.5-1.21,1.18-.09,1.2.05.16,1.27.91,2.28,1.44,3.39.6,1.26-.51,1.41-1.28,1.46-1.7.1-.81,1.6-.68,1.66,1.07.44,2,1.55,3.38.92.46-.21.82-.99,1.42-.51.68.55,1.81,1.69,1.67,1.88-.72,1.04.99,3.3-1.94,3.32-1.55.01-2.6,2.51-2.21,4.26-.36.55-.74-.05-1.1,0-.4.07-.94.17-.92.63.02.52.42.78,1.04.71,1.3-.15,2.54-.19,1.31,1.61,2.16,1.81-1.49,2.02-1.04,3.46.14.44-.46.6-.78.06-.46-.76-1.16-.21-1.44-.03-.61.39.08.76.3,1.12.14.23.32.45.39.7.6,2.35.95,2.56,3.55,1.99.12,1.52-.99,3.25.95,4.46.59.36.02,1.11-.21,1.67-.41,1.01-.13,1.46,1.5.69-1.08,1.06-1.57,1.74-1.28,2.82.19.71-2.41,1.52-2.95.78-.89-1.22-2.47.1-3.24-1.07,0,0-.47.19-.46.25.31,1.68-2.28,1.65-2.06,3.25-2.15.45-2.42,1.54-1.27,3.23.15.21-.11,1-.35,1.1-1.93.77-2.98,2.66-4.76,3.63,1.04,1.59,2.4,3.27.92,5.44-.07.1-.05.25-.07.38,3.26.2.32,3.66,2.69,4.71.9.4-1.15.56-1.43,1.27,1.43.34,3.03,1.6,2.8,2.44-.41,1.42-.37,4.17-3.63,3.22.07.61,1.74,1.22-.15,1.71-1.44.38-2.23,1.92-.9,3.21.91.88-.9,1.9.56,2.45.29-.56.94-1.22.88-1.82-.22-2.17,2.15-1.49,2.92-2.61.42-.61,1.09,1.06,1.97.32.78-.66,2.18-.96,1.06-2.42-.32-.41-.38-1,.22-1.56,1.59,1.53,1.65,3.48,1.84,5.5.55-.38,1.06-.64,1.46-1.02,1.02-.97,1.45-.64,1.48.58.01.51-.04,1,.69.95.6-.04.81-.47.87-.98.08-.63-.11-1.21-.51-1.71-.55-.71-1.73-1.87-1.59-2.04,1.23-1.5.37-3.63,1.76-5.03.31-.31.45-.63.99-.42,1.42.54,1.3-.65,1.04-1.16-1.08-2.11-1.12-4.6-2.66-6.54,1.26.65,2.88,1.03,2.17,3.09,1.28-1.4,4.13-1.53,2.85-4.55,2.35,2.07-.4,5.52,2.94,6.87.17-3.95,2.95-5.93,6.37-7.51.6-.12-1.18,2.04.85.95.62-.33,1.46.69,1.89,1.31.44.64-.46.8-.81,1.16-.33.33-.59.73-.92,1.16,1.32.97,2.56.51,3.74,0,.96-.42,1.4-.25,1.9.71.61,1.18-.44.96-.88,1.28-.61.45-1.25.87-1.85,1.33-.86.67-.81,1.78-.41,2.37.47.71,1.49.43,2.19-.18.2-.18.44-.32.91-.55-2.12,2.18.91,2.35,1.32,3.65-.46.13-.84.25-1.24.34-1.02.22-2.7-.34-2.99.38-.71,1.8-2.16,3.22-2.58,5.12-.14.62.02,1.05.85,1,.82-.05,1.65-.01,2.44-.01-.71,1.6-3.53,1.06-3.21,3.43-.69-.08-.92,1.16-2.1.3-1.38-1.01-2.78.09-3.88,1.19-1.01,1.01-.37,1.65.43,2.32,1.22,1.02,1.11,2.91,2.64,3.76.12.07.1.51.02.74-.45,1.15-1.23,2.25.48,3.22.31.17.23,1.71-.19,2.22-1.28,1.57-2.8,2.95-3.88,4.68-.13.21-.62.3-.95.31-1.33.05-2.22.29-.95,1.67.38.41.3.86-.08,1.02-1.3.55-1.61,3.44-3.98,1.57-.33-.26-.93.11-.72.6,1.13,2.57-1.99,3.46-2.29,5.45-.01.09-.35.18-.54.18-1.3-.03-1.3-.04-.94,1.12,1,3.21.2,4.24-3.34,4.43-.76.04-1.52.23-2.28.26-.47.02-1.24-.21-1.15.41.16,1.04-.66,2.01-.24,2.92.29.64,1.11.29,1.7.08.25-.09.51-.16.74-.23-.32,2.06,1.54,3.5,1.51,5.42-.59.31-.92-.2-1.28-.42-1.76-1.04-2.71-.81-4.2.86-.42.47-.66,2.3-2.01.63-.32-.4-.91,0-1.26.36-.23.25-.62.67-.27.85,2.63,1.35.05,2.87.09,4.28.02.57-.09,1.74-2.03,1.34-2.58-.52-4.66-1.85-7.02-2.65-.68-.23-1.25-.46-1.59.26-.35.74-.9.92-1.65.99-1.51.13-3.02.25-2.64,2.4.12.67-.26.72-1.06.55-1.87-.4-2.44-1.25-2.04-3.03.21-.93-.75-1.17-1.47-1.37-.21-.06-.57.07-.75.23-.31.29-.18.6.17.82.64.4,1.14.92.73,1.67-.54.97-1.15-.21-1.83-.04-1.04.27-1.68-.76-2.54-1.19-.07,1.26-1.61,1.85-1.31,3.41.11.6-1.61.8-2.59.64-.34-.05-.69-.7-1.06-.3-1.58,1.71-4.06,2.72-4.36,5.43-.63,5.66-.26,11.33-.34,17-.13,9.52-.04,19.06.96,28.52,1.03,9.82,1.15,19.66,1.62,29.5.1,2.09-.73,2.77-2.71,2.74-3.69-.06-7.39-.09-11.08-.05-1.66.02-1.54-1.12-1.55-2.09-.03-5.67-.02-11.35,0-17.02.02-11.75.89-23.44,1.92-35.15.54-6.11.39-12.28.57-18.41.09-2.97.22-5.93.38-8.9.12-2.22-1.01-4.34-.4-6.62.15-.55-.52-1.48-1.54-1.53-1.37-.06-2.55-.65-3.81-1.09-1.08-.37-2.38-.4-3.57-.5-.62-.05-1.43.36-1.87-.23-.52-.69.56-.93.73-1.47.09-.29.53-.46.16-1.27ZM91.04,236.37c-.71-1.03.43-3.16-1.85-3.05-.25.01-.33-.48-.15-.68.64-.7-.12-1.42.09-2.12.16-.55.12-1.05-.64-.74-.41.17-1.36.42-.8,1.09.81.99.34,1.58-.38,2.21-.71.62-.53,1.29-.22,2.03.21.5.75,1.05.04,1.59-1.36-.41-.81-2.72-2-2.49-1.45.28-.97,2.33-1.82,3.39-.04.05-.05.12-.08.19-.22.5-.15.98.36,1.22.73.35.71-.34.96-.7.33-.48.13-1.22.79-1.52,1.29.62.74,1.72.74,2.93,1.1-.95,2.99-.78,2.64-2.74-.09-.5-.72-1.03-.21-1.48.65-.57,1.08.28,1.62.47.31.11.6.27.9.41ZM112.29,221.63c.49-.32.92-.5.47-1.02-.32-.37-.72-.88-.02-1.14,1.51-.57,2.96-1.78,4.72-.73,1.05.62,1.67-.13,1.64-.79-.09-1.81.13-3.11,2.46-3.17.41-.01,1.09-.66.95-1.4-.07-.35-.34-.53-.76-.53-1.45.01-3.5,1.7-3.72,3.22-.08.52.21,1.22-.52,1.33-.66.1-.79-.63-1.05-1.09-.42-.73-.84-1.59-1.86-.66-1.29,1.17-2.28,2.57-3.12,4.05-.46.8.19,1.43.8,1.93ZM58.8,45.39c.93.11,1.56.37,1.48-.45-.18-1.82-1.59-2.75-3-3.65-1.02-.65-1.8-.48-2.62.48-1.06,1.25-2.12.85-2.6-.53-.19-.53-.33-.45-.65-.36-.39.1-.87.12-1.02.58-.14.4.18.62.47.8,2.6,1.57,5.85,1.53,7.95,3.14ZM103.63,207.87c-.82-1.03-.81-2.59-2.55-2.57-1.26.02-3.48,4.3-2.54,5.03,1.26.99,1.5,2.3,1.93,3.58.38,1.13,1.14.35,1.65.28.69-.09.8-.67.43-1.24-.44-.68-.77-1.51-1.39-1.98-1.05-.78-1.52-2.4-1.25-2.83.68-1.11,2.05-.61,3.16-.1.04.02.13-.04.55-.18ZM69.57,19.06c.36.66.58,1.24.95,1.71.31.38.65,1,1.34.65.51-.26.47-.8.4-1.27-.07-.46-.21-.91-.34-1.35-.45-1.49-.51-3.28-2.82-3.32-.06,0-.08-.48-.18-.71-.26-.6-.88-.56-1.24-.34-.68.43-.09.77.27,1.06.51.42,1.14.73,1.46,1.58-1.51-.24-3.39-.62-1.27,1.56.59.6.02,1.35-.06,2.06,1.07-.18.96-1.06,1.5-1.62ZM73.1,262.11c1.55-1.78,3.17-2.98,3.38-5.09.07-.69.03-1.32-.74-1.71-.87-.44-1.6-.12-2.35.28-1.16.62.23,1.07.18,1.72-.13,1.43-1.04,2.78-.47,4.8ZM116.74,205.5c-1.51,0-2.89-.36-3.89.08-1.68.74.28,1.94.02,2.97-.07.26-.08.54-.06.8.06.85,1.25,1.32,1.39,1.23.94-.6,1.74-1.38,2.56-2.14.05-.05-.08-.4-.21-.48-1.25-.75-.34-1.47.19-2.47Z"/>
  </g>
</svg>