<?xml version="1.0" encoding="UTF-8"?>
<svg fill="#6A7F6B" id="Capa_2" data-name="Capa 2" xmlns="http://www.w3.org/2000/svg" viewBox="0 0 327.67 217.73">
  <g id="Layer_1" data-name="Layer 1">
    <g>
      <path d="M17.06,94.86c-.04-2.33,2.11-4.46.72-7.04-2.06.99-.79,3.21-2.11,4.84-.68-2.28.5-6.71-4.19-4.02,0-.68,0-1.35,0-2.03.4-.97.87-1.92,1.2-2.91.32-.97.5-1.98.74-2.98-1.39-.67-2.18.81-3.47.66.22-1.26,1.34-1.47,2.17-1.93,1.06-.58,2.11-1.18,2.26-2.48.35-3.14,1.35-5.94,3.28-8.54,1.46-1.97,1.1-2.29-2.02-2.92,3.64-.23,4.92-2.92,6.35-5.6.91-1.7.33-2.18-1.23-2.04-2.31.21-4.77.19-6.88,1.01-2.4.94-4.62-.9-6.84.39,3.15-2.86,6.4-3.5,12.98-2.83,1.25.13,2.68.78,3.62-.42.88-1.13,2.92-1.48,2.6-3.43-.42-2.53-2.71-2.94-4.64-3.78q3.18-1,7.13,2.91c.4-1.94,1.61-2.95,3.34-3.67,1.74-.72,3.46-1.09,4.58-3.4,1.46-2.99,10.04-4.49,13.45-3.13-1.13.82-2.3,1.58-3.37,2.47-.66.54-1.93,1.08-1.26,2.11.54.84,1.7,1.24,2.75.39.37-.3.53-1.64,1.18-.1,1.01,2.39,2.97,2.06,5.03,1.66,2.32-.45,4.12-1.92,6.2-3.05.42,1.39.26,2.51-.01,3.64-.99,4.11.16,5.43,4.55,5.57,4.55.14,8.97-.15,13.13-2.26,1.12-.57,2.45-.74,3.7-1.01.91-.2,2.12-.42,2.32.79.23,1.34-1.01,1.13-1.92,1.32-1.97.42-3.87.71-5.81,1.75-1.58.85-3.91,2.92-6.38.95-.79-.63-1.11.32-1.47.9-1.52,2.44-.36,6.61,3.16,9.39,1.39,1.1,2.09,2.88,3.74,3.55,3.03,1.22,1.1-3.09,3.46-3.19,1.1-.05,1.71-1.5-.35-1.73-1.85-.2-1.48-.91-.59-1.98,1.22-1.48,2.54-2.75,4.48-3.13,2.12-.41,3.93-2.52,3.75-3.67-.38-2.37,1.18-2.74,2.28-3.7.99-.86,3.14-1.04,2.71-2.7-.48-1.84-2.46-2.04-4.24-2.44-3.89-.89-7.61-.23-11.32.67-2.2.53-4.78-1.25-6.77,1.91-.07-3.18-1.3-5.82,1.83-7.4.95-.48.98-1.34.84-2.4-.19-1.34-1.13-1.47-1.98-1.54-3.59-.3-7.27-1.02-10.77-.54-2.81.39-6.87-1.37-8.26,3.12-1.39-1.22,1.64-5.08-2.97-4.46,6.22-1.55,12.29-.65,19.01-1.3-1.7,1.23-3.22.63-4.34,1.93,3.3.24,6.46-.03,9.74.79-.37-.79-.65-1.37-1.15-2.43,5.11,1.53,9.62,3.88,14.72,3.72,1.04-.03,2.08.29,3.12.33,4.82.16,4.82.15,7.69,2.24-1.36-8.73-8.33-12.69-14.19-17.54,3.64-.09,5.58,3.18,8.74,4.7-.39-3.22-.92-6.07-.31-8.95,2.53.86,1.49,3.64,2.85,5.59.84-1.88,1.54-3.44,2.36-5.26,1.2,4.25-.16,8.01-.42,11.82-.18,2.63,1.14,5.05,3.29,4.92,3.77-.23,7.51.48,11.52.36-.96-1.2-2.01-1.86-1.8-3.46,3.26,1.87,6.78,3.82,10.13,1.77,1.64-1,1.99-4,.99-6.4-1.09.65.35,1.99-.64,2.55-1.91-2.41-2.82-5.18-3.58-7.98-.81-3.01-4.03-4.47-4.6-7.58,2.7-.47,3.59-1.63,1.66-4.07-.56-.7-1.08-1.98-.17-2.51,1.4-.81,1.65.86,2.03,1.62,1.31,2.64,3.02,3.09,5.63,1.74,3.59-1.86,7.14-1.47,10.51.8,1.88,1.27,4.06,1.66,6.26,1.75,1.65.07,2.97.46,3.62,2.12-4.58,0-9.07.31-12.72,3.62.4-1.46.75-2.91,2.2-3.79.72-.44,1.39-1.23.57-1.98-1.38-1.26-3.37-2.66-4.89-2.14-2.75.93-6.34.28-8.13,3.21-1.28,2.1,1.86,9.13,4.15,9.77.47.13,1.16-.16,1.63-.45.88-.55,1.66-1.24,2.49-1.87,1.06.1,1.47,2.04,2.95,1.03.41-.28.96-.31,1.04.31.05.4-.15.91-.41,1.24-.59.73-2.72.37-1.67,2.23.94,1.66,2.02-.19,3.02-.02.86.14,2.33-1.2,2.39.72.02.55-.73,1.16.27,1.47.84.26,1.2-.41,1.5-1.08,1.19-2.62,3.25-4.43,5.62-5.94,4.5.15,4.57.2,2.11,4.07-.74,1.16-.57,2.09.56,1.81,3-.73,5.7.35,8.52.73.43.06,3.91-4.59,3.62-4.76-1.26-.76-1.77-2.5-3.57-2.55-1.32-.04-1.88-.77-1.42-2.1,1.7-1.62,1.41-3.71-.44-4.23-4.85-1.35-6.09-5.83-8.82-9.01.52-.01,1.03-.03,1.54-.04.08.08.17.16.25.24-.07-.09-.14-.18-.21-.28-.23-.69-.45-1.38-.68-2.06.23-.23.45-.46.68-.69.46.46.92.91,1.38,1.37h0c.52-.26,1.04-.52,1.56-.78,2.63,2.62,5.29,5.17,6.16,9.05.53,2.36,1.61,4.17,4.66,2.67,1.4-.69,3.02-.79,3.56,1.39.1.42.43,1.05.75,1.12,2.02.43,4.05-.39,6.15.3,2.52.83,3.85-.89,4.8-2.96.19-.4.47-.76.72-1.16-1.17-1.02-2.6-.11-3.97-.93,1.86-.28,3.51-.4,5.11-.79,4.23-1.02,5.49-4.64,6.76-8.13.71-1.96-.77-1.42-1.75-1.22-4.08.85-7.1,3.94-10.99,5.2-.5.16-.97.45-2.25,1.06,2.53-3.95,5.8-5.45,9-6.89,3.34-1.51,6.85-2.63,10.28-3.96.47-.18.87-.39,1.25.03.5.56.1,1.04-.19,1.56-2.08,3.77-4.16,7.55-6.2,11.34-.33.62-1.69.99-.78,1.93.73.76,1.7.37,2.61-.02,1.22-.52,2.23-2.22,4.26-.79-2.75,1.72-5.29,3.24-7.73,4.9-.64.44-1.94.97-1.15,2.14.61.91,1.61.91,2.44.15,1.29-1.18,2.36-.89,3.12.51.67,1.25,1.94,1.14,2.96,1.6,1.07.47,2.69-.53,3.18,1.75.21,1.01,1.99.06,2.94-.67,2.01-1.55-2.04-.98-.21-2.6,4.06,1.85,7.09-1.99,10.94-3.08,1.72-.49,3.17-.66,1.77,1.84-.28.51-.67.93-.33,1.58,1.01,1.91,1,1.91-.81,2.69,1.14.99,3.12.49,3.79,2.2-2.63.31-4.89,2.28-7.69,2.04.11-1.39,2.07-.88,1.85-2.32-.83-.46-1.64-.3-2.41-.05-1.09.35-2.46.63-2.43,2.08.03,1.18,1.28,1.6,2.17,2.02,1.62.76,3.59-.1,5.12.53,3.89,1.62,4.96-1,6.19-3.62,2.37-2.93,5.95-1.81,8.95-2.65.47-.13,1.04.13.87.72-.22.74-.37,1.74-1.42,1.75-1.31.02-2.57.02-3.43,1.32.76,1.17,2.5.35,3.39,1.76-3.52,1.51-7.3,2.29-10.27,4.98,4.23-.37,8.32,1.8,12.66-.6,5.27-2.91,11.35-2.71,17.13-2.47,3.23.14,1.36,3.39.73,4.5-.84,1.45-.77,2.06.19,3.22,1.61,1.95.38,2.81-1.51,2.74-3.52-.14-5.32,2.1-6.93,4.63-.51.79-3,2.13.37,2.65.96.15.06.48-.23.61-1.45.64-.48,1.3.06,1.78.51.46.84,1.18,1.94.25,2.53-2.13,4.4.3,6.51,1.16-1.72,1.16-3.75.18-5.32,1.34,1.65,2.45,3.78,4.36,6.32,5.84.58.34,1.47.54,1.27,1.41-.11.47-.65,1.06-1.11,1.2-.79.24-1.71.11-1.94-.92-.12-.53.16-1.38-.78-1-1.96.79-1.01,3.43-2.68,4.46.71,1.03,1.74,1.48,2.94,1.61,3.13.34,5.71,1.72,7.71,4.14.53.64.81,1.39.83,2.25.08,3.01-.57,3.29-3.5,2.44-2.4-.69-4.25-2.98-7.33-2.36-.2,2.13,2.31,4.18.25,6.86-.68-4.37-3.65-6.27-7.23-7.46-1.3-.43-2.92-1.1-3.48.9-.48,1.72-.12,3.28,2.08,3.67,2.31.41,4.38,1.29,6.07,3.22-1.71.7-2.73-.95-4.42-.64,2.08,2.46,3.89,4.35,7.37,2.45,2.26-1.23,2.43,1.93,3.94,2.56.71.3.97.98.21,1.65-1.06.94-2.1,1.96-3.7,1.11-.31-.16-.61-.36-.94-.46-.86-.26-1.89-1.04-2.57-.15-.72.95.44,1.64.91,2.39.17.28.32.58.53.98-1.49.21-2.49-.78-3.68-1.1-1.81-.48-3.07-.25-4.52,1.43-1.37,1.59-2,4.31-4.92,4.4-1.52.05-1.02,1.21-.7,2.1.51,1.41,2.07,1.4,3.2,2.37-1.94,1.2-3.89,2.47-.03,3.68.72.23,1.19,1.33,1.73,2.06,2.71,3.66,4.96,3.89,9.86.8,1.87-1.18,3.76-2.03,6.14-1.96-3.19,1.49-3.89,6.11-8.21,6.1-1,0-1.55.67-1.44,1.59.11.92,1.07,1.01,1.67.79,3.38-1.24,7.24.42,10.47-1.79.93-.64,1.78-.55,3.07.13,1.98,1.04,4.48,1.13,6.77,1.54,1.16.21,2.03-.43,2.66-1.35,2.78-4.11,8.86-9.56,12.45-11.14.51-.22.99-.65,1.59-.33,0,.21.08.46-.01.6-.98,1.54-4.28,2.38-3.45,3.8,1.24,2.13,4.07,4.15,6.51,4.18,5.62.06,10.08,4.23,15.69,3.81.56-.04,1.26.06,1.34.81.08.71-.46,1.02-1.07,1.14-.87.16-1.76.28-2.7.42.49,1.46,1.65,1.4,2.6,1.76,1.63.62,3.56.97,4.78,2.07,3.6,3.26,8.17,3.71,12.5,4.67,2.22.5,4.23,1,5.96,2.5,3.25,2.8,7.54,3.39,11.23,5.26,1.14.58,2.36.99,3.53,1.5.55.23,1.15.55,1.07,1.21-.08.64-.74.89-1.31.98-.91.15-1.87.07-2.76.29-1.35.33-3.57-1.95-4.01,1.35-.06.49-.74-.12-1.09-.32-1.42-.83-2.68-.27-4.36.5,1.93,1.46,2.32,5.28,5.9,2.41.63-.51,1.25.34,1.41,1.07.18.79.16,1.63.43,2.38.42,1.14.87,2.53-.23,3.16-1.18.68-1.53-1.07-2.35-1.61-.28-.18-.58-.35-1.17-.69-.15,3.14,2.41,4.63,3.67,7.35-3.67-.29-7.31,2.12-10.31-1.71-1.55-1.98-4.49-.39-6.22-2.14-.29.32-.77.61-.84.98-.54,2.75-2.2,2.42-3.87,1.35-1.42,1.74,2.34,3.38-.2,4.67-1.41.72-2.54-.42-3.09-1.85-.99.85.33,2.59-1.15,2.74-1.38.14-1.3-1.37-1.56-2.33-.41-1.47-1.58-2.43-2.82-1.93-1.41.57-.08,1.75.2,2.63.4,1.3,1.25,2.5.82,4.33-1.69-1.53-2.52-1.3-3.85.65-1.22,1.79-3.75,3.02-6.28,2.69-1.11-.14-.77,1.1-1.63,1.03-.84-1.37.11-3.21-1.12-4.78-1.51,1.62-1.09,3.58-1.27,5.41-.29,2.93-1.45,3.36-3.92,2.37-1.66-.66-.77-1.22-.53-2.01.87-2.81,2.09-5.54,2.24-8.51.19-3.96-1.14-5.94-5.71-8.3,1.12,3.87,3.21,7.05,3.56,11.87-1.04-2-1.57-3.13-2.2-4.21-.69-1.18-1.92-2.18-3.12-1.86-1.46.4-3.95,2.1-3.85,2.33,1.21,2.82-.88,5.24-.68,7.95.24,3.29-.84,6.64-.2,10,.04.21-.04.65-.1.66-1.81.21-2.27,1.33-2.83,2.98-.72,2.13-2.91,3.19-4.97,4.07-2.53,1.07-5.28.81-7.91,1.06-2.06.2-4.39,1.33-6.1.55-1.71-.78-.99-3.6-1.87-5.34-.45-.9-.8-1.93-1.92-2.31-.91.74-.54,1.73-.59,2.61-.05.8-.01,1.61-.21,2.44-1.14-2.9.71-6.55-2.12-9.23-1.94,2.51-.09,5.3-1.26,7.66-1.83-2.12-2.52-7.23-1.3-9.65-1.19-.37-2.37-.73-3.71-1.14.25,3.22.62,6.29.69,9.36.09,3.63-2.91,5.21-6.11,3.39-1.51-.86-2.96-1.85-4.87-1.67-1.38.13-2.41-.5-2.85-2.71-.76,1.99-.2,3.18.08,4.26.75,2.88-1.09,3.98-3.09,3.4-1.8-.52-1.85.21-2.39,1.26-1.69,3.29-4.25,5.83-7.26,7.91-.64.45-1.59,1.01-2.21.84-3.95-1.08-7.87-.15-11.8-.05-2.83.07-5.47,1.41-8.35,1.22-.4-.03-6.7.4-7.41.32-.63-.07-1.33.17-1.28.83.28,3.5-2.03,1.7-3.46,1.76-3.23.14-3.31-2.13-4.37-4.45-1.38-3.02-3.94-5.9-7.38-7.07-1.98-.68-3.81.3-5.09,2.19-2.63,3.86-5.44,7.6-8.04,11.48-1.06,1.58-2.21,2.21-4.09,1.79-4.25-.95-8.83.84-12.95-1.61-.69-.41-1.98-.36-2.74,0-3.7,1.78-7.6,1.58-12.46,1.49,5.09-1.76,9.44-2.55,15.04-2.53-3.43-2.53-6.02-4.96-9.48-4.4-3.47.56-6.72,2.18-7.62,6.26-.22,1.02-.69,2.04-.69,3.05.04,4.72-4.47,7.23-5.59,11.43-.6-6.04,5.16-10.52,4.04-16.56-1.81,1.11-1.97,1.05-4.51,8.57-1.1,3.24-1.4,6.74-2.27,10.2-.53-2.63-1.09-5.02-4-6.21-1.65-.67-.04-1.75.49-2.44.57-.75,1.62-1.41.43-2.24-1.06-.73-1.67.33-2.15,1.12-.64,1.08-1.21,2.21-1.84,3.36-1.43-1.68-.57-3.5-.49-5.32.06-1.29,1.19-3.25-1.12-3.78-2.2-.51-2.77,1.14-2.99,2.84-6.88-4.45-12.1-10.74-19.1-15.03-2.43-1.49-3.4-.41-4.98-.2-1.27-1.33.93-1.77.49-2.86-.78-.72-1.22.06-1.65.5-.8.8-1.61,2.41-2.71,1.51-1.05-.85-2.99-1.57-2.45-3.69.6-2.37-1.9-1-2.46-2,.02-.51.04-1.02.06-1.53.4-.17.79-.35.68-.9-.01-.07-.15-.12-.23-.18-.15.36-.31.71-.46,1.07-.19,0-.37,0-.56,0,.52-4.37-1.62-8.45-1.38-12.82.08-1.49-1.39-1.75-2.14-.71-1.16,1.62-2.48,1.5-4.18,1.52-2.89.03-4.95,2.15-6.5,4.21-1.09,1.45-1.85,1.28-2.78.53-1.25-1.01-.04-1.86.6-2.47,2.11-2,5.11-2.65,7.26-4.68,1.32-1.24,2.97-2.14,1.04-4.13-.17-.18-.23-.67-.11-.9,1.96-3.65,1.07-7.39-.02-11.84,2.29,2.72,1.57,5.26,1.79,7.61.09.92,0,2.05,1.17,2.27,1.44.27,1.8-1.02,1.96-1.98.88-5.33-.08-10.7.14-16.05.02-.56-.99-1.16-1.49-1.7-1.47.95-.36,2.22-.63,4.27-3.54-3.61-1.92-7.43-2.81-10.84-1.67,3.59-2.59,7.45-3.43,11.45-1.03-.71-.45-1.47-.56-2.11-.22-1.33-.04-3.54-1.56-3.35-1.16.14-2.96,1.79-2.49,3.86.3,1.31.12,2.56-.11,3.81-.17.93-.86.44-1.37.27.53-2.05-1.49-3.86-.38-6.06,2.09-4.14.95-8.02-1.28-12.12-3.55,3.89-.31,7.89-.68,11.8-2.45-2.33-1.64-5.41-2.82-7.9-1.61,4.8-4.95,9.48-.33,14.39.3.31.18,1.12.09,1.67-.47,2.86.27,5.53,1.15,8.19-2.21,1.51-1.86,3.84-1.8,5.99.05,1.68.02,4.16-1.36,4.18-1.99.04-1.28-2.53-1.37-3.91-.18-2.97.14-5.97.11-8.95-.04-3.66-.87-7.11-3.36-9.97.41-.69.72-1.47,1.24-2.06,2.57-2.95-1.27-8.34,3.9-10.31.02,0-.28-.79-.39-1.23-.18-.78-.34-1.57-.49-2.35-.17-.86.46-2.18-.59-2.47-1.17-.32-2.12.61-2.76,1.67-.87,1.46-1.25,2.97-.78,4.65.43,1.54.28,2.98-.76,4.26-.35-.27-1.04-.66-1-.79.97-2.86-2.25-6.18-1.58-7.1,2.4-3.26.88-6.86,2.32-10.44-2.62,1.05-2.43,3.85-4.19,5.31-.28-1.53.44-2.49.8-3.56,1.05-3.13,2.19-6.28,2.15-9.64-.05-4.24-1.75-5.8-5.58-5.3-.01-1.96-1.96-3.6-1.03-5.69.83-1.88.41-3.64-.33-5.4ZM100.48,195.1c1.38,1.47,1.9-.35,2.8-.72,0-.47-.01-.95-.02-1.42,0-.43.15-1.1-.06-1.25-.6-.43-.86.41-1.33.59-2.17.09-2.22,1.23-1.4,2.81ZM108.86,145.98c-.52-.08-1.52-.54-1.43.17.28,2.33-.19,4.56-.39,6.83-.13,1.52,3.83,5.18,5.03,4.63,2.36-1.09.32-2.95.43-4.46.02-.23-.03-.46-.04-.69.81,1.26,2.43,1.89,2.75,3.5.34,1.71,1.52,1.52,2.68,1.21,1.45-.38.97-1.49.95-2.54-.1-5.41-3.63-8.23-7.8-10.61-.69-.39-1.49-1.14-2.21-.61-.97.71.03,1.7.03,2.58ZM42.96,57.02c-1.34.78,1.79,3.22-1.24,3.37-.92.04-1.71.38-1.68,1.37.04,1.2,1.07,1.36,2.03,1.46,2.93.29,5.58-.63,7.58-2.61.99-.97,3.36-.82,2.97-2.9-.35-1.88.08-3.46,1.68-5.53-3.56.43-5.66,2.89-8.51,2.72.97-1.65,2.84-2.15,4.32-3.22-1.8-.86-3.76.93-5.64-.51,1.3-.83,3.61-.19,3.27-2.21-.31-1.84-2.45-1.86-3.74-1.59-3.52.74-7.06,1.42-9.94,4.08-2.9,2.67-3.64,4.46-1.83,6.64,1.9,2.28,4.94,2.53,7.31.55,1.02-.85,2.16-1.33,3.42-1.64ZM38.13,94.83c1.53-1.86,5.08-1.7,5.09-5.08,4.78-1.16,4.21-5.04,4.5-8.6.1-1.25-.31-2.98,1.43-3.65.9-.35,1.95-.58,1.39-1.87-.63-1.44-1.43-.18-2.22-.12-3.05.21-5.87,3.4-9.32.26-1.14-1.04-3.1.6-2.99,2.66.11,2.01-.76,2.94-2.61,3.48-1.57.46-2.8,1.6-4.13,2.58-1.65,1.22-2.66,3.65-5.52,2.86-1.03-.28-1.23,1.16-.96,1.81,1.36,3.3-.12,6.92,1.25,10.2.3.72.86,1.36.56,2.3-.27.83-1.94,1.7-.35,2.58,1.48.82,2.71-.21,3.66-1.28,1.1-1.25,1.65-2.76,1.7-4.46.09-2.44,1.64-2.41,3.35-1.76.71.27.75,1.5,1.78,1.5-1.19,4.07-4.78,6.95-6.1,11.9,4.98-2.47,7.89-6.22,11.35-9.25,1.36-1.19,4.39-2.82-.39-3.5-1.34-.19-1.08-1.62-1.47-2.54ZM144.63,187.36c3.46-5.57,8.98-8.47,14-11.98,1.2-.84,1.46-2.05,1.22-3.41-.45-2.58-1.16-5.06.47-7.66.97-1.55-.38-2.93-1.92-3.46-2.18-.76-.62.96-.86,1.5-.3.67-.89.59-1.46.65-2.96.32-5.01,1.64-5.84,4.75-.7,2.58-1.84,5.04-2.74,7.57-1.36,3.81-2.75,7.62-2.86,12.05ZM225.1,137.99c-3.82-4.05-6.53-8.42-12.39-8.17-1.59.07-3.5-1.92-4.67-.03-.96,1.55.25,3.61.39,5.45.11,1.4,1.68,1.75,2.39,2.77-2.27,2.35-5.59-.52-8.36,2.24,3.14-.23,5.11,3.98,8.3.7.03-.03.5.29.7.5,1.56,1.69,2.88.53,3.77-.59,2-2.51,4.14-3.96,7.43-2.44.42.19,1.1-.17,2.45-.43ZM172.72,34.14c-.67-1.2-.89-2.14-1.47-2.53-1.27-.86-2.73-.83-3.73.49-.74.96-1.14,2.78.27,2.88,3.31.25,3.7,5.15,8.1,4.12,2.79-.65,6.28-1.37,7.32-4.28.32-.91.23-1.54-.41-2.2-2.12-2.13-3.48-5.35-7.25-4.73-.18-1.37,1.61-.51,1.39-1.79-1.18-.42-2.31-1.15-3.64-.89-.61.12-1.73.86-.94,1.29,1.95,1.07,1.83,4.1,4.63,4.26-2.01.43-4.52-.32-4.27,3.38ZM61.16,141.8c-.52-1.38,1.1-3.8-.22-4.09-1.67-.37-2.88-2.7-4.57-1.59-1.77,1.15-3.05,3.17-2.65,5.39.51,2.83,0,5.55-.13,8.32-.09,2.09-.04,4.19-.02,6.29,0,.61.24,1.23.93,1.25.38.01.98-.28,1.13-.6,2.24-4.83,7.11-8.68,5.53-14.96ZM246.33,121.19c2.97.3,4.06-2.14,5.62-3.85.57-.62.99-1.3.02-2.05-1.36-1.05-9.05-1.37-10.09.07-2.17,3.01-5.32,3.76-8.78,4.41,7.1,5.09,10.26,5.53,15.15,2.13-.71-.26-1.32-.48-1.92-.71ZM215.82,156.2c1.35.93,2.59,2.3,4.05.81,1.09-1.11,3.76-.72,3.41-2.91-.27-1.72-1.83-2.92-3.49-3.67-.32-.14-.68-.19-.99-.36-1.21-.67-3.2-.25-3.06-2.81.04-.74-2.15-2.03-3.54-1.45-1.8.75.8,1.36.31,2.46-1.74-1.19-3.53,1.48-5.3-.48-.32,7.86,6.04,6.42,10.52,7.76-.69.24-1.21.42-1.91.66ZM59.74,121.98c1.18-2.07,2.19-3.71,3.84-4.89.46-.33,1.1-.62.97-1.31-.13-.65-.79-.78-1.35-.9-4.29-.92-7.84,1.3-8.85,5.6-.26,1.12-.55,2-1.34,2.97-.76.93-1.66,2.97.24,3.85,2.59,1.2,11.1-3.16,11.93-5.87.2-.67.38-1.44-.35-1.87-.59-.35-1.11.1-1.53.51-.87.86-1.47,2.12-3.54,1.91ZM43.71,119.14c-4.38,3.42-5.84,12.92-3.39,19.74,1.47-1.7.81-3.82,1.28-5.68.41-1.6.47-3.32,2.96-2.9,1.62.27.98-1.09,1.01-1.89.13-3.05-.69-6.51,3.85-7.4.89-.17,1.65-1.88.92-2.65-1.12-1.17-.75-3.46-2.33-3.78-1.37-.28-1.93,1.32-2.26,2.64-.53,2.09-.51,4.35-2.04,6.66v-4.75ZM224.15,149.08c-.37.64-1.76.93-1.45,1.04,2.09.69,1.69,2.89,2.78,4.11.74.83,1.22,1.02,2.14-.1,1.84-2.24-.25-5.43,2.05-7.51.25-.22-.52-1.08-1.16-.9-1.14.32-1.62-.63-2.42-.97-4.1-1.74-8.32-1.7-13.11-.92,6.21,4.64,6.37,4.72,11.18,5.25ZM54.48,85.83c-.77.38-.96-.1-1.25-.45-1.13-1.34-1.66-.63-1.45.61.24,1.39,1.56,1.13,2.58,1.06,1.75-.13,3.42-.61,5.05-1.29,1.28-.54,2.7-.85,3.07-2.51.84-3.86-4.27-9.14-8.13-8.43-1.58.29-1.33,1.17-1.02,2.32.78,2.87,1.68,5.74,1.16,8.7ZM91.32,158.56c1.94-.09,3.81.06,5.43-1.63,2.3-2.4,2.28-3.37-.86-4.48-2.07-.73-4.19-1.32-6.3-1.94-1.79-.53-2.77.11-3.29,1.98-1.42,5.15-.4,6.46,5.01,6.07ZM62.21,62.58c-2.09-.37-2.33.52-2.19,1.75.39,3.47,2.55,5.84,5.24,7.63.33.22,1.09,1.85,1.39.88.49-1.59,1.83-1.71,2.78-2.35,2.37-1.59,1.8-2.99.29-4.81-2.15-2.61-5.78-1.14-7.52-3.1ZM272.19,111.66c-4.71-3.1-8.49-1.36-12.23.64-1.19.64-3.09,1.24-2.5,2.85.53,1.43,2.16,1.9,4.01,2.04,4.68.36,6.66-3.79,10.72-5.53ZM123.15,184.03c-5.3-4.32-8-5.35-12.62-1.38-.94.81-3.08,1.1-2.06,2.94.84,1.51,2.7,2.09,4.3,1.41,3.2-1.35,6.57-2.03,10.38-2.97ZM138.14,98.81c-.89.21-2.93.64-3.7,2.01-.53.96-.38,3.08,1.53,3.93.94.42-.04.45-.26.63-1.88,1.63.38,2.03.95,2.75.81,1.01,2.7,1.97,3.19.69.97-2.5,2.69-4.9,2.37-7.8-.21-1.92-1.59-2.37-4.09-2.22ZM203.62,44.4c1.72,1.12,3.36.52,4.94.53,1.22,0,2.58-.13,1.43,1.78-.62,1.04.28,1.2.91,1.3.74.12,1.65.41,1.46-1.09-.19-1.46.62-2.33,2.09-1.53.93.5,1.6.42,2.1-.31.69-1.01.87-2.39.15-3.27-2.16-2.68-6.09,1.09-8.35-2.15-.44-.63-1.38.21-1.88.96-.7,1.05-1.57,1.99-2.36,2.98-.14.17-.23.38-.49.81ZM88.52,127.19c-2.76,2.63-1.53,6.19-2.05,9.32-.11.64,1.7,2.28,2.16,1.5,1.18-1.97,3.11-.94,4.52-1.75,1.6-.92,2.78-1.95,2.16-3.8-.62-1.83-2.38-2.7-4.15-2.51-3.11.33-3.09.5-2.65-2.75ZM47.51,102.12c-5.6,1.88-7.32,6.24-8.97,10.63-.22.59.05,1.1.71,1.37,1.35.56,5.1-1.03,5.55-2.49.91-2.97,1.72-5.98,2.72-9.51ZM130.35,196.15c.86-4.23-.68-8.07-4.03-9.6-2.54-1.15-4.61.52-5.66,2.27-1.08,1.8,1.49,1.83,2.47,2.38,2.55,1.44,4.97,3.04,7.22,4.95ZM232.78,38.98c-2.16-.11-3.97.13-5.82-.08-2.49-.28-3.74,1.57-4.87,3.59-1.03,1.84,2.38,1,1.38,2.72-.93,1.6.3,1.77,1.44,1.72,1.12-.05,2.96-.02,2.63-1.45-.59-2.59.68-2.96,2.6-3.28,1.53-.26,2.34-1.34,2.64-3.2ZM93.76,47.24c-.05-.19-.09-.38-.14-.57,1.17-.56,2.34-1.12,3.72-1.78-2.61-1.47-4.88-2.52-7.57-2.15-.78.1-1.73-.3-2.08.71-.34.96.5,1.46,1.12,1.94,2.17,1.71,4.38,3.37,6.55,5.09.6.48.98,1.5,1.95.79.68-.49.96-1.28.93-2.15-.03-.94-.47-1.57-1.41-1.68-1.02-.13-2.05-.14-3.07-.2ZM133.54,133.75c-.08-.74-.66-.85-1.23-.98-2.19-.52-4.42-.48-6.57-.02-.9.19-2.46.8-2.06,1.97.72,2.08,2.2,3.84,2.92,6.01.26.77,1.07-.23,1.57-.64,1.98-1.64,1.36-5.6,5.07-5.73.1,0,.2-.38.29-.6ZM269.63,128.75c-3.19-1.87-5.29-3.03-6.2,1-.28-.49-.46-.68-.5-.89-.37-2.08-1.47-3.88-3.67-2.97-2.05.85-.44,2.92-.35,4.45.14,2.38,1.52,2.23,3.38,1.85,2.53-.51,3.85-2.98,7.33-3.45Z"/>
      <path d="M18.43,105.95c-.04,2.86-2.26,5.59-.5,8.59.27.45.16,1.4.78,1.38,3.1-.11,1.13,1.62.69,2.24-1.17,1.68-1.19,3.45-1,5.32-1.67-2.63-3.95-2.7-6.64-1.81-1.25.42-1.65-.76-1.59-1.71.36-6.02-.49-12.26,3.28-17.66,1.14-1.63.68-3.61.79-5.44.11-1.9.72-2.96,2.82-2,.75,1.76,1.16,3.51.33,5.4-.92,2.1,1.02,3.73,1.03,5.69Z"/>
      <path d="M16.39,132c-.22,2.39-.43,4.78-.67,7.47,3.11-1.32,1.56-6.84,6.51-5.93-2.46,5.13-5.28,10.11-5.07,16-.26,1-.94,2.11-.72,2.99,1.55,6.15-1.81,11.79-2.15,17.83,0-1.24,0-2.48,0-3.72.01-1.4-.13-2.82.09-4.19.88-5.4.58-10.94,2.01-16.27.15-.55.94-1.89-.84-1.17-.33.13-.87.27-.8-.15.69-4.27-2.38-9.03,1.66-12.86Z"/>
      <path d="M11.49,86.61c0,.68,0,1.35,0,2.03-.86,5.57-4.98,9.27-7.92,13.62-1.65,2.44-3.46,4.67-2.72,7.9-1.33-3.92-.92-3.8.08-7.36.78-2.76,3.86-3.41,4.52-6.46-1.93.88-3.89,1.84-4.66-1.3,3.9.06,6.21-2.18,7.7-5.68.52-1.23,1.52-2.36,3-2.75Z"/>
      <path d="M145.5,5.75c-.52.26-1.04.52-1.56.77h0c-.46-.45-.92-.91-1.38-1.36v-.02c-.25-.59-.5-.69-.74,0l.03-.03c-.25.01-.49.02-.74.04-.27-.64-.3-1.54-1.75-1.19.74.48,1.26.81,1.78,1.15.24.25.47.49.71.74h.03c.23.69.45,1.38.68,2.07l-.04.04c-.51.01-1.03.03-1.54.04-2.56-1.78-4.02-5.05-7.98-4.97-1.92.04.04-1.8-.49-3.03,2.72,1.16,5.07,1.87,8.08,1.15,2.02-.48,4.05,2.17,4.92,4.6Z"/>
      <path d="M248.38,104.13c2.53-2.9,5.45-2.68,10.06,1.25-2.87,0-5.1,0-7.33,0,.26-.48.51-.95.77-1.43,0,0,.01.01.01.01-1.17.05-2.35.11-3.52.16ZM254.09,103.68l-.05.28.26-.08-.21-.2Z"/>
      <path d="M56.32,181.78c-.02.51-.04,1.02-.06,1.53-.17-.51-.34-1.02-.51-1.53.19,0,.37,0,.56,0h0Z"/>
      <path d="M56.31,181.78c.15-.36.31-.71.46-1.07.08.06.21.11.23.18.11.55-.28.73-.68.9,0,0,0,0,0,0Z"/>
      <path d="M142.56,7.92c.07.09.14.18.21.28-.08-.08-.17-.16-.25-.24,0,0,.04-.04.04-.04Z"/>
      <path d="M103.29,194.38c-.39-.47-.43-.94-.02-1.42,0,.47.01.95.02,1.42Z"/>
      <path d="M142.56,5.16c-.23.23-.45.46-.68.69,0,0-.03,0-.03,0,0-.25,0-.49,0-.74,0,0-.03.03-.03.03.25,0,.49,0,.74,0v.02Z"/>
      <path d="M143.94,6.53h0s0,0,0,0Z"/>
      <path d="M101.17,193.72c.24-.48.49-.97.73-1.45-.24.48-.49.97-.73,1.45Z"/>
      <path d="M100.46,195.12c.24-.48.48-.97.73-1.45-.24.48-.48.97-.73,1.45Z"/>
    </g>
  </g>
</svg>