<?xml version="1.0" encoding="UTF-8"?>
<svg fill="#6A7F6B" id="Capa_2" data-name="Capa 2" xmlns="http://www.w3.org/2000/svg" viewBox="0 0 295.75 316.76">
  <g id="Layer_1" data-name="Layer 1">
    <g>
      <path d="M76.65,275.01c.2.45.56.77,1.02.67,1.87-.43,3.09.85,4.45,1.69.77.47.93.3,1.05-.5.17-1.21.76-1.71,1.89-.82.84.66,1.71.61,2.64.18.84-.39,1.71-.73,2.59-1.03.96-.33,1.28-.67.72-1.77-.55-1.08-.67-2.38-1.01-3.57-.12-.4-.22-.92-.84-.8-.7.13-.44.64-.36,1.04.09.5.24,1.02-.36,1.31-.52.25-.91-.09-1.38-.24-2.07-.67-3.47-2.17-4.93-3.65-.67-.68-1.61-.66-2.42-.1-.9.62-.67,1.13-.01,1.93.55.66-.12,1.42-.88,1.34-.89-.1-2.04-.33-2.54-.94-.97-1.19-2.4-1.32-3.52-2.08-.25-.17-.56-.33-.85-.35-2.12-.14-2.12-.13-1.94-2.21,1.19.15,1.99.97,2.87,1.64.33.25.58,1.09,1.15.37.44-.56.11-1.05-.41-1.42-1.15-.82-2.17-2.23-1.05-3.17,1.37-1.15,2.01-2.12,1.78-3.88-.05-.4.82-.77,1.32-.12,1.43,1.87,3.82,2.25,5.51,3.5,1.68,1.24,3.9,1.63,5.22,3.45.82,1.13,1.76.84,2.46-.44.41-.75,1.08-1.41,1.98-.96,1.18.6.59,1.54.19,2.37.41.29,1.06.32,1.24.08.94-1.29,2-1.35,3.26-.58.02.01.1-.06.15-.09.99,2.26,3.3.24,4.67,1.44.35.31,1.01.62,1.51,0,.55-.67.02-1.01-.41-1.37-1.09-.9-1.27-2.58-2.54-3.22-1.27-.64-2.75-.69-4.3-.84.47,1.1.33,2.21-.72,2.32-.76.08-2.06-.1-2.26-1.44,0-.06,0-.14-.04-.18-.53-.73-.29-2.14-1.31-2.27-1.06-.14-1.09,1.31-1.28,1.92-.8,2.5-2.34,1.06-3.45.71-1.33-.41-1.57-1.33-.55-2.59.43-.53.41-1.5.87-2.29.87,1,1.05,2.45,2.42,3.1.18-.72-.2-1.22-.6-1.63-.62-.63-1.01-1.06-.31-2.02.56-.77-.8-2.23-2.24-2.37-.81-.08-1.68.19-1.37-1.15.03-.12-.31-.35-.51-.49-2.26-1.56-4.53-3.11-6.91-4.73-.19.75-.59,1.34.22,1.88.37.24.38.63.07.98-.34.38-.67.37-1.16.19-1.58-.57-2.83-1.95-4.79-1.69-.41.05-1.3-1.37-1.45-2.2-.17-.95-1.72-1.65-.77-2.64.74-.78,1.64.46,2.55.4.28-.02.57.22,1.12-.22-2.06-1.48-3.31-3.94-6.07-4.22-1.84-.19-2.71,1.61-3.84,2.56-1.64,1.38-4.17,1.34-5.12-.76-.22-.49-.52-.82-.93-.72-2.19.57-3.32-1.25-4.89-2.07-.27-.14-.62-.52-.78-.45-2.29,1.08-2.52-1.43-3.72-2.19-.57-.36-.42-1.13.39-1.44,1.1-.41,2.2-.32,3.32-.06.49.12.96,1.48,1.5.06.16.06.45.1.47.19.53,2.78,1.98.88,3.27.54-2.28-.19-2.24-1.74-1.86-3.18.31-1.2-.12-1.72-1.03-2.26-2.67-1.57-5.65-2.38-8.49-3.51-5.24-2.08-10.53-4.03-15.81-5.99-1.4-.52-2.87-.86-4.32-1.28-.23-.06-.68-.11-.69-.08-.66,2.68-3.45,1.52-4.91,2.74-1.29,1.08-2.04.17-2.32-.94-.24-.95-.54-2.04.15-3.15-1.89.12-3.42,1.61-5.32.9-.37-.14-.56.45-.71.76-.38.77-.51,1.7-1.74,1.62-1.21-.08-1.43-.92-1.59-2.1,0,2.28-1.74,2.08-2.91,2.55-.73.3-1.11-.24-1.52-.77-.66-.86-.71-1.99-.67-2.84.06-1.28.3-2.15-1.41-2.23-.43-.02-.73-.8-.39-1.25.31-.41.86-.86,1.44-.47.55.38.89.47,1.05-.28.39-1.77.78-3.5,3.47-1.46-.99-1.44-.43-2.73-1.03-3.84-.4-.74.55-1.47.88-1.23,1.32.96,3.56-.08,4.29,2.17.29.92,1.27,1.48,2.23,1.9.91.4,1.57.46,1.88-.66.43-1.55,1.77-1.31,2.73-1.1,1.36.29.99,1.3.42,2.19-.21.32-.14.63.28.69,1.74.24,1.89,1.75,2.33,2.99.11.3.03.67.5.55.36-.1.54-.47.36-.74-.7-1.01-.04-2.55-1.41-3.32-.68-.38-.5-1.1-.08-1.65.55-.69.99-.31,1.56.12,2.85,2.13,5.08,4.74,6.22,8.15.33,1,1.22,1.05,1.92,1.29,4.83,1.69,9.73,3.2,14.53,4.99,2.04.76,4.23,1.01,6.19,2,.3.15.6.27.86,0,.36-.36.36-.85.1-1.22-.87-1.21-1.2-2.59-1.54-4-.12-.51-.43-.93-1.03-1.23-1.97-.95-3.16-2.65-3.96-4.65-.11-.29-.18-.61-.19-.92-.03-2.38-.02-2.38-2.24-1.73-.97.28-3.88-1.84-4.09-3.04-.09-.48.06-.98-.23-1.44-.32-.51-.16-.92.36-1.27.5-.33.88-.27,1.35.07,1.71,1.24,1.72,1.22,4.62,1.54-1.41-.99-1.07-2.84-3.1-2.78-.69.02-.99-1-1.05-1.81-.07-.98-.25-1.91-1.5-2.04-.32-.03-.56-.12-.66-.52-.33-1.27-.91-1.98-2.19-.83-.15.13-.5.16-.71.09-1.8-.66-1.77.72-1.73,1.72.11,3-1.4,4.39-4.34,3.87-.54-.09-.62-.39-.82-.82-.82-1.71-1.61-3.4-.94-5.36.1-.3.12-.65-.2-.85-.33-.21-.55.06-.79.27-.86.7-1.43,1.55-1.57,2.67-.04.31-.17.65.16.84.52.31,1.72.64.73,1.23-.79.47-2.15,1.3-3.24.15-.33-.35-.66-.82-.74-1.28-.16-.82-.36-.95-1.23-.7-1.15.32-1.53-.68-1.1-1.46.5-.92.04-1.58-.19-2.29-.18-.55-.58-1.35-1.12-.12-.44.99-1.25.7-1.6.09-.64-1.1-.96-.86-1.47.05-.27.49-.81,1.06-1.35.7-.71-.47-.14-1.21.16-1.66.82-1.26,1.96-1.34,3.29-.72.64.3,1.7,1.06,1.29-.79-.24-1.11.77-1.1,1.52-1.05.67.05,1.34.44,2.01.03.4-.24,1.22-.31,1.01-.88-.3-.81-.87.16-1.11.08-1.62-.54-3.06-1.35-4.98-1.23-.82.05-.86-3.99.97-4.36,1.11-.22,1.6-.89,2.01-1.74.34-.72.46-1.45,1.53-1.65.76-.14,1.23-2.98.59-3.74-1.14-1.36-.83-2.98-1.03-4.5-.14-1.01.49-1.48,1.56-1.13.74.24,1.55.79,2.22-.39-.93.11-1.82.11-2.65-.3-.22-.11-.47-.15-.71-.23-.7-.23-.96,1.33-1.47.6-.57-.81-.67-2.12-.58-3.01.11-1.03,1.55-1.53,2.56-2.12-.79-.53-1.3-1.22-1.53-2.12-.2-.79.13-1.21.87-1.37.75-.16,1.4.26,1.38.89-.1,2.28,1.34,1.26,2.75,1.39-1.47-1.12-2.47-2.1-3.05-4.03,2.08,1.06,3.67,2.05,4.77,3.62.59.84,1.3,1.53,2.02,2.17.8.72,1.88.9,2.45-.41.45-1.03.65-.7,1.2-.04,1.45,1.76,2.81,1.87,4.36.48.5-.45.92-.17,1.37.03.51.22,1.09.64,1.35-.23.16-.55-.08-.97-.74-1.05-.96-.12-1.38-1.07-2.19-1.52-1.15-.64.23-2-.28-3.1-.22-.47.77-.09,1.16-.18,1.3-.31,0-1.78.99-2.52.31-.23.49-1.67.61-2.53.16-1.2.16-2.7-1.72-2.86-.47-.04-1.06.08-1.26-.57-.18-.58-.66-1.31-.17-1.76.74-.67,1.3.37,1.97.58.01-1.46-.35-1.86-1.89-2.03-.75-.08-1.49-.08-2.1-.64-.34-.32-.76-.8-.39-1.1.76-.63.55-1.23.49-2.06-.08-1.08.91-1.34,1.71-.76.66.48,1.31.96,2.03,1.32,1.09.53,2.18.62,3.14-.25.64-.57,1.32-.83,2.02-.28.68.53.34,1.05,0,1.76-.42.87-.24,1.96.96,2.38.94.33,1.9.55,2.83.55.11-.62-2.6-1.29.16-1.83.44-.09,0-.86-.33-1.05-1.86-1.06-2.6-3.85-5.39-3.49-.59.07-.94-.47-.91-.99.05-.8.02-1.47-.46-2.22-.47-.73.08-1.19.91-1,.52.12,1.01.41,1.52.62q-.16-2.45,4.18-3.18c-1.2-1.35-.78-2.62.22-3.77.48-.55,1.47-.93,1.18-1.73-.3-.82-1.33-.41-2.03-.55v.02c.6-.54,1.61-.35,2.04-1.22.17-.34.64-.44,1-.2.96.65,1.88,1.11,2.7-.2.05-.09.33-.1.48-.06,2.47.68,2.74.45,2.52-2.06-.05-.52-.37-.73-.74-.49-1.53.98-3.32-.93-4.79.45-.03.03-.17.02-.18,0-.46-1.96-2.66-1.63-3.66-2.81-.77-.91-1.16-1.22-2.37-.32-.96.72-2.83,1.14-3.81.67-1.53-.74-1.56-2.74-1.37-4.33.11-.97.08-1.63-.61-2.35-1.36-1.45-1.91-4.76-.49-5.79,1.48-1.07,1.48-1.35.08-2.17-.08-.04-.07-.39.01-.52.22-.36.53-.16.83-.07.47.15,1.33.71,1.19-.26-.09-.6.72-1.75-.66-2.02-1.42-.29-1.24-.97-.34-1.75.19-.16.4-.38.62-.41,2.51-.26,5.06-.69,7.39.72.74.45.35.82-.23,1.01-.69.23-1.4.39-2.24.63.63.63,1.31.88,1.5,1.62.1.38-.32,1.21.63.99.68-.16.83-.76.72-1.35-.21-1.12.14-1.85,1.27-2.12,1.25-.3,2.17-.04,2.12,1.49-.02.74-.1,1.84.36,2.02.72.29,1.48-.19,1.56-1.26.03-.38.56-.33.96-.24,1.94.45,2.73,1.48,2.89,3.5.04.53-.28,1.5.59,1.55.67.04,1.32-.58,1.39-1.33.16-1.82.07-3.66.79-5.42.18-.43.24-1.51-1-1.14-.37.11-.75-.3-.77-.67-.04-.9-.54-1.11-1.32-1.24-.65-.11-.79-.86-.33-1.11,1.12-.59-.74-3.3,1.74-2.55,1.13.34,1.6.2,2.08-.72.17-.34.42-.7.87-.53.41.16.85.43.72.96-.29,1.13.18,1.67,1.21,2.08.51.21.89.81,1.2,1.39.27.51.86.76,1.46.56.68-.23.44-.82.57-1.35.41-1.71-.04-3.27-.21-4.92-.11-1.01.71-2.51,1.58-3.16,1.41-1.04,2.82-2.8,2.8-4.4,0-.62-.99-1.32-.06-1.83.78-.43.89.78,1.43.88,1.21.24,2,1.3,3.11,1.59,1.07.28.9,2.08,2.34,1.68.02-.11.09-.31.07-.32-2.04-1-1.66-3-1.88-4.72-.04-.34.18-.78-.14-1.04-2.45-1.98-3.47-5.2-6.15-7.02-.91-.62-1.16-2.02-2.56-2.3-.94-.19-1.96-.42-2.76-.71-1.01-.36-3.55.17-2.8-2.5.12-.42-.44-.69-.9-.78-.03,1.77-1.19,3-2.89,3.08-.33.02-.84-.13-.75-.35.61-1.49-.99-3,.02-4.4.68-.93-.31-.86-.58-1.19-.44-.54-1.85-.72-1.33-1.44.4-.55,1.09-1.35,2.08-1.56,1.64-.34,3.11-.64,4.63.58.87.7.78-.38.67-.84-.29-1.15.06-1.71,1.27-1.62.06,0,.13.04.18.03.91-.12.46-1.49,1.47-1.57.98-.07,1.84,1.33,1.95,1.12.54-.99,1.95-.81,2.26-1.87.15-.53.25-1.11.9-.83.62.27.25.57-.11.95-.52.56.2.49.46.57.76.23,1.6-.15,2.33.28,0,.11.01.18-.01.23-.45.78-2.15.56-1.77,1.82.34,1.17,1.68,1.45,2.74,1.73.77.2,1.28.46,1.8,1.11.99,1.24,2.3,1.57,4.15.48-.63-.46-1.08-1.08-1.52-1.07-1.28.02-1.26-1.27-2.01-1.75-.53-.34-.42-.89.02-1.28.49-.44.85-.16,1.26.25,1.78,1.83,3.23,2,5.39.52-2.06-.6-3.94-1.15-6.09-1.78.89-.39,1.39.02,1.92.13.79.17,1.55.54,2.38.38,1.04-.2,2.44-.35,2.27-1.67-.1-.79-.74-1.85-2.26-1.81-1.44.03-1.81-1.31-1.51-2.67-1.93.04-3.74-1.76-3.44-3.83.26-1.82-.56-2.01-1.92-2.01-1.06,0-1.87-.02-.78-1.41.62-.8-.97-1.46-.62-2.55.16-.48-.87-1.18.1-1.75.79-.47,1.45-.16,2.05.36.73.63,1.3.33,2-.14,1.54-1.03.04-2.11.12-3.16.03-.33-1.01-.5-.4-.86.68-.41,1.02-1.68,2.21-1.07,1.06.54,2.23.75,3.32,1.24.88.4,2.33,1.09,2.78-1.04-.99.11-2.53,1.03-2.35-.74.09-.89.44-1.97.97-2.8-.38-.35-.65-.27-.96-.14-.89.38-1.86.32-2.42-.4-.68-.87-.45-2.08-.49-3.14-.02-.48.47-.53.87-.42,2.43.69,4.97,1.03,7.2,2.29.84.47,1.4.65,1.09-.58-.24-.95.46-.97,1.07-1.33-.66-.29-1.21-.53-1.75-.76,1.46-.22,2.88-.27,3.97-1.47.31-.34.91-.15,1.27.37.53.77,1.13,1.5,1.74,2.21.71.82,1.15,2,2.53,1.97.29,0,.45.14.59.38.24.42-.57,1.45.39,1.24.59-.13,1.27-1.06,1.26-2.05,0-.56-1.1-1.07-.19-1.6.9-.52,1.43.44,2.13.81.84-.9-.54-1.41-.34-2.27.89-.3,1.12,1.15,2.06.85.38-.12.89.11,1.21-.3.35-.44.08-.82-.2-1.18-.53-.66-.86-1.13.46-1.15.61,0,.87-.76.8-1.32-.19-1.52.8-1.68,1.86-1.67,1.28.02,2.51-1.26,3.9.02.42.38.78-1.92,2.05-.36-.14-1.22-.9-1.78-1.29-2.54-.28-.55-.7-1.41-1.68-.65-.33.25-.88.24-1.21-.15-.39-.46-.03-.72.28-1.08.97-1.14.18-2.01-.65-2.68-.93-.75-1.19-1.23-.1-2.14.79-.66,1.77-1.39.54-2.88-1.3-1.56.88-1.94,1.59-2.7,1.09-1.18,1.49.36,2.14.82.09-.08.23-.13.23-.2.02-.86-1.06-1.81-.04-2.55,1.05-.76,1.81.39,2.41.91,1.73,1.51,3.96.58,5.84,1.43.95.42.74-.78.69-1.42-.04-.49-.86-1.12-.5-1.25,2.24-.8.77-2.55,1.11-3.81.48-.45.74-1.33,1.5-1.21,2.07.32,1.33-.66.8-1.59-.2-.36-.12-.71.02-1.06.55-.06,1.26.68,1.64-.2.26-.62.1-1.32-.53-1.64-.9-.46-1.38-1.24-.65-1.91.67-.62.44-3.04,2.42-1.54.39.29.4.1.34-.16-.2-.9.67-1.29.9-1.99.49-1.46,1.8-1.12,2.55-.65.65.4,1.35.82,1.98,1.31,1.78,1.38,1.77,1.63-.1,2.9-.49.33-.54.78-.23,1.11.59.61.71,1.9,1.86,1.69.31-.06.53-.03.82-.04,1.93-.04,2.25-.47,1.78-2.42-.14-.56-.22-.94.32-1.28.47-.3.95-.48,1.34.03.89,1.14,1,.18,1.23-.44.34-.93.21-1.86-.08-2.75-.19-.57-.1-.98.4-1.29.48-.3.79-.01,1.14.3.64.59,1.26,1.21,1.99,1.67,1.32.83,1.62,1.58.16,2.26,1.34,1.77,2.66,3.47,4.26,4.94.57.53-.13,1.11-.85,1.21-.44.06-1.08.1-.89.65.21.61.71,1.24,1.4,1.38.58.12.64-.45.69-.9.15-1.31,2.03-2.09,1.12-3.73-.08-.14.01-.39-.07-.53-.32-.53-.82-1.03-.09-1.62.77-.62,1.19.11,2.02.77-.38-3.11-2.91-4.64-3.5-7.23,1.23,1.51,2.46,3.01,3.83,4.7.72-1.66,1.35-3.1,1.98-4.55.33,1.6-.83,2.91-.66,4.55,1.48-.12,1.74-1.63,2.75-2.17.4-.21,3.47-.05,3.61.34.12.33.12.75.03,1.09-.15.57-.65.56-1.07.39-.82-.33-1.69-.2-1.94.54-.28.84.78,1.12,1.29,1.61.04.04.11.06.16.09.83.47,2.41.43,2.28,1.54-.13,1.1-1.63,1.4-2.69,1.73-1.47.45-1.6.73-.46,2.04.93,1.05,2.29,1.38,3.08,2.52.29.42.9.28,1.51-.11-1.07-.99-1.85-2.02-1.92-3.49-.03-.61-.13-1.09.44-1.46.67-.43,1.15-.11,1.65.35.59.54,1.21,1.07,1.87,1.52.47.32,1.12.52.97,1.2-.13.61-.72.8-1.32.88-.24.03-.46.17-.69.25-.16.8.69.84.88,1.34.17.43.45.89-.36.88-.38,0-.87-.53-1.03.23-.12.54.11,1.04.59,1.28,1.93.95,1.39,2.43.91,3.94-.58,1.78.94,1.74,1.95,2.46,0-.94-1.17-1.44-.18-2.21.87-.67,1.24-.17,1.82.44.5.53,1.32.85,1.77-.25.05-.11.11-.27.21-.31,1.11-.49,2.52-.6,2.11-2.55-.1-.46,1.09-.35,1.79-.19,1.41.33,1.91-.23,1.47-1.62-.33-1.05-.78-2.06-.82-3.23.65,1.4,1.28,2.81,1.98,4.18.16.32.38.93.93.59.35-.22.31-.6,0-.97-.39-.45-.3-1.27.25-1.11,1.55.45,1.99-.85,3.2-1.64-2.3-.16-2.1-1.01-1.23-2.48.51-.85-.85-2.08.1-3.26.77.78,1.79.47,2.75.48,1.56.02,1.97.48,1.16,1.69-.69,1.02-.7,1.75.14,2.64.77.82.76,1.92.76,3.17,1.02-.61,1.19-1.68,1.73-2.45.42-.6.92-.94,1.26-.26.89,1.77,2.06,1.35,3.34.57.2,1.28-.22,2.27-.67,3.32-.38.88.15,1.41,1.15,1.34.58-.04.98.17,1.01.82.03.59-.1.94-.74,1.3-1.87,1.05-4.17.8-5.93,2.05-1.44,1.02-3.53.72-4.65,2.42-.59.91-1.59-1.01-2.24.2-.49.91.81,1.36.58,2.23-.11.41-.33.68-.68.84-.94.43-1.48.96-.74,2.02.09.14-.01.62-.12.66-2,.72-1.82,2.94-3.25,4.43,1.34-.29,2.37-.48,3.41-.28.43-.71-.88-1.46.02-2.01.48-.29.58.51.92.73.07-.08.18-.15.19-.23q.25-2.54,2.6-1.25c.15.08.34.11.65.21,0-.84-.64-1.73.57-2.26,1.16-.51,1.42.43,1.97.91.71.61,1.39,1.26,2.08,1.9.32.3.81.63.67,1.07-.92,2.97,2.25,3.16,3.28,4.81.32.51,1.57.48,1.93-.63.17-.52.52-.82.96-1.1,1.11-.72,1.33-1.51.02-2.25-.72-.41-.78-.99-.42-1.59.37-.62.68-1.29.61-1.94-.13-1.2.21-1.64,1.42-1.4.49.09.85-.08.8-.72-.08-1.06.73-1.39,1.46-1.21.74.18,1.86.07,1.98,1.34.17,1.66.66,3.29-.11,4.98-.6,1.31.02,2.97-1.02,4.24-.16.19-.17.75-.02.9,2.03,1.94.45,3.94.02,5.84-.26,1.16.78.91,1.06,1.44.32.59.75.19,1.03-.17.4-.49.44-1.03.05-1.56-.36-.5-1.5-.74-.84-1.56.57-.71,1.39-.76,2.32-.14.86.57,2.52-.91,2.41-2.06-.06-.55-.23-1.11-.45-1.63-.23-.54-.98-1.06-.19-1.6.76-.52,1.02.42,1.49.74,1.58,1.08,2.41,2.35,1.17,4.24-.23.34-.51.84-.09,1.21.44.39.82-.06,1.16-.28.82-.54,1.57-1.48,2.47-.11.31.47.64.15.94-.09.32-.25.68-.37,1.03-.1.4.31.18.7,0,1.01-.64,1.07.32,1.51.87,1.9,1.14.8.88,1.6-.08,1.95-1.81.66-3.67,1.77-5.66.42-.46-.31-1.03-.41-1.37.03-.52.67.21,1.02.6,1.32.93.74,2.05,1.13,3.21,1.37.56.12.86.42.93,1.01.08.68-.36.98-.86,1-1.22.03-1.39,1.31-1.23,1.68.46,1.07.59,2.53,2.04,2.92.55.15.9-.24.9-.69.01-.82.01-1.52,1.08-1.62.72-.07.86.53.99.94.35,1.13-.91.92-1.33,1.43q1.1.84-.02,1.88c1.47-.35,2.6.62,3.92.22.33-.1.71.2.81.63.11.44.13.8-.29,1.17-1.25,1.11-2.66,2.03-4.01,2.93-1.21.81-2.59-.37-3.6-1.25-1.88-1.63-3.23-1.74-5.57-.23.25.52.68.68,1.23.62,1-.11,1.24.7,1.12,1.31-.13.65-.87.67-1.38.3-.48-.35-.82-.29-1.08.17-.39.7.44.56.63.86.9,1.35,2.36,1.49,3.75,1.8.29.07.77.22.83-.1.32-1.57.91-.38,1.35-.14.86.46,1.68,1,1.02,2.19-.67,1.2-1.49.33-2.25.07-.46.76-.15,1.54-.29,2.26-.18.95.46,1.67,1.55,1.34.64-.2.95.1,1.28.47.21.23.38.64.13.86-1.69,1.46.18,2.06.72,2.92.22.35,1.02.34.81,1.04-.19.61-.69.85-1.32.81-.29-.02-.65-.25-.81.15-.16.4.06.73.38.97.2.15.43.25.63.41,2,1.61,2.38,4.27.78,6.42-.49.66-.31,1.48-.82,2.05-.47.52-.02.81.25,1.08.42.42.6-.13.88-.31,1.27-.84,2.56-.52,3.83-.02,1.22.48.9,1.46.77,2.39-.05.37.08.79-.05,1.11-.45,1.12-.16,1.71,1.08,1.7,1.31-.01,1.1,1.24,1.4,1.91.31.7-.53.77-1.09.79-.8.04-.58.68-.63,1.13-.07.66.35.79.84.57,1.17-.52.69,1.73,2.08,1.2.33-.13,1.29,1.01,2.26.73-.04,1.89,1.57.49,2.24,1.11.45.41.61.73.44,1.28-.21.66-.6.94-1.28.65-.8-.33-2.03-.8-2.22.17-.2,1.02,1.14,1.71,2.1,1.68,1.13-.04,1.31,1.03,2.1,1.28-.48.09-1.05.07-1.14.74-.16,1.21-.55,1.9-1.96,1.23-.5-.24-2.32,2.41-1.97,2.9.99,1.37.17,2.09-.9,2.65-1.26.65-.78,1.38.02,1.75,1.61.74,1.12,1.36-.14,2.19,1.01-.43,1.12,1.53,1.91.53.5-.63,1.51-1.6.09-2.51-.48-.31-.53-1.2,0-1.14,1.56.18,2.09-1.5,3.4-1.62-.82,2.57,2.86,5.59,5.44,6.05.42.07.85.1,1.41.17-1,.94-2.2.58-3.23.84-1.31.33-2.59.54-2.36,2.46.11.89-2.62,2.99-3.56,2.68-.86-.29-1,.15-1.26.64-.23.43-.62.89-.32,1.4.41.68,1.02.24,1.53.12,2.8-.65,5.63-1.14,8.29-2.33,1.51-.68,2.37-2.02,3.57-2.99.43-.35.25-.57,0-.91-.3-.41-.53-.9.06-1.3.45-.3.97-.47,1.37-.04.64.68,1.06.27,1.56-.16,1.33-1.14,3.38-2,3.89-3.42,1.06-2.94,4.65-3.07,5.61-5.91.3-.89,1.39-1.11,2.28-.81.81.28.48,1.01.3,1.61-.16.54.14.96.6.96,1.36-.01,2.72-.12,4.08-.27.43-.05.76-.41.85-.9.04-.21.14-.69.22-.54,1.05,1.77,2.58-.65,3.69.45-.27.82-1.34.64-1.69,1.39.7,1.07,1.9,1.29,3.15,1.68-.7.48-1.22-.06-1.73.08-.62.17-1.26.32-.38,1.03.31.26.92.43.41.97-.27.28-.8.34-1.04.07-.76-.86-1.55-.51-2.41-.26-.33.1-.77.09-1.08-.05-1.67-.77-3.2.28-2.84,2.21.25,1.32.17,1.99-1.24,2.27-.96.19-1.71,1.45-2.88.51-.78-.62-1.37-.04-2.02.38.51.49,1.34.83,1,1.65-.29.69-1.07.41-1.65.56-2.13.57-4.31.24-6.44.47-1.68.18-3.28.99-4.94,1.45-1.97.54-3.93,1.22-5.9,1.81-1.08.32-1.64.83-.39,1.73.25.18.42.45.66.64,1.34,1.04,2.01,2.01-.47,2.93,2.04-.45,3.71-.07,5.31.7.97.46,1.76,1.67,3.04.62.07-.06.34.09.5.19q2.72,1.69,4.32-.9c.26-.42.56-.83.83-1.25.35-.55.92-.84,1.44-.53.65.39.14.85-.21,1.21-.23.24-.48.52-.09.74.48.27,1.02.53,1.54.56.37.02.91-.31.71-.89-.56-1.64,1.7-1.64,1.66-2.95.76.39,1.63.66,2.25,1.2.81.71,1.56.77,2.33.17,2.44-1.86,4.22.02,6.13,1.06.45.25.75.79,1.55,1.69-3.75-.98-6.21,1.55-9.25,1.76-.7.05-1.64.4-1.64,1.24,0,.7.91.6,1.49.81,1.45.52,2.47,1.8,3.93,2.41.7.3,1.36.81,2.09,1.16.79.39,1.9.79,1.66,1.99-.23,1.14-.21,2.48-2.11,2.48-2.57,0-5.08.93-7.68.75-.34-.02-.63-.07-.8.27-.17.35-.26.86.05,1.05.7.42.73,1.15.99,1.76.41.95-.44,1.18-1.05,1.43-.54.23-1.04.12-1.01-.62.07-1.51-1.3-1.08-1.68-.89-.76.38-.98,1.86-.58,2.09.87.49.43.76.09,1.06-.5.44-1.21,1.21-1.76.55-1.53-1.82-1.12.03-1.22.78-1.15-.57-.75-1.63-1.1-2.37-.69.21-.78.73-.87,1.32-.24,1.59-1.71,1.59-2.8,2.06-.29.13-.77-.08-.74-.38.18-2.02-.48-1.65-1.49-.59-.87.91-1.5-.88-2.04-.35-.77.76,1.01,1.19.57,2.08-.28.55-2.29.63-2.89.12-1.66-1.39-3.52-.76-3.78,1.43-.13,1.05-.44,1.35-1.43,1.5-1.29.19-3.45,2.75-3.35,3.91.09,1,.86.84,1.58.67,1.05-.25,2.64-1.09,1.36,1.29-.41.76.75,1.8,1.63,1.58.34-.08.63-.44,1.11-.1-.63,1.16-1.95,1.67-2.59,2.83-.4.72-.66,1,.24,1.66,2.28,1.67,2.11,2.2.92,4.88-.35.79-1.21,1.91-.54,3.2.15.28.23.55.47.48.94-.26,1.02-1.45,2.04-1.82,1.18-.43.54-1.52.15-2.22-.61-1.1.15-1.13.83-1.25,1.24-.23,2.13.4,3.03,1.15.63.53,1.1,1.36,2.19,1.25.83-.09,1.77.55,1.64-1.21-.06-.82,1.15-1.76,1.85-2.58.39-.46.93-.39,1.3.08.73.94,1.39,1.3,2.41.27.58-.59,1.54-.07,2.32-.19.35-.06.65.6.65,1.03,0,.6-.39.89-1.02.77-1.5-.27-.65,1.39-1.44,1.74-1.66.73-.31,1.19.17,1.74.65.75.52,1.24-.51,1.36-.25.03-.52.01-.74.11-.54.23-1.44-.09-1.59.71-.16.88.67.99,1.29,1.32,1.16.61,1.64,2.53,3.5,1.78-.22.95.16,1.48,1.1,1.66.94.18,1.73.43,2.31-.83.44-.97,1.36-2.08,2.62-.16-.49-1.71.55-1.91,1.58-1.93,2.23-.06,2.99-1.13,2.08-3.08-.21-.46.02-.74.41-.87,1.41-.47,3.36,1.3,3.17,2.82-.14,1.14.14,2.42-1.54,2.77-.62.13-.24.99-.45,1.5-.49,1.25-.75,2.63-2.64,2.08-.22-.06-.54.22-.83.35.2.74.69.67,1.2.64.93-.06,1.87-.11,2.8-.07.67.03.96.56,1.02,1.16.07.67-.52.59-.91.67-.72.16-1.41.45-2.2.33-.73-.1-1.19.52-1.36,1.09-.19.65.55.76.97.9,1.43.49.9,1.36.11,1.62-1.72.57-2.97,2.32-5.04,1.98-.42-.07-.77.29-.8.66-.09,1.2-.11,2.36-1.59,2.8-.24.07-.18.84.16.98,1.01.44.85,2.28,2.42,1.99.43-.08.86-.21,1.29-.23.62-.03,1.09.3,1.33.87.24.57-.13.96-.48,1.33-1.53,1.62-1.5,2.24-.24,3.99,1.23,1.71-1.08,1.08-1.37,2,2.9.28,5.75.14,8.47-.81,4.37-1.53,8.69-3.21,13.04-4.8,1.29-.47,2.63-.81,3.94-1.24,1.73-.57,2.15-1.73,1.15-3.21-.24-.35-.39-.66-.24-1.02.47-1.13.04-2.07-.57-2.99-.48-.74-.6-1.56-.1-2.31.52-.77,1.34-.67,2.22-.29-.14-.79-.26-1.4-.36-2.01-.29-1.76-1.34-2.21-2.9-1.28-.44.26-.83,1.06-1.4.54-.47-.43.08-1.04.22-1.56.46-1.71,1.02-2.02,2.79-.98,1.12.66,1.92.88,1.74,2.3-.06.46.29.63.74.6.66-.05,1.17-.19,1.37-.99.49-1.93.52-3.96,1.59-5.78-.41,2.35-.78,4.71-1.22,7.06-.36,1.91-.81,3.8.21,5.67.6,1.1-.8,1.92-.51,3.1.74-.09,1.06-.78,1.58-1.15.87-.63,1.68-.87,2.45.1.57.71,1.35.92,1.96.34.88-.85,2.04-1.12,3.01-1.75-.08-.19-.1-.32-.17-.4-.54-.56-2.08.63-1.82-.66.16-.78,1.94-.84,2.83-.51,1.26.46,1.83-.05,2.5-.9,1.11-1.4,1.13-2.79-.06-4.13-.33-.38-.83-.73-.5-1.28.34-.56.96-.33,1.35-.09,1.12.69,2.62,1.01,2.77,2.75.08,1,.92,1.24,2.08,1.41-1.03.41-2.63-.05-1.85,1.8.25.58-.78.82-1.25.55-1.88-1.07-2.82.69-4.15,1.28-.23.1-.39.31-.33.61.06.3,3.12,2.43,3.43,2.32.48-.17.89-.13,1.17.28.36.52.1,1.14-.28,1.34-1.33.68-.23,1.17.14,1.5,1.13,1.01,1.39,1.18-.13,2.58-2.15,1.98-4.89,1.4-7.24,2.93,1.59.95,3,1.85,4.45,2.66,1.69.95,2.34-.88,3.44-1.44.45-.23.71-.97,1.36-.73.66.25.13.9.29,1.32.42,1.11-.09,2.54,1.26,3.37.38.23-1.25,2.55-2.02,2.8.36.69.99.34,1.49.4.55.06,1.12.01,1.73.22-2.27-.35-3.81,1.03-5.53,2.06-.73.44-1.67.53-2.56.3-1.07-.28-1.65.18-1.9,1.19-.32,1.27-1.18,2.14-2.33,2.5-1.56.49-1.23,1.58-.89,2.5.51,1.36.95,2.87,2.6,3.44.33.11.63.47.53.9-.14.65-.81.45-1.18.66.96,1.73,3.29,2.29,3.67,4.55.09.57.22.96-.34,1.25-1.67.86-3.37,1.06-5.04.04-1.17-.71-1.89-1.65-.96-3.1-2.4.06-3.04-.87-3.62-2.83-.6-2.02-1.72-3.99-3.5-5.36-1.56-1.2-3.18-2.33-4.97-3.19-.37.48-.8,1.01-1.2,1.55-.44.59-.72,1.41-1.64,1.3-.33-.04-.25-.5-.24-.81.02-.9-.37-1.95.94-2.33.35-.1.69-.26,1.1-.42-.85-1.38-1.92-1.66-3.35-1.25-4.76,1.35-9.52,2.69-14.31,3.91-1.27.32-1.83,1.18-2,2.16-.17.97.68,1.7,1.56,2.05.81.32,1.36,1.21,2.33,1.1.82-.09,2,.65,2.12-1.12.04-.66.97-.73,1.74-.45,1.13.4,2.06.56,3.4-.25,1.03-.63,2.95-.16,4.46-.45.09-.02.3.24.35.4.12.47-.29.43-.56.55-.61.29-1.73.13-1.43,1.29.24.95,1.16.77,1.9.81.06,0,.13,0,.19,0,4.3.03,3.12.21,2.74-3.24-.07-.63-.44-1.19.28-1.63.69-.43,1.02.1,1.4.51.12.13.28.25.44.33,1.05.5,2.06,1.61,1.44,2.39-.71.9-1.25,2.55-3.14,2.22-1.38-.24-2.83-.05-4.31.13,1.58.6,2.64,1.59,3.34,3.73-1.72-1.37-3.48-.86-4.99-1.66-.96-.51-2.3-1.23-2.75.74-.11.49-.45.33-.72.17-.45-.27-.86-.33-1.07.23-.17.46.25.64.54.86.3.22.6.44.89.67.41.33,1.21.43,1,1.17-.17.6-.92.48-1.33.72-2.12,1.26-2.85.39-3.08-1.7-.05-.47-.42-.95-1.02-.96-.23,0-.57.06-.67.21-.37.55.25.72.49,1.04.5.66.25,1.65,1.16,2.19.52.3.02.78-.45.88-.44.09-.69.18-.6.71.08.49.4.67.79.6.95-.17,1.49.34,2.08.96.71.75,1.65.24,2.49.3.96.07,1.32-.04,1.33-1.16,0-.6.84-1.15,1.61-.55.87.68,2.17,1.04,2.03,2.58-.07.73.6.72,1.07.74.59.02,1.2.14,1.48-.75.33-1.02.67-2.3,2.11-2.18,1.58.13,3.06,1.82,3.27,3.49-2.42-.52-4.43,1.03-6.05,2.99-1.07,1.3-1.92,3.13-3.75,3.78-.47.17-1.13.55-1.43.21-1.66-1.95-3.14.4-4.74.29-.37-.03-1.51,1.62-2.91,1.96.51.73,1.01,1.19,1.52,1.71.68.69,1.38,1.68-.24,2.23-.84.29-.5.79-.36,1.35.48,1.99-.28,3.63-1.99,4.51-.39.2-.8.23-.96-.19-.9-2.36-2.85-1.81-4.58-1.61-1.51.18-3.66-.23-4.01-.86-.98-1.8-2.45-1.92-3.98-2.58-1.35-.58-2.03-1.51-3.37.07-.63.74-1.88-.49-2.92-.59-.65-.06-1.25-.52-1.88-.79-.78-.33-1.16.19-.87.75.72,1.35-.2,1.01-.86.96-.36-.03-.76-.25-1,.19-.23.43.23.67.34,1,.27.77,1.94.87,1.23,1.93-.57.84-1.9.94-2.88.9-1.09-.04-2.06.02-3.1.37-1.48.5-3.59-1.73-3.86-4.08-1.41.88-2.87,1.52-4.49,1.47-.84-.02-.91.57-1,1.09-.12.67-.26,1.22-1.09,1.27-.73.04-.9-.48-1.18-.99-.71-1.32-1.65-2.41-3.21-2.82.54.84,1.87,1.3,1.01,2.71-.12.2.23.78-.44.83-.51.04-.83-.22-.93-.72-.09-.44.13-1.03-.75-.95-1.98.18-3.06-1.08-3.93-2.63-.55-.98-1.27-1.55-2.44-.84-.74.45-1.25.19-1.65-.59-.76-1.49-1.64-2.49-3.67-1.73-1.59.59-3.21.33-3.59-1.95-.16-1-.73-.92-1.42-.28-.52.48-1.01,1.67-1.93.8-.67-.64-.77-1.56.28-2.21.4-.24.24-.67,0-.99-.27-.36-.52-.37-.94-.1-1.33.85-1.76-.11-2.05-1.16-.08-.29,0-.63-.08-.93-.53-2.15-2.83-3.31-4.59-2.32-.42.24-.43.59-.1.92.37.36.46.81.14,1.17-.33.36-.8.29-1.17-.06-.77-.73-1.25-.11-1.71.4-4.16,4.63-8.88,8.63-13.8,12.43-3.28,2.54-6.86,4.62-10.12,7.17-.79.62-1.33,1.23-1.3,2.32.34,12.48-.17,25.02,2.26,37.37.25,1.29.51,2.59.79,3.88.21.98-.09,1.33-1.14,1.35-4,.1-7.99-.39-11.98-.05-1.53.13-2.01-.5-1.67-2.15,1.74-8.24,3-16.54,2.99-25.01,0-4.46.17-8.92.37-13.37.07-1.53-.46-2.16-1.95-2.61-5.46-1.65-11.15-1.43-16.71-2.25-2.72-.4-5.52-.14-8.2-.92-.45-.13-.93-.18-.98.47-.04.58.59,1.33-.21,1.68-1,.44-2.09.92-3.14.9-1.01-.01-2.25.61-3.13-.59-.2-.28-.67.12-1.04.34.58.56,1.15,1.1,1.71,1.65.72.7,1.52,1.39,0,2.1-.11.05-.3.15-.29.2.08.69.25,1.54-.6,1.73-1.03.23-1.44-.89-2.03-1.44-1.85-1.75-1.8-1.81-.3-5.37-.59-.21-.75.31-1,.61-.91,1.08-1.86,1.71-3.42,1.2-.72-.23-2.13-.52-2.01,1.25.05.73-.75.78-1.25.93-1.96.58-3.41,1.67-4.47,3.5-.59,1.02-1.74,1.7-2.68,2.59.37.48.9-.01,1.33.15.37.14.76.25.75.71-.01.46-.45.66-.8.63-2.07-.15-2.27,1.5-2.67,2.85-.27.92-.73,1.77-1.59,1.88-1.08.14-2.32-.61-2.66-1.4-.43-1.01.16-2.3,1.1-3.1,1.54-1.32,1.55-2.04-.02-3.43-.5-.45-.89-1.05-1.27-1.62-.31-.46-.1-1.11.39-.74,1.28.96,1.49-.4,2.04-.82.74-.57,1.12-1.79,2.43-.98.35.22.57-.18.62-.48.07-.51-.33-.73-.71-.59-1.82.66-3.68,1.26-5.39,2.14-.88.45-.44,2.35.64,3.03.44.28.98.45.84,1.04-.13.53-.61.8-1.18.61-.83-.28-1.34.46-1.76.8-1.79,1.45-4.03.93-5.97,1.6-.52.18-1.02.46-1.5.75-.92.55-1.01,1.09.09,1.54.28.12.58.25.81.45.37.34.76.75.6,1.29-.2.66-.78.46-1.27.43-.49-.02-.98,0-1.64,0,.4.93.24,1.8.85,2.56.62.77-.08,1.59-.7,1.4-1.05-.32-2.28-.52-3-1.57-.27-.39-.47-.97-.11-1.2,1.1-.71.7-1.51.36-2.38-.68-1.71.45-3.02,1.54-3.65,1.6-.92,1.06-1.25-.02-1.87-.2-.12-.36-.31-.74-.66,1.8-.58,3.09.49,4.51.77,0-2.81-.05-3.01-3.46-2.22-4.14.95-8.2,2.27-12.29,3.44-.49.14-.78.45-.97,1.01-.63,1.91-.67,1.9-2.17.48-.13-.12-.3-.19-.48-.29-.66.41.07,1.65-1.06,1.74-.82.06-1.21-.37-1.55-1.08-.27-.56-.89-.36-1.35-.22-1.64.49-3.34.35-5.01.51-1.45.14-2.26-1.09-3.41-1.59-.67-.29-.81-.59-1.41.1-.87,1-1.68.68-2.02-.64-.57-2.21.05-3.61,1.95-4.42,1.87-.8,3.88-.28,4.89,1.28.67-1.48,1.51-2.65,3.42-2.02.12.04.25.07.37.05,2.43-.38,3.47.11,4.42,2.43.43,1.05.92,1.37,1.95,1.01.33-.12.82-.23,1.07-.07,2.53,1.61,4.79-.02,7.13-.57,1.22-.29,2.42-.64,3.6-1.05.43-.15.91-.13,1.13-.95.31-1.13,2.22-1.99.26-3.31.46-.43.95-.81,1.61-.84ZM247.47,221.12c2.64,1.81,3,4.04.89,5.56-.42.3-1.02.48-.63,1.07.37.57.99.17,1.32-.11,1.21-1.02,2.5-1.55,4.1-1.9,2.66-.57,5.22-1.65,7.86-2.43,6.45-1.89,11.19-6.75,16.74-10.2.47-.29.55-.72.52-1.29-.08-1.57-1.55-2.75-3.42-2.42-5.85,1.02-11.65,2.25-17.26,4.27-2.64.95-5.26,1.96-8.17,1.91-1.77-.03-3.55.25-5.44.41,1.03,1.58,2.15,2.75,3.71,3.42.45.19,1.01.34.93,1.01-.08.66-.81.38-1.16.7ZM177.45,250.71c-1,.15-1.41-.14-1.9-.54-.75-.6-1.95-1.33-2.88-.22-.65.77-1.43,1-2.26,1.4-1.09.53-2.26.39-3.33.96-3,1.6-5.77,3.54-8.53,5.48-2.86,2.02-5.75,4.18-4.47,8.49.1.35,0,.75.02,1.13.04.48-.19,1.1.3,1.39.53.32.91-.24,1.31-.5,4.92-3.23,9.69-6.68,14.27-10.37,1.77-1.43,4.24-2.6,3.35-5.82-.28-1.01.69-1.73,1.85-1.01.64.39,1.21.68,2.27-.4ZM24.88,186.53c1.29-.66,2.47-.59,2.89.49.5,1.28,1.43,1.31,2.36,1.24,1.35-.09,2.67-1.72,4.03-.02.19-.16.39-.31.58-.47,1.1-.97,1.81-.14,1.82.74.02,2.26,2.11,2.4,3.3,3.23.64.44,2.38.6,3.16.3,1.37-.53.16-2.21.54-3.34.02-.06,0-.13.02-.19.23-.87-.05-2.04,1-2.45,1.07-.42.91,1.17,2.06,1.39-.9-.93.52-2.69-1.65-2.82-.46-.03-.23-.65.04-.91.42-.39.9-.71,1.34-1.05-1.7-1.18-3.4-2.06-5.2-2.78-.73-.3-1.36-.76-1.66.49-.17.72-1.07,1.12-1.45.61-.89-1.2-.92-.26-1.39.27-.73.82-1.53,1.72-2.87,1.42-.97-.22-1.13-.98-1.26-1.9-.3,1.05-1.75,1.63-1.8,2.01-.22,1.7-.84,1.21-1.66.59-.51-.38-1.13-.94-1.64-.33-.85,1.01-1.98,1.84-2.57,3.48ZM130.19,265.16c3.92,4.24,9.39,4.18,14.29,5.64.54.16,1.07.17,1.26-.66.48-2.08-.1-3.71-1.95-4.78-2.38-1.38-4.8-2.68-7.21-4.01-.27-.15-.7-.38-.86-.27-1.38.96-2.75.02-4.14.06.13.73.32,1.49-.74,1.72-.72.15-.23.23.01.42,1.74,1.33.3,1.52-.68,1.87ZM70.36,219.42c-1.35-2.31-1.18-5.16-2.9-7.28-.79-.97-1.89-1.93-.86-3.49.2-.3-.2-1.37-1.15-.72-1.11.77-1.18-.22-1.22-.82-.04-.67.21-1.35.31-2.03.07-.47.3-1.08-.57-1.04-1.1.05-2.2.13-3.38.19.34.83.98,1.15,1.42,1.64.56.63.59,1.18-.31,1.61-1.67.81-1.72,1.86-.23,3,1.07.83,2.09,1.72,3.16,2.55.36.28.77.52.63,1.02-.12.46-.51.69-1,.73-1.53.13-1.71,1.14-1.57,2.62,1.62-1.79,2.97.1,4.37.3.85.12,2.21.93,3.28,1.71ZM59.35,134.99c-.4.66,0,1.03.02,1.43.07,1.14.41,2.55-.11,3.37-.46.73-1.84-.14-2.82-.21-.63-.05-.9-.62-1.28-1.03-.43-.46-1-1.02-1.59-.48-.54.49-1.39,1.01-1.05,1.98.63,1.78-.31,1.61-1.44,1.22-.45-.16-.92-.7-1.34-.18-.48.6.06,1.03.49,1.39.49.41.6,1.39.13,1.16-1.53-.76-2.64.91-4,.26.04.72.4.99,1,.93.77-.08,1.4.31,1.81.83.92,1.16,1.7.8,2.87.28,1.73-.77,3.11-2.72,5.41-1.87.37.14.65-.28.56-.56-.49-1.5.31-1.61,1.43-1.43.28.05.52,0,.58-.31.19-1.11.71-1.93,1.8-2.36.51-.2.32-.6.1-.93-.16-.26-.31-.52-.73-.38-.99.32-1.07.29-.94-.65.14-.98.18-1.85-.9-2.47ZM74.57,81.91c-.37-.97.69-2.63-.85-2.54-.92.06-2.44-.8-3.08.84-1.41,3.58-.7,6.79,1.57,9.76,1.38,1.8,3.08,3.26,4.81,4.69.43.35.91.66,1.5.64.07,0,.22-.31.2-.45-.1-.7-.51-1.11-1.23-1.2-.24-.03-.54-.07-.7-.22-.55-.51-.73-1.05.12-1.45,2.3-1.1,2.39-1.41,1.13-3.77-.34-.63-.23-1.69-1.18-1.72-.87-.03-1.05.99-1.39,1.56-1.38-1.01-1.98-2.56-3.32-3.5-.9-.63-1.38-1.46-.26-2.63,1-1.05,1.67-1.16,2.7,0ZM41.46,161.91c.03.51-.29.76-.61.91-.64.3-1.04.66-.79,1.45.21.68.7.84,1.31.78.99-.09,1.35.53,1.48,1.33.19,1.14.93,1.36,1.92,1.27,1-.09,1.03-.74,1.12-1.57.22-2.17.14-4.38,1.34-6.41.41-.7.32-2.26-.88-2.54-1.04-.25-1.99-.6-2.94-1.04-1.4-.66-2.03.65-2.86,1.27-.75.57,0,1.1.36,1.56.71.93-.27,2.16.57,3ZM289.21,216.86c-1.75-.97-3.51-1.57-4.74-2.74-1.41-1.33-3.66.84-4.62-1.42,0-.02-.48.08-.67.22-3.67,2.59-7.34,5.18-11.01,7.78,1.43.07,2.76-.25,4.08-.27,1.48-.03,1.99-.78,1.74-2.04-.24-1.19.48-1.28,1.23-1.37.49-.06.66.51.99.78,1.9,1.51,3.67.95,4.04-1.28.07-.45.36-.63.71-.78.46-.2.84-.12,1.16.3.31.4.34,1.15,1.18.88,1.09-.35,1.78.19,2.31,1.09.5.86,1.12.87,1.84.22.5-.45,1.06-.83,1.75-1.37ZM153.85,257.82c2.55-3.17,5.81-5.84,4.81-10.59-.61-2.92-.46-2.82-3.08-1.64-.92.41-2.2.52-2.15,1.98.12,3.42.27,6.83.41,10.25ZM216.05,176.96c-1.27.6-2.72-.15-3.05.96-.39,1.31-.41,2.81-.27,4.19.12,1.18,1.54.75,2.3,1.26,1.02.69,2.16-.22,2.34-.85.31-1.07,2.24-1.63,1.06-3.18-.71-.94-.78-1.81.13-2.84.92-1.03.38-2.4-.55-2.95-1.21-.72-.98.75-1.33,1.35-.55.94-1.3.89-1.6-.1-.42-1.39-1.13-.79-1.79-.41-.57.34-.87,1.04-1.95,1.38,1.8.07,3.1.5,4.73,1.18ZM55.59,180.02c-2.32-.3-1.17-2.35-2.14-3.26-.66-.61.98-4.52-2.15-1.43-1.68-.73-3.81.09-5.25-1.56-.35-.4-.89-1.14-1.45-.15-.38.66-.52,1.3.4,1.69,1.3.55,1.2,2.63,2.95,2.7.17,1.95,1.12,1.59,2.35.89.73-.41,1.21.21.84.81-.91,1.48.46,1.76,1.13,2.27.95.73,1.55.14,2-.81.19-.4.7-.64,1.31-1.16ZM92.1,254.28c.96-.15-.13-1.75,1.12-1.1.97.5,1.97.43,2.81.68,1.81.53,3.61.35,5.54.78-.21-.78-.48-1.28-1.18-1.43-.62-.13-.82-.61-1.11-1.12-.63-1.08-.67-2.94-2.74-2.44-.11.03-.38-.17-.42-.32-.77-2.52-1.68-.94-2.59-.11-2.02,1.83-3.94,1.53-4.42-.71-.11-.51-.05-1.01-.67-1.17-.33-.08-.67.04-.79.34-.24.58.38.86.54,1.29.81,2.18,4.11,2.42,3.91,5.3ZM159.99,255.18c1.39-.93,3.01-1.65,4.1-2.86.71-.79-.92-1.85-.74-3.04.06-.43-.41-.93.18-1.31.65-.42,1.02.07,1.44.44.45.4,1.1,1.18,1.53.6.63-.85,1.42-2.26,1.11-2.99-.6-1.42.32-1.72,1.11-2.28-2.83-1.56-4.58-.9-5.5,1.9-1.04,3.14-2.05,6.3-3.24,9.55ZM132.51,268.73c-1.92-1.37-3.48-2.49-5.06-3.6-.51-.36-.96-.56-1.68-.14-1.61.95-3.35.54-5.05.11-.34-.09-.68-.15-.48-.57.71-1.46-.33-1.06-.98-.9-.9.22-1.81.92-1.49,1.76.24.64.7,2.03,2.15,1.4.38-.16,1.2-.41,1.23.25.07,1.54,1.49,1.17,1.82.96,1.32-.83,2.09-.51,3.44.24,1.58.88,3.7.87,6.1.49ZM111.87,47c.32.58-.52,1.01-.03,1.46.1.1.53.02.64-.11.32-.39.66-.99.29-1.36-1.1-1.1-1.3-3.21-3.56-3.07-1.05.06-1.04-.78-.73-1.61.41-1.07-1.08-.84-1.15-1.6-.81,2.12-1.5.21-2.23-.07-.58-.22-.93.07-1.28.48-.38.45-.75.97-.47,1.51.26.5.79.16,1.17.02.79-.3.97.38,1.28.79.93,1.23,1.84,2.47,2.7,3.75.48.71,1.07.8,1.78.51.51-.21.88-.71,1.6-.7ZM141.9,262.63c-1.34-3.48-3.78-5.32-5.88-7.44-.69-.7-1.55-.19-2.34-.21-.38-.01-.58.52-.35.67,1.37.94,1.22,2.94,2.53,3.77,1.78,1.13,3.72,2,6.04,3.21ZM89.69,253.54c.11-.11.22-.22.33-.32-.89-1.2-1.79-2.4-2.66-3.61-.51-.72-.95-1.43-1.8-.32-.26.34-.57.27-.91-.12-1.54-1.74-2.38-1.7-4.05.19,1.35.92,2.67,1.85,4.03,2.72.29.19.75.52.87-.29.15-1.03.26-1.04,1.04-.48,1.05.75,2.1,1.49,3.15,2.24ZM145.84,256.09c-.47-3.66,1.26-7.53-2.8-10.16-.16,3.69-.1,7.07,2.8,10.16ZM116.51,251.39c.29-.14.63-.21.82-.43.71-.8,1.23-1.83,2.59-1.64.19.03.56-.35.63-.61.1-.35-.31-.48-.55-.66-.66-.49-1.34-.3-1.92.09-1.56,1.05-2.85.7-4.03-.62-.83-.92-1.61.13-2.42.09-.29-.01-.51.16-.44.45.17.73.93.39,1.38.69.49.32.92.72,1.17,1.16.63,1.12,1.94.74,2.77,1.47ZM85.71,75.56c-1.48.59-2.38,2.06-4.18,1.53-.52-.16-.84.64-.99,1.2-.14.55.03,1.12.57,1.24.92.21.1-.69.44-.86.33-.16.7-.39,1.03-.36,1.9.12,4.04-.8,5.52,1.27.17.24.7.22,1.04.35.44.16.75.36.9-.39.14-.72-.32-.5-.63-.72-1.34-.95-3.77-.65-3.72-3.25ZM69.59,240.87c1.29,1.03,2.47,1.94,3.61,2.89.8.66,1.57.84,2.27-.06.74-.94.51-1.91-.46-2.38-1.64-.8-3.4-1.37-5.42-.44ZM93.41,62.24c0,1.16,1.93,1.83,3.22,1.07.62-.36,1.11-1.07,1.97-.56.25.15.55.47.79.07.22-.37-.03-.71-.34-.96-.96-.76-2.18-.83-3.28-1.22-1.16-.4-2.35.4-2.35,1.59ZM93.57,46.88c1.91-.57,2.36.11,2.13,1.61-.08.49-.28.92-.37,1.36-.19.96.47,1.63,1.27,2.05.39.21,1.13.09,1.09-.34-.13-1.29,1.1-2.78-.53-3.9-.54-.37-.9-1.02-1.34-1.54-.94-1.13-1.6-.92-2.25.76ZM55.14,151.46c1.24.26,1.22-.96,1.43-1.61.18-.53.08-1.6-1.08-.77-.71.51-1.2.22-1.7-.44-.47-.61-1.15-.89-1.92-.42.72.98-.46,2.53,1.08,3.34.85.45,1.4-.29,2.19-.1Z"/>
      <path d="M76.65,275.01c-.67.03-1.15.42-1.61.84-.6-.35-1.23-.74-1.94-.51-1.23.39-1.5-.73-2.13-1.28-.33,2-1.07.34-1.59.15-1.2-.44-2.31-1.27-3.69-.34-.32.22-.6.25-.63.71-.04.59-.24,1.18-.96,1.14-.42-.02-.91-.25-1.02-.72-.13-.57-.07-1.23.53-1.47,1.37-.56.7-.98-.03-1.44-.92-.58-1.34-1.44-1.44-2.51-.24-2.74-.84-3.19-3.34-2.52-2.17.58-4.18-1.38-3.56-3.6.2-.74.88-1.27,1.76-.59,1.46,1.13,2.88,2.01,4.93,1.21,1.07-.41,1.81.95,2.61,1.56,2.02,1.52,1.96,1.62-.11,3-.67.45-.75.78,0,1.2.44.24.84.54,1.25.83.86.62,2.94.02,3.31-1.05.15-.44.15-.9.73-.86.44.03.89.2.99.72.32,1.73,1.6,1.35,2.69,1.15.75-.14,1.73-.52,1.9.32.1.5.3,1.96-1.19,2.02-.47.02-1.04.41-.77,1.03.24.55.75.25,1.14.06,1.08-.53,1.61.21,2.15.93Z"/>
      <path d="M45.46,136.95c-.62.45-1.47.43-1.93,1.31-.39.73-1.14.81-2.06.2-1.44-.97-3-1.06-4.87-.7-1.79.34-3.6,1.45-5.57.71-.67-.25-1.23-.57-1.6-1.25.45-.52,1.09-.52,1.67-.63.51-.09.48-.04.98.74.31.48.82.34,1.15.05.39-.34,1.37-.37.84-1.33-.24-.43-.44-.89-.65-1.33-.58-1.19-.53-2.16.87-2.74.32-.13.65-.4.84-.69.39-.64.85-1.23,1.62-.8.86.49.8,1.32.4,2.14-.16.33-.29.67-.5,1.16,1.36-1,4.93-.1,5.5,1.23q.81,1.89,3.33,1.95s-.01-.02-.01-.02Z"/>
      <path d="M123,10.1c-.14.35-.22.7-.02,1.06.53.93,1.27,1.91-.8,1.59-.76-.12-1.02.77-1.5,1.21-.54-.05-1.1-.33-1.6.16-.29.28-.86.44-.98.08-.49-1.47-1.88-.94-2.81-1.4-.69-.34-1.85-.56-1.49-1.53.38-1.03.81-2.7,2.13-2.53,1.48.19,1.62-.4,1.67-1.45.03-.79.18-1.65.93-1.91.76-.26,1.08.62,1.56,1.08.67.64,1.39,1.26,2.18,1.72.83.48.9,1.11.71,1.91Z"/>
      <path d="M247.62,179.91c-.94.07-.63-.48-.88-.89-1.11-1.82-1.18-3.13.61-4.4.08-.06-.03-.36,0-.55.11-.68-.75-1.48.18-2.05,1.06-.65,1.52.47,2.24.83,1.71.85,3.6,1.35,5.04,2.75,1.19,1.16,1.14,1.58-.43,2.1-2.26.75-4.64,1.12-6.76,2.2Z"/>
      <path d="M69.83,294.34c-1.02-.05-1.63-1.11-2.73-.96-.29.04-.61-.8-.42-1.12.46-.8.8-1.55.96-2.51.13-.78.99-.38,1.47.1.42.42.92.88,1.41.31.38-.43-.04-.92-.41-1.29-.22-.22-.54-.49-.55-.74-.02-.92-1.81-1.44-.77-2.39.9-.82,2.07.07,2.99.44,1.1.44,1.04,1.36.67,2.52-.48,1.51-2,2.77-1.16,4.73.28.66-.8.85-1.45.88Z"/>
      <path d="M225.75,110.01c-.86-1.48-.76-3.17-.99-4.78-.15-1.08.56-1.32,1.38-1.13,1.58.37,3.18,2.58,3.36,4.68-2.3-2.42-2.36,1.12-3.75,1.22Z"/>
      <path d="M100.92,278.05c1.17-.02,3.51,1.89,3.75,2.94.12.53-.07,1.01-.51,1.05-1.01.1-1.94,1.29-2.98.47-1.15-.91-1.02-2.43-1.3-3.71-.11-.47.6-.71,1.04-.75Z"/>
      <path d="M67.16,251.24c.16-.21.02-.35-.12-.46-.69-.55-.65-1.31-.54-2.05.06-.38.38-.44.72-.38.86.14,1.02.9,1.17,1.52.15.6.67.88.89,1.34.33.69.73,1.93-.41,1.92-1.33,0-2.66-.74-3.78-1.59-.28-.22-.43-.66-.12-1,.3-.33.71-.27,1.01-.04.37.28.54.88,1.17.75Z"/>
    </g>
  </g>
</svg>