<?xml version="1.0" encoding="UTF-8"?>
<svg fill="#6A7F6B" id="Capa_2" data-name="Capa 2" xmlns="http://www.w3.org/2000/svg" viewBox="0 0 311.22 303.1">
  <g id="Layer_1" data-name="Layer 1">
    <path d="M62.97,35.82c.4-.61.67-1.14,1.05-1.58.74-.86,1.5-.83,1.61.39.16,1.78,1.18,2.3,2.67,2.04.94-.16,1.49.51,2.26.66.49.09,1.03.44,1.39-.11.23-.34.42-.84.35-1.21-.15-.81-.77-.35-1.23-.32-.91.07-1.2-.34-.92-1.21.23-.69.42-1.39,0-2.72-.33.82-.53,1.29-.7,1.71-1.19-.79-.43-1.79-1.04-2.54-.57.31-1.17.63-2.08,1.13.33-1.57-.05-2.29-1.52-1.82-.34.11-.77,0-.96-.36-.26-.5.11-.85.44-1.12,1.28-1.05,2.62-1.84,2.25-4.04-.22-1.31,2.89-1.86,4.41-.48,1.28,1.16,2.06,1.6,3.03-.16.18-.33.71-.5,1.11-.66.7-.28,1.54-.51,2.01.22.57.89-.19,1.48-.85,1.97-.4.3-.84.56-1.49.99,1.64.82,2.31,2.47,3.87,3.16,1.15.51,1.29,1.3.47,2.26-.57.66-.86,1.54-.53,2.26,1.11,2.39-.18,2.01-1.69,1.62-1.3-.34-2.03.32-2.34,1.56-.33,1.28.09,2.49,1.1,3.04,1,.56,1.93-.03,2.26-1.3.22-.87.52-1.87,1.74-.85,1.77,1.47,2.29,1.25,2.72-1.16.04-.21.06-.43.18-1.28.67,4.65,2.93,1.77,4.8,1.72-.65-1.23-2.57-2.28-.05-3.75-1.36-.27-2.55-.36-1.78-1.86.33-.65.61-1.63,0-2.05-.76-.52-1.19.53-1.76.92-.28.2-.51.54-1.31.11,1.98-1.22,1.78-3.46,2.76-5.15.15-.25.49-.59.42-.74-1.05-2.2.88-2.25,2.02-2.81,1.27-.61,2.73-.83,3.76-2.06.4,1.03-.64,1.17-.5,1.82.62.24.71-.37.95-.65.59-.67,1.31-1.64.21-2.19-1.14-.57-1.47-1.08-1.24-2.33.19-1.04-.88-.91-1.56-1.07-1.15-.28-1.34-.87-.4-1.62,1.04-.83,1.63-1.8,1.54-3.2-.06-.96.36-1.67,1.46-1,.91.55,1.36.47,1.73-.62.48-1.42,1.2-1.05,2.08-.19,1.25,1.24,2,3.02,4.12,3.5-.92.83-1.81.36-2.65.75,1.21,1.73,1.77,3.71,2.24,5.73.71.38,1.13-.66,1.83-.36.35.49.04.86-.29,1.12-.84.65-1.56,1.52-.52,2.3.81.6,2.12,1.39,2.99-.21.03-.06.09-.16.14-.16,2.84-.26,4.49-2.26,6.21-4.19.61-.68.87-1.6,1.89-2.17-1.28-.79-3.2-.69-3.13-2.48.05-1.26,1.53-.71,2.32-1.04-.27-.95-1.22-.67-1.67-1.35.71-.41,1.4-.56,2.21-.41.7.12.96-.27.77-.92-.13-.43-.81-.88-.05-1.25.49-.24,1,.14,1.42.41,1.74,1.14,3.22,1.57,4.19-.96.36-.94,1.11-1.97,2.22-.52.59.78,1.18.2,1.75-.03,1.07-.44,2.29-.53,3.1.17.78.67-.13,1.59-.33,2.41-.2.86-.78,1.99,1.02,2.06,1.66.07,3.08,2.01,4.98.58.38-.28.74.29,1.02.63.63.79,1.27,1.57,1.94,2.4.68-.73.49-1.46.18-2.22-.33-.82-.41-1.8.46-2.11,1.05-.38,1.45.68,1.85,1.46.37.7-.04,1.63,1.04,2.61.2-2.34-.7-4.2-.78-6.39.82.85.68,1.8.93,2.6.3.97.45,1.96,1.09,2.85,1.04,1.45,2.02,1.67,3.39.45.71-.63,1.3-1.46,2.63-1.16.81.18,1.52-.18,1.25,1.11-.1.49.38.86.86.68,1.53-.57,3.25.12,4.77-1.18,1.27-1.08,3.38-1,4.7-.13,1.77,1.18,1.66.14,1.95-1.01.22-.88.59-1.85,1.77-.77.39.35.68,1.23,1.36.68.82-.65-.09-1.29-.5-2.28,1.81.98,3.32.2,4.86.2.67,0,1.19-.63,1.15-.81-.39-1.99,1.7-3.45,1.12-5.42-.31-1.05.21-1.26.99-.99,1.34.47,2.54.45,3.76-.36.71-.47,1.24-.09,1.52.67.22.6.57.98,1.27,1.02.61.03,1.46-.25,1.62.68.12.73-.46,1.18-1.01,1.58-.22.16-.43.34-.84.67,1.78.56,2.82-.94,4.28-1.02,1-.06,1.34-.05,1.79.75,1.8,3.2,5.01,3.33,7.01.24.71-1.09,1.27-1.03,2-.15.36.43.72.87,1.2,1.46.61-1.2-.37-2.08-.26-3.03.12-.99-.04-2.43,1.21-2.49,1.27-.06,1.35,1.41,1.4,2.38.05.9-.28,1.82-.47,2.92,1.09-.36,1.87-1.33,3.08-.28.58.5.78-.62.84-1.28.07-.79-.29-2.18,1.39-1.33.67-1.46,2.94-1.02,3.35-2.93.17-.78.89-1.5,1.49-2.12.68-.7,1.48-1.23,1.78.37.14.75.42,1.32,1.27.51.18-.18.69-.33.78-.23,1.61,1.6,2.56.11,3.65-.73.06-.04.11-.15.16-.15,1.55.1,3.06.56,4.63-.41.34-.21.62,1.48.26,2.43-.77,2.06-.21,2.68,2.06,2.3,1.21-.21,1.17.76,1.22,1.37.09,1.29.5,1.95,1.94,2.03,1.61.08,1.75,1.02.71,2.19,3.3,1.15,3.01-1.88,4.4-4.01-.46,3.72,2.02,2.36,3.07,2.48,2.22.26,2.22,1.26,1.56,2.76-.53,1.22-.33,1.83,1.04,1.85,1.69.03,2.1.86,1.76,2.43-.26,1.23-1.14,2.68.7,3.57.14.07.19.6.09.83-.99,2.11.08,3.4,1.64,4.63,1.09.86,1.05,1.69-.47,2.15-1.04.31-.87.8-.11,1.32.64.44,1.74.64,1.57,1.61-.19,1.1-1.49.6-2.24,1.08.93.58,1.54,1.34,1.83,2.38.57,2.01,1.91,2.68,3.8,1.86,1.97-.85,1.27,1.55,2.45,1.85.43-.65.86-1.38,1.39-2.03.37-.45.91-.82,1.55-.54.59.26.44.84.42,1.35-.01.52-.75,1.65.51,1.25.91-.29,2.55.79,2.77-1.11.06-.5-.1-1.33.45-1.3,2.44.13,1.46-1.27,1.17-2.39-.04-.14-.05-.29-.06-.44-.04-1.14.04-2.56,1.22-2.77,1.38-.24,1.84,1.51,1.75,2.3-.18,1.46,1.09,1.78,1.39,2.6.66,1.82,1.62.53,2.39.51,1.81-.06,3.18.93,3.53,2.79.11.61.37,1.08.97,1.51,1.05-.99.08-2.42.82-3.55,1.21,2.4,1.05,4.86.75,7.31-.04.36-.23.68.05.99.35.39.64.16.89-.15.87-1.07,1.18-.07,1.61.44,1.22,1.47,2.55,1.66,3.91.26.45-.47.71-.13,1.12-.08,1.49.18,2.92.17,3.32-1.78.09-.46.29-1.16.93-1.01.78.18.53.96.47,1.49-.07.65-.2,1.34-.51,1.9-.5.9-.43,1.53.29,2.32,1.25,1.38.58,3.28.88,4.92.18.96.44,1.18,1,1.03,1.51-.42,1.95.95,2.5,1.64.53.67-.76,1.01-1.21,1.5-.9,1-1.45,2.04-1.04,3.38.35,1.13.94,1.97,2.36,1.72.44-.08,1,.18,1.01.66.03,1.5,1,1.92,2.19,2.36,1.35.5,2.09,1.33.38,2.43,1.05.71,1.96,1.3,2.84,1.94.3.22.47.61.29.97-.21.41-.63.35-.96.19-1.52-.76-2.66-.16-3.68.95-.18.2-.33.49-.67.17-2.07-1.99-2.34.38-2.78,1.35-.51,1.11-.38,2.55-2.53,2.27,1.79.24,2.61.93,3.24,2.36.44.98,1.21,2.56,3.18,1.08,1.34-1,1.09,1.21,1.88,1.78.3-.27.61-.57.95-.84.4-.32.85-.71,1.38-.45.63.31.7,1.02.49,1.54-.59,1.43-.2,2.4,1.16,3.02,1.02.46.49.96.12,1.53-.35.55-.81,1.25-.25,1.8.92.91,1.96,1.72,3.04,2.43.34.22.49-.38.55-.73.12-.72.24-1.44.39-2.15.45-2.16,1.08-2.53,2.87-1.33,1.02.68,1.43.11,2.03-.41.5-.44,1.07-.94,1.75-.54.64.37.41,1.1.22,1.6-.39,1.04-.01,1.32.96,1.31.58,0,1.27-.06,1.54.59.3.7-.35,1.05-.78,1.41-1.43,1.19-1.04,2.04.43,2.8,1.1.57,1.91,1.56,3.14,1.98,1.22.41.68,1.61.81,2.47.77.62,1.5-.7,2.38.13-1.11.89-2.23,1.86-.61,3.26.11.1-.07.54-.12.82-1.61-.61-1.55,1.95-3.06,1.59-.45-.11-.64.3-.71.67-.51,2.63-1.42,1.38-2.35.26-.59-.7-1.14-1.56-1.76.06-.43,1.12-1.44.04-2.35.39,1.83,4.84-1.7,7.45-4.15,10.57.17.03.72,0,1.17.22,1.37.64,1.76.12,1.59-1.21-.07-.54-.39-1.44.49-1.33.81.11,2.06-.38,2.44.82.46,1.49.84,2.79,2.72,3.22,1.06.24.41,2.09,1.53,2.73.45.26.73,1.19,1.38.55,2-1.97,2.29.63,3.03,1.27,1.06.92-.44,1.41-.95,1.94-.74.77-1.24,1.28.12,1.9.5.23.93.71,1.29,1.16.72.9,1.29,2.16.33,2.94-.89.73-1.33-.76-2.03-1.17-1.54,2.55-3.91,3.15-6.76,1.71-.3.36,0,.69.06,1.03.1.51.27,1.05-.28,1.39-.44.26-.89,0-1.21-.27-1.24-1.06-2.27-.6-3.37.46.48.82,2.6,1.03,1.21,2.69-.29.35-.55.82-1.01.69-2.28-.63-2.28,1.86-3.57,2.61-.6.35-.05.89,1.85,1.16.14.41-.14.66-.33.98-.42.7-1.75,1.64-1.08,2.03.86.49,2.33.07,3.29-.77.31-.27.42-.77.71-1.08,1.67-1.81,1.98-1.79,3.33.32.52.82.99,1.56,2.01.6.43-.41.77-.23,1.09.18.47.59.93.56,1.47.03.39-.39.85-1.01,1.47-.49.52.44.16,1.09.03,1.65-.23.95-.79,2.14,1.14,1.35.97-.4,1.13-.1.75.94-.58,1.6.57,3.03.99,4.49.18.64,1.27-.47,2.23.03-1.75.57-2.69,1.96-2.26,3.39.42,1.39.48,3.07,1.77,4.15.78.66,1.4,1.46,1.88,2.68-1.03-.25-1.55-.82-2.1-1.37-.29-.29-.59-.83-1.05-.38-.42.42,0,.82.3,1.11.82.79.92,1.84.96,2.85.05,1.36.13,2.99-2.09,1.68-.75-.44-1.47-.03-1.55.65-.23,1.91-1.13,1.93-2.52.94-.48,1.01.39,1.83.06,2.64-.25.62.19,2.51-1.46.91-.25-.25-.44-.27-.68.05-.97,1.31-2.34.4-2.74-.14-.99-1.33-1.89-2.22-3.7-2.1-.98.07-.91-.73-.36-1.37.5-.59,1.22-.78,2.29-1.07-1.5-.55-2.61-1.16-4.08-1.3.77-1.2,1.23-2.33,1.68-3.46.57-1.42-.08-1.47-1.1-1.53-1.21-.08-2.49.36-3.63-.46-.17-.12-.68-.07-.8.08-1.67,2.13-2.32.54-3.04-.81-.07-.13-.19-.36-.23-.35-3.02.8-3.33-1.92-4.54-3.47-.08-.1-.25-.13-.6-.3-.05,2-1.04,2.59-2.88,1.98-.76-.25-1.46.14-1.67,1.02-.42,1.76-1.14,3.25-3.02,3.88-.35.12-.61.52-.39.89.43.73,1.07-.36,1.57.12.23.41,0,.75-.28.94-1.43,1-2.45,2.05-1.17,3.89.27.39.19,1.03-.19,1.45-.56.61-1.06.12-1.55-.17-.45-.27-1.08-.64-1.33-.02-1.02,2.53-2.81.59-3.3.13-1.59-1.52-2.28-.97-2.89.81-.52-.37-.88-.74-1.33-.92-.85-.34-1.81-.97-2.66-.26-.82.68-.62,1.62-.32,2.62.6,2.02-.01,2.82-2.12,2.77-.97-.02-1.41.63-2.09.98-1.01.51-.94,1.13-.07,1.56,1.01.51,1.66,1.13,1.71,2.31.02.48.36.73.87.8,2.59.35,3.47,1.44,3.14,3.84.59.25.91-.27,1.34-.47.37-.17.73-.35,1.1-.53.32.77-.21,1.07-.48,1.46-.21.31-.44.6-.26.99.22.47,3.94,1.92,4.49,1.78.68-.18,1.52-.67,1.98.14.41.72-.15,1.38-.68,1.92-.31.32-.72.41-.49,1.19.43,1.46,1.86,3.41-1.01,4.19-.07.02-.05.52-.01.79.2,1.45-.17,2.08-1.64,1.16-.37-.23-.91-.61-1.14-.12-.97,2.06-1.78.91-2.59-.53-.31,1.54,1.5,2.99-.43,3.63-1.61.54-3.55,2.25-4.89-.56-.36-.76-1.12-1.05-1.96-1.24-2.19-.5-2.92-2.05-1.93-3.94.6-1.14.17-1.76-1-1.7-1.55.09-3.06.31-4.01-1.34-.07-.12-.3-.28-.31-.27-2.45,2.31-3.06-2.28-5.2-1.4-.4.17-.65-.45-.38-.95.23-.43.77-.95.13-1.31-.8-.44-.91.46-1.21.89-.27.38-.63.83-1.05.6-2.25-1.24-2.11.33-2.41,1.8-.3,1.46-1.87,1.68-2.91.56-.37-.4-.62-1.2-1.33-.76-.58.36-.15.91.12,1.35.5.79.74,1.64.22,2.47-.33.52-.67.37-2.44-.88-.63.02-.51.61-.68.96-.71,1.46-1.34,1.01-1.97-.06-.38-.65-.32-1.57-1.44-1.7-2.89-.33-2.88-.38-1.21-2.92-1.36.63-2.34-.56-3.77.18.38-1.41.75-2.46-.89-3.2-1.47-.66.49-1.45.41-2.26-.77-.49-3.14,1.66-2.25-1.58-1.64.76-3.21.82-4.62-.25-.68-.52-1.24-.26-1.84-.01-3.93,1.6-7.89,3.16-11.78,4.85-2.48,1.08-2.19,3.62-2.88,5.86,1.93-1.99,3.13-1.05,4.24.63.43.66,1.01.89,1.54.06,1-1.57,1.81-1.03,2.45.4.65-1.16.6-2.44,1.6-3.34.52,1.09-.39,1.98-.14,2.85.36,1.3-.39,2.91,1.23,3.92.51.32.48,1.34.13,2.06-.25.51-.81,1.01-.32,1.59.62.73,1.18-.09,1.78-.18.42-.06.86-.08,1.4-.13,0-1.25-1.44-2.64-.07-3.62.98-.69,1.52.81,2.38,1.19.65-.73.85-1.67,1.15-2.54.2-.6.52-1.24,1.12-1.2,1.76.13,2.79-.87,3.61-2.3.77.86-.07,1.69.43,2.57.98-.94,2.13-1,3.39-.6,1.28.4,2.33.85,2.9,2.3.3.76,1.35,1.22,1.86,2.06.6.97.92,1.71-.39,2.25-.76.31-.71.88-.46,1.45.61,1.37-.2,2.83.36,4.25.18.46.2,1.61-1.43,1.33-1.19-.21-2.86.47-3.36,2.27-1.3-1.83-2.82-2.28-4.28-1.09-1.07.87-1.04-.13-1.39-.51-.41-.46-.17-1.28-.99-1.57-1.71-.6-1.73-.64-1.59,1.33.06.84.13,1.76-.63,2.19-.98.55-1.22-.75-2.06-1.14-.26,1.2.35,3.46-2.21,2.18-.48-.24-.76.2-.89.68-.3,1.09-1.01.94-1.67.42-.79-.61-1.22-.56-1.59.43-.35.92-.95.75-1.47.08-.44-.57-.87-1.16-1.35-1.8-.37.5.06.67.2.91.51.87,1.49,2.05.67,2.73-.94.78-1.15-1.14-2.05-1.34-.23,2.01-1.27,2.34-3.38,1.66-1.25-.4-2.17-.65-2.68-2.05-.29-.8-3.24.66-3.71,1.87-1.66,4.39-3.27,8.78-6.22,12.55-1.37,1.75-2.91,3.29-4.62,4.68-3.81,3.11-6.29,7.27-8.98,11.29-8.77,13.09-7.68,9.92-8.16,25.31-.37,11.97,1.32,23.84,1.44,35.78.02,1.96-.49,2.64-2.4,2.52-1.97-.12-3.96-.04-5.93-.07-1.34-.02-1.92-.57-1.81-2.06.56-7.6,1.02-15.19.39-22.83-.38-4.59-.29-9.22.22-13.83.73-6.72-.88-13.22-1.9-19.8-1.07-6.88-1.84-13.8-1.56-20.79.03-.8.03-1.62.19-2.4.46-2.22-.14-4.14-1.3-6.05-4.16-6.81-9.26-12.75-15.31-17.99-3.3-2.85-6.04-6.36-8.97-9.62-.42-.47-.5-.76-1.36-.8-1.8-.08-2.61-2.48-1.57-3.99-2.93-.71-3.33-.54-4.38,1.91-.17.4-.23.93-.79.89-.99-.07-.79-1.65-2.15-1.55-1.8.13-.31-1.46-.91-2.15-1.15.47-1.88,1.65-3.32,1.84-1.01.14-.77,1.56-.95,2.47-.2,1.01-.1,2.13-1.8.79-1.14-.9-2.68-1.63-3.94-2.46-.89-.59-1.63-1.49-2.72-2.02-.44-.22.32-.97.78-1.32.57-.44,1.11-.86.26-1.52-.54-.43-1.03-1.21-1.64.02-.65,1.32-.86-.7-1.63-.09-.04.63-.07,1.46-.16,2.28-.05.42-.07.95-.64,1.01-.54.06-.74-.41-.92-.8-.15-.33-.16-.72-.32-1.04-.28-.54.52-1.96-1.01-1.49-1.19.36-1.13,1.41-.72,2.36.33.77,1.23,1.75,0,2.14-.89.28-.75.58-.94,1.24-.51,1.77-1.48,3.4-.88,5.4.21.69-.63,1.11-1.16,1.47-.93.62-5.18.39-6.06-.26-.6.44.01,2.16-1.1,1.65-1.33-.61-.81,1.09-1.75.76-.46-1.11-1.14-2.24-2.53-2.77-.35-.13-.77-.63-.79-.99-.18-2.51-1.93-1.82-3.35-1.66-.56.06-1.17.53-1.63-.01-2.01-2.3-2.84-.64-3.76,1.44-.72-1.83-2.44-2.77-1.98-4.87-1.32.4-2.71,1.19-3.45.11-.84-1.21,1.27-1.28,1.47-2.31-.75-.57-1.28.5-2.39.17,1.2-1.08.29-3.69,3.29-3.04-.85-1.19.14-3.21-2.03-3.51-.26-.04-.15-.51.08-.73,1.3-1.23,2.27-2.93,4.49-2.75.54.04,1.58.44,1.26-1.24-.22-1.11,1.53.32,2.33-.53-.34-.67-.98-1.14-1.84-1.37-.6-.16-1.48-.03-1.56-.9-.07-.76.74-1,1.24-1.41.16-.13.29-.3.53-.56-.31-.25-.58-.45-.84-.68-.45-.39-.96-.81-.78-1.46.21-.75.9-.6,1.48-.58,1.57.06,2.27-.87,2.69-2.51-1.93,1.99-3.26,2.1-3.51-.65-2.44.45-4.53,1.81-6.89.6-.38-.19-.92-.6-1.2-.2-1.3,1.91-3.23,2.18-5.28,2.25-.5.02-.8.3-.85.83-.13,1.38-.7,2.48-1.79,3.39-.73.61-.38,1.45-.16,2.25.35,1.3-.05,1.96-1.42,1.18-.77-.44-1.39-.6-1.79.31-.91,2.07-2.23,1.33-3.51.54-.83-.51-1.49-1.22-2.2.21-.41.82-1.08.26-1.32-.28-.59-1.34-1.51-2.09-2.99-2.19-.43-.03-.92-.24-.91-.78.02-1.07,1.12-1.2,1.9-1.82-1.5-1.09-2.98-2.17-.42-3.47-.92-1.32.39-2.41.37-3.62-.01-.54-.29-1.05-1-.5-.35.27-.82,1.12-1.14.47-.36-.73-1.38-1.22-1.03-2.28.5-1.49.5-3.28,2.44-3.76-.07-.66-.59-.75-.89-1.04-.41-.4-1.05-.72-.74-1.42.28-.63.96-.7,1.53-.54,1.02.29,1.7.09,2.06-.99.23-.7.89-.95,1.52-1.15,2.8-.86,3.32-1.77,2.75-4.89-.19-1.02-.09-1.62,1.3-1.56,2,.09,3.66-1.47,4.21-3.56q.16-.61,1.95-1.05-.68-2.65,2.85-1.71c-1.71-1.2-3.07-2.22-1-3.7.39-.27.45-.57-.1-.73-1.54-.44-.72-1.35-.32-2.02.76-1.28.35-2.61-1.06-3.09-2.1-.73-6.43.91-7.63,2.91-.33.55-.71.9-1.38.92-.35,0-.97.04-1,.17-.8,3.44-4.1,1.13-5.87,2.46-.25.18-2.29-.34-2.78-1.36-.57-1.2-1.31-.74-2.16-.75-1.52,0-2.09.32-1.27,1.9.52,1.01.41,1.86-.99,2.36-1.01.36-2.18,1.09-1.2,2.65.39.62.38,1.5-.25,2.02-.54.45-1.11.02-1.56-.37-.61-.51-.98-.38-1.36.31-1.03,1.9-1.84.73-2.12-.38-.31-1.21-.49-1.68-1.92-1.29-1.28.35-2.44-.08-1.71-1.89.08-.2.28-.52.2-.6-1.22-1.49-.11-3.37-.89-4.99-.48-.99-.29-2.14,1.4-1.73.34.08.99.17.99.15.42-2.26,2.42-1.59,3.8-2.12,1.1-.42,1.36-2.83.46-4.1-.88-1.25-1.48-2.24.82-2.34,1.04-.04,1.03-.85,1.06-1.6.04-1.05.28-1.94,1.51-.97,1.1.86,1.13-.02,1.38-.69.22-.59.26-1.46,1.08-1.48.85-.02.93.82,1.04,1.45.12.66.7,1.42,1.05.91,1.4-1.99,2.49.11,3.49.34,1.29.29,2.83.45,3.98,1.48.54.49.62.93.48,1.53-.12.51-.24,1.24.23,1.43,3.17,1.24,6.01,3.63,9.75,2.87.26-.05.63-.2.71-.4.18-.47-.21-.81-.51-1.12-.14-.15-.35-.26-.55-.33-.81-.28-2.21.46-2.36-.87-.11-1.04,1.31-1.21,2-1.83-2.18-2.27-1.97-2.16-.34-5.32.36-.71,1.25-2.87-.65-4.07-1.09-.69-2.12-1.67-1.85-3.37.21-1.27-.76-1.59-1.84-1.47-.76.09-1.52.25-2.54.42.66-.96,1.54-1.6.91-2.69-.4-.69.25-.6.62-.75.64-.25,1.07-.67,1.14-1.45.13-1.44,1.03-1.81,2.34-1.5.45.11,1.24.52,1.23-.21-.02-.69-.61-1.41-1.07-2.02-.32-.43-.82-.29-1.09.17-.84,1.43-1.56,1.88-2.11-.17-.04-.14-.12-.38-.19-.38-2.36,0-2.76-1.29-2.56-3.35.03-.32-1.89-.72-2.93-.1-.8.48-1.57,1.02-2.36,1.53-.36.23-.77.73-1.16.37-2.12-1.94-2.02.4-2.58,1.34-.26.43.16,1.5-.72,1.25-.79-.22-2.32,1.11-2.41-1.03-.07-1.54-1.99-.84-2.66-1.92-1.24-1.96-1.84-.15-2.5.61-.62.71-1.65.77-2.34,1.07-1.21.52-1.94.88-2.21,2.23-.14.68-.82.52-1.13-.04-.32-.57-.52-1.2-.79-1.84-.76-.13-.81,1.48-1.63.87-.72-.53.19-1.35.03-2.2-.89-.17-1.49.81-2.48.74-.16-1.39,1.48-1.92,1.51-3.49.02-1.17,1.29-2.3.2-3.82-.4-.56.48-.89,1.08-1.01,2.24-.46,3.72-2.35,5.89-3.05,1.3-.42,1.43-1.77.88-3.11-.57-1.38-1.22-2.65-2.55-3.44-.12-.07-.38-.18-.39-.16-1.19,2.08-2.61.2-3.91.24-1.34.04-2.51.19-1.59,2.02.21.41.16.87-.07,1.27-.1.18-.41.46-.42.45-1.69-1.41-2.9,1.07-4.14.6-.84-.32-1.31-1.19-2.26-.27-.1.1-.69-.05-.75-.21-.64-1.62-1.72-2.3-3.49-1.96-.37.07-.57-.63-.25-.83,2.41-1.52.3-2.78-.19-4.12-.12-.33-.36-.61-.61-1.02-1.05,1.27-2.02,2.33-3.28.22-.46-.76-1.78-.21-2.54-1.23-.42-.57-1.84-.63-3.04-1.31,1.72-.66,3.22-1.24,4.76-1.84-1.9-2.37-1.03-5.51,1.67-5.95,1.44-.23,1.32,1.44,1.88,2.55.7-1.94,1.6-3.42,3.96-2.39.89.39,1.05-.5,1.31-1.08.34-.73.66-1.67,1.67-1.35.88.29.95,1.23.9,2.06-.07,1.07-.48,2.16.27,3.2,1.05-.3.97-1.86,2.41-1.94-.3.79-.56,1.5-.92,2.44,1.08-.37,2.12-.11,3.06-.19.96-.08,2.04.59,3.09-.32-1.09-.87-2.5-1.23-3.51-2.63,2.05.31,2.44-1.47,3.53-2.31.69-.53.11-.98-.62-1.07-1.3-.16-2.37-.55-2.45-2.16-.02-.36-.68-.7-.17-1.11.39-.32.86-.02,1.23.18,1.22.66,2.38.1,3.21-.55.74-.59-.04-1.64-.19-2.48-.16-.92-.72-1.26-1.59-.77-.95.53-1.51.15-1.89-.75-.18-.43-.07-1.19-.81-1.08-.59.09-.59.76-.73,1.24-.16.55-.17,1.17-.91,1.51-.66-.81.11-1.63.07-2.48-.89.27-1.25,1.4-2.46,1.09.33-.95.63-2.02-1.07-1.73-.28.05-.61-.1-.62-.47-.02-.51.38-.76.74-1.01.98-.68,2.43-.79,2.82-2.43-.81-.09-1.26.86-2.2.56.7-1.2,1.45-2.56-.85-2.67-.01-1.05,1.09-.75,1.33-1.41-.39-.23-.78-.43-1.13-.68-.41-.3-.95-.61-.77-1.2.23-.75,1.06-.71,1.49-.51,2.22,1.04,4.56-.38,6.85.5,1.09.42,1.2-1.72,2.42-1.88.61,1.99,3.31,3.09,2.16,6.14,2.12-1.48,3.69-1.19,5.62-.44.67.26,3.4,2.34,4.33-.84.25-.85,1.03.01,1.07.51.16,2.08,2.91,2.53,2.89,4.7,0,.24.39.43.71.32.34-.12.36-.42.32-.72-.07-.51-.23-1.02-.21-1.52.04-.91-.12-2.2,1.16-2.18,1.17.02,1.19,1.25,1.32,2.21.13.97-.6,1.96.15,3.21.97-2.09,2.4-3.09,4.56-2.67.53.1.83-.08.86-.67.12-2.23,1.08-4.13,2.38-5.87.38-.51.5-1.06-.13-1.25-2.39-.69-1.45-3.22-2.62-4.59-.39-.45.01-1.12.67-1.38,1.71-.66,1.51-1.92,1.02-3.27-.28-.76-.73-1.64.13-2.18.75-.47,1.46.24,1.87.77.92,1.18,2.78,1.24,3.39,2.23,2.27,3.68,1.93,1.58,2.76-.75.78-2.19,1.76.23,2.78.72ZM127.22,167.54c-.54-1.25-.63-2.55-.43-3.88.07-.5-.1-.86-.59-1.04-.44-.16-.7.12-.87.46-1.02,2-1.13.49-1.59-.34-.26-.46.51-1.6-.66-1.36-.77.16-1.87-1.26-2.32.43-.31,1.19-.08,2.19,1.07,2.81,1.8.98,3.6,1.94,5.4,2.91,1.09.84,2.02,2.41,3.35,2.29,1.99-.18,1.78,2.35,3.45,2.3.12,0-.63,1.18.31,1.08.85-.09.33-.92.28-1.45-.06-.64-.35-1.4.42-1.75.58-.27,1.14.12,1.58.51,1.03.92,2.29,1.48,3.32,2.48,1.09,1.05,2.43,2.14,4.41,1.7-.17-.95-.71-1.63-1.26-2.27-1.66-1.94-3.45-3.74-5.46-5.37-1.74-1.41-3.31-1-4.48.13-1.69,1.64-2.22,1.12-2.65-.77-.1-.42-.34-.87-.82-.94-.67-.1-.59.5-.69.88-.25.93-.83,1.33-1.78,1.2ZM164.75,242.46c.72-.79,1.17-1.17,1.5-1.64,4.56-6.44,8.77-13.16,14.81-18.41.05-.05.09-.12.13-.17,4.51-5.78,7.76-11.97,6.42-19.66-.13-.74.22-1.03.82-1.32,1.14-.54,1.37-1.8,1.24-2.73-.17-1.22-1.44-.63-2.23-.62-2.34.01-4.68.1-7.01.39-3.3.41-3.24.34-3.4,3.67-.21,4.31-.36,8.72-1.98,12.73-1.91,4.74-4.04,9.41-6.53,13.91-2.27,4.1-3.9,8.5-3.77,13.85ZM191.28,195.88c.94-3.29,1.84-6.5,3.02-9.65.51-1.35.13-2.65-1.33-3.31-1.15-.52-1.89-1.4-2.3-2.52-.46-1.28-1.27-1.6-2.36-.94-1.9,1.14-4.24,1.78-5.06,4.22-.26.76-.73.58-1.38.53-2.48-.2-4.47,2.08-4.11,4.54.3,2.04.32,4.1-.08,6.12-.33,1.61.26,2.17,1.82,2.05,2.19-.17,4.38-.36,6.57-.38,1.32-.01,2.39-.07,2.68-1.67.08-.45.24-1.09.88-1.12.59-.02.82.54,1.09.97.23.37.38.77.57,1.16ZM148.9,206.03c-.63-3.21-1.8-6.27-1.48-9.54.24-2.45-.58-4.45-2.15-6.2-1.27-1.41-2.65-2.73-3.96-4.1-.69-.73-1.26-.73-1.6.26-.42,1.27-1.5,1.47-2.46,1.25-1.12-.25-1.95-.07-2.85.56-.48.34-1.55.85-1.63,0-.22-2.28-1.2-.42-1.83-.69,5.39,6.89,12.52,11.82,17.96,18.46ZM210.45,169.21c-.28.05-.6.03-.85.15-3.91,1.86-8.39,3.1-9.14,8.41-.07.5-.35.96-.47,1.46-.12.48-.57,1.02-.17,1.44.51.55,1.1,0,1.61-.19,3.28-1.24,6.54-2.56,9.83-3.79,2.56-.96,3.96-3.53,3.21-6.12-.12-.4-.43-.6-.8-.65-1.08-.14-2.19-.14-3.21-.71ZM148.18,188.86c0-2.72.09-4.83-.02-6.93-.27-5.61-1.98-5.26-6.35-5.85-1.71-.23-2.79,1.51-1.67,2.68,1.46,1.52,2.32,3.39,3.61,4.96,1.29,1.57,2.87,2.9,4.43,5.15ZM222.72,140.47c.03.96.22,1.52.64,1.94,1.02,1.02.52,2.1-.32,2.56-1,.55-.78,1.14-.77,1.94.02,1.23.72,2.2,1.06,3.3.59,1.89,2.24,2.3,3.65,1.94,1.3-.33,2.35-2.06,1.9-3.26-.32-.86,1.35-2.22-.64-2.58-1.21-.22-1.73-.81-.46-1.81.58-.46.53-1-.16-1.39-.33-.18-1.06-.23-.48-.8,1.35-1.32-.29-1.4-.67-1.29-1.29.36-2.41-.13-3.75-.54ZM147.78,174.3c1.03-4.94-1.7-12.98-4.91-15.61-.28-.23-.57-.54-.97-.34-.63.32-.45.95-.27,1.36.47,1.05,1.08,2.04,1.64,3.08-2.18.53-2.86,2.16-1.41,3.91,1.94,2.33,4.15,4.44,5.91,7.6ZM152.08,184.05c-.46,5.38-1.1,10.36,3.47,14.06-.22-4.76,1.53-9.96-3.47-14.06ZM195.89,182.64c1.16-3.27,2.32-6.54,3.57-10.08-2.64,1.03-4.67,2.35-6.49,4.39.96.19,1.82.37,2.44.97.44.43.88,1.09.14,1.45-2.34,1.15-.35,2.19.33,3.26ZM158.38,181.54c0-2.54-.03-4.48-.3-6.46-.45-3.31-1.04-6.66-.38-10.03.09-.47.6-1.21-.43-1.3-.79-.07-.98.53-.97,1.16.04,5.45-.4,10.96,2.08,16.62ZM276.28,144.82c.92.19,1.63-.24,1.84-1.08.18-.72-.21-1.72-.96-1.65-1.42.13-1.94-.74-2.46-1.66-.42-.76-.92-.53-1.47-.34-.41.14-.94.31-.64.88.58,1.09.14,2.39.57,3.35.59,1.32,2.13-.36,3.11.49ZM236.35,145.75c.18-.54.13-1.1-.33-1.39-.85-.53-.85.48-1.23.8-.17.14-.33.41-.49.4-2.44-.13-1.66,1.95-2.09,3.13-.35.95.5,1.38,1.22,1.41.57.02,1.94.42,1.22-1.18-.23-.52.43-.64.75-.9.72-.57,1.21-1.26.95-2.25ZM168.65,176.55c-1.26,2.6-3.51,4.74-3.45,7.85,0,.53-.23,1.34.52,1.48.65.12,1.02-.56,1.2-1.09.95-2.66,1.61-5.38,1.73-8.24Z"/>
  </g>
</svg>