<?xml version="1.0" encoding="UTF-8"?>
<svg fill="#6A7F6B" id="Capa_2" data-name="Capa 2" xmlns="http://www.w3.org/2000/svg" viewBox="0 0 367.11 315.39">
  <g id="Layer_1" data-name="Layer 1">
    <g>
      <path d="M60.42,228.56c.27,1.37-.56,2.52-.81,3.78-.27,1.32-.27,2.54.07,3.84.24.9,1.61,2.49-1.06,2.26-.79-.07-.28.88-.27,1.38.17,5.05.26,10.09-1.52,14.98-.77-8.32,1.37-16.86-2.12-24.96-.3,8.01,2.15,16.01.07,23.64-1.79-10.86-2.59-22.18-1.8-33.59-3.06,5.28-3.5,10.99-3.14,16.88-1.33-3.39-.17-6.81-.98-10.22-.52,2.92-2.81,4.81-4.1,7.28-.39.75-.59,2.16-2,.89-.56-.5-.56.21-.69.52-.31.73-.47,1.59-1.5,1.78-.53-.75.12-1.39.2-2.06.09-.71.48-1.38.63-2.09.96-4.62,1-4.54,5.21-7.04,1.52-.9,1.96-2.76,2.34-4.41.23-1.01.15-2.09.23-3.44-1.86,1.09-1.75,3.26-3.43,4.31,1.51-2.85-.41-5.37-.49-8.07-.12-4.21-.08-8.44-1.77-12.44-.58-1.38-.37-2.86-.05-4.33.69-3.13-.57-5.95-1.4-9.15-2.25,4.55.39,9.3-1.89,14.06-1.29-5.19,1.22-9.88-.55-14.5-.83-.11-.77,1.02-1.52,1.35-1.07-2.81,2.45-4.77,1.44-7.54-1.6,1.07-4.44,9.67-3.78,12.11,1.13,4.12.2,8.63,2.76,12.46-3.72-1.89-2.85-5.5-3.55-8.55-1.52,2.37-1.1,4.94-.79,7.3.35,2.68.08,5.24-.69,7.68-.59,1.9-.4,3.6-.09,5.42.45,2.57-.11,4.93-1.67,7.15-1.24-1-.36-2.39-.93-3.65-.75.79-.4,2.17-1.73,2.57-.38-1.73-.09-3.54.85-4.73,1.05-1.35,1.43-1.12,1.05-2.45-.21-.75-.13-1.43-.02-2.16.59-4.09.55-8.21.56-12.38.61,1.24,1.93,2.04,1.81,3.67.35-1.63.45-3.15-.65-4.48-.43-.52-.42-1.21-.32-1.87.05-.32.18-.85.04-.94-3.33-2.27-.2-4.79-.34-7.17-.21-3.49-.14-6.98.32-10.44.35-2.66.65-5.39,2.69-7.46.11-.11.26-.36.22-.39-2.39-2.53.69-5.13-.22-7.52q-2.17,2.94-1.97,6.77.11,2.04-2.58,3.85v-4.57c-1.61,1.78-.68,4.21-2.9,5.94.3-3.35.76-6.11,2.46-8.49,1.4-1.97,2.37-3.98,2.03-6.81-1.58,1.35-1.07,3.27-2.08,4.48-.99-3.36-.77-4.73,1.49-9.55.82-1.74.79-5.42-.25-7.95-.88,3.03-1.78,5.66-2.4,8.36-.5,2.18-.4,4.53-1.07,6.64-.79,2.45.33,4.85-.29,7.22-.19.74.22,1.92-1.33,1.76-1.56-.17-1.53-1.16-1.36-2.26.85-5.6.48-11.19.08-16.8-.11-1.53-.1-3.07,1.51-4.74.09,4.98-1.47,9.48.1,14.49.49-2.72.91-4.95,1.29-7.17.23-1.36.37-2.74,1-4,.26-.52,1.29-1.18-.34-1.47-.82-.15-.11-.89.2-1.03,3.03-1.38,2.82-4.24,3.07-6.81.1-1.07.37-2.01.89-2.94-.72-.16-.81.46-1.15.75-.46.4-.31,1.77-1.4,1.12-.92-.54-.08-1.24.11-1.93-3.53,1.16-2.11,4.92-3.73,7.09-.89-.33,0-1.59-.79-1.77-.94-.22-1.28.84-1.91,1.29-2.66,1.94-3.3,4.54-2.76,7.73.56,3.27.97,6.55-.08,9.89-.49,1.57.86,3.53-.9,5.16-1-1.23.53-3.08-1-4.25-.87.61-.74,2.53-2.59,2.15-.39-.08-.66,1.15-.3,1.91.73,1.54-.15,2.51-1.23,3.44.6-3.04-.37-6.04.16-9.14,1.05,1.46,1.5.85,1.96-.46,1.19-3.43.83-6.95.89-10.56-2.89,1.57-3.62,3.78-2.6,6.62.33.93.67,1.81-.47,2.8-.51-3.03-1.56-5.83-1.27-8.69.21-2.18,2.2-3.54,3.82-4.87,2.28-1.87,2.4-2.34.76-4.66-1.37-1.93-1.12-4.14-.74-6.63-1.3.93-2.4,1.62-3.38,2.45-.49.42-1.4.82.12,1.6,1.16.6-.1,2.13-.36,3.25-.81,3.59-2.65,6.98-1.84,10.88.45,2.16-.31,4.16-1.66,5.89-.29.37-.62.89-1.17.69-.79-.29-.46-.96-.27-1.46.68-1.81,1.62-3.49,2-5.45.29-1.47.18-2.91.3-4.36.03-.41.06-.8-.41-1.02-1.7-.82-1.78-.87-.76-2.65,1.12-1.97,1.47-3.87.23-6.07-1.43,1.56-1.3,3.64-2.32,5.15-1.59,2.35-2.49,4.9-2.39,7.7.08,2.17.51,4.33.77,6.5.09.79.38,1.95-.62,2.05-1.01.1-1.04-1.2-1.03-1.9.12-6.4-1.3-13.11,3.55-18.62,1-1.14,1.34-2.51,1.29-4.07-.04-1.09.39-2.21.68-3.3.14-.51,1.39-.48.71-1.42-.23-.32-.55-.32-.85-.13-.57.36-1.54.27-1.48,1.33.04.68-.1,1.29-.85,1.91-.66-2.27-1.92-1.52-3.32-.78-1.41.75-2.87,1.42-4.28,2.22,2.42-2.69,5.06-5.14,8.73-5.83,1.75-.32,2.11-1.11,2.09-2.61-.03-2.04-.18-4.12.6-6.22,1.02.78.2,1.78.91,2.5.82-.66,1.71-1.38,1.95-2.37.32-1.3,1.75-2.7.25-4.03-1.18-1.05-4.54-.53-5.61.76-.4.48-.78.95-1.4.6-.83-.47-.13-1.02.12-1.43,1.3-2.11,3.14-3.72,5.05-5.25.43-.35,1.02-.8,1.45-.11.3.47-.12.91-.55,1.2-.73.5-1.48.97-1.9,1.87.23.13.42.27.63.34,4.18,1.38,4.14,1.36,6.38-2.7.7-1.26,1.69-2.37,2.55-3.55.41-.23.81-.14,1.21.06-1.64,2.09-3.09,4.29-3.77,7.09,1.73-1.29,2.81-3.31,5.13-3.36-.26,1.61-1.75,2.04-2.8,2.88-.69.54-1.85.95-1.51,1.94.26.79,1.45.43,2.21.54,1.63.24,3.53-.28,4.83.8,1.58,1.31,3.35,1.92,5.21,2.5,1.46.46,1.71-.01,1.39-1.39-.77-3.25-3.89-4.8-5.26-7.6,2.74-.68,3.33-3.41,4.77-5.36.34-.46-.04-.91-.56-1.13-.97-1.24-.57-1.94.9-2.07,1.49-.13,2.88-.44,4.1-1.36,1.5-1.12,1.66.99,2.81,1.31-1.13-3.64,2.48-5.89,2.32-9.2-1.91-.22-1.81,1.58-2.85,2.8.43-3.33-1.49-2.31-2.96-1.96-2.71.64-4.92,1.97-6.14,4.64-.31.67-.56,1.56-1.71,1.52-.04-1.03,1-1.72.6-3.4-1.12,3.22-3.31,4.29-6.26,4.48.22-1.42,1.21-2.3,2.12-3.05,1.7-1.41,3.47-2.7,4.51-4.72.23-.45.8-.98,1.14-.67,2.22,2.02,3.96-.5,5.95-.55.72-.02,1.24-.73.83-1.42-.45-.77-.94,0-1.39.24-.73.41-1.68,1.48-2.27.53-.6-.95-.51-2.4.78-3.19,1.31-.81,2.66-1.58,3.99-2.36.49-.29,1.12-.53,1.08-1.2-.06-1.04-1.16-.19-1.57-.78.3-.88,1.23-1.19,1.8-1.84.49-.56,1.14-1.13.79-1.9-.42-.92-1.13,0-1.7-.07-.23-.03-.45-.09-.71-.14.09-1.33,1.86-.96,2.13-2.26-5.86.8-9.63,4.53-13.17,8.7.86-3.5,2.49-6.25,6.05-7.48,1.53-.53,2.99-1.25,4.48-1.89.44-.19.97-.36.8-1.01-.12-.47-.55-.53-.97-.57-.48-.05-1.2.01-1.37-.26-.69-1.07-1.58-1.78-2.81-1.4-1.47.46-2.74,1.26-3.64,2.68-1.04,1.63-2.31,3.12-3.53,4.63-.39.48-.95,1.14-1.62.56-.66-.57-.08-1.02.32-1.6,2.6-3.73,6.48-6.08,9.59-9.19,1.99-2,3.94-2,6.13-2.35,1.38-.22,2.3-1.18,3.33-1.96,7.1-5.37,14.81-6.08,23.02-3.11,1.49.54,2.71,1.53,3.92,3.02-1.11.65-1.89-.89-3.22-.34,1.55,1.61,3.76,1.81,5.39,3.02.96.71.72-.91,1.24-1.28.14.04.34.04.41.13,1.97,2.61,1.96,2.6,4.32-.02.82-.9,1.68-1.78,2.61-2.56.86-.73,1.59-.56,1.97.97.42-5.32,3.95-7.02,8.2-7.96.58-.13,1-.54,1.27-1.07.73,0,1.47.08,2.18-.05,1.23-.22,3.12-.03,3.29-1.44.16-1.36.9-3.28-.97-4.35l.02.03c.3-.77.74-1.06,1.46-.44,1.22,1.05,2.33.42,3.3-.34,2.87-2.25,5.81-4.28,9.77-4.05-4.1-3.05-8.78-1.54-12.93-1.18-3.2.28-6.62,1.8-9.87,2.99-.63-1.86.31-3.69.12-5.55-.03-.31.17-.64.17-.95,0-1.61.27-3.68-.95-4.53-.95-.67-2.24,1.12-3.4,1.78-.55.32-.99.86-1.9.46.35-1.25,1.49-2.01,2.39-2.42,2.64-1.21,3.66-3.54,4.64-5.91.74-1.78,1.85-3.22,3.3-4.43.12,1.4-.93,2.38-1.29,3.61-.3,1.02-1.92,2.1-.97,2.89.89.74,2.41-.17,3.51-.88.27-.18.57-.33.79-.55,1.61-1.59,3.6-2.04,5.77-2.01-2.29,1.97-5.16,2.97-7.77,4.31-2.42,1.24-3.29,2.47-3.2,5.07.08,2.12-.11,4.22.61,6.8,1.54-4.97,5.28-6.62,9.17-8.11.98-.38,2.28-.62,2.81-1.37,1.4-1.95,3.03-.48,4.53-.61.28-.02.62.27.55.66-.06.36-.38.51-.73.51-.82,0-1.75-.68-2.48.5,4.21,1.35,8.45,1.97,12.81,1.74.5-.03,1.3.27,1.35-.62.03-.71-.44-1.27-1.15-1.37-.63-.09-1.28.08-1.92.08-1.97-.01-3.98.37-5.89-.28,2.11-.41,4.19-.76,6.3-.55.8.08,1.28-.15.84-1.13-1.84-4.16-6.77-6.67-11.3-5.8-1.49.29-3,.88-4.54.17,2.21-1.25,4.9-.76,7.16-1.92-2.44-3.53-5.92-4.93-9.36-3.72-1.9.67-3.75,1.49-5.62,2.24-1.15-.97-.19-1.29.52-1.71,1.91-1.13,4.11-1.46,6.26-2.14-3.98-2.49-8.32-.46-13.07-1.14,3.85-2.05,7.27-1.79,10.62-1.1,1.72.36,3.32,1.28,5.11,1.55.88.13,1.78.46,2.37,1.17,3.04,3.67,7.19,6.05,10.7,9.17,1.67,1.48,2.96,3.24,4.05,5.14,2.23,3.87,4.01,4.37,8.26,2.89,3.97-1.39,8.1-2.31,12.38-1.48,2.24.44,3.93-.47,5.47-2.24-1.13-.3-2.31.54-3.63-.69,3.34-.77,6.29-1.6,9.4-1.82,3.2-.23,5-3.53,8.09-4.02-2.43-2.79,1.68-1.32,1.72-2.51-1.49-.53-2.63-.09-6.86.39-2.59.3-3.56,2.87-6,3.29.89-2.84-.38-3.92-3.62-3.47-2.27.31-4.47,1.25-6.96.74,3.03-.5,4.23-3.08,6.02-4.96.2,1.3-1.13,2.09-1.19,3.64,2.55-.48,5.13.09,7.44-.5,1.35-.34,2.95.69,4.03-.73h9.13c-1.23-3.47-3.45-4.54-7.13-3.48,1.42-1.55,1.21-2.67-.81-3.45-.7-.27-1.38-.74-1.69-1.7,3.08-.32,5.03,3.16,8.52,1.6-2.25,2.4-.51,3.08.77,4,.89-.65.14-1.67,1.06-2.53-.79,2.88.74,4.2,2.87,4.59,1.32.24,2.61.58,3.63,1.24,1.5.97,2.45,1.13,3-.97,1.42,1.07,1.15,3.33,3.25,3.67-1.46-6.27-5.73-9.21-11.66-10.34,1.64-1.41,1.5-2.27-.15-3.1-1.49-.75-3.37-.27-4.57-.92-3.39-1.86-6.35.5-9.5.38-.34-.01-.61.3-.52.67.69,2.8-1.18,1.18-2.08,1.21-.81-.26-1.81-.22-2.17-1.37,2.71-1.04,5.3-2.29,8.33-2.03.92.08,2.28-.21,2.48-1.15.26-1.2-1.14-1.67-2.02-2.14-1.57-.84-3.54-.96-4.68-2.79,3.86,1.99,7.96-1.16,12.24.76-2.48,1.36-4.97-.38-7.25,1,2.74,1.46,4.55,4.03,7.6,4.58.91.16,2.04.85,2.7-.06.57-.77-.27-1.67-.63-2.47-.1-.21-.12-.46-.23-.93,2.24.57,3.34,2.33,4.08,3.92,1.25,2.66,3.1,4.72,5.12,6.73,1.57,1.57,2.8,3.37,3.47,5.52.32,1.01.79,1.34,1.71.4,1.16-1.19,2.29-2.34,2.02-4.2,3.77.38,6.25-2.46,9.61-3.39-3.52-.21-5.41-2.98-8.02-4.43-1.14-.63-2.2-1.37-3.34-.73-1.33.73.4,1.86-.07,2.94-1.35-.38-1.09-2.92-3.19-2.33-1.27.36-2.6.86-4.03.21,2.04-.66,4.06-1.3,6.11-1.9,4.93-1.44,7.1,2.29,10.21,4.36.7.46,1.41.92,2.26.6,2.11-.8,4.34-1.08,6.66-1.29-.61-1.92-2.49-.71-3.48-1.9.9-.85,2.37-.33,3.35-1.4-.89.11-1.64.31-2.36.24-.49-.05-2.11.8-1.1-1.16.39-.76-1.19-1.36-1.94-1.84-1.29-.83-2.72-1.44-4.05-2.84,2.65,0,4.54,1.23,6.19,2.59,3.05,2.52,3.41,2.53,5.07-1.58.18,2.06.86,3.11,2.75,2.22.17-.08.52.02.7.16,2.65,2.03,3.82.24,4.87-1.87.07-.15.11-.35.22-.43,2.34-1.68,2.09-3.22-.09-4.88-.86-.66-.73-.83-.63-2.59,2.15,1.62,3.65,4.68,6.97,2.99-.2.66-.31,1.31-.01,1.97-.15,4.65,2.55,7.66,5.67,10.43.91-.49-.04-1.24.67-1.63.74,1.65.61,3.76,2.69,4.98.13-1.53.24-2.92.39-4.68.74,1.04.79,1.92.89,2.82.06.59-.3,1.53.54,1.67.97.16.95-.92,1.25-1.53.28-.58.44-1.23.72-1.81.17-.34.73-.85.86-.33.58,2.4,1.22.21,1.61,0,1.47-.82,2.41-2.38,4.03-3.02.2-.08.45-.01.92-.01-.54,1.51-1.65,2.23-2.78,2.92-.4.25-1.07.48-.76,1.04.38.7.97.31,1.42-.07,2.76-2.27,5.94-3.63,9.41-4.34.45-.09.94-.33,1.68.29-2.6,1.43-5.44,2.07-7.8,4.02,4.02-1.6,7.82-1.34,11.74.6-.43.38-.57.58-.66.57-2.95-.46-5.92-.39-8.88-.43-.6,0-1.51-.38-1.54.58-.03.84.59,1.66,1.56,1.48.93-.18,1.78-.74,2.69-1.09,1.22-.47,1.94-.24,1.64,1.28-.16.8-.24,1.62-.49,2.39-.38,1.17-.01,1.84.87,2.72,1,.98,1.5.43,2.24-.08.51-.35,1.05-.32,1.54-.02.07,1.15-1.41,1.21-1.36,2.23.42.33.83.16,1.16-.05,1.22-.78,2.7-2.54,2.4.91-.05.55.74,1.61,1.51.8.88-.92,3.36-.75,2.35-3.12-.14-.34.23-.65.54-.69,1.48-.18,3-.74,4.58.22-1.17,1.78-3.19,2.1-4.55,3.33-.38.35-1.3.42-.92,1.17.36.73,1.18.55,1.74.25,2.28-1.21,4.56-2.38,7.01-3.18-.28-1.18-1.5-.63-2.09-1.47.85-.67,1.93-.35,2.68-.24,1.72.24,3.02-.11,4.14-1.42.44-.52,1.19-.88,1.72-.4.55.5-.21.97-.45,1.45-1,2.05-2.81,2.79-4.89,3.14-.59.1-1.33-.18-1.75.61,2.33.9,4.65-.29,6.96.08.76.12,2.01-.29,1.93.77-.08,1.12-1.35.51-2.05.45-2.74-.26-5.41-.64-8.2.05-1.48.37-2.68.96-3.95,1.67,2.09,2.85,4.95,2.21,7.59,1.75.18.65-.08.71-.27.85-.63.46-1.83.61-1.77,1.44.07,1,1.32.63,2.01.95,1.78.84,3.29,2.09,4.87,3.22.74.53.51,1.09.22,1.7-.94-.33-1.94-.74-2.57.43-1.15,2.14,2.25,1.48,1.97,3.16-1.1.62-2.12-.72-3.36-.15.41,1.13,1.96,1.54,1.83,2.99-.03.37,5.2.98,5.55.61.63-.66.17-1.38,0-2.06-.32-1.28-1.66-2.01-1.84-3.38,2.21-.51,2.66,1.57,3.6,2.68.8.95,1.16,1.18,2.28.51,2.01-1.21,3.98-2.54,6.28-3.2.61-.17,1.39-.75,1.76-.05.46.87-.62.9-1.1,1.23-1.17.8-2.55,1.03-3.87,1.44-1.36.42-2.56,1.18-3.13,2.54-.57,1.36.93,2.66.28,4.08,1.84.65,3.2,2.28,5.19,2.6,1.65.27,3.02.99,4.13,2.33-2.36-.91-5.03-.5-7.21-2.01-.52-.36-1.16-1.02-1.7-.41-.75.85.42.96.78,1.37.92,1.06,2,1.62,3.45,1.2.89-.26,1.56.18,2.17.81-.09,1.09-2.01.52-1.64,1.64.21.63,1.13,1.18,1.85,1.46,1.46.56,1.22,2.53,2.68,3,2.2.7,4.46.95,6.69.27,3.95-1.21,6.47-.52,8.08,2.64-2.23-1.62-4.71-1.84-7.27-1.61-.32.03-.67-.06-.97.01-.96.23-2.71-.18-2.63.96.09,1.24.41,3.26,2.69,3.02.37-.04.76.12,1.17.19-.12.94-.92.62-1.32.93-.74.57-.77,1.09.14,1.39.83.28,1.87.78,2.56.5,4.21-1.67,7.13,1.26,10.45,2.72.87.38,1.72.55,2.61.31,2.26-.59,4.3.02,6.64.96-1.72,1.35-3.64,1.32-5.36,1.93.76,1.82,1.51,3.61,2.25,5.39.21.5.84,1.08.23,1.51-.79.56-1.06-.4-1.47-.81-.34-.35-.59-.8-1.96-.39,1.86,1,2.57,2.55,4.27,3.25,4.43,1.82,8.5,4.17,12.3,7.19,2.97,2.35,6.06,4.86,10.24,5.1,2.2.13,3.76,1.39,4.33,3.79-.87-.03-1.17-.79-1.71-1.17-.66-.47-1.32-1.38-1.96-1.35-3.09.11-5.67-1.99-8.52-2.02-2.12-.02-3.71-.59-4.8-1.96-.75-.94-1.52-1.43-2.87-1.97,1.32,3.48,2.54,6.72,3.86,10.19-1.42-.11-2.24-.96-3.22-1.44-.57-.28-1.18-.88-1.77-.33-.66.62.05,1.16.4,1.67.09.13.22.25.3.39,1.3,2.28,2.1,4.55-.58,7,.22-2.82,1.29-5.7-1.76-7.72,0,5.25,0,10.36,0,15.48-.71-1.18-1.37-2.4-2.15-3.53-.59-.85-1.56-1.44-2.52-1.02-1.11.48-.48,1.49-.31,2.35.22,1.11,1.2,2.14.84,3.25-.87,2.68,1.79,2.21,2.74,3.23.3.32.75-.05,1.04-.36.58-.63,1.18-.33,1.77-.01.09,1.42,1.11,1.03,1.96,1,2-.06,4.07-.46,5.7,1.25.58.6,1.2.21,1.77-.12,1.48-.85,2.85-1.85,4.09-3.03.46-.44,1.09-1,1.69-.41.7.69-.05,1.15-.53,1.55-.75.62-1.5,1.26-2.32,1.78-1.08.69-2.99.95-1.07,2.79.25.24.16.64-.1.87-.35.32-.82.23-1.13,0-1.38-1.01-2.52-.37-3.46.59-2.55,2.63-4.64,5.64-6.22,8.92-1.33,2.77-.49,3.71,3.51,4.49.49-.85-.45-1.28-.59-1.95-.14-.68-.87-1.2-.47-2.21,1.13.87,1.79,1.97,2.04,3.21.36,1.8,1.63,2.42,3.13,2.53,2.64.2,5.34.59,7.83-.82.58-.33,1.29-.66,1.84-.25.97.72-.19.97-.45,1.42-.23.39-.01.62.31.76.29.13.67.37.91.29,4.03-1.4,7.23,1.44,10.83,2.17,2.57.52,5.13,1.56,6.65,4.04-1.27-.08-2.22-.89-3.3-1.43-3.05-1.52-6.17-2.81-9.79-2.94.29.68.75.62,1.09.79,3.07,1.63,6.77,2.21,8.89,5.39l-.08.09c-1.74-.24-3.15-1.22-4.74-2.02,2.39,2.03,3.43,4.9,5.02,7.42,2.42,3.84,3.29,7.88,3.17,12.24-.11,3.99,2.1,7.07,3.83,10.33,1.22,2.3,2.42,4.56,2.74,7.21.11.94.41,1.88,1.08,2.68.49.58,1.43,1.36-.31,1.75-.43.1-.14,1.03-.1,1.59.2,2.82.38,5.65.56,8.47.05.72.25,1.76-.62,1.87-1.13.15-.69-1.01-.82-1.63-.7-3.36.13-6.81-.57-10.17-.26-1.24-.35-2.55-1.31-3.46-1.58,5.48-.19,10.79.61,16.12.06.4.17.81.13,1.2-.04.51-.29,1.02-.86,1.01-.5,0-.51-.56-.61-.93-.59-2.07-.51-4.2-.36-6.29.17-2.4-.45-4.65-.97-6.98-.63,3.05.51,6.28-.71,9.95-.92-2.21-1.16-3.8-.94-5.51.42-3.32.25-6.66-.02-9.98-.05-.58.41-2.44-1.42-1.19-.09.06-.29-.02-.43-.03.17-1.54-.92-1.58-1.69-1.06-1.13.76-.07,1.73.18,2.6.11.39.25.76.4,1.19.84-.13.33-1.22,1.6-1.53-.71,4.11-.84,8.1-.22,12.1-2.96-2.77-1.62-6.73-3.32-10.46.11,2.95-.58,5.2-.89,7.52-.31,2.32-1.01,4.63-.6,7,.28,1.6-.98,1.02-1.66,1.28-.19-2.03.47-4.21-1.19-6.33-.29,1.55-.63,2.8-1.43,4.01-.97-1.34-1-2.75-1.25-4.07-.26-1.39-.32-2.81-1.66-3.81-1.14,4.17.65,8.53,3.4,13.73.1-1.47.19-2.74.31-4.39.53,1.04.11,1.96.81,2.68.36-.66.69-1.26,1.02-1.85.56,1.03.38,2.16,0,3.09-1.81,4.3-.94,8.6-.23,12.92.05.32.19.65.16.96-.11,1.24-.49,2.93-1.6,2.96-1.32.03-.88-1.73-.77-2.59.58-4.48-.57-8.7-1.57-12.97-.22-.94-.27-2.33-1.56-1.95-1.24.36-1.38,1.9-.99,2.94.77,2.08.96,4.25,1.44,6.37,1.04,4.59,1.75,9.23,2.33,13.89.07.57.45,1.48-.56,1.56-.84.06-.9-.67-.93-1.39-.23-6.05-2.28-11.8-2.88-17.79-.07-.68-.25-1.4-1.15-1.23-1.38.25-.18.98-.16,1.43.15,2.58.55,5.14.19,7.76-.47,3.4.33,6.74.82,10.08.12.81-.03,1.7-.87,1.69-.82,0-.6-.99-.59-1.6.03-2.44.05-4.88.19-7.31.16-2.9-.75-5.63-1.12-8.45-.15-1.1-.93-1.84-1.93-2.58-.32,2.15.47,3.88,1.24,5.63.27.61.51,1.38-.28,1.69-.7.28-.9-.54-1.16-.99-.44-.77-1.18-1.64-1.09-2.39.56-4.92-2.35-9.36-1.98-14.27-2,5.48-.75,11.58-3.08,17.03.1-10.77,3.9-21.41,1.03-32.24-1.7,3.11.73,6.64-1.05,9.74-.67-.14-.75-.63-.74-.98.01-2.21-1.26-4.07-1.65-6.11-.44-2.26.03-4.68.02-7.03,0-.72.54-1.8-.64-2.06-.72-.16-1.55-.7-2.31.03-.79.75-1.04,1.69-.7,2.68.71,2.09,1.36,4.2,1.38,6.41.02,1.69-1.19,3.14-.47,5.09,1.48,3.99,1.15,8.19,1.05,12.41-.07,3.3.23,6.67-.3,9.91-.51,3.14-.1,6.1.62,9.07.24.98-.26,1.49-1.23,2.69,2.64-1.23,2.73.33,2.87,2.36,2.11-3.55,3.18-6.53,2.23-10.24,2.56,2.83,2.41,4.37,1.11,7.15-1.05,2.25-2.53,4.29-3.32,6.66-.21.62-.67,1.36.62,1.22.05.63.09,1.26.14,1.88-.62-.06-1,.56-1.49.62-.8.09-.72-.68-.82-1.22-.33-1.74-.55-4.2-2.41-4.31-2.79-.15-1.27-2.01-1.81-3-1.3-2.35.22-5.01-1.22-7.57-1.34-2.37-1.39-5.46-2.02-8.23-.14-.61-.27-1.25-.93-1.58-.69.58-.55,1.28-.33,1.85,1.7,4.44,1.67,9,1.13,13.64-.18,1.57.44,3.19-1.7,4.16-1.14.52-1.21,2.2-.6,3.52.98,2.12.75,4.44,1.04,6.67.07.52.14,1.33-.6,1.39-.75.06-.7-.74-.81-1.28-.42-2.23-.09-4.61-.5-6.7-.64-3.26-.4-6.55-1.04-9.77-.37-1.89-.53-3.83-.79-5.82-2.21,2.35-2.52,6.53-.61,9.52.76,1.18,1.09,2.11.54,3.54-.97,2.55.46,5.09.49,7.67.01,1.39.02,2.54-1.49,3.22-1.25.56-.91,1.75-.78,2.78.12.99.35,2.19-1.12,2.17-1.39-.02-.98-1.31-.9-2.07.54-5.62-.21-11.15-1.04-16.67-.09-.62-.12-1.57-.86-1.54-.96.04-.73,1.06-.84,1.75-.47,2.95-1.9,5.7-1.43,8.97-1.59-.6-1.41-1.63-1.47-2.44-.24-3.31-.39-6.62-.58-9.94-.02-.32,0-.66-.08-.97-.19-.76-.2-1.92-1.18-1.85-.88.06-.59,1.18-.65,1.86-.49,5.75-.11,11.5-.15,17.25,0,.24.1.48.1.72,0,.89-.3,1.87-1.21,1.83-1.3-.05-.59-1.21-.63-1.91-.02-.37.33-.76-.14-1.13-1.43,2.16-.07,4.36-.03,6.85-1.46-1.04-2.24-2.3-2.31-3.66-.13-2.46-.51-4.8-1.59-7.04-.22-.45.02-1.11.05-1.68,1.78.47,1.09,2.69,2.42,3.58,1.36-3.46.11-7,.88-10.39.14-.6,0-1.71-1.17-1.19-1.12.51-1.14-.23-1.1-.87.09-1.3.2-2.61.49-3.87.53-2.33,1.04-4.63.25-7.4-.93,2.07-1.35,3.87-1.71,5.69-.96,4.83-1.07,9.65-.03,14.48-.88.06-1.17-.78-1.88-1.26-.81,1.16-.39,2.75-1.43,3.99-.51-1.01-.33-1.83-.03-2.67.4-1.1.41-2.24.35-3.38-.03-.66-.41-1.4-1.09-1.44-.74-.04-1,.75-1.09,1.4-.27,2.17-.82,4.31-.6,6.53.06.63.17,1.5-.66,1.62-.8.12-.6-.75-.76-1.25-1.1-3.39-2.82-6.5-4.54-9.53-2.05,2.47-3.3,5.31-2.41,8.76.15.6-.03,1.28-.62,1.44-.88.25-.87-.6-.83-1.1.11-1.48-1.15-.22-1.47-.79-.67-1.15-1.1-2.38-1.03-3.71.39-7.2.31-14.42.17-21.6-.14-7.21.8-14.64-1.9-21.52-.49,2.1-.36,2.07.25,4.7.31,1.34,1,2.81-.04,4.23-.46.63-.25,1.42-.08,2.13.77,3.14.68,6.11-.39,9.31-.87,2.58.33,5.5.53,8.27.16,2.28,1.37,4.48.38,6.89-2.48-4.84-1.75-10.42-3.4-15.44-1.56,3.41-.03,7.2-1.57,10.71-.38-3.01-.76-6.02-1.14-9.03-.28.02-.55.03-.83.05.51,6.76.74,13.51.74,20.54-1.83-1.3-.66-2.93-1.29-4.18-1.92,8.14-.09,16.16,1.48,24.19-.35.04-.7.09-1.05.13-.35-1.2-.7-2.41-1.07-3.61-.18-.58-.02-1.62-.84-1.52-.99.12-.59,1.14-.6,1.83-.03,2.74-.03,5.49-.09,8.23-.01.6.15,1.54-.77,1.52-.89-.03-.71-.96-.71-1.57,0-4.62.01-9.25.04-13.87,0-.79.4-1.87-.54-2.15-.98-.29-.77,1.01-1.23,1.49-1.43,1.49-.57,3.03-.16,4.55.42,1.54,1.08,3.04.21,4.77-.91-2.89-3-5.8-2.27-8.69.92-3.63-1.95-5.34-2.33-8.15-.29.03-.58.07-.87.1,0,3.52,0,7.05,0,10.57,0,.47,0,1.14-.56,1.21-.85.11-.78-.67-.8-1.2-.07-2.18-.11-4.35-.14-6.53-.01-.78.47-1.6-.27-2.33-.92.19-.74.96-.78,1.55-.34,4.46-.06,8.85,1.01,13.22.39,1.6,1.36,3.37-.09,5.01-1.18-1.34-1.24-3.07-1.42-4.68-.36-3.1-1.55-5.96-2.18-9.1-.88,1.31-.59,2.95-1.89,4.51-.22-2.72-.05-4.93.35-7.12.18-.96.75-2.23-.36-2.56-1.09-.32-1.11,1.07-1.33,1.9-.13.47-.28.96-1.21.89-.04-2.78,1.01-6.07-3.09-7.95.59,5.41-.29,10.38-1.86,15.3-2.35-2.61-2.38-5.64-1.86-8.8-1.35,1.78-1.08,3.73-.73,5.59.47,2.5.46,4.68-2.13,6.08-.36.2-.52.76-.93,1.39-1.22-1.68.17-4.32-2.32-5.03-1.82,5.17-3.78,10.45-4.49,16.08-.07.54.12,1.32-.59,1.45-.94.18-.82-.77-1.09-1.3-1.54-3.09.55-6.01.61-9.05.06.67.12,1.34.17,2.02.9-1.81,1.54-3.38.18-5.43-.83-1.24-.47-3.29-.6-4.99-.05-.64.15-1.44-.77-1.51-.8-.07-1.11.57-1.19,1.28-.64,5.71-1.25,11.42-1.9,17.13-.16,1.41.05,2.92-.89,4.16-.07.09-.58,0-.61-.08-.42-1.42-.53-2.89-.11-4.3.79-2.71.59-5.41.23-8.14-.35-2.63-.99-5.22-.93-8.02-1.36.49-.23,3.03-2.49,2.45-.38-.1-.21.96-.16,1.49.15,1.57.51,3.16-.33,5.13-1.27-2.76.42-5.33-.78-7.68-.23,2.33-3.59,3.46-2.22,6.25-2.32-.58-2.55,1.12-3.04,2.58-2.26,6.64-.15,13.32-.2,19.98-.03,3.32.47,6.65.84,9.96.17,1.51-.28,2.07-1.81,2.05-5.7-.06-11.41-.07-17.11-.01-1.69.02-2.4-.68-2.32-2.32.49-10.16.3-20.35,1.18-30.5.19-2.19.46-4.37.63-6.56.09-1.11.27-2.23-.61-3.24-.68-.78-.23-1.86.22-2.51,1.45-2.15.74-4.53,1.29-7.18-2.81,2.27-2.42,5.13-2.58,7.98-1.18-.47-1.32-1.34-1.37-2.18-.15-2.33-.17-4.74-.43-6.99-.33-2.8.11-5.92-2.03-8.49-1.97-2.36-3.5-5.1-5.18-7.7-.72-1.12-1.56-2.08-2.77-2.67-.92-.45-2-1.73-2.37.5-.06.33-.41.55-.76.43-.58-.2-.47-.75-.57-1.22-.13-.63.7-1.61-.45-1.85-.98-.21-1.01.9-1.39,1.44-1.01,1.43-1.43,3.07-1.55,4.81-.04.57-.14,1.33-.79,1.35-.99.03-.79-.95-.74-1.48.2-2.19-.39-4.35,0-6.55.37-2.05-2.05-4.56-4.02-3.92-1.78.57-1.29,2.66-1.44,4.14-.1,1.1.24,2.23.32,3.36.02.27-.19.69-.41.8-.51.24-.75-.26-.86-.61-.22-.69-.46-1.43-.42-2.14.1-1.71-.36-3.19-1.38-4.54-.46-.6-.51-1.35-.58-2.09-.06-.67.36-1.64-.63-1.85-.73-.16-1.34.48-1.9.95-.63.53-.85,1.16-.44,1.95.39.76.74,1.55,1.26,2.64-3.53-2.18-6.21-1.5-6.39,1.42-.09,1.41.18,2.91.18,4.32,0,4.86,3.51,8.41,4.44,12.87.25,1.2,1.55,3,.25,3.49-1.35.51-1.31-1.71-1.58-2.69-.74-2.63-1.77-5.03-3.55-7.12-1.23-1.44-.54-3.46-1.55-5.45-.06,3.13-.19,5.74.64,8.49,1.27,4.23,3.18,8.54,2.68,12.97-.43,3.82.53,7.35.66,11.01.09,2.58-1.21,5.11-1.49,7.79-.21,2.08-.81,4.16-.48,6.37-1.89-.29-1.46-2.67-3.04-2.65-.35,4.54.68,8.97.31,13.5-.24,2.99.83,5.8,3.11,7.95.63.59,1.09,1.2.7,2.25-1.01-.13-1.33-1.09-1.98-1.59-.42-.33-.59-1.14-1.3-.87-.71.28-1.15.93-1.18,1.72-.07,1.48.48,2.84,1.17,4.17-1.3.43-1.11-1.17-1.92-1.13-.85.83.2,1.98-.44,2.64-1.73.75-.38-2.79-2.43-1.48-.3-4.29.78-8.69-1.46-13.54,0,3.72,0,6.77,0,9.81,0,.73.16,1.8-.5,2.02-3.08,1.03-1.79,3.2-1.59,5.17.13,1.25.71,2.64-.19,3.79-2.05,2.61-1.33,5.08.21,7.55-1.95.53-3.14-.34-3.06-2.57.14-3.89.48-7.77.75-11.65.02-.32.16-.65.14-.96-.48-6.32,1.73-12.46,1.29-18.77-.29-4.12-1.52-7.99-3.57-11.56-.58-1.01-.03-2.31-1.06-3.11-2.54,1.68-3.18,4.24-1.9,7.93,1.14-.6.76-2.26,2.24-3.07-.49,3.03-2.35,5.32-2.5,8.35-.08-.2-.14-.42-.25-.61-.44-.7-.42-2.17-1.55-1.83-1.18.35-2.15,1.85-1.71,2.89,1.14,2.66-.07,5.16.01,7.8-.81-.78-.23-1.96-1.01-2.79-.86.76-1.24,1.49-.76,2.76.99,2.58-.65,5.27.2,7.95.48,1.52.24,3.28.75,4.79.85,2.51-.09,4.69-.56,6.95-.54.08-.9-.17-.87-.45.5-4.25-2.45-8.25-.92-12.62.24-.7.46-2.09-1.28-2.23-1.2-.1-.61-1.2-.66-1.95-.11-1.66,1.2-3.4-.23-5.35-.84,2.19.37,4.47-1.32,6.36-1.42-3.37-.19-6.73-.67-9.96-.98,1.45-.78,3.08-1.02,4.62-.13.85-.35,1.82-1.42,1.5-.99-.3-.45-1.25-.19-1.82.81-1.77,1.41-3.34-1.19-4.16-.94-.3-1.21-1.25-1.13-2.38-1.07.93-.51,2.59-2.06,3.14-.36-1.67.44-3.03.86-4.45.55-1.86.68-3.61-.56-5.33-.9-1.26-.89-2.92-.46-4.24,1.04-3.24-.44-6.2-.61-9.32-1.06,1.44.34,3.27-.88,4.74-.76-.73-.58-1.77-.9-2.74-1,.69-.49,2.29-1.85,2.78-1.47-2.47,1.35-4.75.37-7.32-1.12,2.38-3.67,3.81-3.22,6.82-1.01-.81-.94-1.71-.85-2.67.07-.78,1.03-1.87-.25-2.28-1.12-.36-1.9.42-1.94,1.88-.92-1.76-1.55-3.3-2.56-4.71-.68-.95-.91-2.48-.45-3.78,1.3-3.69-.34-7.24-.43-10.86,0-.31-.25-.6-.67-.59-1.13,6.23-.82,12.61-1.31,19.41-1.63-1.28-.88-2.64-1.91-3.53-1.5,3.94.39,8.29-1.91,12.61-.29-5.19-1.45-9.7-1.25-14.4.2-4.74.04-9.5.04-14.35-.28.18-.48.23-.51.33-.25.87.05,2.4-1.23,2.21-1-.15-.33-1.56-.35-2.39-.07-2.22-.02-4.44-.33-6.65.48,3.67-1.61,7.2-.54,10.92.26.89-.22,1.98-1.5.81-1.08-.91-2.21-1.45-3.55-.49-.88-1.41-.63-3.33-2.33-5.04-.1,2.5.58,4.37.82,6.29.15,1.26,1.45,3.26-.13,3.64-1.18.29-.92-2.13-1.32-3.32-.25-.77.42-2.13-.84-2.2-1.55-.09-1.3,1.45-1.3,2.39.01,2.2-.2,4.37-.39,6.55-.08.95-.37,1.7-.88,2.35-1.09-.09-.14-1.97-1.47-1.49-1.06.38-.84,1.47-.74,2.35.16,1.45,1.03,2.74.93,4.29-.89-.11-.26-1.46-1.41-1.47-.13,1.86,1.04,3.75.03,5.84-1.27-1.23-.74-2.62-.8-3.87-.36-7.34-.71-14.68-1.05-22.03-.06-1.2-1.08-1.82-1.72-2.53-.6-.67-.93.18-1.03.92-.32,2.5-.6,4.95-.09,7.5.7,3.51.88,7.05.19,10.66-.37,1.95-.25,4.04.2,6.07.31,1.38.45,2.83-.76,4.06-.07-8.71.03-17.41-.88-26.11-.05,3.21-.33,6.36-1.59,10.05-.92-3.51-.63-6.43-.33-9.24.5-4.64,0-9.24-.04-13.85-.03-3.06-.28-6.2.32-9.15.52-2.56-.51-4.45-1.41-6.58-.2,4.23-.46,8.44-.75,12.32-.8-1.25-.96-1.95-1.02-4.27-.04-1.6-.26-3.2.05-4.81-1.09,1.89-1.04,5.17-.26,11.92.46,3.96.63,7.96.95,12.34-2.04-1.41-2.5-2.61-2.26-4.71.43-3.83.12-7.74.12-11.61-.29-.02-.58-.04-.86-.06-.42,1.84-.83,3.68-1.25,5.52-.12.53.03,1.32-.65,1.44-.88.15-.79-.82-1.46-1.83.78,4.53,1.39,8.54-.74,12.4.19-4.36-1.26-8.47-1.56-12.76.73,1.23.4,2.89,1.97,4.21.11-3-.19-5.55-.82-8.1-2.56.68-1.54,3.53-3.15,4.69-.5-3.54.03-7.19-1-10.71-.41,1.59-1.97,2.81-1.6,4.54.47,2.18.52,4.33.27,6.53-.06.52-.29,1.26.39,1.52.64.24.87-.62,1.39-.8ZM48.72,180.13c0-4.66,2.7-9.23.74-14.27-1.46,1.67-3.27,2.51-3.96,4.49.72-3.39-.33-6.94,1.46-10.5,1.35,2.43-.14,4.52.17,6.7,1.82-1.82,3.07-8.21,1.42-9.5-1.82-1.43-1.03-2.19-.51-3.63.42-1.13-.57-2.67-1.49-2.9-1.11-.28-2.18.49-1.92,2.26.24,1.71-.46,2.84-1.89,4.63-1.42,1.77-1.38,7.14.13,9.55,1.43-1.25.19-2.77.16-4.46,1.12,1.17,1.32,2.25,1.28,3.27-.13,3.26.53,6.28,2.18,9.11.55.95.25,2.02.09,3.03-.32-.46-.43-.94-.65-1.38-.34-.69-.42-1.84-1.47-1.63-.78.16-1.11,1.07-1.28,1.91-.28,1.4.01,2.76.31,4.1.2.87-.65,2.33.66,2.5.94.12,1.59-1.21,2.2-2.07.09-.13.19-.28.21-.44.28-1.81,1.03-.27,1.56-.22-.29,1.96.69,3.92.09,5.94-.71-.27-.69-.81-.85-1.25-.19-.53.21-1.74-.72-1.42-.92.32-2.68.39-2.54,1.68.18,1.65-.35,3.22-.1,4.84.7,4.54,1.33,9.09,2.05,14.12.52-1.95.96-3.47,1.33-5.01,1.01-4.28.77-8.75,1.8-12.98.57-2.36.2-4.36-.47-6.48ZM349.49,171.43c.04-3.29-.4-6.38-1.59-9.3-1.23-3.01-2.99-5.49-6.6-6.12-1.56-.27-3.05-1.09-4.34-2.13-1.24-.99-2.67-1.53-4.23-1.74-.69-.09-1.68-.51-1.84.49-.16.97.84,1.39,1.64,1.4,5.73.08,7.87,4.57,10.48,8.48.02.03-.17.22-.43.53-1.59-1.47-3.26-2.85-4.73-4.42-1.25-1.34-2.9-1.74-4.5-2.26-.47-.15-.97,1.79-1.76.2-.69-1.41-1.69-2.35-3.27-2.64-.24-.04-.8-.12-.53-.55,1.04-1.66-.57-1.32-1.17-1.44-1.12-.21-2.29-.17-3.73-.26.91,1.3,2.13.76,2.88,1.44-.86.5-2.02-.19-2.57.6,1.32,4.01,4.08,5.8,8.09,5.94,1.01.04,2.03.53,3.01.91,1.74.68,3.28,1.96,4.98,2.46,3.69,1.08,6.51,2.91,8.3,6.37.36.7.66,1.68,1.91,2.04ZM18.64,139.16c.23,1.01.32,1.92.65,2.73.5,1.24.67,3.28,1.76,3.48,1.53.28,2.39-1.56,3.41-2.71,1.91-2.14,3.04-5.21,6.45-5.71.54-.08,2.47-3.83,2.18-4.1-1.02-.94-1.71.34-2.58.48-.52.08-.97.11-1.16-.52-.21-.71.09-.94.76-1.18,1.91-.69,3.34-2.29,5.34-2.87.74-.22.92-.88.08-1.13-2.9-.85-5.86-1.54-8.62.38-.9.63-1.42,1.64-2.53,2.16-3.78,1.8-4.66,5.5-5.74,8.99ZM334.34,162.3c.1,1.05.66,1.78.26,2.75-.56,1.37.13,2.65.6,3.96,1.81,5.03,5.08,9.01,8.88,12.62.38.36.59,1.17,1.3.88.72-.3.76-1.06.56-1.69-.78-2.38-.39-4.83-.54-7.24-.08-1.28,0-2.67-.8-3.76-.6-.81-1.12-2.09-2.25-1.98-1.03.1.12,1.53-.69,2.04-.12.08-.29.08-.78.19.37-4.55-2.76-6.26-6.53-7.76ZM88,235.66c.85-1.84.59-3.58.95-5.64,2.03,3.59.4,7.48,2.08,10.72-.11-4.61,4.22-8.16,3.06-13.05-.61.63-.37,1.78-1.49,1.81-1.28-4.22-1.37-5-.77-6.79,1.01.2.18,1.85,1.45,1.88.71-3.3-.06-6.76-2.53-11.52-2.21,3.76-4.18,19.04-2.76,22.61ZM30.85,124.73c-2.32-.46-3.95-1.36-5.61-2.2-3.44-1.76-7.11-1-9.32,1.82-.05.06-.12.11-.19.15-3.27,2.18-3.66,5.63-4.03,9.09-.07.67-.08,1.39.53,1.77.72.45,1.42-.21,1.63-.64.57-1.17,3.67-.84,1.99-3.3,2.51-.88,1.4-2.35.69-3.83-.11-.23.23-.72.44-1.04,1.31-2.04,3.45-2.76,5.54-3.63-.02.43-.15.72-.36.93-1.25,1.27-2.58,2.46-3.75,3.8-.66.76-.9,2.03-.23,2.71.75.77,1.36-.45,1.97-.84,3.19-2.03,6.54-3.7,10.71-4.8ZM315.46,117.84c-.09-1.21-.2-2.43-.27-3.64-.21-3.57-3.42-9.28-6.33-11.3-.95-.66-2.09-1.49-3.1-.84-1.17.76-.34,2.06-.07,3.12.83,3.21,2.44,6.19,2.94,9.49.34,2.24.23,2.23,2.27,1.82.29-.06.72.28,1.01.52.7.56,1.32,1.2,2.04,1.74.29.22.77.4,1.09.31.58-.15.49-.75.41-1.23ZM154.09,271.01c.02-9.94,2.65-20.03-1.72-29.79-.87,1.63-1.96,3.3-1.94,4.94.06,3.56.45,7.16,1.18,10.64.46,2.19.55,4.25.37,6.45-.22,2.68-.84,5.59,2.11,7.75ZM202.48,20.46c2.02,2.08,3.94,3.94,5.7,5.88,2.08,2.29,4.05,2.85,6.76,2.12.45-.12,1.11-.76,1.19.37.05.76-.07,1.35-1.05,1.09-.8-.21-1.3.02-1.29.91.01,1.02.78,1.11,1.53,1.15,1.44.06,2.25-1.15,3.36-1.76.8-.44.74-1.01.19-1.97-2.3-4-6.33-5.1-10.23-6.35-1.91-.61-3.54-2.48-6.16-1.44ZM93.46,47.54c2.06.44,3.37-1.21,5.13-1.04,3.16.3,6.25,1.05,9.51.84,2.62-.17,5.31.24,7.92,1.07,1.01.32,3.08.77,3.3-.72.16-1.09-1.67-1.73-3.04-1.84-.08,0-.16,0-.24,0-2.68-.35-5.14-2.07-8.03-1.32-.33.08-.79-.54-1.23-.67-1.53-.45-3.07-1.8-4.57-1.2-3.02,1.21-6.03,2.59-8.75,4.89ZM274.46,108.83c-.68,3.23,1.61,4.62,3.76,6.05.7.46,1.38,1.39,2.36.83,1.07-.61.76-1.69.54-2.63-.53-2.2-1.03-4.39-.99-6.7.02-1.37-.45-2.7-1.63-3.66-.62-.51-1.31-.75-2.02-.52-.92.31-.33,1.1-.34,1.68-.01.63.4,1.72-.11,1.8-2.17.36-1.37,1.97-1.56,3.15ZM138.41,46.61c-4.44-1.67-8.43.3-12.52,1.22-.81.18-2,.31-1.56,1.63.37,1.09,1.25,1.44,2.35.91,1.28-.61,2.55-.61,3.97-.43,6.18.75,9-.73,11.38-5.86-2.72.07-5.39-1.28-8.16.47,1.77.34,3.34.66,4.52,2.08ZM317.41,134.86c-1.77.16-2.41-1.08-3.47-1.4-.67-.2-1.45-1.4-2.03-.27-.49.94-.24,2.03.97,2.66q5.39,2.82,9.65-1.73c.11-.12.23-.23.35-.34.58-.48,1.17-1.01.8-1.85-.34-.77-1.11-.96-1.85-.92-2.8.15-5.67,1.13-8.23-.95-.33-.27-1.07-.34-1.33.14-.4.73.37.94.8,1.24,1.43.97,3.22,1.5,4.34,3.41ZM41.04,143.27c-.45-.79,1.26-3.24-1.41-2.28-4.17,1.5-6.4,7.06-4.9,11.16.31.85.5,1.07,1.52.52,3.83-2.04,4.84-5.38,4.79-9.4ZM223.82,255c3.4-5.81,4.59-11.98,3.74-18.6-.48,1.48-.75,3.12-2.23,3.92-1.51.82-1.83,2.26-2.05,3.66-.57,3.69-.28,7.36.54,11.02ZM84.24,210.23c-1.14,1.96-1.4,3.75-.94,5.8.86,3.85.75,3.87-.23,5.64-.38-.68-.02-1.76-1.45-2.38.44,2.64-.63,4.93.1,7.27.28.9.44,2.42,1.52,2.15,1.19-.29.29-1.62.27-2.52-.01-.93-1.24-2.32.22-2.72,1.36-.37.88,1.41,1.41,2.11.07.1.27.1.65.23.53-3.31.87-6.6,1.03-9.91.03-.68-.44-1.73.44-1.95,1.08-.27,1.08-.79.86-1.57-.06-.21-.4-.54-.42-.53-.56.39-1.14.76-1.62,1.24-.54.54-.1,1.23-.15,1.84-.12,1.26.78,2.74-.7,3.85-2.01-2.66.11-5.65-.98-8.55ZM45.67,71.21c3.95.8,7.34,1.53,10.71-1.12,2.17-1.7,5.04-2.17,7.85-.91.49.22,1.23.66,1.59-.4-7.06-2.74-13.68-2.38-20.15,2.43ZM313.33,188.73c0,2.16.28,3.8-.05,5.32-1.03,4.7-.31,9.49-.99,14.2-.1.71-.16,1.96.84,1.98.81.02.92-1.12,1.12-1.92.85-3.37.74-6.87,1.33-10.3.49-2.84.14-6.15-2.26-9.27ZM206.86,29.43c-1.19-1.41-2.07-2.45-2.94-3.48-.21-.25-.4-.52-.63-.74-2.54-2.39-3.15-2.38-5.68.01-.12.11-.28.19-.37.31-.58.76-2.39,1.17-1.97,1.79.74,1.07,2.03,2.03,3.56,2.15.72.06,1.52.15,2.18-.09,1.53-.54,2.46-.22,2.83,1.92.26-1.92,1.33-2.2,3.02-1.88ZM74.86,233.32c1.13-.49,1.07-1.42,1.15-2.27.16-1.71.59-3.39,1.41-4.86,2.54-4.58,1.56-9.22.53-13.9-.09-.41-.26-.83-.73-.83-.52,0-.55.52-.67.89-.45,1.34-.63,2.73-.07,4.06,1.19,2.83-.59,5.68.14,8.5.04.14,0,.37-.11.46-2.37,2.32-.48,5.41-1.64,7.95ZM101.4,250.66c.59-2.52.75-5.09,1.47-7.56.28-.96,0-2.04-.57-2.6-.21-.21-.31-.56-.41-.86-.75-2.48-1.64-4.93-1.18-7.6.1-.57.17-1.37-.54-1.38-.87-.01-.76.84-.71,1.49.09,1.05.05,2.12.3,3.13.31,1.26-1.52,1.5-1.17,2.28.4.89,1.49,1.46,1.57,2.63.02.24.04.5-.03.72-1.19,3.42.69,6.48,1.26,9.76ZM195.2,24.32c-.9-.6-1.29-.24-1.72-.04-4.1,1.89-6.46,5.49-8.93,9-.89,1.27.12,3.94,1.61,4.18.38.06.78-.12.72-.41-.4-2.16,3.05-3.65.97-6.16-.54-.66.56-.93,1.13-1.16,2.68-1.07,4.44-3.14,6.21-5.42ZM288.88,196.36c.46-3.19,2.2-6.19.33-8.39-1.55-1.82-1.45-3.97-2.61-5.72-.3-.46-.34-1.08-.56-1.6-.24-.55-.65-1.09-1.3-.78-.62.3-.12.86.01,1.27.98,3.03,1.15,6.17,1.53,9.3.22,1.81.49,3.96,2.59,5.91ZM209.15,19.09c2.78.1,4.2,2.59,6.5,3.33,1.43.46,1.46-.12,1.21-1.04-.42-1.55-.81-3.17-1.61-4.54-.48-.82-.78-2.57-2.09-2.18-1.8.54-3.96.72-5.15,2.58.72.73,1.9.2,2.4,1.25-.45.21-.86.4-1.27.59ZM50.58,201.25c-1.85,5.02-5.73,9.56-3.57,15.81,1.12-1.03,2.43-1.69,2.57-3.2.39-4.2.67-8.4.99-12.61ZM37.97,171.14c-.1,1.18-.13,2.14-.28,3.09-.22,1.45.49,2.49,1.38,3.47.52.57,1.2.82,1.43-.16.24-1.01.55-2.83.19-3.01-2.66-1.33-.82-3.32-.9-4.96-.07-1.4-.27-2.68-1.04-3.97-1.34,1.05-.35,2.62-1.14,3.82-.46-2.02.3-4-.64-5.94-.63,1.25-.88,8.96-.39,9.23.78-.19.15-1.3,1.38-1.57ZM307.59,93.85c2.79,2.99,2.64,8.22,7.55,9.62.14-1.99-.25-3.94.97-5.56-3.11-.93-5.32-3.43-8.52-4.06ZM293.71,200.76c-.09-1.05-.11-2.1-.29-3.13-.11-.64-.51-1.24-1.25-1.33-.89-.11-1.02.65-1.2,1.25-.53,1.79-1.22,3.5-2.21,5.09-.68,1.1-.09,2.11.49,2.92.69.97,1.6.26,2.39-.07,2.18-.93,2.13-2.81,2.07-4.73ZM285.91,241.7c.82-3.38,1.66-6.4.85-9.52-.25-.96-.4-2.49-1.47-2.59-1.42-.13-.75,1.5-1.05,2.28-1.33,3.43-.65,6.61,1.67,9.82ZM263.02,212.47c.16-2.81.38-5.29.74-7.76.28-1.9-.17-3.87-1.11-5.61-.31-.57-.73-1.6-1.54-1.08-.62.39-1.15,1.17-.33,2.24,1,1.32,1.1,3.01.63,4.62-.8,2.69-.81,5.21,1.63,7.59ZM38.34,107.62c-.49-.33-.99-.38-1.41-.13-2.16,1.28-3.22,3.52-4.63,5.45-.26.36-.15,1,.29,1.33.55.41,1.05.13,1.53-.25.97-.77,1.44-2.08,2.62-2.67.7,1.03-.83,2.02-.27,2.24.81.33,1.66,1.31,2.59.82,1.19-.64.55-2.05.88-3.08.21-.67-.24-1.24-.85-1.59-.11-.06-.33,0-.45.07-.63.46-1.43,1.39-2.01.39-.63-1.09.96-1.22,1.38-1.92.12-.19.19-.41.31-.68ZM288.15,210.46c.79,4.22,1.53,8.16,2.27,12.09,1.18-2.21,2.09-4.33,2.35-6.53.33-2.84-3-3.28-4.08-5.28-.03-.06-.13-.07-.53-.28ZM198.46,34.55c0-.44-.2-.58-.88-1.19-2.58-2.33-4.64-.14-6.86.74-.91.36-1.29,1.02-.92,1.93.35.85,1.19.95,1.86.6,1.51-.8,3.1-.75,4.72-.82.79-.03,1.77-.33,2.08-1.26ZM135.14,246.52c1.36-4.97.51-9.71-1.55-14.49-1.47,5.15.28,9.79,1.55,14.49ZM349.07,190.64c1.62-5.34.7-9.81-.67-14.25.29,4.54-2.21,9.21.67,14.25ZM279.1,69.64c-.24-.39-.52-.63-.53-.88-.08-1.74-.93-2.96-2.36-3.89-1.23-.8-2.58,1.21-3.84-.23-.21-.24-.58.54-.37.84,1.1,1.56,2.48,2.9,3.69,4.38.68.83,2.09-.2,3.41-.23ZM34.92,76.88c4.41,3.21,7.4-1,10.99-1.55-1.71-.81-3.38-1.72-5.1-.13-.27.25-.88.52-1.06.4-2.13-1.49-3.2.42-4.82,1.29ZM110.81,59.68c2.77.03,3.45-2.77,5.41-3.8.46-.24-.23-1.2-1.03-1.01-1.71.41-3.43.84-5.09,1.41-1.13.39-1.59,1.61-1.43,2.57.17,1.02,1.44.65,2.15.82ZM340.02,197.64c2.28-4.33,4.5-8.69-.35-13.24.91,4.66.51,8.94.35,13.24ZM311.79,140.18c-.08.09-.17.18-.25.27.31.46.55,1.01.96,1.37,1.92,1.7,4.49,1.27,4.93-.81.42-2-1.76-1.7-2.54-2.68-.63-.79-2.16-1.52-2.97-.63-.83.91.72,1.51,1.18,2.27.2.34.81.64.24,1.27-.52-.36-1.03-.71-1.55-1.07ZM170.43,208.61c-.12,1.34-.17,2.06-.26,2.79-.1.82.06,1.59.98,1.64,1.1.05,1.01-.91.89-1.6-.35-2.12.1-4.2.18-6.3.03-.89.15-1.81-.63-2.5-.42-.37-.81-.93-1.45-.65-.68.3-.47.9-.34,1.48.4,1.89.93,3.78.63,5.15ZM140.99,51.33c-.06-.53-.57-.78-.84-.61-2.72,1.75-5.41.74-8.15.12-.74-.17-1.63.58-1.03,1.35.86,1.1,1.97,2.32,3.6,2,1.65-.32,3.26-.91,4.87-1.45.69-.23,1.31-.65,1.57-1.41ZM307.43,90.65c.09-.19.17-.38.26-.57-.94-.7-2.05-1.26-2.8-2.13-1.84-2.17-5.11-2.32-7.49.1,3.75-.12,6.62,2.23,10.03,2.6ZM102.87,84.01c.02.45.11,1.36,1.23,1.58,1.17.22,3.8-2.96,4.04-4.73.19-1.4-.97-.85-1.47-.94-1.55-.29-3.57,1.74-3.81,4.1ZM115.27,59.86c2.56,0,4.7.03,6.84-.01,1.02-.02,1.77-.68,1.88-1.61.11-1.02-1.01-.83-1.62-1.1-2.89-1.25-4.92.12-7.1,2.72ZM142.09,255.62c2.22-4.67.02-9.1-.85-14.27-1.04,5.24.3,9.72.85,14.27Z"/>
      <path d="M90.66,244.73c1.34-.96,2.47-.42,3.55.49-.04,3-.69,6.03.64,8.96.35.76-.1,1.46-.88,1.76-1.9.76-1.59,2.09-1.09,3.59.57,1.7,1.85,3.36.42,5.48-.6-2.67-3.57-4.46-2.07-7.59-2.37-4.13,1.13-8.53-.59-12.69Z"/>
      <path d="M88.77,53.06c-.16.76-.32,1.52-.53,2.54,3.21-1.18,6.28-.28,9.37-.1,0,0-.02-.03-.02-.03-.48.8-1.24.95-2.09.97-1.86.05-3.72.14-5.58.22-1.37.06-2.12.48-1.02,1.89-.72.04-1.47,0-2.16.15-.82.18-1.42.75-1.76,1.55-.29.7-.73,1.26-1.61,1.6-.43-.94-.9-1.74.06-2.74,1.35-1.41.35-1.89-.95-2.56-3.37-1.74-6.73-1.9-10.22-.5-.48.19-1.09.37-1.85-.34,3.47-1.31,6.76-2.66,10.32-1.27,2.49.97,4.78,2.25,6.73-.8.21-.33.87-.38,1.32-.56Z"/>
      <path d="M156.85,279.73c1.76,2.18,2.47,4.65,2.13,7.26-.3,2.28-.49,4.46.27,6.72.4,1.19.25,2.57.35,3.86.13,1.68.48,3.26,1.05,4.89,1.28,3.72,2.3,7.55,2.51,11.52.03.48.27,1.33-.55,1.39-.91.07-.84-.81-.97-1.41-.06-.31-.08-.65-.05-.97.17-1.82.38-3.26-1.46-4.91-2.13-1.92-1.7-5.29-1.77-8.11-.15-6.48.4-12.99-1.51-19.33-.09-.28-.01-.61-.01-.92Z"/>
      <path d="M338.43,148.49c2.51-1.81,5.11-2.49,7.87-2.57,4.73-.15,9.45,0,13.73,2.37,1.75.97,3.49-.52,5.22.24.68.3,1.95-.1,1.86.99-.1,1.18-1.28.42-1.98.6-4.74,1.17-8.63-1.78-12.94-2.69-4.04-.85-7.7.45-11.49,1.14-.62.11-1.22.49-2.27-.07Z"/>
      <path d="M106.44,25.13c-.93-3.04-2.83-5.58-4.03-8.48-.69-1.67.13-3.47-.7-5.21-1.39-2.91-2.6-5.9-4.68-8.43-.59-.72-1.34-1.48-.73-3.01,2.25,2.38,4.49,4.65,5.5,7.55,1.99,5.69,3.55,11.53,5.3,17.31-.22.09-.44.18-.66.27Z"/>
      <path d="M214.36,10.4c-.29-.66-.18-1.32.01-1.97-.13-.63-.26-1.27-.41-1.89-.13-.53-.05-1.17.52-1.13,4.22.24,8.2-1.04,12.28-1.73.55-.09,1.14-.13,1.75.46-.91,1.22-2.39,1.08-3.59,1.39-1.4.37-2.88.43-4.31.65-2.5.39-3.25,1.72-2.33,4.11.51,1.33,1.23,2.59,1.37,4.24-1.78-.35-1.63-1.92-2.15-2.84-.8-1.4-1.66-1.89-3.13-1.28Z"/>
      <path d="M355.64,159.01c1.53.53,2.64,1.54,3.32,3.01.31.67.67,1.22,1.38,1.6.77.41,1.65.92.26,1.91-.89.64-.04,1.72.24,2.44.57,1.46.76,2.98,1.08,4.48.11.52.09,1.26-.68,1.33-.62.06-.68-.58-.81-1.03-.61-2.27-1.16-4.55-1.83-6.8-.7-2.35-2.32-3.45-4.79-3.72-1.68-.19-3.17-1.11-3.54-3.06,0,0,.08-.09.08-.08,2.02.74,3.84,2.07,6.19,2.07-.32-.75-.61-1.45-.91-2.15Z"/>
      <path d="M43.76,236.44c.11,2.11.16,4.09-1.87,5.4-.78.5-1.05,1.47-1.29,2.49-.84,3.49-2.39,6.81-2.2,10.52.02.48-.26,1.1-.8,1.07-.81-.04-.68-.82-.65-1.33.2-3.5.97-6.87,1.93-10.25.9-3.17,4.34-4.6,4.88-7.91Z"/>
      <path d="M140.53,293.72c-1.62-2.29-1.67-5.02-2.73-7.53-1.02.87-.14,2.54-1.83,2.97-.3-2.1-.19-4.13.27-6.17.16-.73.68-1.08,1.32-1.3.5-.17.8.16.91.56.98,3.78,1.18,7.69,2.07,11.47Z"/>
      <path d="M22.47,111.35c-.39-.2-.79-.28-1.21-.06-1.42.19-2.65,1.21-4.29.71,4.25-1.55,7.98-4.16,12.3-6.39-.19,1.63-1.35,1.54-1.75,2.25.41.6,1.06-.49,1.58.5-2.11,1.14-4.16,2.48-6.63,2.99Z"/>
    </g>
  </g>
</svg>