<?xml version="1.0" encoding="UTF-8"?>
<svg fill="#6A7F6B" id="Capa_2" data-name="Capa 2" xmlns="http://www.w3.org/2000/svg" viewBox="0 0 311.87 319.51">
  <g id="Layer_1" data-name="Layer 1">
    <g>
      <path d="M268.95,148.85c-.39.7-1.84,1.23-.27,2.23.24.16.34.67.1.86-.37.28-1.03.65-1.25.49-.47-.36-1.49-.45-1.32-1.25.34-1.68-.49-1.26-1.38-1.2-2.38.15-4.44,1.54-6.75,1.94-.89.15-1.72.06-2.64.67-1.92,1.26-1.89,2.91-1.42,4.81.14.57.07.98-.45.98-.77,0-1.47,1.39-2.08.48-.43-.64-1-1.23-1.31-2.01-.84-2.08-2.44-2.33-4.41-1.51-2.63,1.1-5.36,1.88-7.88,3.3-4.12,2.32-8.28,4.58-12.39,7.29,2.43.33,4.86.68,7.29.97.51.06.69-.33.58-.91-.22-1.1.78-1.09,1.25-1.22.62-.17.63.61.61,1.1-.03,1.1.61,1.46,1.44,1.62,1.88.37,3.76.73,5.64,1.06.6.11,1.15.14,1.35-.8.14-.66.76-.74,1.07-.16,1.45,2.67,3.48,2.12,5.43,1.06,1.07-.58,1.13-.71,1.08.72-.04,1,1.23,1.67,1.96,1.65,1.33-.03,2.29,1.99,3.76.7.05-.05.41.14.43.25.42,2.53,1.7,1.28,2.86.82.48-.19,1.04-.17,1.7-.26-.41-.91-1.56-.66-1.75-1.72.6-.34,1.25-.55,1.98-.63.46-.05.65.06.73.54.14.84.07,1.71,1.36,1.79.44.03.59,1.65.15,2.47-.24.45-.27,1.78-1.41.79-.75-.65-1.76-.18-2.57-.03-.66.12-1.17.66-1.93.13-.47-.33-.64.26-.84.68-.3.63-.01.82.46.93,1.22.28,1.79,1.14,2.42,2.3.67,1.23.67,2.09.04,3.2-.58-.25-.36-1.03-.96-1.42-.95-.61-2.42-.95-2.14-2.88.12-.8-.97-.31-1.42-.76-.46-.46-1.77-.31-.67-1.53.19-.21.05-.28-.06-.43-.76-1.07-1.84-.3-2.74-.44-.28-.04-.65,1.14.27,1.59.32.16.64.57.39.93-.17.24-.7.43-.95.32-.78-.36-1.8-.61-1.91-1.71-.06-.6-.26-.96-.63-1.29-1.02-.91-1.15-3.06-3.44-2.22-1.17.43-1.52-1.52-1.84-2.59-.26-.86-.72-1.07-1.4-1.19-1.77-.3-3.53-.66-5.3-.9-1.43-.2-1.72.34-1.19,1.86.21.6.33,1.24.49,1.86-.7-.22-1.05-.83-1.36-1.46-1.02-2.11-2.44-3.34-4.81-3.25-1.53.06-3.08-.33-4.61-.57-1.72-.27-3.29-.04-4.74,1.13-2.8,2.26-5.41,4.75-8.09,7.27.35.15.6.19.76.34.81.8,1.23,2,2.86,1.71.49-.09,1.57-.85,2.11-.09.99,1.36,1.34-.07,1.74-.47.44-.44.52-1.3,1.24-1.51,1.37-.39,2.5-2.46,4.2-.71.12.12.47.05.69-.03,1.54-.54,3.08.23,4.53.41,1.42.18,2.89-.02,4.35.74-.12-1.15-1.11-2.14-.21-2.59.79-.39,1.11.79,1.46,1.55.47,1.01,1.24,1.73,2.38,1.76,0,0-.04.11-.04.11-.13.25-.27.51-.4.76-.4-.01-1.1-.52-1.07-.31.13.93-.88,1.55-.48,2.49.5,1.16.36,2.07-.78,2.76-.75.46-.72,1.07.06,1.64.44.32.89.95.6,1.47-.31.55-1.02.54-1.6.3-1.35-.57-2.36.26-3.28,1.06-1.64,1.44-1.94,1.4-2.47-.66-.06-.24-.09-.65-.21-.69-1.54-.53-2.53,1-3.89,1.31-.7.16-.64,1.15-.19,1.81.35.52.55,1.02.07,1.56-.54.6-.36,1.3.01,1.75.35.43.86-.06,1.29-.25,1.19-.52,2.48-.05,3.7-.37.14,1.94,2.93,1.05,2.96,3.4.02,1.23,2.59,1.53,3.69.51.35-.33.6-.83.99-1.07.37-.23.82-.6,1.32-.19.73.59.37,1.43.38,2.16,0,.62-.46.83-.98.87-2.72.25-2.75.28-2.16,3.05.08.39.14.76-.24,1.15-.8.02-.56-2.35-2.07-1.1-1.1.91-3.57.52-2.25,3.26-.89.71-2.75-.94-2.65,1.71-1.03-.65-1.75-1.3-1.96-2.49-.13-.73-.69-1.29-1.3-.89-1.96,1.31-3.41-.08-4.57-1.25-.97-.98-1.94-1.29-3.02-1.16-1.37.17-2.71-.03-4.06-.06-.19-.61.65-.25.57-.77-1.32-.26-2.66-.53-3.89-.77-.39.3-.25.53-.21.78.07.36.83.66.16,1.08-.38.24-.9.16-1.14-.25-.97-1.71-2.56-2.24-4.2-2.55-.74-.14-1.59-1.04-2.39.17-.35.54-.81-.2-1.19-.43-1.1-.66-2.1-.87-2.92.52-.65,1.1-2.35.91-2.63,2.89-.32-2.35-1.04-1.26-1.79-.73-1.18.83-1.72,2.6-2.81,3.1-1.55.7-2.66,1.88-3.94,2.87-.73.57-1.47,1.2-1.61,2.24-.18,1.38-.83-.24-1.36.33-2.52,2.69-5.69,4.49-8.42,6.86-2.18,1.89-2.97,5.16-4.88,8.17,3.2-.76,5.8-1.38,8.4-2.01.55-.13.66-.67.77-1.19.3-1.43,1.59-1.45,2.5-1.91.59-.3.82.47.63.98-.38,1.01.15,1.4.86,1.37.39-.02.48-.91.54-1.27.29-1.7.56-3.49-.89-4.87-.21-.21-.29-.63.06-.8.15-.07.46.08.62.24.22.21.42.48.52.77.81,2.29,2.42,3.54,4.56,3.92.72.13.96,1.66,1.69.89,1.25-1.33,2.6-.21,3.86-.52,1.18-.3,1.67-1.55,2.68-2.12.59-.33.9-.49,1.33.12.64.9,1.48,1.38,2.78,1.43-.66-1.16-2.28-.96-2.41-2.43.86-.35,1.14.7,1.74.75.94.08,1.91,1.68,2.9-.16.17-.32,1.55,0,2.33.19,1.42.36,2.14-.28,1.89-1.83-.1-.61-.64-1.12-.39-1.83,1.06.81,1.4,2.25,1.03,4.31.37-.15.87.2.9-.72.03-1,.03-2.66,1.76-1.37.34.26.72-.14,1.03-.06.97.28,2.41-.17,2.46,1.71.01.46.32.67.73.65.4-.02.61-.28.82-.64.77-1.33,1.49-2.74,3.31-2.45.52.08.49-.55.46-.86-.06-.76-.25-1.52.88-1.19.92.27,1.81.69,1.5,1.94-.19.74-.31,1.69-1.23,2-.3.1-.8.25-.58.77.19.46.6.2.95.17.46-.04,1.14-.14,1.16.51.02.59-.31,1.23-.6,1.77-.17.31-.74.12-.77-.07-.18-1.34-1.28-.86-1.93-1.26-1.44-.89-1.64.02-1.37,1.14.25,1.04-.84,2.98,1.51,2.9.43-.01.49,1.17.19,1.69-.31.55-.7.4-1.07-.2-.42-.68-1.01-.82-1.82-.35-.69.4-1-1.65-1.84-.75-.57.6.53,1.34.43,2.13-.07.53-.39.61-.78.4-.36-.2-1,0-.84-.91.17-.96-1.31-2.42-2.28-2.26-1.16.2-.93,1.04-.79,2.02.14,1-.4,2.09.61,2.91.22.17.16.81-.13.81-1.34,0-2.21.97-3.23,1.64-.44.29-.85-.08-1.11-.39-.34-.4.17-.63.3-.95.39-.94,1.49-1.52,1.06-2.93-.18-.6.75-.33,1.2-.62-.34-.79-.71-1.14-1.63-.8-.91.34-1.41.19-.76-1.13.49-.98.06-2.21-.04-3.79-.86,1.36-1.45,2.48-2.86,2-.47-.16-1.05-.21-1.06-.83-.03-1.18-.71-1.17-1.46-1.08-.39.04-.95-.17-1.1.39-.14.54.33.78.72.94.91.36.97.73.21,1.45-.93.88-.47,1.52.54,1.65.68.09,1.4.27,2.11-.06.79-.37,1.22.24,1.57.84.13.23.16.66.05.91-.16.38-.5.19-.77.07-.78-.34-1.36-.71-1.9.61-.37.92-2.8-.77-2.99-2.25-.16-1.28-.07-2.69-1.82-2.92-.45.59.39,1.54-.42,2.08-.77-.2-.54-1.01-.73-1.56-.34-.96-1.17-1.05-1.89-1.26-.8-.23-.93.29-.73,1.01-.73-.11-1.21,1.79-2.15.25-.37-.6-1.16-.92-1.76-.51-.54.36.14,1.02.07,1.57-.03.22.14.48.25.71.28.55.95,1.18.54,1.71-.47.61-1.2.49-1.84-.16-.28-.29-.81.07-1.14.31-.61.46-1.27.14-1.34-.34-.26-1.79-1.59-1.11-2.74-1.69.45,1.3,1.71,2.28.29,3.36.52.37.88.38,1.12-.15.23-.52.48-.65.97-.3.54.39,1.05.81,1.37,1.43.04.08-.14.33-.26.45-.9.8-3.5.88-4.55.17-.07-.05-.22.03-.33.06-.03.12-.11.29-.07.34.59.79.78,1.79.01,2.3-.32.21-1.43.79-2.13-.4-.53-.89-1.37-1.44-.48-2.6.25-.33.36-.55.83-.46.91.18,1.69.15,1.47-1.33-.16-1.06,1.21-.22,1.38-1.2-1.42-.06-2.67-.38-3.59-1.7-.35-.5-1.13-.22-1.71-.1-2.65.53-5.22,1.38-7.8,2.19-.73.23-1.31.63-1.63,1.39-3.04,7.28-7.94,13.2-12.15,19.63-2.54,3.88-4.33,8.18-5.98,12.55-.23.6-.33,1.26-.61,1.82-2.49,5.09-2.83,10.53-2.69,16.18.22,8.8-.05,17.61.14,26.4.11,5.05.24,10.09.32,15.14.03,1.8-.38,2.55-2.2,2.45-3.8-.21-3.8-.1-3.69-4.41.39-14.95.36-29.91.46-44.86.05-6.67.16-13.33.35-19.99.07-2.27-.6-4.13-1.68-5.99-2.76-4.76-6.48-8.61-10.02-12.63-4.84-5.5-10.67-9.75-15.91-14.74-2.91-2.77-5.87-5.51-8.16-8.95-.77-1.17-1.81-1.68-3.05-1.73-2.68-.11-5.35-.36-8.05-.19-1.65.1-2.39.68-1.42,3.08-1.02-1.03-1.68-1.6-1.9-.08-.05.37-.53.68-.84.97-.27.25-.6.5-.93.11-.23-.27-.2-.61,0-.89.36-.5.72-1.01,1.13-1.46.22-.24.52-.46.3-.78-.15-.22-.6-.5-.72-.41-.92.62-2.31.19-2.9,1.61-.49,1.16-1.08,1.11-2.54-.08-.81.37.2,1.67-.37,1.58-1.18-.19-2.33.72-3.46.03-.54-.33-1.2-.67-.93.39.29,1.14-.14.98-.86,1.2-.63.2-2-.07-1.64,1.57.07.34-.34.41-.64.5-.76.23-1.95-.03-1.65,1.59.02.11-.99.69-1.19.54-.94-.7-1.57-.53-2.17.46-.17.28-.48.07-.59-.15-1.01-2.05-2.62-1.39-3.82-.63-1.32.84-2.21.17-3.31-.42-.58.94-.13,2.65-1.76,2.72-.73.03-1.65.6-2.14-.13-.66-1-1.11-2.23-.52-3.52.11-.24.6-.3.36-.73-.18-.31-.5-.3-.8-.21-1.09.35-2.1,1-2.4-1.18-.09-.66-1.92-.52-2.99-.36-.09.01-.16.19-.26.26-1.31.91-5.51-.07-6.36-1.44-.35-.56.08-.77.26-1.15.73-1.53.42-3.74-.68-4.82.35-.5,1.7-.41.64-1.85-.7-.95.57-2.22,1.69-2.59,1.22-.4,1.32,1.15,1.96,1.76.21.2-.09,1.18.73,1.07.61-.08,1.46-.02,1.56-.97.07-.74.63-.86.97-1.27.83-1.03,1.61-2.37,1.94.29.05.42.32.49.65.44,1-.15,2.01-.14,2.99-.23.69-.07,1.35-1.54,1.76.34.08.37.32-.22.48-.22.91,0,1.78-1.03,2.75.03.38.42.83.04,1.04-.59.55-1.66,1.34-2,2.58-1.01,1.08.87,1.95.08,2.84-.27.91-.36.3-1.03.1-1.6-.11-.32-.12-.71.17-.87.53-.29,1.12.18,1.22.51.5,1.61,1.38.84,2.19.53.66-.25,1.22-.81,2.02-.63.32.07.47-.19.57-.57.31-1.14,1.46-1.52,2.18-.59.45.57.8.66,1.34.54,3.88-.82,7.81-1.01,11.74-1.31.34-.03.84-.04.99-.27.31-.49-.26-.75-.46-1.12-1.13-2-2.73-3.06-4.91-3.41-3.12-.51-6.21-1.29-9.31-1.97-.85-.19-1.57-.12-2.37.4-1.16.76-2.47,1.28-3.14-.75-.26-.78-.84-.62-1.34-.61-.77.02-1.53.12-2.36.2.13.5.26,1.03.41,1.61-.71.29-1.19-.28-1.7-.29-.47,0-1.32-1.21-1.58.47-.09.61-.89-.04-1.32-.31-.7-.45-1.09-.52-.97.65.09.88-1.32,1.71-2.04,1.2-1.16-.82-1.38.08-1.48.94-.19,1.57-1.46,2.49-2.8,1.96-.24-.1-.51-.16-.46-.45.51-3.06-2.13-1.97-3.15-2.39-1.41-.58-1.15,1.24-.86,2.08.47,1.35-.32,1.57-1.1,1.88-.5.2.02,2.21-1.35.88-.29-.28-.64-.04-.76.46-.21.9-.97,1.26-1.58,1.75-.18.14-.42.19-.64.28-.4-1.8-1.38-1.47-2.57-.95-.26.11-.88-.57-1.24-.98-.48-.55.69-1.62-.53-2.05-.66-.23-1.33-.54-1.82-1.29,2.14-.13,1.07-2.08,1.51-3.12.21-.5.11-.98.76-.97.51.01.8-.29.94-.73.39-1.21,1.32-1.35,2.29-1.4.36-.02.84.18,1.05,0,2-1.7,1.24.39,1.38,1.27,1.36-.26,2.78-.14,3.68-1.54.2-.32.45-.72.85-.34.81.78,1.65.13,2.12-.26,1.13-.94,3.04-.94,3.29-2.99.15.3.3.6.44.9.32,1.72,1.76,2.11,2.9,2.85.11.07.46-.03.46-.06.08-1.42,1.38-.94,1.96-1.52,1.23-1.22,2.17-1.6,2.83.58.1.33.73,1.11,1.31,0,.2-.39,1.31-.79,1.9.23.58,1,1.37.58,2.34.32-2.89-1.18-3.1-1.69-1.52-3.18,1.71,1.87,4.85,1.4,5.94,4.28.01.04.11.05.17.06,3.56.68,7.13,1.36,10.76,2.05.04-.7-.28-1-.54-1.35-.97-1.31-1.92-2.64-2.92-3.92-1-1.28-2.25-2.39-3.04-3.8-.81-1.44-2.62-.82-3.29-2.3-.14-.31-.56-.6-.86-.16-.75,1.09-.71,1.07-1.9.45-.88-.46-1.79-.99-3.31-.47,2.53,1.04.71,2.05.47,3.02-.09.38-.37.92-.91.53-.36-.26-.61-.65-.41-1.16.22-.56.81-1.29-.09-1.59-.94-.31-.85.78-1.09,1.37-.14.35-.27.71-.41,1.06-.76-.64-1.24-1.52-2.27-2-.88-.41-2.01-1.47-1.71-3.16.12-.69.09-1.62-1.22-1.57-.85.03-1-1.17-1.08-2.06-.11-1.1.44-1.08,1.21-.99.55.06,1.18-1.19,1.69.16.12.31.4.07.51-.17.08-.17.22-.43.16-.53-1-1.77-1.88-3.64-3.1-5.22-.66-.86-1.72-.73-1.77.92-.62-.33-.93-.85-1.04-1.36-.5-2.27-2.29-1.95-3.72-2.12-1-.12-1.21.94-.81,1.62.85,1.45-.73,1.56-.94,2.38-.81-.31-1.97.39-2.41-1.02-.1-.31-.35-.64-.1-.87,1.68-1.53-.22-1.81-.79-2.25-1.01-.77-1.9.28-2.75.73-.4.21-.19.83.23,1.11.35.23.75.38,1.11.6.41.25,1.05.59.8,1.1-.36.72-.77,0-1.13-.25-1.37-.94-3.25-1.2-6.49-.87.53-.59,1.19-1,1.13-1.76-3.02-.68-5.76.92-8.65.87-.56,0-1.14.23-1.36.78-.58,1.45-1.39,2.03-2.77,1.19-.15-.32-.29-.64-.44-.96.67-.56,1.1-1.17-.07-1.58-1.3-.45-2.34-1.41-3.59-2-1-.47-1.08-2.1-2.02-2.92-.42-.37-.62-.72-1.14-.31-.35.28-1.26.27-.33,1.09.35.31,0,.78-.37.84-1.66.28-1.04.71-.33,1.69.48.67,1.29,1.74.45,3.17-.88-1.51-1.56-3.08-3.5-2.74-.28.05-.75-1.27-.49-1.88.54-1.32-.12-1.96-.97-2.47-.69-.42-1.08-1.18-.8-1.71.28-.52,1.11-.51,1.75-.09.54.36,1.17.95,1.78.32.54-.56.62-1.25.06-2.05-.52-.75.37-1.35.64-1.97.28-.65.85-.15,1.37.02,1.78.56,2.84,2.79,5,2.48.16-.02.4.58.6.89.39.6.61,1.53,1.61.99.13-.07.37-.05.49.04,2.56,1.93,2.88,2.1,6.26,2.61.67.1.76,1.4,1.78.73,1.15-.76,1.75-1.55.92-2.93-.67-1.11-.82-2.22-.14-3.38-.67-.46-1.24.23-1.95.07,0-1.23.64-1.69,1.66-1.74.42-.02.66-.27.67-.73.01-.42-.24-.56-.58-.56-1.17-.01-1.51-.8-1.1-1.77.08-.2,1.29-.65,2.01-.27.26.14.42.46.86.08-.22-1.44-1.6-1.99-2.37-2.96-.56-.7-1.89-.52-2.87,0,0,.66.49.43.77.53.57.21.94.57.95,1.24,0,.24-.07.64-.2.69-.57.22-1.04-.32-1.34-.61-.32-.31-.57-.79-.94-.49-.57.47.07.84.3,1.18.35.5.16.82-.2,1.15-.38.35-.72.57-1.28.34-.71-.29-.38-.61-.15-1,.06-.1.06-.24.09-.37-1.2.03-1.37-1.2-2.02-1.86-1.1-1.13-1.81-.13-2.42.86-.12.19-.39.27-.59.4-.89.6-1.65,1.21-.81,2.51.26.41.28,1.17-.28,1.32-.64.17-.72-.59-.72-1.05,0-1.29-.46-1.87-1.63-1.34-.31-.74.88-.82.41-1.34-.48-.53-1.13-.91-1.77-1.24-.25-.13-.51.21-.59.58-.58,2.66-2.2,3.32-4.34,1.94-1.15-.74-.36-1.68-.23-2.33.09-.46,1.25-.83.24-1.45-1.1-.68-.37,1.21-1.54.99.28.12.12.11.09.03-.2-.59.4-1.67-.59-1.72-.74-.04-.88.95-1.05,1.61-.22.87-.98,1.87.44,2.47.28.12.54,1.08-.03,1.01-2.32-.3-1.7,1.75-2.17,2.93-.24.62.32,1.75-.85,1.76-1.04,0-1.36-.94-1.81-1.77-.54-1,.12-1.32.68-1.56,1.15-.5-.06-1.57.65-2.42,1.03-1.24-.51-1.18-1.11-1.7-.5-.43-1.42-.33-1.54-1.31-.13-1.02,1.39-2.58,2.05-1.96,1.45,1.35,1.44-.7,2.16-.99.8-.31-.14-.88-.3-1.35-.18-.54-.27-1.16-.57-1.61-.54-.79-.7-1.92-2.33-1.14-.87.42-2.3.76-3.45.74-1.09-.02-.35-1.54-.89-2.26-.24-.32-.11-1.15.82-.79.78.3,1.54-.88,2.45-.19.15.11.37-.43.41-.75.04-.34-.16-.43-.44-.42-.52.02-1.35.18-1.22-.6.13-.78.81-1.45,1.25-2.16.47.67,1.98-.89,1.86,1.04,0,.1.14.31.16.3,1.69-.68,1.3,1.22,2.14,2.14-.08-.96.2-1.44.7-1.86.34-.29,1.15-.85,0-1.33-.32-.13-.53-.87-.19-.9.69-.06,1.07-1.48,1.75-.61.41.51,1.1.64,1.34,1.45.2.69.59,1.28,1.7,1.12,1.17-.17,1.57,1.2,1.79,2.35,1.4.18,1.39-1.54,2.36-2.07.99-.54,1.41-.76,1.31.69-.03.42,0,.83.41.94.46.12.81-.14.96-.64.46-1.47,1.4-2.22,2.77-2.75,1.35-.53,3.05-1.02,3.02-3.35.58,1,2.1.91,1.97,2.59-.03.38.91.4,1.13-.06.86-1.82,1.53-.98,2.24.09.14.2.3.39.42.61.25.44.64.77,1.01.42.43-.4-.02-.86-.26-1.17-.86-1.14-2.09-1.9-2.75-3.25-.08-.31-.09-.66-.24-.93-1.94-3.48-4.76-6.24-6.75-9.67-.14-.24-.47-.46-.73-.49-.69-.07-1.1-.44-1.29-1.13-.29-1.07-1.27-.96-1.89-.99-.77-.03-.51.98-.66,1.56-.48-.27-.96-.24-1.44.02-1.13-.52-1.37-1.23-.18-2.22-1.21-.56-2.24,1.04-3.37-.22-.72-.8-1.39-1.4-1.12-2.56.15-.66.12-1.22-.48-1.46-.75-.3-.79.55-1.1.96-.41.55-.78,1.14-1.24,1.64-.33.37-.63,1.16-1.27.61-.51-.44-.29-1.15,0-1.6,1.13-1.86.48-2.48-1.33-2.9-1.9-.44-2.02-1.39-.73-2.91,1.09-1.28.83-3.1,1.47-4.58.07-.15-.33-.8-.52-.45-.55.94-1.52-1.3-1.79.34-.1.63,0,1.29-.02,1.94,0,.41.23,1.01-.39,1.08-.37.04-.64-.39-.69-.78-.12-.91-.11-1.77-1.41-1.46-.61.15-.18-.94-.84-1.23-.21,1.54-1.57,1.57-2.52,2.3-.21-.7-.1-1.38-.81-1.86-.69-.47-.25-1.43-.22-2.19.77.05,1.35-1.23,2.26-.36.48.47,1.02.93,1.97.57-1.4-.85-.64-2.22-.88-3.35-.03-.16.04-.4.15-.52.72-.86.8-1.02-.19-1.5-1.51-.74.31-2.2-.66-2.91-1.06-.79-1.47-1.51-.33-2.68.68-.7.56-1.77.48-3.35-.7,1.29-2.23,1.05-1.61,3.05.34,1.11-1.21,1.67-2.14,1.82-.84.13-1.75-.29-.85-1.6.18-.26-.18-.56-.4-.78-1.58-1.69-1.43-2.74.67-3.37.99-.3.94-.99,1.11-1.69.24-1.03,1.43-2.18,2.32-2.21-1-1.73-.81-3.1.57-3.67.55-.23,1.27-.93,1.71.03.42.9,2.03,1.44.94,2.85-.82,1.06-.74,2.05.19,3.33-1.2-.28-1.86-1.1-3.18-1,1.13.99,1.49,2.43,3.21,2.06,1.48-.32,2.57,1.14,3.98,1.35h-.02c.17.83.08,1.62-.22,2.43-.18.49-.14,1.08.44,1.28.58.2.9-.09.9-.77,0-.32.04-.69.4-.75.38-.06.47.33.57.62.57,1.64.25,3.52,1.14,5.08.08.14-.05.53-.2.67-.33.32-.98.5-.36,1.13.37.37.88.42,1.35.25.7-.25.32-.82.27-1.29-.12-1.08-.23-2.16-.35-3.24.64.56.7,1.79,1.92,1.75.29-.01,1.16.59,1.04,1.16-.42,1.88,1.26,1.89,1.93,2.78.21.28.46.23.77,0,1.18-.87,1.89-.54,2.27,1,.22.9.83.68,1.64.66-.72-.79-.72-1.56-.49-2.39.3-1.07-.03-1.9-.91-2.48-.39-.26-1.09-.63-.57-1.09.5-.44.47-1.62,1.47-1.38,1.46.35,2.22-.99,3.23-1.66.44-.29.02-.94-.42-.97-2.27-.11-4.39-2.49-6.83-.21.03-1.39.9-1.35,1.44-1.37,1.35-.05,2.09-1.3,3.23-1.75.56-.22.36-.7-.16-.94-1.98-.91-.65-3.02-1.33-4.42-.15-.32.34-.41.64-.41.56,0,.48.26.35.73-.25.9-.31,1.63.85,2.09.72.28.95,1.39.88,2.37-.09,1.33.75,1.68,1.61,1.21.78-.42,2.29-.09,2-2.08-.16-1.09,2.06-1.58,3.48-.99.48.2.55,1.76,1.39.64.57-.77-.06-1.46-.51-2.05-.47-.63-1.41-1.29-.54-2.07,1.15-1.03,1.09-4.1,3.7-2.78,1.18.6,1.42-.25,1.75-1.15.25-.69-.09-.97-.54-.77-1.52.67-3.08.06-4.59.32-.71.12-2.01-.03-.98,1.53.56.86-.63.5-.76,1.12-.11.55-.71.01-.94-.32-.72-1.05-1.27-1.44-1.71.23-.19.75-.63.69-.99.06-.48-.84-.81-1.84-1.97-1.91-.27-.02-.32-.43-.16-.64.37-.48-.28-1.59.6-1.58.95.01,1.45-1.94,2.74-.46,1.3,1.49,3.17,1.63,5.01,1.52.81-.05,1.86-.31,2-.98.17-.81-.22-1.9-.66-2.67-.55-.96-2.54-.88-3.27-.02-.22.26-.42.49-.74.28-.27-.17-.12-.42-.05-.67.57-2.02.19-2.57-1.97-2.81.74,1.59.65,3.4,1.45,4.97-.58-.73-2.96.32-1.69-2.17.32-.63-1-.1-1.45-.94-.54-1.03-1.37-2.13-2.53-2.62-.36-.15-.69-.7-1.12-.28-.32.32-.29.8-.21,1.27.09.52.53,1.36-.2,1.47-.71.11-.32-1-.61-1.34-1.73-2.03-.08-4.3-.45-6.41-.03-.18.03-.38.05-.56,1.64.33,2.27-2.57,4.17-1.44.07.47-.41.44-.65.66-.44.4-1.17.8-.81,1.48.31.6.88-.03,1.23-.26.98-.65,1.14,1.11,1.65.76.89-.62-.71-1.21-.23-2,.24-.4.56-.47.92-.37.85.23,1.83.28,2.29-.48.34-.55-.54-1.18-.83-1.8-.59-1.3-1.17.65-1.79-.05,0-.12-.04-.31,0-.48.15-.59,1.27-.58.86-1.46-.32-.69-1.1-.31-1.63-.55-.5-.23-1.36.49-1.51-.48-.13-.81.78-.82,1.22-1.19.28-.24.57-.45,1.03-.81-.81-.39-1.52-1.05-2.14-.97-1.67.21-.82-1.23-1.2-1.84.62-.42.35-1.68,2.02-1.19,2.06.62,3.79,1.96,5.85,2.44.81.19.99.99,1.24,1.69.12.34.26.59.63.41.24-.11.36-.35.29-.63-.75-2.79.59-5.64-.24-8.46-.11-.37-.34-1.64.57-1.78.88-.14,1.82.1,2.73.17-.18.84.19,1.51.49,2.23.14.34.24.7.55.47.65-.48,1.31-.56,1.69.17.38.75.87,1.58.47,2.56-.64,1.56-.46,2.38,1.41,2.58,1.43.15,2.67,1.88,4.79.27-.72,1.2.27,2.19-.55,2.71-.61.39-1.44.45-2.3,1.05,1.19.49,2.34.74,3.28,2.21-.26-1.34.13-2.06.71-2.71.47.23-.36,1.56.75,1.38.33-.05.88.07.97-.61.1-.72-.13-1.08-.7-1.52-1.55-1.18-.5-2.19.56-3.19-1.38-.22-1.8.54-1.92,1.85-.39-.79-.26-1.49-.96-1.84-2.43-1.21-2.42-1.25-1.71-4.04.04-.16-.07-.37-.09-.56-.23-2.79.3-3.48,2.95-3.89.02.11.1.28.06.34-.49.72-.39,1.61-.61,2.41,1.21.28,1.55,1.64,2.42,2.3.71.54.85-.34,1.03-.85.37-1.07.25-2.27.92-3.28.89-1.33,1.7-2.67,3.54-2,.21.08.6-.08.68.05.5.72,1.1-.93,1.5.08.35.87-.57,1.13-.88,1.78.38.16.72.26,1.02.44.33.19.61.52.45.94-.15.39-.54.07-.77.14-1.46.43-3.18.46-3.6,2.63-.17.89-1.06.92-1.63,1.33-.39.28-.9.47-.87,1.11.03.62.43.91.93,1.01.58.12.89.63,1.33.95.33.24.71.38.86-.15.26-.92.64-1.65,1.64-1.71-.21-2.13,1.42-2.09,2.59-2.65.31-.15.46-.7.79-1.26.38,1.07.54,1.95.53,2.89,0,.35.24.63-.35.83-1.36.46-1.75,1.91-1,3.25-1.91.28-2.47,1.07-2,2.83.07.24.18.65.31.66,2.09.26,1.2.93.31,1.84-.43.44.25.76.56.98.51.37.44-.03.56-.46.18-.63,2.07-.79,2.62-.35.5.39,1.07.46,1.7.29.98-.26,1.75-.19.84,1.59,1.69-.93,2.85-1.82,3.55-3.42-1.74-.33-3.05-1.6-4.87-1.79.92-.51,1.63-.83.74-2.02-.51-.68.8-.93.82-1.66.72.4,1.71-.34,2.28.64.55.94,1.12,1.69,1.45-.11.14-.73.53-.77.81-.31.5.8,1.47,1.17,1.55,2.42.07,1.08,2.69,3.09,3.66,2.94.94-.15.71-.97.47-1.64-.13-.36-.83-.59-.31-1.07.37-.34.82-.73,1.44-.32.96.62,1.58.24,1.84-.91.12-.54.36-.7.91-.54.7.2.99.57.95,1.35-.03.47.07.95-.54,1-.61.05-1.6-.33-.88,1.08.12.24-.42.3-.71.32-.36.02-.85-.55-1.05.19-.13.47.15.85.42,1.22,1.22,1.67,3.91,2.35,5.27,1.28-.67-.8-1.88,1.07-2.5-.72-.33-.95-.18-1.36.05-2.25.76-2.92,2.02-1.67,3.35-.79.2.13.48.38.63.32,2.95-1.27,1.45,1.03,1.45,2.12,0,.43-.12.83-.59.75-.8-.14-1.03.35-.84,1,.2.67.61,1.34,1.44,1.06.51-.17,1.09-.58,1.47.01.43.67-.46.72-.64,1.14-.39.92.86,2.48,2.02,2.23,1.37-.3,1.54.42,1.5,1.52,0,.3-.24.63.17.8.33.14.59-.04.77-.31.57-.83,1.09-1.7,1.7-2.5.45-.59.25-1.82,1.57-1.63.44.06.18-1.01.24-1.52.19-1.8.28-1.92,1.82-1.39.15.05.41.06.48-.04.96-1.2,1.51-.45,1.99.77.2-1.37-.2-2.76.99-3.33.72-.34,3.17,1.94,3.13,2.78-.05.99-.88.61-1.52.85.7.52,1.55,1.07,1.01,2.04-.52.93-.78,2.33-2.19,2.22-.97-.08-1.65.45-1.59,1.34.05.71.83,1.01,1.58.61.15-.08.48-.12.49-.07.71,1.92,2.07,1.35,3.78.71-1.54,2.07-.61,3.08.65,4.09,1.28,1.03,2.88-.26,4.42,1.25-.26-2.4.51-4.45-1.43-6.01-.87-.71-.58-1.73.37-2.15.7-.31.36-.97.1-1.23-1.47-1.48-1.9-4.2-4.46-4.43-.39-.03-1.24-.49-.63-.93,1.63-1.2.21-1.9-.18-2.8-.17-.39-.79-.57-.56-1.1.21-.47.69-.46,1.11-.36.56.14,1.07.21,1.31-.56.1-.34.15-.69-.12-.88-.5-.35-1.07-.63-1.66-.5-1.1.26-1.23,1.79-2.13,2.14-.8.31-1.66-1.49-2.66-.17-.02.03-.19-.09-.31-.14-.14-.64.28-.76.7-.87,1.66-.41.83-1.55.31-2.08-.92-.93-2.04-1.67-3.16-2.31-1.28-.73-2.66-1.25-4.08.2.76-1.09,1.03-2.08.66-3.2,1.63.5,2.57,4.4,5.02,1.15.31-.41,1.09-.48.98-1.29-.11-.79-.48-1.6-1.16-1.81-1.09-.34-1.66-1.08-2.14-2.09-.4-.84-.93-.77-1.23.11-.31.89-.52,1.83-.77,2.75-.76-.46-1.29-1.07-1.51-2.04-.47-2.14-2.02-3.48-3.29-5.01-.29-.35-1.02-.47-.69-1.11.31-.58.84-.12,1.28,0,.16.05.34,0,.56,0,.14-1.05-1.08-.65-1.2-1.38.43-.48.98-.3,1.5-.32,2.67-.13,5.2-.66,7.44-2.45.72-.57.45-.77.08-1.28-.41-.57.81-2.99,1.2-2.68,1.57,1.27,1.03-.97,1.81-1.12-.76.07-1.43.18-1.54-.86-.12-1.07.64-1.45,1.28-1.81.38-.21,1.12.02,1.05-.7-.07-.75-.76-.38-1.19-.4-1-.06-2.02,0-3.02-.11-1.71-.19-2.63-1.55-2-3.16.33-.84-.18-.99-.46-1.41-.34-.51-1.13-.56-1.18-1.36-.02-.41-.49-.9.03-1.22.36-.22.95-.19,1.17.16.7,1.15,1.7,2.13,1.82,3.63.08,1.04.8,1.57,1.45.94.8-.77,1.55-1.35,2.66-1.49.67-.08.56-1.21,1.14-1.73.4,1.13.81,2.17,1.99.69.25-.31.65-.29,1.04.38.63,1.07,1.69,1.83,2.77,2.58-.33-.94-.61-1.91-1.02-2.8-.52-1.13-1.06-2.04-2.59-1.32-1.31.62-2.06-.84-2.87-1.66-.3-.3,0-.62.49-.64.47-.02.65,1.23,1.29.28.53-.8-.58-1.01-.43-1.85,1.65,1.58,1.94.53,1.95-1.09,0-.48-.18-1.21.39-1.35.65-.16.66.61.74,1.07.25,1.43,1.26,1.52,2.46,1.69-.55-.93-1.21-1.68-1.45-2.57-.28-.98-.26-2.15,1.28-1.98q-1.41-2.87-2.72-2.8c-.34-1.69,1.2-2.44,1.61-3.79.22-.71.62-.14.98-.02,1.38.45,2.54,2.45,4.24.75.46.62,2.05-.22,1.67,1.54-.12.57.16.92.72.49,1.19-.9,2.08-.55,2.81.72.17.3.44.62.85.18.63-.68.88-.89.85.45-.02.83.75-.17,1.17-.07-.1,1.15-.26,2.18-1.11,3.25,1.05.05,1.24-.5,1.48-.97.2-.39.37-1.15.71-1.01,1.54.64,2.12-1,3.17-1.47.51-.23.92-1.05,1.45-.19.38.61,1.74.78.86,2.06-.18.27-.08.92.43.71,2.28-.92,2.44.37,2.09,2.26-.02.12,0,.26.05.37.05.11.15.19.31.38.7-.68-.03-2.1.96-2.48.75-.29,1.6-.21,2.1-1.13.18-.32.93-.06.77.12-.8.9,1.23,2.19-.48,3.01-.57.27,0,1.8.44,1.99,2.51,1.03-.09,2.38.2,3.54.03.13-1.01,1.01-.42,1.45.66.49,1.65,1.24,2.49.53,1.34-1.14,1.13.04,1.26.83.08.46-.41,1.28.28,1.31,1.26.06,2.3,1.43,3.65.7.3-.16.49-.56.14-.75-1.35-.76-.84-2.11-.97-3.26l.11-.1c.42.83.93.87,1.77.54,1.48-.6,1.83-.23,1.73,1.43-.03.53.33.66.68.73,1.36.26,2.41.4,1.7,2.61-.24.74-.29,2.29.04,3.47.17.6.13,1.28.14,1.92,0,.4-.69.81-.15,1.17.54.36,1.15-.07,1.37-.57.62-1.44,1.96-1.86,2.99-2.72.18.03.36.05.53.08-.66,1.32-2,1.8-2.92,2.8-.29.32-.95.64-.55,1.22.28.39.8.17,1.07-.23.41-.61.79-.38,1.2-.02.61.53,1.26.98,2.14.98-.86.39-1.82.22-2.56.96-.51.51-1-.14-1.36-.51-.44-.46-.98-.8-1.37-.25-.48.67.1,1.37.61,1.52,1.08.31,2.06,1.58,3.42.37.43-.38,1.17.94,2.01.89-.65.96-1.09,2.03-1.45,3.14-1.21.06-2.39-.09-2.63-1.67-.08-.53-.05-.86-.6-.88-.45-.01-.78.16-1.05.59-.3.46-.31.77.11,1.13.26.22.57.91.27.89-1.26-.04-.68,1.59-1.51,1.82-.56-.28-.38-.79-.39-1.21-.02-1.2-1.29-1.2-1.69-2.08-.09-.21-.55.41-.66.72-.4,1.2.47,1.39,1.22,1.65.53.18.61.74.49,1.11-.38,1.18-.38,2.31-.03,3.48.06.21-.1.71-.13.7-1.88-.11-.82,1.43-1.14,2.22-.44,1.11.14,1.48.73,1.03,1.3-.98,1.43.23,1.84.97.6-.29.51-1.37,1.32-1.17.27.07.25.38.28.65.2,2.04,1.22,3.13,3.15,3.18-1.24-4.44-.98-4.98,2.55-5.42-.03-.53-.52-.66-.75-1.01-.42-.64-2.17-.58-1.31-1.69.68-.88,1.33.74,2.14,1.27.05-.41.12-.72.1-1.01-.1-1.55-1.18-2.67-1.55-4.1.84.27,1.66.66,2.52.78.6.09,1.46.15,1.7-.67.22-.75-.61-.78-1-1.12-.37-.32-.71-.67-1.04-1.03-.43-.47-.21-.99.25-1.01,2.54-.13,2.62-1.74,2.08-3.81-.04-.17.05-.38.08-.57.65-.31.77-.79.32-1.37-.76-1.01-.25-1.71.11-2.8.9-2.67,2.52-2.5,4.45-2.14.3.05.66-.21.98-.37,1.32-.66,2.55-1.47,4.08-1.69.79-.12,2.18-.47,1.43-2.19-.23-.54,1.49-2.02,1.71-1.64.5.86,2.13,0,2,1.69-.04.52.54.53.74.12.43-.88.82-1.56,1.87-.84.27.18.47-.27.64-.53.42-.61.86-1.21,1.47-2.05.09,1.71-1.25,2.51-1.27,3.83.18.2.29-.04.43-.06.79-.13,4.17,2.47,4.3,3.31.18,1.14.21,2.37,1.85,1.53.36-.18.92.06,1.38.15,1.31.26,1.75,1.12,1.01,2.33-.85,1.4-.69,2.36.46,3.53.94.96,1.53,2.34,2.22,3.45.85-1.86.73-3.01-.52-4.34-.33-.35-.55-1.01,0-1.05,1.98-.12,2.38-2.08,3.47-3.24.74-.79,2.87-.62,3.12.45.61,2.66,1.67,2.18,3.04.76.12-.12.3-.18.57-.33-.54-.73-1.08-1.06-1.96-.88-.38.08-1.04.08-1.15-.62-.07-.46.06-.93.4-1.23.46-.41.83.13,1.08.36,1.07,1,2.29,1.56,3.8,1.39-1.49,1.17-2.16,4.02-1.44,5.57.56,1.22,1.01,2.52.34,3.87-.35.71-.06,1.25.22,1.81.62,1.25,1.26,2.5,1.92,3.72.22.42.38,1.09,1,.87.52-.19.83-.75,1-1.3.21-.69-.43-.87-.77-1.14-.36-.28-.84-.36-1.73-.71,1.69-.54,2.94-.98,4.21-1.32.59-.16.93-.8.84-1.06-.56-1.6.81-2.98.35-4.54-.33-1.11.66-2.07,1.09-2.18.84-.22.65,1.08.96,1.7.48-.21.39-.61.39-1,0-.49-.65-1.17.25-1.42.59-.16,1.22-.75,1.82-.02.84,1.03,1.69.84,2.43-.09,1.14-1.44,2.05-.19,2.97.29.44.23.12.74-.26.81-.5.1-1.02.02-1.55.02.2,1.34,1.55,2.37.68,3.81-.42.69-.77,1.72-2.23.43,1.88,2.58,3.85,3.42,6.17,2.87.5-.12,1.4-.61,1.37-.17-.07,1.22,1.38,2.2.44,3.44-.44.58-.65,1.37-1.69,1.34-.67-.02-1.5.65-.34,1.48.48.34.6.87.48,1.35-.2.8-.79.22-1.2.25-.43.03-1.01-.03-.88.61.19.93-.02,1.31-.89,1.29-.26,0-.47.12-.38.47.03.11.16.3.21.29,2.32-.62,1.32,1.4,1.62,2.38.05.18.16.33.25.51.64.01.48-.68.44-.83-.69-2.54,1.53-3.31,2.5-4.8.39-.6.84,0,1.11.43.22.34.26,1.01.84.68.48-.28.82-.72.58-1.45-.07-.23-.73-1,.21-.8.86.18,1.6-1.89,2.31-.24.3.69,2.33,1.04.34,2.6,1.68-.38,2.71-.98,3.06-2.76.59,2.62,2.18,4.17,4.17,5.32-.21.5-.35,1-.03,1.51.41.77.78,1.47,1.53,2.04.62.47,1.56,1.5.05,2.53-.89.61-.7,2.06-.86,3.15-.19,1.34-.2,2.54-1.94,2.59-1.05.03-1.76,2.5-1.36,3.58.44,1.21,1.25,2.17,1.64,3.43.45,1.46,1.27.41,1.98-.1.02.27.05.44.05.61.03.65-.87,1.32-.28,1.82.57.48,1.02-.38,1.45-.79.37-.35.8-.44,1.12-.06.39.45-.18.62-.36.89-1.25,1.9-1.19,2.88.39,4.54.45.47.27.78.11,1.32-.41,1.46-1.97,2.69-.89,4.5.05.08-.08.43-.18.46-.52.17-.91-.14-1.25-.53-.3-.34-.46-1.1-1.07-.59-.49.41.1.78.21,1.17.63,2.17-1.11,1.52-1.93,1.81-.6.21-1.12.42-1.39,1.02-.23.5-.13,1.04.31,1.39.47.38.83.72,1.48,0,.55-.6,2.39,1.57,2.28,2.83-.07.83-.59,1.83.88.77.42-.3,1.09.8,1.63,1.27.26.23.37.77.8.62.37-.13.32-.63.47-.94.79-1.63,1.5-3.31,3.19-4.2.93-.49,1.58-.02,2.34.24-.23.72.76,1.6-.3,2.26-.41.25-.08.72.19.95.39.32.82.26,1.09-.2.31-.54.46-1.1.48-1.8.05-1.76,1.22-2.69,2.35-1.79,1.44,1.14,3.72.92,4.28,3.61.36-.54.48-.74.63-.92.29-.35.3-1.13.96-.91.44.15.52.7.56,1.14.22,2.26,1.34,3.99,2.78,5.64-.74.41-2.02.11-1.84,1.65.06.54-.3.38-.58.27-.43-.17-.71-.74-1.32-.53.13.78,2.64,1.52.04,2.41-.53.18-.37,1.23-.15,1.79.3.77,1.25.6,1.55.37.79-.62,1.64-.58,2.49-.78.47-.11,1.36-.08,1.01-1.15.64-.15,1.08-1.07,1.89-.6.88.5,1.97.81,2.01,2.18.03,1.08-1.05,1.33-1.56,1.56-2.15.96-2.19.85-.76,2.71-1.4-.25-2.65-.34-3.91-.22-.36.03-.81.05-.79.54.03.55.47.69.93.62.17-.03.32-.18.49-.24.61-.21,1.76-.33,1.66.12-.21.95.9,1.91-.19,2.83-1.1.93-2.02,2.1-2.99,3.19-.27.3-.51.63-.86.22-.7-.81-1,.27-1.5.35-.48-1.31-.92-2.65-2.19-3.36-.33-.18-.62-.42-.54-.89.23-1.24.23-1.25-.97-1.06-.32.05-.5-.13-.74-.23-2.27-.84-1.87-3.26-2.52-5.02-.18-.49-.08-1.05-.73-.97-.67.08-1.96-.12-1.84.6.28,1.63-1.03,2.9-.51,4.5.31.95-.1,1.79-.81,2.54-1.05,1.1-.62,2.65.82,3.01.65.16.71.53.68,1.1-.06,1.12,1,1.59,1.47,1.57,1.15-.05,2.64.35,3.23-1.39-.21,1.64.46,2.59,1.87,3.19.75.32.67,1.79,1.78,1.85-.08.41.01,1.15-.56.97-2.68-.83-3.42,1.77-4.68,3.23-.4.46-1.06,2,.27,2.88,1.2.8,2.03-.72,3.12-.44-.31-1.79,1.33-1.2,1.86-1.84.67-.81,1.89-1.43,1.62-2.91.27-.03.61-1.01.8.03.22,1.26.09,2.57.61,3.79.16.39-.16,1.1-.67.62-.95-.89-1.12-.21-1.47.57-.42.94-.98,1.82-1.43,2.75-.14.29.25,1.16-.47.76-.8-.44-1.94,1.3-2.5-.64-.41-1.41-.58-1.33-1.66-.34-.42.38-1.07-.05-1.5.43-.32.37-.59-.98-.82-.11-.2.74.69,1.17,1.02.99,1.4-.74,1.12.2,1.26,1.12.15.96,1.09,2.43.97,2.68-.65,1.27.23,1.61.77,2.22.27.31.6.54.94.28.53-.42-.29-.69-.2-.85.4-.73-.41-2.25,1.22-2.21.75.02.27-.58.18-.78-.83-1.74.37-2.27,1.34-1.88,2.4.97,2.43-.62,2.48-2.41,1.09,1.55,2.27,2.79,2.52,4.85.14,1.2-.72,1.6-.84,2.54-.12.96-.61,1.65,1.04,1.41-1.31-.3-1.76,1.8-2.99.82-.27.71-1.6,1.01-.69,2.17.28.35.52.82.18,1.23-.41.51-.8-.28-1.04-.2-1.24.4-2.72.14-3.73,1.15-2.3,2.3-4.85,4.49-4.78,8.39.01.56-.26,1.27.26,1.63.55.38,1.02-.2,1.42-.52,5.88-4.82,12.32-8.63,18.92-12.11,2.13-1.12,2.87-2.93,2.99-5.07.08-1.43.33-2.71.94-4.22.1.75.17,1.28.23,1.81,1.58-.42,2.74-1.88,4.52-1.58.45.08,1.27-.6,1.29-1.58q-2.46,1.3-2.25-2.14c1.62,1.04,2.92,1.04,3.96-.99.33-.65,1.4-.34,2.09.17,1.6,1.17,1.9,1.07,2.31-.84.13-.59.24-.95.82-1.24.29-.14,1.19-.6.4-1.6-.43-.54.92-1.22.77-2.24-.04-.26.84-.1,1.22.25.22.21.41.56.65.06.12-.25.09-.6-.15-.69-1.3-.48-.35-1.48-.47-2.23.78-.05,1.67-.38,1.78,1.03.02.31.52.3.78.15,1.49-.82,2.13.26,2.83,1.59.07-1.03.41-1.81.34-2.72-.06-.78.58-1.47,1.15-1.42.59.05,1.16,1.05.93,1.58-.59,1.38.3,2.34.81,3.09.82,1.2.46,1.36-.55,1.3-1-.06-1.3.41-1.52,1.41-.25,1.15-.11,2.71-1.87,2.87-.53.05-.07.61.07.89.17.34.33,1.25.71.72.69-.96,1.1-.47,1.74-.09.44.26.52-.23.66-.62.52-1.36,1.31-2.18,2.68-1.18,0-1.03.01-1.92,0-2.81-.01-.75.41-1.04,1.01-1.08.51-.03,1.15.18,1.03.77-.47,2.32.59,4.35.87,6.53.05.35.15,1.09-.12.92-.83-.52-1.22,1.12-2.12.27-1.22-1.15-3.31-.67-4.07.73-.46.85.65,1.61.04,2.55-.94,1.44.7,1.25,1.13,1.71.86.94,1.97,1.59,2.03,3.14.02.53-.27.9-.56.67-1.39-1.12-2.41.21-3.57.52.52-1.32,1.36-2.66-.32-3.78-.53-.35-1.73-.48-.57-1.58-.68-.42-.25-2.14-1.74-1.68-.46.14-1.22.06-1.51-.27-.87-.97-1.69-.6-2.61-.22-2.23.91-4.26,2.33-6.6,2.96-.3.08-.67.19-.6.58.31,1.68-.99,1.24-1.4.98-1.56-.99-2.72.03-4.12.56.73,1.35,2.32,1.59,2.74,3.08.09.31.56.27.96.16,1.07-.32,1.8-.88,1.94-2.17.04-.39.11-1.08.64-.98.42.08.84.49,1.12.87.3.41.06,1.01-.26,1.2-1.79,1.05-.95,2.1.1,3.15-.84.14-1.82-.57-2.1.35-.3.98,1.14.95,1.29,1.35.37,1.03,1.66.67,1.79,1.59.3,2.24,1.83,1.08,2.8,1.19,1.6.19.22-1.43.84-1.95.42.14,1.08.59,1.25.12.46-1.21,1.66-1.13,2.33-1.88.22-.25.9-.39.53-1.03-.29-.51-1.37-.82-.49-1.62.8-.73,1.13.61,1.79.69.11.01.23.01.44.02-.16-.61-.32-1.2-.48-1.81.79-.34,1.52-.11,2.26.13-.49.95-.43,1.56.76,1.21.49-.14,1.2.18.98.29-1.33.67,2.25,2.02-.36,2.43-.63.1-2.45.04-1.73,2.01.14.38-.33.72-.51.53-1.47-1.47-2.72.05-3.92.44-1.5.49-2.95.93-4.53.89-1.13-.03-1.45.44-.7,1.49,2.41,3.37,4.67,6.88,7.22,10.09.82,1.03,1.67,3.01,3.57,2.96.27,0,.74.3.62.78-.09.37-.44.4-.74.26-.49-.24-1-.38-1.04.42-.03.62.54.79,1,.93.22.06.48.04.7-.03,1.88-.66,1.98-.65,1.79,1.63-.07.83,1.16,2.1-.64,2.62-1.38.39-2.1-.31-3.19-.99-1.21-.76-2.56-1.6-4.01-1.93-.74-.17-.86,1.07-1.64,1.14-.12.01-.28,1.06.21,1.36,1.72,1.08-.25,2.06-.03,3.09-1.15.12-2.36-.03-3.1-.93-.6-.73-.77-1.88.05-2.8.15-.17.24-.41.39-.66-1.43-.08-2.8-1.98-2.56-3.87.14-1.07-.06-1.33-.94-1.57-.67-.18-1.26-.69-1.89-1.04-.42-.24-.78-.54-.27-1,.83-.73-.49-1.32-.06-2-.54-.25-.77.57-1.28.41-.1-1.41-1.53-2.51-3.11-2.12-1.23.31-2.27.13-3.1-.78-.83-.9-1.67-.19-2.3.02-1.69.57-2.82-.23-3.97-1.28.39-.38,1.39-.51.39-1.42-.61-.55-.16-1.09.15-1.68.43-.8.87-.22,1.34-.25.91-.06.77,1.04,1.36,1.29.83-1.9-.04-3.06-2.1-2.92-2.93.19-5.75,1.25-8.71,1.21-.71,0-.96.4-1.08,1.2-.19,1.19-1.37,1.56-2.02.63-.96-1.38-1.93-1.14-3.09-.41-1.42.9-2.15,2.48-3.27,3.67-.24.25-.64.53-.39.97.25.45.75.41,1.13.31.79-.2,1.47-.73,2.39-.42,1.09.37,1.71-.17,1.65-1.48-.03-.7-.2-1.61.51-1.91.82-.35.49.82.89,1.09.14.1.36.05.51.13,2.83,1.44,5.68.89,8.43-.12.79-.29,1.28-.29,1.91.1ZM63.25,51.35l.03-.03s-.03.03-.03.03ZM96.23,155.07c-.83.16-2.12.89-2.04-.71.05-.97-.27-1.62-.47-2.4-.44-.92.47-1.14.93-1.92-.9.12-1.52-1.43-2.26-.18-.56.95-1.47,1.57-1.91,2.47-.65,1.35-1.7,2.57-1.65,4.25.02.54.46,1.32.75.78.65-1.23,2.01-1.99,2.24-3.28.25-1.38.78-1.95,1.92-2.13-.05.95-.59,1.8-.4,2.82.16.85-.55,1.29-1.1,1.55-1.16.55-1.59,1.97-.68,2.87.66.65,1.57.75,2.31.24.73-.49.21-1.09-.15-1.62-.88-1.31.19-1.35.82-1.18,1.36.35,1.72-.29,1.69-1.57.67.02,1.24.33,1.3,1.06.06.81-.66.97-1.22,1.19-.33.13-.7.19-1,.37-.46.27-.3.79-.31,1.23,0,.29.1.59.38.47,1.32-.53,2.72-.02,4.04-.41.38-.11.56-.46.64-.87.05-.26-.02-.68-.24-.64-1.53.29-1.24-1.13-1.59-1.93-.35-.8-.81-1.51-1.68-1.55-1.04-.04-.66.55-.32,1.07ZM110.95,98.27c.24,1.76-1.09,3.57.43,5.36,1.08,1.27-1.55,3.32.61,4.87.16-1.69,1.38-2.59,1.9-4,1.17-3.14,1.27-3.09.71-3.72-.09,1.2-.09,1.35-.59,1.37-.47.01-.97.85-1.42.06-.32-.57-.51-1.14.21-1.65.43-.3-.07-.39-.21-.62-1.14-1.85-.82-2.71,1.25-3.59.75-.32.87-1.13.43-1.55-.77-.72-.51-1.74-.92-2.63-.5.41-.92.75-1.34,1.09.28-1.25-1.08-1.33-1.36-2.24-.18-.59-.84-.85-1.33-.46-.44.35-1.22.54-1.18,1.28.03.79.78.29,1.15.52.48.29.94.64,1.66,1.13-2.36.57-2.09,2.01-1.36,3.63.09.2.03.5,0,.75-.07.73-.48,1.89.1,2.08,1.07.35.64-1.26,1.27-1.69ZM247.09,124.4c.32-.14.77-.28.66-.71-.13-.51-.44-.05-.67.03-1.07.08-2.29-.17-2.5,1.59-.07.58-.49,1.09-1.13.87-.58-.2-.43-.69-.35-1.26.15-1.03,1.12-1.49,1.29-2.46-1.08-.25-1.22.87-1.74,1.37-.61.58-1.11.34-1.6-.03-.67-.52.04-.86.21-1.26.26-.62.99-.94.98-1.69-.83-.5-1.64-1.13-2.19.32-.19.5-.57.24-.91.13-.51-.16-1.07-.35-1.38.38-.28-.08-.62-.08-.83-.26-2.08-1.73-2.67-1.66-4.33.66-.23.33-.33.17-.54.02-1.03-.75-1.97-.38-2.9.27.96.66.2,2.08,1.11,2.81,1.2.96,1.7,3.28.85,3.96-1.49,1.2-3.37,1.68-5.09,1.85-1.31.13-1.43.81-2.15,1.93,2.17-.81,1.98.57,2.43,1.81.48,1.34-.56,1.53-.83,2.23-.29.75-.78-.09-1.18-.09-1.43-.01-1.73-1.18-1.96-2.27-.09-.42-.02-.72-.49-.75-.53-.03-.78.18-.7.8.07.54-.22,1.09.25,1.63,1.07,1.24.97,2.86,1.15,4.49-.31-.07-.55-.04-.64-.14-.68-.91-1.72-1.04-2.37-.47-.65.57-1.05,1.86-1.07,2.65-.02.91,1.11,1.73,2.06,2.07.75.27,1.39.07,1.84-.96,1.03-2.34,1.66-2.33,3.15-.23.11.15.19.32.27.46,1.32-.61.67-2.39,2.14-3.07,1.4-.64,1.66.22,2.03.91.49.91.38,2.66-.21,2.78-2.14.43-2.13,1.4-1.2,3.07.18.33.09.85.14,1.47,1.42-1.02,2.67-1.2,3.81.34.29.39.95.49,1.47.62.28.07.83.24.77-.4-.14-1.34.73-1.18,1.45-1.22.49-.03,1.07.3,1.42-.5-.47-.52-1.67.33-1.59-.63.08-1.01,1.04-.4,1.63-.38.69.02.86-.57,1.11-1.08.28-.57.3-.92-.3-1.43-.82-.7-1.01-1.95-.61-2.9.39-.93,1.1-1.93,2.4-1.13.46.28.8-.18.96-.61.34-.94.92-1.77.77-2.91-.08-.61-.26-1.5.69-1.71-.76-.75-1.89.68-2.07-.17-.26-1.22-1.02-2.91-.69-3.6,1-2.08-.39-2.93-1.16-4.17-.28-.45-1.19-.78-.29-1.5.94.89,1.6,2.57,3.31,1.13.45-.38.59.38.51.83-.12.6-.47,1.03-.99,1.27-.83.38-.37.93-.13,1.4.3.59.77.6,1.17.14.52-.6,1.14-.88,1.88-.96.83-.09,1.24-.85,1.13-1.47-.34-1.85.83-2.75,1.75-3.85ZM236.97,110.89c.11-.4.68-.65.39-1.19-1.24-2.28-1.09-4.64-.26-7.49-1.06,1.39-3.04.3-3.38,2.78-.12.91-1.98,1.29-3.25.28-1.2-.95-1.97-.35-2.32,1.13-.17.71-.42,2.31-1.94,1.46-.23-.13-1.02-1.21-.96.25.05,1.3,2.08,2.32,3.07,1.6,2.03-1.48,2.09-1.46,3.29,1.19-.59.26-1.12.06-1.69-.16-1.97-.77-2.35-.51-2.87,1.67-.07.29-.33.53-.48.8-.74,1.31-.73,1.3.64,1.54.19.03.44.26.51.45.2.6.56.69.96.36.52-.43,1.42-.45,1.43-1.46,0-.21-.48-.79.03-.55,1.21.58,2.05-.46,3.08-.51-.05.91-1.94.63-1.15,2.13.13.25-.25.34-.49.25-1.97-.72-2.43.77-2.9,2.3,1.18-.75,2.65-.31,3.69-1.29.4.54.05.98.12,1.42q.34,2.33,2.39,1.66c1.77-.57,3.53-1.16,5.31-1.71.6-.18,1.38-.02.77-1.23-.16-.31.07-1.9.5-1.73,1.24.5,1.67-.41,2.25-1.07.45-.51.59-.18.74.2.19.5.46.81.94.43.42-.33.78-.75,1.16-1.13-1.34-1.37.67-1.94.67-3.1,0-.93.27-1.83-.56-2.38-.91-.6-1.14.5-1.66.92-.68.55-1.4,2.03-2.23,1.22-1.28-1.25-1.8-.61-2.4.52-.17.32-.37.65-.65.4-.94-.84-1.82.17-2.73.02ZM64.65,108.49c.71-1.12,1.71-1.16,2.88-1.35,2.58-.41,5.11-1.26,7.64-1.99.68-.2,1.63-.39,1.91-.93.76-1.44,1.43-1.22,2.46-.41.6.47,1.59.39,1.84-.4.24-.78-.13-1.68-1.23-1.61-.13,0-.26-.09-.53-.19.55-.12.94-.21,1.47-.33-1.35-2.1-3.02-3.39-5.24-3.87-.77-.17-1.98-.16-1.08-1.68.17-.3,0-.64-.21-.88-.46-.55-.52.2-.78.29-.33.11-.8-.01-1.02.2-.9.89-1.78.26-2.08-.41-.42-.93.77-1,1.41-1.62-1.39-.14-2.72-1.14-3.4,1.09-.24.8-3.71.73-3.94-.09-.38-1.36-1.26-1.16-2.18-1.44-1.18-.35-2.1.29-3.13.4-.46.05-1.09-.12-1.2.54-.1.61.5.71.9,1,1.18.85,2.37,1.71,2.23,3.62-.09,1.24-1.58.46-1.7,1.65-.1,1.06-.78,1.18-1.57.65-.39-.26-.94-.82-1.2-.16-.41,1.05,1.08.82,1.22,1.73.12.8.34.2.58-.08,1.2-1.41,2.67-.7,3.58.1.43.37.26,2.2-.38,3.29-.57.97-1.16,1.24-1.93.33-.41-.48-1.12-.85-1.21-.18-.1.71-.83,1.34-.33,2.17.49.8.96.5,1.5.11.1-.07.44,0,.45.05.33,1.65,1.47.45,2.18.74-1.06,2.14-.31,3.93.96,5.59.29.38.64.86,1.19.65.44-.17.55-.69.59-1.12.11-1.15.15-2.31.22-3.46.09,0,.19,0,.28.01v3.38c.29-1.97,1.27.21,1.7-.33q-.06-1.44,1.22-1.13c.1.02.21-.04.32-.06,1.19-.23,2.27-1.29,3.6-.42.31.2.48-.19.29-.58-.19-.38-.55-.7-.38-1.38,1.45,1.57.78-1.12,1.92-1.07.79.04,1.63-1.36,2.84-.29-.29.22-.45.41-.66.5-.54.26-1.39.5-1.19,1.16.15.51.98.98,1.57,1.08.92.16,1.93.17,2.82-.08,2.93-.85,5.86-1.55,8.93-1.38-.13-.91-.06-1.78-.62-2.46-.86,1.44-1.7-.23-2.61.19.18-.68.39-1.05.84-1.18.49-.14.59-.49.21-.81-.73-.64-1.49-1.82-2.35-1.59-2.42.66-5.72-.62-6.78,3.71-.6-1.33-.96-2.41-2.38-1.98-2.75.85-5.56,1.47-8.29,2.38-.74.25-1.39.54-2.16.34ZM166.8,209.82c.8.74,1.48.53,2.15-.25,1.15-1.32-.76-1.74-.66-2.9.29.19.52.35.76.49.35.21.49,1.15,1.07.52.37-.4.05-.97-.11-1.45-.14-.42-.32-.54-.79-.51-1.45.11-2.92.09-4.19,1.04-.39.31-.53,1.09-1.28.8-.19-.86.31-1.36.87-1.69,1.12-.65.94-1.14.08-1.95-.69-.66-1.15-1.57-1.22-2.67-.05-.74.47-.81.81-1.12.25-.23.64-.34.77.02.83,2.36,3.96,1.4,4.72,3.88.16.52.61.31.79-.1.14-.33.57-.99-.08-1.03-1.55-.08-.72-1.04-.63-1.7.17-1.27,1.03-2.52-.21-3.81.62-.03,1.04-.09,1.45-.07.43.03.7-.02.61-.6-.07-.45-.19-.72-.7-.52-.21.08-.47-.01-.71-.01-.39,0-.93.27-1.05-.35-.11-.58.42-.68.81-.83.25-.09.63.08.64.04-.08-2.01-2.99-2.01-1.85-4.34.02-.05-.2-.34-.34-.37-.91-.24-1.31-1.03-1.19-1.85.1-.69.84-.77,1.49-.69.63.08.44-.46.41-.78-.05-.51-.34-.44-.62-.2-.58.5-1.17.4-1.78.17.21-1.26.89-2.2,1.82-2.24.59-.03,1.59.38,1.91,1.4.13.43-.31,1.47.64,1.16.98-.31,2.23.37,2.94-.93.42-.77.23-1.12-.71-1.42-.19-.06-.35-.31-.48-.5-.24-.34-3.93-1.83-4.25-1.68-.11.05-.22.11-.31.18-.54.41-.72,2.08-1.53,1.13-.62-.72.78-1.33,1.27-2,.07-.1.17-.18.24-.28.55-.74,2.22-.64,1.75-2.02-.31-.91-1.62-.53-2.46-.79-.33-.1-.78.03-.96-.38-.26-.59.25-.76.56-1.02.63-.53.82-1.2.15-1.76-.57-.49-1.12-.18-1.5.47-1.57,2.75-3.42,5.36-4.66,8.28-2.65,6.22-4.93,12.64-7.45,18.92-3.86,9.62-4.49,19.62-4.08,29.84,0,.16.15.31.28.56.93-1.62,1.95-3.07,2.67-4.67,2.6-5.83,8.24-9.08,10.74-14.99.25-.59.53-.76-.16-1.06-.52-.22-.47-.95-.99-1.3-.76-.51-.27-1.46-.09-2.08.17-.59.86-.3,1.23,0,.78.64,1.6-.58,2.19-.03.86.8-1.16,1.32-.37,2.3.16.2-.17.65.37.79.43-.99.52-2.18,1.23-3.04ZM144.86,241.9l.44-.13c0-1.8-.03-3.6,0-5.41.17-9.32-.77-18.47-3.42-27.37-.97-3.26-2.37-6.37-2.84-9.8-.1-.73-.54-1.31-1.06-1.75-2.23-1.85-4.39-3.8-6.83-5.32-1.26-.78-2.54-.61-3.75.14-.66.41-.27,1.65-1.15,2.02-.41-.57.22-1.56-.77-1.79-.81-.19-1.38.32-1.97.71-.65.44-.66,1.01.17,1.13,1,.14,1.04.93,1.18,1.67.2,1.14.4,2.25,1.24,3.12.45.47-.32,2.6-.86,2.86-1.23.6-1.92-.55-2.85-.9.46-.86-.67-2.44,1.09-2.73.35-.06.56-.71.29-.96-.77-.7-.69-2.41-1.78-2.39-.81.02-1.55.5-2.28-.29-.07-.08-.07.81-.5.39-.23-.23-.3-.92,0-1.05,2.11-.95.79-2.08.32-3.33-.2-.52.05-1.25-.75-.79-.66.38-1.98-.29-1.92,1.29.01.31.22.67-.15.84-.32.15-.55-.11-.73-.4-.12-.18-.12-.51-.48-.38-1.67.58-2.5.38-3.27-.82-.54-.83-.67-1.38.62-1.39.54,0,1.64.54,1.51-1.1-.07-.85,1.35-1,1.48-2.01.07-.59-.45-.42-.71-.61-1.66-1.24-3.76-.36-5.48-1.37-.28-.16-.92-.17-.92.53,0,.44.11,1.09.62,1.01,1.89-.28.95,1.5,1.32,2.25.18.36-.45,1.49-.96,1.82-.34.22-1.32.17-1.72-.4-.38-.55-.87-1.22-.02-1.99.71-.64-.03-1.29-.34-1.86-.37-.69-.83-.22-1.22.02-.64.39-1.21.76-1.87-.02-.31-.37-.83-.17-1.17.09-.36.27-.13.68-.04,1.05.23.95,1.22,2.33,1.16,2.42-1.17,2,.14,3.91.13,5.83,0,1.68-.2,3.65.89,5.05,3.73,4.79,7.26,9.79,11.8,13.78,4.03,3.54,8.17,6.95,12.04,10.69,5.6,5.42,11.21,10.88,15.52,17.66ZM69.39,154.55c.95.89.93,2.29,2.17,2.33,1.3.04,1.43-1.18,1.78-2.25.33-1.01.64-2.04,2.15-2.14.98-.06,2.07-1.11,2.79-2.01.32-.4-.3-1.87-.96-1.83-1.8.09-3.72-.08-5.35.35-1.55.41-1.15-1.09-1.87-1.18.27-.71-.43-1.77.83-2.17.86-.27,1.59-.48,2.38.13.46.36,1.09.94,1.59.28.58-.78-.52-.75-.72-1.21-.26-.58-.75-1.13-.32-1.76.21-.3.94-.6,1.08-.47.82.78,2.36.84,2.67,1.62.84,2.09,2.94,1.13,3.92,2.55-.03-.38-.17-.59-.28-.81-.23-.47-.99-.82-.5-1.47.58-.76.89.17,1.28.41.54.34,1.33.44,1.24-.25-.16-1.22.4-2.84-.9-3.61-1.43-.85-.77-1.22.15-1.66.47-.22.97-.38,1.63-.63-.84-.81-1.03-1.62-.52-2.59.14-.27.39-.82-.13-.98-1.91-.58-.56-1.74-.54-2.76.03-1.54,1.09-.42,1.57-.9.73-.72.86.5,1.29.81.57.41,1.19.81,1.82.56.88-.34,0-.95.04-1.44.07-.73-.08-1.51.96-1.77,1.23-.31,1.02-1.09.13-1.69-.64-.43-1.46-.55-1.14-1.78.13-.49-.91-.92-.93-.78-.34,2.29-1.55.15-2.32.51-.71.33-1.21-.89-1.14-1.57.08-.77.81-.3,1.31-.31,1.12-.01,1.97-.73,3.04-1.78-1.1.16-1.58.06-1.95-.91-.42-1.11.03-2.98-1.86-3.15-.22-.02.04-.41.1-.63.5-1.87,1.9-2.18,3.4-2.52,1.41-.32,1.35,1.12,2.07,1.79.74-.91,1.36-1.71.71-3.03-.28-.58-.52-1.51-.06-2.01,1.48-1.62.04-1.23-.71-1.29-.82-.07-1.51.09-1.81,1.14-.15.53-.47,1.07-1.15.98-.37-.66.13-1.81-1.25-1.83-2.33-.03-4.31,1.37-6.54,1.62-.56.06-.04,1.46-.97.88-1.16-.72-1.45.35-1.89,1.05-.4.64-.09,2.34-1.29,1.71-.92-.48-1.54.87-2.38-.05-.3-.33-1.26-.06-1.87.12-.21.06-.33.67-.12,1.06.42.79,1.15,1.04,1.85.8,1.65-.57,1.73.42,2.08,1.79.4,1.54-.51,1.85-1.22,1.77-.58-.07-1.86.01-1.65-1.62.19-1.45-1.28-1.64-1.99-1.63-1.22.02-.23,1-.24,1.57-.01,1.04.42,2.26-.88,2.71.8.79,1.98.69,2.61,1.66.19.29.93.68.2,1-1.32.58-.81,1.65-.82,2.62,0,.42.45,1.1-.43,1.11-1.56.01-2.42,1.47-3.69,2.09-.46.23-.43.87-.26,1.37.46.53.85-1.43,1.26-.02.17.58,1.27,1.53-.4,1.71-.36.04-.6.66-.49.93.48,1.28-.15,2.52,0,3.77.49,4.05.67,8.12.57,12.2-.02.71,0,1.42.03,2.14.01.39.05.85.52.86.38,0,.34-.42.46-.71.41-.97,2.74-2.23,3.32-1.85,1.38.91,1.8,2.98.95,4.8-.71-.49-.89-1.71-2.44-1.71ZM149.81,258.06c.11-.1.24-.16.27-.26,2.4-7.41,6.16-13.94,10.71-20.01,1.88-2.5,3.52-5.22,5.24-7.86.48-.74.95-1.52,1.05-2.44.39-3.59.77-7.19,1.58-10.71.23-1-.21-1.65-.9-2.11-.74-.48-1.07.34-1.44.76-5.86,6.66-11.34,13.62-15.32,21.84-.85,1.75-1.39,3.51-1.36,5.54.07,4.46,0,8.93,0,13.39,0,.61-.17,1.26.17,1.86ZM99.21,171.5c-.77-.38-1.28-.75-1.82-.87-1.34-.27-.93-.79-.24-1.41,1.78-1.6,1.72-2.37-.25-3.63-.25-.16-.47-.55-.7-.55-1.02-.02-.41-.66-.52-1.12-.14-.58.89-1.56-.1-1.56-1.09,0-1.04-.74-1.34-1.35-.28-.56-.69-.88-1.3-.83-.46.03-.91.23-.89.75.06,1.64-.85,1.62-1.96,1.52-1.46-.13-1.51.69-.87,1.8.43.74.9,1.45,1.53,2.45-1.58-.43-1.78.29-1.66,1.53.37,3.66.71,7.32.93,11,.11,1.79.78,3.18,1.8,4.5,2.18,2.82,4.22,5.78,6.49,8.51,1.53,1.85,3.35,3.41,5.33,5.4.08-2.48-.25-4.49-.51-6.5-.06-.44-.44-1.12-.73-.97-1.05.54-1.54-.62-2.35-.72-.35-.04-.91-.22-.46-.61.56-.5-.62-1.58.59-1.66,1.4-.1,1.55-.73.67-1.82-.31-.39-.18-.87-.15-1.31.13-2.02-.48-2.89-2.28-3.23-.46-.09-1.09.35-1.25-.61-.13-.75-.13-1.17.69-1.4.57-.16.53-.8.25-1.29-.31-.55-.67-.33-1.05-.05-.56.41-1.08,1-1.88.7.16-.86.31-1.63.43-2.3-.54-.64-1.42.63-1.71-.58-.26-1.1.44-1.69,1.15-1.83,1.47-.29,2.54-1.41,4.17-1.98ZM65.37,153.11c.17-.3.31-.44.33-.6.7-6.75-1.01-13.4-.73-20.13.01-.26-.18-.68-.33-.57-1.42,1.11-1.65-.96-2.53-1.07-1.04-.14-1.13-.75-.99-1.61.07-.47.03-.86-.2-1.29-.37-.69-1.28-1.75.6-1.29.49.12.54-.41.51-.79-.05-.67-.09-1.27.67-1.57.61-.24.52-.82.24-1.29-.85-1.39-.56-2.31.86-2.97.36-.17.79-.81.76-1.2-.06-.9-.98-.74-1.51-1.08-.94-.61-.35.4-.5.59-.25.32-.47.39-.73.13-1.58-1.65-2.25.03-2.91,1.07-.29.45-1.45,1.17-.58,1.67,1.55.9.06,2.43.89,3.4.16.19-.23.57-.57.51-1.42-.26-1.73,1.96-3.24,1.67-.32-.06-.28.74-.14,1.18.13.43.41.87.38,1.27-.38,4.27.92,8.3,1.45,12.44.13.98.55,1.8,1.01,2.65,1.85,3.49,5.01,5.66,7.26,8.88ZM212.08,158.97c-.1,2.28-.94,4.1-.65,6.17.34,2.43.22,4.9.05,7.36-.04.54-.41,1.27.22,1.56.47.22.8-.43,1.15-.75,4.33-4.09,8.76-7.99,14.1-10.49,1-.47,1.96-1.06,2.93-1.59-2.42-.35-2.96-2.08-2.93-4.31-.82.55-.92,1.17-.93,1.83-.02.66.31,1.82-.55,1.71-1.05-.13-.31-1.26-.3-1.94,0-.36.23-.72.36-1.08.11-.32.19-.72-.2-.79-.65-.12-1.32-.35-1.21-1.11.12-.82,1.08-.61,1.63-.94.34-.2.87,0,1.2-.21.51-.32,1-.89.73-1.57-.21-.55-.7-1.35-1.09-1.37-.71-.02-.59.7-.41,1.31.12.42-.3.6-.53.88-1.12,1.36-2.31,0-3.43.08-.16.69.57,1.58-.2,1.82-.79.24-.76-.79-.93-1.34-.47-1.57-1.74-1.53-2.88-1.74-.32-.06-.55-.02-.74.51-.54,1.53-1.54,2.73-3.01,3.29-.93.35-1.52.66-.43,1.58.64.53.65,1.47,1.25,2.08.53.53.1,1.25-.32,1.7-.44.49-.83-.07-1.25-.23-.96-.37-.68-1.59-1.63-2.41ZM99.22,128.96c-.82.71-.91,1.99-1.8,1.53-.8-.41-1.72-1.02-1.19-2.35.04-.11.04-.26,0-.38-.22-.96-1.17-1.24-1.62-2.01-.13-.23-.42.01-.58.21-1.12,1.34-.91,2.16.49,3.5.63.6,1.16,1.44,1.07,2.61-.08,1.08-.77,1.64-1.39,1.6-1.88-.1-1.16,1.3-.79,1.81.86,1.21.63,2.18.04,3.34-.21.42-.6.98-.29,1.58,1.08.09,2.27-.77,3.08.72.36.67.97,1.27,1.78.98.85-.3.97-1.22,1.12-2.03.07-.36-.15-.78.22-1.08.61-.05.7.61,1.06.89.69.54.13,2.19,1.23,2.04.75-.11,1.38-1.08,2.08-1.66.05-.04.19.04.37.08-.22.54-.42,1.07-.64,1.59-.16.36-.8.56-.36,1.11.27.35.64.16,1,.07,1.53-.41,3-1.06,4.67-.59.78.22,1.64-.09,2.36-.62.73-.54,1.49-1.29,2.25.43-.05-1-.11-1.57-.11-2.13,0-1.2.02-1.96-1.58-2.31-1.65-.37-3.09-1.9-4.59-2.95-.42-.29-.21-.83-.25-1.26-.09-1,.07-2.26-1.55-1.31-.55.32-1.34.15-2,.21-.12-.4.12-.52.28-.7.22-.27,1.04,0,.66-.79-.19-.4-.57-.71-1.03-.64-.4.06-.95.17-.86.76.35,2.27-.95,1.07-1.49.74-.92-.57-2.45-.77-1.65-2.98ZM245.84,138.07c-1.01.15-1.61.32-2.13,0-.45-.28-.84-.64-1.12.11-.23.61-.76,1.3.25,1.75.56.24.8.73.18,1.12-1.13.71-1.14,1.28-.04,2.05.46.32.76,1.02.21,1.49-.52.45-1.08.37-1.18-.59-.05-.5-.48-.43-.67-.2-.9,1.11-2.24,1.91-2.28,3.63,0,.46.14.87-.35,1.16-.44.26-.9.86-.38,1.18.49.3,1.04,1.22,1.68.69.98-.81,2.71.4,3.24-1.51.06-.22.58-.09.8.14.59.61,1.12.7,1.6-.12.44-.75,1.53-1.13,1.07-2.42-.51-1.44-.07-2.08,1.33-1.68.8.22,1.08-.21,1.24-.65.39-1.08.86-2.04,1.57-2.93.33-.41.69-1.45.12-1.74-.86-.45-.44-1.1-.36-1.5.33-1.53-.92-3.12.25-4.63.27-.35.09-1.15-.4-1.57-.35-.3-.52-.66-.56-1.15-.17-2.2-.81-1.98-2.36-1.86-2.05.15-2.06,1.7-2.64,2.84-1.09,2.13-1.55,4.33.91,6.42ZM46.2,115.53c-1.35.87-1.88-.65-2.76-.85-1.48-.34-1.04-1.66-.86-2.41.15-.65.65-2.22,1.96-.69.41.48,1.76.47,2.11-.46.27-.72-.67-1-1.22-1.03-1.4-.07-.82-1.35-1.07-2.05-.28-.76.5-.9,1-1.02,1.13-.27,1.95-.87,2.3-2.12.24-.83-.22-1.26-.79-1.48-.92-.36-.49.56-.62.91-.69,1.86-3.76,2.99-5.57,2.56-1.01-.24-.04-1.76-1.24-1.38-.24.61.67,1.64-.49,2.04-.02,0,.02.55.17.7.79.85,2.07,1.58.15,2.67-.29.17,0,.85.18,1.26.4.9,1.07,1.53,1.75,2.17.34.32,1.08.76.79,1.13-.9,1.16.33,1.44.78,2.15-.85-.06-1.72-.21-1.34.97,1.24,3.88,2,7.97,4.18,11.43.9,1.43,2.31,2.54,3.05,3.96.85,1.63,1.98,2.69,3.47,4.13-.36-2.48-.44-4.58-1-6.52-.59-2.03-1.07-4.19-2.7-5.73-2.4-2.28-2.87-5.65-4.35-9.08,2.15,1.45,1.57-.55,2.11-1.27ZM167.3,59.96c-.25-.07-.37-.14-.47-.12-.88.2-1.94.53-2.13-.81-.19-1.31-.08-2.75,1.82-2.4.61.11.63-.47.76-.86.2-.61.08-1.17-.45-1.52-.66-.44-1.35-.82-2.02-1.23-.31-.19-.77-.66-.42-.82,1.6-.73.47-1.95.56-2.94.03-.35.21-.93-.37-.76-.33.09-1.31-.53-1,.72.13.54-.34.73-.64.74-1.81.04-2.14,1.81-2.98,2.96-.51.7-.66,1.43.15,2.18.82.77.5,1.59-.23,2.27-.69-.41-.38-2.07-1.47-1.65-.78.3-.86,1.39-.73,2.38.18,1.38.19,2.76-1.33,3.45-.4.18-.93.63-.72,1.2.36.96-.34,1.35-.87,2.03,1.39.21,2.18,1.71,3.69,1.27.33-.1,1.04.42,1.01.92-.08,1.11.61,1.07,1.22,1.18.33.06.53.94.99.22.31-.5-.14-.65-.39-.9-.35-.34-.6-.76-.05-1.08,2.23-1.3,2.17-3.68,2.44-5.92,1.26.57,2.59,2.03,3.63-.52ZM202.51,179.98c1.25-.29,2.39-.7,2.89-1.64.87-1.63,2.14-2.11,3.68-2.3,1.03-.12,1.36-.85,1.39-1.89.08-2.96.23-5.93.28-8.89.03-1.94-1.34-3.21-3.09-3-.36.04-.49.22-.53.61-.24,2.35-2.28,3.01-3.6,4.3-.47.45-1.17.68-1.14,1.44.05,1.28-.6,2.74.57,3.79.41.37,1.41.2,1.2,1.08-.19.82-1.06.05-1.65.41.27.86-.25,2.1,1.14,2.43.33.08.43.56.1.74-1.13.62-.71,1.88-1.24,2.91ZM137.93,192.69c-.52-3.16-1.03-6.32-1.58-9.48-.07-.41-.3-.88-.59-1.15-1.54-1.44-3.2-2.7-5.03-3.66-1.11-.58-2.26-.08-3.17.65-.64.51-.91,1.73-.5,2.26.87,1.12.52,2.65,1.38,3.71.26.32.52.91.05,1.18-.49.29-.7-.3-.87-.7-.5-1.16-.95-2.35-1.48-3.49-.14-.3-.46-.7-.86-.49-.39.2-.24.66-.23,1.03.06,1.57,1.72,2.46,1.5,4.15,0,.06.29.2.46.25,3.87,1.24,7.23,3.55,10.92,5.74ZM81.73,200.6c.11.1.21.2.32.3.65-.56,1.29-1.12,1.91-1.65.42.91.79,1.79,1.24,2.62.27.5.94.74,1.01.05.09-.91-.13-1.93,1.11-1.25,1.04.57,1.38-.62,2.1-.63.3,0,.42.49.32.79-.48,1.45.44,1.24,1.2,1.25,3.87.04,7.74-.15,11.61.31.58.07,1.29.34,1.88-.4-1.33-1.59-2.44-3.35-4.03-4.64-.52-.42-.98-.97-1.7-.97-2.8,0-5.6-.23-8.39.17-.91.13-2.06-.06-2.13,1.64-.03.66-.84,1.01-1.66.94.12-.65.51-1.55.03-1.87-.56-.38-1.49-.29-2.03.23-1,.95-1.87,2.07-2.8,3.12ZM168.66,223.96c.63-.04.74-.47.91-.77,2.45-4.5,4.9-9.01,7.33-13.53,1.02-1.89,2.27-3.65,2.85-5.79.12-.43.4-.9-.01-1.25-.42-.35-.78.1-1.1.34-2.75,2.05-5.12,4.55-7.43,7.14-.79.89-.72,1.69,0,2.5.24.28,1.18-.09.76.77-.35.72-.1,1.97-1.31,2.03-.34.02-.77-.19-.84.4-.34,2.71-1.14,5.36-1.15,8.16ZM81.52,163.47c-.21,1.96-.99,3.75.2,5.68.54.88.7,1.91,1.89,2.06.49.06,1.01.36.47,1.03-1.31,1.63.23,1.63.99,2.16.69.49,1.86,1.15,1.83,1.68-.09,1.77,1.02,2.38,1.93,3.29.03-2.72-.23-5.34-.28-7.97-.04-1.99-.75-3.74-1.32-5.55-.32-1-2.96-1.87-3.52-1.05-.93,1.37-1.15.48-1.47-.37-.13-.34-.05-.8-.71-.97ZM277.24,133.64c-3.56-.05-6.24,2.29-9.19,3.93.33.77,1.38.52,1.3,1.34-.07.7-.82.59-1.3.78-.42.16-.73.45-.79.94-.04.32.23.42.44.53,2.51,1.25,5.07,2.15,7.87,1.36,1.55-.44,2.34-1.85,2.82-3.26.41-1.21-1.01-1.33-1.62-1.9-1.12-1.05-.9-2.91.48-3.72ZM212.46,62.6c.61,1.25.8,2.16.3,3.08-.3.54-.2.9.42,1.18.81.37.63,1.6.46,1.89-.33.57-.94-.04-1.33-.4-.33-.3-.63-.43-.91-.03-.29.41-.07.84.26.95,1.08.38.79,1.25.75,2.06-.03.46-.49,1.13.21,1.32.57.15,1.08.02,1.64-.65.75-.91,1.71-2.16,3.23-1.03.58.43,1.46-.28,2.1.35.21-1.03.43-2.05.61-3.08.03-.14-.06-.31-.33-.15-1.24.74-1.83-.89-2.86-1.02-.17-.02-.93-.27-.61-.93.24-.48.28-1.36.94-1.24,1,.18,1.42-.62,1.57-1.21.38-1.53,1.15-2.78,1.97-4.03.38-.57.42-1.32.03-1.78-.41-.48-.86.2-1.22.43-.78.5-2.35.32-1.75,2.19.1.3-.35.52-.65.5-1.03-.04-1.66.83-2.61,1.04.38.57.81.93,1.12.45.47-.71.8-1.07,1.46-.27.28.34.74.62.26,1.09-.49.48-.86,1.15-1.81.74-.95-.42-2.02-.52-3.25-1.45ZM200.77,180.19c-1.08-1.42-1.18-4.16-.03-4.54,2.05-.67.82-1.98.56-2.69-.35-.96-.58-1.71-.22-2.71.17-.46.3-1.36-.38-1.47-.61-.1-.76.68-.82,1.26-.12,1.12-.26,2.15-1.68,1.94-.31-.05-.68.45-.57.49,1.65.63-.19,1.99.55,2.89.47.57-.03.73-.54.49-.24,1.02-2.41.34-1.69,1.93.71,1.57-.36,1.37-.97,1.45-1.11.16-1.49,1.64-1.19,1.71,1.52.39-.29,1.28.39,1.82,1.5,1.2-.33,1.02-.61,1.5-.18.31-.17.69.12.85.83.45,1.76.39,2.58.1.76-.27.21-1.03.12-1.51-.29-1.54.46-1.49,1.41-1.19.33.11.62.32,1.15.6-.67-1-1.13-1.74-1.65-2.42-.2-.25-.81-.22-.58-.74.24-.54.7-.21,1.1-.1.9.25,1.8.69,2.95.31ZM149.9,207.62c.58-1.46,1.2-2.91,1.74-4.4,2.82-7.76,5.62-15.53,9.36-22.84.33-.65.59-1.33.08-2.52-2.58,6.99-6.03,13.05-9.57,19-2.08,3.5-1.92,6.99-1.62,10.76ZM90.31,104.56c.23-3.23.27-5.94.67-8.58.3-1.97-.51-2.47-1.99-2.86-1.1-.29-1.45-.23-1.2,1.1.18.95.41,1.68-1.18.96-2.02-.92-2.63-.11-1.84,2.41.91,2.9,3.53,4.33,5.54,6.97ZM189.05,170.26c.33,1.65-1.08,1.83-1.66,2.61-.9,1.21-1.79,2.29-.44,3.8.59.66.69,1.28-.47,1.31-.66.02-.69.58-.36.93,1.4,1.53,1.54,3.36,1.23,5.32-.24,1.55.81,3.08,0,4.65,1.21-.99.28-2.58.99-3.71.72-1.15,1.09-2.41.82-3.84-.25-1.26-.28-2.51.14-3.83.93.67-.08,1.35.59,2.03.71-3.27,1.68-6.37-.84-9.28ZM134.61,177.62l.32-.55c-.79-1.28-1.57-2.58-2.37-3.85-.98-1.54-1.97-3.08-2.97-4.6-.33-.5-.82-.79-1.39-.55-.26.11-.53.51-.36.79.55.89.14,2.07.83,2.92.34.42.83,1.16.22,1.48-.75.38-.93-.61-1.09-1.16-.51-1.76-1.3-3.28-2.76-4.32-.4-.28-1.03-.81-1.09-.16-.07.83-2.08,1.62-.17,2.57.26.13.44.57.22.84-.64.79.13.81.45.96.48.23,1.14.17,1.49.51,2.55,2.48,6.29,2.33,8.67,5.12ZM158.86,172.71c-1.48-.42-1.82.59-2.38,1.27-1.17,1.43-.76,3.45-1.55,4.94-.64,1.21-1.6,2.19-1.8,3.7-.13.94-.42,1.96.65,2.25.86.24,1.94.54,2.5-.86.83-2.07,1.75-4.08,2.66-6.11.42-.94.1-1.54-.58-2.16-1.17-1.06-1.07-1.97.49-3.02ZM56.32,141.99c-.54-3.99-.99-7.51-1.51-11.01-.13-.86-.15-2.14-1.51-1.75-1.07.3-2.17.65-1.41,2.39.32.72.24,1.64.36,2.47.42,2.84.42,5.86,2.78,7.9.27.23.48.68.88.51.38-.16.41-.6.41-.51ZM178.31,211.66c.08.1.17.2.25.29.66-.42,1.32-.83,1.98-1.27,2.26-1.49,4.02-3.56,5.63-5.8.16-.23.14-.48-.04-.7-.59-.72-.1-1.12.35-1.59.51-.52,1-1.16-.03-1.58-.7-.29-1.33-1.87-2.25-.15-1.92,3.62-3.93,7.19-5.9,10.78ZM180.62,141c-1.5,1.37-3,2.75-4.51,4.12-.45.41-1.12.77-.89,1.53.39,1.26.91,2.47,1.39,3.69.03.07.24.12.32.07.98-.58,2.29-.57,2.75-2.05.33-1.03.73-2.08,1.3-2.97,1.05-1.64,1.01-3.06-.37-4.39ZM181.92,75.31c.8-.11.85,1.05,1.38.57.42-.38.57-1.1.84-1.67-1.19-.53-.17-2.53-1.71-2.74.33-.58,1.25-.22,1.13-1.14-.61-.23-1.54.21-1.7-.92-.11-.78-.62-.41-.97-.43-.66-.04-.26.5-.36.79-.38,1.08-.43,2.5-2.27,2.46,1.22.62,2.45.12,3.36.91-1.02,2.27-2.77.35-4.09.71-.11,2.71,2.15,4.23,2.18,6.1-.95-.59,1.25-1.56.43-2.64,1.03-.25,1.76-.83,1.78-2.02ZM167.87,128.31c0,.93-.03,1.69,0,2.46.08,1.8,1.22,2.85,2.8,2.63.85-.12,1.51-1.55,1.06-2.46-.26-.52-.04-.88.13-1.26.26-.61.24-1.28-.21-1.6-1.5-1.06.02-2.81-.85-3.99-.09-.12.11-.28.29-.39.74-.47.84-.98.22-1.26-.77-.35-1.7-.51-2.42-.16-.79.38-1.06,1.31-.14,1.92.49.33.84.45.82,1.22-.02,1-.87.6-1.36,1.18,2.77.18,1.4,3.08,3.14,4.48-1.77-.6-2.11-2.23-3.48-2.77ZM161.62,98.02c.31.04.61.14.9.1,1.33-.2,2.83-2.46,2.22-3.39-.5-.76-.98-1.63-1.5-2.25-.89-1.05-1.5.29-2.12.97-.15.16-.57.07-.85.03-.87-.12-1.94-.08-2.19.8-.25.92.08,2.16.92,2.75.76.54,1.5,1.53,2.63.98ZM164.85,82.47c.73-.29,1.14,1.45,1.54.61.5-1.06.04-2.53.68-3.7,0-.02-.35-.39-.55-.4-1.49-.1-1.94-1.37-2.5-2.52-.16-.32-.21-.83-.68-.72-.44.1-.38.58-.42.96-.15,1.58-.5,3.05-1.56,4.26-.63.71-.27,1.42.42,1.69,1.25.49,2.44,1.13,3.62,1.84.27-.93-.86-1.22-.54-2.02ZM78.6,162.06c.53-.52-.06-1.67.99-1.23.59.25,1.01.33,1.32-.38.3-.68-.18-1.1-.47-1.54-.34-.5-.86-1.05-1.25-1.26-1.47-.76-.28-1.85-.39-2.72-.1-.84.73-.39,1.22-.35.45.04.7-.4.54-.76-.51-1.16-1.97-.78-2.7-1.82-.15-.21-.42.93-.33,1.53.08.51-.35.54-.58.8-1.2,1.27-3.02,1.94-3.27,4.15.48.37.93.4,1.6-.15,1.06-.85,2.31-.34,3.39.1.47.19.68,1.21.07,1.42-2.05.7-.41,1.36-.13,2.19ZM113.61,154.3c-2.43-.03-2.58,0-2.42.69.31,1.42-.06,3.19,2.15,3.6.9.17,1.92.45,2.88.67.43.1,1.18.89,1.34.04.19-1,.86-2.44.06-3.09-1.21-.98-2.32-2.75-4-1.91ZM202.21,61.3c.37-.33.84-.56,1.04-.96.33-.64-.34-.82-.65-1.17-.36-.39-1-.75-.62-1.4.3-.52.72.05,1.09.16.63.2,1.07.03,1.48-.63.41-.66.21-1.13-.16-1.54-.92-1.03-1.68-2.44-3.42-1.71-.86.36-2.12.91-1.97,1.63.19.94-.6,2.52,1,2.92.35.09.47.31.36.7-.49,1.84,1.19,1.23,1.84,1.99ZM143.86,137.63c-.97-.46-1.53-.4-1.74.25-.52,1.58-1.12,3.23.47,4.71-1.13-.45-2.01.7-3.03.18-.23-.12-.45.14-.45.43,0,.33.25.44.49.37,1.09-.32,1.58.25,1.67,1.34.06.76.65.84,1.09,1.13.8.53,1.79.69,2.39,1.65.5-1.47-.77-1.6-1.57-2.61,1.31.35,1.87-.03,1.71-1.06-.18-1.22.61-3-1.15-3.4-1.11-.25-.83-1.08-1.01-1.7-.19-.64-.15-1.35,1.12-1.29ZM74.54,75.66c-.44-2.09.32-2.99,2.18-2.91-1.56-1.99-2.26-4.12-1.42-6.31.54-1.43.65-2.32-.54-3.27-.38-.31-.53-1.26-1.15-.81-.53.38-.94,1-.37,1.97.17.29,1.6,2.26-.61,2.48-.06,0-.17.42-.14.45,1.51,1.09-.5,1.4-.46,2.25.91.06,2.14-.66,2.53.54.31.97.03,2.21-.64,3.08-.48.62-.87-.33-1.81-.68.94,1.37,2.17,1.75,2.43,3.22ZM175.28,29.81c-2-.17-2.03-.18-2.12-.82-.18-1.39.87-3.05,2.23-3.28.7-.12.75-.63.38-.84-.9-.53-1.21-3.44-2.95-1-1.97-.52-1.78,2.09-3.14,2.57-.43.15-.27,1.07-.12,1.62.16.58.61.49,1.04.39.96-.21,1.63,0,2.18,1.08.41.81,1.26,1.58,2.5.28ZM92.54,93.76c-.74.86-.44,2.05-.79,3.07-.86,2.51-.5,5.22-.48,7.85,0,.39.14.79.6.8.33,0,.51-.26.62-.58.35-.98.61-1.93-.19-2.83-.68-.76-.49-1.98-.09-2.38.71-.7,1.34.1,1.8.87.25.42.64.77,1.02,1.05.27.19.74.43.95.03.19-.38,0-1.01-.37-1.13-2.05-.66-2.3-2.03-1.71-4.06.33-1.15.15-2.41-1.36-2.67ZM168.06,145.09c-.71-.66-.11-1.21-.17-1.73-.04-.41.09-1.01-.5-1.06-.69-.07-.33.71-.48.86-.56.58.06,2.26-1.1,1.93-1.43-.41-1.17.32-1.13,1.21.03.83-.06,1.66-.04,2.49.03,1.25.84,1.44,1.57.92,1.13-.81,2.09-1.95,2.44-3.4.27-1.11.63-1.9,1.71-2.18.86-.23,1.14-.9,1.18-2.2-.99,1.78-2.78,1.67-3.47,3.16ZM106.6,205.07c-.36-1.23-1.12-1.32-1.89-1.37-3.33-.23-6.65-.47-9.98-.7-.79-.05-1.84-.08-1.79.98.04.74.9,1.49,1.84,1.34,3.88-.61,7.78-.71,11.83-.25ZM171.36,163c-.61-1.94-1.2-3.79-1.94-6.15-.33,1.47-.83,2.44-1.01,3.29-.46,2.2-.39,4.53,0,6.79.07.4.21.73.61.86.5.16.76-.18,1.04-.54,1.71-2.14,1.65-2.45-.74-3.67-.17-.09-.23-.26-.09-.48.62-.37,1.25.31,2.12-.11ZM208.27,126.85c.22.5-.64,1.12.03,1.55.66.43,1.41.18,2.07-.1.76-.32.23-.97.25-1.5.05-1.32-1.9-1.62-1.38-3.21.04-.11-.52-.1-.81-.02-1.26.39-2.52.79-3.78,1.18-.82.25-.81.65-.37,1.4,1.12,1.89,2.58.24,3.98.69ZM145.12,187.11c-1-3.01-2.41-5.53-3.75-8.09-.17-.32-.36-.78-.78-.6-.35.15-.43.62-.37,1.01.2,1.26.42,2.52.67,3.78q.7,3.56,4.24,3.9ZM124.2,66.5c-.82-.04-1.78.36-2.01-1.04-.05-.31-.9-.61-1.07-.29-.5.89-1.33,2.23-1.05,2.8.57,1.13-.14,1.81-.28,2.94.73-.62,1.13-.51,1.64.17.53.71,1.42.54,2.12.07.44-.29,1.05-.82.67-1.38-.78-1.13-.19-2.15-.02-3.27ZM118.41,107.11c1.08-.05,1.91-1.52,1.41-2.35-.23-.39-.6-.68-.26-1.14.59-.8.11-2.44,1.76-2.49.34-.01,1-.96.29-1.73-.17-.19-.43-.35-.17-.78.69-1.13-.24-.92-.73-.86-.64.08-1.06.69-1.27,1.25-.75,1.95-1.44,3.94-2.08,5.94-.36,1.15.38,1.71,1.04,2.17ZM181.7,196.64c.4-1.69.76-3.12,1.09-4.55.34-1.48-1.27-2.57-.71-4.17.13-.38-.39-.97-1.13-.75-.71.21-.38.47-.38.99,0,1.16,1.17,2.77-.77,3.49-.14.05-.17.57-.17.88-.02,1.7.54,3.08,2.07,4.12ZM218.3,192.31c.71-.26,2.27.6,1.56-1.73-.24-.8.72-2.04-.93-.86-.05.03-.25-.21-.39-.31-1.34-.94-6.29-.88-7.57.07-.26.19-.49.38-.42.76.06.32.34.82.51.59.96-1.34,2.53.3,3.62-1,.39-.47,2.19-.28,2.05,1.15-.17,1.68.75,1.2,1.57,1.32ZM182.54,58.15c-.98.23-2.09.26-2.01,1.35.05.77.43,2.02,1.76,1.55.13-.04.45.12.45.17-.13,2.12,1.47,1.07,2.27,1.46.32.16.7.38.86-.2.12-.44-.09-.53-.46-.77-.89-.59-1.31-1.78-1.25-2.79.14-2.28-.38-2.93-2.67-2.52.34.56.65,1.08,1.06,1.75ZM121.03,147.59c-.74-.46-.47-2.49-2.15-1.53-.33.19-.79-.57-.44-1.29.54-1.09.04-1.59-.96-1.62-1.07-.04-2.15,0-3.22.01-.43,0-.85.11-1.03.6-.27.74.43.54.66.8,1.96,2.19,4.62,2.39,7.14,3.03ZM89.31,117.76c.99.8.16,3.58,2.51,2.42.31,1.03.71.46,1.14.1.67-.58-.12-.76-.21-1.14-.22-.9-.82-2.15.99-1.96.49.05.96-.3,1.52.04.85.52.91-.21.79-.83-.26-1.28-1.25-1.94-2.19-2.94-.02,1.1-.6,1.7-1.12,2.23-.45.45-1.39.51-1.47,1.26-.16,1.53-.68,1.71-1.95.82ZM65.12,64.38c-.01-1.01-.79-1.23-.93-1.84-.15-.66.79-.95.54-1.74-.35-1.1-1.92-1.84-3.17-1.4-1.1.39-1.41,1.6-.97,2.32.6.97.29,3.29,2.27,2.6.81-.28,1.45-.06,2.26.05ZM132.41,169.52c-.07-3.18-.41-3.91-2.05-4.81-.25-.14-.63-.32-.81-.22-.41.24-.1.64-.04,1.01.6,3.7,3.44,5.83,5.29,8.71-.46-2.12-.93-4.23-1.45-6.64-.3.63-.5,1.05-.93,1.95ZM64.23,80.37c.63-.32.47.6.64,1.1.19.57.56.88,1.1.67.73-.29.39-.77.09-1.2-.54-.76-.4-2.46-2.06-1.65-.32.16-.64-.35-.7-.73-.4-2.33-2.27-3.14-3.76-4.34-.42-.34-1.21-.55-1.48-.08-.41.73.4.81.82,1.09.39.26.76.66.97,1.1.78,1.58,2.43,2.32,3.17,3.94.13.29.45.66,1.21.1ZM204.93,47.75c-.26.96-.21,1.52-.57,1.91-.83.9-1.32,1.78.37,2.16.42.1.34.24.11.45-.86.82-.23.8.39.91,1.44.25,1.9.78.4,1.85-.73.52-.13,1.15.04,1.71.1.34.45.56.68.22.78-1.15,1.25-2.5,1.5-3.88.17-.91-.29-1.62-1.32-1.59-.23,0-.22-.18-.16-.39.41-1.41-.77-1.96-1.46-3.35ZM162.48,132.5c.11-.12.27-.29.42-.47.89-1.15.21-1.97-.49-2.79-.78-.92-.48-2.13.63-2.41.76-.19.84-.59.53-1.24-.56-1.16-1.49-1.82-2.58-2.32-.37-.17-.49.06-.45.22.23.95-.57,1.62-.37,2.72.38,2.02,1.65,3.68,1.76,5.76.01.27.16.47.54.53ZM50.46,72.51c.34-.23.72-.19.41-.94-.26-.65-.22-1.75.55-1.98,1.32-.39.96-.94.43-1.75-1.27-1.92-1.25-1.93-3.04-.08-.7.73-1.32,1.46-.9,2.63.44,1.25,1.64,1.38,2.54,2.12ZM60.52,156.62c.02.74-.26,1.72.83,1.77,1.22.06,2.44-.03,3.49.83.25.2.47,0,.57-.24.47-1.09,1.21-2.23-.56-2.86-.73-.26-1.37-.78-2.09-1.09-.93-.39-2.24.57-2.24,1.59ZM167.61,47.92c-.88.31-1.03.77-.97,1.7.07,1.11.91.82,1.28,1.28.14.18.37.52.38,0,0-1.4,1.1-1.46,1.86-1.94.29-.19.71-.33.61-.83-.26-1.26-3.95-3.11-4.98-2.56-.52.28-.3.8-.41,1.19-.17.61.31.55.66.54.48-.02.95-.02,1.58.62ZM37.58,108.24c-.62-.51-1.27-.02-1.91-.34-.91-.46-2.17-.59-2.78.42-.53.9.04,1.98.75,2.71.34.35.14.72.26,1.05.14.36.65.46.69.17.38-2.26,1.58-1.04,2.56-.77.61.17.66-.4.81-.79.09-.24.11-.57-.22-.58-3.28-.07-.43-1.1-.18-1.88ZM195.71,197.11c-.14-.91-.48-1.64-1.48-1.5-.64.09-1.29.25-1.9.48-.77.28-1.79.52-1.59,1.7.19,1.1,1.5,1.28,1.99,2.29.16.32,2.97-2.32,2.98-2.96ZM200.18,135.68c-1.17.32-2.08.39-2.25,1.53,0,.06-1.06-.63-.9.32.12.7.89.32,1.39.17.23-.07.45-.21.68-.22.77-.05,1.23-.45,1.29-1.29.05-.74,0-1.43-.87-1.64-.66-.16-.74-.66-.61-1.33.35-1.87-.84-3.24-2.88-3.24,1.26,1.48,2.1,3.01.76,4.87.93.69,2.03.06,3.38.83ZM208.89,121.86c-.49-.13-1.02.18-1.32-.68-.73-2.1-1.38-2.15-2.7-.43.27.19.53.26.8-.01.17-.17.19-.69.68-.28-.13,1.07-.48,1.57-1.63,1.13-.8-.31-1.55.08-1.86,1.01-.25.74.13,1.26.76,1.51.91.35,4.54-1.19,5.26-2.24ZM57.33,81.24c.38-.88-.62-1.57-.32-2.41.62-1.71-.61-2.03-1.52-1.96-1.07.09-1.52-.48-2.02-1.19-.26-.37-.29-1.14-.96-.76-.41.23-.74.7-.74,1.26,0,.76.56.67,1.03.7,1.76.09,2.26,1.86,3.26,2.95.66.72.06,1.42-.31,2.07-.33.57-.11,1.01.35,1.3.52.33.69-.3,1.01-.53.55-.39.02-.98.22-1.42ZM227.85,127.22c-.99-.17-.35-1.12-.6-1.77-.25-.66-.83-.46-.95-.08-.45,1.48-1.26.9-2.04.52-.58-.28-1.13-.34-1.7.03-.31.2-.67.39-.45.88.14.3.48.6.72.41,1.6-1.25,1.64.67,2.14,1.32.46.61.64,1.28,1.6,1.03,1.1-.29.99-1.28,1.28-2.35ZM113.03,171.13c-1.68-.03-1.82.48-1.25,2.57.32,1.15,1.3,1.93,1.86,1.57.92-.6,2.14-1.19,2.44-2.59.06-.28-.09-.55-.35-.58-1.02-.12-1.82-1.01-2.71-.97ZM56.96,89.32c.91-.45,1.55-.56,2.25-.16.28.16.62.1.75-.27.17-.47-.11-.76-.49-.85-1.32-.32-2.61-.14-3.8.51-.4.22-.91,1.02-.35,1.19,1.46.43,1.26,2.09,2.13,2.83.65.55,1.52.56,2.22.01.05-.95-1.19-.59-1-1.24.45-1.53-.64-1.59-1.7-2.02ZM208.36,195.7c.79-.6,2.03,1.03,2.32-.18.25-1.02-1.43-.68-2.02-1.39-.19-.23-.48-.38-.74-.52-1.06-.56-2.04-1.06-3.27-.19-.48.34-.86.4-.83,1.11.04.77.6.75,1.02.79,1.17.1,2.3.72,3.52.39ZM214.62,38.67c1.15-.86,1.85-2.32,3.48-1.68.46.18.62-.27.6-.69-.04-.78-2.18-1.97-2.47-1.39-.65,1.3-1.43,2.47-2.24,3.64-.24.35.08,1.32.66,1.6.58.28,1.04.89,1.99.83-1.38-1.6,1.16-1.72.88-3.09-.98.3-1.62,1.42-2.89.77ZM261.13,144.55c.57-.12,1.35-.18,2.07-.45,1.1-.42,1.37-1.41.95-2.48-.42-1.06-1.22-.76-1.94-.33-.62.37-1.23.76-1.84,1.15-.54.34-.98.76-.76,1.54.22.8.86.46,1.53.58ZM186.84,103.58c-1.68-1.51.47-2.21.33-3.43-1.13-.07-2.4.98-3.44-.44-.18-.24-.76.17-1.06.5-.34.37-.31.76-.11,1.22.76,1.73,2.26,2.55,4.28,2.14ZM208.2,107.27c1.67,1.21,3.29,1.39,4.77,1.98.67.27,1.31.84,1.76-.26.23-.55.88-1.32.15-1.67-.87-.41-2.08-1.84-2.55-1.13-1.12,1.7-2.5.9-4.13,1.08ZM238.96,71.53q1.55.3,1.88-1.23c.19-.87-1.37-3.96-2.12-4.24-.5-.18-.79.14-1.05.49-.29.41-.65.95-.19,1.36.85.74.6,2.17,1.92,2.76,1,.45-.55.22-.44.85ZM199.7,36.15c-.32-1.4,1.14-1.63,1.35-2.69.27-1.34-.04-1.96-1.24-2.13.04.19.08.38.12.56.16.6.58,1.4-.16,1.68-.77.29-.36-.71-.6-1.06-.16-.23-.4-.41-.59-.19-1.02,1.19-.94-.41-1.43-.7-.11.28-.2.51-.28.75-.77,2.31-.77,2.37,1.49,2.44.89.03,1.03.62,1.33,1.34ZM38.1,118.3c.18.93,1.32.87,1.21,1.72-.23,1.86,1.36,2.56,1.99,3.87.13.27.4.57.72.42.44-.2.28-.63.18-.99-.28-.98-.59-1.95-.88-2.93q-.77-2.61-3.22-2.08ZM207.84,44.95c-.86,0-1.3.93-1.85,1.66-.43.58-.37,1.21.1,1.75.46.53,1.09.41,1.47.07.64-.58,1.24-1.07,2.09-1.25.45-.09.76-.62.69-1.21-.07-.55-.46-.71-.89-.79-.47-.08-.94-.13-1.61-.23ZM144.95,177.25c.1-1.09.13-2.23-1.35-2.6-.47-.12-.88-.96-1.36-.62-.59.42-.57,1.25-.24,1.94.44.91.93,1.81,1.44,2.68.27.46.36,1.34.99,1.19.74-.18.44-1.06.51-1.67.03-.25,0-.52,0-.91Z"/>
      <path d="M29.9,117.02c.48-.26.96-.29,1.44-.02.41.82,1.49.91,1.65,2.13.22,1.68,1.14,2.6,2.91,2.33.91-.14,2.08.43,1.8,1.51-.25.97.38,1.24.5,1.85-.29.08-.59.13-.86.25-.37.17-.95.17-.97.71-.02.65.55.77,1.02.85.58.1.92.56,1.26.86-1.28,2.09-2.94,3.74-5.14,5.26.25-1.39.26-2.49.57-3.58.41-1.42-.36-2.53-1.69-2.24-.95.21-2.64-.63-2.71,1.68-.01.45-1.48.8-1.9.42-.49-.44-2.03-.29-1.35-1.67.43-.87-.78-1.22-.18-1.96,1.53-.04,2.89-1.1,4.44-1.51.59-.16.29-.8.24-1.32-.05-.52-.69-1.16-.05-1.56.53-.33.99.19,1.38.61.12.13.24.32.45.14.07-1.58-.73-2.81-2.02-2.6-1.78.29-1.43-.33-.71-1.39.1-.15-.05-.49-.08-.74Z"/>
      <path d="M9.86,153.9c-.1-.62.74-1.84-.94-1.47-.38.08-1.74-.36-1.47-1.82.17-.96-.62-1.78-1.21-2.22-1.05-.8-.66-1.14.12-1.58.79-.45.5-1.83,1.6-2.06.34,1.05,1.63,1.75.83,3.31.63-.35.82-1.17,1.61-1.02.36.07.47-.35.26-.68-.8-1.31.07-1.99.81-2.78,1.03-1.09,2.25-.8,3.44-.64.3.04.79.49.62.81-.38.71-.53,1.68-1.38,1.99-1.35.5-1.04,1.68-.91,2.69.13.94.62,1.57,1.63.99.62-.35.73.03.73.59,0,.37-.4.72-.09,1.08.32.38,1.15.73.42,1.24-.38.27-1.07.56-1.82.17-.9-.47-1.56-1.9-2.71-1.34-.94.46-.77,1.98-1.53,2.75h-.02Z"/>
      <path d="M196.89,16.45c.2-.7.63-.84.97-1.06,1.29-.84,2.55-1.59,1.58-3.69-.27-.6.23-1.36,1.07-1.89.91-.58,1.48.15,2.15.2.38.03.1,1.22-.16,1.86-.15.38-.64.82-.1,1.15.4.25,1.1.18,1.27-.32.45-1.36,1.21-.95,1.85-.41.8.67.84,2.95.02,3.43-1.04.62-1.64,1.38-1.77,2.66-.04.38-.42.67-.79.69-.78.06-1.49.14-2.04.9-.27.37-1.1,0-1.02-.12.69-.92-1.75-2.11.27-2.93.41-.17.17-1.11-.7-1.25-.97-.15-1.58.83-2.61.79Z"/>
      <path d="M279.18,111.59c-1.67,3.26-2.85,6.27-2.9,9.71.21-3.26.47-6.48-1.87-9.02-.74.03-.45.85-.84,1.14-.29.21-.51.65-.9.49-.47-.19-.28-.61-.16-.98.26-.81.36-1.28-.8-1.18-.83.07-1.55-3.29-.82-4.02.53-.52.87-1.14,1.27-1.65.69-.87,1.58.27,2.23.84.48.42,1.24,1.06.45,1.8-.4.38-.63.68-.27,1.05.39.4.57-.2.83-.41.87-.71,1.06-.54.97.66-.07,1.08,1.35,2.03,2.81,1.57Z"/>
      <path d="M37.4,165.44c.15.32.29.64.44.96-.35.37-.5.72,0,1.1.7.53,1.25,1.03,1.02,2.2-.14.7.45,1.03,1.03.37.71-.81,1.08.03,1.42.41.54.6-.13.84-.43,1.19-.57.67-1.91.66-1.6,2.13,0,.03-.66.4-.94.31-1.03-.33-1.91-.39-2.82.45-1.04.96-1.33-.6-1.97-.94-.57-.3-.12-1.18-.24-1.78.86-.11,1.21-1.53,2.35-1.03.55.24,1.36.28,1.59-.36.23-.66-.67-1.37-.28-2.2-.16-.04-.36-.17-.48-.11-1.05.47-1.67-.26-2.18-1.01-.09-.13-.41-1.26.16-1.32.98-.09,1.83-1.5,2.91-.38Z"/>
      <path d="M64.36,183.86c-.15-.3-.3-.6-.44-.9.09-.37.06-.86.27-1.1,1.02-1.11,1.07-1.72-.6-1.73-.78,0-.52-.57-.29-.91.58-.9,1.38-1.17,2.42-.63-.07-.87-.04-1.57-.97-1.67-.48-.05-1.17-.39-.84-.89.33-.51.91-1.59,1.58-1.06.5.39,1.92.07,1.51,1.64-.06.25.53,1.29,1.3.74.81-.57,1.52,0,1.89.45.52.65-.7.82-.69,1.24.07,1.88-2.09,1.5-2.39,2.94-1.56-.48-1.82,1.27-2.75,1.89Z"/>
      <path d="M242.1,184.87c.94,1.85.25,3.59.04,5.5-.3,2.79-2.02,2.27-3.43,2.74-.29.1-.81-.16-.69-.29.96-1.04-.14-2.06-.06-3.1.1-1.3.6-1.92,1.34-2.58.46-.41.96-.77,1.49-1.05.55-.29.58-1.18,1.31-1.21Z"/>
      <path d="M149.21,15.64h-3.4c1.48-1.67,3.4-1.1,4.45-2.3,1.07-1.23,2.48-1.66,3.82-2.3-.17-.94-1.42-1.08-1.3-2.28,1.94,1.06,4.38-.98,5.99,1.42-.82.23-1.53-.56-2.43-.4,0,.22-.05.41,0,.56.27.75,1.54,1.74,1.14,1.87-.96.31-1.8,1.81-3.06.78-.15-.12-.62-.11-.66,0-.9,2.08-3.37.91-4.45,2.56,0,0-.11.1-.11.1Z"/>
      <path d="M240.96,48.18c-.32-.51-.18-1.01.03-1.51.54-.04.56-.76.98-.95.68.48-.12,1.41.53,1.94.57-.39.61-1.37.52-1.49-1.08-1.43.49-1.59.87-2.28.59-1.05,1.37-.03,2.05-.1.84-.08,0,1.38.83,2.01.94.71,1.5,2.35,1.83,3.68-1.42-1.74-2.54-2.39-3.35.29-.16.52-1.41,1.37-1.91-.07-.45-1.29-1.33-1.51-2.39-1.53Z"/>
      <path d="M245.88,192.5c.37.99,1.8.95,1.79,2.47-.01,1.36-1.16,1.3-1.5,2.11-.41-.62-1.75.34-1.68-1.31.04-.83-.29-1.66.09-2.52.2-.45.45-.85-.34-1.3-.65-.37.15-3,1.07-3.3.6-.2,1.73-.06,1.97.36.59,1.04.93,2.35.11,3.52-.44.63-.92-.48-1.52-.03Z"/>
      <path d="M20.64,85.53c-1.15-1.25-2.22-2.59-3.69-3.48-.6-.36-.29-1.61.14-1.53.71.13,1.01.26,1.59-.44.48-.58,1.53-.59,2.31-.91.96-.4,1.62.09,1.26,1.01-.73,1.86-.64,3.46.41,5.09.18.28.12.75.16,1.14-.94.31-1.12-1.6-2.2-.88h.02Z"/>
      <path d="M278.6,102.33c.95-.06,1.31.52,1.67,1.11.29.48.67.72,1.21.47.54-.25.76-.91.54-1.27-.4-.66-.11-1.42-.77-2.18-.83-.95-.2-2.69.31-4.07.26,1.22-.15,2.75,1.54,3.04-.97,1.99,1.31,2.63,1.46,4.15.09.93-.21,2.16-.78,2.36-1.02.35-2.37.74-3.27-.38-.74-.93-1.25-2.06-1.92-3.21Z"/>
      <path d="M160.12,24.17c-.18-.03-.36-.05-.53-.08.11-.3.38-.64.32-.88-.52-1.92,1.04-2.95,1.52-4.51-.42-.43-.93.45-1.39.02,1.56-1.74,2.74-1.88,4.16-.37.63.67,1.96,1.64-.23,2.05-.2.04-.51.27-.52.43-.11,2.3-1.83,2.69-3.33,3.34Z"/>
      <path d="M277.91,99.81c0-.76-.04-1.53,0-2.29.08-1.27-.18-2.27-1.4-2.8-.85-.37-.81-.7-.08-1.45.97-1,2.6-1.46,2.59-3.47,0-.73.92-.15,1.23-.11,1.16.14,1.69-.09,1.16-1.38-.37-.89.22-1.35.65-1.51.74-.26.78.69.88,1.13.17.74-.15,1.56.2,2.34.1.23-.12.76-.46.67-1.1-.28-2.31.07-2.71.92-.76,1.62-1.86,3.2-1.73,5.21.06.89,0,1.79,0,2.69-.12,0-.23.02-.35.03Z"/>
      <path d="M9.88,153.91c.31.25.63.29.99.12.36-.17.59-1.08,1.12-.37.34.45.11.98-.21,1.41-.25.34-.43.58.13.81.6.25,1.24.57.91,1.52-.7-.37-1.49.99-2.16-.12-.14-.23-.33-.37-.63-.19-.5.5.71,1.26-.23,1.8-1.23.71-1.99-.48-2.92-.81-.69-.25.49-1.32-.11-1.98,0-.01.16-.28.2-.26,1.21.38,1.27-.78,1.76-1.44.22-.3.74-.34,1.13-.5,0,0,.02.01.02.01Z"/>
      <path d="M277.95,157.78c-1.13.38-.98-.87-1.55-1.07.86-1.51-.72-1.99-1.13-2.93-.43-.99-.2-1.74.58-1.67.86.07,2.44-1.19,2.57,1.07.02.38.22.62.52.69,1.04.26,1.47,1.06.97,1.97-.47.85-.61,2.39-1.96,1.94Z"/>
      <path d="M239.13,177.29c.13-.25.27-.51.4-.76,1.01.37,2.33-.55,3.1.96.43.84,1.07,1.48.06,2.41-.82.76-1,2.19-2.45,2.33-.65.06-.98-.18-1.39-.51.82-.79-1.37-1.8.17-2.57,1-.5.62-1.2.12-1.85Z"/>
      <path d="M309.93,120.4c-1.06,2.7,1.39,4.31,1.64,6.66-.88,0-.84-.64-1.09-1.04-.61-.98-.86-2.25-2.31-2.5-1.39-.24-1.36-1.82-1.32-2.85.03-.64,1.17-1.04,1.91-1.21.46-.11.91-.07,1.28-.47.35-.38.54-1.38,1.28-.42.32.41.88.63.28,1.4-.48.61-.75,1.13-1.47.45-.07-.06-.22-.02-.2-.02Z"/>
      <path d="M1.97,140.69c1.3.08,1.95,1.63,1.59,2.91-.21.74-1.35,1.03-.8,2.05-.41.23-.81.61-1.24.66-.53.06-.57-.75-.99-.99.84-.97-.35-1.45-.48-2.2-.23-1.31.63-2.52,1.93-2.44Z"/>
      <path d="M296.56,109.82c-1.74.05-2.48-.77-2.56-2.84-.04-1.17,1.07-1.37,1.66-1.67.8-.41,2.64,1.95,2.62,3.15-.02,1.37-1.14,1.02-1.72,1.36Z"/>
      <path d="M25.76,82.97c1.01.28.94.94.94,1.48.02,1.2-.28,2.52,1.36,2.83.26.05.46.47.3.8-.22.48-.59.29-.91.11-.49-.28-1.07-1.1-1.51-.32-.47.84.58,1.06.97,1.56.32.42,1.07.57.86,1.3-.08.3-.5.62-.8.68-.68.13-1.1-.39-1.37-.98-.49-1.08-.35-2.43-1.25-3.34-.17-.17-.13-.64.09-.67,2.17-.23,1.5-1.9,1.32-3.45Z"/>
      <path d="M303.2,108.3c-.18,1.59-.48,3.13,1.36,3.77.36.12-.06.37-.13.56-.39,1.15-1.19,1.89-2.15,1.81-1.72-.14-2.14-1-1.79-2.81.05-.25,0-.56.31-.6,1.45-.19,1.87-1.45,2.39-2.74Z"/>
      <path d="M63.25,51.35l.03-.03-.03.03Z"/>
      <path d="M63.29,51.32s-.03.03-.03.03c0,0,.03-.03.03-.03Z"/>
    </g>
  </g>
</svg>