<?xml version="1.0" encoding="UTF-8"?>
<svg fill="#6A7F6B" id="Capa_2" data-name="Capa 2" xmlns="http://www.w3.org/2000/svg" viewBox="0 0 237.63 330.38">
  <g id="Layer_1" data-name="Layer 1">
    <g>
      <path d="M85.91,216.33c-2.2,1.54-4.1,1.68-6.3.29-1.23-.78-2.66.89-4.14.92-.22,0,.03.56.14.86,1.35,3.81-1.27,7.73-5.19,7.61-2.1-.06-4.19-.01-6.29-.68-3.05-.97-4.32-3.51-2.84-6.45.81-1.61,1.23-3.31,1.22-5.11,0-1.79,1.07-2.54,2.64-1.74.44.22.79.82,1.28.14.3-.42.7-.87.46-1.44-.28-.69-.85-.37-1.35-.31-1.16.12-2.21.36-3.26,1.04-1.89,1.24-4.14.65-6.14-1.33-.42-.41-.78-.9-1.25-1.23-1.7-1.19-2.94-.98-3.68.96-.74,1.93-2.23,3.08-3.57,4.35-1.34,1.27-3,1.49-4.67.48-1.55-.95-2.45-2.48-1.96-4.17.54-1.91-.7-3.3-.75-4.99-.02-.78-.57-.37-.99-.18-3.25,1.44-5.21.57-6.4-2.93-.33-.96-.92-1.71-1.7-2.07-1.76-.81-3.08-2.38-5.11-2.73-1.25-.22-2.38-1.22-2.51-2.51-.26-2.7-.4-5.48,1.18-7.94.35-.55.71-1.1,1.05-1.65.52-.86.4-1.7-.33-2.32-.9-.76-1.21.29-1.67.72-1.73,1.63-4.41,1.53-5.87-.25-1.41-1.72-1.18-4.44.66-5.83.87-.66,1.19-1.09.68-2.19-.43-.92.59-1.8.47-2.86-.14-1.35.97-1.42,1.95-1.68.73-.2.63-.84-.01-1.1-1.83-.71-3.53-1.85-5.69-.65-2.55,1.42-5.05-.11-5.52-3.14-.09-.54.12-1.41-.66-1.42-.67,0-.44.83-.56,1.3-.65,2.55-2.5,3.83-4.72,3.23-2.19-.59-3.4-2.92-2.62-5.35.48-1.5.22-2.63-.69-3.86-2.13-2.87-1.25-7.89,1.54-10.14,1.47-1.18,2.67-2.69,4.8-2.61.6.02,1.22-.73,1.19-1.16-.12-1.76.81-3.67-.46-5.28-1.2-1.54-1.23-3.13-.48-4.84.8-1.85.59-2.52-1.23-2.69-3.51-.34-4.24-2.34-5.27-5.5-.72-2.2,1.25-4.72,3.68-4.85,1.26-.06,1.97-.54,2.69-1.47.8-1.04,1.81-1.89,3.25-2.5-2.78-2.08-2.82-4.49-1.32-7.32,1-1.89.96-4.1.94-6.23-.01-1.74.59-3.2,2.08-3.99,2.92-1.56,3.98-4.16,4.95-7.24.8-2.53,1.44-5.47,4.2-7.06,1.35-.78,1.5-2.87,2.93-3.84.45-.3-.2-.6-.46-.85-2.95-2.75-2.4-5.91,1.27-7.62,1.41-.65,2.78-1.4,4.12-2.18,1.77-1.03,2.25-2.68,2.03-4.84-.26-2.48.8-4.75,1.77-6.94.41-.93,1.08-1.77,1.46-2.77.47-1.23,1.45-2.47,2.63-2.39,2.9.19,3.59-2.26,4.75-3.91,2.35-3.36,5.51-4.27,8.95-2.11.49.31.9.61,1.32.03.38-.53,1.32-.82.84-1.78-.18-.35-.39-.69-.55-1.05-.75-1.7-.49-3.28.74-4.59,1.27-1.35,2.91-1.43,4.5-.79,1.68.67,2.43,2.09,2.38,3.95-.02.61-.51,1.33.29,1.79.31.18.63.01.87-.24.63-.68.31-1.34-.07-1.99-.72-1.25-1.41-2.51-2.15-3.75-1.51-2.53-.69-5.32,2.05-6.32,1.25-.46,1.68-.8,1.02-2.21-.96-2.07-.21-4.02,1.71-5.31,1.82-1.23,3.14-2.82,3.64-5.07.49-2.21,2.49-3.62,4.65-3.23.99.18,1.46.19,1.74-1.02.46-1.93,1.85-3.07,3.8-3.11,1.47-.03,2.33-.65,3.17-1.84,1.43-2.03,3.83-2.35,5.64-.97,2.33,1.77,3.59,1.76,5.06-.79,1.59-2.76,3.42-3.99,6.52-2.85.82.3,1.35-.47,1.82-1.16,1.21-1.8,2.58-1.7,3.42.24,1.03,2.38,3.07,3.45,5.28,4.26.68.25,1.12-.27,1.28-.89.18-.7.24-1.43.35-2.14.28-1.75,1.04-3.18,2.77-3.74,1.64-.53,3.2-.29,4.48,1.03.46.47.9.96,1.39,1.38.35.3.65,1.03,1.26.49.49-.44.52-1.02.14-1.61-.71-1.13-.89-2.31-.41-3.6.73-1.95,2.52-3.11,4.41-2.8,2.07.34,3.45,1.95,3.57,4.09.03.56-.3,1.16.16,1.81.89-.67,1.91-1.18,2.59-2,2.49-2.97,5.16-2.06,7.69-.5,1.88,1.15,3.85,2.12,5.73,3.26,1.59.96,2.6,2.17,2.75,4.04.11,1.46.8,2.2,2.15,2.66,1.75.59,3.37,1.6,5,2.47,2.81,1.5,2.7,5.47-.15,7.14-1.11.65-1.18,1.34-1.11,2.36.05.79.26,1.57,1.08,1.65.99.1,1.04-.76,1.06-1.52.03-1.04.33-2.03,1.12-2.67,2.31-1.86,5.12-3.69,7.79-3.51,2.8.19,5.81,1.63,8.22,3.48.88.68,1.41,1.35,2.67,1.33,2.35-.05,4.07,1.92,4.03,4.41-.02.94.19,1.57.83,2.26,1.64,1.76,1.55,5.32-.05,7.06-.83.9-1.07,3.59-.4,4.64.24.38.52.8,1.05.77.57-.04.7-.51.82-.97.27-1.06.8-1.96,1.66-2.62,2.07-1.58,4.85-.93,6.11,1.5.43.83.88,1.52,1.71,2.05,2.33,1.51,2.88,4.21,1.09,6.31-1.92,2.26-4.17,4.24-6.2,6.28,1.71,1.88,4.35,2.15,6.5,3.42.81.48,1.23.03,1.73-.64,2.1-2.77,4.38-2.91,6.85-.39.59.6,1.1.73,1.87.58,1.46-.28,2.85.21,4.11.86,2.11,1.09,2.79,3.49,1.67,5.8-.74,1.54-1.08,3.02-.72,4.77.44,2.16-1.07,4.34-3.09,4.87-2.16.57-4.25-.68-5.02-2.98-.18-.53-.03-1.36-.82-1.38-.74-.02-.77.8-.99,1.3-.4.92.42.86.91,1.1,1.64.83,1.76,2.22.2,3.33-.66.47-1.19,1-1.56,1.71-.57,1.1-.52,1.89.97,2.04,1.63.17,3.01,1.15,4.52,1.7,1.14.41,1.99,1.45,2.09,2.68.17,2.01,1.07,4.01.2,6.06-.19.45-.29.89.25,1.2.57.33.92.04,1.35-.34,3.24-2.94,5.97-2.22,7.52,1.9.89,2.36,2.37,4.37,4.03,6.21,1.54,1.71,1.93,4.36.27,5.9-1.42,1.32-.63,2.69-.69,4.03-.03.62.59.61,1.19.39,3.57-1.3,7.48.34,9.21,3.8.68,1.36,1.37,2.7,2,4.08.23.52.48.92,1.05,1.04,2.67.58,3.52,2.73,3.99,5.07.21,1.02.53,1.8,1.25,2.56,2.02,2.15,1.58,5.27-.95,6.74-.99.57-1.24.88-.67,2.06,1.98,4.15-.14,7.58-4.64,7.68-.79.02-1.27.2-1.15,1.13.04.26.13.57.05.79-1,2.48-.66,4.56.74,6.98,1.21,2.07-.78,4.65-3.45,5.08-1.42.23-2.79.56-4.11,1.08-1.41.55-2.18,1.45-1.23,3.05,1.03,1.75.78,3.42-.33,5.02-.26.38-.55.75-.73,1.16-1.18,2.74-1.17,2.74,1.7,2.91,3.38.2,5.26,3.78,3.31,6.62-.86,1.25-1,2.71-1.69,3.97-.11.21-.18.66-.09.73,1.57,1.15,1.55,3.45,3.3,4.54,2.1,1.32,2.53,3.87,1.26,5.89-1.27,2.01-3.66,2.49-5.77,1.04-.76-.53-1.19-.79-1.8.18-.45.72-1.28,1.11-2.1,1.34-.5.14-1.06.21-1.31.74-1.27,2.69-3.78,2.71-6.14,2.95-.88.09-1.58.26-2.23.94-.94.98-2.12,1.46-3.52,1.34-.78-.07-1.75-.02-1.9.91-.12.76.84.87,1.4,1.12,3.64,1.64,4.36,3.97,2.2,7.38-.37.58-.48,1.22-.67,1.85-.82,2.59-2.97,3.86-5.46,2.96-1.39-.5-2.21-.3-3.15.89-2.49,3.12-8.22,2.42-10.04-1.15-.32-.62-.67-1.11-1.32-1.36-.68-.27-1.4-.69-1.63-1.34-.69-1.96-2.5-2.86-3.76-4.23-1.11-1.22-3.14-1.02-4.67-.49-2.82.99-5.34-.25-7.84-.98-1.88-.55-2.52-3.05-1.7-5.08.41-1.02.64-1.97.49-3.06-.19-1.35.36-2.46,1.27-3.4.47-.48.7-1.07.11-1.54-.67-.53-1.04.12-1.38.59-.77,1.07-1.4,2.07-1.12,3.61.34,1.87-.6,3.41-2.32,4.16-.99.44-1.35.99-1.35,2.06-.01,1.95-1.04,3.27-2.81,3.86-1.78.59-3.2-.1-4.55-1.4-1.55-1.48-2.24-3.68-4.17-4.85-1.35-.81-5.88-1.37-7.07-.59-.67.44-.46,1.19-.57,1.81-.15.86.54,1.13,1.14,1.36,1.89.74,3.02,2.09,2.93,4.21-.1,2.26-1.46,3.84-3.27,4.84-1.77.98-3.46.48-4.95-.97-1.08-1.05-2.27-1.28-3.6-.17-1.93,1.61-3.91,1.48-5.77-.22-.43-.39-.76-.93-1.38-1.04-.95-.16-1.77-.04-1.63,1.24,1.15,10.49.35,21.07,1.27,31.58.49,5.59.6,11.23.36,16.89-.39,8.81-.21,17.62.79,26.42.87,7.56,1.76,15.11,1.9,22.76.11,6.22.06,12.46.56,18.68.19,2.45,0,2.56-2.46,2.56-5.11,0-10.22,0-15.33-.03-2.25-.01-2.25-.25-2.22-2.58.16-10.93.85-21.85.31-32.81-.48-9.79-.82-19.58.08-29.41.9-9.89.91-19.86.97-29.81.05-9.6.69-19.21,1.06-28.81.02-.53.02-1.06.05-1.59.06-.99-.25-1.26-1.26-1.01-2.39.6-4.96.35-7.17,1.9-1.08.76-2.44.32-3.49-.4-1.45-1-1.85-.35-2.2,1.08-.38,1.56-.73,2.75.98,3.96,1.53,1.09,1.45,3.48.4,5.07-1,1.51-3.08,2.32-4.82,1.53-1.48-.67-2.03-.71-2.28,1.2-.32,2.44-2.39,3.74-4.69,3.35-2.01-.33-3.39-2.21-3.29-4.49.01-.31.07-.62.14-1.22ZM61.82,160.98c-2.62-.94-4.33-2.1-4.35-4.71,0-.43.23-1.04-.36-1.21-.57-.17-.92.38-1.3.71-.68.62-.3,1.39-.14,2.05.46,1.99.4,3.81-1.15,5.34-.26.26-.41.66-.55,1.03-1.49,4.05-5.92,5.64-9.64,3.43-.83-.49-1.9-.93-2.36.07-.39.85-.72,2.07.67,2.89,1.88,1.1,2.31,2.91,1.49,4.96-.32.8-.76,1.55-.63,2.46.11.76.75,1.24,1.17.74.81-.98,2.06-1.82,1.72-3.49-.48-2.37.12-4.02,1.82-4.94,1.8-.97,3.47-.63,5.02.7,1.36,1.18,3.88.78,4.84-.72.39-.61.39-1.16.01-1.84-2.07-3.78-1.02-6.19,3.73-7.46ZM34.31,176.2c.21-1.94,1.09-3.3,2.69-4.34,1.22-.79.96-2.18-.35-2.87-.7-.37-1.49-.7-1.78-1.45-.76-2-2.06-1.43-3.25-.71-1,.6-2.72,1.55-2.39,2.45.99,2.67,1.87,5.67,5.08,6.92ZM69.76,155.53c-1.15-.47-2.52-.4-3.32-1.37-1.83-2.19-4.01-1.13-6.09-.81-.65.1-.83.76-.94,1.37-.43,2.3,1.41,4.73,3.68,4.89.54.04,1.03.09,1.25-.58.85-2.66,2.78-3.59,5.42-3.49ZM179.85,84.58c-.47-.12-.88-.14-1.16.19-.35.42.06.72.27,1.02.67.95.99,1.97.88,3.16-.06.63,3.42,3.22,3.98,3.01.16-.06.3-.24.38-.41.47-.9,1.12-1.59,1.95-2.15.5-.34.9-.9.73-1.51-.19-.7-.91-.67-1.47-.63-.81.05-1.68.12-2.06-.71-.74-1.62-2.3-1.5-3.51-1.97ZM50.92,75.42c-.18-2.19.15-3.88,1.58-5.18.32-.29.53-.75.66-1.18.27-.91-.05-1.55-1.04-1.2-1.55.54-3.17,1.27-3.4,3.16-.21,1.66.24,3.26,2.2,4.41ZM36.42,181.1c-1,2.51.94,3.72,2.05,5.2.35.47,1.37.82,2.12.2.68-.56.19-1.19.07-1.81-.28-1.41-.64-2.65-2.45-2.67-.57,0-1.13-.57-1.79-.92ZM78.3,23.43c-.33-.02-.52-.05-.72-.03-.46.03-1.12-.5-1.31.26-.15.61.48.89.95,1.06,1.33.46,2.15,1.38,2.55,2.73.24.81.76.96,1.5.73.77-.24,1.15-.88.83-1.5-.55-1.06-1.47-1.87-1.97-3.03-.33-.75-1.3-.13-1.83-.22Z"/>
      <path d="M181.67,208.98c-.33,1.74.93,1.98,1.66,2.64,1.48,1.33,1.92,3.27,1.12,5.01-.77,1.69-2.65,2.68-4.47,2.35-1.77-.32-3.13-1.92-3.3-3.88-.15-1.84.91-3.53,2.89-4.16.96-.3,1.55-.81,2.09-1.97Z"/>
    </g>
  </g>
</svg>