<?xml version="1.0" encoding="UTF-8"?>
<svg fill="#6A7F6B" id="Capa_2" data-name="Capa 2" xmlns="http://www.w3.org/2000/svg" viewBox="0 0 170.49 382.34">
  <g id="Layer_1" data-name="Layer 1">
    <g>
      <path d="M41.36,24.97c-.32-.44-.7-1.01-.38-1.44.47-.62,1.14-.08,1.63.14,2.14.94,3.79,2.77,6.2,3.48.09-3.48-3.55-3.42-5.1-5.46,1.5.05,2.38,1.23,4.14,1.5-1.81-3.82-5.84-6.78-3.68-11.56,1.71,1.98.94,4.93,2.8,6.77.7-.47,0-1.39,1.07-2.01-1.71,5.49,3.48,5.34,5.79,7.64-.23-4.96-2.44-9.15-4.92-13.13.27-.42.48-.31.65-.16.79.71,1.41,2.46,2.53,1.61.79-.6,1.04-2.44.35-3.63-.73-1.27-.66-2.55-.64-3.9,2.05,4.2,4.02,8.43,5.28,12.99.42-.66-.08-1.53.59-2.11,1.14.43,1.42,1.48,1.78,2.46.94-.34.77-1.07.61-1.78,0,0,0,0,0,0,.15-.32.31-.64.46-.95.32-.14.64-.27.97-.41.09-.13.1-.27.03-.41-.88-1.83-1.39-3.82-2.52-5.55-.99-1.51-1.1-3.23-.34-5.64-.05,2.65.15,4.62,2.22,5.61.6.29.39-.7.93-.86.31,1.46-.33,3.83,1.82,3.85,1.85.02,1.2-2.37,2-4.09.73,3.1,1.35,5.74,2.11,8.97.93-2.38.64-4.77,3.24-5.65-.1,1.16-.21,2.3-.31,3.5,1.23-.34,2.89.12,2.44-2.5,1.3,1.34,2.48,1.95,3.16,3.15.32.56.52,1.31,1.52.89.92-.39.71-.98.54-1.66-.37-1.45-.71-2.9-1.15-4.72,1.2,1.1.88,2.42,1.75,3.29.14-1.85.09-3.67-.96-5.36-.54-.87-1.7-1.67.13-2.64.59-.32,1.13-1.55,1.12-2.63,0-.64.05-1.34.97-1.95-1.12,3.7,1.05,6.97.5,10.48-.24,1.53,2.25.47,2.38,1.97,1.24-.31,1.53-1.55,1.76-2.4.42-1.52,1.86-2.46,1.58-4.47,2.08,1.77,2.5,3.94,3.7,5.94.7-1.29-.26-2.13-.12-3.13.64-.1.53.81,1.19.87.51-.9.34-1.87-.07-2.74-.48-1.01-.3-1.78.48-2.49,1.34-1.22,1.84-2.78,1.91-4.61.41,1.74,1.17,3.39.46,5.19-.49,1.24-1.38,2.41-.36,3.83.18.26.03.97-.21,1.29-2.23,2.93.3,5.44.73,8.11.19,1.16.81.4,1.37-.1,2.61-2.35,3.31-5.29,2.96-8.64-.08-.75-.01-1.51.25-2.31.24,1.16.48,2.32.71,3.48.53-2.74,2.91-4.88,2.28-8.09,1.58.74,1.58,1.89,1.39,3.02-.26,1.49-.75,2.95-.96,4.44-.08.59-1.66,1.55.28,1.98.28.06-.24.6-.51.8-.75.56-1.39,1.17-1.45,2.46,1.62-.58,2.27-2.25,3.79-2.88-1.07,2.7-3.92,3.78-4.99,6.33,1.17-1.31,3.21-1.38,4.12-3.05.2-.37.83-.77,1.13-.29.86,1.4,1.61,1.39,2.56.11.3-.41.97-.38,1.13.12.28.93.39,1.92.51,2.89.1.87,1.99-.82,1.23,1.32,1.18-1.73.48-3.46,1.37-4.97,0,1.47-.04,2.94.02,4.41.02.51-.4,1.3.62,1.43.79.1,1.05-.35,1.53-.94,1.43-1.75,1-3.88,1.67-6.29.22,1.92.39,3.36.58,5.02.84-1.79,2.16-3.15,2.2-5.13.1.56.2,1.12.29,1.64,1.05.26,4.16-4.07,4.77-6.65-.05,2.24.97,1.76,1.92,1.13.84.67-2.4,1.54.34,2.03-1.23,1.12-3.6.74-3.87,2.99.89.44,1.6-.6,2.53-.1-2.05,1.94-5.5,2.04-6.64,5.35,1.77-1.82,3-.5,4.29.45.18.13.27.44.45.49,1.04.29,3-.42,2.28,1.82-.32,1.01.23,2.12-.91,3.12-1.28,1.11-1.66,2.97-1.94,4.4.24,1.37,2.1-1.57,1.82,1.04-.04.35.83.1,1.08-.27,1.53-2.2,3.69-4.02,4.65-6.54.96-2.5,2.86-3.73,4.99-4.93,2.08-1.18,3.8-2.71,3.56-5.59.28,1.17.38,2.16.96,3.18.52.93.11,2.32-.92,3.28-1.33,1.24-3.15,2.45-3.6,4.01-.54,1.85-1.71,3.02-2.78,4.33-.85,1.04-2.69,1.01-3.25,2.85,1.73-.15,3.23-1.28,4.94-.75-.71,1.55-2.74,1.16-3.92,2.75,1.48-.3,2.55-.52,3.63-.74-1.89,1.58-4.37,2.36-5.94,5.04,2.43-1.04,4.59-1.77,7.01-1.32-4.36,2.2-9.11,3.72-12.93,6.81.09.22.19.44.28.67,2.43-.6,4.86-1.21,7.28-1.81-.69,1.22-2.3,1.22-3.08,2.89,2.98-.68,5.6-1.27,8.22-1.86-2.07,1.43-4.39,2.31-6.62,3.3-2.3,1.02-4.02,2.53-5.71,4.27,2.36-.33,4.54-1.08,6.66-2.02.78-.34.73-.33,1.39.48.5.62,1.27-.39,1.94.24-1.12.73-2.52.7-3.5,1.56-5.41-.03-7.77,1.68-8.07,5.87.89-.38.59-1.53,1.39-2.08,1.29,1.99,2.49,1.12,3.68-.16.87-.94,1.74-1.87,2.62-2.81-.62,3.26-2.81,5.85-3.83,8.98,3.22.57,4.66-1.52,5.92-3.87.96-1.79,1.87-3.61,2.8-5.42.18.08.36.16.54.25-1.43,2.98-2.86,5.95-4.28,8.93.13.07.26.14.39.22,1.6-2.84,3.2-5.69,4.8-8.53-.23,2.65-2.09,4.58-3.02,7.44,2.37-1.59,2.77-4.09,4.21-5.79.56.26,1.13.27,1.7.02.68,1.1-.16,1.88-.63,2.69-1.52,2.6-3.1,5.17-4.47,7.89,2.25-1.34,3.13-3.87,5.42-6.11-.84,1.7.16,2.33.67,3,.44.57,1.23-.18,1.84-.42.7-.28,1.38-.64,2.09-.9.31-.11.99-.31.93.15-.39,3.07,1.73.97,2.22.87,2.54-.51,5.01-1.34,7.6-1.75-1.71,1.82-4.29,1.42-6.49,2.65,1.37.84,2.81,1.51,4.17,1.42,2.64-.18,4.11,1.97,6.3,2.71-5.3-2.24-10.8-2.33-16.38-1.86,1.27,1.04,2.8,1.23,4.29,1.51,2.24.41,4.48.83,6.74,1.05,1.24.12,1.15,1.22,1.93,1.95-1.93-.06-3.48-.91-5.14-1.22-.59-.11-1.2-.4-1.77-.34-.85.1-1.77.71-1.91,1.41-.15.76.84,1.19,1.59,1.25,2.26.16,4.17,2.66,6.78.66-.11,1.26-.98,1.47-1.53,1.81-3.06,1.92-4.32,5.8-7.94,7.13,2.28-.41,4.1-1.68,6.06-2.67,1.22-.62,2.41-1.28,3.65-1.87.59-.28,1.41-.7,1.8.09.34.68-.54.95-.96,1.33-.16.15-.37.24-.6.39.74.6,1.19-.47,1.81.02-.45,1.05-1.8,1.03-2.5,2.13,2.71-.21,4.88-1.57,7.4-2.09-1.35.78-2.64,1.75-4.08,2.3-1.54.58-3.11,1.06-5.12,2.14,3.56.01,5.92-1.97,8.95-2.44-1.15,1.36-2.88,1.18-4,2.48,2.68.26,4.59-1.58,7.03-1.63-1.24.6-2.48,1.2-4.21,2.03,1.99.14,3.18-.85,4.61-1.08-.25,1.04-1.33.77-1.83,1.57,2.24-.21,4.22-1.05,6.38-1.24-.77.44-1.54.87-2.52,1.43,1.86,1.45,4.52,1.06,5.87,3.21-3.75-.74-7.26-2.67-11.35-2.35.85,1.36,2.51,1.84,3.16,3.25-1.85.2-3.41-.75-4.94-1.49-2.34-1.14-4.12-.18-5.95.91,1.95,2.46,4.54.61,7.04,1.21-1.25.5-2.41.22-3.5,1.43,3.3.62,6.22,1.46,9.14-.27,1.44.55.8.88-.13,1.17-1.43.45-3.05-.06-4.55.97,3.18.78,6.21,1.53,9.23,2.27-1.71.64-.74,1.4.23,2.24-2.7-.86-4.97-2.53-7.66-3.18-.49-.12-1.12-.42-1.43.13-.12.22.31.75.56,1.27-1.81-.39-2.76-2.43-5.21-2.39,2.02,2.27,3.77,4.22,5.5,6.18.39.44,1.12.89.7,1.52-.59.87-1.17-.04-1.73-.25-1.31-.5-2.27-1.48-3.25-2.44-3.84-3.74-8.37-6.11-13.72-6.79-.35-.04-.7,0-1.77,0,4.49,2.9,8.3,5.62,11.19,9.5-1.67-.34-2.73-1.81-4.23-2.47-1.52-.67-2.92-1.65-4.44-2.31-1.58-.68-3.25-1.14-5.12-1.31,3.65,3.08,7.29,6.16,10.94,9.24-8.32-2.35-16.54-4.65-24.37-8.12,4.55,2.36,9.13,4.58,13.38,7.46-2.61-1.14-5.22-2.28-7.83-3.42-.08.12-.16.24-.23.36,2.25,1.48,4.49,3,6.77,4.44,1.3.83,2.62,1.58,1.73,3.52-.48.11-.94-.32-1.24-.66-1.82-2.04-4.59-1.13-6.76-2.34-4.18-2.32-8.58-4.25-12.9-6.29-2.65-1.25-5.56-1.25-8.4-1.73,6.91,3.29,13.87,6.41,20.37,10.49-3.5-1.54-6.97-3.16-10.5-4.61-5.83-2.39-11.73-4.62-17.56-7.03-4.32-1.78-8.19.07-12.16,1.24-.97.29-.82.94-.09,1.5.62.47,1.33.72,2.09.85,15.18,2.46,29.26,8.24,42.76,15.25,6.24,3.24,11.97,7.69,17.45,12.27,1.98,1.65,3.99,3.28,5.94,4.97.69.59,1.59,1.23,1.8,2,.27.99,1.37,2.38-.35,3.17-1.97.91-1.06-1.23-1.73-1.73-.27-.2-.18-.74-.83-.88.36,1.29.7,2.49,1.03,3.67-1.78.11-2.27-.93-2.66-2.36-.45-1.64-.27-3.65-2.31-4.95-.02,1.95.73,3.43,1.05,5,.09.43.9,1.31-.12,1.31-.62,0-1.64,1.19-2.15-.34-.2-.61-.7-1.17-1.53-1.46-.53,1.12.66,2.09.25,3.41-1.28-2.62-1.73-5.41-3.92-7.65.06,2.47,1.32,4.41,1.64,7.17-1.67-3.19-3.07-5.86-4.47-8.53-.22,1.49.68,2.6.96,3.9.19.86,1.33,1.97-.17,2.48-1.19.41-2.31-.08-2.83-1.49-.6-1.64-1.26-3.27-2.37-4.65-.21-.27-.33-.69-.85-.61.04,1.06,1.2,1.72,1.02,3.1-2.84-3.47-4.46-7.59-8.08-11.02,1.24,3.7,4.4,5.69,4.95,9.63-1.28-1.5-2.22-2.61-3.15-3.71.66,2.36,2.51,4.09,2.69,6.63-.76-1.09-1.53-2.17-2.29-3.26-.08.03-.16.06-.24.08.31.85.63,1.7.94,2.56-1.92-.24-1.95-.22-2.82-1.7-2.72-4.61-6.44-8.34-10.3-11.98,1.81,4.47,5.57,7.84,7.3,13.1-1.63-.97-1.87-2.27-2.75-3.11-.32,1.18.44,2,.52,2.95-.54.1-.72-.29-.89-.59-5.99-10.74-14.98-18.85-23.71-27.19-.8-.76-1.71-1.24-2.77-1.48-1.63-.38-3.25-.78-4.88-1.13-4.12-.88-5.28.06-4.92,4.32.14,1.63-.72,3.28-1.3,4.05-1.98,2.65-1.44,5.56-1.57,8.29-.42,8.94-.49,17.9-.72,26.85-.3,11.91-.68,23.83-.78,35.75-.1,12.36-.5,24.72-.65,37.08-.24,18.74-.31,37.49-.07,56.23.13,10.01.57,20.02.52,30.02-.03,6.8-.02,13.62-.02,20.42,0,8.64.04,17.29.36,25.93.33,9.1.86,18.19,1.32,27.28.07,1.29.25,2.57.37,3.85.12,1.3-.39,2.04-1.79,2.01-2.73-.07-5.46-.1-8.19-.19-1.21-.04-1.47-.8-1.4-1.88.86-12.63,1.91-25.25,2.48-37.89.39-8.77.89-17.55.8-26.36-.08-8.25.3-16.51.14-24.77-.14-7.56-.35-15.15-.14-22.69.33-12.21.1-24.43.47-36.64.3-9.84.19-19.7.46-29.54.25-9.49.6-18.97.8-28.46.21-9.48.37-18.97.91-28.42.65-11.36.76-22.73,1.57-34.08.04-.62.07-1.21-.33-1.74-1.67-2.21-1.7-4.85-1.94-7.43-.07-.73.31-1.59-.53-2.05-.78-.43-1.51.07-2.1.49-3.35,2.41-6.24,5.3-8.82,8.52-5.14,6.4-10.39,12.71-14.62,19.79-.34.56-.58,1.25-1.85,1.73,1.72-2.68,1.82-5.56,3.53-7.83-2.02,1.43-2.8,3.94-4.75,5.39-.3.22-.92.88-.91.54.04-.89-1.53-.77-.94-1.77.27-.46.52-.93.81-1.37,1.92-2.9,3.86-5.8,6.11-9.18-5.85,5.2-8.65,12.21-14.4,17.17-.37-4.23,2.22-6.86,3.76-10.09-.55.69-1.1,1.37-1.64,2.06-.56.72-1.15,1.41-1.68,2.16-1,1.43-1.93,2.91-2.96,4.33-.41.57-.6,1.73-1.49,1.47-1-.3-.85-1.48-.93-2.35-.03-.34.19-.71.37-1.33-1.61.85-1.82,2.5-2.93,3.54.71-1.93,1.12-3.88,1.36-6.39-1.59,1.78-3.43,2.67-4.07,4.68h0c-2.43,2.23-2.96,5.53-4.69,8.22.87-4.38,2.03-8.64,2.71-13.02-2.06-.03-3.77.46-4.91,2.3-.46.75-.88,0-1.27-.25,2.18-3.46,4.37-6.91,5.95-10.72-4.52,2.61-5.83,7.34-7.71,11.68-.16.49-.23,1.08-1.36.96,1.42-3.17,2.79-6.24,4.29-9.59-1,.51-1.29,2.11-2.34,1.5-1.52-.88.45-2.15-.06-3.25-2.19,1.16-2.42,4.38-5.48,4.86.46-1.16.87-2.22,1.37-3.51-1.54.44-2,1.98-3.37,2.17-.63-.7.03-1.07.42-1.45,3.23-3.16,7.02-5.54,11-7.61,11.43-5.93,23.3-10.76,35.8-13.88,5.44-1.36,10.98-2.31,16.56-2.99.78-.1,1.95.17,1.98-1.29.03-1.37-1.08-1.32-1.87-1.56-5.2-1.54-10.33-3.92-15.93-1.7-4.8,1.91-9.6,3.8-14.37,5.77-3.4,1.41-6.74,2.94-10.2,4.21,5.52-3.42,11.52-5.87,17.67-8.85-1.98-.48-3.43.05-4.81.76-4.45,2.3-8.88,4.65-13.32,6.98-.57.3-1.04.88-2.04.73,1.6-1.72,3.79-2.31,5.27-3.98-1.96,1.09-3.93,2.18-5.89,3.27,5.95-5.03,12.86-8.45,19.91-12.34-3.95-.83-7.38-1.02-10.91.19-6.46,2.22-13.07,3.99-19.29,6.87-.86.4-1.76.43-2.67.4-.01-.17-.03-.35-.04-.52,0,0-.03,0-.03,0,.34-.15.67-.3,1.01-.45.52-1.22,1.59-1.73,2.73-2.22,2.12-.91,4.27-1.81,5.84-3.66-4.35-.62-7.77,1.27-11.04,4.12-.35-2.17,1.33-2.86,1.77-4.28-1.91-.75-3.07.95-4.56,1.33-.34-.68.51-.66.49-1.17-.38-.41-.82-.02-1.15.12-2.02.81-3.88,1.31-5.91-.26-.61-.47-2.04.19-2.98.74-.78.45-1.53.96-2.29,1.45-.35-.43.6-1.53-.92-1.22-1.39.28-3,.67-4.7-.9,2.97-.41,5.76.43,8.21-1.25-1.77-1.47-4.18-2.02-6.47-3.67,2.8.3,4.95.92,7.1,1.91,2.55,1.18,5.29,1.7,8.09.36,1.52-.73,3.24.16,4.86-.15.69-.13,1.39-.1,1.32-1.11-.11-1.45-.81-.13-1.2-.27-.19-.07-.55-.15-.55-.19.19-2-1.54-1.6-2.55-1.95-1.71-.6-3.54-.93-4.62-2.82.69.05,1.37.1,2.06.14,2.04,1.35,4.23,2.3,6.71,2.31.87,0,1.74-.41,2-1.27.31-1.04-.68-.93-1.3-1.09-.5-.13-.34-.59-.5-.9-.53-1.05-1.37-1.32-2.47-.9-.85.32-1.71.61-2.57.91.32-.32.63-.64.95-.95.45-.43,1.58-.27,1.36-1.23-.18-.79-1.01-1.04-1.76-1.26-1.14-.34-3.32.5-2.4-2.22.17-.5-.76-.84-1.41-.83-.88.02-1.78.25-2.66-.07.3-.56,1.08.06,1.36-.68-1.06-.05-2.09-.11-3.11-.16,0-.11,0-.23,0-.34h3.81c-4.34-.81-8.85.77-13.09-.97,8.01-1.21,16.01-.16,24.05.18-1.46-.58-3.16-.46-4.26-2.38,2.84.75,5.54.78,7.83,2.49-1.48-2.8-3.93-4.59-6.15-6.66,4.5,2.94,9.2,5.39,13.77,7.88-1.15-1.26-2.36-2.55-3.51-3.88-.89-1.03-.61-1.48.73-1.24.14.14.27.27.41.41,1.91-.07,2.77,2.06,4.84,2.23-2.21-2.86-4.26-5.63-6.43-8.29-1.18-1.45-1.34-3.38-2.53-4.8-.3-.36-.33-.9.15-1.2.54-.35.81.15,1.1.48,1.32,1.52,2.26,3.36,4.28,4.99-.48-2.34-2.18-3.51-2.34-5.48.92,1.25,1.81,2.53,2.76,3.76.46.59.97,1.17,1.55,1.64.41.33,1.04.44,1.49.06.6-.5.05-.97-.19-1.39-.96-1.67-1.96-3.33-2.76-5.11,1.58,1.42,2.37,3.45,4.01,4.86.29-3.12,2.28-.84,3.71-1.29-.65-1.5-1.29-2.98-2.09-4.83,3.17,1.14,3.43,5.31,6.84,5.45-.48-4.37-3.85-5.79-7.41-7.03,2.82-.38,4.92,1.4,7.75,2.11-2.33-2.6-5.15-2.82-8-3.07.45-1.91,1.74-1.95,3.11-1.47,2,.7,2.1-.11,1.54-1.69-.78-2.23-.94-4.76-3.07-6.32-.53-.39-.05-.62,0-.92.36-2.55.23-4.98-1.76-6.93-.29-.29-.54-.58-.3-.98.27-.43.71-.57,1.19-.4.49.18.96.44,1.79.83-.64-1.44.97-2.24.38-3.52.98.85,1.02,2.38,2.21,3.12.64-1.51,2.11-2.91-.13-4.65,1.42.3,1.92,1.47,3.63,1.54-2.41-2.27-4.72-3.66-7.09-4.97-.38-.21-.74-.07-.95.34ZM103.32,67.09c-2.93,2.81-6.04,5.46-8.76,8.46-2.92,3.24-4.5,7.37-6.43,11.24-.23.46-.51.99,0,1.46.4.37.88.34,1.25.04,1.86-1.54,4.45-2.29,5.73-4.42,3.19-5.32,5.84-10.94,8.2-16.78ZM70.92,82.04c1.18,5.21,6.11,5.61,9.59,7.79-1.82-4.22-4.46-7.44-9.59-7.79ZM149.61,72.3c-1.47-.81-2.86-1.14-4.25-1.36-.69-.11-1.97-.02-1.54.92.68,1.48-.42,1.7-1.07,2.29-.9.82-1.86,1.58-2.95,2.49,2.34.73,5.87-.9,9.81-4.34ZM115.68,68.16c4.26-2.58,5.64-7,7.26-11.27-4.26,2.55-4.69,7.61-7.26,11.27Z"/>
      <path d="M136.44,54.14c-.57.25-1.13.24-1.7-.02.22-.27.44-.54.66-.81.13,0,.26,0,.39,0,.16,0,.31,0,.47,0,0,0,.04.03.04.03.05.27.09.54.14.81Z"/>
      <path d="M60.07,16.36c.16.72.33,1.44-.61,1.78.2-.59.41-1.19.61-1.78Z"/>
      <path d="M136.72,52.4c.13-.26.26-.52.38-.77.09.06.17.13.26.19-.2.2-.41.41-.61.61l-.04-.03Z"/>
      <path d="M22.73,95.7c-.34.15-.67.3-1.01.45-.13-.12-.27-.24-.4-.37.31-.16.62-.33.94-.49.14.11.27.22.41.34,0,0,.06.07.06.07Z"/>
      <path d="M60.54,15.41c-.15.32-.31.64-.46.95.15-.32.31-.64.46-.95Z"/>
      <path d="M136.75,52.43c-.15.3-.31.6-.46.9,0,0-.04-.03-.04-.03.15-.3.31-.6.46-.9,0,0,.04.03.04.03Z"/>
      <path d="M61.54,14.6c.07.14.06.28-.03.41,0-.14,0-.27.03-.41Z"/>
      <path d="M21.31,96.12c.15.02.3.03.44.04.01.17.03.35.04.52-.16-.19-.32-.37-.48-.56Z"/>
    </g>
  </g>
</svg>