<?xml version="1.0" encoding="UTF-8"?>
<svg fill="#6A7F6B" id="Capa_2" data-name="Capa 2" xmlns="http://www.w3.org/2000/svg" viewBox="0 0 325.63 288.96">
  <g id="Layer_1" data-name="Layer 1">
    <g>
      <path d="M298.48,211.23c-.58-.24-1.13-.4-1.68.13-.48.47-1.25.59-1.68.31-1.14-.76-1.08-.17-.93.7.07.37.19.82-.19,1-.53.26-.68-.33-.96-.62-.29-.3-.45-1.19-.99-.61-.35.38-1.33.51-.93,1.5.21.51.21,1.3-.5,1.32-.65.02-1.31-.52-1.18-1.34.26-1.65-.36-2.14-2.07-1.65,1.18.76.39,2.11,1.57,3.3-1.29-.34-2.2.14-2.85-.79-.23-.32-.54-.31-.69.08-.17.44-.79.92-.45,1.31.43.5.17,1.05.27,1.31.87,2.39-1.2,2.48-2.22,2.68-1.29.26-2.87,1.54-4.14-.33-.51-.75-1.35.03-2.01-.17-.19.35.22.46.21.63-.14,2.07.82,1.83,2.2,1.27.8-.32,1.7,1.51,1.28,2.84-.39,1.25-.21,2.35.27,3.49.15.35.21.73.6.84.95.27,2.01.46.67,1.68,1.23.19-.11,2.18,1.67,2.33.73.06,1.95.92,2.33,2.3.25.93.87,2.08,2.24,2.01.56-.03.6.07.5.72-.09.55.6.45,1.1.27,1.28-.46,2.98.53,3.24,1.82.06.3-.12.47-.34.58-1.52.8-3.15,1.08-4.9,1.33.42.94,1.1,1.76,1.84,2.55.99-1.46,3.66.59,4.04-2.15-.26-.36-1.05-.08-1.24-.93,1.58.07,3.13-.26,2.99-2.24-.11-1.53-1.34-.26-2.19-.53.48-.8.06-1.77.61-2.59.21-.31-.08-.99.56-.98.52,0,.97.39,1.07.87.29,1.38.71,2.62,1.79,3.61.55.5-.67.98-.24,1.75.88-.26,1.34-1.79,2.47-1.11.77.47.87,1.77,2.24,1.84-.79.83-1.36,1.58-.88,2.76.36.89.79,1.99-.61,2.6-.37.16-.34.73-.23,1.19.16.63-.19,1.09-.74.92-1.12-.34-1.49.47-2.2,1.56.15-1.65-.9-1.6-1.59-1.68-.76-.09-1.02-1.79-2.18-.6-.5.52-.81-.11-.86-.68-.08-.97-.42-1.5-1.51-1.21-.68.18-1.5-.66-1.56-.81-.68-1.56-2.02-1.29-3.22-1.46-.52-.07-1.13.1-1.49-.46-.26-.4-.55-.69-1.02-.34-.46.35-.2.78-.07,1.18.35,1.06.16,1.87-.82,2.55-.66.45-1.16,1.16-1.82.02-.35,2.01.95,3.18,1.65,4.59.22.44.52.84.67,1.3.18.55.19,1.27-.44,1.41-.67.15-.84-.54-.93-1.11-.23-1.51-2.14-2.09-2.05-3.82,0-.08-.91-.41-1.27-.28-2.01.78-3.42-.07-3.91-2.48-.06-.3-.02-.76-.19-.88-1.66-1.09.03-2.31-.05-3.46-.05-.72.95-.11,1.46.09.38.15.74.18.92-.24.18-.41-.17-.56-.46-.6-.86-.12-.64-.85-.6-1.3.06-.84.73-.24,1.1-.37,1.15-.38,2.25-.84,2.62,1.02.05.26.82.84,1.2.41.42-.48.63-1.3.22-1.91-1.23-1.82-2.16-3.73-2.65-5.92-.51-2.23-.63-2.21-2.62-1.97-.4.05-.8.17-1.43.31.68-1.48-.33-2-1.17-2.59.54-.65,1.45.49,1.58-.29.11-.68.23-1.85-.45-2.21-1.48-.8-2.14-1.96-2.33-3.58-.04-.37-.4-.75-1.04-.94-.1,1.17-.64,2.24.27,3.36.77.95.81,2.21.8,3.34,0,1.21-.32,2.3.78,3.31.56.51.42.94-.75,1.26-1.57.44-2.3-.47-3.34-.98-.43-.21-.71-.52-.35-1.01.3-.4.74-.96.07-1.19-.78-.27-1.51-1.36-2.33-.77-1.19.86-1.96,0-2.89-.36-.34-.14-.55-.58-.43-.72,1.68-1.86-1.13-2.68-.92-4.28.1-.77-1.33-.3-1.77-1.2,1.56-.07.98-1.26.98-2.07,0-1.05-.9-.74-1.51-.82-1.74-.25-3.35-.65-4.3-2.43-.96-1.81-2.62-.66-3.76-.49-1.15.17-.9,1.87-.49,2.72,1.25,2.6,2.31,5.55,4.28,7.46,1.12,1.09,2,1.53,1.53,3.15.91.27,1.66,1.04,2.72.88.52-.08.79.33.86.77.09.57-.42.46-.74.54-.52.13-1.14.13-1.34.74-.06.18.22.6.44.72.79.45.99-.42,1.43-.75.09-.07.22-.07.48-.14.04,1.14-.41,2.2-.21,3.34.18,1.03-.2,2.16-.35,3.32-.51-.55-.52-1.51-1.53-1.54-.2.66-.41,1.35-.63,2.03-.11.35-.21.72-.63.84-.46.13-1.28-.63-1.33.27-.06,1.08-1.17,2.3-.05,3.23,1.06.87.13,2,.69,3.02.42.77.76.68,1.56.63-.86.87-1.7,1.53-1.01,2.73.17.29-.13.87-.57.64-1.13-.58-1.28.51-1.8.98-.47.42-.37,1.38-1.49,1.26-.59-.06-.57,1.03-.38,1.58.34,1.01-.57,1.33-.97,1.72-.45.44-.61-.49-.94-.76-.69-.57-1.39-1.12-2.09-1.68-.11.14-.25.23-.24.31.06.78,0,1.78-.82,1.81-.97.04-1.09-1.25-1.32-1.93-.15-.44-.3-1.96,1.05-1.9.58.03.58-.34.73-.6.76-1.28.38-3.57-.53-4.74-.77-.99-.61-2.21-.36-3.41.08-.39.45-.89.39-.95-1.53-1.78.66-1.62,1.13-2.33.59-.87,1.17-1.49,2.33-.62.47.36,1.22.17,1.37-.83.28-1.78.04-3.32-1.38-4.52-.54-.45-1.36-.8-.31-1.65.51-.42.11-1.05-.17-1.51-.21-.36-.68-.43-.97-.26-.55.32-.17.9-.15,1.35.08,1.46.69,2.86.58,4.75-.95-1.42-.66-2.88-1.4-4.18-.65.85-1.19,1.73-2.3,2.09.4-.51.82-1.01,1.2-1.54.4-.57.25-1.14.03-1.76-.31-.86-.72-.27-1.12-.18-.54.13-1.02.12-.88-.68.05-.3.2-.63-.21-.76-.56-.17-1.24-.52-.93-1.07.2-.36,1.1-.38,1.69-.43.61-.05,1.43.52,1.65-.49.16-.73.89-1.72.08-2.22-.89-.55-1.54.23-1.84,1.15-.02.06-.04.15-.08.16-1.71.46-2.79,1.25-2.45,3.4.1.6-2.68.29-2.98-.7-.46-1.55-1.22-1.43-2.55-.66,2.43,1.27,1.33,3.36,1.25,5.17-.04.81-1.23.37-1.71.9.08-1.02-1.92-.86-1.21-2.25.41-.8,0-1.35-.67-1.63-.94-.4-1.05.52-1.38,1.06-.28.46-.24.74.34.95.74.27,1.09.92,1.27,1.67-1.5.87-3.2-.15-4.71.77-.61.37-.84-1.1-1.6-1.24-.95-.17-.51-.84-.68-1.36-.93-2.71,2.61-1.63,2.39-3.48-.34-.06-.84-.05-1.24-.24-.53-.25-1.05-.71-.13-1.12.48-.21.62-.44.64-.94.04-.86.44-1.02.97-.34.32.41.52.34.87.09.41-.29.8-.36.84.39.02.41-.37,1.15.51,1.05.76-.09,1.36-.73,1.04-1.42-.72-1.56,1.5-2.56.59-4.06.87-.11,1.75-.31,2.62-.29.42.01.91.32.98-.28.05-.43.38-1.22-.49-1.32-.8-.09-.97-.39-.48-1.05.07-.1.16-.18.24-.27-1.92-1.32.32-1.54.52-2.31.52-2.09,2.23.49,2.82-.88.81.83-.19,1.44-.31,2.18,1.58.61,1.97-.66,2.36-1.61.34-.82-1.14-2.46-2.24-2.67.91-1.31,2.01-1.48,3.04-.53.3.28.37,1.35,1.12.47.46-.54,1.64-.85.93-1.86-.96-1.38,1.01-2.37.3-3.65.15-.09.4-.27.43-.24,1.11,1.18,1.63-1.1,2.89-.47.68.34,1.85-3.71.99-4.15-.71-.36-1.75-.41-2.26.75-.39.88-2.46,1.36-3.11.69-.5-.51-1.22-.08-1.73-.72.12-.6,1.59-1.13.34-2.04-.16-.12.11-.57.32-.53,1.37.27,1.78-1.37,2.92-1.51.75-.09,1.36-.68,1.41-1.25.07-.74-.84-.65-1.37-.85-.39-.14-.75-.34-1.18-.53-.08.73.58,1.77-.3,1.98-.47.11-1.31-.77-1.89-1.05-1.28-.63-.67-1.01-.3-1.74.29-.57.41-.38.75-.13.46.34.93.25,1.23-.27.2-.34.15-.71-.05-1.05-.31-.51-.81-.61-1.27-.4-.91.42-1.85.38-2.92.41,1.91-.81.36-2.65,1.22-3.8.18-.24-.48-.65-.92-.65-1.66,0-2.99-.74-4.27-1.73-.56-.43-.56-1.11-1.06-1.61-2.07-2.07-4.51-1.21-6.84-1.21-.97,0-1.95.61-2.6-.76-.17-.35-1.06-.6-1.66-.21-2.28,1.46-2.7,1.48-4.55-.42-.63-.65-1.34-1.13-2.08-1.55-.67-.38-1.25-.04-1.7.59-.57.79.21.88.53,1.24.4.46.77.95,1.07,1.48.31.54.62,1.25.07,1.7-.62.51-.72-.66-1.3-.67-.47.68-.44,1.32.32,1.68.6.28.96,1.09,2.02.42.75-.47,1.75-.54,2.48-1.35.55-.61,1.08-.04.92.64-.31,1.29.65,1.69,1.37,2.09.88.5,1.2-.58,1.68-1.02,1.21-1.08,3.49-.79,4.4.74.32-.56.61-1.06,1-1.76.47,1.81,2.16,1.54,3.19,2.35.82.66,1.63,1.11,1.85,2.29.17.96.29,2.03,1.53,2.38.44.12.7.76.45,1.26-.25.5-.72.26-1.12.13-.4-.12-.82-.2-1.22-.33-1.42-.48-2.57.42-2.46,1.95.11,1.48-1.19,3.07-2.53,3.06-.5,0-.98-.05-1.23.52-.27.61.38.85.49,1.28.21.86,2.36,1.54.25,2.68-.29.16.23.45.37.68.17.27.36.56.09.82-.15.14-.44.12-.67.16-1.49.26-3.1,1.66-4.36-.4-.56-.92-1.04-.68-1.96-.45-1.04.25-2.2,1.17-3.6-.3-.89-.93-1.94-2.7-3.89-2.33-.4.08-.81-.04-1.19.4.42.4.83.74,1.19,1.12.35.38.56.88.32,1.36-.31.63-.69.02-1.05-.02-2.36-.22-5.32-1.36-6.82-2.62-.36-.31-.4-.51-.16-.9.6-.98-.45-1.4-.81-1.95-.5-.77-.83.17-1.23.43-.48.32-1.06.81-1.57.6-.6-.25-.2-.97-.26-1.49-.1-.98-.29-2.13-1.71-1.14-.21.14-.58.33-.63.14-.28-1.12-1.09-1.77-1.88-2.45,1.03-1-1.02-2.31.46-3.4-.97.59-1.77,1.21-2.45-.17-.06-.12-1.91-.92-1.71.94.04.39-.2,1-.45.79-.87-.71-1.63,1.22-2.41.02-.19-.29-.26-.95-.63-.78-1.9.86-1.75-.51-2.02-1.71-.16-.7-1.04-.91-1.68-.77-1.46.3-2.83.7-4.12,1.7-5.73,4.42-9.43,10.59-13.46,16.41-5.13,7.42-9.69,15.24-13.63,23.41-1.34,2.78-2.3,5.61-1.95,8.74.34,3.04.03,6.05-.04,9.08-.12,4.6.33,9.16,1.39,13.63,1.31,5.51,1.17,11.19,2.12,16.73.02.12.02.25.04.37q.58,4.09-3.54,4.1c-5.25,0-10.5-.03-15.75-.05-2.58,0-2.74-.11-2.1-2.77,1.3-5.38,2.04-10.81,1.68-16.36-.2-3.15-.73-6.31-.58-9.44.35-7.37-.13-14.72-.06-22.08.01-1.3.04-2.59.31-3.88.35-1.66.15-3.25-.38-4.9-3.16-9.77-5.51-19.75-6.99-29.94-.13-.89-.38-1.64-1-2.32-4.28-4.71-8.44-9.52-12.24-14.66-.61-.82-1.18-1.76-2.31-1.97h.02c-1.31-2.06-2.15-2.26-3.54-.79-.54.57-.98,1.23-1.47,1.85l-.14.1c-.24-.51-.24-.51.21-1.18.24-.36.83-.99.09-1.08-.77-.08-.97-1.99-2.11-.61-.68.83-1.05,1.94-2.11,2.42.11-1.36.4-2.63,1.74-3.51-1.73-.32-3.2.35-4.69.22-1.94-.17-1.12,2.71-2.93,2.71-.44,0-.19.49-.02.7.59.72,1.24.69,2.09.37.59-.22,1.27-1.15,1.92-.38.78.93,1.26.08,1.87-.1-.22,1.25-1.13,2.09-1.94,2.83-.73.66-1.36,1.09-1.37,2.23,0,.68-.75.97-1.1.23-.79-1.66-1.3-1.19-1.92.08-.11.24-.48.36-.74.51-.39.22-.79.79-1.23.17-.31-.45.06-.78.39-1.08.27-.24.52-.52.71-.82.22-.36.13-.74-.18-1-.42-.35-.68-.04-.84.31-.73,1.65-1.25-.3-2-.22-.64.07-.01-.81.36-1.12.73-.59.34-1.25-.09-1.55-.61-.43-.63.48-.96.72-1.45,1.06-1.17,2.04.02,3.09.43.38,1.02.85.47,1.56-.21.27-.51.62-.92.36-.51-.33-1.05-.66-.87-1.45.14-.64-.2-1.09-.67-1.41-.62-.42-1.27-.16-1.06.54.78,2.57-1.66,1.15-2.23,2-1.06-1.03-1.38.06-2.19.97,1.34-.53,1.67,1.25,2.91.62.3-.15.54.57.3.83-1.03,1.06.01,1.74.44,2.48-.12.11-.18.19-.2.18-1.44-.68-1.37,1.5-2.5,1.39-.94-.09-1.73-1.6-2.85-.17-.48.61-1.89-.12-1.93-.98-.02-.45.18-.94-.52-.82-.57.1-.6.56-.41,1.01.22.53.28,1.07.26,1.63-.02.42.79.86.03,1.25-.49.25-.92-.11-1.33-.36-.51-.31-1.06-.57-1.56-.91-.51-.35-.84-.33-1.15.27-.19.38-.41,1.14-1,.52-.37-.39-1.3-.62-.69-1.6.48-.78.81-1.7-.79-1.22-.73.22-1.05-.53-1.49-.85-.57-.41.14-.81.33-1.22.45-.96,1-1.97-.33-2.68-.67-.36-.42-.74-.15-1.2.21-.36.46-.76.51-1.16.06-.52-.69-1.28.31-1.49.97-.2.63.85.9,1.31.42.71,2.07.91.87,2.28,1.9.14,3.63-.19,5.32-1.18-.54-.06-.99-.1-1.38-.14-.08-.14-.14-.23-.13-.24.82-.7.45-1.59.47-2.45,0-.36.75-.07,1.19-.23-.45-.78-.9-1.45-1.95-1.16-.59.17-1-.21-1.01-.75-.02-1.54-1.54-2.71-.99-4.39.09-.28.39-.92-.42-.88-.52.02-.79.19-.62.79.1.35.19.84-.21.99-.49.19-.65-.4-.96-.64-.39-.29-.52-2.68-1.49-.27-.24.59-1.19-.16-1.96.31-.89.54-.71,1.06-.68,1.75.04.9.58.91,1.26.85.56-.05,1.44-.23,1.44.61,0,.71-.83.59-1.33.45-1.14-.32-1.17.78-1.09,1.19.34,1.74-1.17,1.67-1.87,1.79-1.02.17-.93-1.23-.81-1.68.36-1.39-.13-2.99,1.17-4.2-2.25.16-2.8.86-2.3,2.78.13.5.22,1.02-.13,1.41-.61.68-.75-.28-1.09-.45-.53-.26-1.86.03-1.16-1.42.19-.39-.41-.67-.71-.59-1.05.26-2.21.54-2.68,1.66-.45,1.09.18,1.88,1.12,2.42.09.05.12.2.18.31-.32.63-.83.25-1.27.25-1.11,0-1.85.4-2.09,1.68-.2,1.08-1.01,2.16.64,2.78.29.11.48.6.31.98-.21.46-.61.37-.9.11-.51-.45-.71-.15-.92.3-.07.15-.25.34-.39.35-.86.04-.35-1.71-1.85-1.3-1.01.27-1.22-.99-.9-1.99.07-.22.07-.51,0-.73-.28-.91.49-1.91-.06-2.71-.64-.92-1.32.34-2.23.16-2.38-.46-5.11,1.49-5.87,3.9-.28.89-.65.49-1.01.37-1.58-.54-3.16-.72-4.77-.23.03.09.05.21.11.3,1.07,1.48,2.34,1.79,3.97.89.47-.26,1.28-.04,1.45.72.16.73-.47.86-.97,1.1-.99.47-2.01.9-1.87,2.38.06.63-.22,1.11-1,.79-.86-.35-1.72.36-1.83.79-.4,1.59-1.93,1.2-2.78,1.94-.5.44-1.06-.06-.98-.57.19-1.17-.64-1.45-1.31-1.83.05-.67,1.04.02.92-.86-.18-1.29-.07-2.35,1.71-2.11.48.06.58-.72.69-1.19.19-.78-.51-.41-.76-.6-1.51-1.17-3.36.03-4.97-.82-.44-.23-.85,1.44-2.05,1.39.02-.56.4-1.65-.9-1.18-.58.21-.91.04-1.01-.62-.12-.76-.66-1.13-1.34-1.35-.6-.19-1.11-.46-.3-1.09.44-.34.08-.49-.13-.69q-2.25-2.11.1-3.8c-.01-.21-.1-.39-.32-.35-1.13.23-2.07-1.68-3.05-.54-.42.49.12,1.83.22,2.79.14,1.3-1.13,1.48-1.74,2.13-.51.54-1.38.26-1.91-.34-.62-.7-1.13-.92-1.98-.24-.67.54-1.5.11-1.9-.52-1.03-1.64-2.12-1.1-3.14-.14-.96.89-2.21.16-2.36-.25-.76-2.08-2.92-2.22-4.28-3.41-1.37-1.2-.7-2.39-.49-3.13.59-2.09.83-2.09,3.06-1.01,1.51.73,1.67.03,1.44-1.39.67.13,1.29.25,1.45.93.19.79.47,1.18,1.36,1.03.81-.14,1.05-.44,1.08-1.32.04-1.03.22-1.03,1.97.04-.11-1.52.01-2.87,1.85-3.13.31-.04.78-.4.82-.67.33-2.54,1.82-1.52,3.31-.88-.44-1.38-1.36-2.52-2.11-2.6-1.41-.16-1.27-1.25-1.8-1.95-.37-.49-.24-.92.22-1.02,1.58-.34,1.18-1.5.71-2.25-.51-.82-1.45-.6-2.24-.06-.28.2-.64.29-1.11.5.98.77.76,1.86.87,2.87.07.6.28,1.44-.52,1.52-.85.09-.61-.86-.83-1.53-1.31.61-2.67.58-3.96.03-.74-.31-1.13.54-1.87.28-2.13-.75-3.08-3.42-1.86-5.48.03-.05.13-.11.13-.11-1.79-2.36,1.64-1.37,1.62-2.63,0-.12.63-.43.75-.34,1.55,1.21,2.82-.35,4.21-.51.95-.11,2.14.89,3-.48.13-.21.84.69,1.14,1.23.17.3.17.56-.12.81-.29.26-.95-.32-.96.43,0,.15.34.45.49.43.5-.07.99-.26,1.49-.4-.4-1.22,1.48-1.75.81-3.19-.41-.87.49-.74,1-.6.68.19,1.38-.25,1.06-.68-.78-1.03-.26-2.22-.69-3.2-.35-.81-.76-1.48.4-1.89.14-.05.45-.16.26-.32-2.04-1.75-.23-1.29.74-1.42.61-.08.58-.69.69-1.16.15-.67-.4-.65-.75-.79-.57-.23-1.47.1-1.65-.8-.13-.63-.46-1.86-.15-1.86.9.02,1.84-.85,2.68-.06.3.28.41.86.92.35.36-.36.62-1.15.36-1.34-1.24-.92-.51-1.98-.3-2.94-.4-.33-.72.35-1.04-.05-.11-.66.9-.63.75-1.49-1.05.68-1.96.37-2.74-.44-.39-.41-.7-.31-1.09,0-.83.68-1.66.61-2.39-.16-.7.31-.21,1.09-.72,1.51-.39-.2-.8-.55-1.23-.58-.57-.04-1.09-.94-1.64-.28-.55.67.47,1.01.54,1.72-.3.34-1.05-.61-1.36.52-.26.92-1.35,2.03-2.25.15-.41-.86-2.18-.25-1.99-1.91.03-.23-.46.15-.71.22-.85.25-1.66.71-2.27-.61-.14-.29-1.21-1.77-2.33-.6-.27.28-.6.45-.17.87.48.47.58.9-.15,1.29-.49.26-.32.7-.17,1.14.13.39.7.91-.01,1.2-.57.24-1.04-.07-1.22-.74-.1-.37-.32-.66-.71-.81-.39.34.36,1.04-.35,1.22-.54.14-.93-.17-1.22-.61-.2-.31-.36-.65-.52-.97-.22-.45-.59-.44-.91-.21-.38.27-.33.62.03.9,1.34,1.06.09,2.23.03,3.32,0,.17-.88,1.42-2.12.1-1.05-1.12-.89-2.58-1.84-3.48-1.26-1.19-.57-2.8-.97-4.16-.05-.16.03-.36,0-.54q-.32-1.47,1.11-1.25c-.04-1.03-.54-2.66,1.37-1.05.27.23.93,0,1.4-.07.29-.05.67-.39.82-.29,2.25,1.47,2.68-.41,3.56-1.83.66-1.07.05-1.25-.64-1.59,1.56-.31,1.17-.3,1.12-1.53-.1-2.49-2.19-2.86-3.52-3.97-1.04-.86-1.31-1.8-.32-2.71.12-.11.28-.3.25-.42-.38-1.71.87-1.76,1.92-2,.47-.11.97-.13,1.27-.78-.61-.38-1.62.13-2-.95.93-.29,2.56-.45,2.69-.71.61-1.19,1.68-.94,2.62-1.14-.2-1.08-1.68-1.09-1.27-2.5.16-.55-2.27-.51-3.17.62-.06-1.69-2.03-2.34-1.59-4.2.48.05.24.9.72.78.58-.14.13-.6.16-.91.19-1.93.2-3.82-.92-5.52-.17-.26-.24-.83-.09-.79,1.29.41.78-2.19,2.27-1.36.75.42,1.36.42,1.03-.78-.17-.61-.05-.6.61-.78,1.2-.34,1.2-2,1.17-2.85-.04-1.19.1-1.44,1.06-1.04,1.02.42,1.23-.02,1.09-.89-.1-.58-.09-1.04.25-1.56.7-1.08.8-2.17-.32-3.11-.34-.29-.61-.69-.29-1.12.33-.44.76-.15,1.15,0,1.31.49,1.78,1.75,2.52,3.11.83-1.46,1.75-2.53.9-4.21-.29-.57-.25-.94-.85-.37-.89.86-.91-.92-1.77-.6-.64.24-.39-1.62-1.53-.98-.34-.81.55-1.48.5-1.91-.37-2.94,2.47-2.46,3.59-3.77-.13-.62-.64-.4-1.02-.48-.61-.13-.66-.48-.28-.92.16-.18.39-.29.58-.43-1.59-2.09,1.19-1.54,1.5-2.54.16-.51,1.14-.68,1.36-.13.62,1.51,2.35,1.23,3.2,2.31.33.42.74.73,1.24-.08.68-1.1,1.63-1.85,2.92-.7.17.15.33.43.58.19.26-.25.21-.55-.04-.8-.3-.31-1.02-.47-.49-1.11.38-.46.94-.52,1.5-.44.51.07,1.22.4,1.15-.57-.08-1.04-.8-.02-1.03-.24-.82-.78-2.52.47-2.98-1.61-.16-.71-.08-.86.1-1.45.54-1.72,2.02-1.69,3.2-2.35,2.09-1.16,3.89-1.73,5.3.91.96-1.44,1.07-2.95,1.63-4.26.52-1.23.37-1.95-1.04-2.46.24,1.32.18,2.43-1.56,2.23-.46-.05-.46.46-.23.83.25.39.79.6.7,1.24-.7.04-1.05-.5-1.44-.92-1.36-1.47-2.54-3.1-4.23-4.27-.73-.5.51-1.67-.26-2.56-.19-.22.69-.44,1.16-.3.44.13.67,0,.79-.46.13-.5.81-.78.96-.53.8,1.28,2.33-.24,3.19,1,.3.42,1.12-.19,1.62-.46.66-.37,1.28-.75,1.46.34.1.57,1.08,1.63-.53,1.72-.34.02-.65.15-.42.54.13.24.61.55.68.5.83-.66,1.91.11,2.8-.47-1.44-1.02-1.39-.98-.23-2.62.17-.23-.21-1.12-.37-1.68-.37-1.38.08-1.87,1.38-1.82.33.01.77.22.92-.3.11-.37.06-.78-.33-.96-.81-.38-.81-.8-.16-1.35.12-.1.24-.38.18-.47-1.21-1.92.34-1.43,1.27-1.46-.09-.81-.84-2.09-.17-2.19.93-.14,2.01.66,2.99,1.42-.82-1.52-.47-2.58.66-3.73,1.25-1.29.86-3.3-.61-4.45-.53-.42-.71-.96-.82-1.79.65.06,1.71.67,1.42-.75,1.04.07,2-.62,3.11-.24,1.04.36,1.14.24.89-.84-.1-.41,0-.58.24-.75.41-.27.86-.23,1.11.19.25.41.53.93.49,1.37-.17,1.93,1.79,2.98,1.83,4.84,0,.23.76.57,1.21.64.41.07.59-.44.58-.79-.02-.73.42-1.18.72-1.75.21-.4,1.15-1.76-.7-1.27-.43.11-.8-.37-.56-.84.75-1.48-.6-2.07-1.25-2.01-1.67.15-1.07-1.52-1.86-2-.19-.11-.08-.47.12-.65.33-.31.66-.12,1,.02.4.18,1.08.9,1.15.38.15-.98,1.95-.97,1.18-2.3-.42-.72.08-.89.58-.97.88-.14,1.62-.63,2.58-.67,1.08-.04,2.23-.43,2.01-2.12-.13-.98.71-.71,1.29-.73.75-.02,1.31-.26.42-1-.37-.31-.47-.69-.17-.91,1.12-.8,1.72-1.95,2.34-3.15.31-.6.74-.11.75.4.03.98.57,1.31,1.41,1.25,1.47-.11,2,.82,2.24,2.13.47-.23.88-.5,1.32-.64.52-.16,1.17-.23,1.45.36.3.63-.28.89-.72,1.03-.97.32-.69.84-.24,1.37.34.4.4.79.5,1.32.28,1.41.25,2.07-1.38,1.95-.37-.03-.37.71-.51,1.11-.12.37.17,1.05-.45,1.03-.74-.03-.87.25-.65.85.27.74.58.3,1.06.14.58-.19.58.76.96,1.14.38.38.59,1,1.22.88.73-.14.23-.83.39-1.23.17-.42.01-1.59.96-.64.4.41.64.77,1.11.23.39-.46,1.43-.52,1.03-1.48-.35-.85,0-1.51.67-1.62,2.04-.34,3.26-1.59,4.14-3.37.16-.32.52-.72.83-.26.46.67,1.68,1.18,1.21,2.07-.57,1.06.04,1.57.53,2.06,1.16,1.2,1.45,3.12,3.1,3.9.22.1.43.51.25.59-1.52.73-.55,2.88-2.01,3.63-.42.21-.72.64-.24,1.01.52.4.88,1.31,1.81.83.5-.26.83-.49.23-1.05-.26-.24.18-.56.19-.81.06-.98,1.52-1.46.93-2.72-.03-.05.55-1.48,1.71-1.02.74.29,1.26-.59,1.73-1.02.5-.46-.1-1.01-.49-1.38-.83-.8-.63-1.96-.94-2.93-.17-.53.5-1.47,1.39-.56.51.52,1.05.41,1.43-.01.4-.45,0-.94-.27-1.33-1.07-1.55-1.97-3.32-4.1-3.63-.2-.03-.69-2.53-.54-2.55,1.07-.14,1.3-.98,1.6-1.84.15-.44.51-.79.74.06.25.92.82.13,1.15.08.84-.11.16-.6.08-.93-.12-.49-.75-1.04.01-1.43.57-.29,1.32-.67,1.83-.5.66.22.43,1.06.22,1.64-.21.6-.11,1.07.28,1.54.15.18.36.54.29.65-1.04,1.59.38,3.5-.7,5.1-.38.57-.15,1.36.56,1.41,1.65.1,1.42,1.58,1.41,2.36-.02.88-.42,1.97.56,2.13,1.16.19.33-1.31,1-1.92.02.52.04.94.06,1.36.04.73.23,1.28,1.1.81.92-.49,1.24.32,1.79.77.36.29-.02,1.39.5.93.57-.51,1.68.03,1.82-1.16.13-1.08.57-1.67,1.83-1.06.63.3,1.29-.74,2.2-.3-.71-.65-1.64-.75-1.98-1.53-.19-.43-1.02-1.03.14-1.5.68-.27.84-.97.39-1.71-.28-.46-.23-1.02.19-1.35.5-.39.8.15.99.47.35.58.96-.13,1.35.44-.79,1.31-.65,2.28,1.15,2.44.12-.43-1.08-.65-.31-1.01,1.13-.54,2.01-1.95,3.56-1.24.46.21.87.11,1.13-.26.45-.64-.52-.68-.49-.85.23-1.85-1.29-3.7,0-5.51.32-.46.32-.88.18-1.39-.15-.56-.17-1.17.47-1.44,1.37-.6,1.14-1.75.94-2.84-.21-1.15-.26-2.57.68-3.02,1.09-.52,2.03.71,2.73,1.55.65.78,1.01,1.8,1.5,2.72.17.31.29.78.76.57.46-.21.3-.65.09-.94-.6-.81-.87-1.47.4-1.89.46-.15.54-.57.42-1.07-.11-.46-.6-1.33.27-1.25.57.05,1.47-.54,1.88.49.43,1.08.58,2.62,2.28.82.49-.52,1.79-.77,2.69-1.24.5-.26.87-.61,1.08-1.12-.41-.62-.8.07-1.17-.1-.91-.42-2.11-.49-2.45-1.68-.27-.95,1.63-3.86,2.72-4.22,1.19-.4,2.4-.72,3.62-.98.71-.15,1.59-.19,1.91.64.42,1.08,1.33,1.29,2.16,1.39,1.02.12,1.8.3,1.76,1.59.72-.35.6-.72.45-1.06-.76-1.63.19-1.62,1.25-1.31.47.14.72.13.74-.35.05-1.17,1.1-1.83,1.28-3,.25-1.6,1.55-1.43,2.72-1.06.44.14.9,1.01,1.29.11.27-.63,1.24-1.21.4-2.12-.44-.48-.98-.98-.74-1.77.03-.1.33-.2.46-.15.71.27.87.96,1.1,1.6.21.58.44,1.15.68,1.72.17.39.25.69.9.51,1.42-.4,2.76.28,4.09.7.89.28,1.16.83.41,1.62-.74.78-1.08,1.72-1.29,2.79-.13.68-.41,1.12.31,1.73.75.63,1.4,1.11,2.38.79.16-.05.38-.1.45-.22.26-.45-.41-1.74.84-1.22.81.34,1.64,1.08,1.26,2.35.72.06,1.32-1.02,2.12-.19.44.45.8.11.91-.38.08-.39,1.02-.53.31-1.16-.72-.63-.5-1.5-.05-2,.64-.7,1.19.13,1.65.54.83.73,1.87.99,2.74,1.85,1.39,1.38,1.1,2.38.27,3.75.57.08,1.18.45,1.29-.44.11-.84.9-1.15,1.19-1.81.39-.89.82-.95,1.46-.29.33.34.73.47,1.11.06.4-.42.26-.86-.16-1.08-1.61-.85-.6-2.57-1.24-3.75-.18-.33.4-.66.5-.55,1.04,1.13,1.95-1.84,2.92-.08.19.34.12.83.2,1.61.91-1.63,3.13-.62,3.69-2.72.16-.58,1.04.12,1.46.52.45.43.87,1.02,1.46.25.82-1.06,1.72-.26,2.39.04.93.42.3,1.07-.15,1.6-.29.35-.12.7.23.93.32.2.71.32,1,0,.41-.45.86-1.24,1.41-.92.89.53,1.7,1.31,2.33,2.16.59.79,1.66,1.09,2.31.2,1.06-1.44,2-.7,2.18.36.22,1.23.94.67,1.87.81-2.36,1.37-.95,3-.78,4.49.04.36.36.84.87.8.37-.03.69-.27.78-.67.24-1.05,1.81-1.85.58-3.21-.19-.21-.09-.66.21-.8.49-.23.87.14,1.04.5.62,1.32,1.36,2.62,1.42,4.14.02.54.11,1.29.59,1.04.65-.34,1.62.08,2-.85.27-.67-.04-1.05-.63-1.3-.16-.07-.32-.18-.45-.31-.6-.62-.98-1.48-.49-2.18.81-1.15.51.52,1.09.63.94.17,2.45.46,1.7,2.45,2.09-1.57,2.43-.33,2.45,1.41,0,.51.42.72.79.92.26.14.52,0,.58-.26.08-.36.73-.69.14-1.1-.79-.55-.36-.76.17-1.16,1.02-.77,1.47-2.46,3.24-1.95.22.06.56-.24.44-.44-.69-1.12.44-2.78-1.1-3.68-.51-.3-.91-1.1-.25-1.55.63-.43,1.17.25,1.39.8.79,1.91,1.1,4.06,2.79,5.49-.78,1.37.69,1.82,1.07,2.71.55,1.3-.18,2.14-.96,2.93-1.26,1.27-1.12,2.26.42,3.09.71.38.98-.22,1.36-.55.28-.24.59-.62.06-.87-2.24-1.05-.09-1.85.28-2.43.38-.59.83-1.16,1.08-1.83.16-.43.06-.53-.59-.43-.38.06-.39-.16-.45-.38-.23-.79-.27-1.59.04-2.37.5-1.24,1.45-1.42,2.13-.3.63,1.03,1.06,2.19,1.66,3.26.34.6-.16,1.98-.55,1.95-1.65-.13-1.14,1.3-1.51,1.98-.29.53-.33,1.52.81.67.57-.42.7.02.83.48.15.53.35,1.04.53,1.56.08.22.08.56.4.48.18-.05.45-.33.44-.48-.24-2.68,1.59-.36,2.21-.95.03-.03.44.42.5.38,2.51-1.83,2.94.42,3.73,1.97.04.09.19.11.49.28-.25-1.12.71-1.61.93-2.38.17-.57.21-1.81-1.23-1.53,1.1-2.05,2.51.01,3.61-.48,1.88-.85,1.3,2.37,3.4,1.5-1.7,1.73-1.54,2.98.05,4.05.37.25.74.64.18,1-.47.31-.35,1.43-1.23,1.06-.96-.42-1.85-1.29-2.82.02-.03.04-1-.66-1.55-1-.25-.15-.53-.24-.94-.42.72,1.97-.54,3.08-1.46,4.27-.26.34-.36.66-.32.95.1.81.53-.11.72.09.76.8,1.59,1.62,1.68,2.79.03.48,0,.89.46,1.03.54.16.83-.31.81-.74-.04-.93.38-1.08,1.11-.88,1.2.32,1.86-1.32,3.33-.75.98.38,1.54.43,1.07,1.88,1.13-1.94,2.31-.67,2.92-.14.96.85.48,1.85-.68,2.38-1.09.49-1.69,1.74-2.94,1.99-.09.02-.23.2-.21.27.42,1.57-1.01,2.58-1.13,3.96-.08.86.36,1.2,1.09.63,1.45-1.12,3.62-.25,4.91-1.95.3-.39.91.23,1.13.64.68,1.26,1.5,1.33,2.64.6.87-.56,1.47-.59,1.58.87.1,1.39.64,2.75,1.02,4.11.15.55.76.9,1.13.75,1.25-.51,2.03,1.34,3.4.55.46-.26.49.69.29,1.12-.34.73.15.99.58,1.33.57.46.88.06,1.18-.35.64-.9,1.17-.7,1.6.18.38.78,2.24,1.03.85,2.45,1.56.37.33,3.02,2.52,3.01-.56-.91-.07-1.6.68-1.38,1.05.3.59-1.64,2.23-1.01,1.43.55,2.83,1,4.05,1.97.43.34.77-.17,1.16-.26.76-.18,1.05-1.2,2.25-1.21-1.12.96.45,2.79-1.51,3.32-.23.06.16.5.28.76.42.95.84,1.91,1.19,2.89.18.5.39,1.24-.27,1.44-.69.2-.98-.55-.89-1.07.22-1.38-.7-1.98-1.63-2.67,1.14,1.61.14,3.41.55,5.08.23.96.2,2.06,1.87,2.06-1.88,1.15-1.27,2.51-.64,3.87.14.31.23.86.68.66.39-.17.99-.51.62-1.12-.57-.93-.24-1.24.67-1.25.41,0,.59-.24.86-.51,1.09-1.1,1.64-.96,1.99.54.26,1.11.86,1.3,1.45.49.92-1.26,1.7-.74,2.58-.1.35.26.78.48,1.17.25.51-.31.03-.77.05-1.16.09-1.62-.66-1.9-2.04-1.59-1.54.34-1.32-1.22-1.99-1.93.66-.42,1.16-.15,1.62.06.34.16.51.83,1.02.4.57-.48-.21-.69-.28-1.05-.07-.35-.01-.75.3-.75,1.07,0,1.78-.58,2.63-1.16.72-.5.99.61.77,1.12-.52,1.18.05,1.83.83,2.5.71.61,1.57,1.04.4,2.23-.67.68.26,1.22,1.02,1.39.47.1,1,.09,1.03.79.06,1.54,1.23,2.41,2.5,1.85q1.97-.85,3.66,1.41c-1.32-.9-2.36-.49-3.4-.44-1.28.05-2.12.45-1.8,1.99-.76-.1-.91-1.2-1.67-.73-.52.33-.33.84-.13,1.32.11.25,0,.49-.24.62-2.12,1.11-1.55,3.6-2.56,5.28-.1.17-.11.56,0,.66.84.76.45,1.21.09,2.19-.41,1.1.12,2.28-1.74,1.58-.43-.16-.94.34-.43.97.58.71,1.23,1.31,2.15,1.59,1.25.37,1.53,1.46.67,2.41-.26.29-.9.57-.28.96.48.3,1.55.35,1.53-.25-.05-1.13.93-1.15,1.3-1.78.46-.79,1.42-1.31.54-2.5-.42-.57-.19-1.2.83-.88,1.29.41,2.43.57,1.68,2.59-.62,1.66,1.26,2.22,2.19,3.51.18-2.23-1.24-3.74-1.22-5.61,0-.29-.26-.6,0-.86.3-.3,1.16-.42.54-1-.72-.67-.91.4-1.35.7-.28-2.08,1.21-3.44,3.18-2.89.66.18.46.58.15.96-.58.73-.48,1.5-.06,2.24.93,1.69,1.37,3.44.77,5.36-.13.41.05.74.48.83.37.08.62-.19.63-.51.11-2.42,2.51-2.27,3.71-3.48.47-.47,1.52-.46.74-1.54-.21-.3-.09-.59.22-.77.42-.23.87-.18,1.2.1.79.66,1.52,1.11,2.49.27.37-.32.97-.35,1.29.15.31.47-.09.79-.44,1.06-.29.22-.63.44-.46.89.63,1.7-.13,1.93-1.53,1.35-.11,1.36,1.18,1.65,1.52,2.73-1.49-.5-2.22.47-2.93,1.5-.21.32-.31.92-.86.69-.29-.12-.07-1.25-.84-.48-.25.25-.02.61.23.79.39.29.56,1.07,1.3.62.26-.16.54-.27.82-.38.48-.17,1.01-.26,1.25.31.22.53-.26.76-.62.97-.32.19-.65.32-.54.81.27,1.16.47,2.2-1.28,1.2-.33-.19-.43.5-.63.78-.63.86.58.88.64,1.57-1.27.32-2.17,0-2.65-1.34-.12-.34-.08-1.03-.74-.72-.4.18-.65.71-.49,1.1.56,1.41.77,3,1.92,4.14.28.27.59.65.89.35,1.17-1.18,1.51.36,2.15.7.82.43.4,1.03-.18,1.41-.88.58-1.6,1.12-.23,1.97.28.17.35.45.29.8-.47,2.77-.03,3.28,2.57,2.95.02.79-1.57,1.37-.52,2.15.85.63,1.95.36,2.83-.34.85-.68,1.83-1.24,2.79-.43.83.7.84,1.66.16,2.65-.46.67.14,1.24.51,1.76.27.38.94.95.38,1.14-.76.27-.92,1.6-2.04,1.09-.75-.34-1.55-.57-2.49-.91.03.98.55,1.49,1.15,1.53.96.07,1.46.63,2.08,1.24.74.71,1.56,1.17.16,2.03-.45.28-.04.8.13,1.17.38.87.62.03.89-.12.87-.48,1.41.06,1.82.68.37.55.72.95,1.71.7-1.44,1.72-.72,3.26-.13,4.79.78,2.04.77,1.92-1.2,2.14-1.09.12-1.1,1.62-1.95,2.3-.51.41.74.44,1.01.78.78.99,2.18,1.41,2.44,2.93.12.69.91.89,1.49,1.23.9.54,1.56,1.3.21,2.1-.49.29-.32.72-.47,1.09-.39.94-.86,1.98-1.79.32-.25,1.43-1.82,1.88-2.1,3.3-.09.44-.69-.03-.93-.4-.21-.31-.44-.42-.71-.08-.25.32-.16.52.2.7.2.1.37.31.48.52.31.57.44,1.22.03,1.75-.51.65-.77-.27-1.2-.31-1.46-.13-1.96-1.18-2-2.46-.03-.92-.33-1.68-.83-2.39-.61-.86-1.24-1.55-1.83.04-.08.21-.3.49-.47.51-1.48.1-.91.46-.25,1.14.48.49-.43,3.12-.96,3.01-1.43-.29-1.33.95-1.18,1.42.56,1.77-.55,1.2-1.31,1.11-.35-.04-.66-.32-1.01-.39-.66-.13-1.23.13-1.49.77-.37.9.59.49.87.8,1.23,1.38,3.14,2.04,3.96,4.02,1.19-1.05,2.37-1.71,3.87-.5.45.37,1.22.15,1.27-.76.06-1,.91-2.02,1.44-1.83.78.28,2.36.04,2.19,1.83-.07.72.41,1.05,1.01.34.16-.18.31-.47.5-.5,1.45-.28,2.35-1.03,2.3-2.81.52,1.39,1.36.39,2.01.5.76.12,1.75.62,1.64-.96-.02-.33.58-.72.78-.28,1.23,2.8,1.36-.09,2.01-.51.56.89-.23,2.02.8,2.76,1.05.75,2.05,1.38,3.33.95.91-.31,1.57.11,1.75.81.32,1.25,1.04,2.15,1.83,3.06.77.88.79,1.78.28,2.83-.62,1.26-.22,2.02,1.24,2.05-.48-.97.46-3.71,1.24-4.25.95-.65,1.72-1.62,2.79-.18.44.58.63.89-.03,1.5-1.67,1.53-1.22,4.11.93,5.14,1.12.54,1.27.91.53,1.99-.61.9-1.39,1.75-1.51,3.05-.04.45-1.38.77-2.13,1.15.05-.84-2.31-.47-.94-2.01.25-.28-.16-.66-.44-.51-.88.5-2.24.45-2.3,1.98-.02.58-.17,1.21-.77,1.35-.8.18-.76-.58-.88-1.09-.12-.51-.48-.68-.92-.75-.54-.09-.74.3-.9.72-.31.77-.6,1.48-1.68,1.26-.73-.15-.3.47-.26.69.14.91.79,1.67.78,2.67.79-.14.77-1.15,1.51-1.31.71.41-.16.94.02,1.44,1.17-.27,2.48-.1,2.8-1.79.1-.56.8-.89,1.33-.68.67.27.08.85.09,1.29.02,1.62-.64,2.85-1.98,3.67,1.79.76,1.94,1.17.78,2.87-.58.84-.01,1.58.16,2.22.16.6.77-.03,1.15-.29.76-.52,1.11-.15,1.24.62.38,2.18.93,4.17,2.77,5.71,1.27,1.07.34,3.01.8,4.49.07.23-.29.57-.42.43-.81-.9-1.73,1.25-2.46-.12-.17-.31-.2-.77-.67-.75-1.25.04-1.77-.17-.82-1.52.47-.67-.76-1-.83-.91-.73,1.04-2.11.05-2.82,1.01-.06.08-.22.07-.34.11-1.81.59-1.77.6-2.25,2.54-.15.61-.2.85.38,1.33,1.32,1.06,1.16,3.24,2.78,4.17-1.21.71.4,1.72-.3,2.61-.61.78-1.49,1.08-2.16,1.73-.31.3-.61-.27-.93-.35-1.12-.28-2.3-.89-3.32.25-.6.66-1.22.42-1.75-.05-.79-.68-1.81-.79-2.68-1.27-.48-.27-.49-.02-.76.44-.56.97-1.92,1.47-1.52,3,.04.15-.27.4-.56.31-.39-.12-.53-.48-.66-.82-.41-1.05-.83-1.24-1.49-.66-.44.39-1.25.19-1.45.95-.13.38-.25.77-.38,1.15ZM307.25,178.14c-.57.27-.32.51.02.76.28.41.6.61.98.14.22-.28.41-.66.11-.97-.36-.38-.75-.17-1.11.07ZM51.62,181.88c.55.72,2.51.16,1.8,2.06,0,.02.4.31.58.27.9-.15,2.01-.32,2.22-1.3.37-1.77,1.73-1.28,2.72-1.43.63-.09,1.4.59,1.59-.63,1.07.47,1.04-1.74,2.28-.95,1.57,1,3.81.45,5.05-1.22-.65-.16-1.54-.67-1.85-.42-1.33,1.06-1.47.12-1.76-.85-.19-.64-1.01-1.32-1.26-.74-1.03,2.35-2.26,1.4-3.63.55-.63-.39-1.29-.04-1.88.26-.8.4-.19.9-.1,1.39.09.48.37,1.35-.54,1.17-1.28-.25-2.34.63-3.56.5.29-.45.58-.89,1.02-1.56-1.56.5-2.5-1.64-3.94-.51-1,.79-2.61,1.08-2.55,3.03.85-1.03,2.81-.76,3.83.38ZM181.59,157.78c-.05-.78.17-1.27.42-1.78.54-1.1-.68-1.1-1.05-1.62-.31-.42-1.05-.13-1.06.16-.04,1.19-.11,2.46.26,3.54.28.84.24,2.02-.61,2.41-1.12.51-2.67.67-2.15,2.65.14.53-.26.78-.79.62-.35-.1-.52-.54-1.08-.14-1.06.76-3.49-.1-4.2-1.32-.19-.32-.35-.7-.8-.58-.37.09-.27.42-.33.72-.26,1.45-1.29,1.87-2.64,1.37-.42-.15-1.23-.85-1.62.21-1.04,2.83-2.58,5.4-3.93,8.08-1.28,2.52-3.11,4.81-3.79,7.58-1.18,4.83-1.48,9.76-.76,14.72.37,2.57.6,5.15.66,7.76.07,3.04.29,6.07.47,9.52.54-.89.85-1.42,1.18-1.93,1.68-2.56,3.11-5.35,5.51-7.31,4.77-3.9,9.54-7.8,14.97-10.72,2.69-1.45,5.04-3.39,7.59-5.02,1.79-1.14,1.74-2.98,2.23-4.64.1-.32-.06-.63-.43-.67-.4-.04-.46.26-.51.59-.09.69-.61.93-.98.42-.71-.98-1.67-.86-2.53-.8-.31-.61.98-.49.25-1.24-2.39-2.44.84-2.44,1.56-3.4.95-1.25.8,1,1.59.78.35-1.32,1.77-2.23,1.32-3.86-.05-.19.28-.67.49-.72,1.5-.33,1.04-1.35.84-2.3-.25-1.15-.49-2.3-.73-3.45-.09-.42-.15-1.11-.55-1.06-1.75.23-2.55-2.68-4.61-1.39-.38.24-.71-.42-.77-.83-.17-1.04-.4-2.03-1.05-2.91-.22-.3-.5-.87.1-1.06.37-.12.83.07,1.02.56.37.94.94,1.8.93,2.99.79-.87.62-3.67-.72-4.47-1.02-.62-1.93-2.36-3.68-1.46ZM34.99,143.96c-.03.13-.06.23-.06.33,0,.03.09.07.15.08.37.11.99-.09,1.01.52.01.62-.62.8-1.06.78-.93-.06-1.28.35-1.6,1.21-.24.65-.92.86-1.3-.05-.17-.39.03-1.22-.77-.75-.51.3-.6.95-.29,1.48.24.41.65.72.95,1.11.88,1.14.13,2.4.14,3.58,0,.87-.99-.47-1.4.2.3.84,1.2,2.21.36,2.44-1.84.49-.66,1.63-.45,1.96.62.99,1.8,1.57,1.83,3.03.01.48.7.04,1.05.08,1.09.13,1.87-1.95,3.14-.45.14.17.34-.23.51-.34,1.96-1.3,1.34-4.2,3.26-5.51-.71-1.25.02-1.63,1.04-1.86.04,0,.09-.3.04-.33-1.23-.9-.12-1.15.42-1.49.35-.22.94-.29.58-.86-.26-.41-.67-.08-.92.17-.46.46-.85.29-1.28-.03-.56-.42-.21-.74.1-1.03.47-.45.3-.62-.2-.92-1-.62-2.36-1.15-2.78-2.1-.61-1.36-1.46-1.22-2.45-1.24ZM197.26,165.67c-.03-.24.01-.48-.08-.58-1.37-1.32-3.61-1.62-4.22-3.83,0-.01-.44.02-.46.1-.29.95-1.67,1.9-.06,2.89.54.33,1.17.76.45,1.38-.85.74-1.44,1.46-1.07,2.69.3,1,.49,2.04.83,3.03.22.66.78.67,1.07.09.75-1.52,1.81-3.01.97-4.86-.19-.42-.4-.82.17-1.07.41-.19.76-.68,1.31-.27.27.21.47.61,1.1.42ZM254.1,230.76c-.65-.83-1.74-1.62.19-1.84.58-.06.49-.46.31-.79-1.15-2.07-2.32-4.12-3.58-6.36-2.65,6.75-.85,9.1,3.08,8.99ZM113.41,25.19c1.84,1.09,2.7-.55,3.9-.97.57-.2.62-1.13.17-1.41-1.64-1.01-1.85-2.96-2.9-4.33-.24-.32-.61-1.03-.87-.64-.43.67-1.52.39-1.59,1.23-.11,1.29-.21,2.62,1.14,3.45,1.17.71,1.8,1.55.16,2.68ZM72.26,168.61c-1.75-4.28-4.25-6.84-6.48-6.69.22.51.44.95.98,1.25,1.52.86,2.7,3.64,2.3,5.34-.1.42-.43.81.15,1.09.28.14.55.18.86.03.54-.26.36-.65.3-1.09-.08-.5-.27-1.1.62-1.56-.09.96.05,1.75,1.28,1.63ZM273.95,139.62c0-.75-.55-1.34.03-1.76.59-.43.97.16,1.36.52.27.26.55.57.86.1.16-.24.21-.55.31-.83-1.25.35-2.04-1.48-3.28-.81-1.11.6-1.91.37-2.59-.61-.27-.38-.56-.78-.94-.19-.24.37-.68,1.1-.14,1.27,1.42.45.78,1.29.67,2.15-.07.61-.1,1.48.72,1.63.49.09,1.15-.26,1.15-.93,0-1.84.94-1,1.86-.54ZM185.65,21.15c.28.52.82.38,1.26.49,1.5.37,3.36-.13,4.15,1.94.14.37.72.76,1.23.38.37-.28.44-.72.14-1.15-.31-.43-.03-.77.11-1.18.59-1.7,0-2.65-2-3.12.23.18.34.27.46.36.37.27,1.02.4.86,1.02-.16.63-.81.05-1.06.24-1.22.96-2.53.67-3.87.5-.43-.05-.98-.13-1.27.52ZM288.55,128.01c-.25.41-.64.26-.98.28-.32.02-.62.05-.65.46-.02.37.24.56.54.66.6.21,1.31.68,1.7-.25.27-.64.71-.17.9-.27.7-.36,1.64.07,2.13-.63.29-.41.04-1-.3-1.36-.52-.56-1.27-.99-1.94-.68-.65.3-.95.16-1.56-.08-.74-.29-2.19-.42-2.44.31-.32.93,1.13.41,1.61.95.25.28.87.04,1,.61ZM41.38,179.67c.32-1.11.3-2.32.88-2.83,1.49-1.3-.82-1.78-.42-2.88.13-.36-.91-.62-1.53-.51-.42.07-.81,0-1.23-.04-.63-.05-.55.85-.4.88,1.64.31.44,1.08.33,1.7-.1.57-.27,1.2.26,1.82.21-.27.37-.51.56-.73.28-.31.61-.83,1.02-.58.64.39.1.84-.15,1.21-.69,1,.42,1.18.7,1.96ZM203.46,194.96c-.7-.31-1.16-.69-1.53-1.39-.58-1.13-3.32-1.68-4.39-1.11-.74.39-.74,1.06-.79,1.73-.03.45.25.73.65.7,2-.17,3.99.54,6.06.08ZM310.22,197.66c-.76.1-1.41.15-2.05.29-.62.14-.9.51-.65,1.22.56,1.57,2.57,2.36,2.26,4.42-.03.23.39.46.54.32.45-.44,1.4-.18,1.5-1.01.08-.72.11-1.53-.87-1.75-.39-.09-1.16-.28-.95-.53.79-.95-.11-1.92.23-2.95ZM21.34,178.74c.88-1.76-.3-1.59-1.3-1.21-.55.21-2.18-.43-1.44,1.37.11.26-.33.18-.54.15-.56-.07-1.16-.09-1.36.57-.24.79.61.95.93,1.42.49.72.84.22,1.29-.14.41-.33.96-.71,1.43-.69,1.1.03,1.41-.37.99-1.48ZM285.31,153.94c-.52-.79-1.1-1.47-1.23-2.53-.1-.9-1.29-.97-2.1-1.01-.84-.05-1.5.46-1.83,1.24-.22.51.06.97.5,1.25.44.28.46-.14.58-.41.2-.44.4-1.05,1-.79.7.31.64,1.06.35,1.6-.64,1.2.04,1.44,1.07,1.76-.16-.57-.26-.95-.37-1.34.73-.21,1.21.73,2.01.23ZM214.93,36.07c-.78.14-1.38.48-1.47,1.63.62-.69,1.05-1.16,1.47-1.63Z"/>
      <path d="M298.48,211.23c.13-.38.25-.77.38-1.15,1.25-.61,1.95.07,2.42,1.13.42.96.93,1.8,2.1,1.66,1.03-.12.26.78.6.98,1.48.9,2.97,1.77,4.47,2.63.12.07.34-.05.52-.09.49-.1.95-.63,1.49-.12-.68.49.44,1.63-.67,1.95-.59.17-.31.74-.48,1.1-.56,1.19-.99,2.45-2.61,2.44-.4,0-.64.32-.77.69-.29.81-.59.63-1.44.61-2.34-.04-2.24-2.7-4.02-3.26-.58-.18-.74-1.74-1.11-2.68-.14.1-.28.16-.3.24-.13.58.61,1.61.04,1.61-.77,0-1.6.16-2.56-.32-1.68-.84-.82-2.3-1.45-3.29.8-.5,1.55-1.22,2.42-1.46,2.23-.62,2.26-.56.96-2.68Z"/>
      <path d="M236.46,248.57c-1.26-.22-2.47-.43-3.43-1.52-.71-.8-2.04.45-2.93-.66-.23-.29-.6-.37-.53-.88.14-.97.05-1.9-.37-2.82-.35-.78-.01-1.3.81-1.48.28-.06.69-.05.82-.24.56-.77.96-2.17,1.78-.16.16.39.52-.05.79-.1.37-.07.98-.01.82.35-.95,2.02,1.75,1.59,1.8,2.92,0,.17.42.02.62-.11.37-.25.74-.5.36-1.02-.51-.72-.32-1.26.52-1.23,1.29.05,1.87-.92,2.24-1.77.5-1.15.96-.66,1.44-.2,1.22,1.17,1.54,2.92,2.47,4.28.08.11.05.39-.03.51-.32.44-1.4.85-.73,1.32.69.48,1.7,1.47,2.78.43.05-.05.21.04.58.11-.63,1.27-1.8,2.08-2.34,3.32-.19.42-.56-.1-.73-.43-.41-.81-1.03-1.43-1.91-1.56-1.28-.19-1.79-.65-.43-2.24-1.71.56-1.53,1.66-1.78,2.48-1.05-.48-1.84.07-2.6.71Z"/>
      <path d="M117.81,180.6c.29,2.57,1.29,4.64,3.86,5.52.5.17.71.43.47.95-.08.16-.35.36-.31.42.79,1.56-.12,1.97-1.36,2.33-.34.1-.81,1.1-.97.82-.62-1.04-2.12,0-2.58-1.4-.3-.94-.62-2.18-2.12-1.96-.33.05-.52-.42-.31-.68,1.33-1.61-.06-2.39-.94-3.29-.45-.45-.81-.9-.87-1.55,0,0,.14-.1.13-.1.35.06.88-.01,1.02.19,1.98,2.88,2.64.46,3.57-.9.1-.14.28-.23.42-.34h-.02Z"/>
      <path d="M98.47,24.2c.59.36,1.06.1,1.39-.37.37-.53.68-1.13,1.38-.47.49.46,1.06,1.08.52,1.74-.55.66-.5.62.28.73.78.11.98.93.87,1.6-.19,1.09-.82.42-1.35.27-.52-.14-.95,0-.91.74.04.86-.31.75-1.11,1.02-1.98.65-1.86-.86-2.65-1.65-1.19-1.2.78-2.02.1-3.17-.25-.42-.71-1.27.26-2.15.88-.79,1.33-1.03,2.06-.23.95,1.04-.46,1.05-.73,1.56-.05.1-.06.23-.09.37Z"/>
      <path d="M303.55,139.85c1.26-.96,2.2.11,3.19.14.78.03,1.44.75,2.36.69.66-.04.94.73.69,1.22-.58,1.14-.05,1.8.69,2.52.33.32.62.84.32,1.34-.35.56-.93-.16-1.04-.06-1.17,1.1-1.83-.31-2.72-.45-1.32-.21-1.53-1.2-1.38-1.94.38-1.85-.6-2.72-2.11-3.47Z"/>
      <path d="M56.39,189.61c-.58.73-.12,1.12.56,1.14,1.43.04.97,1.12.93,1.8-.08,1.24-.41,2.52-1.69,3-.55.21-1.1-.46-.69-1.04.82-1.15.16-2.02-.58-2.5-.95-.62-1.52-1.33-1.75-2.41-.03-.16-.18-.41-.12-.47.71-.8,1.76-.58,2.65-.77.57-.13.82.58.69,1.26Z"/>
      <path d="M236.46,248.57c.76-.63,1.55-1.19,2.6-.71.33.69.26,1.9,1.6,1.28.49-.22.75.18.68.53-.15.77.83,1.36.35,2.06-.32.47-.89.13-1.33-.05-.28-.11-.63-.46-.8-.37-3.09,1.52-2.13-1.76-3.11-2.73Z"/>
      <path d="M257.15,223.23c-2.7.35-4.45-.91-5.16-3.61-.09-.36-.05-.59.23-.78.43-.3.91-.43,1.33-.05,1.4,1.3,3.03,2.42,3.61,4.44Z"/>
      <path d="M307.26,178.91c0-.24.02-.49.02-.73.32.25.46.5-.02.73Z"/>
    </g>
  </g>
</svg>