<?xml version="1.0" encoding="UTF-8"?>
<svg fill="#6A7F6B" id="Capa_2" data-name="Capa 2" xmlns="http://www.w3.org/2000/svg" viewBox="0 0 359.72 275.2">
  <defs>
    <style>
      .cls-1 {
        fill: none;
      }
    </style>
  </defs>
  <g id="Layer_1" data-name="Layer 1">
    <g>
      <path class="cls-1" d="M129.33,80.47c-.57,2.57-3.92,3.98-3.14,7.1,2.8-.09,2.39-3.44,4.46-4.3,1.01,2.47,1.95,4.75,2.89,7.04.61-2.54.28-4.97.27-7.38,0-3.42-2.46-4.64-4.37-4.94-2.35-.37-4.03,1.84-4.7,4.55,2.05-.04,2.34-2.74,4.59-2.07Z"/>
      <path class="cls-1" d="M128,130.79c-.39.17-.08,1.04.41,1.38,1.5,1.03,2.72,2.15,4.26-.37,1.39-2.26,1.95-1.9,3.29.27.86,1.38,2.73,1.3,4.2,1.63.84.19,1.64-.5,1.89-1.31.43-1.41-.72-2.23-1.46-3.19-.89-1.15-2.95-.91-3.31-2.76q2.66.23,5.86,2.18c-1.09-6.12-1.33-5.43-6.55-5.49-5.89-.07-4.95,6.07-8.6,7.66Z"/>
      <path class="cls-1" d="M82.23,118.72c-1.63,1.54-3.1,3.02-1,4.68-.35,2.98.19,4.26,3.06,3.3,1.46-.49,2.98-.3,4.21.87.71.68,1.37.65,2.08-.15,1.63-1.84,1.11-7.27-.99-9.61-1.35-1.5-5.4-.95-7.36.91Z"/>
      <path class="cls-1" d="M102.13,104.01c-.99.88-2.64-.84-2.28-1.34,1.98-2.69-1.67-2.76-1.86-4.42-.1-.87-1.11-1.67-2.22-1.29-.84.29-1.13,1.17-1.16,2.03-.09,3.04-1.99,4.88-4.03,6.85-2.18,2.11-4.46,4.28-5.69,7.43,5.84-.22,6.77-7.78,13.28-8.18-6.29,4.57-8.48,8.4-6.63,10.78.04-.26.12-.52.12-.79,0-2.77,2-5.07,3.99-4.92,2.18.17,1.29,3.08,1.07,4.93-.19,1.58-.01,3.14,1.43,4,1.12.67,2.69.35,3.48-.43,1.26-1.23,2.08-2.91,3.08-4.4-3.6-2.42.64-5.91-1.43-8.37,1.15-.89,1.92,1.03,2.98-.26-.91-1.66-1.16-4.25-4.14-1.62Z"/>
      <path class="cls-1" d="M80.26,117.77c2.41-4.61,4.05-9.91,8.65-12.75,5.07-3.13,2.99-10.46,8.34-13.29-1.37-.99-2.71-1.89-4.53-1.38-6.41,1.8-9.97,6.88-13.59,11.85-.41.57-.55,2.09-.23,2.32,4.58,3.21,1.94,5.17-1.1,7.12-.09.06-.08.25-.22.73,1.33-.25,2.41-2.24,3.58-.91,1.33,1.52-.65,2.31-1.19,3.43-.35.72-.81,1.45.29,2.87Z"/>
      <path class="cls-1" d="M73.71,150.5c-.28,0-.92-.9-.82-1.18,1.46-4.18-1.76-3.38-3.97-4.45-1.72-.83-8.05,1.52-3.87-5.48-2.93,3.12-2.33,8.65.22,10.17,1.1.66,1.38-.04,1.76-.85.58-1.25,1.58-1.86,2.99-1.56,1.64.35,2.07,1.61,2.22,3.05.28,2.56,1.5,4.57,3.78,6-1.04-1.8,4.21-5.91-2.32-5.7Z"/>
      <path class="cls-1" d="M296.05,88.2c1.18-3.85.61-7.62-1.52-11.05-1.03-1.66-1.65-5.2-3.32-4.48-2.28.98-.89,4.12-.3,6.27,1.36,4.98,4.61,9.4,4.43,14.9,1.43-1.85.13-3.74.71-5.64Z"/>
      <path class="cls-1" d="M211.59,135.88c-4.5,1.66-9,2.2-13.69.76-4.14-1.27-8.11-4.04-12.75-1.04-2.75,1.78-5.72,1.68-8.37-.62-.68-.59-1.53-.43-2.36-.25-3.63.78-5.17,3.95-6.8,6.59-1.63,2.64.52,6.14-.91,9.11-.01.02.48.42.62.36,2.62-1.09,1.85.3,1.53,1.83-.27,1.29,1.03,1.18,1.68.85,2.21-1.1,3.2.16,3.76,2.27,2.12-2.41,2.41-5.03,3.14-8.22,1.61,2.14.98,3.59.72,5.03-.18.99-.14,2.01.93,2.47.43.18,1.17.13,1.53-.13.99-.73.5-1.61.12-2.56-1.38-3.42,1.54-5.22,3.25-7.14,1.06-1.2,2.8-.36,3.15,1.7.14.81-1.3,1.74-.69,2.03,5.3-.6,9.15-3.61,13.91-3.39.95.04,1.89.27,2.83.46.8.16,1.82.62,2.32-.13,2.56-3.8,7.61-5.3,9.01-10.26-.89.07-2.01-.06-2.94.28Z"/>
      <path class="cls-1" d="M229.75,125.4c-6.43,5.36-10.98,12.46-16.04,19.61,7.27.89,8.44.04,9.37-6.28.14-.96.15-2.12,1.2-2.41,1.35-.37,1.41.89,1.67,1.78.44,1.56,2.06,2.3,2.59,1.03,1.09-2.59,2.82-5.62,1.81-8.24-.81-2.1-.55-3.93-.61-5.49Z"/>
      <path class="cls-1" d="M126.61,161.89c.46-1.16,1.01-2.61-.35-3.32-2.11-1.1-2.18-2.46-1.37-4.39.68-1.6-.55-2.39-1.65-3.35-1.79,2.67-1.58,5.29-.87,8.02.52,2.01,1.09,4.38-1.45,5.33-3.69,1.39-3.7,4.28-3.36,7.26.14,1.2.57,1.9-.95,2.49-4.34,1.7-6.61,4.98-6.96,9.67-.43,5.81-.75,11.58,2.21,17.22,1.01-3.19,1.84-6.46,3.05-9.57,3.82-9.81,7.79-19.57,11.69-29.35Z"/>
      <path class="cls-1" d="M178.59,90.94c1.79-1.96,2.61-.84,2.32,3.6,2.15-1.31,4.18-2.42,6.07-3.73,1.09-.75,1.5-2.05,1.04-3.32-.44-1.21-1.82-1.26-2.8-1.37-4.33-.51-8.82,3.6-9.2,8.34,1.73-.59,1.62-2.46,2.58-3.51Z"/>
      <path class="cls-1" d="M143.99,157.31c-3.79-4.69-7.58-9.38-11.38-14.06-.94-1.15-2.22-1.89-3.62-1.2-1.82.89-.93,2.67-.26,3.55,2.06,2.71,2.14,5.62,2.3,8.86.34,6.78.3,13.38-2.4,19.75-1.76,4.16-3.39,8.42-5.27,12.49-3.22,7-4.6,14.65-8.15,21.49-1.44,2.76-.94,5.75-.76,9.63,1.97-2.82,2.41-5.2,3.07-7.52.82-2.88.82-6.16,2.99-8.45,8.56-9.03,13.14-20.95,21.82-29.88,1.21-1.25,1.67-2.51.01-4.21-2.72-2.8-1.74-8.09,1.64-10.45Z"/>
      <path class="cls-1" d="M201.98,127.04c2.47-.92,3.44,1.03,3.67,3.15.23,2.04-.65,3.75-2.83,3.69-2.36-.07-2.26-1.91-1.73-3.66.19-.62.56-1.83-.57-.74-2.36,2.25-4.54.77-6.83-.05.06,1.32-.26,2.59.22,3.39,1.77,2.92,10.5,3.92,12.7,1.26,1.83-2.22,3.43-2.52,5.99-1.59,2.57.93,4.8.45,6.6-2.27,1.42-2.16,4.05-3.6.75-6.23-.76-.61-.12-1.51.42-2.17.54-.67.35-1.2-.24-1.76-1.25-1.2-10.06-1.33-10.69.16-1.33,3.2-2.69,4-5.15,1.09-.6-.71-1.52-.24-2.32-.24-3.44-.02-5.68,2.31-8.58,3.89,2.56,2.99,5.22,3.35,8.59,2.1Z"/>
      <path d="M359.71,112.83c-.05-2.4-.6-4.22-1.74-6.16-.49.33-.85.44-.91.63-1.26,4-4.98,3.71-6.92,2.27-2.74-2.04,1.7-2.71,2.01-4.45.04-.21-.17-.46-.36-.94-2.73,2.05-5.9,1.84-9.05,1.78-1.47-.03-3.04-.42-4.21,1-.61.74-1.41,1.62-2.39.68-.54-.52-.86-1.43-.98-2.21-.2-1.22.7-1.7,1.74-1.84,2.24-.3,4.01-1.32,5.83-3.51-2.67-.06-4.47,2.83-6.26,1.27-2.24-1.95-2.78-.48-4.04.94-2.79,3.14-8.71,3.57-12.19,1.19-1.14-.78-1.93-2.11-1.69-3.11.61-2.62-.54-5.94,2.81-7.64.87-.44,2.02-1.55,1.02-2.66-1.02-1.15-2.24-.08-2.73.75-2.02,3.4-4.68,3.09-8.08,1.71,2.76-3.02,7.06-4.3,7.73-7.64-1.08.75-2.73,1.91-4.39,3.05-.76.52-1.61,1.71-1.79-.52-.14-1.69-1.18-.54-1.55-.1-.97,1.15-1.76,2.44-2.64,3.66-.87,1.2-1.46,2.67-3.52,1.31-1.43-.94-3.21-.77-4.46.75-1.42,1.73-1.22,3.47-.11,5.32.45.75,1.58,1.11,1.25,2.4-.8,3.1-4.36,5.86-7.89,6.1-.87.06-1.76.21-2.17-.61-.43-.84.17-1.87.83-2.1,2.57-.93,2.91-3.54,4.37-5.28,3.45-4.13,1.18-9.64,3.63-13.96.1-.18-.02-.7-.16-.77-2.51-1.14-2.15-3.87-3.25-5.78-3.26-5.65-6.3-11.22-.78-17.45.75-.84,3.1-2.99.72-4.99-.66-.55-1.34-1.04-2.22-.52-2.13,1.28-.97,3.51-1.5,5.25-1.05,3.45-1.29,7.49-6,8.35-1.13.21-2.03.97-2.44,2.04-.5,1.31.71,1.64,1.52,2.01,1.18.53,1.58,1.5,1.69,2.63.41,4.16,1.98,7.96,3.42,11.83.98,2.63,1.4,5.44-2.3,6.76-2.14.76-1.89,2.15-.37,3.35,3.5,2.79.59,4.86-.83,6.92-1.76,2.56-4.52.41-6.46.34-2.32-.08-2.91-1.16-2.89,1.6.03,4.24-2.18,7.93-2.57,12.05-.13,1.4-1.05,2.5-2.48,3.06-3.24,1.26-6.02,3.3-8.88,5.21-2.02,1.34-3.81,2.15-5.65-.39-1.03-1.42-2.07-2.18-3.84-.08-1.53,1.81-4.25,1.05-6.48.35-1.07-.33-1.59-.98-1.38-2.15.37-2.05.62-3.83,3.29-4.56,2.7-.73,2.73-3.48,1.05-4.91-2.19-1.86-1.51-3.51-.87-5.45,2.17-6.59,5.43-12.8,5.78-20.02.09-1.87,1.82-5.52,5.85-3.05,2.51,1.54,3.84-.76,4.5-2.71.54-1.58.38-3.4.51-4.97-1.55-.94-2.38,1.01-3.91.33.58-1.73.35-3.04-.98-4.77-.98-1.28,3.18-1.55,3.37-3.75-.54-.59-1.03-.31-1.55-.1q-7.45,3.01-8.37-4.73c-.09-.78-.26-1.56-.4-2.43,3.33,1.4,4.02,1.39,4.09,0,.08-1.67-4.59-5.7-6.45-5.68-1.44.02-1.65-1.65-1.24-2.01,3.52-3.05-.96-3.32-1.54-4.92.11,4.24-3.61,8.88,1.92,12.52,1.75,1.15.9,4.16,1.15,6.31.2,1.72-1.45,1.15-2.38,1.49-1.31.47-1.02,1.49-.55,2.38.62,1.18,1.36,2.31,2.08,3.5-.91,1.3-2.49,1.42-3.9,1.9-2.76.95-1.91,3.66-2.59,5.62-.32.91.11,1.65,1.08,1.87,2.36.55,1.6-2.19,2.87-2.77.33-.15.77-.06,1.89-.11-3.23,2.33-2.09,5.68-3.24,8.39-.95,2.26-1.93,5.25-2.02,7.15-.25,5.13-2.13,4.34-5.25,2.99-.42-.18-1.02.06-2.02.14,1.2,2.09,3.05,2.31,4.62,2.89,1.69.63,3.07,1.38,2.53,3.54-.97,3.87-1.97,7.72-2.94,11.59-.58,2.32-1.7,2.97-3.87,1.57-1.73-1.12-3.57-1.87-3.36,1.89-.31-1.76-.45-3.12-.59-4.48-.18-1.77.77-4.84-1.6-4.72-2.23.11-2.58,3.09-2.22,5.41.04.23-.11.5-.3,1.23-1.54-2.92-3.23-3.3-5.84-1.41-2.4,1.73-8.47-2.22-7.99-5.14.38-2.31-1.42-2.96-2.02-4.47-2.05,1.13-1.21,3.18-2.06,5.16-.15-2.72-.42-4.71-3.36-3.74-.94.31-1.56.09-2.12-.69-.93-1.28-2.21-2.14-3.22-.39-.77,1.34.37,2.51,1.41,3.51.64.62,2.11-.6,2.21,1.27-2.58.89-5.26,1.33-7.97,1.35-2.83.02-4.93.64-5.72,3.85-.49,1.98-2.67,2.1-4.33,2.61-.67.21-1.87-.19-1.62-.71,1.82-3.66-1.92-4.24-4.06-6.51,1.38.26,1.91.29,2.38.47.9.35,1.86.99,2.6-.05.63-.89-.31-1.42-.78-2.06-1.63-2.24-.24-3.17,1.73-3.78.97-.3,2-.65,1.47-1.92-.44-1.07-1.34-1.68-2.63-1.57-.96.08-1.33,1.54-2.87.83,1.56-1.75-2.64-5.43,2.48-6.18.55-.08.56-1.65-.07-2.59-1.5-2.24-.57-5.2,1.8-5.15,3.07.06,2.83-1.99,2.94-3.78.17-2.88-1.75-2.15-3.36-1.7-1.03.28-1.72.06-1.54-1.08.26-1.64,1.07-3.12,2.35-4.14.46-.37,1.5.25,1.43,1.03-.38,3.94,2.72,1.63,3.96,2.69,1.26-3.09-5.1-4.27-1.36-7.58-3.83-4.31,1.08-4.97,2.96-6.48,3.79-3.03,5.99-8.39,11.89-8.45.1,0,.21-.17.29-.28,2-2.73,4.79-4.11,8.01-4.95,2.46-.64,4.81-1.71,6.96-5.47-5.65,3.64-7.52,1.9-7.43-3,0-.42-.57-.94-.99-1.25-2.09-1.53-4.38-2.78-5.98-4.93-.64-.86-1.69-.87-2.54-.06-.95.89-1.08,1.99-.25,2.93.5.58,1.33.99,2.09,1.22,3.87,1.14,3.97,4.18,3.6,7.3-.23,1.97-4.78,3.6-5,2.28-.58-3.38-3.65-1.61-5.06-2.87,1.07-2.17,3.08-1.52,4.72-1.77-2.44-6.75-4.34-.79-6.43.41-.95-4.45,3.04-6.38,4.49-9.27,1.37-2.72,4.97-4.79,7.02-8.13-2.32.22-2.92,1.9-3.91,3.12-.68.84-1.47,2.24-2.56,1.5-1.42-.97.14-1.88.74-2.61,1.26-1.55,1.73-3.11.89-5.62-1.55,2.01-.93,5.26-2.65,5.1-6.98-.65-5.48,3.13-4.18,7.06.08.24.04.57-.06.82-1.91,5.18-1.18,12.15-9.17,13.17-2.02.26-2.16,3.41-4.7,3.76.27-1.34.88-2.5.62-3.42-1.1-3.89,1.9-3.86,4.12-4.45.7-.19,1.59.27,2.37.48.72.2,1.39.21,1.81-.48.41-.68.14-1.35-.32-1.89-1.26-1.47-2.91-2.71-4.54-1.03-1.86,1.93-4.21,2.19-6.82,3.44,2.16-3.37,5.36-5.25,6.51-8.63-1.93-1.08-1.7,3.62-3.98.68-1.97-2.54,1.39-2.26,1.55-3.6.02-.16.44-.3.69-.41,1.85-.81,2.75-2.33,1.44-3.9-1.18-1.41-3.06-.83-4.55.1-1.01.63-1.28,1.62-1.37,2.82-.18,2.6-1.02,4.15-3.75,1.83-.97-.82-3.16-.3-3.15-2.1.01-1.61,1.21-2.65,3.03-2.77.4-.03.89-.68,1.09-1.15,1.6-3.74,4.86-5.87,7.83-8.3,1.61-1.32,3.14-2.73,4.71-4.1-2.58-.04-4.24,1.3-5.81,2.77-.93.87-1.63,1.65-3.1.57-2.23-1.64-3.42-.37-4.17,1.89-.35,1.07-.31,2.53-1.93,2.99-3.26-4.89.71-6.57,4.1-8.83-3.53,1.17-4.62-1.25-5.97-3.52.52,4-1.26,7.19-2.68,10.42-.67,1.51-1.36,3.58-3.83,1.41-1.25-1.1-2.24-.06-2.3,1.55-.05,1.37.02,2.76-.19,4.11-.21,1.33-1.24,2.76-2.48,1.69-1.93-1.66-5.79-1.85-4.87-6.04-1.95,3.99-3.9,7.67-2.75,12.82-5.93-5.38-5.96-8.22-1.03-12.36.64-.54,1.44-.99,1.06-1.97-.34-.9-1.2-1.1-2.06-.99-1.36.18-2.59-.07-1.43-1.6,1.3-1.72,3.11-3.04,4.69-4.54.69-.66,2.65.39,2.3-1.49-.2-1.07-1.28-1.74-2.35-2.14-.85-.32-1.9-.25-2.4-1.23.73-1.39,2.5-2.29,1.66-5.12-1.29,3.1-3.29,4.05-5.94,4.78-5.33,1.48-8.08,10.19-3.95,12.67,4.86,2.93,2.66,5.81,1.69,9.12-.6,2.05-2.21,3.74-1.7,5.87-7.36-.97-10.15-9.05-17.53-10.83.33,2.09,1.01,3.48,2.17,3.53,3.08.13,4.38,2.58,6.28,4.24,1.03.9,1.9,1.97,3.22,2.52,1.93.82,3.44,1.3,2,4.32-.92,1.93.62,4.83-1.55,7.03-.62.62.81,1.65,1.73,1.8,1.05.17,2.16-.09,3.24-.09,1.87,0,2.55,1.13,1.96,2.71-.56,1.5-1.26,4.33-3.01,3.39-3.78-2.02-4.37-.2-4.63,2.77-.16,1.82-1.67,2.41-2.82,3.29-.52.4-1.04-.13-1.24-.66-2.4-6.6-8.43-11.31-9.6-18.56-.12-.72-.24-1.72-1.98-1.45.41,9.23,4.79,17.26,7.57,25.98-5.56-6.8-14.69-6.26-21.86-10.23,1.47-1.64,2.73-1.15,3.93-1.27,2.2-.21,5.09.22,3.49-3.9-.72-1.86,1.29-2.88,2.71-1.81,2.31,1.75,2.4-.16,3.05-1.35.73-1.31.17-2.59.07-3.95-.33-4.66-1.45-9.21.47-14.03,2-5.03,5.27-8.72,9.47-11.99-2.32-1.13-3.68-1.4-4.86,1.35-1.49,3.46-4.83,5.79-6.3,9.55-.55,1.4-4.08,1.48-3.84,4.66-.78-1.43-1.63-2.39-1.13-4.01,1.01-3.23,1.91-6.52,2.47-9.85.48-2.9,1.07-4.41,4.71-3.75,2.48.45,5.85-.2,7.24-2.79,1.16-2.18-.91-3.68-2.76-4.8-.22-.13-.04-.85-.26-1.11-2.06-2.35-2.17-5.97-5.32-7.89,4.01,4.61,1.26,7.79-1.85,11.09-.99-3.73-5.02-3.31-6.86-6.11-.7,2.52.96,3,2.06,3.95,2.78,2.42,4.19,4.87,2.18,8.91-1.37,2.77-5.01,3.27-5.42,6.55,0,.06-.86.2-1.06.02-.61-.54-.26-1.24-.12-1.9,1.12-5.25.98-10.35-1.67-15.21-.36-.66-.55-1.71-.29-2.36,2.29-5.67-1.37-10.94-.71-16.48-.85,3.27-1.49,6.48-.23,9.75.95,2.46-.28,4.74-1.55,6.59-1.31,1.91-2.35-.88-3.81-.91-1.3-.02-2,.08-2.58,1.3-.49,1.05-.92,2.01-.27,3.1.64,1.09,1.56.82,2.53.53,3.99-1.16,5.93-.06,7.06,3.96,1.83,6.5-.46,12.11-6.05,16.4-2,1.53-3.37,1.74-4.83-.07-1.97-2.45,1.11-1.99,1.85-2.87,1.13-1.36,2.93-2.74,1.93-4.58-.96-1.75-2.98-.66-4.49-.35-1.36.28-2.64.96-4.42,1.64,1.21-3.15-.95-6.9,3.23-8.56.67-.27.4-1.49-.28-1.68-3.44-.98-3.48-4.98-5.53-6.5-3.92-2.93-5.07-6.4-4.8-10.93-2.11,4.16-.99,7.48,2.2,10.31,1.53,1.36,3.72,3.17,1.77,4.97-2.33,2.15-2.38-1.98-4.04-2.5.51,4.91.52,4.93-3.82,7.47-1.6.94-.97,1.6.15,2.33,1.08.7,2.07.67,2.95-.3.63-.7,1.33-1.15,1.99-.18.53.78.27,1.67-.48,2.18-.71.48-1.59.73-2.53,1.14,1.92,1.12,2.69,3.64,5.74,2.44,1.18-.46,3.55,2.02,2.83,3.85-.9,2.29.14,3.31,1.63,3.91,4.17,1.69,5.45,5.17,6.15,9.08.46,2.58,1.15,5.04,2.22,7.47,2.01,4.58,1.3,6.56-2.82,9.79-1.89,1.48-.71,3.33-.34,4.9.32,1.36,1.42,2.59,3.03,1.08.79-.74,1.34-.28,1.64.28.29.55.3,1.31.26,1.97-.03.39-.47.7-.87.27-1.68-1.86-3.01,0-3.84.75-6.73,6.01-15.15,9.63-21.86,15.62-2.65,2.37-8.24,2.14-6.85,8.28-.57-.85-.45-1.7-.79-1.95-2.65-1.94-.3-4.09-.44-6.11-.27-4.02,2.18-3.66,4.77-3.61.81.01,1.61-.6,1.76-1.49.18-1.07-.81-1.51-1.51-1.6-1.69-.21-2.93-.39-2.27-2.69.35-1.21-.64-.83-1.22-.42-1.02.72-1.68.41-1.43-.75.75-3.5-2.01-6.13-2.18-9.41-.12-2.29-1.61-3.07-3.77-2.16-2.45,1.04-3.77.21-4.46-2.31-1.1-4-3.16-7.8-1.54-12.2.51-1.39-.23-2.8-1.98-2.97-1.33-.13-1.73.88-1.41,1.91,1.06,3.42.48,7.36,1.69,10.38,2.07,5.18,5.25,10.01,8,14.94,1.9,3.41.03,6.53,1.17,9.62.29.79-1.05.91-1.87,1.1-3.06.69-5.45,2.05-5.67,5.7-.1,1.71-1.14,2.99-2.58,4.03-1.5,1.08-2.18,2.4-.54,4.08,1.9,1.95,1.84,2,.68,5.45-2.21-3.76-4.16-7.57-7.91-9.95.59,1.69,1.49,3.17,2.63,4.43,1.14,1.26,1.3,2.07-.13,3.33-1.44,1.26-2.47,1.48-3.81.02-1.21-1.31-2.49-2.56-3.82-3.75-5.24-4.69-6.14-8.3-3.6-14.78.31-.78.75-1.63.04-2.3-.73-.68-1.57-.09-2.28.25-3.04,1.48-3.83,3.54-.71,6.65-4.55-1.56-6.41-5.71-10.28-6.54-6.28-1.35-11.4-4.52-15.76-9.14-1.05-1.11-1.86-2.76-3.78-2.78-.94,1.78,2.03,2.27,1.07,4.22-4.27-.37-8.62-.63-12.81-2.22,2.67,2.76,4.81,3.54,7.42,4.08,11.33,2.36,22.57,4.99,29.62,15.54.3.45.73.82,1.13,1.2,6.17,5.82,12.34,11.64,18.88,17.81-3.59,1.97-5.71,3.61-4.64,7.27-3.62-1.24-5.49-3.49-6.33-6.27-.94-3.1-2.93-4.81-5.64-6.06-.84-.39-1.72-1.3-2.52-.17-.74,1.04.18,1.84.86,2.45,5.71,5.09,10.57,11.09,16.91,15.5,4.43,3.08,4.36,3.64-.14,6.55,2.79,1.88,3,3.13,1.54,3.05-3.77-.22-3.39,4.85-6.87,4.88-.62,0-.45,1.76-.05,2.63.54,1.2,1.26,2.32,1.91,3.49-2.11,1.39-3.81,1.29-5.55-.59-1.19-1.29-1.89-1.15-1.92-.42-.12,2.54-1.87,1.27-2.86,1.31-1.35.06-2.71-.38-4.07-.44-1.15-.05-2.21.33-2.61,1.58-.33,1.04.09,1.92.89,2.56,1.09.87,2.07.21,3-.4q4.25-2.75,5.48,2.14c-1.63-.2-2.77-2.93-4.62-1.14-1.51,1.47-.48,2.98.4,4.46.72,1.19-.46,2.03-.92,2.96-.51,1.04-1.11,2.26.18,2.86,1.44.67,2.26-.48,2.61-1.79.19-.72-.24-2.13.86-1.89,3.28.72,4.78-1.66,6.62-3.42,2.99-2.86,6.32-1.97,10.63-1.62-2.74,2.49-5.22,1.79-7.4,2.15-3.18.53-2.87,3.43-4.02,5.37,1.55.5,3.75-.05,4.12,2.39-.72,1.04-1.53.41-2.29.31-1.3-.18-3-.13-3.01,1.27,0,1.55-1.91,3.02-.33,4.56,1.25,1.22,2.84.62,3.83-.1,2.18-1.6,3.79-1.39,5.58.54.7.76,1.91,1.15,3.02.37.52-.37.69-.94.38-1.44-3.05-4.86.24-4.48,3.44-4.2.97.08,1.84-.15,2.78-.51,3.62-1.39,10.72.6,13.15,3.49.56.67,1.18,1.25.56,2.12-.81,1.13-1.83.41-2.56-.02-.65-.38-1.04-1.22-1.55-1.85-1.24-1.52-1.98-.89-2.66.56-1.64,3.5.5,8.59,4.06,9.57-3.37,1.54-5.97-.26-5.83-4.21.06-1.78-.61-2.88-2.1-3.64-.63-.32-1.29-.61-1.87.03-.96,1.06.64,1.95.19,3.26-3.98-2.82-7.99-1.2-12.52-.38q2.7,1.15,4.22.97c6.52-.76,12.53,2.91,15.15,9.26.54,1.31,1.57.87,2.42.5,1.54-.65,3.07-1.3,4.77-.88,1.09.27,2.14.66,2.05,2.13-.16,2.69-4.52,5.07-6.81,3.66-.58-.36-1.11-1.03-1.7-.29-.26.33-.31,1.19-.06,1.51,2.35,3.06,2.2,5.7-.45,8.68-1.07,1.21-.92,3.51-1.4,5.62,2.04-1.07,1.4-3.12,2.45-4.26.76.62-.14,2.11,1.83,2.27-.17-3.2.87-6.15,1.62-9.16.86-3.5,3.49-4.69,6.35-2.98,1.83,1.09,2.97,1.25,3.21-1.47.28-3.1,2.4-5.43,5.27-5.42,2.85.02,5.66,1.43,6.63,4.9.7,2.5,1.87,4.87,2.77,7.32,2.12,5.75,4.6,11.22,3.45,17.86-1.12,6.49.05,13.07,3.05,19.17.71,1.45,1.45,3.19,1.3,4.71-.88,8.9,1.39,17.8-.36,26.72-.74,3.76,2.49,7.39,5.89,7.73,3.62.36,6.75-2.25,7.22-6.39.59-5.19,1.73-10.48.82-15.61-1.58-8.95-.82-17.38,3.03-25.64,1.21-2.6.7-5.19-2.45-6.45-1.02-.41-1.61-1.08-1.24-2.24,1.3-4.05,1.68-8.81,4.12-11.99,7.13-9.29,12.57-19.75,20.32-28.57,1-1.14,1.89-2.31,3.55-2.62,5.04-.95,10.09-1.85,14.85-4.26.01,2.15-.75,4.03.47,5.8,2.01-1.34,2.2-3.09,2.1-4.91-.06-1.19-.03-1.71,1.56-2.11,7.16-1.83,14.12.8,21.18.62.97-.02,2.06.75,2.94,1.36,2.1,1.46,4.78,2.27,7.1,1.53,1.91-.61,4.28.13,6.59-2.35-3.69.11-6.05-1.62-9.05-1.86-6.13-.47-12.22-1.53-18.31-2.46-.88-.13-2.5.21-2.28-1.58.18-1.42,1.04-2.15,2.55-2.08,5.62.24,11.21-1.09,16.85-.24,1.5.23,2.98.07,3.66,1.96.92,2.55,2.58,2.15,4.61,1.11,5.2-2.67,8.13-1.53,10.33,3.78.66,1.61,1.98,2.3,3.58,2.3,3.11,0,4.73,1.76,5.74,4.44.74,1.94,1.72,3.77,3.28,5.19.86.79,1.77,2.2,3.08.96,1.08-1.02-.01-1.98-.67-2.84-.68-.88-1.74-1.58-1.69-2.93,4.45.78,5.22,5.33,8.74,7.26,3.6,1.97,2.48,6.84,1.89,11.04,2.3-1.24,1.86-3.33,3.2-4.67,4.26,6.56,2.11,14.37,4.3,22.27,2.75-4.45.62-8.11.8-11.62.18-3.63-1.23-7.1-2.13-11.55,1.58,2.17,2.93,2.38,4.55,2.17,1.38-.18,3.14-.09,3.01,1.83-.25,4,3,3.08,4.98,4.36.4-2.08-1.1-2.8-1.66-3.98-.28-.59-.38-1.27-.56-1.91,3.88-.52,1.34-3.24,1.73-4.97.14-.63.47-1.7.8-1.74,4.6-.45,8.34-5.78,13.71-2.27,1.31.86,3.45.62,3.85-1.61.39-2.18-1.69-2.11-3-2.66-.99-.42-1.85.33-2.73.41-4.19.4-8.42,1.27-13.29-.04,3.33-1.42,5.92-2.66,8.61-3.65,2.96-1.09,5.37,2.19,8.44,1.44-.73-2.9-3.73-2.16-5.24-3.58,1.01-2.81,8.62-2.88,2.96-8.38,2.37,1.08,5.84.34,4.86,4.58-.32,1.4-.37,3.52,1.45,3.77,1.71.23,3.23-1.51,3.35-3.1.35-4.79,2.51-2.97,4.71-1.56,2.02,1.3,4.07,2.31,6.43.62-4.87-1.34-8.4-5.21-13.24-6.41-1.04-.26-1.71-1-1.41-2.16.97-3.73-.67-3.49-3.08-2.05-1.38.83-2.63,1.98-2.99-.94-.16-1.32-1.8-1.09-2.81-1.18-3.58-.3-4.9-1.78-4.49-5.65.36-3.37,1.58-5.34,4.74-6.23,1.18-.33,2.32-.62,3.09-1.82,1.5-2.32,9-5.47,11.47-4.42,2.79,1.18,5.57,2.27,8.48,3.06.69.19,1.24.62,1.23,1.44-.02.82-.56,1.23-1.28,1.37-5.34,1.07-1.98,3.06-.39,4.58,1.21,1.15,2.92,1.57,4.61,1.49,2.76-.13,4.76.75,5.85,3.51.4,1,.98,2.69,2.52,2.15,1.44-.51,1.79-2.15,1.49-3.52-.5-2.37.27-4.75-.01-7.18.91,2.49,1.81,4.98,2.76,7.57,1.27-1.26,1.39-2.17.76-3.77-1.48-3.77-4.72-6.43-5.99-10.27-.29-.86-1.01-1.2-1.98-1.02-2.8.52-4-1.03-4.51-3.52-.2-.98-.73-2.06-1.8-1.98-3.43.27-3.67-2.34-5.06-5.12,2.71.76,4.64,1.58,6.63,1.77,2.65.25,4.86,2.63,7.83,1.37,3.86-1.65,7.82-2.3,11.82-.26.7.36,1.64.73,2.19-.22.46-.8-.76-1.2-.77-1.61-.09-3.98-2.88-3.68-5.55-3.72-1.59-.02-3.31.19-4.47-1.4,3.56-1.83,10.05-1.29,12.58,1.29,1.69,1.73,3.47,1.79,5.72,1.82,2.4.03,3.25-2.82,5.65-2.28,2.06.46,2.63-.65,2.57-2.56-.04-1.26.07-2.62,1.17-3.82,1.56,4.3,1.58,4.34,6.23,2.47,1.19-.48,1.93,1.13,3.24.29-.82-.89-1.68-1.71-2.38-2.64-.61-.8-.26-2.09.6-1.64,3.31,1.74,6.25,2.16,9.06-.83.19-.2,1.04.17,1.55.35,3.03,1.09,3.71.09,3.65-3.07ZM290.91,78.93c-.59-2.15-1.98-5.29.3-6.27,1.67-.72,2.29,2.82,3.32,4.48,2.13,3.44,2.7,7.21,1.52,11.05-.58,1.9.72,3.79-.71,5.64.17-5.51-3.07-9.93-4.43-14.9ZM76.03,156.21c-2.28-1.44-3.5-3.44-3.78-6-.16-1.44-.58-2.7-2.22-3.05-1.41-.3-2.41.31-2.99,1.56-.38.81-.66,1.51-1.76.85-2.55-1.53-3.15-7.05-.22-10.17-4.17,6.99,2.15,4.65,3.87,5.48,2.2,1.06,5.43.27,3.97,4.45-.1.28.54,1.19.82,1.18,6.53-.21,1.28,3.91,2.32,5.7ZM81.16,111.47c-1.17-1.33-2.25.65-3.58.91.14-.48.14-.67.22-.73,3.05-1.95,5.68-3.91,1.1-7.12-.33-.23-.19-1.75.23-2.32,3.62-4.97,7.19-10.05,13.59-11.85,1.82-.51,3.16.39,4.53,1.38-5.36,2.82-3.27,10.15-8.34,13.29-4.6,2.84-6.24,8.14-8.65,12.75-1.1-1.42-.64-2.15-.29-2.87.54-1.12,2.52-1.91,1.19-3.43ZM90.59,127.41c-.71.8-1.36.83-2.08.15-1.24-1.17-2.75-1.36-4.21-.87-2.87.96-3.42-.32-3.06-3.3-2.1-1.65-.63-3.14,1-4.68,1.97-1.86,6.01-2.42,7.36-.91,2.1,2.34,2.62,7.77.99,9.61ZM103.29,105.89c2.07,2.45-2.17,5.94,1.43,8.37-1,1.49-1.82,3.17-3.08,4.4-.8.78-2.36,1.1-3.48.43-1.44-.86-1.62-2.42-1.43-4,.22-1.85,1.11-4.76-1.07-4.93-1.99-.16-3.99,2.15-3.99,4.92,0,.26-.08.52-.12.79-1.85-2.38.34-6.21,6.63-10.78-6.51.4-7.44,7.96-13.28,8.18,1.23-3.15,3.51-5.32,5.69-7.43,2.03-1.96,3.94-3.81,4.03-6.85.02-.85.32-1.74,1.16-2.03,1.11-.38,2.12.42,2.22,1.29.19,1.66,3.84,1.72,1.86,4.42-.37.5,1.29,2.22,2.28,1.34,2.97-2.63,3.23-.04,4.14,1.62-1.06,1.29-1.83-.63-2.98.26ZM136.59,123.13c5.22.06,5.46-.63,6.55,5.49q-3.21-1.95-5.86-2.18c.36,1.85,2.42,1.61,3.31,2.76.74.96,1.89,1.78,1.46,3.19-.25.81-1.05,1.5-1.89,1.31-1.47-.33-3.34-.25-4.2-1.63-1.35-2.17-1.9-2.54-3.29-.27-1.55,2.52-2.77,1.4-4.26.37-.49-.34-.81-1.21-.41-1.38,3.65-1.59,2.7-7.73,8.6-7.66ZM129.44,77.99c1.91.3,4.36,1.52,4.37,4.94,0,2.41.34,4.84-.27,7.38-.94-2.29-1.88-4.58-2.89-7.04-2.07.86-1.66,4.21-4.46,4.3-.78-3.12,2.57-4.53,3.14-7.1-2.25-.66-2.53,2.03-4.59,2.07.66-2.71,2.35-4.92,4.7-4.55ZM111.87,200.81c-2.96-5.65-2.64-11.42-2.21-17.22.35-4.69,2.61-7.97,6.96-9.67,1.52-.59,1.09-1.29.95-2.49-.34-2.98-.33-5.87,3.36-7.26,2.54-.96,1.96-3.33,1.45-5.33-.7-2.73-.92-5.35.87-8.02,1.1.96,2.32,1.75,1.65,3.35-.81,1.93-.74,3.29,1.37,4.39,1.36.71.81,2.16.35,3.32-3.9,9.78-7.87,19.54-11.69,29.35-1.21,3.11-2.04,6.38-3.05,9.57ZM142.35,167.76c1.66,1.71,1.2,2.97-.01,4.21-8.69,8.93-13.26,20.85-21.82,29.88-2.17,2.29-2.17,5.57-2.99,8.45-.66,2.32-1.1,4.7-3.07,7.52-.18-3.88-.68-6.87.76-9.63,3.56-6.84,4.93-14.49,8.15-21.49,1.88-4.07,3.5-8.33,5.27-12.49,2.7-6.37,2.74-12.97,2.4-19.75-.16-3.24-.24-6.16-2.3-8.86-.67-.88-1.56-2.66.26-3.55,1.4-.68,2.68.05,3.62,1.2,3.8,4.67,7.59,9.37,11.38,14.06-3.38,2.36-4.36,7.65-1.64,10.45ZM201.97,121.06c.8,0,1.72-.47,2.32.24,2.46,2.91,3.82,2.11,5.15-1.09.62-1.5,9.44-1.37,10.69-.16.59.57.78,1.09.24,1.76-.53.66-1.18,1.57-.42,2.17,3.3,2.63.67,4.07-.75,6.23-1.79,2.72-4.02,3.2-6.6,2.27-2.56-.93-4.16-.63-5.99,1.59-2.19,2.66-10.92,1.66-12.7-1.26-.48-.79-.16-2.07-.22-3.39,2.29.82,4.47,2.3,6.83.05,1.14-1.09.76.13.57.74-.53,1.75-.63,3.59,1.73,3.66,2.18.06,3.06-1.64,2.83-3.69-.23-2.12-1.2-4.07-3.67-3.15-3.37,1.25-6.03.89-8.59-2.1,2.9-1.57,5.14-3.91,8.58-3.89ZM185.22,86.11c.99.12,2.37.16,2.8,1.37.46,1.27.05,2.56-1.04,3.32-1.89,1.31-3.92,2.43-6.07,3.73.3-4.43-.53-5.55-2.32-3.6-.96,1.05-.85,2.92-2.58,3.51.38-4.74,4.87-8.85,9.2-8.34ZM205.52,145.86c-.51.75-1.52.29-2.32.13-.94-.19-1.88-.42-2.83-.46-4.77-.22-8.61,2.79-13.91,3.39-.61-.3.83-1.22.69-2.03-.35-2.06-2.09-2.9-3.15-1.7-1.71,1.92-4.64,3.72-3.25,7.14.38.95.87,1.82-.12,2.56-.36.27-1.1.32-1.53.13-1.07-.46-1.11-1.47-.93-2.47.26-1.44.89-2.89-.72-5.03-.72,3.19-1.01,5.81-3.14,8.22-.56-2.12-1.55-3.37-3.76-2.27-.65.33-1.95.43-1.68-.85.32-1.54,1.09-2.92-1.53-1.83-.14.06-.63-.34-.62-.36,1.43-2.96-.72-6.47.91-9.11,1.63-2.64,3.17-5.81,6.8-6.59.84-.18,1.68-.34,2.36.25,2.65,2.3,5.63,2.4,8.37.62,4.63-3,8.6-.23,12.75,1.04,4.69,1.44,9.18.9,13.69-.76.93-.34,2.05-.21,2.94-.28-1.4,4.96-6.46,6.46-9.01,10.26ZM228.54,139.12c-.54,1.27-2.15.52-2.59-1.03-.25-.89-.31-2.15-1.67-1.78-1.06.29-1.06,1.46-1.2,2.41-.94,6.32-2.11,7.17-9.37,6.28,5.06-7.14,9.61-14.25,16.04-19.61.06,1.55-.2,3.38.61,5.49,1.01,2.62-.72,5.65-1.81,8.24Z"/>
    </g>
  </g>
</svg>