<?xml version="1.0" encoding="UTF-8"?>
<svg fill="#6A7F6B" id="Capa_2" data-name="Capa 2" xmlns="http://www.w3.org/2000/svg" viewBox="0 0 308 297.58">
  <g id="Layer_1" data-name="Layer 1">
    <g>
      <path d="M11.03,133.76c-1.44.39-2.89.33-4.13-.43-.85-.52-1.18-.1-1.68.38-1.41,1.38-3.7,1.67-4.83.36-.58-.68-.47-1.9.06-2.85.36-.65,1.06-1.23.49-2.12-.17-.26,0-.78.31-.85,2.35-.53,1.61-1.6.7-2.9-.58-.83-.1-1.16.88-1.51,1.09-.39,1.17,0,1.27.76.04.31.13.93.36.75,1.33-1.07,2.58-.38,3.88-.07.18.04.58-.33.71-.59.21-.44-.17-.68-.51-.92-.99-.7-.78-2.1.11-2.91.65-.59.47-1.73,1.59-2.22,1.27-.57,3.5-.13,4.1,1.08.88,1.8,1.64,2.15,3.9,1.82-.94-.52-2.76-3.82-2.43-4.73.33-.93.68-1.94,2.1-2.02.63-.04,1.65-.5,1.18-1.41-.25-.49-.21-2.35-1.77-.98-.09.08-.5.02-.53-.05-.5-1.36-1.54-2.84-1.28-4.06.24-1.13.32-3.06,2.45-3.37.58-.08.99-1,1.42.16.29.8.57-.05.86-.08,1.05-.11,1.42-.88,1.61-1.74.1-.44-.56-1.11.31-1.3.75-.16,1.45.27,1.59.93.2.95,1.68,1.45.98,2.7-.12.22.23.67.38.52,1.08-1.03,2.66-.49,3.81-1.2,1.48-.91.54-2.37.21-3.17-.58-1.41-.22-2.09.78-3,.6-.55,1.6-.14,2-1.06.27-.63-.05-1.51.8-1.91,1.06,1.28,2.99,1.57,4.61.63.56-.33.87-.07.83.34-.1,1,.63,1.02,1.26,1.12.42.07.86-.12.98-.54.18-.62-.58-.85-.71-1.22-.55-1.51-1.53-1.56-3.01-1.71-.83-.08-2.93-1.28-1.81-3.25.32-.57.07-1.02-.45-1.04-1.48-.06-1.03-1.42-1.12-1.94-.13-.74.95-.51,1.62-.48.64.03.88-.81.63-.88-2.51-.73-1.75-2.93-2.2-4.52-.23-.8-.42-1.35-1.14-1.9-.64-.49-1.94-1.53.22-1.98.46-.1.95-.46.97-.92.09-2.05,1.61-2.96,3.25-3.48,1.41-.44,1.83-2.08,3.4-2.21.36-.03.21-.57.07-.99-.4-1.18-.74-2.44,1.4-2.15.49.07.88-.28,1.13-.71.52-.9,1-.72,1.43.07.43.8,1.02,1.05,1.78.43.93-.75.32-1.02-.45-1.21.77-.61-1.15-2.51,1.19-2.34.86.06.54-1.03,1.42-1.13,1.75-.21,3.47-1.23,5.1.43.18.18,1.34.31,1.67-.22.63-.99,1.35-.46,2.11-.38.53.05,1.21.66,1.62-.17.39-.79-.01-1.64-.64-1.87-1.37-.5-1.33-1.41-1.18-2.47.15-1.03.35-1.94-1.38-1.61-.45.09-1.09-.8-1.65-1.24.92-.54.43-1.93,1.37-2.35.83-.37.98-.83.67-1.54-.34-.8-1-.49-1.55-.31-.96.3-1.89-.05-1.84-.9.08-1.42-.99-1.76-1.72-2.55-.72-.78-1.96-1.49-1.16-3.06.21-.42-.63-1.54-1.22-2.11-1.48-1.41-1.44-2.26.19-3.62.89-.74,1.51-1.79,2.74-2.12.67.98-.89.91-.65,1.62.21.28.47.12.72.07.92-.16,3.68,1.01,1.25-1.62-.04-.04-.09-1.08,1.24-.58,1.76.66,2.01,1.42,1.48,2.72-.64,1.57,0,2.11,1.46,2.44.77.17,1.48.59,2.21.9.06.03.16.11.17.1,1.05-1.11,2.42-.39,3.57-.66.61-.14,1.05-1.35-.08-2.06-.84-.53-1.14-1.44-.68-2.22.49-.82,1.79-.73,2.38-.48,1.33.55,3.21.99,2.56,3.17-.03.11.2.3.39.57.79-1.42,1.78-2.28,3.45-1.41.45.23.95.34,1.22-.21.21-.43.74-.88.2-1.41-.31-.3-.49-.65-.45-1.05.26-2.87-.64-4.75-4.01-5-.71-.05-1.59-.97-.87-1.99,1.1-1.55,0-2.66-.73-3.85-.09-.15-.41-.18-.47-.32-.21-.49.29-.93.53-.85,1.67.54,1.47-2.61,3.28-1.51.29.18.48.84.87.59,1.43-.91,2.13.38,3.25.83-2.43-1.58-1.24-5.11-4.05-6.5-.33-.16-1.89-1.2-.46-2.23.04-.03.07-.15.05-.17-1.06-.91-1.52-1.96,0-2.71.94-.47,1.33-2,2.81-1.43.05-.66.37-.8,1.07-.97,1.1-.27,1.8-.7,1.75.98-.04,1.22,1.79.84,2.3,2.12.32.8.74,1.45.65,2.37-.12,1.24.22,2.01,1.85,1.67,1.99-.41,2.83.67,2.8,2.61-.02,1.34-.91,2.65-.16,4.03.2.36-.06,1.04-.42.87-1.93-.94-1.78,1.16-2.85,1.74,2.2.21,4.35.36,5.16,2.97,1.05-1.47,1.98-2.44,3.25-3.11,1.24-.66,1.32-1.59.24-2.52-1.13-.97-1.15-1.89.06-2.77.26-.19.45-.35.2-.6-.32-.33-.71-.76-1.21-.45-1.62,1.02-1.94-.73-2.85-1.2.69-.76-.93-2.33,1.4-2.77,1.54-.29,3.23-.85,4.74-1.55.36-.17,1.72-.13.56-1.17-.43-.39-.01-.7.47-.76.39-.06.81.06,1.15-.26.3-.28.46-.96,1.07-.53.36.26.25.72.14,1.1-.35,1.23-.32,1.72.95.58.61-.55.82.19.88.58.21,1.44-.75,1.83-2.05,1.86,1.16,1.37,2.42,2.55,3.52,3.84.93,1.1,1.93,2.23,2.88,3.37.13.16,1.32,1.71,1.82-.13.02-.07,1.84.09,2.5.72.54.52.89,1.75,1.71,1,1.05-.96-.95-1.08-.99-1.99,1.54.16,2.26-.38,1.15-1.7-.78-.93.56-1.06.48-1.81-.14-1.26.8-.4,1.33-.38,2.67.09,5.25,2.35,5.82,5.05.26,1.21,1.65,2.35.14,3.67-.11.1.16.96.38,1.02,1.33.34,1.45,2.92,3.55,1.78.14-.07.54.1.67.26.2.26-.07.48-.28.64-1.26.96-.89,1.18.48,1.68,1.05.38,2.45,1.11,1.8,2.93-.27.75-.05,1.8.29,2.57.23.5.5,1.32,1.26,1.42.67.08.78-.58,1.03-1.04.4-.73.85-1.63-.01-2.1-1.72-.93-1.11-1.64-.02-2.49.85-.67.24-1.26-.14-1.87-.25-.39-.52-.88,0-1.23.43-.29.82.12.99.42.44.77.91.35,1.28.04.62-.51-.02-.78-.33-1.06-2.01-1.78-1.65-4.01.99-4.81.98-.3.48-1.32,1.77-1.69,2.1-.6,1.71,1.25,2.67,1.51-.72.47.89,2.09-1.22,2.06-.83-.01-1.51,1.37-1.56,2.3-.03.73.52,1.56,1.64,1.61.44.02.99.41.74.97-.82,1.76,1.09,1.43,1.7,1.89.63.48.86-.55.58-.89-.8-.96-.03-1.65.23-2.44.04-.12.04-.28.12-.36.28-.3.59-.18.91-.05,1.45.56,4.02-1.43,4.33,1.4.22,1.94,1.57,1.93,2.77,2.49-1.57-1.56.23-5.12-4.19-5.15,1.13-.72,2.52-.76,1.43-1.96-.38-.41.2-1,.71-.56.83.73,1.39.65,1.92-.22.37-.62.92-.83,1.54-.55.56.25,1.01.72.76,1.42-.19.52-.24.86.52.91.68.04,1.23-.18,1.6-.67.4-.53-.22-.65-.5-.84-.83-.58-.92-1.84-2.11-2.1-.2-.04-.28-.43-.11-.69.98-1.47.41-2.12-1.22-2.51-.84-.2-.9-1.28-.94-1.94-.03-.6.8-.49,1.34-.45,1.71.12,2.04-1.43,2.86-2.32.67-.73,1.12-1.57,2.37-.5-.97-1.25.51-2.23.06-3.33,1.32-.24,2.04-1.48,3.27-1.86.44-.14.79.12,1.08.4.7.69,1.27,1.14,2.41.45.93-.56,1.27.8,1.96,1.18-.59.92.11,2.23-.22,2.77-1.67,2.7,1.54,2.44,2.08,3.77-1.96-2.05-.96-4.31-.38-6.41.31-1.13-.53-3.43,2.29-2.98.35.05.18-.61-.23-.83-1.35-.74-.45-1.13.3-1.29.9-.19,1.66-.41,2.21-1.19.66-.93,1.15-1.98,2.86-1.36.38.14,1.94-.6,2.99-.88.95-.25,1.14-.43,1.63.59.37.77,1.39,1.31,1.81,2.44-2.1-.31-2.18,1.16-2.9,2.42-1.44,2.54-.03,5.25-.96,7.8-.1-.18-.18-.28-.22-.4-.21-.68.21-1.97-.91-1.8-.84.13-1.45,1.23-1.32,2.28.06.45.19.87.05,1.34-.15.51-.79,1.03-.03,1.57.65-.87,1.53,1.59,2.57-.34.59-1.09,3.01-1.28,4.64-1.8.41-.13.78.33.89.68.54,1.79,2.2,1.3,3.44,1.62.54.14.76-.23.69-.67-.07-.51-.25-1.01-.39-1.52l-.83-5.04c-.04-.44.3-.69.53-1.01.73-1.02,1.8-2.04-.51-2.67-.53-.14-1.09-1.25-.74-2.17.46-1.21.52-2.24-.52-3.36-.66-.71-.8-1.91-1.06-2.92-.27-1.06.85-.84,1.17-.77,1.23.28,2.57.54,3.4,1.57.3.37,1.93,1.32-.26,1.48-.75.06-.56.63-.31,1.04.31.5.68.97,1.07,1.42.69.79,1.03,1.47-.07,2.28-.42.31-.56,1.01-.74,1.57-.17.53.17.88.65,1.08.35.14.96.54,1.07.16.57-1.89,3.11-.69,3.9-2.54-1.24,2.21,1.61,3.21,1.24,5.12-.04.21,1.16.65,1.78.99-.14-.55,1.62-.71.32-1.54-.64-.41-.03-.94.03-1.42.1-.76.4-1.59-.49-2.13-1.54-.92.35-2.17-.35-3.16.8-.41,1.56-1.03,2.41-1.17,1.02-.17.61.73.57,1.25-.03.41-.11.9.39.97.67.09.67-.56.72-.96.12-1.03-.5-2.05-.09-3.24.31,1.2.52,2.29.88,3.34.16.46.57.96,1.26.68.54-.22.46-.64.47-1.14.03-1.34.17-2.68.37-4.01.32-2.12,2.33-2.06,3.83-2.61.31-.11.77.42,1.03-.15.57-1.23,1.24-1.92,2.41-.51.19.23.48.26.72.04.38-.36.69-1.32,1.32-.44.47.67,1.68,1.06.9,2.44-.44.78-.13,1.81-1.4,2.33-.65.27-1.46,1.25-.2,2.17.66.48,1.25,1.22-.23,1.67-.39.12-.72.75-.86,1.21-.22.75-.22,1.72.52,2.05.53.24,1.07-.52,1.6-.94,1.61-1.29,1.77-3.69,3.87-4.49-.44-1.4.63-1.41,1.54-1.58,1.55-.3,2.92.05,3.92,1.24.67.8-.12,1.01-.71,1.14-1.05.23-1.14.6-.28,1.22.78.56.25,1.03,0,1.66-.48,1.2-1.84,2.54.08,3.73.05.03.07.11.11.16.45.48-1.03,1.87.7,1.63,1.28-.18,2.57-.86,2.56-2.37-.02-1.93,1.92-.96,2.64-1.78.08-.09.51.56.44.95-.42,2.36.87,1.6,2.2.89-.3,1.72.46,3.61-1.98,4.3-.45.13-.03.93.11,1.43.5,1.87,1.94,2.56,3.7,2.88.52.09.97-.12,1.03-.69.05-.49-.33-.67-.77-.73-.27-.03-.56.04-.81-.03-.76-.23-.79-.92-.69-1.46.13-.72.85-.33,1.17-.24,1.18.33,2.39.69,3.02,1.91.14.27.71.58.42.76-1.62,1-1.52,2.01-.33,3.27.3.32.09.76-.61.88-1.94.34-3.87.41-5.82.23-.2-.02-.4.04-.6.04-1.17.01-2,1.66-2.43,1.43-1.21-.66-1.75-.3-2.38.59-.41.58-.87.13-1.24-.06-1.31-.68-2.27-.09-2.85.93-.8,1.37-1.36,2.87-2.04,4.3-.13.28-.09.51.14.7.28.23.59.27.93.06.78-.49,1.57-.97,2.31-1.43.02-.79-1.56-.64-.9-1.7.84-1.36,2.43-1.87,3.52-1.24,1.17.68,1.67.09,2.75-.54-.59,1.64,1.18,3.13-.76,4.45-.28.19.53,1.98.96,2.98.2.45.62.9-.11,1.04-2.07.42-1.58,1.31-.62,2.42.34.39.62.87.41,1.44-2.51-.94-5.19-.59-6.53.96,1.89.05,3.41.54,3.87,2.5.27,1.13-.1,1.67-1.3,1.4-.53-.12-.93-.24-1.13.36-.18.54.26.64.63.8,1.03.45,1.25,1.45,1.19,2.32-.06.8-1.16.39-1.67.76-1.22.9-2.82,1.15-3.9,2.33-.56.62-.78,1.29-.58,1.97.26.9.97.33,1.51.22l3.28-.64c.35-.27.65-.55.07-.88-.52-.29-1.22-.66-.9-1.25.32-.59.83-1.26,1.62-1.4.84-.15,1.83-.84,2.52-.3,2.12,1.67,1.64-.3,2.05-1.66,1.02,2.24,3.23.49,4.57,1.83.39.39,1.05-.21,1.31-.64.52-.84,1.58-1.39,1.92-2.06,1.34-2.6,2.79-.91,3.69-.06,1.24,1.17,1.79.62,2.54-.29,1-1.2,2.01-2.38,3.16-3.74.55,1.34.94,2.51.71,4.03,1.4-.96,2.96-1.17,3.77-2.51.18-.3.54-.55.85-.36,1.3.8,1.31-.64,1.27-.91-.24-1.92,1.82-1.67,2.55-2.64.18-.24.6-.04.91.15,2.1,1.28,2.1,1.27,2.54-1.36.26,1.68-.06,3.16,1.35,4.03.32.2.17.59-.03.88-.86,1.26-.35,2.56.08,3.74.86,2.39.76,3.31-1.44,4.86-.77.54-.44,1.1-.31,1.52.21.69.02,1.64.97,2.01.23.09,1.46-1.31,1.37-1.59-.1-.31-.32-.59.04-.88.67-.07.91.44,1.2.87.18.27.26.83.44.85,3.31.4,2.05,3.63,3.45,5.2.37.42.1,1.27,1.28.75.78-.35.75.67.7,1.22-.06.74.38,1.02.96.9.73-.14.19-.6.06-.88-.25-.53-.14-.96.43-1.09,1.52-.33,1.46-1.08.71-2.11-.15-.21-.39-.61-.31-.69,1.17-1.29,1.84-2.8,2.5-4.38.27-.65,1,.43,1.39.89.85,1,1.26,2.63,3.17,2.01.34-.11,1.47.03.47-.83-.45-.39-.02-.68.2-.71,2.64-.35,2.03-2.08,1.62-3.69.93-.37,1.3.44,1.79.72.85.49,1.47.64,2.37.11,1.24-.74,2.44-.64,3.51.5.79.85,1.87,1.4,3.06,1.33,1.39-.08,4.02,1.28,4.45,2.49.06.17.07.54.05.54-2.59.38-.41,1.47-.28,2.15.32,1.69-1.16,1.48-1.84,1.4-1.59-.18-2.81.03-3.48,1.51-1.01.04-.36-1.9-1.63-1.22-1.2.64-1.96,1.77-1.67,3.12.54,2.45,1.16,4.9,2.79,6.94.25.32.62.66.38,1.03-.38.58-.8-.36-1.24-.05.6,2.14.58,2.01,2.74,1.61.99-.18,2.28-.71,3.12.58.2.31.72.5,1.1.22,1.52-1.15,3.13-.1,4.68-.22.43-.03.82.26.71.48-.77,1.5,1.37,2.47.7,3.83-.16.33-.99.54-1.47.48-1.05-.12-1.78-.15-1.41,1.21.07.25-.09.58-.43.52-.67-.12-.7-.71-.8-1.22-.13-.6-.33-1.34-1.07-1.12-.63.19-1.37.73-.83,1.64.15.26.01.5.05.71.27,1.65-.03,2.36-1.73.96-.19,2.89-.2,2.91-2.74,1.43-1.38-.8-2.98-1.26-2.47-3.61.31-1.42-1.22-.34-2.04-.39,1.13.31,1.31,1.04,1.12,1.96-.61.47-.94-1.44-1.43-.23-.27.67-1.54,1.17-.63,2.19.37.41,1.17.88.6,1.44-.45.44-1.4.05-2.01.51-1.41-2.05-2.93-.14-4.4-.11-.12,0-.29.19-.35.15-.74-.46-1.75-1.41-2.32-.43-.9,1.57-2.19,3.09-2.06,5.1.04.69.39,1.17.96,1.38.62.23.97-.21,1.16-.79.05-.16.29-.42.36-.4,2.81.87,3.01-2.26,5.01-2.79,1.47,1.22,2.06,2.77,1.52,4.94-.19.77.9,1.81.25,2.91-.24.41-.42.59-.94.78-1.37.51-3.27.41-3.55,2.49-.08.61-1.03.15-1.44.81,2.96,1.25,2.7,3.67,2.22,6.14-.07.33-.19.65.09.9.11.1.36.07.54.1.12-1.77,2.03-1.44,2.69-1.43,1.79,0,2.93-1.82,4.95-1.16,1.45.48,2.55-1.19,4-1.6,1.16-.33,1.5-.54,1.36.71-.13,1.23.06,1.74,1.31.82.1-.07.36-.12.37-.1.67,1.44,2.63.87,3.42,2.01.38.55,1.07,1.28.65,1.96-1.23,1.97-1.27,4.18-1.65,6.34-.16.89-1.66.43-2,1.4-.3.84-.67,1.17-1.8.73-1.49-.58-2.44,1.14-1.87,3.26,1.95-.49,3.09.16,3.65,2.05.17.58-.18.81-.59,1.09-1.3.9-2.28,1.97-2.19,3.69.03.67-.3,1.22-1.14.75-1.27-.71-2.8-.65-4.13-1.64-.07.89-.12,1.53-.16,1.96,2.56.35.33,3.1,2.48,3.53-1.25.75-3.97.45-1.65,2.57.04.03.04.13.02.18-.25.62-1.07,1.38-.15,1.86.93.48,1.52-.59,2.22-1.03.52-.33.8-.58,1.52-.09.64.43,1.68.34,2.55.38.45.02,1.04-.1,1.02-.72-.11-2.49,1.63-3.46,3.63-4.25.2-.08.47-.38.46-.55-.21-1.96,1.85-1.72,2.73-2.6.63-.63,1.44.12,1.57.65.14.56.83.5.86,1.49.09,2.68-2.94,4.47-1.82,7.23.04.11,0,.37-.02.37-1.62.04-2.35,1.47-3.57,2.1-.4.21-1.26-.14-1.39.45-.17.76.58,1.11,1.23,1.33,2.46.81,5.04.91,7.58,1.3.19.03.38.09.55.24-2.14.03-4.25-.26-6.36-.63-.64-.11-1.47-.73-1.89-.15-.47.65-.37,1.58-.03,2.4.46,1.1-.69,2.62-1.91,2.42-.6-.1-.53.38-.64.43-1.39.6-1.81,3.18-4.17,1.88-.72-.4-.93.49-1.18,1-.4.83-.23,1.52.51,2.09.59.45,1.07.22,1.34-.3,1-1.89,2.8-1.05,4.29-1.24.53-.07.67.38.68.78.06,1.77,1.81,1.2,2,.82.68-1.36,2.35-.97,3.14-2.03.62-.82,1.59-.39,2.13.14.7.68,1.5,1.22,2.24,1.84,1.87,1.56,2.87,1.5,4.46-.34,1.16-1.33,2.07-1.17,2.96.48.5.92.73,2.15,2.37,1.89.6-.09.54.58.45,1.06-.47,2.37.21,3.27,2.58,3.93,1.21.34,2.1,1.09,2.24,2.53.09.84.27,1.23-.89,1.01-1.25-.23-1,.86-.92,1.43.15,1.05-.23.84-1.12,1.04-3.01.69-4.99-.33-6.83-2.52-1-1.18-3.18-.69-4.06.49-.62.83-.65,1.24.51,1.36.8.08,1.6.24,2.41.31.78.07,1.57.08,2.35.39-1.03,0-2.07-.03-3.1,0-.88.03-2.35-.77-1.95,1.25.04.18-.59.44-.83.73-.48.57-1.76-.5-1.66.45.16,1.58-1.42,3.29-.17,4.52,1,.98,1.49,2.05,1.92,3.2.61,1.61,1.33,2.83,3.41,3.02.6.05,2.81.55,1.19,2.29-.19.2-.06.48.12.71.39.51,1.39,1.18.28,1.64-1.21.5-2.65.67-3.82-.37-.05-.04-.08-.11-.1-.17q-.6-1.79-2.63-1.69c-.12.94,1.23.77,1.28,1.77-1.02.22-2.08,1.36-2.98-.36-1.36.69-2.6.22-3.85-.34-.08-.04-.45.29-.43.33.79,1.6-1.56,3.21.01,4.79,1.23-1.04,3.85-.46,4.57,1.12.35.78,1.32,1.52.29,2.62-.48.52.91.81.78,1.61-.28,1.76-2.21,2.89-3.96,2.12-1.01-.44-1.59-.71-2.5.38-1.09,1.31-1.94.94-2.84-.58-.53-.88-1.23-2.39-2.44-.46-.25.4-.69.35-1.06.49-1.74.67-2.35,2.1-2.69,3.73-.15.7.38.58.69.57,1.07-.03,1.73.73,2.48,1.23.57.38,1.29,1.11-.21,1.34-.18.03-.52.14-.4.2,1.64.83-.7,2.55.82,3.38.1.05.17.22.18.34.12,1.55.65,1.96,2.54,1.6,1.15-.21,1.87-.1,2.43,1.06.54,1.14,1.28,1.13,2.22.13.36-.39.79-.36,1.07-.12.96.84,1.45.07,1.91-.51.79-1.01,1.58-1.9,3.02-1.16.23-.69-.31-.86-.4-1.24-.08-.34-.13-.7.21-.88.45-.24.8.07.99.41.9,1.65,1.02,3.64,2.33,5.11-1.67,1.23-.36,2.81-.28,4.21-.9.06-1.07-.59-1.52-.82-.59-.3-1.12-1.04-1.76.23-.36.71-1.61,1.08-2.65.84-2.35-.55-2.46-.47-2.21,1.8-.51.19-.9-.67-1.46-.13-.62.6.19.73.33,1.08.26.61-1.26,2.34-1.95,2.15-1.64-.44-1.8.62-1.98,1.71-.18,1.1-.02,1.69,1.46,1.59,1.12-.08,1.14.98.73,1.76-.74,1.4.62,1.82,1.25,1.82,3.55,0,5.55,2.14,4.75,5.47.87.11,1.87-1.04,2.62.19.12.2.6.14.7-.11.72-1.81,1.8.09,2.65-.26.27.94,1.13,1.85.72,2.83-1.08,2.58-1.03,5.22-.86,7.92.1,1.52-1.49,2.12-2.37,3.03-.34.35-1.1-.59-1.36-1.17-.35-.78-.75-1.3-1.73-1.38-.57-.04-1.4-.48-1.34-1.01.33-2.77-2.28-1.54-3.34-2.38-.08-.06-.5.12-.49.15.25,1.47-1.15,2-1.91,2.65-.94.8-2.33,1.14-3.3,2.06-.14.13-.61-.05-.59.32.11,2.45-.14,4.95.89,7.29.15.34.46.02.69.03.44.01.86.07.88.58.02.37-.31.54-.65.64-1.75.52-1.98,1.16-.2,2.03.27.13.59.42.64.68.09.48-.41.7-.78.75-2.25.32-4.38-.57-6.59-.76-1.28-.11-1.76-1.59-2.51-2.64-1.38-1.93-2.49-4.27-5.26-4.94-1.77-.43-1.21-2.49-2.33-3.5-1.17-1.05-1.57-2.35-.1-3.59.26-.22.22-.51-.03-.66-.19-.12-.56-.19-.73-.09-.59.36-1.05.7-1.89.79-1.55.17-2.44-.13-2.47-1.66-.05-2.14-1.56-4.11-.75-6.35.18-.49.13-1.12.43-1.5.86-1.07.11-1.6-.98-2.72.63,1.82-.79,2.76-.43,4.09.03.13-.13.37-.27.47-.67.46-3.82-1.01-3.97-1.82-.39-2.22-1.72-2.98-3.71-1.92-.66.35-.78.28-1.27-.15-1.06-.94-2.21-.49-2.32.93-.12,1.63-.1,3.28.01,4.91.06.91-.16,2.02,1.58,2.1,1.01.05,1.12,1.58,1.35,2.42.26.96-1.02.32-1.55.64-.67.4-1.57.43-2.28.79-1.61.82-2.67-.45-3.26-1.23-.6-.8.12-2.48.94-2.94,2.9-1.61,2.73-4.13,2.64-6.71-.02-.48-.22-1.17-.62-1.13-2.18.22-2.66-2.71-4.99-2.23.23.78.68,1.7-1.09,1.69-.87,0-2.21.67-.82,2.16,1.05,1.13-.34,3.96-1.93,4.27-1.2.24-2.24.7-2.68,1.99-1.41-1.73-2.58-3.44-3.15-5.39-.23-.77-.08-1.79.27-2.53.28-.61.26-1.02.15-1.62-.35-1.86-.8-3.57-3.15-3.91-.24-.03-.65-.28-.64-.38.26-1.73-1.61-2.03-2.22-3.18-.55.75-1.1,1.53-2.25,1.08-.42-.17-.95-.28-.8-.93.38-1.66-.39-2.72-1.88-3.44-.59-.28-.6-2.11-.04-2.5,1.86-1.27,1.8-4.53-.23-5.66-3.3-1.84-6.29-4.08-9.24-6.39-.47-.37-.95-.75-1.33-1.2-.55-.65-.89-1.22-1.81-.27-.39.41-1.38.32-2.1.36-.4.02-.97-.17-1.15.16-.69,1.28-2.36,1.1-3.37,2.23,1.65.66,3.19,1.29,4.82,1.94.12-1.4-1.26-2.05-1.36-3.37,1.08,1.76,2.6.11,4.05.6,1.38.47,1.86,1.35,2.09,2.07.37,1.16,1.06,1.37,2,1.57,2.21.47,2.68,1.41,2.14,3.57-.23.93.11,1.91-.62,2.84-.48.6.36.85.9.85,1.8-.01,1.97.96,1.42,2.25-.18.42-.04.56.17.82.41.5,1.12,1.27.34,1.61-.58.25-1.53,1.05-2.36.13-.98-1.08-1.63-.33-1.5.54.37,2.44-1.83,1.01-2.54,1.75-.9-.86-2.22-.95-3.22-1.56-1.3-.8-1.47-2.21-1.18-3.61.07-.34.48-.5-.07-.89-1.88-1.34-3.88-2.62-4.17-5.19-.02-.2-.67-.43-1.05-.46-1.36-.1-1.73-1.26-2.1-2.1-.67-1.55-1.4-2.14-3.03-1.83-.39.07-.89.13-1.19-.04-3.62-2.03-6.77-.18-9.69,1.41-7.2,3.94-12.39,10.06-17.77,15.97-4.65,5.11-6.73,11.45-9.23,17.57-.95,2.32-.26,4.84.31,7.18,1.83,7.64,1.89,15.46,2.62,23.2.26,2.69-.11,5.37-.64,8.01-1,5.05-.7,10.04.46,15.01.1.45.21.89.29,1.35.38,2.2.27,2.34-2.09,2.34-4.74,0-9.48-.05-14.23.01-1.71.02-2.18-.43-1.88-2.19,1.27-7.42,1.68-14.95,2.84-22.4.54-3.43-.75-6.88-1.17-10.32-.71-5.84.25-11.64.3-17.45.03-3.64,1.49-7.25.38-10.9-1.51-4.93-3.8-9.52-6.94-13.67-1.72-2.27-3.65-4.39-5.55-6.53-.74-.84-1.51-1.83-2.74-.35-.62.74-1.85.32-1.9-.38-.09-1.18-1.66-2.42.2-3.67-1.49.18-2.87.02-3.36,1.83-.23-1.28-.68-1.75-1.92-1.22-.55.24-2.12,1.2-1.62-.95.17-.72-1.18-.78-1.45-1.53,2.06-.29,3.66-2.5,6.12-1.15-.78-2.07-4.47-3.87-6.33-3.16-.57.22-1.31.34-1.46-.09-.54-1.59-1.23-1.13-2.52-.72-2.37.75-4.99-.95-5.84-3.35-.23-.66-.63-1.03-1.4-1.16-1.93-.33-3.84-.77-5.76-1.18-.82-.17-1.42-.17-2.12.58-.87.92-2.58,1.26-3.5.72-1.68-.99-2.88-.45-4.21.32-.47.27-2.67-.82-.41,1.75-1.56-.92-2.27-1.14-3.2-.21-.72.71-2.51.5-3.15.89-1.69,1.03-2.12-.19-2.7-.9-.59-.73-.9-.19-1.33-.01-1.45.58-2.49,1.7-3.69,2.61-1.21.92-2.51.36-3.23-.95-.56-1.03-.99-2.4-2.74-2.03-.51.11-.71-.23-.74-.69-.04-.62-.22-1.22-.85-1.45-1.87-.68-1.03-1.61-.23-2.45.46-.48,1.35-1.1.7-1.51-.67-.43-1.25-1.53-2.47-.98-1.73.77-3.3.23-4.43-1.32-.72-.99-1.54-1.55-2.81-.57-.71.55-1.45,1.14-2.64.51-.73-.38-2.27,1.61-2.09,2.57.02.12.17.32.14.35-1.59,1.42-.7,2.77.05,4.16.12.23.5.92-.18.9-.74-.02-1.55.85-2.23-.1-.84-1.17-1.81-1.52-3.06-.52-.31.25-.58.07-.9-.08-.91-.43-1.85-.09-2.31.58-.76,1.1-1.07,2.53-2.96,2.34-.41-.04-.24.6-.24.99.01,1.41-.19,2.34-2.2,2.51-1.45.13-2.79.84-4.31.09-.38-.19-.9.24-.98.77-.05.32-.01.64-.43.78-1.32.43-4.14,3.29-4.36,4.47-.21,1.09,1.48.89,1.42,2.03-.69.08-1.67-.13-1.22,1.33.13.42-1.79,1.45-2.69,1.31-1.86-.3-2.23.32-2.14,1.89.04.66-.13,1.45-1.28.76-.46-.28-1.08.16-1.58.61-1.34,1.22-2.28.97-2.86-.64-.15-.43-.18-.93-.43-1.3-.76-1.17.29-1.07.84-1.06,2.89.02,2.82.07,1.99-2.65-.3-.99-.22-2.11.47-3.04.42-.58.76-1.43-.01-1.63-1.2-.31-.8-3.11-3.12-1.63-1.7,1.09-4.43.29-5.35-1.06-.39-.58-.34-.91-.05-1.55.34-.74,1.59-1.33.68-2.47-.2-.25.36-.43.66-.59,1.17-.6,2.47-1.03,2.94-2.45.21-.63.89-.46,1.39-.58,2.25-.56,2.57-1.69,1.01-3.38-.6-.65-1.26-1.15-2.03-1.65-1.5-.98-1.85-.18-2.45.72-.24.36-.42,1.09-.96.74-1.46-.92-2.62.41-3.87.33-1.02-2.25,1.02-4.01.99-6.14-.02-1.3,3.06-3.18,4.45-2.86.58.13.93.04,1.2-.39.39-.63.87-.84,1.48-.34,1,.81,1.77-.17,2.21-.57.7-.62.67-1.9,1.96-2.2.24-.05.34-.91-.05-1.02-1.4-.38-.58-1.33-.77-2.06-.28-1.09.14-1.15.97-1.04.37.05.64-.02.84-.36.19-.34.47-.76.93-.52.51.26.49.87.23,1.22-.87,1.15.72.97.88,1.59.08.33.67.2.83-.08.36-.61.87-1.47.22-1.96-1.43-1.08-1.82-3.28-4.04-3.5-.25-.02-.62-.4-.46-.52,1.3-.94-.23-1.76-.12-2.69.13-1.08-.81-1.06-1.41-.35-.92,1.1-1.44,1.09-2.15-.23-.35-.65-1.27-1.44-1.94-1.45-2.46-.02-2.67-1.96-3.28-3.42-.3-.73-.67-.85-1.27-.96-2.1-.42-3.01-2.33-1.93-4.05.41-.67.97,0,1.42-.12-1.14-1.99-1.86-4.02-1.69-6.3.07-.99.99-.93,1.64-1.36-.5-1.36-2.57-1.26-2.8-3.02-.12-.94.17-2.03-.5-2.9,1.22.25,1.45-1.35,2.65-1.29.7.04,1.66.43,2.09-.64.1-.24.47-.25.69-.03.33.33.19.71.1,1.1-.1.42-1.11.92.14,1.29.91.27,1.02-.26,1.23-.84.52-1.45,2.43-1.86,2.72-3.57.1-.6.3-1.24.37-1.87.05-.41-.08-.8-.53-.96-.47-.18-.76.11-1,.45-1.01,1.42-1.76,1.01-2.1-.39-.2-.82-.62-1.09-1.34-1.47-1.31-.7-2.26-1.8-1.65-3.45.29-.78-.1-1.05-.78-1.27-.76-.25-1.49-.59-2.23-.89-.2-.29-.31-.72-.76-.69-.39.03-.37.41-.43.7ZM215.19,153.08c-.61.71-1.81.33-2.32,1.07-.15.51,1.67-.29.44.84-.76.69-.75,1.44.32,1.78,1.03.33,2.15.11,2.75-.75.73-1.06,1.02-2.33.69-3.64.61-.39,1.24-.76,1.83-1.18.28-.2.33-.83.2-.79-1.16.38-2.54-1.02-3.51.34-1,1.4-1.82,1.41-2.6-.15-.62-1.23-1.36-.92-2.23-.21-1.28,1.05-1.45,2.43-1.53,3.97,2.05-.47,3.87-1.51,5.96-1.29ZM76.93,187.39c-.46-.38-.94-.74-1.37-1.15-.62-.6-1.29-.91-2.19-.59-.73.26-.81.85-.77,1.44.05.88.46,2.11,1.23,2.02,1.72-.2,3.36.62,5.04.13,1.6,1.18,3.11,2.51,5.03,3.23.95.35,1.92.49,2.45-.59.41-.84.61-1.56-.57-2.29-1.64-1.01-1.89-2.75-1.47-4.52.11-.44.02-.65-.36-.7-2.28-.3-4.56-.82-6.83-.75-2.14.06-2.32.82-.99,2.43.33.4.54.89.8,1.34ZM219.5,56.34c-.56.79-1.68-.45-2.14.75-.59,1.52-2.27,1.49-3.38,2.24-1.95,1.32-4.5,1.28-6.28,2.92-.92.85-2.01,1.08-2.9-.35.38.76-1,1.18-.38,1.76,1.29,1.2,1.87,2.76,2.55,4.64.39-.88.17-1.68,1.09-1.78.51-.06.96-.36.54-.94-.95-1.29.03-1.21.91-1.32,1.67-.21,3.55-.75,2.77,2.08-.04.14.11.4.25.5,1.33.94.83,2.23.92,3.8-1.87-1.85-4.14.37-5.95-1.35-.02,1.15-.37,2.05-1.46,2.66,1.53.27,2.43.99,2.86,2.2.08.21-.08.68.22.62,1.68-.35,3.5,1.33,5.14-.36-.18-.1-.33-.21-.5-.26-.51-.13-1.24-.17-1.08-.87.16-.69.84-.45,1.36-.34.13.03.26.09.39.11,1.1.13,2.84,1.37,2.35-1.29-.09-.49.6-.38.91-.57,1.28-.8,2.26-3.63,1.35-3.83-2-.43-.67-1.51-.89-2.27-.24-.81.27-1.46.29-2.24.04-2.14-.05-4.38,1.08-6.51ZM95.71,190.48c-.31-.3-.66-.46-.86.13-.17.51-.26,1.11.34,1.4,2.18,1.06,4.37,2.09,6.38,3.43.05.03.13.02.2.02,1.37,0,2.66.51,3.99.66,2.26.24,4.51,1.63,6.84.22.33-.2.58.19.85.37.39.26.45,1.4,1.28.55.72-.74.25-1.31-.45-1.75-1.18-.75-2.35-1.54-3.58-2.22-3.02-1.66-6.26-2.85-9.63-3.53-1.46-.3-2.77-.48-4.02-1.43-1.76-1.35-3.55-.95-4.93.75-.24.29-.42.65-.01.79.61.21,1.13.84,1.87.51.27-.12.35-.5.09-.65-.49-.3-.86-.54-.13-.94.69-.37,1.41-.49,2.1,0,.49.35.62.85.45,1.4-.12.38-.37.52-.8.29ZM159.12,212.7c4.21-4.63,9.18-8.21,13.93-12.14-3.88.02-7.69.14-11.48.51-1.62.16-2.32,1.66-2.4,3.03-.16,2.86-.05,5.73-.05,8.6ZM36.29,188.9c-.26-.12-.48-.24-.71-.33-.73-.29-1.79-.42-1.72-1.35.07-.98.87-1.83,1.66-2.38.88-.62,1.2.5,1.68.94.4.36.69.26,1.18.25,3.12-.09,4.04.72,3.49,3.08.68-.26,1.35.16,1.96-.31-.5-1.61-.46-3.8-1.73-4.6-1.09-.69-1.87-2.67-3.4-2.03-1.53.64-2.8-.78-4.13-.04-.94.52-1.94.77-2.98,1.05-1.67.45-3.17,3.27-2.23,4.23,1.38,1.43-.77,1.57-.72,2.56.05,1.07-1.06-.2-1.6.28.07.72.7,1.07,1.11,1.56.24.28-.12,1.14.69.8.45-.19,1.1-.4.97-1.25-.07-.45-.95-1.32.34-1.51.96-.14,1.12.51,1.36,1.27.2.63,1.04,1.59,1.61.54.6-1.09,1.42-.98,2.45-.97-1.8-1.59.38-1.19.73-1.79ZM188.42,195.89c-1.8,1.52-4.1,2.42-5.69,4.03-1.19,1.21-1.52,3.28-3.97,2.73-.13-.03-.32.22-.48.34-4.83,3.62-9.26,7.66-13.58,11.82-1.28,1.23-1.96,2.91-2.58,4.56,2.27-1.76,4.22-3.78,6.43-5.48,5.5-4.24,11.11-8.34,15.78-13.5,1.36-1.5,2.73-3,4.09-4.5ZM176.1,185.24c-.89,1.29-2.89.91-2.38,2.85.17.65-.51.41-.85.34-.71-.14-1.31-.15-1.74.56-.44.73-1.25.37-1.62.15-1.46-.82-2.53-.16-3.67.59-1.23.81-2.47,1.59-3.73,2.36-.61.37-.99.86-1.13,1.54-.08.38-.31.79.13,1.06.34.2.63-.1.9-.28,2.62-1.78,5.62-2.49,8.72-2.87,2.07-.25,4.15-.49,6.22-.75.76-.1,1.84-.35.84-1.21-1.25-1.07-1.44-2.4-1.7-4.34ZM162.88,199.83c2.95,0,5.51-.17,8.03.06,1.81.16,3.18-.46,4.52-1.37.89-.61.48-1.55.49-2.36,0-.55-.42-.87-.95-.77-4.13.79-8.49.99-12.09,4.44ZM161.62,191.46c1.16-.73,1.9-1.17,2.62-1.66,1.4-.96,3.16-1.39,3.83-3.31.4-1.15,1.59-2.02,2.93-2.4.53-.15,1.43.41,1.57-.34.17-.88-.99-.85-1.48-.99-.91-.27-1.46-1.28-2.45-1.14-1.18.17-1.87,1-2.49,1.95-.46.71-.81,1.88-1.78,1.78-1.13-.11-1.28.48-1.47,1.16-.42,1.5-.79,3.01-1.3,4.95ZM210.35,200.52c1.97,2.06,4.11,3.42,6.04,4.99,1.28,1.04,2.59,1.86,4.3.61.53-.39,1.38-.18,1.33-1.32-.05-1.05-.63-1.36-1.4-1.6-3.02-.94-6.05-1.84-9.08-2.74-.23-.07-.5.02-1.19.06ZM58.97,54.2c.38,1.08-1.44,2.9,1.39,2.89.25,0,.31.2.23.43-.11.28-.38.66.21.7.34.02.68-.24.69-.6.04-.96.01-1.92.01-3.01.61.48.82,1.24,1.78,1.19-.22-1.44,1.14-1.81,1.94-2.62.33-.34,1.12-.84,0-1.23-1.62-.56-3.03-1.47-4.49-2.31-.44.12-.2.61-.41.78-1.4,1.15-2.28,2.26-.12,3.54.3.18.5.74.06,1.01-.81.49-.61-.64-1.29-.77ZM158.56,27.2c-.57-.94-1.94-.94-2.27-2.18-.18-.68-1.57-1.08-2.33-.89-.13.03-.27,0-.4.02-1.78.4-3.25-.34-4.59-1.29-.7-.5-1.27-.71-1.96-.12-.87.74-.06,1.24.26,1.84.2.38.74.6.63,1.14-.52.28-1.18-.59-1.45-.04-.32.65.11,1.38.59,1.94.36.42.81.85,1.35.35,1.38-1.27,1.99-.37,2.41.88.41-.32.26-.57.24-.81-.08-1.31.33-2.58,1.51-3.12,1.21-.54,2.51-.15,3.43.94.66.79,1.62,1.05,2.59,1.33ZM91.94,174.48c.04.78.09,2,.75,1.91,1.6-.22,1.27.59,1.23,1.45-.07,1.65,2.16,3.57,3.79,3.9,1.25.25,1.48-.99,2.36-.96.49.02,1.07,1.35,1.42.01.21-.81-.15-1.5-1.35-1.75-.83-.17-1.94-.56-2.47-1.1-1.61-1.65-3.88-2.15-5.74-3.46ZM147.12,38.28c1.33.2,3.1,1.28,3.06-1.36,0-.1.11-.24.21-.31,1.55-1.23,3.78-1.3,5.78-.1.41.25.78.49,1.26.53.7.06,1.15-.38.96-.92-.44-1.21-.63-2.63-2.32-3.05-.73-.18-1.56,0-2.12-.28-.92-.47-1.24-.72-1.25.6-.02,1.21-1.35,1.7-2.47,1.01-.42-.26-.78-.52-1.27-.18,1.04,2.33.54,3.35-1.83,4.06ZM270.03,244.41c.56-.72-.08-.98-.07-1.43.02-.67.6-.88.91-.48.75.95,1.94,2.06,1.31,3.27-.62,1.19,1,.75.75,1.43.73.17,1-.34,1-.83,0-.98.3-1.87-.23-2.98-1.08-2.26-3.18-3.46-4.77-5.18-.43-.46-.96-1.54-1.92-.61-.67.64-.86,1.26-.2,2.2,1.07,1.54,3.64,2.01,3.22,4.61ZM183.85,190.77c.48-.06,1.55.36,2.24-.5.91-1.14,1.74-2.34,2.54-3.55.37-.56.18-1.14-.57-1.07-1.76.15-3.76-.29-4.81,1.8-.34.68-1.05,1.19-1.58,1.78-.3.34-.76.68-.54,1.18.23.53.83.3,1.27.35.33.04.68,0,1.45,0ZM222.52,142.19c.47-1.48,1.26-1.62,2.25-.74.5.45,1.15.53,1.28-.1.22-1.16,1.08-1.33,1.95-1.64.45-.16.9-.5.9-.97,0-.58-.65-.61-1.06-.73-1.29-.37-2.6-.65-3.9-1-1.5-.4-2.25.65-2.1,1.61.17,1.07-.28,2.23.68,3.57ZM89.81,27.02c-.21.67.25,1.1.52,1.6.39.74,1.04,1.51,1.04,2.26-.01,1.81.02,2.2,1.5,3.51,1.36-2.05.71-4.37,1.04-6.56.34-2.26-.83-2.41-2.49-2.39-.33.79.8,1.59.02,2.23-.75.61-.89-.81-1.62-.65ZM195.53,191.96c3.59,1.58,7.02,1.32,10.46.56-3.39-1.45-6.76-2.98-10.46-.56ZM105.6,179.73c.29,1.59.4,2.86,1.42,2.98,1.06.13,2.24-.88,3.32.18,1.3-1.29,2.26-.38,3.37.38.59.4,1.31-.14,1.78-.58.55-.53-.04-.95-.36-1.33-.89-1.08-1.82-.38-2.85-.18-1.17.23-1.94-1.99-3.35-.93-1.13.85-1.99.64-3.34-.52ZM199.31,181.78c1.36-.99,3.11-.76,4.44-1.59.34-.21,1.29-.4.78-.77-.96-.68-.41-1.01,0-1.51.38-.46.11-.87-.17-1.25-.18-.26-.44-.66-.77-.31-1.09,1.11-2.19,2.11-3.96,1.85-.09-.01-.21.32-.36.44-1.17,1.02-.34,2.03.05,3.13ZM217.47,130.93c2.46-.11,4.18-1.16,6.1-1.96,2.28-.94,2.1-2.1,2.34-4.21-2.47,2.86-6.07,3.31-8.44,6.17ZM103.52,44.18c-.56-.6-1.44-.94-.71-1.93.27-.36-.15-1.46-1.01-1.6-.88-.14-1.66-.46-2.48-.72-1.06-.34-1.45.66-1.58,1.35-.23,1.18,2.54,3.42,3.68,2.96.7-.29,1.27.03,2.11-.06ZM66.62,77.02c-1.71-.9-3.06-1.97-4.74-2.45-.44-.13-.34-1.46-1.22-.56-.59.61-.71,1.36-.27,2.17,1.33,2.44,2.93,2.79,5.28,1.17.21-.14.49-.18.95-.33ZM193.4,19.81c.63-.53,1.58-.75,1.48-1.87-.1-1.03-.31-2.02.18-3.12.31-.71-.6-1.51-1.23-2.08-.33-.3-.78-.16-1.11.1-.67.53-.56,1.16-.43,1.93.19,1.15,1.26,2.28-.05,3.59-.59.59.42,1.16,1.17,1.45ZM196.26,151.77c-2.3.13-3.88,1.49-5.72,2.34-1.49.68-.33,1.54.14,1.77,1.11.54,2.25-.42,3.03-.85,1.12-.62,1.72-2.13,2.55-3.26ZM266.07,208.77c1.06-.11,2.15-.62,3.05-1.4.68-.58-.09-1.43-.42-1.28-1.57.72-3.31-.59-4.76.46-.39.28-.82.79-.83,1.2-.02.48.05,1.54,1.09.82.69-.47,1.12.07,1.86.19ZM12.06,130.92c-.38.09-.52.3-.46.56.03.13.24.34.35.33.29-.02.43-.28.4-.54-.02-.14-.2-.26-.28-.36Z"/>
      <path d="M30.4,94.19c-1.25-.05-2.05,1.44-3.62,1.4-1.81-.05-3.49-.3-5.02-1.17-.7-.4-.65-1.89-.6-1.9,1.64-.5,1.44-2.16,2.24-3.13.72-.87,1.12-.39,1.94.5.91.99,2.29,1.49,2.78,2.98.16.5.86-.25,1.23-.57.54-.47.99-1.21,1.87-.87.8.31,1.92.85,1.77,1.61-.18.92-1.15,1.59-2.59,1.15Z"/>
      <path d="M11.83,145.63c-.7-.79-1.22-1.57-1.92-2.14-1.03-.84-2.11-2.07-2.89-3.72.81-.05,1.59-.16,2.35-.11.49.03.76,0,.92-.48.19-.57.13-1.52,1.12-1.28,1.03.24,2.09.55,2.87,1.34.15.15.24.54.14.7-.2.34-.57.24-.88.06-.5-.27-.72-1-1.48-.86q1.16,1.58,4.84,1.94c-1.74.47-2.73,1.57-4.39.86-.79-.34-.63.66-.46,1.02.37.82.59,1.56-.22,2.67Z"/>
      <path d="M220.17,43.31c.08-1.62,2.22-3.65,3.83-3.88,1.28-.18,1.04.84,1.29,1.35.98,2.05-.21,4.27-2.44,4.71-1.29.26-2.75-.93-2.68-2.18Z"/>
      <path d="M11.03,133.76c.06-.29.04-.67.43-.7.44-.03.56.4.76.69-.4,0-.79,0-1.18.01Z"/>
      <path d="M12.06,130.92c.08.1.26.22.28.36.04.26-.1.51-.4.54-.11,0-.32-.2-.35-.33-.06-.26.08-.48.46-.56Z"/>
    </g>
  </g>
</svg>