<?xml version="1.0" encoding="UTF-8"?>
<svg fill="#6A7F6B" id="Capa_2" data-name="Capa 2" xmlns="http://www.w3.org/2000/svg" viewBox="0 0 355.97 321.95">
  <g id="Layer_1" data-name="Layer 1">
    <path d="M99.93,171.4c-.79.47-.41,1.99-1.53,1.86-1.3-.15-.94-1.6-1.41-2.46-.97,2.8-5.63,4.1-7.62,2.02-1.38-1.44-2.98-1.66-4.77-1.66-.4,0-.68.03-.6.41.5,2.35-.87,2.1-2.41,1.85-1.1-.18-1.81,1.61-3.18.72-.17-.11-.1.49-.11.77,0,.39.54,1.02-.23,1.11-.63.07-1.32.18-1.86-.57-.57-.79-.61-3.05-2.55-1.31-.04.03-.22-.03-.22-.03.29-2.85-3.24-.31-3.58-2.55-.13-.81-.84.19-1.29.28-.7.14-1.2.7-.72,1.37.7.96.35,1.92.2,3.07.92-.51,1.71-.93,2.46-1.34.46.53.22.95-.07,1.14-1.7,1.12-2.48,2.22-1.54,4.53.47,1.15-.6,3.05-1.24,4.49-.4.89-1.07.2-1.42-.3-.62-.89-1.18-1.8-2.55-1.65.35,1.58,1.13,3.01.72,4.63-.12.45-.13,1.01-.7,1.08-.55.07-.82-.41-.98-.85-.49-1.39-.81-2.84-1.76-4.04-.26-.33-.26-1.06-.91-.72-.66.34-1.4.76-1.78,1.35-.29.46.24.95.84,1.16.4.14,1.12,5.84.8,6.11-.64.53-1.12.25-1.59-.29-.73-.84-1.22-.9-1.48.39-.71,3.56-2.78,5.1-6.37,4.83-.54-.04-.82-.41-1.09-.79-.84-1.17-1.71-2.13-3.41-1.96-1.12.11-1.32-.58-.65-1.49.35-.47.65-.99.89-1.67-1.13.91-2.18,1.6-3.4.32-.22-.23-.67-.2-.84.09-1.29,2.31-1.9.73-2.6-.43-.38-.63-.93-.98-1.68-1.15-.78-.18-1.99.15-2.18-.89-.21-1.12,1.19-1.25,1.91-2.09-1.06-.96-2.48-1.86-1.52-3.64.17-.32,0-.63-.35-.73-.8-.21-1.76-.14-1.58-1.5.18-1.38,1.26-1.4,2.2-1.72.04-.52-.47-.51-.74-.72-.49-.39-1.12-.74-.9-1.48.21-.71.9-.86,1.53-.82.98.07,2.35.05,2.26-.97-.11-1.28.61-2.74-.39-3.88-.5-.57-1.16-1.57-1.9-.08-.68,1.37-1.48,1.02-1.94-.13-.53-1.34-1.29-2.02-2.8-1.86-.97.1-1.71-.25-1.32-1.52.15-.5-.18-.98-.64-1.12-2.43-.74-1.16-1.6-.09-2.4,1.05-.79.5-1.27-.27-1.72-1.57-.91-2.69-.37-3.29,1.19-.54,1.42-2.19,1.8-3.32,2.66-.97.74-1.66,1.56-1.46,2.68.26,1.45-.42,2-1.6,2.35-1.15.35-2.35.46-3.27,1.51-.4.46-1.6.57-2.07-.25-.48-.84-.8-1.3-1.62-.4-.06.07-.39.03-.41-.02-.54-1.58-2.13-2.26-3.02-3.54-.56-.8-.13-1.3.37-1.83,1.19-1.25.62-1.7-.79-1.84-.57-.06-1.49.21-1.57-.61-.09-.88,1-.78,1.52-1.19-.34-.64-1.55-.54-1.44-1.36.13-1.04,1.3-.54,1.93-.93.17-.59-.42-.75-.65-1.12-.25-.39-.67-.77-.32-1.24.29-.39.71.03,1.05.01,2.08-.1,4.16-.25,6.24-.44.73-.07.62-.7.32-1.04-.9-1.03-1.04-2.33-1.33-4.02q-.64,2.7-3.01,1.54c-.97-.48-1.91-1.39-1.54.88.28,1.67-1.2,1.36-2.01.86-.99-.62-1.58-1.2-3.1-.95-1.5.25-3.11-1.3-4.23-2.66-.88-1.06.03-1.56.86-1.87.79-.29,1.49-.49,1.27-1.58-.44-2.15.94-3.34,2.46-4.37.96-.65,1.98-1.19,2.47-2.28-.24-.54-.67-.4-1.04-.44-.58-.07-1.09-.27-1.21-.91-.13-.7.46-.87.91-1.18,1.17-.8,3.05-.79,3.21-2.76,0-.06.12-.16.14-.16,2.21,1.14,4.03-.74,6.07-.76.52,0,1,.21,1.52-.12.64-.4,1.54-1.11,2.05-.24.62,1.05-.89,1.17-1.33,1.82,2.26.32,4.56,1.57,6.52-1-.07,1.44-.59,2.72.53,3.64,1.08.89,2.26.07,3.37,0,.93-.06,1.74-.85,1.57-1.72-.39-1.93.98-2.2,2.45-2.85-1.78-.65-3.05-2.81-4.98-.62-.47-1.09-2.68.77-2.59-1.56.02-.42-1.49-.09-2.12-1.18-.5-.86-1.01-1.26-.15-2.02.65-.58.54-1.21.31-1.92-.2-.62-.93-1.25-.2-1.91.74-.66,1.6-.44,2.42-.09.34.14.67.3,1.1.49.93-3.34-3.65-2.68-3.34-5.3-.91.11-.89.78-1.16,1.21-.34.53-1.17.89-1.2.28-.14-2.38-3.65-1.23-3.51-3.48.05-.77,1.23-1.1,2.17-1.67-1.08-.74-2.42-1.36-1.69-3.01.11-.26-.49-.67-.58-.53-1.54,2.38-3.01-1.2-4.53-.04-.1.08-.42-.12-.63-.18.64-1.61-2.29-2.53-.83-4.32.13-.16.2-.51.11-.67-1.33-2.56-.06-2.59,1.91-2,.17.05.58-.08.6-.18.42-2.57,3.29-1.73,4.07-2.61,2.43-2.74,3.87-2.6,5.61.34.1.16.76.1,1.12-.02.59-.19,2.27-3.92,2.1-4.53-.84-2.98-.58-3.45,2.54-4.31-.4-1.38-2.18-3.1.73-3.88.48-.13.27-.83.09-1.26-.14-.35-.33-.86-.81-.57-2.6,1.6-.99-1.05-1.66-1.58-.78-.37-1.36.76-2.4.58.52-1.72,1.96-1.85,3.24-2.25.76-.23,2.1-.04,1.04-1.67-.8-1.23.44-1.47,1.27-1.41,1.56.11,2.78-.18,3.36-1.81.07-.2.29-.49.46-.5,1.81-.11,2.41-.86,1.74-2.67-.23-.63,2.57-1.46,3.33-.91.42.3.73.75,1.3,1.36.03-2.47,1.28-2.4,2.75-1.61.79.42,1.67.67,2.02-.19.46-1.13-1-.63-1.26-1.05-1.32-2.07-3.96-1.21-5.5-2.88-.16.99.88,1.81.15,2.39-.9.71-1.51-.31-2.16-.79-.22-.17-.42-.51-.73-.08-1.89,2.67-1.96.1-2.58-.89-.08-.12-.17-.23-.27-.37-.71.32-.47,1.09-.79,1.59-.21.32-.48.96-.6.93-1.01-.24-1.58-1.52-2.85-1.21.44-2.52-1.14-.17-1.54-.64.76-1.9,1.97-2.6,5.2-2.97-.67-.34-1.3-.63-1.9-.97-1-.57-1.44-1.31-.32-2.14.88-.65,1.11-1.36.31-2.11-1.01-.96.16-2.05-.17-2.78-.72-1.61-1.15-2.87-.24-4.71.72-1.47-.31-3.8,2.78-3.67.81.03,2.17-.51,2.49-2.15.33-1.74,1.35-1.76,2.51-.33,1.2,1.49,3.48,1.3,4.21-.4.47-1.09,1.09-1.86,2.12-2.59.62-.44,2.99-1.06,1.44-3.07-.08-.11,1.62-1.84,2.69-2.5,1-.62,1.43.32,1.81,1.17.33.74.92,1.28,1.88.69.05-1-1.34-.82-1.35-1.9.84-.59,1.66.31,2.75.24-.84-1.15-2.82-2.82.68-2.44.48.05.71-.29.62-.75-.14-.79-1.13-1.67-.21-2.33.97-.7,1.54.75,2.41.93q1.15-2.49,2.76-.25c.14.19.23.51.4.56,3.1.77,3.64,3.46,4.42,5.92.22.69.77.66,1.22.91,1.23.69,2.21,1.37,1.25,3.11-.84,1.52-.05,2.87,1.26,3.78,1.03.71,2.26,1.15,1.61,2.83-.22.57.39.92.76,1.32,1.37,1.52,2.69,3.09,1.78,5.38-.08.21-.21.5-.14.67.37.85-.18,1.93.65,2.63.11.1.49.05.62-.07.82-.77.54-1.7.33-2.62-.12-.53-.16-1.08-.17-1.63-.01-.54-.03-1.18.57-1.43.7-.28.98.35,1.2.82.38.81,1.04,1.38,1.82,1.15.99-.29.48-1.32.48-2.02,0-.57-.04-1.06.48-1.46.3-.23,1.12-.14.76-.84-.24-.46-.77-1.01-1.31-.8-1.8.71-1.62-.76-1.9-1.79-.6.23-1.1.44-1.61.61-.5.17-1.1.52-1.48-.07-.29-.45.14-.87.42-1.24.05-.06.13-.12.14-.18.35-1.72-.23-3.85,2.32-4.56.37-.1.46-1.4-.21-2.11-.45-.47-1.16-.86-.87-1.83.94-.16,1.43.88,2.47.9.12-1.11-.39-3.05,1.95-2.14,1.44-2.39,3.98.68,5.52-1.35-.13-.49-.93-.42-1.33-.85-.36-.39-1.04-.61-.96-1.23.11-.84.79-.55,1.3-.46.47.09.74-.06.88-.51.54-1.8,1.41-1.04,2.11-.2.77.92,1.76,1.15,2.69.73.83-.38,1.43-1.21.9-2.32-.09-.18-.03-.64.04-.65,2.89-.67,3.41-3.69,5.31-5.32.22-.19.68-.47.76-.4,1.39,1.24,2.45.92,3.49-.5.3-.41.84-.03,1.17.36.3.36.49,1.28,1.15.51.51-.6.44-1.51-.4-1.73-3.73-1-.63-2.11-.13-3.38-.45-.1-1-.23-1.55-.35-.7-.15-1.2-.59-1.1-1.29.15-.96.93-.4,1.47-.47,2.28-.31,4.38.51,6.61,1.14-.79-1.31-2.69-2.14-.97-3.93.36-.38-.33-.79-.68-1.05-.81-.59-1.11-1.15-.42-2.12.48-.67.49-1.46-.58-1.85-2.1-.76-1.37-1.72-.06-2.53,1.03-.63,1.41-1.19.35-2.12-.39-.34-1.34-.61-.41-1.37.57-.47.61-1.79,1.88-1.19,1.7.81,2.63-.1,3.36-1.49.29-.55.57-1.1,1.24-1.34,2.12-.75,3.78-1.56,1.91-4.29-.79-1.15.75-1.29,1.47-1.28,1.07,0,1.98.12,2.37-1.22.24-.83.73-1.46,1.86-1.41,1.62.07.25,1.49,1.11,1.98.25-.19.55-.41.85-.63.5-.36,1.05-.92,1.67-.5.69.46.5,1.24.26,1.92-.19.54-.92,1.07-.18,1.64.79.6,1.47.05,2.12-.38.62-.4,1.53-1.37,1.94-.43.66,1.52,1.25,3.01,2.09,4.48.66,1.16,1.07,1.52,2.33,1.59-.45-.59-.85-1.04-1.16-1.54-.37-.58-.91-1.26-.27-1.89.53-.52,1.16,0,1.73.21.54.2.9,1.09,1.61.57.67-.5,0-1.15.03-1.74.01-.22.09-.44.23-1.03.87,1.7,2.45,1.06,3.62,1.62.65.31.93.11.92-.75-.02-1.67,1.33-1.71,2.01-.9.7.84,2.1,1.15,2.14,2.6.02.84.82.78,1.46.74,1.67-.11,3.63-.58,2.72,2.35-.06.18.23.56.45.73,1.43,1.1.62,2.03-.23,2.89-1.05,1.07-.96,3.62.21,4.5.56.42,1.07.6,1.64,0,.68-.71.27-1.06-.37-1.41-.62-.33-1.41-.72-1.1-1.55.29-.8,1.24-.43,1.88-.63.59-.19,1.46.4,1.73-.69.22-.89.31-2.11,1.4-2.2,1.13-.1,1.05,1.38,1.79,2.03.34-.31.66-.64,1.01-.93.41-.34.85-.82,1.43-.48.63.37.79,1.1.48,1.65-.83,1.51-.09,2.26,1.15,2.93.74.4.93,1.17,1.07,1.98.21,1.15,1.17,1.69,2.17,1.86,1.14.2.65-1.23.96-1.37,1.63-.78,3.45-.93,5.23-1.2,1.54-.23,1.34.82,1.41,1.74.01.18.23.44.41.5.37.12.65-.15.6-.47-.21-1.57,1.01-.85,1.71-1.01-.18-.74-.43-1.4-.5-2.08-.22-2.16.04-1.56,1.84-1.66,2.77-.16,1.31,1.3,1.64,2.33.33,1.02,1.8,1.58,1.38,3.1-.11.4.12.9-.19,1.32-.57.77-.73,1.75-.08,2.37.91.88.82-.81,1.51-.82,2.06-.02,2.34-1.01,1.5-2.7-.4-.8.61-.94.85-1.42,1.29-2.59,1.35-2.52,3.13-4.18.59-.55.63-1.69.94-2.61-.94-.23-1.54,1.16-2.33.53-.79-.63-.16-1.63-.13-2.44.03-.86.2-1.37-.83-1.86-1.01-.49-1.92-1.55,0-2.24.85-.3,1.16-.66.76-1.53-.26-.57-.49-1.26.19-1.68.68-.42,1.36-.09,1.96.31.26.17.45.43.68.64.97.86.7,3.19,3.02,2.49,1.29-.39,2.78.36,4.28-1.27-.31,1.47-.44,2.3-.68,3.09-.24.81-.3,1.54.47,2.1,1.73,1.28,1.35,2.53,0,3.85-.79.78-1.37,1.69-.81,2.92.82,1.78,1.97,3.13,4.07,3.31.17.01.46-.17.51-.32.67-1.98,1.77-1.12,2.62-.29.88.87,1.67,1.52,2.76.48,1.07-1.02,1.17-2.11.08-3.25-.37-.38-.64-.89-.85-1.39-.27-.61-.27-1.27.34-1.69.52-.36,1.03,0,1.54.2.83.34,1.07,1.92,2.48,1.07,1.47-.89.16-1.96.3-2.93.05-.3-.06-.63.01-.93.18-.79.03-1.96,1.16-2.01.91-.04,1.07,1.01,1.31,1.73.73,2.22.31,4.74,1.87,6.77.38.5.32,1.4-.34,1.92-.39.3-1.42-.03-.9,1.09.38.81.87,1.03,1.68.67.28-.12.59-.22.81.15,0,.58-.48.76-.89.97-1,.49-1.88.98-.78,2.23.32.36.43.88.12,1.3-.4.56-1,.49-1.46.16-1.16-.84-1.81-.29-2.24.78-.74,1.83-1.97,3.56-.89,5.74.4.81.44,1.81.57,2.73.2,1.32-.1,2.13-1.61,1.26-1.07-.61-1.58-.47-1.56.88.02,1.12-.39,1.86-1.72,1.34-1.24-.48-.85.31-1.14,1.07-.59,1.58-.24,4.37-3.39,3.77-.9-.17-.45.57-.55.9-.13.42-.09,1.15-.76.82-2.68-1.29-1.36,1.02-1.54,1.77-.22.92.8,1.59.79,2.62,0,.56,1,.59,1.57.6,1.09.02.73-.97.94-1.61.85.06.81,1.12,1.49,1.3.36.1.8.27,1.11.16.44-.16.23-.64.21-1.02-.21-3.4.42-4.18,3.74-4.25,1.54-.03,2.77.06,2.11-2.16-.29-.96.37-1.57,1.36-.84,1.3.96,2.69.39,2.91-.64.41-1.96,1.99-1.93,3.17-2.38,1.83-.69,4-.58,3.93-3.58-.02-.91,2.1-.92,2.63-.43,2.08,1.92,4.96,2.31,7.09,4.1,1.14.96,1.55,1.5,0,2.27-.9.45-1.09.75-.14,1.63,1.77,1.64,3.29,3.57,4.88,5.4.29.34.58.88.2,1.29-1.15,1.24-.29,2.88-.21,3.96.17,2.19-.87,1.75-1.98,1.76-.66,0-1.48-.52-1.86.37-.31.74.21,1.4.76,1.82,1.1.84,2.11,1.56.33,2.73-.42.28-.27.82-.17,1.3.54,2.63-.34,3.86-2.72,5.04-2.01,1-4.23,1.39-6.18,2.45-1.14.62-2.07-.26-3.26-.12.66,1.38-.73,2.96.64,4.22-1.09.84-1.39,2.75-3.23,2.54-1.92-.23-3.12,0-3.03,2.46.08,2.01-1.75,2.99-3.8,2.34-.36-.12-.7-.49-.84.22-.28,1.4-1.17,1.46-2.27,1-.86-.36-1.27.17-1.72.77-.32.42-.38,1.59-1.42.44-.54-.6-.97.4-.81.73.44.91-.11,1.65-.14,2.46-.02.81-.32,1.22-1.15.9-.74-.29-1.64-.81-1.93.29-.29,1.07.81,2.06,1.54,1.99,2.08-.2,2.42,2.68,4.68,2.27.86-.15-.2,1.54.57,2.36,1.09-.3,1.2-1.21,1.08-2.11-.12-.92.08-1.49,1-1.81,1.68-.59,3.59-.86,3.07-3.58-.13-.67,1.62-1.14,2.41-1.67,1.67-1.12,2.76-2.74,4.3-3.93,1.66-1.27,2.79-1.46,3.55,1.01,1.11-1.44,2.62-2.02,3.92-1.16,1.16.76.45,2.1-.29,3.11,1.84.27,2.42-.8,2.47-2.34.82.16.87.8,1.09,1.26.51,1.05.91,1.69,2.17.6,1.26-1.09,2.19-.75,2.03,1.12-.09,1.09.36,1.1,1.26.84,1.51-.43,2.69-.35,1.66,1.75-.09.19-.16.58-.08.63,2.69,1.75-.46,2.94-.47,4.44,0,.33-.88.9-.68,1.36.95,2.19-.39,3.69-1.56,5.13-.87,1.07-.63,1.48.41,2.1.98.59,1.68,1.4.05,2.17-.26.12-.47.36-.7.54,1.86,1.68-1.02,3.39.22,5.16,2.28-1.62,3.51.27,5.22,1.55,1.67,1.24,2.84,4.2,6.14,2.16-.79,1.21-1.66,1.9-.09,2.77,1.04.58.2,1.82.17,2.79-.03.97.4,1.92-1.2,1.74-.44-.05-.64.39-.78.76-.11.29-.15.61-.27.89-.13.32-.53.58-.74.4-1.94-1.72-3.9,2.73-5.84-.04-.26-.37-.61-1.39-1.36-.52-.55.64-.34,1.32.37,1.79.59.39,1.18.76,2.02,1.3-1.5.72-2.24-.87-2.93.09-.6.83-.58,1.8.11,2.79.69.99.61,2.09-.55,2.84-.69.44-.69.97-.22,1.57.31.4.73.74,1.18.33,1.43-1.32,3.34-.32,5.04-1.12,1.17-.55,1.4-2.56,3.42-2.03.67.18,2.07-.3,3.09-.52,2.09-.44,2.29.8,2.47,2.06.16,1.07.41,1.95,1.3,2.62,1.08.8,2.3,1.62.09,2.56-.13.06-.23.2-.34.3,1.64,1.83.2,3.22-.59,4.77-.22.42.5,1.26-.37,1.58-.65.24-1.18-.24-1.7-.58-.49-.32-.64-1.14-1.64-.99.17,1.19.57,3.24-.59,3.27-1.99.05-1.59,1.23-2.15,2.25-.66,1.21-1.27,2.06-.32,3.38.26.36-.13,1.18-.23,1.84,1.12.24,1.61-1.18,2.66-1.01.4.56-.09.85-.34,1.22-.38.56-1.58.54-1.37,1.38.21.88,1.28.78,2.01.9,1.59.26,3.3,1.19,4.55-.88.34-.57,1.2-.88,2.07-.28,1.02.7,1.11-.69,1.72-.99.63-.31.52-.86-.03-1.3-.55-.44-1.2-.93-.63-1.74.46-.65,1.24-.67,1.93-.52,1,.21,1.84.32,2.28-.9.4-1.11.89-2.4,2.24-2.44,1.54-.05,1.2,1.76,2.09,2.72.65-2.15,2.43-2.12,4.1-2.29.21-.02.61-.08.61-.07.37,2.21,3.26,1.15,3.92,3,.09.24.63.58.7.53,1.85-1.39,4.6.01,6.19-1.88.92-1.09,1.31-.79,1.78.23.1.21.2.43.27.65.3.89.91,1.71,1.84,1.41.95-.3,1.36-1.42,1.02-2.33-.66-1.75-.58-2.56,1.6-2,.97.25.78-.69.9-1.26.28-1.42.92-1.51,1.86-.5.32.34.63.71,1.02.96.68.44,1.38.27,1.95-.22.64-.56,0-.94-.3-1.36-.36-.51-.83-1.05-.35-1.68.42-.56,1.09-.53,1.72-.44.6.08,1.4.48,1.75-.14.73-1.32,2.05-1.86,3.13-2.72-1.31-1.43.02-2.48.34-3.71.97.25.48,1.19,1.03,1.57.77-.34,1.35-.95,2.3-1.02,2.64-.18,3.32.61,2.11,3-.72,1.43.41,1.37.97,1.3,1.39-.17,2.53-.68,2.11-2.56-.37-1.69-.15-3.41-.89-5.15-.67-1.59,2.04-4.51,3.98-4.85.57-.1,1.07-.21,1.37-1.03-.83-.27-2.4.39-2.21-1.55.05-.52-1.01.65-1.69.32-.03-.14-.1-.4-.08-.41,2.49-.93,1.82-3.39,2.13-5.13.2-1.16.7-1.66,1.37-2.28,1.14-1.06,2.33-2.08,3.41-3.2.5-.52.91-.9,1.56-.38.79.64-.02,1.1-.28,1.57-.22.4-.61.71-.9,1.07-.42.52-.77,1.1,0,1.57.59.36,1.22.4,1.57-.37.41-.89.7-1.15,2-1.28,2.41-.25.53-1.76-.11-2.78.64-.1,1.16-.24,1.68-.24,1.13.01,2.02-.11,1.63-1.64-.11-.43-.11-1.03.38-1.24.59-.25,1.13.16,1.39.61.8,1.35,2.03,2.64,1.14,4.41-.32.63-.12,1.29.35,1.39,1.71.36,1.49,2.14,2.53,2.9-.45.62-.76.19-1.08.1-.88-.25-2.15-1.13-2.55-.62-.71.92-.88,2.36-.37,3.56.81,1.93,1.26,3.41-1.79,2.38-.34-.12-.74.08-.66.41.36,1.53-1.82,3.48.98,4.72-1.75.07-3.53-.54-4.28,1.65-.28.82-.54,1.4.16,2.09.54.53,1.31,1.14.83,1.99-.54.95-1.56.24-2.64.31,1.39,1.8,2.18,3.6,2.04,5.73-.03.48.26,1.33.6,1.44,2,.65,2.77,2.96,4.93,3.42,1.38.3.56,1.25.14,1.76-.97,1.18-1.46,2.33-.63,3.65.96.41-.34-2.9,1.53-.71.04.05.46-.07.53-.21,1.89-3.32,2.06.27,3.08.55-.2-1.4,1.18-1.88,2.15-2.06,1.23-.24.95,1.18.99,1.88.06,1.19.74,1.46,1.67,1.9,1.84.87,4.3.61,5.41,2.89.32.65.97.5,1.63.5,2.7,0,5.36-1.15,8.21-.16.02-.48.04-.86.05-1.23.03-.71.04-1.58.75-1.85.84-.31,1.18.6,1.53,1.15.66,1.03,1.66,1.05,2.69,1.07,1.27.03,2.14.36,1.18,1.78-.68,1-.29,1.45.69,1.6,1.38.2,3.1,1.91,3.87-.93.16-.61,1.35-1.34,1.94-.91,1.03.74,2.6,1.39,1.86,3.45.96-.39,1.65-.67,2.55-1.03-.04,1.57-1.54,1.61-2.1,2.67,2.94.62.25,2.87,1.21,4.17,0,0-.25.29-.31.27-2.58-.93-1.45,1.15-1.7,2.1-.12.46-.21,1.01-.68,1.15-.52.16-.8-.35-1.07-.74-.46-.66-.52-2.28-1.92-.82-.05.06-.54-.13-.55-.22-.09-2.04-3.04-1.17-3.24-3.15-.01-.13-.86-.24-1.32-.24-1.16,0-2.53,1.38-3.26-.93-.24-.76-3.21,1.21-3.16,2.48.01.37.38.99.28,1.07-1.88,1.4-1.98,3.41-2.05,5.47,0,.11-.62.37-.78.28-1.51-.87-1.63.3-1.95,1.25-.15.43-.34.96-.9.96-.62,0-.46-.77-.75-1-1.62-1.3-2.95-2.79-3.78-4.71,0-.02-1.24-.93-1.39.27-.18,1.53-.98,1.06-1.8.71-.58-.24-1.41-1.22-1.69-.27-.23.78-1.15,2,.27,2.91,1.13.72,2.5,1.52,1.74,3.32,1.85.59,3.23,1.49,2.48,3.78,0,0,.26.14.41.15.87.07,2.13-.66,2.45.57.36,1.34-1.31,1.5-2.04,2.41.6.24,1.17.41,1.69.68.56.29,1.19.68,1.12,1.37-.09.83-.9.72-1.49.78-1.54.15-2.12,1.13-2.25,2.52-.15,1.6,1.1,1.42,2.05,1.57,1.1.18,1.8,1.12,2.85,1.58.07-.88-.53-1.22-.89-1.68-.37-.48-.8-.92-1.47-1.67,2.36.33,2.52-1.87,3.82-2.74.79.94-.45,1.64-.09,2.47.71.33.92-.31,1.23-.7.33-.42.54-1.02,1.24-.86.62.15,1.03.77.91,1.22-.7,2.42,1.83,3.74,1.91,5.93.03.9,1.25,2,.24,2.71-.94.67-1.38-.97-2.25-1.22-.8,2.07-1.56,2.2-2.2.41-.22-.62.16-1.4-.64-2.05-.77,1.84.94,4.4-2.09,5.36,1.24.62,1.68-.53,2.65-.34-.48,1.18,1.12,3.15-1.6,3.39-.31.03-.64.32-.47.67.71,1.44-.04,2.27-.86,3.44-.67.95-1.02,1.33-2.11.62.13,1.24,1.07,1.78.89,3.05-1.15-1.57-3.31.08-4.62-2.47,0,1.73.07,2.78-.02,3.81-.11,1.3-.94,1.79-1.82.79-.78-.89-2.58-.64-2.56-2.33-1.22.15-2.24.8-3.31,1.32-.67.32-1.03.76-.71,1.68.96,2.8.91,2.83-1.75,2.52-.44-.05-.77-.01-.98.39-.92,1.75-1.61,1.27-2.32-.19-.34-.7-.84-1.24-1.81-1.23-1.76.02-2.82-.43-.99-2.15.35-.32.68-.7.38-1.22-.25-.43-.68-.21-1.05-.24-.86-.07-2.22.53-2.38-.68-.15-1.18,1.28-1.37,2.21-1.71.43-.16.92-.16,1.5-.26-.71-.2-1.36-.3-1.93-.56-.77-.35-1.77-.8-1.46-1.81.26-.87,1.26-.78,2.04-.62,1.9.39,2.33-1.18,3.01-2.32.32-.54-.09-1.3-.66-1.22-2.18.3-2.8-2.05-4.58-2.54-.89-.25-2.99-.72-1.86-2.86.09-.18-1.05-1.01-1.58-1.5-.79.02-.65.64-.8,1.03-.61,1.58-1.29,1.34-2.01.08-.47-.83-.92-1.63-2.09-1.56-.69.04-1.58.08-1.79-.74-.21-.82.68-1.13,1.22-1.54.31-.23.67-.39,1.09-.63-.39-1.05-2.48-1.08-1.8-2.55.57-1.22,2-.27,3.24-.7-.88-.6-.51-2.07-2.02-1.97-.39.02-.52-.59-.33-.63,2.32-.52.56-4.8,3.99-4.33.15.02,1.59-.7.17-1.79-1.15-.89,1.18-1.26.93-2.32-3.19-.57-3.86-1.82-3.49-6.79-1.71.84-2.54.15-2.44-1.58.11-1.92-.86-1.55-2.03-1.17-1.28.41-2.29,1.84-3.9,1.01.02,1.97-1.05,3.66-.93,5.67.1,1.73-1.23,3.52.36,5.2.74.78,1.39,1.55,2.56.77.53-.35,1.34-1.22,1.6-.15.21.88,1.75,2.24-.41,2.94,2.48,1.36,2.49,1.37.42,3.09-.49.4-.3.81-.22,1.26.08.46.22.92.22,1.38,0,.4-.59.9-.69.67-1.1-2.55-3.1,1.87-4.05-.54-.37-.95-.83-1.83-1.65-.76-1.78,2.3-2.29.7-2.96-.75-.12-.26-.02-.64-.44-.71-.23,1.6-.56,2.11-2.95,4.53-.93.6.43-2.9-1.4-.73-.13.15-.7.19-.83.05-1.88-2.04-5.3-1.93-6.63-4.73-.2-.43-.63-.52-.96-.17-1.05,1.1-2.75,1.09-3.7,2.63-.88,1.44-1.53-.11-2.07-.86-.39-.54-.17-1.73-1.48-1.27-1.22.44-1.05,1.17-.52,2.01.46.74.07,1.34-.52,1.52-2.01.6-1.59,2.25-1.29,3.45.57,2.28-.23,3.54-2.35,3.99-2.11.45-1.46,1.22-.4,2.16.29.26.53.62.86.78,1.27.62,3.9.96.27,2.24-.83.29-.58,1.19-.15,1.82.4.58.93,1.06,1.32,1.64.39.59.78,1.37.2,1.94-.6.6-1.14-.13-1.58-.5-1.1-.95-1.32-.2-1.39.71-.06.82-.01,1.66-.01,2.55-.9,0-2.24-.42-2.52-.56-2.05-1.08-3.84-2.67-5.64-4.19-.13-.11.34-.93.54-1.44-1.06-.72-1.91,1.16-2.8.21-.93-.98.47-1.78.59-2.71-.96-.25-.99.49-1.22.88-.52.87-1.14,1.17-1.78.23-.75-1.1-2.29-.61-3.14-1.83-.34-.48-.76,1.21-1.43,1.91-2.23-1.52-4.18-3.67-7.5-3.79,1.52-1.5,3.28-.98,4.73-1.4,1.57-.46,3.3-.25,1.05-2.47-.85-.84-.2-2.72-1.23-3.99-.98-1.21-1.82-2.67-.74-4.37.39-.61-.22-.77-.63-.97-.61-.28-1.19-.93-1.9-.26-.45.42-.82.92-1.35,1.51-1.86-2.33.48-3.75,1.25-5.11.77-1.36,1.12-2.08-.34-2.79-.68-.34-.73-.7-.85-1.36-.18-.92.87-2.76-1.47-2.49-.32.04-.28-.48-.15-.78.29-.66-.43-.95-.52-1.37-.31-1.41-2.87.28-2.65-2.18.07-.83-1.92-1.85-2.99-2.76-1.13-.96-2.3-1.88-3.45-2.82-.79-.65-1.49-1.22-2.14.23-.56,1.25-1.38.87-1.86-.08-.61-1.19-1.46-1.77-2.79-1.67-1.4.11-1.01-1.03-1.18-1.8-.86,0-1.28.49-1.51,1.19-.25.77-.13,1.92-1.44,1.66-1.08-.21-1.45-1.07-1.45-2.12,0-.21-.12-.42-.25-.82-1.23.68-2.36,1.91-3.76.23-.44-.53-.98.38-1.24.97-.28.63-.47,1.32-1.5,1.04-.49-.14-.59-1.71-1.36-.5-.63.99-2.3,1.79-1.04,3.39.6.75.38,1.63-.38,1.59-1.34-.07-.83,3.04-2.92,1.43-1.21-.94-2.66-.73-3.61.7-1.98,3-4.21,5.88-5.82,9.07-1.82,3.61-1.4,7.69-.86,11.52.93,6.59-.66,12.77-2.7,18.82-1.87,5.55-4.51,10.83-7.94,15.62-2.43,3.4-3.23,7.41-4.65,11.2-1.45,3.88-2.44,7.92-4.19,11.68-.55,1.19-.36,2.46-.36,3.7-.01,9.22.39,18.47-.68,27.64-1.23,10.58-1.17,21.2-1.67,31.8-.14,2.88-.09,5.79.07,8.67.08,1.52-.37,2.22-1.89,2.19-.47-.01-.94.02-1.41.02-7.27-.08-7.75-.6-7.19-7.98,1.12-14.71,2.4-29.4,4.81-43.98.63-3.78.42-7.66.12-11.47-.14-1.71-1.2-3.35-1.79-5.03-2.33-6.65-1.89-13.55-1.89-20.42,0-4.59.67-9.31-1.21-13.67-2.65-6.16-4.87-12.5-8.5-18.23-2.73-4.32-5.73-8.35-9.46-11.86-3.77-3.55-5.73-8.34-8.32-12.69-2.76-4.63-5.43-9.31-8.2-13.93-1.19-1.99-2.04-1.95-3.17-.02-.15.26-.38.71-.54.7-1.74-.11-3.79.21-5.13-.61-1.55-.94-3.14-1.88-4.68-2.88-.38-.24-.67-.39-1.02-.08-.3.27-.56.69-.26,1.02.56.62.07,1.53.44,1.97,1.9,2.31-.76,2.53-1.61,3.19-.96.73-1.33-.57-1.67-1.31-.36-.78-.67-1.84-1.77-1.29-1.15.57-.23,1.27.16,1.89.77,1.22.17,2.73.9,4.04.6,1.06.96,2.61-.25,3.43-1.08.72-1.55-.98-2.65-1.32ZM165.83,143.04c.03,5.79-.07,11.46-.69,17.11-.13,1.16.52,2.1.99,3.08,1.84,3.86,2.9,8.03,3.11,12.18.45,9.17.88,18.38-.24,27.57-.46,3.8-.4,7.67-.58,11.7,6.27-8.51,9.14-18.13,11.57-27.92,1.19-4.8,2.75-9.42,5.95-13.34,1.28-1.58.99-3.49-.66-4.64-.72-.51-1.3-.91-.89-1.84.51-1.15.25-1.59-1.05-1.39-.52.08-1.17,0-1.43-.57-.26-.58.17-1,.51-1.45.4-.51,1.55-.53,1.22-1.46-.37-1.03-1.43-.74-2.25-.78-1.35-.07-3.36.65-2.24-2.08.06-.14-.27-.53-.49-.67-.96-.63-1.86-1.37-3.19-.9-.66.23-2.06.05-1.43-.82,1.03-1.42-.92-1.38-.7-2.18.54-.8,1.94-.45,2.13-1.86-.94-.16-2.33-.14-1.4-1.8.2-.36-.22-.97-.53-.83-1.68.75-1.63-1.08-2.44-1.48-1.1-.55-.74-2.32-1.6-2.26-2.55.16-2.85-1.71-3.66-3.36ZM159.23,218.84c.24-.8.39-1.09.41-1.39.29-7.59.49-15.18-2.03-22.49-1.68-4.89-1.72-10.18-3.82-14.95-1.64-3.72-3.48-7.37-4.75-11.22-.94-2.86-2.86-4.24-5.28-5.49-1.73-.9-2.88-.22-2.77,1.28.18,2.4-1.53,3.86-2.1,5.84-.76,2.63-1.44,5.28-2.33,7.87-.77,2.26-.27,3.93,1.33,5.72,2.85,3.19,6.2,5.93,8.68,9.48,5.37,7.67,9.16,16.13,12.67,25.35ZM168.38,236.99c.14.04.27.07.41.11.44-1.4.86-2.8,1.32-4.19.89-2.66,1.61-5.39,3.05-7.83,3.13-5.31,6.38-10.54,8.73-16.27,1.73-4.22,2.99-8.62,3.36-13.11.38-4.65-.91-9.37.44-14.63-1.43,1.55-1.44,2.93-1.81,4.17-1.8,5.96-2.4,12.26-5.02,17.97-1.85,4.04-3.98,7.95-6.22,11.8-1.76,3.02-3.75,6.13-4.15,9.6-.47,4.08-.11,8.25-.11,12.38ZM162.76,200.6c1.94-5.58-7.62-33.65-12.6-37.92-.09.22-.3.48-.24.63,4.83,12.22,10.76,24.06,12.85,37.29ZM181.1,106.85c.14,1.27,3.91,2.99-.51,3.4-.31.03-.42.44-.34.77.09.38.36.46.71.31.35-.15.7-.36,1.08-.07.58.45.83,1.96,1.86.96.69-.67,1.26-1.69.74-2.96-.52-1.26.31-1.46,1.37-1.23.47.1.97.63,1.54-.15-.93-1.06-.9-2.53-1.44-3.8-.74-1.73-.55-2.46,1.47-1.68.46.18.98.29,1.28-.15.46-.67-.24-.92-.61-1.27-1.97-1.88-3.73-1.7-5.76.32-.71.71-1.71,1.38-.68,2.16,2.46,1.85.97,2.65-.72,3.39ZM134.71,179.36c.65-3.03,1.98-5.31,2.03-7.92.01-.67.45-1.93-1.01-2.24-.65-.14-.33-.76-.02-1.11,1-1.12.65-1.07-.66-1.75-1.98-1.02-1.95.19-2.66,1.19-1.91,2.73-2.22,5.35-.04,8.09.77.96,1.32,2.09,2.34,3.74ZM231.61,163.01c1.19-1.1,2.66-1.25,4.08-1.54.71-.14,1.49-.34,1.46-1.22-.03-.76-.91-1.04-1.4-.98-1.45.15-2.88,1.1-4.34-.04-.01-.01-.42.4-.58.66-1.11,1.78-2.67,1.4-4.25.9-.32-.1-.6-.68-.95-.17-.26.38-.42.9-.02,1.29.55.53,1.08,1.13,1.99,1.02,1.03-.13,1.75.35,2.38,1.17,1,1.32,1.76,3.39,4.07,1.54.44-.35,1.15.26,1.65.65.6.46.7,1.38,1.76,1.76-.69-1.59.63-3.79-1.56-4.44-1.31-.39-2.75-.97-4.29-.59ZM209.25,119.27c-.14-.31-.17-.47-.27-.58-1.87-2.24-1.87-2.26.84-2.77,2.2-.41,3.93-2.52,3.72-4.6-.09-.88-.64-1.45-1.54-1.43-.53,0-.85.42-.6.99,1.03,2.36-.62,1.7-1.82,1.7-.5,0-1.71-.73-1.28.75.51,1.73-.56,1.49-1.49,1.26-1.06-.26-2.05-.13-2.29.94-.4,1.74,2.66,4.18,4.73,3.74ZM316.91,188.6c-1.12,1.45.46,2.54.72,3.87.23,1.17,1.04.8,1.61.51.6-.3,1.45-1.11.76-1.59-1.29-.91-.36-1.52-.11-2.34.51-1.64-.77-2.36-1.82-3.14-.46-.35-.91-1.26-1.51-.73-.93.81.16,1.7.25,2.58.03.23.05.46.1.84ZM144.92,24.13c-1.18,2.12-1.17,2.1-3.28.71-.85-.56-2.13-1.08-2.47.18-.65,2.38.25,3.05,2.88,2.6.3-.05.62-.06.93-.02.83.11,1.8,1.21,2.45-.02.54-1.03.52-2.24-.51-3.44ZM218.47,103.77c-.34-.7-.55-1.11-.74-1.53-.68-1.49-.68-1.51.84-1.9.55-.14.5-.51.46-.89-.08-.68-.53-.58-1.04-.51-2.47.29-3.65,1.8-3.98,4.13-.08.52-.83,1.12.18,1.55.65.27,1.33.68,1.93.03.6-.63,1.23-1.1,2.36-.89Z"/>
  </g>
</svg>