<?xml version="1.0" encoding="UTF-8"?>
<svg fill="#6A7F6B" id="Capa_2" data-name="Capa 2" xmlns="http://www.w3.org/2000/svg" viewBox="0 0 296.9 317.72">
  <g id="Layer_1" data-name="Layer 1">
    <g>
      <path d="M264.06,143.43c-1.26.38-2.02,1.31-2.58,2.42-.47.93-.97,1.83-1.93,2.36-.5.28-.6.77-.5,1.27.13.65.25,1.33.51,1.93.49,1.15.54,2.37.75,3.56.02.1-.04.26-.12.32-.16.13-.36.07-.49-.06-1.11-1.17-2.5-1.93-3.93-2.6-.72-.34-.89-.3-1.4.32-.54.65-1,1.38-1.82,1.75-.39.18-.78.02-.82-.39-.06-.54-.08-1.09-.11-1.64-.04-.79-.1-1.57-.48-2.38-.45,1.69-.9,3.26-1.54,4.77-.04.1-.15.21-.26.24-.2.06-.35-.08-.41-.24-.43-1.14-.93-2.26-1.25-3.43-.59-2.18-1.55-4.22-2.35-6.32-.34-.91-.75-1.81-.92-2.77-.22-1.25-.13-2.4,1-3.3.73-.58.76-.9.31-1.55-1.39-2-2.82-3.97-4.25-5.94-.1-.13-.35-.32-.43-.28-.87.43-1.47-.39-2.22-.46-.3-.03-.44.14-.41.43.08.67.27,1.3.56,1.92.28.6.51,1.23.75,1.86.13.34.26.72,0,1.04-.3.36-.12.46.21.62.88.4,1.76.83,2.61,1.29.49.27.5.61.05,1.01-.74.65-1.34,1.38-1.83,2.25-.59,1.03-1.65,1.6-2.65,2.17-.74.42-1.55.7-2.32,1.06-.31.15-.44.43-.3.76.14.34.32.65.49.98,1.18,2.3,1.36,4.63.2,7-.11.22-.18.45-.27.68-.06.17-.15.34-.18.52-.18,1.07-1.12,1.74-1.44,2.69-.3.91-.39,1.9-.78,2.81-.19.45-.51.53-.81.13-.61-.78-1.43-1.31-2.2-1.91-1.92-1.5-2.66-3.41-2.02-5.8.03-.12.06-.24.08-.36.07-.37-.12-.59-.47-.63-.42-.04-.85-.03-1.28-.01-1.14.06-1.63.51-1.74,1.68-.05.54,0,1.09-.02,1.64,0,.35.11.73-.27,1.08-.44-.38-.54-.93-.65-1.43-.27-1.17-.98-2.06-1.72-2.96-.48-.58-.92-.37-1.42-.16-.3-.3-.07-.57.04-.82.5-1.12.04-2.01-.66-2.83-.16-.18-.45-.25-.65-.07-.1.09-.14.33-.11.48.06.29.21.57.28.86.02.09-.04.26-.12.3-.08.05-.26.03-.33-.04-.46-.4-.95-.78-1.33-1.24-.99-1.21-2.37-1.89-3.61-2.75-.36-.25-.69-.18-.97.14-.2.23-.34.51-.54.74-.38.45-.79.47-1.27.08-.63-.53-1.01-1.22-1.15-2.02-.09-.51-.27-.92-.78-1.15-.53-.24-.81-.71-1.08-1.2-.29-.53-.64-1.04-.9-1.59-.82-1.73-2.23-2.65-4.04-3.09-.35-.09-.69-.23-1.04-.34-1.33-.41-2.1.12-2.2,1.53-.04.54-.02,1.09-.07,1.64-.03.27-.24.44-.52.32-.28-.11-.56-.25-.8-.43-.6-.44-1.22-.4-1.91-.22-1.2.32-1.62.37-1.02,1.88.41,1.02,1.02,1.93,1.78,2.74.37.4.78.79,1.04,1.25.34.6,1.14,1.22.72,1.92-.35.59-1.24.21-1.89.29-.85.1-1.71.07-2.54.22-1.51.27-2.89-.05-4.26-.64-.89-.38-1.55-.94-1.76-1.93-.1-.47-.24-.69-.83-.53-.5.14-.82-.44-1.23-.68-.37-.22-.63-.18-.89.23-.45.7-.49.68-1.08.3-.05-.03-.1-.08-.15-.11-.45-.27-.89-.85-1.44-.46-.43.3-.22.9-.17,1.38.08.73.17,1.45.28,2.17.19,1.36.75,2.56,1.55,3.66.32.44.54.48,1.1.24.11-.05.21-.13.32-.18,1.68-.75,3.48-.32,4.47,1.25.77,1.23,1.35,2.58,2,3.89.17.35-.09.7-.54.73-2.09.15-4.14.03-6-1.1-.16-.09-.31-.19-.47-.28-.38-.21-.69-.12-.95.22-.37.49-.73.97-1.1,1.45-.15.19-.3.44-.57.39-.35-.06-.43-.4-.5-.68-.09-.41-.12-.84-.21-1.26-.05-.23-.12-.47-.22-.68-.04-.08-.2-.15-.29-.14-.1.01-.26.12-.27.19-.05.66-.06,1.33-.11,1.99-.02.28-.25.44-.52.33-.9-.36-1.79-.75-2.7-1.11-.28-.11-.58-.2-.87-.22-.25-.01-.47.16-.57.39-.09.21.08.32.25.4.36.17.41.48.17.73-1.16,1.24-2.25,2.57-3.86,3.28-.95.42-1.85.94-2.83,1.27-1.76.59-3.55.98-5.23-.27-.15-.11-.35-.14-.48.02-.07.08-.11.23-.09.33.06.36.11.72.23,1.07.37,1.12,1.29,1.63,2.41,1.35.18-.04.35-.12.51-.2.92-.42,1.88-.32,2.61.25,1.41,1.12,2.85.64,4.33.37.61-.11,1.08-.85,1.82-.42.02.67-.54,1.06-.76,1.61-.3.74-.6,1.45-1.3,1.92-.27.18-.32.52-.22.83.15.46.31.92.48,1.38.17.46.37.9.51,1.37.37,1.19.19,1.34-1.1,1.11-1.38-.25-2.76-.46-4.14-.65-.79-.11-.8-.07-1.07.63-.42,1.07-.83,2.15-1.26,3.22-.18.44-.34.47-.76.11-.19-.16-.34-.37-.61-.24-.25.12-.28.39-.28.63-.02,1.16-.04,2.31-.04,3.47,0,1.58.05,3.17-.2,4.74-.16.96.14,1.67,1.02,2.11.27.14.53.3.78.47.21.14.18.47-.05.61-.1.06-.21.13-.32.17-2.21.97-1.75,1.01-2.2,2.97-.6,2.61-1.22,5.22-2.2,7.72-1.66,4.25-3.95,8.1-7.41,11.14-1.78,1.57-3.65,3.04-5.79,4.11-1.85.93-3.71,1.83-5.56,2.76-.92.46-1.15.89-1.07,1.7.05.53.32.93.77,1.16,1.14.57,1.78,1.64,2.56,2.56.81.98.97,2.21,1.18,3.41.07.38-.13.7-.33,1.02-.64.97-1.3,1.96-2.34,2.52-1.76.96-2.49,2.38-2.26,4.34-.51,5.71-.21,11.43-.33,17.15-.01.61,0,1.22-.04,1.82-.03.36-.05.82-.26,1.03-.78.77-.74,1.76-.91,2.71-.2,1.14-.33,2.29-.7,3.39-.22.64-.3,1.31-.17,1.98.58,3.06.66,6.16.68,9.27,0,.73.08,1.46.13,2.19.02.42.1.85.05,1.27-.33,2.98-.2,5.93.04,8.92.31,3.81.59,7.64.49,11.48-.02.85.03,1.71-.01,2.56-.18,3.79.31,7.53.9,11.26.14.9.23,1.81.4,2.71.18,1.01-.18,1.84-.93,2.43-.96.74-1.98,1.41-3.03,2.02-1.84,1.06-3.87.95-5.88.7-1.39-.17-2.75-.5-4.13-.75-.76-.14-.86-.14-1.2.69-.25.6-.62.86-1.23.89-.43.02-.85.07-1.28.05-1.12-.06-1.5-.38-1.59-1.55-.06-.73-.23-1.3-.95-1.61-.74-.32-.89-.9-.77-1.65.37-2.28.73-4.56,1.07-6.85.73-4.99,1.37-10,1.81-15.03.42-4.75.31-9.48.28-14.23-.01-3.11.36-6.19.54-9.29.25-4.26,1.27-8.42,1.78-12.64.31-2.54.6-5.07.93-7.61.54-4.1,1.1-8.2,1.65-12.3.06-.42.13-.84.17-1.26.05-.51-.07-.98-.49-1.31-.79-.62-1.27-1.48-1.71-2.34-.62-1.21-1.47-2.22-2.47-3.13-.68-.62-1.29-1.28-1.72-2.11-.67-1.31-.46-2.33.8-3.11.77-.48,1.62-.85,2.46-1.17,1.37-.52,2.77-.94,4.22-1.15,1.14-.17,1.67-.8,1.83-1.92.5-3.49,1.18-6.96,2.03-10.38.26-1.03.22-2.06.05-3.08-.45-2.74-.29-5.46.08-8.18.08-.62.26-1.18.6-1.7.89-1.38,1.76-2.78,2.66-4.15.33-.51.65-1.01.84-1.61.31-.98.35-1.85-.28-2.77-.44-.64-.64-1.44-.97-2.15-.18-.38-.36-.77-.6-1.11-.16-.22-.45-.21-.62.01-.18.24-.29.53-.43.8-.19.37-.26.82-.66,1.06-.36-.12-.2-.39-.13-.57.18-.52.36-1.04.63-1.52.4-.74.4-1.51.27-2.3.55-.44,1.19-.76,1.41-1.53.31-1.11.7-2.19,1.33-3.18.27-.42-.14-1.04-.64-1.06-.3-.01-.6.05-.9.08-1.33.16-2.67.15-4.01.02-.45-.04-.64-.4-.41-.78.61-.98,1.21-1.97,1.88-2.91.4-.56.8-1.02.6-1.8-.15-.58.29-1.03.7-1.4.22-.19.46-.13.62.11.17.25.3.52.48.76.04.06.24.07.31.02.08-.06.16-.22.14-.31-.11-.35-.23-.69-.39-1.01-1.01-2.01-2.06-4.01-3.06-6.02-1.27-2.56-2.5-5.15-3-8-.1-.6-.42-.98-.95-1.24-.98-.49-1.94-1-2.92-1.5-.24-.13-.44.03-.42.35,0,.12.07.23.09.35.07.38-.12.61-.49.57-.77-.09-1.54-.22-2.32-.34-.1.48.22.6.46.73.75.41,1.51.78,2.27,1.17.51.27.52.63,0,.93-.69.39-1.4.74-2.09,1.12-.38.2-.75.41-1.12.61-.48.26-.7.63-.59,1.2.14.72.24,1.44.32,2.17.08.71-.22,1.01-.95.96-.48-.03-.96-.15-1.44-.2-.79-.08-1.13.1-1.36.88-.39,1.34-.72,2.7-1.07,4.06-.05.18-.05.36-.09.54-.17.75-.54.87-1.13.31-.53-.5-1-1.06-1.48-1.61-.24-.28-.41-.6-.62-.9-.43-.59-.52-.6-1.14-.16-.1.07-.17.18-.27.24-.27.17-.45.04-.57-.21-.05-.11-.1-.23-.11-.35-.14-1.72-.72-3.3-1.37-4.88-.23-.55-.29-1.18-.34-1.78-.11-1.16.16-2.18,1.29-2.79.2-.11.48-.25.35-.54-.11-.25-.41-.2-.64-.2-.85,0-1.71.04-2.56-.01-1.02-.06-1.91.23-2.78.74-.73.43-1.48.85-2.26,1.19-2.38,1.04-4.75-.13-5.39-2.62-.1-.41-.21-.82-.34-1.22-.03-.09-.18-.18-.28-.18-.1,0-.27.07-.3.15-.46,1.06-.8,2.17-.9,3.33-.06.73.26,1.3.89,1.67.42.25.86.47,1.26.74,1.5,1.03,2.3,2.38,2.28,4.3-.03,2.11-.76,3.91-1.95,5.59-.92,1.29-1.89,2.54-2.75,3.86-.93,1.42-1.37,2.95-.89,4.67.19.69.18,1.44.25,2.17.02.27-.28.47-.5.32-1.1-.76-2.21-1.52-2.94-2.68-.68-1.07-1.44-2.12-1.65-3.31-.33-.14-.5-.08-.63.06-1.49,1.56-3.33,1.91-5.37,1.55-1.08-.19-2.14-.45-3.21-.68-.36-.08-.71-.18-1.07-.23-.65-.1-1.19.06-1.56.68-.18.31-.39.69-.69.82-.92.41-1.18,1.14-1.27,2.04-.03.29-.12.69-.32.83-.82.55-1.09,1.42-1.49,2.22-.04.08-.2.15-.3.13-.1-.02-.24-.12-.26-.22-.22-.95-.35-1.91-.02-2.87.22-.64.28-1.31.21-1.98-.05-.47-.31-.78-.79-.87-.42-.08-.84-.12-1.26-.22-.91-.21-1.7-.63-2.33-1.35-.48-.55-1.03-1.03-1.51-1.58-.21-.25-.2-.6.12-.79.89-.54,1.64-1.22,2.33-2.01,1.48-1.67,3.04-1.93,5.09-.96.22.1.4.27.6.41.32.21.61.1.77-.19.6-1.06,1.17-2.13,1.73-3.21.39-.76.73-1.54,1.09-2.31.34-.72.73-1.41,1.42-1.86.57-.37.72-.95.86-1.55.11-.48-.07-.73-.54-.7-.55.03-1.09.12-1.64.14-1.11.03-1.87.55-2.2,1.59-.31.99-.98,1.66-1.79,2.22-.15.1-.32.15-.56.02-.04-.62-.03-1.28-.14-1.93-.08-.47-.32-.92-.45-1.39-.18-.69-.67-.98-1.31-1.1-.18-.03-.36-.07-.54-.07-2.38-.02-4.03-1.54-5.77-2.84-.35-.26-.28-.7.09-.89.22-.11.45-.19.67-.28.22-.1.45-.19.66-.31.29-.15.5-.39.48-.72-.04-.88.34-1.66.6-2.47.17-.52.07-.79-.55-.84-.34-.03-.24-.35-.09-.55.3-.4.32-.77-.02-1.15-.36-.41-.69-.85-1.07-1.24-.1-.11-.33-.16-.49-.15-.2.02-.31.22-.28.4.31,2.35-1.2,3.41-3.03,4.19-1.18.5-2.42.8-3.71.9-.54.04-.79-.29-.64-.8.3-.99.61-1.97.91-2.96.29-.96.79-1.77,1.58-2.4.33-.26.61-.58.88-.91.2-.24.16-.78-.02-.84-.27-.09-.45.09-.65.21-.89.51-1.78,1-2.67,1.51-.08-.22-.19-.35-.16-.43.36-.97.72-1.94,1.12-2.89.46-1.08,1.07-2.01,2.18-2.6.74-.39,1.36-1.01,2.06-1.5.48-.33.53-.78.48-1.28-.01-.11-.08-.25-.17-.29-.09-.05-.26-.03-.34.03-.33.27-.64.56-.94.86-3.01,3.02-6,6.05-9.02,9.06-.75.75-1.4,1.51-1.49,2.63-.03.41-.21.84-.42,1.2-.57.99-.68,2.05-.67,3.17.02,1.27.1,2.56-.56,3.75-.13.24-.13.6-.1.9.14,1.33.29,2.66.48,3.98.07.48.2.97.44,1.39.74,1.28.58,2.71.76,4.08,0,.06-.01.12-.03.18-.05.18-.1.37-.32.38-.11,0-.26-.03-.32-.11-.39-.47-.9-.78-1.39-1.14-1.37-1.02-1.85-2.53-1.94-4.16-.06-1.09.02-2.19.02-3.29,0-.43-.01-.85-.04-1.28-.02-.3-.3-.59-.4-.44-.09.14-.19.33-.17.48.24,1.79,0,3.51-.63,5.2-.26.68-.44,1.4-.07,2.12.2.4.15.82.1,1.25-.22,2.16-.32,2.22-2.22,1.09-2.35-1.39-2.07-1.41-3.36,1.11-.22.43-.39.88-.37,1.39.05,1.44.28,1.68,1.76,1.47,1.11-.16,2.18-.08,3.23.34.46.18.92.4,1.17.84.71,1.28,1.41,2.57,1.32,4.1-.07,1.22-.15,2.43-.49,3.61-.15.53-.25,1.07-.34,1.61-.13.79-.21,1.57.24,2.3.23.37.3.81.23,1.24-.21,1.27-.28,2.53-.09,3.81.04.3-.36.56-.64.44-.85-.36-1.58-.91-2.29-1.48-.47-.38-.9-.84-1.5-1.03-1.04-.32-1.77-1.03-2.46-1.82-1.07-1.25-2.14-2.5-2.72-4.07-.03-.09-.19-.13-.35-.23-.43,1.02-.6,2.1-.89,3.14-.29,1.07-.29,1.07-1.22,1.98.15.24.3.49.46.74.51.8.51.8,1.46.61.42-.08.83-.19,1.25-.21.64-.04,1.2.16,1.61.68.68.86,1.39,1.69,1.7,2.79.55,1.99,1.11,3.98,1.67,5.97.15.53.29,1.06.41,1.59.11.45-.17.76-.59.63-2.32-.76-4.59-1.65-6.52-3.19-1.17-.94-1.64-2.23-1.57-3.71.01-.29.19-.59-.16-.96-.47.31-.98.63-1.46.98-.86.62-1.82.98-2.85,1.17-.96.17-1.92.35-2.89.38-1.53.05-3.03.17-4.52.52-.58.13-.88-.17-.69-.67.99-2.63,2.09-5.2,4.03-7.3,1.33-1.43,3.01-2.01,4.92-1.97.75.02,1.39.38,2.05.71.95.49,2.01.15,2.41-.82.35-.84.56-1.75.55-2.67,0-.85-.78-1.27-1.54-.87-.27.14-.54.29-.77.49-.77.67-1.65.71-2.58.48-.95-.23-1.89-.5-2.72-1.03-1.9-1.22-3.69-2.57-5.1-4.37-.67-.85-1.36-1.73-2.42-2.17-.31-.13-.47-.36-.47-.7,0-.48-.01-.93.2-1.41.54-1.24,1.32-2.32,2.15-3.37.51-.65,1.22-.97,1.95-1.3.81-.36.88-.54.71-1.42-.23-1.19-.32-1.36-1.32-2.34-.9.44-1.43,1.12-1.76,2.12-.78,2.3-1.7,4.56-2.56,6.83-.5,1.31-.88,2.65-.91,4.07-.03,1.19-.2,1.62-.85,2.76-.13-.98.18-1.88-.05-2.78-.44.04-.38.43-.52.66-.24.42-.4.92-.73,1.25-.89.88-1.55,1.84-1.66,3.13,0,.09-.14.21-.24.25-.22.08-.35-.07-.4-.25-.14-.53-.33-1.06-.38-1.6-.16-1.69-.33-3.38-.37-5.08-.02-.67-.06-1.12-.72-1.47-.62-.33-.67-.58-.27-1.19,1.19-1.83,1.57-3.94,2.13-5.99.17-.63.03-1.02-.54-1.16-1.4-.35-2.54-1.15-3.72-1.9-.7-.44-.85-.41-1.32.28-.38.56-.82,1.06-1.39,1.43-.75.49-1.21,1.17-1.45,2.03-.11.4-.27.85-.55,1.14-.51.54-.47,1.53-1.41,1.7-.19-.74.16-1.42.24-2.13.02-.18.1-.36.1-.54-.03-1.15.06-2.28.51-3.41-1.55-.55-3.05-.73-4.55-.88-.47-.05-.99.14-1.25-.46-.04-.08-.2-.15-.3-.15-1.27.03-1.93-.86-2.63-1.72-1.07-1.32-1.65-2.84-1.79-4.52-.09-1.09-.07-2.19-.06-3.28,0-.48.4-.68.73-.38.55.5,1.2.82,1.85,1.14,1.33.66,2.18,1.68,2.54,3.15.31,1.25.49,2.5.43,3.79,0,.09.11.23.2.25.09.03.25-.02.31-.1.41-.52.95-.97,1-1.7.04-.59.39-1.01.79-1.4,1.04-1.02,2.05-2.08,3.15-3.04.92-.8,1.96-1.42,3.3-1.3.83.07,1.5.32,2.06.99.77.91,1.31,1.02,2.39.59.67-.27,1.32-.61,1.84-1.11-.05-.15-.07-.32-.14-.34-1.58-.49-1.82-2-2.44-3.21-.09-.18-.08-.53.03-.69.52-.76.27-1.49.05-2.27-.3-1.07-.24-1.14.87-1.57.17-.07.35-.11.52-.17.56-.22.88-.62.93-1.23.09-1.09.28-2.18.27-3.27-.02-1.66,1.06-2.13,2.41-1.74.64.18,1.28.39,1.92.57,1.01.27,1.72.86,2.12,1.84.25.62.54,1.22.84,1.82.25.5.67.67,1.22.54.36-.08.71-.15,1.07-.23,1.66-.37,3.14-.15,4.27,1.27.33.42.75.57,1.27.58,1.11.02,2.18-.22,3.24-.46.61-.14.81-.52.77-1.23,0-.06-.04-.11-.05-.17-.18-.8.44-1.54.22-2.33-.21-.77-.94-1.27-1.08-2.09-.05-.3-.17-.58-.25-.88-.38-1.52-.41-3.14-1.21-4.55-.04-.07.03-.25.1-.32.07-.06.24-.09.32-.06.63.27,1.13.7,1.49,1.29.16.25.31.52.5.75.12.14.32.11.46-.05.04-.04.07-.11.07-.16.15-1.27.43-2.51.88-3.72.19-.51.09-.86-.42-1.05-1.89-.72-2.8-2.47-4.1-3.81-.2-.2-.39-.55-.36-.81.12-1.01-.39-1.74-.95-2.47-.22-.29-.4-.61-.56-.94-.22-.41-.05-.77.39-.79,1.54-.07,2.99-.49,4.44-.98.7-.24,1.42-.4,2.15-.26.62.12,1.03-.03,1.36-.61.26-.47.66-.87,1.02-1.28.29-.33.53-.67.59-1.11.08-.55.19-1.01.9-.55.18.12.34-.08.4-.25.2-.57.31-1.17.67-1.69.27-.38.74-.68.64-1.25-.08-.46-.48-.68-.79-.96-.29-.28-.29-.66-.29-1.02-.01-.91,0-1.82,0-2.74,0-.33-.34-.53-.64-.43-.48.16-.84.49-1.2.81-.5.45-1.03.85-1.64,1.14-1.24.61-2.47.79-3.87.42-1.97-.51-3.6-1.41-4.67-3.11-.54.12-.53.55-.71.84-.32.53-.26,1.04.08,1.54.14.2.25.42.34.64.13.31.08.61-.22.8-.56.36-1.11.78-1.72,1.03-.99.41-1.49,1.14-1.82,2.13-.38,1.15-.89,2.26-1.37,3.38-.28.65-.68.69-1.05.18-.32-.43-.35-1.15-.93-1.28-.66-.14-1.04.53-1.55.82-.15.09-.31.17-.45.26-.35-.2-.13-.42-.04-.61.16-.33.32-.66.51-.97.73-1.14.12-2.1-.42-3.05-.16-.28-.47-.37-.78-.43-2.25-.4-4.24-1.47-6.26-2.47-.94-.47-1.68-1.2-2.48-1.84-.22-.18-.18-.46.08-.6.59-.32,1.21-.58,1.79-.91.61-.35.67-.42.45-1.17-.15-.52-.11-.95.18-1.38.24-.35.49-.7.72-1.05.65-.98.62-1.12-.28-1.75-.1-.07-.21-.12-.31-.19-1.23-.88-2.55-1.63-3.58-2.8-.68-.77-1.7-1.16-2.64-1.6-.22-.1-.45-.18-.67-.29-.39-.2-.41-.64-.02-.86.9-.5,1.81-1,2.75-1.43,1.6-.73,3.22-1.42,4.95-1.85,1.12-.28,1.6-1.31,1.13-2.4-.22-.5-.51-.97-.77-1.45-.19-.36-.18-.7.15-.98.84-.73,1.44-1.64,2.04-2.56.8-1.22,1.53-1.44,2.96-1.1,1.06.26,1.9.8,2.47,1.73.41.67.79,1.37,1.19,2.05.27.46.57.52.83.14.64-.96,1.32-1.88,2.11-2.73.45-.49.77-1.24.63-2.01-.06-.35,0-.65.32-.75,1.73-.49,3.11-1.64,4.67-2.46.38-.2.76-.39,1.15-.55.87-.33,1.76-.45,2.68-.14.52.18,1.05.31,1.58.44.63.15.81.01.95-.71.05-.22-.07-.49.2-.64.29.04.34.32.49.5.36.45.81.5,1.31.29.92-.39,1.75-.83,1.8-2.04.02-.67.41-1.27.76-1.84.99-1.61,1.95-3.23,2.77-4.93.13-.26.24-.58.63-.58.49.49.01,1.2.41,1.73.77-.34,1.56-.69,2.41-.23.29.15.59.11.89.03,1.81-.5,3.59-1.15,5.46-1.43.39-.06.44-.39.31-.71-.53-1.22-.87-2.52-1.62-3.66-.56-.85-.9-1.85-1.32-2.8-.1-.22.17-.53.4-.46.64.18,1.27.41,1.92.57.73.18,1.11-.22.84-.89-.18-.45-.44-.86-.65-1.3-.12-.24.09-.5.37-.46.54.08,1.09.14,1.62.26,2.78.63,5.63,1.02,8.21,2.37.65.34,1.33.62,1.83,1.17.74.81,1.67.93,2.68.76.72-.12,1.44-.27,2.15-.41,1.56-.32,2.88.14,4,1.25.34.34.65.72.97,1.09.32.37.6.77.94,1.11,1.16,1.14,1.3.96,2.35.34.1-.06.22-.11.32-.18.85-.63,1.75-1.07,2.85-.99.18.01.39-.1.39-.31,0-.15-.11-.36-.24-.43-.25-.16-.55-.24-.93-.4.84-.94,1.28-2.13,2.19-3.01.5-.49,1.04-.78,1.72-.95,2.27-.56,4.47-.19,6.66.41.53.14,1.04.35,1.57.48.54.13.97-.05,1.22-.55.19-.37.45-.82.39-1.19-.17-1.08-.06-2.19-.42-3.24-.24-.71-.65-.98-1.39-.79-.4.1-.8.29-1.16.5-.37.21-.68.51-1.03.75-.52.35-1.13.4-1.14.14-.02-.42.28-.69.57-.88,1.48-.96,1.85-2.66,2.71-4.02.32-.5.17-.95-.34-1.25-.57-.34-1.17-.64-1.77-.94-.39-.19-.72-.04-.96.28-.32.44-.6.92-.9,1.37-.1.15-.27.3-.44.2-.14-.07-.25-.25-.32-.4-.2-.41.1-1.1-.5-1.24-.37-.09-.81.19-1.22.26-.72.13-1.44.31-2.16.33-1.04.03-2.07-.03-3.04.45-.08.04-.25.01-.33-.05-.16-.13-.14-.32-.07-.49.37-.84.83-1.63,1.46-2.3.17-.18.38-.31.53-.5.46-.53.62-1.14.35-1.28-.46-.23-.81.11-1.19.25-.65.23-1.18.59-1.5,1.25-.55,1.15-1.5,1.72-2.76,1.79-1.24.06-2.32.71-3.5.99-.43.1-.74.4-1.06.69-.36.33-.72.66-1.09.96-.19.15-.44.4-.61.36-1.6-.36-2.36.95-3.41,1.66-.1.07-.22.14-.32.13-.09,0-.26-.15-.25-.18.51-1.61.85-3.3,2.14-4.55.73-.71,1.5-1.39,2.52-1.98-2.64-.31-3.79-1.34-4.4-3.78-.04-.18-.07-.36-.11-.54-.5-2.35-.47-2.33,1.85-2.44,1.38-.06,2.47.4,3.43,1.37.66.67.84.65,1.56.13.34-.25.67-.53.98-.82.2-.19.22-.42.03-.64-.2-.23-.16-.53.09-.6,1.5-.39,2.53-1.66,4.02-2.07.87-.24,1.42-.89,1.74-1.74.35-.93,1.02-.75,1.61-.35.3.2.49.57.79.74,1.41.8,2.57,2.02,4.22,2.39.22.05.47.13.65-.12-.05-.11-.06-.26-.14-.32-1.43-.99-1.93-2.45-2.09-4.08-.04-.36-.12-.79.04-1.07.39-.67.28-1.42.47-2.09.21-.71,0-1.17-.4-1.66-.5-.62-1-1.22-1.5-1.84-.41-.51-.28-.87.37-1.05.06-.02.12-.03.18-.05,1.75-.44,1.73-.43.73-1.84-.37-.52-1.25-.91-.96-1.62.22-.53,1.09-.39,1.66-.58.35-.12.71-.18,1.06-.28.34-.1.72.19,1.06-.11-.06-.56-.44-.85-.93-.98-.83-.2-1.36-.77-1.86-1.39-.12-.14-.2-.36-.05-.48.11-.09.34-.1.5-.06.41.13.8.29,1.19.46.85.38,1.72.54,2.65.57,1.53.04,3.03.26,4.35,1.14.59.39,1.26.41,1.94.4h-.01c-.13.35-.15.7.04,1.04.46.8.69,1.68.83,2.59.1.66.3.7,1.18.43.05-.02.12.02.19.03.22.52-.33.89-.27,1.38.01.11.07.25.15.3.07.04.27,0,.3-.07.36-.72.92-1.27,1.45-1.85.66-.73,1.4-1.14,2.4-1.04.86.09,1.69-.18,2.53-.28.45-.05.82-.22,1.02-.66.11-.24.32-.35.57-.4,1.44-.34,2.86-.37,4.3.07,1.47.44,2.8,1.17,4.15,1.86.32.17.67.4,1.02.15.96-.68,1.39-.94.19-1.85-1.01-.77-1.94-1.67-3.25-1.95-.28-.06-.57-.22-.63-.73.87.07,1.67.28,2.45.59.34.14.66.38,1,.42,1.19.16,2.18.69,3.06,1.48.44.39.96.45,1.54.31,1.06-.26,2.14-.44,3.24-.48.39-.01.74.08.84.52.1.4-.06.76-.41.93-.65.32-1.35.55-2.02.83-.48.2-.54.72-.14,1.02.64.48,1.4.72,2.17.9.32.08.55-.2.7-.48.21-.39.21-.82.24-1.24.03-.36.05-.73.13-1.08.12-.5.85-.77,1.16-.38,1.34,1.67,2.92,1.42,4.61.7.67-.29,1.36-.52,2.05-.75.09-.03.26.02.32.09.05.06.03.25-.03.31-.35.34-.73.64-1.07.99-.37.37-.21.82.33.93.83.16,1.67.31,2.51.45.34.05.59-.13.71-.44.11-.28.2-.57.27-.87.3-1.15.26-1.32-.7-1.99-1.15-.8-2.29-1.57-3.23-2.65-.7-.81-1.72-1.14-2.82-.66-.27.12-.54.29-.86.16-.11-1.61-.12-1.61-1.15-2.94-.45-.58-.96-1.09-1.55-1.54-1.26-.96-1.35-.96-2.67.02-.64.48-.61.73.2,1.06.52.21.97.49,1.36.88.73.73,1.48,1.44,2.22,2.16.31.3.59.62.68,1.06.05.25.01.48-.16.68-.18.2-.45.29-.66.17-1.78-1.02-3.84-1.64-4.95-3.58-.4-.69-.93-.89-1.68-.58-1.08.44-2.28.3-3.3.77-.31-.37-.04-.66-.08-.94-.1-.8.34-1.25,1.04-1.5.57-.21,1.12-.46,1.59-.87,1.05-.93,2.31-1.31,3.68-1.4.12,0,.24,0,.36-.02.05,0,.09-.07.14-.11.16-.82-1.06-1.22-.65-2.11.77-.04,1.34.48,2.03.7.68.21,1.28.28,1.92-.09.68-.39,1.4-.29,2.12-.05,1.04.35,2.1.64,3.04,1.22.5.31.99.39,1.55.25.77-.18,1.55-.31,2.33-.45.1-.02.26.02.33.09.15.16.06.33-.06.47-.12.13-.27.24-.4.37-.69.67-.75,1.19-.11,1.83.56.56,1.18,1.05,1.79,1.55.59.49.81.39.96-.48.04-.25.07-.48.26-.65.18-.16.41-.39.62-.16.78.86,1.67.87,2.66.48.71-.28,1.44-.21,2.15-.02,1,.26,2.02.48,2.92,1.02.76.45,1.62.49,2.43.73.09.02.28-.06.3-.13.05-.16.07-.36.02-.52-.17-.52-.61-.76-1.1-.86-.53-.11-1.09-.08-1.63-.17-2.08-.35-3.62-1.37-4.24-3.49-.13-.42.1-.76.53-.73.78.06,1.58.05,2.33.38.44.19.92.32,1.39.4.63.11,1.18-.05,1.63-.58.55-.65,1.19-1.23,1.71-1.89.97-1.22,2.4-1.85,3.54-2.83.04-.04.11-.06.17-.06.18,0,.37-.03.52.04.19.09.16.31.07.47-.26.48-.53.96-.8,1.43-.12.21-.26.41-.36.63-.04.09-.02.25.04.33.06.08.23.15.31.11.56-.23,1.12-.48,1.67-.74,1.39-.65,2.84-1.07,4.38-1.2.17-.01.37.04.41.25.02.1-.05.24-.13.31-1.83,1.86-3.68,3.71-5.51,5.57-.74.75-1.57,1.34-2.61,1.59-.55.13-1.01.42-1.33.89-.14.21-.23.43-.14.68.09.26.33.4.57.35,1.7-.33,2.94.43,4,1.63.33.37.77.58,1.19.83.62.38,1.21.59,1.84.05.3-.26.64-.3,1.02-.25.82.11,1.55-.24,2.31-.46.28-.08.55-.26.78-.45.29-.24.52-.56.47-.94-.06-.47-.49-.48-.85-.5-1.15-.06-1.98-.91-3.03-1.21-.05-.02-.12-.06-.14-.11-.25-.74-.55-1.47-.72-2.24-.13-.57.27-1.04.62-1.46,1.05-1.25,1.85-1.49,3.37-.99.17.06.34.17.51.19,1.52.16,2.26,1.01,2.3,2.52.01.43.33.61.72.69,1.31.27,2.61.59,3.86,1.08.26.1.61.13.66.61-.62.27-1.28.17-1.92.11-.36-.04-.71-.16-1.07-.22-.24-.04-.5-.04-.63.22-.13.25,0,.48.15.67.22.29.44.58.69.85.8.83,1.62,1.65,2.43,2.47.5.51.65.51,1.2.01.41-.37.8-.72.72-1.38-.03-.27.14-.58.27-.85.23-.47.21-.95.06-1.42-.49-1.53-.64-3.09-.53-4.68.01-.18.01-.37-.03-.55-.41-1.74-.41-3.5-.31-5.26.03-.62-.13-1.2-.38-1.77-.1-.23-.12-.5.19-.58.28-.07.46.14.54.37.12.34.25.69.3,1.05.24,1.69.76,3.32,1.22,4.95.27.96.35,1.9.21,2.88-.11.72-.17,1.45-.25,2.17-.47.31-.57.72-.33,1.22.04.09.16.19.25.19.07,0,.21-.14.21-.2-.03-.41-.09-.81-.14-1.22.65-.46,1.3-.91,1.94-1.37.77-.56,1.58-.91,2.56-.61.23.07.48.09.72.1.37.02.74-.04.98-.37.27-.37.06-.68-.14-.99-.8-1.23-1.29-2.61-1.91-3.93-.31-.66-.49-1.38-.49-2.12,0-.86-.16-1.69-.29-2.53-.15-1.03-.3-2.01-.85-2.94-.4-.69-.37-1.53-.28-2.32.01-.1.09-.24.18-.28.19-.11.37,0,.47.16.72,1.12,1.66,2.11,2,3.45.09.35.27.68.45,1,1.16,2.08,2.08,4.26,3.06,6.42.51,1.12.3,2.13-.25,3.11-.23.42-.67.72-.71,1.24-.02.27.06.49.38.48.27,0,.68-.21.53.35-.15.54.12.84.56.97.7.21,1.41.37,2.13.5.63.12,1.17.32,1.47.94.29.59.88.81,1.41,1.11.31.17.83.25.8.64-.03.49-.56.29-.89.35-.79.14-1.55.35-2.13.94-.76.78-1.69.92-2.69.75-1.16-.2-2.29.18-3.44.17-.14,0-.34.16-.41.3-.12.25.03.48.26.6.41.22.84.41,1.41.69-.35.06-.54.15-.69.1-.92-.3-1.64.12-2.39.56-.64.37-1.02.83-1.05,1.58-.02.49-.1.97-.1,1.46,0,1.96-.3,3.88-.83,5.76-.07.23-.14.47-.17.71-.07.46.08.84.47,1.11.05.04.1.08.15.1,2.35,1.17,4.04,3.09,5.74,5,.32.36.69.68,1.02,1.04.17.18.03.55-.21.56-1.28.03-2.55.03-3.83.06-.73.02-1.46.05-2.18.13-.49.06-.65.51-.45.97.23.52.61.91,1.04,1.25,1.63,1.28,3.27,2.54,5.2,3.35.77.32,1.61.56,2.1,1.37.16.26.54.24.84.09.25-.13.29-.39.26-.63-.09-.6-.21-1.2-.31-1.8-.12-.71-.4-1.39-.39-2.17.47.08.4.44.47.67.17.52.25,1.07.43,1.58.19.54.08,1.34.85,1.46.63.1.86-.57,1.23-.95.59-.61.78-.65,1.61-.28.71.32,1.46.57,1.75,1.46.16.49.72.63,1.19.74.92.21,1.64.72,2.34,1.34.96.84,2.01,1.57,3.04,2.32.39.29.82.22,1.16-.12.43-.43.83-.89,1.24-1.34.39-.44.82-.72,1.44-.51.92.31,1.8-.09,2.7-.17.17-.01.37.03.37.25,0,.09-.12.23-.21.26-1.57.49-2.81,1.71-4.48,1.98-.34.06-.57.56-.43.89.16.39.36.77.58,1.13.54.88,1.07,1.77,1.4,2.76.09.28.21.6.4.81.49.52.84,1.45,1.56,1.4.76-.05.96-.98,1.21-1.66.06-.17.07-.42.19-.5.97-.67,1.05-1.67,1.18-2.72.15-1.23.95-2.05,2.01-2.66,1.63-.94,1.63-1.33.11-2.32-1.18-.76-2.38-1.46-3.68-2-.72-.3-1.45-.6-2.04-1.12.11-.45.38-.26.55-.19.57.24,1.16.33,1.78.33.5,0,.99.11,1.36.45.72.66,1.59,1.12,2.37,1.68.78.56,1.56,1.16,1.96,2.09,1.35-.24,2.6-.47,3.85-.68.36-.06.73-.19,1.08-.13,1.56.24,3.13.36,4.72.39.28,0,.41.3.26.54-.4.62-.19,1.02.4,1.33.21.12.46.23.59.42,1.02,1.53,2.78,2.14,4.09,3.3.26.23.63.21.77-.12.95-2.2,2.95-3.14,4.9-4.14.7-.36,1.44-.66,2.14-1.02.77-.4,1.17-1.02,1.12-1.92-.04-.73-.03-1.47-.31-2.16-.43-1.05-.31-2.02.29-2.95.03-.05.05-.11.08-.17.26-.46.3-1.2.94-1.2.53,0,.65.66.87,1.08.59,1.13,1.29,2.21,1.35,3.54.01.23.26.43.52.42.15,0,.33-.13.44-.25.12-.13.17-.32.26-.48q.75-1.5-.41-2.64c-.66-.64-1.31-1.27-1.81-2.04-1.43-2.22-.9-5.29,1.2-6.87.34-.26.68-.53,1.06-.71,1.24-.57,2.31-1.33,3.08-2.49.2-.3.58-.3.79-.03.94,1.19,1.98,2.33,2.31,3.88.11.51.28.94.82,1.09.75.22,1.07.94,1.55,1.42.45-.18.28-.42.17-.6-.53-.89-1.2-1.72-1.44-2.74-.38-1.65-.93-3.27-1.11-4.97-.05-.48-.08-.98-.22-1.44-.3-.95-.43-1.87-.25-2.87.11-.56-.04-1.18-.07-1.75.3-.06.42.08.52.24.71,1.14,1.48,2.23,2.4,3.21.51.54.78,1.23,1.01,1.93.39,1.2,1.18,2.12,2.01,3.01.27.29.6.42.98.26,1.25-.52,2.55-.8,3.9-.83.18,0,.39,0,.53-.09,1.05-.64,2.15-1.1,3.41-1.09.31,0,.52-.29.65-.58.36-.77.72-1.54,1.1-2.3.15-.3.53-.38.77-.14.68.71,1.46,1.25,2.35,1.69.6.3,1,.89,1.32,1.48.69,1.25,1.52,2.35,2.9,2.9.17.07.29.25.21.44-.04.09-.17.2-.26.21-.9.07-1.27.56-1.28,1.44-.02,1.11-.7,1.77-1.65,2.21-.71.33-1.49.51-1.84,1.37-.11.27-.47.1-.55-.15-.2-.69-.62-1.16-1.26-1.47-.5-.24-.93-.21-1.33.17-.57.54-1.13,1.11-1.84,1.49-.49.26-.66.68-.52,1.23.15.56.39,1.05,1.02,1.15.72.12,1.44.2,2.17.27.68.06,1.32.22,1.92.54,1.51.81,3.07,1.48,4.74,1.86.29.07.61.14.77.43.04.06-.04.27-.11.3-.16.07-.36.13-.51.09-.41-.11-.82-.24-1.2-.43-1.25-.65-2.54-.57-3.69.04-1.22.65-2.32.55-3.48,0-.22-.1-.45-.2-.68-.27-.31-.09-.61-.04-.81.24-.79,1.06-1.58,2.12-2.39,3.19.55.35,1.04.2,1.49.09,1.78-.44,3.5.16,5.25.3.28.02.67.17.79.39.49.87,1.42,1.28,2.19,2.13-.96.2-1.72-.02-2.44-.15-1.63-.29-3.27-.33-4.91-.34-.49,0-.99.04-1.46-.06-1.53-.35-3,.1-4.46.22-.11.45.18.49.39.58,1.89.84,3.78,1.67,5.67,2.5.22.1.42.22.63.34.04.02.09.12.07.15-.05.1-.12.26-.19.26-1.15.01-2.31.02-3.46,0-.38,0-.69-.22-.93-.52-.39-.47-.94-.56-1.49-.53-2.14.12-4.23-.39-6.35-.53-1.61-.1-2.07.45-1.7,2.05.21.87.63,1.4,1.52,1.57.29.05.57.18.86.27-.13.52-.74.12-.88.56.34.39.83.5,1.28.65,1.92.66,3.58,1.8,5.32,2.8.73.42,1.15,1.01,1.1,1.95-.7-.07-1.16-.46-1.59-.88-.45-.44-.98-.7-1.56-.91-2.45-.91-4.91-1.81-7.35-2.76-.8-.31-1.49-.35-2.25.12-.77.48-1.64.81-2.42,1.28-.99.61-2.06.69-3.16.64-.36-.02-.72-.09-1.08-.15-1.72-.29-3.12.4-4.28,1.56-1.04,1.04-1.9,2.19-1.89,3.81,0,.98-.51,1.87-.91,2.75-.12.27-.2.57-.24.86-.03.28.46.7.76.67.3-.03.39-.27.38-.52-.05-.99.32-1.78,1.08-2.4.7-.57.89-1.44,1.23-2.21.42-.96,1.14-1.38,2.16-1.36.67.02,1.02.3,1.09.97.05.48.03.97.09,1.46.09.74.6,1.09,1.28.86.4-.13.78-.34,1.17-.5.3-.12.55-.06.83.17.58.49.66.49.86-.04.2-.52.47-.79,1.02-.87.35-.05.67-.27,1-.42.27-.12.58-.4.84-.22.39.27.04.65,0,.98-.06.42-.16.84-.15,1.26,0,.74-.06,1.44-.3,2.15-.25.74,0,1.16.72,1.4.23.08.47.12.71.13.26.01.48-.1.5-.4,0-.12,0-.25-.03-.36-.45-1.51.01-2.82.72-4.18.62-1.2,1.41-2.09,2.56-2.74.52-.3,1.02-.41,1.53-.04,1.27.91,2.68,1.37,4.25,1.47,1.08.07,1.97.63,2.61,1.5.91,1.23,1.63,2.57,2.14,4.01.33.93.31,1.77-.45,2.52-1.02,1.01-1.17,2.37-1.35,3.7-.02.17.03.36.07.54.06.27.5.46.75.31.25-.16.52-.33.71-.55.63-.76,1.36-1.39,2.23-1.86.52-.28.82-.72.85-1.31.06-.92.35-1.79.58-2.67.28-1.06.47-2.12.23-3.24-.12-.58-.08-1.21-.05-1.82.03-.6-.27-1.2.03-1.79.88-.06,1.25.68,1.68,1.18,1.03,1.2,1.96,2.48,2.92,3.74.34.44.47.98.59,1.52.19.83.38,1.66.64,2.47.28.89,1.11,1.14,1.86.57.28-.21.52-.51.7-.82.28-.47.5-.98.76-1.46.11-.2.2-.45.52-.4.24.37-.01.7-.07,1.04-.13.72-.28,1.43-.39,2.15-.17,1.14.44,1.84,1.38,2.32.22.11.47.16.69,0,.22-.16.3-.42.23-.65-.18-.58-.4-1.15-.61-1.72-.49-1.36-.53-2.73-.16-4.13.43-1.62,1.37-2.87,2.82-3.66,1.6-.87,3.19-1.75,4.65-2.85.03-.03.12.01.18.02.22.16.22.41.27.64.26,1.17.27,1.22,1.41.99.7-.14,1.14.06,1.59.56.61.67,1.4,1.19,1.81,2.03.19.38.4.76.51,1.16.18.67-.18,1.31-.84,1.37-1.07.1-2.14.34-3.32.01.14,2.49-1.46,4.14-2.8,5.97.26.5.74.28,1.12.32,2.44.24,4.77.84,6.91,1.88.06.52-.26.63-.47.84-1.08,1.07-2.17,2.13-3.23,3.22-.4.41-.31.81.21,1,1.1.39,2.08.99,3.04,1.63.77.51,1.44,1.12,1.96,1.88.26.39.85.78.64,1.23-.3.63-.96.13-1.47.17-1.27.08-2.54.16-3.81.27-.25.02-.38.27-.35.55.05.48.48.85.41,1.49-.62-.14-.8-.7-1.14-1.06-.3-.33-.58-.61-1.08-.27-.28.2-.57-.04-.84-.16-.72-.33-1.44-.66-2.17-.96-.53-.22-.94,0-1.29.4-.33.39-.26.8-.02,1.18.65,1.03,1.29,2.06,2,3.04.19.27.58.42.91.57,2.05.89,3.04,2.71,4.02,4.55.03.05.06.12.06.17-.07,1.28.46,2.35,1.17,3.37.16.23-.01.52-.28.55-2.16.24-4.26.07-6.13-1.2-.55-.38-1.08-.79-1.59-1.22-.65-.55-1.26-1.15-2.16-1.29-.12-.02-.25-.06-.33-.14-1.34-1.3-3.24-1.64-4.69-2.75-.19-.15-.42-.24-.64-.34-.42-.18-.77.09-.65.54.41,1.69.13,3.39.14,5.09,0,.18-.02.37-.08.54-.09.27-.35.43-.55.25-1.14-.98-2.78-1.29-3.57-2.75-.21-.39-.64-.55-1.05-.68-1.27-.41-2.54-.83-3.83-1.2-.83-.24-1.61.28-1.79,1.1-.05.24-.08.48-.07.73.09,2.57-.83,4.89-1.82,7.19-.19.43-.47.83-.77,1.37.74.23,1.41.46,2.09.64,1.29.34,2.33.92,2.88,2.26.37.9,1.22,1.5,1.98,2.1.17.14.53-.04.58-.26.04-.18.07-.36.07-.54,0-1.5.38-2.89,1.17-4.16.46-.73.36-1.52.32-2.31-.06-1.19.14-2.3.82-3.3.06-.09.19-.13.31-.22.36.38.09.8.01,1.17-.18.86-.17,1.68.08,2.52.28.94.42,1.9.33,2.89-.05.55.04,1.09.19,1.62.23.82.61,1.36,1.57,1.53,1.79.3,3.29,1.31,4.57,2.53.88.83,1.8,1.16,2.95,1.11,1.3-.06,2.54.27,3.75.67.56.19.7.51.37.96-.95,1.3-1.61,2.7-1.84,4.32-.06.46-.38.89-.6,1.32-.28.53-.27,1.04.02,1.56.44.8.88,1.6,1.31,2.4.49.92.83,1.9.86,2.95,0,.3-.04.61-.11.9-.1.44-.65.61-1.03.35-.42-.29-.67-.71-.88-1.15-.44-.94-1.05-1.78-1.68-2.6.15-.19.23-.41.16-.65-.1-.3-.29-.53-.64-.42-.4.12-.28.44-.2.72-.06.66.25,1.18.62,1.67.32.44.66.87,1.01,1.3.41.51.63,1.07.31,1.69-.32.62-.19,1.16.11,1.73.31.59.59,1.2.87,1.81.08.17.11.39-.06.48-.13.07-.36.05-.5-.02-1.34-.69-2.86-1.07-3.89-2.29-.19-.22-.49-.38-.77-.48-1.44-.5-2.65-1.46-4.05-2.07-.92-.4-1.67-1.19-2.46-1.85-.51-.43-.98-.92-1.43-1.4-1.15-1.21-1.27-1.26-2.42-.47-.41.28-.9.38-1.39.37-.85-.02-1.7-.06-2.55-.1-.43-.02-.66-.27-.66-.71,0-.73.02-1.46.04-2.19,0-.44.15-.84.44-1.17.66-.75.57-1.54.17-2.37-.37-.77-.68-1.56-1.05-2.32-.43-.88-.91-1.72-1.8-2.25-.8-.48-1.43-1.12-1.76-2.02-.25-.68-.8-1.06-1.48-1.24-2.06-.55-4.11-1.1-6.17-1.63-.35-.09-.72-.08-1.09-.09-1.22-.04-2.43-.06-3.64-.26-.42-.07-.85-.07-1.27-.05-1.02.04-1.3.43-1.04,1.4.12.46.52.95.15,1.38-.45.53-1,.05-1.51-.06-.17-.04-.35-.06-.5-.09-.28.27-.25.58-.26.88-.06,1.97-.6,1.86,1.58,2.58,1.22.4,2.25,1.2,3.3,1.91.47.32.75.8.95,1.32.3.8.58,1.6.81,2.42.15.53.45.84.97.97.24.06.48.12.7.21,1.18.5,2.24.47,3.11-.61.11-.14.28-.23.43-.33.52-.34.92-.18,1.08.44.14.53.28,1.08.01,1.6-.31.6-.08,1.02.32,1.47.77.86,1.42,1.82,2.26,2.62.8.77,1.29,1.76,1.76,2.75.2.43.67.83.52,1.32-.19.6-.85.25-1.28.4-.38.13-.52.56-.22.86.25.26.53.5.84.68,1.11.64,2.18,1.32,2.99,2.35.18.23.47.38.71.57.33.26.65.28.98-.02.45-.41.95-.77,1.35-1.22,1.11-1.24,2.63-1.95,3.9-2.99.22-.18.54-.26.83-.34.29-.08.6-.09.9-.16.52-.12,1.06-.78,1.49-.44.53.41.05,1.13-.04,1.7-.21,1.47-.78,2.8-1.64,4.02-.49.7-.94,1.42-1.37,2.16-.5.85-.48.96.17,1.77.42.53.88,1,1.43,1.4.34.25.64.56.95.85.29.27.41.59.26.99-.09.23-.18.45-.26.68-.14.44-.04.84.26,1.19.28.32.59.61.86.94.66.81,1.18,1.69,1.3,2.76.05.41.22.81.32,1.22.1.38.62.77.15,1.12-.29.22-.7-.11-1-.3-1.02-.66-1.98-1.4-3.09-1.92-.26-.12-.51-.35-.68-.59-.66-.95-1.29-1.91-1.91-2.89-.33-.51-.65-1.03-.9-1.58-.53-1.16-1.57-1.82-2.46-2.63.06,0,.12,0,.18-.01.35-.08.75-.1.7-.62,0-.05-.07-.12-.11-.13-.49-.11-.59.26-.72.59-.02.06-.03.12-.04.18ZM140.99,182.51c-.63-.4-.99-1.04-1.42-1.62-.18-.24-.35-.49-.54-.71-.12-.14-.33-.21-.48-.09-.13.1-.24.28-.27.43-.03.16.03.35.06.53.28,1.45,1.45,2.17,2.51,3.2-.03-.73-.28-1.27.13-1.75.42-.21.62-.57.63-1.03,0-1.09,0-2.17,0-3.26-.05,0-.09,0-.14,0-.16,1.44-.31,2.88-.47,4.32ZM70.83,135.8c-.39.6-.85,1.13-.99,1.92-.11.67-.58,1.28-.94,2.01.76.08,1.39.08,1.89-.28.47-.33.88-.29,1.37-.17.41.1.84.13,1.26.17.41.04.74-.29.6-.67-.35-.97-.66-1.96-.86-2.97-.03-.18-.19-.32-.4-.25-.54.16-.96-.54-1.52-.19.37-.4.75-.78,1.11-1.2.18-.2-.03-.67-.31-.74-.82-.21-1.54.14-2.26.45-.13.06-.25.28-.27.45-.05.42-.07.84-.06,1.26,0,.28.18.44.49.39.3-.05.59-.13.89-.19ZM61.69,138.62c.28-.22.6-.42.84-.68.46-.5.45-.85.03-1.45-.18-.25-.41-.47-.75-.36-.31.1-.51.34-.5.67,0,.42.07.84.11,1.26-.96-.44-1.69-.19-2.38.62-.63.72-1.43,1.29-2.15,1.94-.49.44-1.01.87-1.46,1.36-.53.58-.48.96.09,1.57.47.5.86.54,1.4.03,1.68-1.57,3.39-3.11,4.77-4.96ZM211.83,65.99c1.4-.32,2.79-.08,4.17.07.76.08.96.38.82,1.1-.23,1.15-.69,2.19-1.42,3.13-.49.63-.45.83-.02,1.46.55.8,1.11,1.6,1.68,2.39.39.53.98.59,1.39.09.45-.56.87-1.17,1.2-1.82.29-.57.64-1.04,1.22-1.28.85-.36.92-1,.78-1.8-.31-1.79-.76-3.57-.73-5.41,0-.06-.02-.12-.03-.18-.13-.67-.58-.96-1.19-.72-.45.18-.88.41-1.31.64-1.68.88-3.37,1.71-5.33,1.68-.51,0-.94.22-1.23.66-.86.04-1.77.08-2.38.71-.71.73-1.28,1.6-1.9,2.43-.17.23.09.66.4.65.36-.01.72-.09,1.07-.13.36-.04.65.34,1.03.19q.14-2.51,1.76-3.87ZM146.5,50.61c.33-.5.13-.92.07-1.33-.07-.61-.13-1.21.02-1.81.12-.5.48-.7.96-.48,1.27.58,2.54,1.17,3.79,1.8.54.27,1.06.55,1.67.67,1.1.23,1.37.92.77,1.85-.26.41-.6.76-.9,1.14-.19.24-.41.45-.57.71-.32.5.18,2.08.71,2.25.16.05.37.03.52-.05.8-.38,1.66-.37,2.51-.35,1.39.04,2.79-.11,4.18.2.77.17,1.34-.37,1.25-1.15-.19-1.63-.46-3.25-.71-4.87-.07-.47-.33-.75-.85-.78-.62-.03-.86-.44-.79-1,.14-1.03-.26-1.89-.71-2.76-.7-1.35-1.28-2.76-2.1-4.04-.4-.62-.68-1.32-.57-2.07.11-.76-.21-1.29-.71-1.77-.44-.42-.89-.83-1.29-1.29-.74-.83-1.6-1.06-2.62-.62-.68.29-1.39.44-2.13.45-1.48.01-2.87.49-4.29.83-.6.14-1.14.43-1.57.89-.58.63-1.27.9-2.13.7-.55-.13-.99.11-1.24.55-.76,1.32-1.68,2.64-1.89,4.12-.19,1.33-.71,2.51-1.02,3.77-.43,1.77-.82,3.54-1.23,5.31-.13.55-.1,1.09.12,1.61.62,1.52,1.71,2.8,2.25,4.36.13.37.68.42,1.13.21.41-.19.47-.52.35-.91-.12-.41-.24-.82-.37-1.22-.99-3.16-.45-6.25.47-9.31.11-.36.44-.44.71-.21.82.72,1.63,1.46,2.47,2.16,1.16.96,2.39,1.8,3.76,2.42ZM231.35,97.32c.25-.78.32-1.45.78-1.96.45-.5.47-1.09.31-1.71-.13-.47-.25-.95-.09-1.43.03-.1.15-.2.25-.23.1-.03.29,0,.32.06.21.36.39.75.59,1.12.31.58.52.73,1.17.55,1.5-.42,2.99-.46,4.5-.07.23.06.48.08.72.07.88-.03,1.29-.67.95-1.47-.07-.17-.18-.32-.25-.49-.54-1.33-.24-2.17,1.02-2.88.76-.43,1.58-.61,2.45-.62.61,0,1.23,0,1.81-.12.92-.19,1.29-.77,1.23-1.72,0-.12-.05-.24-.06-.36-.09-1.31.36-2.19,1.59-2.52,1.8-.48,3.61-1.16,5.54-.58.59.17.78-.09.65-.68-.23-1.06-.75-1.68-1.94-1.78-.96-.08-1.89-.44-2.83-.69-1.06-.29-2.1-.61-3.21-.61-.99,0-1.92-.29-2.76-.82-.2-.13-.42-.26-.64-.32-.18-.05-.38.09-.4.28-.03.29-.01.6.05.89.16.71.36,1.41.52,2.12.06.28-.2.53-.41.41-.89-.51-1.99-.75-2.64-1.57-.63-.78-1.4-1.13-2.31-1.32-1.75-.37-3.36-1.03-4.81-2.1-.34-.25-.7-.5-1.09-.64-.55-.2-1.11-.06-1.53.34-.39.37-.36.89-.18,1.37.18.45.43.87.6,1.32.09.25-.03.56-.32.51-1.09-.17-1.37.57-1.59,1.37-.24.88-.48,1.76-.65,2.65-.42,2.21-1.23,4.13-3.09,5.61-1.2.95-.83,2.56.56,3.21.11.05.22.1.34.14,1.4.55,2.5,1.48,3.37,2.69.45.63.92,1.24,1.48,2ZM155.19,191.16c-.28.53-.56,1.07-.85,1.59-.33.59-.63.57-1.04-.04-.37-.55-.74-1.11-1.14-1.64-.15-.2-.46-.28-.65-.11-.57.51-1.35.92-1.05,1.91.05.18.1.38-.06.51-.62.47-1.03,1.29-1.87,1.39-1.31.16-1.69,1-1.79,2.12-.02.24-.1.48-.14.72-.6,3.54-1.2,7.07-1.79,10.61-.35,2.1-.68,4.2-.99,6.31-.07.48.21.68.67.51,1.95-.71,3.79-1.66,5.55-2.74,4.46-2.72,7.98-6.33,10.34-11.02,1.6-3.18,2.52-6.57,3.25-10.03.05-.24.08-.48.08-.72,0-.09-.11-.22-.2-.25-.1-.03-.25,0-.34.06-.32.21-.52.53-.55.9-.05.48-.04.97-.07,1.46-.04.71-.1.75-.91.59-.71-.13-.74-.14-.9.48-.41,1.56-1.18,2.93-2.18,4.17-.99,1.22-1.61,2.56-1.52,4.18.02.47-.11.96-.19,1.44-.01.08-.18.18-.27.18-.07,0-.2-.15-.2-.23-.03-1.15-.05-2.31-.07-3.46-.01-.79.05-1.59-.29-2.34-.44-.98-.45-2-.45-3.04,0-1.14.1-2.29-.37-3.49ZM91.08,65.22c.39.24.67.37.9.56.78.63.96,1.17.57,2.07-.29.66-.67,1.29-1.07,1.9-.3.46-.59.91-.8,1.42-.34.87-.5.92-1.34.59-.34-.14-.66-.31-1-.45-.17-.07-.34-.13-.52-.15-.1,0-.25.06-.3.14-.05.09-.05.27,0,.34.16.17.35.35.56.43.43.17.53.43.38.85-.35,1-.06,2.04-.21,3.07-.11.73.53,1.2,1.16,1.48.44.2.84-.08,1.14-.39.98-.99,2.23-1.68,3.11-2.81.59-.76,1.46-1.07,2.42-1.06.73,0,1.46.02,2.19,0,1.07-.04,1.27-.22,1.34-1.29.06-1.03.05-2.07.1-3.1.03-.56.32-.75.84-.63.45.11.87.63,1.35.29.42-.3.24-.91.4-1.36.06-.17.12-.34.2-.51.13-.31.5-.43.74-.21.63.57,1.26,1.14,1.85,1.76,1.19,1.25,1.87,2.69,1.45,4.47-.08.35-.2.72,0,1.06.07.13.26.22.42.26.06.02.25-.13.26-.2.03-1.09.54-2.12.39-3.23-.04-.32.05-.64.38-.75.97-.33,1.94-.72,3-.3.72.28,1.47.5,2.31.77.03-.87-.17-1.45-1.04-1.71-.58-.17-1.18-.36-1.67-.69-.76-.51-1.41-.55-2.15.03-1.13.87-1.32.37-1.66-.54-.29-.77-.19-1.42.36-2.02.16-.18.33-.36.47-.56.16-.22.12-.46-.04-.67-.32-.4-.21-.64.26-.8.22-.07.42-.23.62-.36.04-.03.08-.13.06-.16-.06-.08-.18-.22-.23-.2-.39.11-.7.14-.85-.36-.04-.15-.23-.3-.39-.36-1.75-.61-3.55-1.08-5.31-.21-1.87.92-3.89,1.4-5.77,2.24-1.45.65-2.95,1.13-4.57,1.09-.04,0-.09.07-.3.23ZM186.48,50.73c.27-.02.39-.01.51-.03.77-.14.98-.51.57-1.07-1.11-1.53-2.56-2.58-4.4-3.07-.42-.11-.71.05-.83.47-.05.17-.09.35-.15.52-.1.26-.32.37-.58.33-.3-.05-.6-.12-.88-.23-2.64-1.07-5.45-1.76-7.88-3.32-.2-.13-.43-.23-.66-.32-.74-.29-1.47-.6-2.04-1.17-.53-.53-1.09-.41-1.66-.07-.38.22-.67.52-.82.94-.7,1.96-1.03,4-1.06,6.08,0,.06,0,.13.04.17.07.09.16.21.25.23.08.01.22-.08.28-.17q.54-.8,1.11-.09c.11.14.2.32.33.44,1.3,1.2,2.57,2.41,3.33,4.05.07.16.28.25.47.16.1-.04.21-.15.23-.25.28-.93.47-1.9.82-2.8.48-1.24.16-2.25-.64-3.2-.27-.32-.52-.67-.75-1.02-.05-.07-.02-.25.04-.32.06-.06.23-.09.32-.06.55.24,1.04.59,1.66.71,1.84.36,3.16,1.43,4.04,3.09.51.96,1.11,1.88,1.69,2.81.3.47.84.54,1.23.15.21-.21.39-.47.49-.75.1-.28.06-.6.11-.9.08-.43.4-.59.79-.61.57-.04.96.2,1.12.73.16.52.22,1.07.39,1.59.11.35.35.65.74.75.52.13,2.11-.6,2.41-1.09.17-.28.17-.59.07-.88-.2-.57-.42-1.13-.68-1.83ZM168.68,140.08c.04.66.29.94.51,1.22.78,1.01,1.67,1.93,2.63,2.76.36.31.27.72-.17.81-.83.16-1.67.3-2.51.42-1.62.25-3.24.47-4.86.73-.71.11-.93.42-.86,1.14.06.66.2,1.32.24,1.99.05.85.46,1.35,1.29,1.52.54.11,1.11.18,1.46.65.84,1.1,2.09,1.88,2.52,3.3.16.51.58.73,1.1.82.66.12,1.31.26,1.95.43,2.07.56,2.04.58,1.76-1.55-.1-.73-.35-1.26-1.03-1.57-.61-.28-1.13-.7-1.6-1.18-.53-.55-.5-.98.15-1.27,1.16-.53,2.33-1.03,3.5-1.53.51-.22,1.04-.36,1.6-.28.23.03.63.13.64.24.12.85,1.05,1.11,1.27,1.86.07.23.21.51.49.3.15-.12.21-.43.22-.65.01-.41-.31-.62-.59-.87-.92-.81-1.66-1.75-2.13-2.91-.5-1.23-.36-2.38.39-3.45.28-.4.61-.76.88-1.16.3-.46.13-.98-.41-1.17-.91-.32-1.83-.66-2.82-.23-1.17.51-2.38.38-3.58.12-.64-.14-1.28-.3-2.04-.47ZM227.1,60.57c-.25.32-.27.39-.32.41-.49.24-.99.46-1.49.7-2.26,1.08-2.36,1.12-1.59,3.42.5,1.47.77,2.88.5,4.43-.15.87.28,1.21,1.18,1.14.29-.02.63-.07.86-.23.49-.33.98-.44,1.55-.31.25.06.49,0,.6-.27.1-.25-.03-.47-.18-.67-.07-.1-.15-.2-.24-.28-1.48-1.29-1.41-2.83-.79-4.5.43-1.15.96-2.23,1.73-3.19.52-.64.54-.8.03-1.43-1.06-1.3-1.8-2.74-2.16-4.38-.14-.63-.5-1.09-.98-1.5-.37-.31-.59-.35-.89.06-.38.53-.9.8-1.45,1.06-.55.26-1.13.47-1.64.79-.5.31-1.13.47-1.43,1.06.53.66,1.22.23,1.84.25.42.01.84-.18,1.24.07.1.06.2.17.22.27.06.23-.11.34-.3.33-.66-.05-1.33-.26-1.99-.02-1.48.55-3.11.56-4.56,1.24-.61.28-1.29.29-1.97.19-.6-.09-1.22-.12-1.82-.07-1.4.1-2.77,1.44-2.94,2.81-.05.45.11.84.36,1.2.15.21.38.34.63.2.42-.24.75-.58,1.25-.72,1.93-.54,3.85-1.13,5.78-1.67.98-.28.98-.25,1.65-1.51.55.93,1.43,1.07,2.35,1.18.34.04.69.23.99.43.45.3.92.3,1.4.18.76-.18,1.51-.39,2.55-.65ZM135.34,152.5c-.27-.19-.28-.45-.32-.68-.06-.39-.26-.69-.6-.86-.14-.07-.34-.07-.51-.04-.07.01-.15.2-.14.31.08,1.09.19,2.2.57,3.22.64,1.71,1.31,3.41,2.1,5.05,1.45,3.02,2.99,5.99,4.49,8.98.16.33.33.65.52.96.29.45.77.47,1.02.02.86-1.54,1.73-3.08,2.5-4.66.52-1.06.13-1.67-1.08-1.93-.47-.1-1.05-.07-1.31-.52-.41-.72-1.05-1.16-1.65-1.67-.73-.62-.79-1.11-.16-1.88.72-.89,1.35-1.88,2.4-2.47.43-.24.54-.63.39-1.1-.1-.29-.18-.58-.31-.86-.13-.3-.37-.48-.7-.49-1.68-.07-3.21-.63-4.68-1.39-.71-.37-1.36-.49-2.06-.04-.13.08-.34.05-.47.07ZM258.44,101.12c.02-.55-.23-.75-.47-.69-.12.03-.24.05-.35.1-2.39,1.19-4.77,2.39-7.16,3.59-.27.14-.58.28-.66.59-.17.66-.71.97-1.21,1.3-1.24.83-1.98,2.12-3.03,3.13-.17.16,0,.5.26.54.3.04.6.08.9.07,2.4-.08,4.69.46,6.97,1.15.7.21,1.4.4,2.11.57.3.07.62.04.82-.24.2-.27.22-.58,0-.84-.61-.69-.52-1.43-.27-2.22.52-1.62,1.01-3.24,1.49-4.87.24-.81.44-1.63.59-2.17ZM164.83,115.58c-.6.76-1.12,1.55-1.97,1.92-1.09.47-1.71,1.31-2.21,2.31-.22.43-.48.84-.73,1.26-1.29,2.2-2.59,4.39-3.87,6.6-.24.42-.47.86-.6,1.32-.11.39.15.7.52.85.34.14.59,0,.74-.31.24-.49.45-1,.71-1.48.31-.59.61-1.19,1.11-1.66.4-.38.98-.34,1.25.12.21.36.35.77.54,1.15.26.53.59.65.99.31.97-.82,1.98-1.61,2.81-2.58.5-.58.67-1.19.65-1.99-.08-2.59-.46-5.19.07-7.81ZM109.56,37.45c.49.03.9-.17,1.18-.44.59-.56,1.3-.87,1.99-1.25.65-.36.65-.38,1.03.34.09.18.22.31.41.29.62-.05,1.21.04,1.77.31.23.11.48.09.68-.1,1.05-.98,1.68-2.09,1.11-3.57-.11-.28-.19-.58-.32-.85-.26-.52-.11-.79.46-.88.2-.03.25-.24.23-.44-.08-.76-.31-1.42-1.05-1.81-.38-.2-.74-.42-1.07-.69-.51-.42-.98-.89-1.47-1.34-.77.26-.86,1.11-1.37,1.6-.66.63-1.25,1.33-1.93,1.94-.66.61-.87,1.25-.52,2.11.5,1.23.15,2.38-.47,3.49-.22.4-.67.69-.68,1.28ZM26.84,150.06c.14,0-.11.02-.35,0-1.64-.18-2.57.84-3.38,2.03-.35.52-.24.86.29,1.21.3.2.61.42.94.55,1.18.45,2.06,1.25,2.84,2.21.42.51.83,1.05,1.54,1.22.44.11.85.12,1.15-.29.77-1.09,1.55-2.18,2.28-3.29.15-.23.26-.61.19-.86-.28-.95-.16-1.93-.29-2.89-.07-.52-.4-.74-.9-.53-1.26.53-2.57.71-4.3.64ZM52.38,141.15c.39.08.56.13.74.15.63.06.87-.15.91-.81.01-.18,0-.36-.03-.54-.04-.33-.33-.53-.66-.44-.41.11-.81.25-1.21.4-2.28.84-4.54,1.73-6.83,2.53-2.09.73-4.02,1.67-5.53,3.35-.6.67-1.37,1.2-2.02,1.83-.44.43-.33.94.26,1.14,1.2.41,2.43.77,3.65,1.1.61.17,1.07-.13,1.36-.66.47-.86,1.1-1.59,1.82-2.25.54-.5.87-1.16,1.22-1.8.35-.64.73-1.26,1.13-1.87.3-.46.67-.89,1.17-1.12,1.33-.62,2.72-1,4-1.01ZM243.92,100.58c-.22.85.13,1.25.79,1.5.34.13.67.3.95.52.43.34.78.22,1.14-.07.28-.23.57-.45.84-.7,1.44-1.3,2.88-2.6,4.31-3.92.4-.37.78-.76,1.14-1.17.25-.29.34-.68.14-1.02-.53-.88-1.08-1.75-1.66-2.59-.22-.32-.78-.21-.9.14-.12.34-.18.7-.29,1.05-.24.81-.77,1.36-1.57,1.64-.52.18-1.03.37-1.59.36-.3,0-.61-.01-.91.03-1.46.2-2.21,1.04-2.29,2.53-.03.61-.07,1.21-.09,1.7ZM195.1,59.67c0-.07,0,.05,0,.17.06.66.32.94,1.02,1.08.63.13.89.05,1.17-.56.42-.9,1.06-1.63,1.74-2.32.43-.43.89-.83,1.32-1.26.88-.88,1.01-1.3.44-2.43-.52-1.03-1.16-2-1.78-2.97-.12-.19-.37-.43-.55-.43-.8.04-1.29-.84-2.01-.74-.7.09-1.37.48-2.04.75-.22.09-.45.19-.65.32-.14.1-.28.25-.35.4-.47.96.24,2.36,1.31,2.52.78.12,1.57.14,2.36.2.57.05.74.36.42.85-.62.97-1.27,1.93-1.94,2.87-.29.41-.52.82-.48,1.53ZM164.6,175.84c-.09-1.05-.18-2.08-.27-3.11-.17-2-.32-4-.51-5.99-.06-.66-.19-1.32-.3-1.98-.07-.42-.37-.65-.77-.6-1.44.19-2.89.39-4.32.63-.6.1-.93.54-.99,1.16-.02.24-.02.49-.04.73-.08.92.35,1.44,1.19,1.81.92.4,1.89.43,2.84.59,2.4.4,2.4.42.85,2.36-.04.05-.08.09-.11.15-.21.36-.68.63-.59,1.07.04.22.45.35.64.56.1.12.17.34.14.49-.06.38-.03.74.19,1.05.5.69,1.01,1.36,1.54,2.03.05.06.24.08.32.04.09-.04.16-.18.17-.28.02-.24,0-.48,0-.7ZM65.15,92.03c.04.23.07.41.09.59.11,1.37.25,1.46,1.45.86.27-.13.56-.28.74-.5.37-.47.74-.61,1.22-.19.47.41.98.4,1.53.17.33-.14.7-.31,1.04-.3,1.32.06,2.28-.78,3.35-1.3.96-.46.99-2.04.1-2.59-.78-.47-1.61-.85-2.43-1.24-.47-.22-.74-.03-1.02.42-.42.68-.5.67-1.17.47-.29-.09-.57-.23-.86-.31-.31-.09-.64-.04-.81.25-.65,1.07-1.68,1.73-2.63,2.48-.41.32-.71.67-.6,1.18ZM202.26,58.27c-.14.05-.34.08-.46.19-.54.48-1.09.96-1.58,1.49-.53.57-1.54.86-1.56,1.66-.02.89,1.11.96,1.67,1.46.22.2.58.33.53.68-.11.78.46,1.22.82,1.75.72,1.07.73,1,2.03.79.91-.15,1.75-.48,2.57-.85.78-.36.98-1.31.44-1.99-.26-.33-.6-.59-.93-.85-1.17-.91-2-2.08-2.71-3.36-.15-.26-.29-.53-.46-.77-.06-.08-.21-.11-.35-.17ZM247.96,103.6c.23-.02.36,0,.46-.05,3.25-1.51,6.52-2.97,9.71-4.59,1.12-.57,2.01-1.56,2.36-2.87.08-.31.04-.61-.28-.79-.21-.12-.42-.24-.64-.35-.63-.31-.81-.31-1.16.36-.53,1-1.36,1.32-2.39,1.33-.12,0-.24,0-.36-.02-.53-.07-.94.13-1.31.49-2.03,1.92-4.07,3.82-6.1,5.74-.17.16-.36.34-.28.75ZM239.44,125.63c-.49,0-.77.38-.65.65.12.28.25.55.42.8.97,1.4,1.94,2.8,2.92,4.19,1.23,1.74,2.46,3.48,3.69,5.21.18.25.39.51.74.41.31-.1.45-.39.55-.68.15-.41.2-.81.04-1.24-.17-.45-.29-.93-.4-1.4-.15-.65-.33-1.29-.69-1.87-.45-.72-.84-1.48-1.28-2.21-.18-.31-.35-.66-.62-.89-1.26-1.05-2.5-2.14-4.05-2.76-.28-.11-.57-.18-.68-.21ZM161.55,133.47c.05.2.16.73.32,1.25.12.39.53.48.88.21.24-.19.46-.39.68-.61,1.42-1.41,2.85-2.81,4.24-4.25.59-.61,1.12-1.28,1.63-1.95.68-.9.62-1.11-.41-1.6-.11-.05-.22-.1-.33-.15-1.12-.47-1.23-.45-2.03.43-1.38,1.53-2.76,3.06-4.14,4.58-.16.18-.32.36-.48.55-.29.34-.4.74-.35,1.53ZM205.98,115.4c-.5-.69-1.08-.99-1.73-1.12-.64-.13-1.09-.47-1.52-.91-.33-.35-.69-.67-1.03-1.02-.45-.46-.99-.64-1.63-.66-1.12-.04-2.16.07-2.99.97-.45.48-1.04.82-1.53,1.27-.26.24-.49.53-.66.85-.28.51.2,1.16.78,1.11.12-.01.25-.02.35-.07,1.19-.56,2.48-.46,3.73-.64.82-.11,1.55-.09,2.19.52.31.3.72.46,1.16.4.94-.12,1.87-.3,2.88-.69ZM82.92,168.68c.51-.47.94-.88,1.38-1.26,1.21-1.04,2.54-1.87,4.11-2.26,1.13-.28,2.17-.08,3.1.62.24.18.45.41.68.6.14.12.32.2.47.05.07-.06.09-.23.06-.33-.47-1.71-.63-3.45-.59-5.21,0-.27-.29-.42-.52-.27-.2.13-.41.27-.59.42-.61.5-1.21,1.01-1.81,1.52-.6.5-.93.41-1.15-.39-.19-.7-.3-1.42-.45-2.13-.04-.2.05-.49-.3-.55-.38.39-.24.91-.3,1.37-.13,1.1-.44,2.16-1.08,3.06-1.02,1.43-1.68,3.1-3.01,4.31-.05.05,0,.2,0,.47ZM52.52,135.5c-.11.05-.24.08-.32.15-.79.64-1.72.86-2.71.89-1.35.05-2.56.72-3.89.86-.43.05-.81.42-.8.88.01.72.17,1.45.63,2.04.28.36.7.5,1.14.43.36-.05.71-.16,1.05-.29,1.7-.65,3.4-1.3,5.09-1.97.33-.13.66-.31.95-.52.41-.3.45-.98.03-1.26-.41-.27-.86-.44-.89-1.03,0-.07-.17-.12-.26-.18ZM217.46,80.47c.45-.13.66-.53.89-.87.86-1.3,2.02-2.24,3.33-3.03.26-.15.51-.33.74-.52.23-.19.19-.63-.07-.79-.2-.13-.42-.27-.65-.32-1.05-.23-2.04.02-2.99.48-.23.11-.27.34-.31.6-.12.79-.17.81-.84.78-.36-.02-.72-.06-1.09-.09-.64-.05-1.18.24-1.72.5q-.92.44-1.47,1.07c.52.17,1.05.3,1.55.51.5.21.96.72,1.44.71.77,0,.67.82,1.19.97ZM29.75,158.94c.68,0,1.37-.33,2.08-.17.89.21,1.77.45,2.54.96.68.45,1.26.28,1.81-.21.3-.26.44-.56.22-.96-.81-1.49-1.69-2.94-2.85-4.19-.39-.42-.66-.43-1.01.06-.82,1.13-1.63,2.26-2.42,3.41-.2.29-.51.55-.37,1.11ZM157.75,183.44c1.03.09,1.77.05,2.44.4,1.1.59,2.36.53,3.53.83.37.1.71-.17.78-.59.19-1.21.19-2.42.07-3.64-.04-.4-.3-.7-.71-.72-.79-.05-1.58-.05-2.36-.02-.4.01-.61.36-.51.79.1.47.25.94.35,1.42.09.43-.2.75-.64.61-1.06-.36-1.88.04-2.96.91ZM147.37,91.82c.27-.27.57-.02.85-.07.26-.05.44-.19.52-.44.08-.25.01-.49-.17-.67-.17-.16-.37-.35-.59-.38-1.55-.26-3.1-.5-4.65-.71-.5-.07-.73.34-.51.86.31.72.66,1.42.96,2.15.52,1.27,1.44,1.75,2.7,1.31.78-.27,1.54-.63,2.32-.95-.34-.64-1.19-.45-1.44-1.1ZM136.24,110.35c.05.36.06.73.15,1.08.08.29.23.58.59.62.26.03.45-.14.6-.34,1.23-1.66,2.47-3.31,3.68-4.97.34-.47.28-.87-.14-1.3-.17-.17-.36-.34-.57-.45-1.02-.54-1.94-.13-2.13,1.01-.15.88-.44,1.64-1.2,2.15-.8.53-1.06,1.29-.99,2.21ZM201.41,88.32s0,.02,0,.03c-.48-.02-.97,0-1.45-.08-1.31-.21-1.68-.06-1.38,1.56.32,1.75.02,1.66,1.93,1.83,1.03.09,1.76-.08,2.39-.86.11-.14.24-.27.36-.41.34-.43.63-.39,1.05-.02.31.28.71.07.8-.32.22-.89-.11-1.47-.98-1.57-.9-.11-1.81-.11-2.71-.15ZM166.02,44c.01-.39-.07-.73-.48-.87-.43-.15-.84-.08-1.16.26-.12.13-.23.29-.27.46-.24,1.18-.97,2.06-1.76,2.9-.2.22-.38.47-.53.73-.29.49-.19,1,.3,1.24.7.34,1.43.63,2.17.89.45.16.84-.09.93-.6.29-1.66.53-3.33.79-5ZM133.93,42.44c.92.25,1.6.45,2.3.61.26.06.48-.07.6-.3.69-1.48,1.37-2.95,2.04-4.44.37-.81.07-1.54-.37-2.21-.34-.53-1.02-.5-1.33.03-.28.47-.49.97-.55,1.52-.08.8-.48,1.48-.8,2.2-.4.89-1.15,1.53-1.89,2.59ZM147.17,88.13c-.12-.67-.51-1.27-.92-1.86-.13-.19-.34-.37-.55-.45-1.24-.5-2.48-.97-3.73-1.43-.09-.04-.22.02-.53.05.25.93.29,1.88.64,2.79.19.5.57.81,1.08.87,1.08.11,2.17.17,3.26.26.24.02.48.08.75-.21ZM249.16,47.48c.04.11.06.24.13.33.25.34.63.63.75,1.01.32,1,1.12,1.18,1.97,1.34,1.14.21,1.27.1,1.91-.84.42-.61.38-1.1-.05-1.64-.34-.43-.66-.87-1.02-1.28-.21-.24-.52-.33-.82-.17-.81.44-1.69.64-2.57.85-.18.04-.29.2-.3.41ZM127.08,32.7c.04.31.06.8.33,1.22.08.13.28.26.42.26.14,0,.38-.15.41-.28.26-1.13.87-2.11,1.32-3.16.2-.47.2-.94-.2-1.35-.34-.35-.65-.73-.77-1.21-.24-.93-.99-1.32-1.77-1.69-.29-.14-.59-.13-.84.1-.25.23-.28.53-.23.84.05.31.23.55.47.75.37.31.78.58,1.1.94.71.81.75,1.51.12,2.43-.21.31-.44.58-.37,1.15ZM133.52,52.89c.02-.77-.32-1.27-.92-1.37-.67-.12-1.13.16-1.34.92-.23.82-.45,1.65-.6,2.48-.22,1.27-.12,2.54.19,3.79.04.18.18.36.38.31.15-.04.27-.2.4-.32.04-.04.05-.11.05-.17,0-1.58.6-2.96,1.43-4.27.26-.41.43-.88.41-1.38ZM250.33,72.43c.13.01-.05-.04-.22,0-.21.04-.26.23-.2.41.03.11.1.25.19.3,1.51.8,2.81,1.86,4.02,3.06.04.04.11.08.16.08.11,0,.22-.03.32-.08.03-.02.07-.12.05-.16-.09-.22-.17-.45-.3-.64-.39-.6-.63-1.39-.3-1.89.74-1.1.14-2.09.04-3.12,0-.09-.13-.21-.22-.24-.09-.02-.25.03-.3.1-.27.4-.52.81-.78,1.22-.5.78-1.18,1.19-2.45.97ZM35.31,147.72c.23,0,.3,0,.36,0,.71-.05,2.83-1.68,3.07-2.35.2-.59-.2-1.14-.79-1.05-.54.08-1.07.21-1.61.29-1.26.21-1.79,1.13-2.12,2.22-.1.33.08.61.38.73.27.11.58.13.71.16ZM244.9,125.07c-.02-.26-.13-.46-.33-.62-.54-.39-1.08-.78-1.61-1.18-.77-.58-.92-.61-1.79-.1-.31.18-.62.38-.91.6-.37.27-.4.68-.03.89,1.05.59,2.04,1.31,3.27,1.55.79.16,1.42-.33,1.41-1.14ZM113.97,147.4c.26,1.16.54,2.45.85,3.73.05.22.22.42.36.62.17.24.62.27.79.03.63-.86,1.25-1.74,1.87-2.61-.46-.81-1.51-.62-2.1-1.22-.34-.34-.74-.61-1.11-.91-.14-.11-.3-.22-.47-.1-.08.06-.09.21-.19.46ZM143.22,175.94c1.21-2.52,1.81-6.08,1.54-8.45-.64.77-1.94,3.03-2.1,3.73-.07.28-.12.64,0,.89.48,1.08.54,2.23.57,3.83ZM214.23,121.68c-.45,1.25-.6,2.31-.54,3.42.05.97.07,1.94-.17,2.89-.07.27-.22.63.18.77.25.08.41-.19.57-.36.5-.52,1.02-1.03,1.51-1.56.2-.22.41-.45.54-.71.27-.55-.22-1.26-.82-1.23-.74.04-.74.04-.78-.5-.06-.83.07-1.7-.5-2.71ZM32.47,92.55c.37,0,.77.06,1.05-.19.81-.72,1.48-1.56,2.02-2.5.05-.08.02-.28-.05-.33-.13-.1-.3-.19-.46-.2-.17,0-.36.06-.51.15-1.15.68-2.37,1.17-3.67,1.45-.22.05-.44.19-.63.33-.2.14-.37.36-.26.61.06.14.24.28.38.31.7.14,1.42.24,2.13.36ZM101.04,104.76c-.12.01-.43.02-.71.09-.76.19-1.35.76-1.51,1.42-.15.59.74.64,1.13.97.14.12.31.19.46.28.53.33,1.03.29,1.47-.16.29-.3.6-.6.85-.93.4-.52.27-.97-.31-1.35-.37-.24-.77-.33-1.38-.31ZM157.78,110.32s.04,0,.06,0c0,.36,0,.73,0,1.09,0,.12,0,.24.02.36.07.66.41.83.99.46.46-.29.93-.6,1.31-.97.93-.91,1.09-1.57-.25-2.2-.49-.23-.97-.5-1.47-.7-.26-.1-.51.08-.55.33-.08.54-.08,1.08-.11,1.63ZM141.51,248.18c.07,0,.13-.01.2-.02,0-2.83,0-5.66,0-8.49,0-.36-.02-.72-.04-1.09,0-.06-.04-.12-.08-.16-.04-.03-.11-.01-.24-.02-.5,1.4-.81,2.87-.99,4.36-.06.46.03.97.14,1.43.15.65.41,1.26.58,1.91.18.69.3,1.38.44,2.08ZM127.89,225.37c.15-.06.3-.08.37-.16.81-.97,1.62-1.95,2.42-2.93.06-.07.05-.25,0-.34-.05-.08-.2-.18-.29-.16-1.19.25-2.34.61-3.41,1.21-.72.4-.82.85-.34,1.46.22.28.5.53.78.75.13.1.33.12.47.17ZM193.95,113.03c-1-1.19-1.81-2.17-1.78-3.54,0-.26-.25-.43-.52-.37-.65.15-1.3.38-1.71.92-.32.42-.03.94,0,1.4.03.35,0,.8.2,1.03.31.37.62-.12.93-.22.44-.13.82-.03,1.22.14.43.18.76.6,1.65.62ZM122.86,127.24c1.14-.02,2.34-1.25,2.35-2.27,0-.06-.02-.12-.04-.18-.06-.19-.19-.36-.38-.32-.94.19-1.89.37-2.82.64-.45.13-.57.58-.57,1.04,0,.49.26.8.7.95.28.09.59.12.75.15ZM145.67,33.91c-.86-.48-1.52-.94-2.36-.53-1.3.64-2.32,1.54-2.74,2.99-.05.18-.06.38.13.47.09.04.26.02.34-.04,1.32-.98,2.75-1.77,4.21-2.51.1-.05.18-.16.42-.38ZM155.82,149.33c-.73.94-1.06,1.98-1.74,2.85-.39.5-.34,1.14-.23,1.74.07.39.31.64.71.7.37.06.75.03.97-.31.15-.24.27-.55.28-.83.03-1.38.01-2.76.01-4.14ZM143.61,225.22s.01,0,.02,0c0,.72-.03,1.44.01,2.15.02.27.31.37.55.25,1.39-.69,1.84-2,1.12-3.29-.26-.47-.62-.88-.97-1.29-.1-.12-.3-.2-.46-.2-.21,0-.27.22-.27.4-.01.66,0,1.32,0,1.98ZM154.18,79.91c-.29-.05-.59-.13-.89-.14-.27-.01-.47.17-.49.44-.05,1,1.05,2.46,2.07,2.73.18.05.32-.14.29-.35-.02-.11-.12-.21-.16-.32-.23-.58-.17-.69.36-.66.24.01.48.09.72.1.29.02.47-.15.45-.43-.08-1.05-.45-1.42-1.43-1.46-.3-.01-.6.06-.92.09ZM223.8,91.16c0-.82-.2-1.23-.67-1.25-.91-.03-1.8-.13-2.69-.31-.33-.07-.68.35-.65.72.03.39.2.74.56.87.9.33,1.82.61,2.75.89.26.08.48-.11.57-.34.09-.22.11-.47.13-.57ZM114.02,42.06c-.14-.48-.59-.58-.96-.76-1.32-.66-2.03-.35-2.43,1.05-.08.29-.13.59-.17.89-.04.33.12.61.43.72,1.34.51,1.45.76,1.83-.83.04-.18.09-.35.14-.52.13-.47.46-.48.86-.41.09.01.19-.09.3-.13ZM153.2,164.42c.9,1.25.97,2.39,1.05,3.53.04.59.49.79,1.02.51.34-.19.54-.46.62-.83.39-1.79-.02-2.51-1.77-3.11-.16-.05-.34-.04-.91-.1ZM47.76,101.36c.02-.12-.25-.38-.78-.28-1.21.23-1.32.43-1.07,1.66.1.53.12,1.07.17,1.6.04.36.05.72.13,1.06.04.14.23.32.37.33.12.01.37-.15.39-.27.26-1.23.48-2.47.79-4.12ZM95.73,41.07c-.89-.54-1.56-.91-2.37-.94-.24,0-.63.1-.55.33.4,1.14-.52,1.61-1.05,2.28-.28.35-.61.71-.52,1.45,1.33-1.32,2.83-2.08,4.49-3.12ZM182.76,23c-.66-.14-1.18-.26-1.7-.36-.42-.08-.86-.07-1.24.14-.9.51-1.75,1.08-2.38,1.92-.15.2-.23.47,0,.64.11.08.38.08.49,0,1.4-1.08,3.04-1.63,4.82-2.34ZM263.01,90.37c.87-.15,1.72-.28,2.47-.7.6-.34.79-.86.6-1.55-.11-.41-.52-.62-.84-.39-.84.61-1.66,1.23-2.47,1.87-.11.09-.19.34-.15.47.04.13.25.2.38.3ZM159.51,56.54c-.12-.31-.31-.32-.49-.33-1.52-.07-3.04.06-4.54-.28-.21-.05-.48.04-.7.14-.14.07-.3.24-.33.39-.1.39.11.7.35.99.24.28.55.26.83.11.99-.52,2.07-.7,3.15-.87.57-.09,1.15-.11,1.74-.16ZM51.32,78.07c.51-.22.78-.33,1.04-.45,1.41-.69,1.59-2.13.38-3.14-.24-.2-.62-.11-.75.19-.42,1.01-.49,2.08-.67,3.41ZM50.05,128.18c0,.74.05,1.51-.02,2.27-.06.64.16,1.03.74,1.27.39.16.77.33,1.16.47.08.03.24-.05.3-.12.06-.08.09-.24.05-.33-.5-1.08-1.01-2.16-1.55-3.22-.09-.18-.28-.4-.69-.34ZM35.86,93.1c.44,0,.91-.32,1.3-.88.4-.57.3-1.01-.32-1.55-.41-.36-.74-.32-1.23.22-.32.35-.6.74-.86,1.14-.14.22-.06.46.15.64.28.24.6.39.96.43ZM181.52,112.64c.12-1.06-.45-1.87-1.01-2.66-.08-.11-.32-.18-.48-.16-.25.02-.47.19-.52.44-.05.23-.07.51.03.71.43.86.91,1.71,1.38,2.55.04.07.22.12.31.1.09-.03.19-.15.21-.25.05-.24.06-.48.08-.72ZM203.98,86.77c-.16-.5-.34-1.07-.52-1.63-.09-.27-.08-.7-.45-.66-.23.02-.45.34-.65.54-.39.42-.47.95-.5,1.49-.02.25.09.46.32.59.43.24.88.35,1.37.25.27-.06.38-.26.43-.58ZM237.39,128.33c-.03-.23-.04-.59-.13-.94-.22-.87-.7-1.17-1.59-1.04-.23.03-.46.12-.69.2-.35.12-.4.41-.11.69.61.58,1.23,1.14,1.86,1.69.08.07.22.1.33.09.21-.03.27-.2.3-.39,0-.06.01-.12.04-.31ZM234.2,137.4c-.12-.06-.22-.15-.32-.15-.62-.01-1.2.12-1.62.62-.62.73-1.27,1.44-1.53,2.4-.02.09.05.26.12.31.14.08.35.18.48.13.2-.08.41-.25.53-.43.32-.5.54-1.08.92-1.54.41-.5.94-.89,1.42-1.33ZM126.29,138.88c-.07-.18-.09-.39-.2-.5-.19-.2-.44-.12-.64.02-1.28.93-1.16.97-.67,2.19.11.27.24.54.39.8.05.08.21.14.31.13.1-.01.25-.11.27-.2.19-.81.36-1.62.53-2.43ZM110.97,145.87c.57,1.72.85,2.07,1.87,2.37.27.08.51-.04.54-.31.11-1.15-.39-1.78-1.52-1.98-.23-.04-.47-.05-.89-.08ZM132.16,225.27c-.05-.18-.04-.42-.15-.51-.25-.19-.43.05-.57.23-.37.48-.75.94-1.06,1.45-.33.55-.17,1.01.39,1.37.34.22.8.11.89-.26.19-.76.33-1.53.49-2.29ZM228.61,143.77c.58.07,1.05.15,1.52.17.34.02.54-.24.62-.54.13-.54.06-1.08-.31-1.52-.09-.12-.35-.24-.45-.19-.37.17-.75.31-1.11.48-.39.18-.26.74-.35,1.14-.02.1.03.23.07.46ZM260.81,89.85c.59-.07,1.05-.79.85-1.33-.15-.41-.43-.71-.84-.88-.35-.15-.69-.2-.98.12-.25.28-.41.61-.28.98.16.46.46.83.91,1.05.1.05.23.04.35.05ZM40.88,168.68c-.02-.06-.02-.12-.05-.17-.39-.62-1.9-.72-2.41-.16-.24.27-.2.73.07.95.38.31.84.44,1.31.53.5.1,1.13-.6,1.08-1.15ZM139.5,92.57c-.02-.36-.02-.67-.06-.97-.1-.8-.49-1.49-.73-1.32-.39.28-.25.77-.41,1.15-.12.28-.18.58-.23.87-.13.69.15,1.11.89,1.31.19.05.38-.01.43-.22.06-.29.08-.59.11-.83ZM69.02,143.26c.12-.09.27-.14.29-.23.18-.71-.25-1.69-.89-2.03-.09-.05-.26-.06-.34-.01-.47.31-.78.75-.85,1.32-.01.1.05.26.14.32.5.36,1.06.56,1.64.64ZM138.69,97.43c-.46,0-.75-.02-1.05,0-.16.02-.36.09-.46.21-.13.15-.03.34.1.47.24.26.48.53.74.78.5.47.76.46,1.2-.02.27-.31.68-.63.55-1.06-.19-.61-.8-.33-1.07-.38ZM223.68,106.6c0-.45-.31-.76-.53-1.11-.29-.46-.63-.88-1.2-1-.24-.05-.5-.04-.64.19-.08.14-.1.35-.06.51.29,1.11,1.27,1.31,2.18,1.6.05.02.16-.12.25-.19ZM192.39,96.57c.91.66,1.66.96,2.48,1.11.11.02.24,0,.35-.05.3-.11.53-.3.55-.64.01-.26-.12-.47-.36-.57-.27-.11-.58-.27-.85-.24-.64.06-1.26.22-2.17.39ZM89.94,83.22c0,.24,0,.52.22.64.34.19.56-.08.73-.32.34-.49.68-.99.98-1.5.07-.12.06-.38-.02-.48-.09-.11-.33-.17-.48-.14-.88.15-1.3.7-1.42,1.8ZM53.98,84.06c0-.18-.01-.48-.05-.78-.01-.1-.1-.24-.18-.27-.2-.07-.36.07-.42.23-.31.79-.6,1.58-.88,2.38-.08.23.2.46.45.38.91-.3,1.08-.59,1.09-1.94ZM139.77,113.01c-.05-.35-.18-.61-.5-.71-.25-.07-.47.05-.65.22-.32.28-.57.62-.63,1.05-.04.32.09.58.37.75.22.13.46.12.67-.02.49-.3.77-.73.73-1.3ZM163.01,24.91c.88.49,1.37.65,1.75.62.48-.05,1.02-.5,1.12-1.02.04-.21-.05-.48-.17-.67-.15-.23-.45-.21-.64-.06-.6.47-1.27.84-2.07,1.13ZM206.68,117.86c-.26.07-.67.14-1.06.27-.22.07-.46.25-.41.52.04.21.17.45.33.59.29.27.64.28.99.09.44-.23.83-.51.79-1.07-.02-.27-.23-.39-.64-.41ZM176.53,28.48c-.99.08-1.9.26-2.76.72-.28.15-.47.4-.44.73.01.16.12.33.23.46.05.06.25.07.33.02.87-.53,1.73-1.08,2.59-1.63.03-.02.02-.11.05-.3ZM152.13,55.84c-.23.93-.14,1.63-.02,2.33.02.11.1.22.18.3.18.18.41.3.64.16.13-.08.29-.28.28-.42-.05-.85-.4-1.57-1.09-2.37ZM58.72,108.99c.21.43.41.88.65,1.3.23.42.64.55,1.09.5.16-.02.37-.08.47-.2.14-.16.01-.35-.12-.48-.56-.55-1.2-.99-2.08-1.13ZM156.07,35.17c.95.96,1.85.78,2.75.28.22-.12.31-.38.29-.63-.01-.17-.06-.38-.17-.49-.15-.14-.37-.05-.46.11-.48.87-1.22.87-2.03.63-.05-.01-.11.03-.38.1ZM135.22,148.18c-.03-.37-.14-.58-.42-.6-.23-.02-.49-.02-.7.07-.42.18-.65.54-.58,1.01.02.15.17.34.31.4.45.2.83.02,1.11-.34.14-.18.22-.41.29-.55ZM126.49,70.58c-.32.07-.85.17-1.38.3-.23.06-.31.44-.15.6.72.7,1.65.54,2.08-.36.1-.21-.1-.53-.55-.54ZM249.49,134.54c-.46.46-.92.91-1.37,1.38-.26.26-.41.59-.42.96,0,.23-.01.51.29.55.13.02.35-.12.42-.25.45-.82.73-1.73,1.09-2.64ZM150.1,125.43c.04.33.02.62.33.65.14.01.32-.14.42-.27.26-.33.5-.68.72-1.04.16-.26-.11-.61-.43-.62-.53,0-.84.2-.95.65-.06.23-.07.48-.09.63ZM172.19,37.36c.42-.04.67-.35.53-.74-.1-.28-.23-.55-.41-.78-.16-.22-.42-.21-.61-.01-.26.27-.36.61-.3.99.05.36.37.58.79.54ZM92.96,44.23c1.37.17,1.67.06,2.06-.76.11-.24-.06-.49-.31-.49-.87.01-1.39.49-1.74,1.25ZM223.51,140.34c.05-.02.13-.03.16-.07.33-.46.48-.97.36-1.53-.07-.29-.81-.58-1.09-.42-.29.16-.16.41-.09.63.12.4.25.81.4,1.2.03.08.18.12.27.18ZM135.73,47.02c-.12-.12-.18-.21-.27-.27-.03-.02-.12,0-.17.02-.6.39-.89.95-.85,1.67.01.24.08.47.3.61.2.13.48-.09.6-.51.15-.52.26-1.04.38-1.53ZM264.19,86.61c-.1-.04-.26-.15-.3-.11-.5.41-1.12.7-1.46,1.29-.09.16-.05.36.11.48.08.06.24.1.32.06.68-.31,1.17-.8,1.36-1.55.01-.05-.02-.11-.04-.17ZM258.9,111.99c.07-.47-.25-.77-.52-1.09-.36-.42-.74-.34-.94.17-.11.29-.17.59.09.83.32.29.69.49,1.14.34.09-.03.15-.16.23-.25ZM44.36,140.97c-.2.02-.5.03-.79.11-.3.08-.51.31-.66.59-.05.1-.08.25-.04.34.04.08.21.17.29.15.51-.18,1.01-.37,1.51-.59.08-.04.17-.19.17-.28,0-.22-.2-.27-.48-.31ZM118.51,69.07c.57.09,1.14.18,1.72.25.08,0,.22-.11.26-.2.04-.09.03-.25-.03-.33-.38-.63-.76-.75-1.34-.43-.25.14-.55.26-.61.72ZM192.63,53.19c-.05-.34.07-.77-.3-.96-.38-.21-.63.2-.95.32-.05.02-.12.05-.15.09-.08.14-.22.31-.2.44.02.14.19.31.33.36.27.1.57.15.86.17.28.02.43-.14.41-.43ZM150.72,86.6c0-.06,0-.13-.02-.17-.25-.38-1.11-.66-1.58-.48-.18.07-.22.28-.16.45.27.77,1.09.94,1.67.35.04-.04.06-.1.08-.15ZM125.12,27.27c-.03-.09-.05-.27-.14-.43-.15-.28-.39-.47-.73-.37-.16.05-.35.15-.43.28-.2.31,0,.57.23.78.13.12.29.21.45.28.27.12.62-.14.61-.54ZM276.09,94.74c-.13-1.07-.14-1.15-.47-1.42-.25-.2-.54-.23-.84-.09-.24.11-.19.49.13.74.37.28.65.71,1.18.77ZM162.07,49.89c-.08.02-.16.05-.23.07.14.81.27,1.62.42,2.42.05.26.21.45.5.34.26-.1.31-.38.22-.6-.29-.75-.6-1.49-.91-2.23ZM91.67,94.36c.4.54.77.82,1.25.89.48.07.96-.02,1.38-.28.04-.03.1-.12.08-.14-.05-.1-.12-.25-.19-.26-.77-.08-1.54-.14-2.52-.22ZM137.49,90.25c-.52-.34-1.01-.47-1.54-.27-.32.12-.83.21-.8.58.05.55.56.23.85.21.5-.03,1.04-.02,1.49-.52ZM102.88,86.51c-.52-.02-.81.12-1.01.56-.06.14-.07.37.01.5.19.31.52.27.79.13.43-.22.69-.76.5-1.01-.06-.08-.2-.12-.3-.17ZM200.5,102.05c.74-.09,1.43-.24,1.92-.81.08-.09.13-.21.14-.33.02-.11.01-.26-.05-.34-.05-.06-.25-.1-.3-.06-.58.5-1.15,1.02-1.72,1.53ZM177.66,132.92c-.06.99-.4,1.89-.69,2.8-.03.08.09.2.14.3.1-.05.24-.07.29-.15.58-.93.46-1.94.26-2.95ZM152.4,173.63c0-.13,0-.25-.03-.36,0-.04-.08-.09-.13-.1-.05-.01-.13,0-.16.03-.57.6-.67,1.35-.64,2.13,0,.03.09.09.13.09.11-.03.24-.05.31-.13.46-.47.37-1.11.51-1.66ZM147.6,33.08c0-.05.03-.11.02-.17-.11-.76-.76-.79-1.3-.95-.07-.02-.25.1-.26.16-.03.48.38.69.67.96.13.11.29.2.46.24.19.05.34-.04.41-.24ZM139.42,85.43c0,.64-.01,1.27,0,1.91,0,.18.17.35.36.3.14-.04.3-.22.33-.36.12-.66-.02-1.28-.69-1.85ZM205.67,93.62c.57.02.95-.2,1.03-.63.03-.14-.08-.37-.2-.45-.36-.24-.69-.07-.99.17-.05.04-.09.08-.13.13-.12.15-.2.34-.08.5.1.13.27.21.37.28ZM210.24,118.69c.42.01.84-.26.78-.53-.08-.36-.53-.76-.89-.73-.28.02-.37.25-.4.5-.05.47.13.75.5.76ZM190.5,93.09c.01-.06.04-.12.03-.17-.09-.58-.48-.92-.99-1.13-.09-.03-.24,0-.31.07-.07.06-.13.22-.1.3.23.49.61.85,1.1,1.08.06.03.18-.09.28-.15ZM148.64,93.9c-.41-.01-.5,0-.86.2-.16.09-.31.26-.22.43.07.14.24.27.4.33.31.11.6-.01.84-.21.12-.1.22-.29.23-.44,0-.2-.19-.28-.38-.31ZM141.59,108.77c.51-.09.96-.54,1.04-1.1.02-.1-.05-.25-.13-.31-.07-.05-.25-.06-.32,0-.38.31-.66.7-.78,1.19-.01.06.12.15.19.23ZM185.9,114.03c.41-.06.77-.24.9-.68.04-.14-.02-.36-.12-.47-.1-.1-.34-.17-.46-.12-.4.17-.64.5-.68.94-.02.2.13.31.35.32ZM113.59,149.7c-.18-.05-.5.22-.48.42.03.45.22.8.64.98.08.03.26-.01.31-.08.28-.39-.02-1.2-.47-1.32ZM25.94,162.68c-.04-.52-.21-.62-.39-.65-.45-.06-.83.38-.84.95,0,.2.15.35.35.35.48,0,.89-.47.88-.65ZM219.98,139.28c-.09.08-.21.14-.25.24-.16.35-.12.69.15.98.16.17.36.37.6.3.33-.09.19-.37.11-.58-.1-.28-.22-.55-.36-.81-.04-.08-.18-.1-.26-.14ZM91.58,95.98c0-.06,0-.12-.02-.17-.18-.33-.46-.55-.81-.65-.19-.05-.36.04-.46.21-.1.17-.09.35.05.49.27.26.61.38.98.33.09-.01.17-.13.26-.2ZM64.46,135.73c.7-.34,1.04-.77,1.33-1.22.1-.16.08-.37-.11-.46-.08-.04-.26,0-.32.07-.37.4-.69.83-.89,1.61ZM161.76,148.85c-.02-.26-.02-.45-.04-.63-.03-.23.01-.49-.27-.61-.18-.08-.47.35-.45.68.02.37.11.72.37,1,.04.04.1.07.15.07.05,0,.13-.03.14-.06.05-.17.08-.35.09-.44ZM130.67,134.82c-.15-.2-.35-.48-.58-.74-.04-.04-.25,0-.31.06-.19.24-.3.53-.19.83.13.34.45.34.75.32.2-.01.33-.13.32-.47ZM74.88,149.12c.06.1.09.24.17.29.09.05.25.05.34,0,.4-.23.53-.62.56-1.05,0-.1-.06-.25-.15-.29-.08-.05-.25-.04-.33.01-.36.25-.53.62-.6,1.05ZM114.44,69.55c.02.22.13.39.33.33.36-.11.59-.4.69-.76.02-.09-.04-.24-.11-.3-.08-.06-.23-.08-.32-.05-.38.12-.59.38-.58.77ZM22.08,102.39c-.07-.08-.13-.21-.22-.25-.45-.19-.81-.08-1.06.35-.03.05-.07.12-.06.16.03.11.07.28.14.29.4.09,1.11-.26,1.2-.56ZM157.39,14.91q1.46-.86,1.79-1.9c-.58.62-1.05,1.11-1.79,1.9ZM163.68,81.47c-.07-.07-.15-.21-.22-.2-.43.02-.8.54-.7,1,.02.07.2.18.26.15.41-.17.59-.52.66-.95ZM102.19,27.46c0,.26.17.35.34.4.34.1.7.25,1-.1.03-.03.02-.13-.01-.17-.21-.29-.53-.25-.83-.24-.17,0-.34.07-.5.11ZM211.96,76.85c-.05-.11-.07-.26-.15-.3-.08-.04-.25,0-.32.06-.28.25-.42.58-.37.96.02.14.15.2.28.14.36-.17.48-.51.56-.87ZM138.79,102.68c-.09-.08-.16-.21-.26-.22-.43-.05-.63.27-.81.57-.07.11.04.25.18.22.28-.06.57-.14.83-.25.05-.02.04-.21.06-.32ZM218.13,138.99c.06,0,.12.04.17.02.36-.15.63-.62.54-.99-.02-.07-.21-.16-.28-.13-.35.15-.54.43-.59.8-.01.09.1.19.15.29ZM157.27,153.56c-.25.45-.17.86-.07,1.26.02.08.17.13.27.16.02,0,.11-.07.12-.12.11-.48.06-.92-.32-1.31ZM146.35,65.28c.01-.28-.15-.51-.39-.52-.2-.01-.35.1-.39.3-.07.32.19.66.48.61.2-.03.29-.19.31-.38ZM116.09,71.31c.4-.1.53-.11.62-.17.34-.21.77-.36.72-.88,0-.05-.07-.12-.11-.12-.41-.03-.6.31-.84.55-.12.11-.18.28-.39.62ZM154.34,75.56c-.05-.32-.23-.54-.57-.56-.2,0-.36.13-.33.33.04.33.27.53.59.58.21.03.3-.14.32-.35ZM158.45,130.49c.06,0,.13.02.17,0,.41-.21.57-.6.43-1.03-.02-.05-.08-.12-.12-.12-.11,0-.26-.01-.31.05-.23.28-.35.61-.29.98,0,.05.07.08.11.12ZM78.4,80.32c-.06-.1-.09-.24-.17-.27-.29-.14-.57-.06-.78.18-.06.08-.11.23-.07.31.03.08.2.16.28.14.27-.07.58-.07.74-.36ZM262.88,96.64c-.09-.31-.28-.55-.62-.57-.22-.01-.28.2-.24.39.08.34.29.53.65.45.08-.02.13-.17.2-.26ZM142.67,32.54c-.08-.14-.11-.29-.19-.34-.21-.1-.32.06-.4.23-.05.11-.09.23-.1.34-.03.18,0,.37.23.38.1,0,.24-.07.29-.16.09-.14.12-.32.17-.46ZM113.35,26.1c.17-.04.29-.05.4-.1.05-.02.12-.1.11-.13-.03-.1-.07-.25-.15-.28-.3-.11-.6-.07-.85.14-.12.1-.12.24,0,.28.17.06.35.06.48.08ZM170.46,86.86c-.02-.11-.02-.23-.06-.33-.08-.16-.24-.27-.42-.19-.18.08-.21.28-.14.44.06.14.17.32.3.37.19.07.29-.11.33-.29ZM186.78,93.54c.2.61.65.75,1.07.91.14.05.22-.03.19-.18-.35-.28-.68-.59-1.26-.73ZM248.63,89.32c-.09-.24-.36-.45-.66-.5-.05,0-.15.01-.16.04-.04.1-.09.23-.06.31.15.27.39.44.71.4.07,0,.11-.16.17-.24ZM235.39,62.2c-.09-.05-.21-.17-.28-.14-.3.12-.49.36-.5.69,0,.08.13.23.2.23.32,0,.62-.43.58-.78ZM160.9,34.6c-.06-.26-.46-.51-.66-.39-.17.1-.21.28-.16.45.07.27.28.35.53.29.18-.04.31-.13.29-.35ZM96.92,154.71c.32-.05.6-.56.43-.79-.03-.04-.09-.07-.14-.06-.28.04-.58.6-.44.8.03.04.1.04.15.06ZM99.77,146.79c0,.42,0,.83,0,1.25,0,.03.09.1.11.09.05-.01.11-.07.12-.12.09-.41.14-.83-.24-1.22ZM213.51,76.68c.05-.14.01-.25-.13-.28-.25-.06-.49-.03-.6.23-.03.07.05.26.11.28.25.08.46-.02.62-.23ZM200.55,128.64c0-.2-.12-.32-.29-.38-.17-.06-.38-.07-.44.13-.07.2.11.3.28.34.16.04.34.1.45-.1ZM210.16,94.38c.03-.29-.1-.41-.29-.43-.09,0-.23.09-.27.17-.08.18.01.35.2.42.19.07.33-.03.36-.16ZM104.56,107.89c0,.28.1.46.29.42.13-.03.27-.2.32-.34.07-.17-.05-.35-.22-.39-.3-.06-.38.15-.39.31ZM198.75,86.13c-.09.06-.22.1-.25.18-.06.17-.06.37.15.44.06.02.22-.09.25-.17.07-.17.04-.35-.15-.45ZM138.62,60.62c-.07-.26-.25-.39-.5-.41-.07,0-.22.13-.22.2,0,.29.23.39.48.39.08,0,.16-.12.25-.18ZM217.58,139.63c-.12-.08-.25-.2-.4-.28-.13-.07-.24-.01-.27.12-.01.05,0,.14.04.16.14.1.29.2.45.25.13.04.21-.07.18-.25ZM85.12,119.83c-.06-.2-.2-.3-.39-.22-.08.03-.17.19-.16.28.03.2.19.3.38.22.08-.04.12-.18.17-.27ZM88.25,80.04c-.08.06-.23.1-.24.18-.04.2.1.31.28.33.08,0,.22-.09.24-.16.04-.19-.09-.3-.27-.34ZM86.62,157.9c.27-.17.39-.44.43-.75,0-.04-.05-.12-.09-.13-.05-.02-.14,0-.16.03-.13.2-.25.41-.35.62-.02.04,0,.12.03.16.03.04.1.04.15.06ZM194.03,61.27c.07-.08.18-.15.21-.25.05-.17-.22-.34-.36-.23-.08.06-.14.21-.13.29.02.07.16.12.28.19ZM79.72,49.66c.21.02.34-.1.39-.28.04-.13-.06-.25-.19-.22-.1.02-.22.11-.26.2-.03.08.03.2.05.3ZM186.8,89.59c-.03-.14-.13-.21-.26-.13-.09.05-.19.14-.23.24-.05.13.03.23.17.23.2,0,.3-.14.31-.34ZM141.95,102.42c-.14-.02-.25.06-.21.18.05.15.16.3.27.42.1.11.24.08.26-.06.03-.25-.09-.44-.32-.55ZM134.54,79.45c-.04-.06-.12-.2-.21-.34-.06.09-.16.17-.17.26-.02.18.05.36.24.41.12.03.19-.09.14-.33ZM93.9,122.39s-.09-.09-.13-.08c-.21,0-.42.03-.63.04.01.04.02.12.03.12.22.02.44.03.65.03.03,0,.05-.07.08-.1ZM133.66,75.7c.08.06.17.18.24.17.18-.02.3-.15.26-.34-.02-.08-.16-.18-.23-.17-.18.01-.28.15-.27.34ZM232.04,142.89c0-.19-.08-.34-.27-.38-.02,0-.12.19-.11.28,0,.1.11.18.16.27.08-.06.15-.12.22-.17ZM52.47,150.61c.07.06.17.18.22.16.09-.03.16-.14.21-.23.07-.12.02-.24-.11-.24-.18,0-.29.12-.32.31ZM171.64,18.34c-.08-.18-.1-.23-.13-.28-.14.08-.31.15-.43.26-.05.05,0,.19,0,.3.06,0,.12,0,.17-.03.15-.08.29-.18.39-.25ZM113.97,40.55c-.15,0-.24.08-.19.19.04.09.16.18.25.19.09.01.27-.06.28-.11.02-.22-.16-.26-.34-.28ZM171.72,121.83c-.2.06-.31.19-.32.38,0,.15.09.21.24.15.17-.06.34-.15.33-.36,0-.14-.11-.2-.25-.18ZM178.68,27.88c.11-.04.23-.06.32-.13.07-.06.08-.18.11-.27,0,0-.1-.07-.14-.06-.16.05-.32.12-.47.19-.04.02-.06.09-.09.14.09.04.18.09.28.13Z"/>
      <path d="M203.35,11.81c-.71-.08-1.29-.17-1.88-.21-.61-.04-1.22,0-1.82-.04-.61-.03-1.21-.11-1.81-.17-.42-.04-.84-.1-1.27-.14-.66-.05-1.32-.09-1.98-.13-.63-.74-1.28-1.45-1.87-2.22-.38-.5-.41-1.14-.31-1.75.1-.57.6-.98,1.18-.92,1.14.12,2.3.18,3.15,1.17.3.35.79.55,1.21.79.07.04.24-.02.31-.09.08-.07.13-.21.12-.32-.03-.46-.41-.73-.62-1.09-.66-1.13-.55-1.76.5-2.47.91-.62,1.93-1.06,3-1.28.98-.19,1.92.16,2.74.74.5.36.56.91.47,1.48-.26,1.61-1.88,2.97-3.63,3.03-.36.01-.73-.08-1.09-.06-.73.04-1.01.64-.68,1.32.21.42.54.65.96.78.64.21,1.28.38,1.92.58.51.16,1.04.31,1.41.99Z"/>
      <path d="M92.37,11.7c.3-.14.41-.23.5-.21.82.21,1.64.42,2.45.66.29.08.55.25.83.36.64.25.79.17,1.11-.5.08-.16.12-.35.2-.51.41-.81.89-1.57,1.6-2.16,1,.12,1.77.73,2.5,1.32,1.21.98,1.19,2.59.04,3.64-.44.41-1,.69-1.3,1.25-.31.6-.81.68-1.39.46-.34-.13-.69-.24-1-.43-1.9-1.16-3.47-2.77-5.55-3.88Z"/>
      <path d="M190.26,39.31c-.17-1.4.1-2.51,1.05-3.54.83-.91,1.58-1.84,2.74-2.34.28-.12.58-.26.77-.48,1.19-1.34,2.91-1.41,4.46-1.88.1-.03.26,0,.33.06.16.14.11.33-.01.47-1.14,1.34-2.17,2.76-3.48,3.97-1,.92-2.09,1.67-3.25,2.34-.42.24-.89.4-1.32.63-.42.22-.82.49-1.29.77Z"/>
      <path d="M286.57,35.33c-1.38,1.05-1.78,1.35-2.52,1.38-1.89.09-3.68.73-5.52,1.04-1.14.19-2.28.25-3.43.08-.1-.01-.22-.11-.28-.2-.12-.17-.07-.37.07-.49.32-.27.63-.58,1-.76,1.31-.63,2.67-1.15,4.13-1.35.84-.11,1.68-.22,2.52-.31.3-.03.66-.1.89.03.92.52,1.93.62,3.15.58Z"/>
      <path d="M295.43,139.05c-.94-.18-1.35-.47-1.68-.82-1.49-1.62-3.13-3.05-4.94-4.29-.44-.3-.86-.71-1.15-1.16-.38-.57-.94-1.11-.74-1.92.66-.13,1.14.32,1.7.52.46.16.89.39,1.35.56,1.37.52,2.42,1.38,3.01,2.75.62,1.44,1.29,2.86,2.46,4.35Z"/>
      <path d="M296.9,72.6c-1.19.72-2.13.85-3.08.63-1.16-.27-2.27-.16-3.4.17-1,.29-2.02.35-3.06.25-.55-.05-.87-.33-.9-.73-.03-.43.22-.92.63-.98,1.31-.19,2.6-.62,3.95-.3,1.81.43,3.6,1.02,5.84.97Z"/>
      <path d="M103.37,22.55c-.13-1.52.25-2.88,1.21-4.08.3-.38.53-.81.77-1.23.85-1.51,1.9-2.8,3.57-3.48.27-.11.5-.32.69-.45.23.06.32.19.23.29-1.59,1.62-2.67,3.6-3.78,5.54-.73,1.28-1.69,2.36-2.72,3.4,0,0,.01.01.01.01Z"/>
      <path d="M121.32,18.54c-1.58-.36-3.29-.41-4.8-1.27-.16-.09-.31-.19-.43-.32-.07-.07-.12-.22-.09-.31.02-.09.14-.2.23-.23,1.91-.57,3.79-.36,5.66.21.34.1.68.24.99.42.27.15.45.4.37.75-.07.33-.31.53-.62.59-.41.08-.83.11-1.32.17Z"/>
    </g>
  </g>
</svg>