<?xml version="1.0" encoding="UTF-8"?>
<svg fill="#6A7F6B" id="Capa_2" data-name="Capa 2" xmlns="http://www.w3.org/2000/svg" viewBox="0 0 322.77 283.35">
  <g id="Layer_1" data-name="Layer 1">
    <g>
      <path d="M287.92,183.11c.64-3.32.31-6.5-1.44-9.65-2.04,4.16,1.04,8.22-.15,12.47-.44-1.06-.07-2.21-1.13-3.18-.54,2.19-.79,4.23-.83,6.3,0,.37.28.95.12,1.1-1.89,1.72-.38,3.42,0,5.1.44,1.94.23,3.92.51,5.88.29,2.02.55,4.04.92,6.05.12.69.5,1.48-.65,2.24-.86-4.17-.33-8.32-1.24-12.49-1.68,1.43-1.79,3.7-1.34,4.85,1.36,3.45,1.63,3.34,1.14,5.92-.1.53-.18,1.05-.57,1.45-.3.31-.48.84-1.05.7-.41-.11-.56-.5-.6-.89-.13-1.26-.6-2.47-.29-3.81.49-2.08.29-4.23.19-6.35-.04-.81-.07-1.68-.98-2.18-.71.68-.1,1.62-.58,2.44-.55-1.6-.05-3.1.01-4.6,0-.22.07-.56.2-.62,3.82-1.57,1.37-4.36,1.2-6.62-.1-1.3-.81-2.55-1.35-4.12-1.49,3.03-.14,6-1.15,8.73-.06-.8-.12-1.6-.17-2.4-.23,0-.45-.01-.68-.02-.19,6.89-.83,13.75-.46,20.98-1.84-3.4-.98-7.05-2-10.32-.63.17-.11,1.26-.82,1.13-.74-.14-.77-.95-.62-1.51.47-1.85.67-3.72.59-5.63,1.3.06,1.05-1.04,1.27-1.75.24-.79.21-1.7.6-2.39,1.5-2.67,1.34-5.63,1.62-8.51.05-.49.03-1.44-.9-1.19-.62.17-1.75-.21-1.75.96,0,1.38-.76,2.55-.84,3.95-.07,1.2.05,3.23-2.28,3.03,2.14-3.06,1.05-7.18,3.61-10.25,1.23-1.48.44-3.98.67-6.01.18-1.56.93-3.1-.48-4.78-.88-1.05.51-2.97-.36-4.58-.79-1.46-2.22-3.15-.11-4.78.18-.14.41-.3.08-.48-1.79-.99-1.26-3.51-3-4.53-.11.1-.25.18-.32.3-.08.12-.18.36-.13.42,1.54,1.67.02,3.12-.33,4.65-.24,1.04-.45,2.06-.28,3.15.1.63-.11,1.31-.85,1.38-.67.06-.83-.62-.9-1.12-.1-.74-.05-1.5-.07-2.25-.02-.89.16-1.82-.64-3.18-.24,6.35-.7,12.09-.58,17.82.06,2.57-.21,5.45,1.69,7.77.57.69,1.35,1.81-.51,2.12-.06,0-.16.5-.06.62.96,1.24.58,2.99,1.6,4.2-.37.56-.74,1.12-1.41,2.15-.89-3.59-.9-6.98-2.89-10.36-.19,2.74-.37,4.99-.49,7.25-.08,1.51-.07,3.03-.11,4.54-.02.51.12,1.19-.55,1.34-.83.18-.9-.59-1.16-1.12-1.06-2.25-1.68-4.71-3.32-6.74.49,2.87-.11,5.96,2.16,8.61.07-.78.13-1.41.21-2.33.81,1.69.01,3.28.74,5.03.53-1.21.78-2.48,2.25-2.29-.94,2.88-.05,5.78.4,8.62.49,3.13,2.42,6.01,1.46,9.31-1.76-.69-2.31-1.99-1.97-5.01.35-3-.27-5.87-1.19-8.69-.12-.37-.26-.76-.74-.67-.17.03-.37.26-.44.45-1.45,3.63-2.17,7.37-.93,11.18.49,1.5,1.41,2.9.97,4.52-.16.6.63,2.35-1.47,1.63-.36-.12-.81,1.83-.87,2.91-.04.71.42,1.48-.43,2.18-.26-1.63-.5-3.17-.76-4.76-.68.5.09,1.39-.76,1.93v-5.96c-.24-.02-.48-.03-.72-.05v14.36c-.3.02-.6.04-.91.06-.69-2.68.33-5.64-1.08-8.34-1.33.31-.76,2.23-2.39,2.79.52-6.19,4.61-11.52,3.65-17.77-.28,2.25-.73,4.41-1.99,6.34-.37.57-.59,1.43-1.39,1.28-.93-.18-.26-1-.33-1.53-.16-1.19-.56-2.14.34-3.55.7-1.1.57-3.26-.83-4.98-1.59-1.96-1.13-4.76-1.43-7.22-.07-.57.3-1.19-.28-1.91-.82,1.47-1.84,2.74-1.21,4.63.66-.35.03-1.2.65-1.47.4,1.77.55,3.56.39,5.37-.06.63-.28,1.89-.94,1.4-2.22-1.61-1.4.59-1.69,1.23-.64,1.42-.72,3.13-2.27,4.2-.54-.49.04-1.91-1.12-1.72-.93.15-.42,1.14-.62,1.74-.15.46-.32.9-.85.93-.58.03-.65-.48-.82-.9-.61-1.46-.77-3.11-1.72-4.43-.32-.44-.65-1.26-1.38-.81-.73.45.06.92.25,1.33.47.95.73,1.67,0,2.8-.57.89-.81,2.37-.25,3.52.79,1.63-.12,1.59-1.44,1.43.56,1.42,1.01,2.75.94,4.2-.02.5.01.71.84.99,1.97.67.5,2.58.6,3.95.04.65-.68,1.32-.67,2.12-.68.58-1.81.86-1.42,2.14-.57.1-1.64-.35-1.24.91.69,2.2.13,4.5.73,6.74.47,1.77.72,3.53-1,5.32-1.66,1.72-.23,4.36-.34,6.59-.02.42.45.9.36,1.26-.23.87-.69-.33-.96,0-.16.2-.18.57-.17.86.1,2.32-.12,4.68.94,6.97v-6.45c1.41,1.13,1.31,2.5,1.31,3.51,0,2.33.28,4.69-.18,7.02-.08.42.12,1.03-.49,1.1-.27.03-.61-.35-.88-.58-1.17-1.02-1.05-3.04-2.9-3.61-.49-.15.26-.74.26-1.16-.01-1.38.44-2.79-1.49-3.57-1.47-.59-1.29-4.68.14-5.66.6-.41.43-.91.43-1.38,0-.48-.11-.98-.78-.46-.47.37-.5-.08-.47-.33.33-3.65-2.08-6.77-2.02-10.36.02-1.03,0-2.06,0-3.61-1.88,2.93-2.03,5.69-1.4,8.41.66,2.85-.38,5.44-.65,8.16-1.31-2.58-1.68-5.21-1.04-8.05.5-2.25,1.44-4.51.49-6.88.42-1.13.87-2.22,1.49-3.28.63-1.08,1.57-2.61.88-3.6-1.2-1.72-.51-3.74-1.41-5.38-.74-1.34-1.16-2.73-1.07-4.42-3.39,3.86-5.96,13.78-5.04,19.08,1.07-.75,2.04-.77,2.84.38-1.14,2.9-1.6,5.99-2.45,9-.59-.19.05-1.34-.73-1.26-.4.04-.84.6-1.08,1.03-.25.44-.42.97.44,1.18.9.22.53.96.32,1.5-.33.85-.72,1.67-1.13,2.48-.83,1.65-.76,3.15.42,4.66.92,1.18,1.66,2.5,1.42,4.25-.36-.16-.64-.2-.73-.35-2.89-4.47-2.76-9.5-2.48-14.48.18-3.3.01-4.9-2.14-8.27,1.1,5.09,0,10.2.89,15.84-1.27-1-.56-2.03-1.17-2.61-.79.04-.61.76-.66,1.17-.48,3.74-1.48,7.42-1.39,11.24.02.98.13,1.98-.38,2.89-.03-1.13-.37-2.24-.17-3.39.1-.58.12-1.3-.86-1.19-.7-.25-.97-.91-1.37-1.45-.36-.49-.45-1.56-1.3-1.2-.69.29-.47,1.27-.3,1.86,2.25,7.66.69,15.55,1.46,23.29.19,1.89-.82,3.48-1.15,5.24h-.46c.06-2.81-.03-5.51.66-8.4.91-3.84.23-8.06.23-12.11-.76,4.32-1.67,8.59-1.31,13.06-1.51-.38-.42-3.87-3.18-2.09.1-2.37-1.23-4.59-.22-6.96.21.33.32.69.55.8.41.18.54-.23.48-.5-.69-3.16.15-6.88-3.19-9.18-.51.7-.56,1.69-1.61,1.77-.83-7.47.26-15.02-1.37-22.53-1.07,1.48-.99,3.04-.57,4.58.32,1.2.31,2.35.23,3.58-.34,5.14-.48,10.28-1.08,15.41-.19,1.62-.11,1.46-1.47,2.11-1.24.59-1.11-.16-1.15-.82-.18-2.71-.16-2.71-1.82-4.9-.69,6.8-.99,13.74-.48,20.73-.71-2.21-1.25-4.45-1.79-6.68-.13-.52.08-1.35-.8-1.26-.63.06-1.3.23-1.45,1.14-.2,1.16-.52,2.31-1.29,3.37-1.06-1.38.68-2.91-.5-4.18-3.14,1.88.25,5.04-1.47,7.14-.93.21-.39-1.32-1.31-1.12-.14.42-.28.8-.46,1.34-1.08-2.99-.51-5.9-.68-8.76-.06-1,.45-2.42-1.39-2.6-.58-.06-.39-.72-.39-1.15,0-.22,0-.78.43-.41,1.22,1.04.88-.04.93-.63.07-.87-.22-1.81.44-2.58.69.19.14,1.11.59,1.26v-7.03c-.18,2.33-2.03,3.8-2.7,6.06-.45-1.33-.68-2.33-.35-3.42.14-.47.33-1.19-.34-1.38-.75-.21-1.06.51-1.23,1.07-.41,1.37-.72,2.77-1.07,4.16-.14.56.35,1.65-.82,1.35-.82-.21-1.15-.83-.8-1.96.4-1.31,1.33-2.43,1.52-3.72.55-3.74,1.07-7.5.2-11.27-.16-.71-.09-1.53-1-1.84-.62,2.81-1.43,5.55-1.71,8.41-.78-1.14-.54-2.24-.25-3.34.58-2.2.91-4.41,1.15-6.69.29-2.81-1.12-5.52-.21-8.31.08-.25-.15-.72-.5-.48-1.31.89-2.93,1.18-4.13,2.36-.99.97-1.85,2.25-3.42,2.46.53-1.62,1-3.27,2.01-4.55.98,0,0,1.39,1.06,1.11,3.17-.82,4.45-3.95,2.76-6.77-.28-.46-.43-1.12-1.07-1.32-.8,1.2.16,2.56-.31,3.59-1.88-3.57-1.67-7.64-1.95-11.63-1.39,5.17-3.61,10.1-2.96,15.57.18,1.46-.91,2.96.02,4.44-.74,3.34-.81,6.59,1.07,9.67,1.59,2.6.59,5.48.71,8.23.1,2.13.72,3.44,3.08,3.59.73.04,1.68.07,2.21.9-.15.11-.24.23-.37.27-.14.04-.32.07-.45,0-2.39-1.13-2.94-.15-2.46,2.1.06.29-.02.6-.05.91-.16,1.89-.21,3.79-.53,5.65-.26,1.51,1.28,2.27,1.13,3.8-.28,2.86-.2,5.75-.27,8.64h-10.02v-3.82c.74.62.14,1.54.87,1.91,1.71-1.96,1.96-5.53.89-7.64-.74-1.46-1.07-3.15-1.42-4.77-.15-.7.26-1.53-.86-1.77-.45-.1-.56-.57-.18-.86,2.16-1.64,1.71-4.09,1.9-6.29.29-3.44.39-6.89.59-10.67-.99,1.06-1.32,1.97-1.18,3.1.17,1.37-.13,2.71-.43,4.04-.25,1.1-.94.27-1.41.39-.91.25-.6-.55-.52-.78,1-2.92,1.57-5.93,2.04-8.98.92-5.99,1.94-11.96,1.44-18.06-.06-.75.12-1.53-.39-2.19.21-2.34.01-4.63-.82-6.85-.24-.63-.28-1.51-1.15-1.45-.89.06-.74,1-.93,1.62-.4,1.27-.74,2.61-1.03,3.86-.72,3.09-1.86,6.28-.59,9.54-.96,4.32-.16,8.74-.84,13.09v-9.24c-.69.64-1.11,1.04-1.61,1.5-.1-.24-.28-.5-.22-.59,2.68-4.01.93-8.74,2.08-13,.1-.36.37-1.19-.6-1.09-.55.06-.88.25-.98.97-.19,1.43-.6,2.83-1.17,4.2-1.2-5.47,1.74-10.89-.12-16.73-.12,1.14-.19,1.89-.27,2.65-.35-1.69-.79-3.32-.23-5.07.37-1.14.75-3-.96-3.18-1.32-.14-2.69,1-2.76,2.75-.11,2.96.34,5.9,1.05,8.72.65,2.57.38,5.06.14,7.58-.1,1.03-.16,2.07-.46,3.12-.68-9.36-2.02-18.68-.61-28.2-1.37.23-.81,1.28-1.5,1.74-.55-2.09-1.51-1.66-2.94-.69-2.06,1.4-4.33,2.5-6.51,3.71-.87.48-1.89.9-2.05,1.98-.4,2.72-1.88,4.98-3.21,7.23-1.53,2.58-1.74,5.23-1.58,8.08.49,9.02.57,18.04.04,27.08-.28,4.78.56,9.53,1.23,14.26.41,2.89.34,2.93-2.59,2.94-4.56.02-9.11-.04-13.67.03-1.8.03-2.69-.32-2.25-2.45,2.4-11.51.62-23.16,1.06-34.73.19-5.15.25-10.28,1.18-15.4.67-3.71,3.22-5.94,5.5-8.41,1.52-1.65,2.25-3.38,2.5-5.61.53-4.55-.06-8.77-1.89-13-1.41-3.26-1.87-6.87-2.29-10.42-.07-.6-.15-1.21-.31-1.79-.17-.61-.56-1.17-1.28-1.08-1.03.13-.5.92-.47,1.43.26,3.53,1.31,7.02.54,11.17-.77-4.16-2.98-7.25-3.54-11.03-1.98.86-2.22,1.87-1.08,3.44,1.3,1.78,1.6,4.02,2.4,6.03.24.6.36,1.51-.69,1.42-.27-.02-1.48.34-1.26-1.25.22-1.59-.63-3.36-1.4-4.95-.44-.91-1.61.05-1.92-.96-.03-.08-.38.34-.47.62-.23.75-.02,1.1.71,1.6,1.11.75,1.42,2.22,2.01,3.42.16.34.15.8-.23,1.01-.42.22-.72-.14-.92-.45-.58-.88-1.13-1.79-2.01-3.21-.68,5.5-.76,10.47-.68,15.5-1.08-3.03-.29-6.27-1.15-9.31-.52,3.54-.95,7.06-.07,10.6.11.44.13.9.15,1.36.04.77.04,1.85-.76,1.92-1.04.09-.71-1.11-.87-1.76-.71-2.91.18-5.85-.2-8.81-.29-2.3-1.29-4.32-1.7-6.9-1.3,1.33-.96,2.81-.82,3.82.43,3.12.63,6.26,1.15,9.39.94,5.59,2.36,11.17,2.19,16.94-.04,1.49.31,2.99.32,4.49,0,.58.02,1.6-.9,1.56-.72-.03-.68-.91-.74-1.48-.43-4.05-1.69-7.79-3.99-11.4-.82.85-1.02,1.64-.82,2.59.54,2.66.93,5.32,2.45,7.7.55.86,1.32,1.96.64,3.17-.09.16-.51.33-.52.31-.66-.93-1.22-1.84-1.62-3-.74-2.14-1.82-4.17-2.02-6.92-.95,1.33-.19,2.47-.79,3.5-1.26-1.41-.57-3.22-1.27-4.7-.69,4.74-1.19,9.47.04,14.21.54,2.06.77,4.11-1.3,6.03.33-1.71-.89-3.14.35-4.56.25-.29.21-1.13-.45-1.32-.57-.17-.73.4-.91.8-.18.41-.33.83-.51,1.28-1.03-.52.04-1.67-.74-2.2-1.56,1.89-1.24,5.04.63,6.42,1.32.97,1.03,2.55,1.72,4.19-1.31-.88-.73-2.29-2.05-3.12-1.65,5.31.74,10.88-1.69,15.98.78-7.68-3.27-14.37-4.16-21.75-.46,3.09-.05,6.25-1.32,9.14-.21.48.07,1.88-.8,1.33-.78-.49-2.76.66-2.43-1.8.48-3.64.48-7.35.86-11.03.21,2.06.42,4.13.62,6.19.07,0,.14,0,.21.01.17-1.39.53-2.78.47-4.15-.16-3.57,2.27-6.97.62-10.62-.21-.47-.17-1.05-.97-1.65.9,1.85-1.49,1.82-1.3,3.29.15,1.18.03,2.4-.1,3.62-.65-1.41-1.36-2.78-1.02-4.88-1.28,1.18-1.14,2.18-1.02,3.1.55,4.28.47,8.59.69,12.89.02.45.14.92.06,1.36-.08.49-.16,1.19-.87,1.1-.57-.07-.51-.7-.49-1.12.08-2.63.14-5.27.32-7.89.11-1.6.41-3.06-1.06-4.38-1.01-.91-.56-2.43-.5-3.74.53.11.22.64.5.86.08-.09.22-.19.22-.28-.13-1.89-.23-3.78-.43-5.66-.19-1.73.89-3.38.1-5.18-.93-2.11-1.2-4.39-1.4-6.69-.1-1.11-.43-2.09.57-3-1.69-.16-1.65-.14-2.44,1.34-.5.94-.25,2.14-1.27,3.11-2.41-2.46.25-5.47-.89-7.98-.64,3.81-2.79,7.37-1.54,11.42.35,1.15.2,2.41-.03,3.62-.1.51-.28.98.06,1.52,1.42,2.19.68,3.4-1.5,4.68-1.8,1.05-2.84,1.72-3.55-.79-.22.13-.39.17-.45.27-.43.71-.17,2.21-1.39,1.96-1-.21-.29-1.45-.36-2.21-.3-2.93-1.05-5.82,0-8.82.45-1.3.35-2.92-.37-4.22-1.61-2.91-.43-5.83.03-8.65.35-2.17-.34-3.36-2.11-4.54-.05,1.99.6,3.67,1.09,5.38.18.62.79,1.48-.11,1.76-.86.27-.82-.88-1.17-1.38-.8-1.15,0-2.52-.46-3.77-.32-.84-.4-1.76-1.11-2.43-.66.6.16,1.68-.78,2.2-.84-.9-.06-1.87-.14-2.86-1.85-.18-1.67,1.27-1.54,2.2.19,1.4-.21,2.69-.3,4.04-.03.5-.3,1.12-1.01.95-.54-.14-.53-.68-.46-1.14.32-2.16.62-4.32.98-6.47.23-1.36.26-2.7.08-4.07-.22-1.63-.64-3.29.28-4.88.16-.29.22-.96.08-1.04-2.49-1.47-1.59-3.71-1.36-5.79.1-.88.16-1.48-1.12-1.12-1.72.47-2.39-.54-2.28-2.13.16-2.55.06-5.01-1.5-7.22-.22-.32.21-1.17-.57-1.19-.69-.01-.6.75-.77,1.23-.19.55-.36,1.11-.83,1.65.69-2.84-1.69-5.58-.24-8.61,1.08.91.47,1.86.53,2.71.03.37-.17.82.26,1.02.54.25.84-.22,1.1-.56.69-.88,1.02-1.9.63-2.99-.69-1.88-1.11-3.81-1.41-5.89-.31,2.46-1.33,4.5-3.01,6.25-.53.56-.69,1.48-.26,2.15,1.57,2.45.5,4.4-1.11,6.43-.92-1.1-.02-2.22-.12-3.27-.08-.76,0-1.74-.99-1.76-.86-.01-.84.92-.86,1.6-.02.71.42,1.8-.63,1.85-1.19.06-.99-1.21-.99-1.94,0-2.19.54-4.36.13-6.57-.4-2.13-.59-2.24-2.2-1.06-1,.73-.65-.88-1.16-.75-3.54.94-2.85-1.84-3.29-3.87-1.36,2.47-2.73,4.98-1.95,7.52.47,1.56,1.14,3.11,1.5,4.75h0c-2.2,1.44-1.43,3.65-1.46,5.65-.01,1.08.61,2.21-.45,3.47-.96-2.34-.36-4.76-1.3-6.85l.02.02c-1.33-1.2-1.76-2.76-1.09-4.33.79-1.85.63-3.71.57-5.59-.02-.59.05-1.33-.72-1.5-.69-.15-.74.63-1.09.98-.3.3-.45.81-1.14.82,2.06-5.55,2-11.1.88-17.14-1.57,3.64-1.87,7.18-1.69,10.37.3,5.24-.69,10.4-.14,15.61.28,2.62.25,5.28.39,7.92.05.9-.14,1.61-1.4,2.14-.3-7.99.1-15.82-1.37-23.58-.69.96-1.4,1.96-2.15,3.03-.47-1.38-.03-2.58.59-3.58,2.45-3.93,1.64-8.12,1.22-12.31-.05-.46-1-1.19,0-1.4,1.19-.25.53.94.79,1.45.07.13.15.25.24.41,1.88-2.42,2.02-5.27,2.2-8.13q-1.88.52-2.34,4.82c-.83.07-.53-1.06-1.38-1.16-1.4,2.78-2.71,5.61-3.46,8.76-.74,3.08.36,6.38-1.33,9.3-.67.1-.79-.37-.73-.83.32-2.53-.62-5.11.52-7.62.68-1.51-1.08-2.99-.31-4.61.25-.53.21-1.19.45-1.73.23-.49,1.08-.74.55-1.5-.64-.92-1.16.37-1.94.05.98-1.36,2-2.77.83-4.46-.33-.47-1.33-1.06-1.23-.24.37,3.05-2.74,4.67-2.75,7.47,0,3.77-.07,7.54-.03,11.31,0,.71-.16,1.3-.35,1.96-.28.95-1.19.98-1.72,1.06-.91.14-.48-.89-.67-1.39-.41-1.09.23-2.07.33-3.1.02-.23,1.64-1.7-.51-1.32-.25.04-.28-.65-.17-1.01.4-1.22.6-2.56,1.46-3.56,1.07-1.25.77-2.72.88-4.13.02-.29,0-.82-.3-.75-2.29.56-1.07-1.12-1.15-1.85-.11-1.03.53-2.3-1.47-2.24-.63.02-.77-1.23-.8-1.97-.04-1.29.08-2.58.09-3.86,0-.99.07-2.07-1-2.59-1.22-.59-1.07-1.39-.69-2.44,1.79-4.94,1.49-10.1,1.79-15.54-1.38,1.96-.22,3.91-.9,5.62-.19.48-.12,1.21-.45,1.49-1.95,1.62-2.58,3.64-2.18,6.07.07.46-.07.97-.63,1.05-.54.08-.77-.41-1-.79-.46-.77-.4-1.81-1.28-2.35,1.43-2.59.78-5.68,2.8-8.62-1.83.49-2.05,1.39-2.45,2.18-.2.39-.38,1.25-1.04.7-.33-.27-1.08-.77-.56-1.52.35-.5.6-1.16,1.08-1.44,2.99-1.77,2.66-4.52,2.33-7.42-.65.42-.56,1.53-1.59,1.39-.5-.07-.61-.35-.62-.75-.12-2.86-1.3-5.49-1.76-8.27-.24-1.45-.87-2-2.33-1.06-.83.53-1.17,1.16-1.49,2.07-.8,2.24.61,4.44-.16,6.68-.74,2.15-.02,4.3.6,6.39.1.34.13.94.58.86,2.96-.56.96,1.14.75,1.76-.78,2.32,1.35,6.34,3.84,7.07-.07.37-.03.85-.25,1.09-.35.39,1.16,2.31-1.08,1.29-.42-.19-.16,1.34-.68,1.96-1.23-.85-.3-1.8-.14-2.65.16-.85.08-1.75-.68-1.94-.96-.25-.74.83-.94,1.4-.3.84-.62,1.68-1.07,2.48.15-1.58-.86-3.33.78-4.7.18-.15.26-.77.17-.82-1.83-1.15-1.37-3.35-2.29-4.91-.36-.6-.88-1.25-1.49-1.18-.62.07-.56.93-.69,1.52-.33,1.49-.84,2.9-3.01,3.29,1.52-3.96,2.51-7.83,2.35-12.02.7.64-.03,1.71,1.13,2.1.31-1.73.11-3.42.02-5.1-.54.05-.13.67-.65.87-.04-4.27-1.34-8.17-3.26-11.89.14-.14.27-.29.41-.44,0,0-.01.01-.01.01,0-.15,0-.31,0-.46,1.78-1.32,1.84-3.97,3.92-5.06,2.4-1.27,3.37-3.93,5.44-5.65,1.44-1.2,2.08-3.78,1.09-6.36-.78,1.86-1.49,3.47-3.64,4.34.68-2.25,1.89-3.84,2.98-5.43.59-.85-.13-2.58,1.88-2.63.86-.02,1.64-1.02,2.16.5.14.4.73.55,1.19.24,2.03-1.4,4.36-2.5,5.39-5.03-3.11-.48-5.71.83-8.33,2.11-.46.22-1.1.96-1.59.29-.52-.71.07-1.56.5-2.06.61-.73,1.53-1.21,2.31-1.79.26.26.49.71.78.76,3.78.64,6.8-1.48,9.99-2.91.37-.16.75-.68.32-1.12-.36-.36-.87-.13-1.27.09-1.76.98-3.65,1.58-5.65,1.3-1.18-.17-2.06.15-2.95.78.09-.87-1.55-.98-1-1.78.58-.85-1.01-1.25-.27-1.64,1.19-.63,2.75-1.61,3.77-1.27,2.64.86,4.47-.92,6.68-1.35,1-.2,2.09-1.51,2.8.61.29.85,1.55.15,1.74-.52.38-1.4,1.4-2.08,2.45-2.81.39-.27,1.12-.62,0-1.03-.18-.07-.08-.51.43-.47,2.58.18,3.3-1.42,3.56-3.53.56.26,2.52-.28.75,1.32-.21.19-.04.41.17.52.68.35,1.41.76,2.13.29.92-.61,3.09-.3,2.75-1.34-.54-1.67.7-1.37,1.22-1.81,1.26-1.07,2.58-2.05,3.87-3.07.15-.01.3-.03.45-.04.41-.75,1.39-1.49.66-2.35-.58-.67-1.73-.72-2.55-.42-3.9,1.42-8.04,2.52-10.38,6.46q-1.27.4-4.1-.55c-.29-.66,1.97-.76.43-1.65-.63-.37-1.51.09-2.13-.37-.63-1.06,3.59-2.04-.19-3.15,2.9-2.17,6.19-2.66,9.56-2.98.77-.07,1.88.78,2.35-1.09.21-.84,2.61-.39,4.04-.16,1.95.32,3.91.56,6.15.87-.73-1.7-2.22-1.15-3.21-2.08,2.39.06,4.38,1.4,6.63.95.68-.14,1.29-.19,1.83-.72,1.01-1.01,1.71-1.71-.35-2.44-1.37-.49-2.51-1.64-3.75-2.5.01-.18.02-.36.04-.53,2.36-1.12,2.54-1.76.7-3.25,1.4,0,2.6,0,3.8,0,.3,0,.79-.09.87.06.91,1.47,2.85,1.38,3.74,2.13,1.57,1.32,1.89-.34,2.76-.36.96,1.07,1.45,3.68,3.53,1.04.18-.23.72-.18,1.09-.25,3.11-.6,6.21-1.19,9.32-1.8.51-.1,1.19-.11,1.36-.66.21-.69-.6-.71-.94-1.06-.96-.96-2.66-1.39-2.61-3.61,1.24,1.04,2.42,1.7,3.13,2.69,1.37,1.91,2.77,2.77,4.89.84-.01.7-.95,1.6.42,1.43,2.79-.36,5.63-.38,8.49-1.12-.48-1.1-1.36-1.36-2.04-1.74-.97-.53-2.25-.6-3.12-1.24-4.59-3.36-9.55-3.89-14.87-2.29-1.09-.71-2.34.3-3.63-.37,1.59-1.04,3.27-1.42,4.96-1.6,2.93-.31,5.88-.36,8.77.38,1.23.32,1.92-.23,2.64-1.08-1.66-1.04-3.48.56-4.95-.55.36-1.16,1.69-.27,2.03-1.26-1.41-1.19-3.07-1.04-4.72-1.24-3.39-.41-5.9,1.75-8.83,2.67.2-.54-2.52-.37-.34-1.47.51-.26.23-.99-.4-1.2-1-.33-2-.69-3.1-.46-.45.09-1.16.36-1.33-.41-.11-.5,0-1.06.4-1.49.36-.4.86-.99,1.32-.62,2.07,1.65,4.2.4,6.32.31,4.9-.21,9.18,1.7,13.25,4.14,2.59,1.55,5.12,3.23,7.3,5.37.99.98,2.09,1.67,3.65,1.42,1.05-.17,1.79.66,2.59,1.23.9.64,1.66,1.61,3,1.3.24-.06.79.18.79.25-.21,3.16,3.38,2.01,4.36,3.84.16.29.83.87,1.35.26.43-.5.42-1.25.11-1.72-.85-1.31-1.48-3.15-3.71-2.23-.12.05-.31,0-.44-.06-.12-.05-.2-.18-.31-.29.31-.95,1.42-.26,1.9-.97-1.16-1.63-2.91-2.59-4.43-3.81-.47-.38-1.3-.69-.76-1.34.54-.66,1.15.19,1.51.51,1.2,1.04,2.27,2.23,3.39,3.35.21.21.44.44.71.57.98.47,2,1.67,3.05.7.95-.88.39-2.21-.24-3.15-1.64-2.41-2.87-5.16-5.41-6.86-.64-.42-.87-.98-.84-1.71,1.85-.14,2.83.65,3.7,2.24,1.33,2.45,4.14,3.2,6.39,4.54,1.01.6,4.32-2.22,4.58-3.67.56-3.08.84-3.69,2.9-5.54-.87,2.03-1.54,3.55-2.15,5.09-.13.32-.16.81,0,1.07.25.4.65.09.99-.06,2.18-.95,4.54-1.15,6.83-1.63,2.35-.49,2.5-.9,1.07-2.79-.33-.43-1.09-.94-.41-1.52.51-.44.92.25,1.31.56,3.18,2.55,5.67,2.27,8.55-.97.19-.22.63-.55.64-.54,1.78,2.01,1.53-.52,2.19-.98h0c.89-.99,1.71-2.03-.38-2.48-.63-.14-1.58.22-1.73-.59-.18-.93,1.19-.36,1.46-1.14-.72-1.12-2.06-.52-3.05-.98,1.97-1.61,3.54-.02,5.34.41,3.77.91,6.3,3.65,8.84,6.08,1.01.97,1.89,2.45,3.07,3.58.58-2.21,2.98-3.11,4.88-1.57,2.08,1.69,5.03,2.21,6.39,4.88.25.5,1.14.67,1.73.99.58.31,1.7.27.59,1.45-.47.5,1.91,1.98,2.85,1.37,1.46-.95,3-1.73,4.46-2.67.27-.17.23-.81.4-1.5.56,2.42,1.96,2.21,3.3,1.28,1.03-.72,2.12-1.43,3.3-1.32,3.9.34,6.16-2.58,9.1-4.2,3.06-1.69,5.03-4.47,7.58-6.64.3-.26.58-.77,1.29-.32-.43,1.08-1.44,1.66-2.21,2.4-.86.81-.8,1.63-.59,2.64.26,1.23,1.21.92,1.97,1.04,1.12.18,2.25.31,3.37.46-.17.32-.34.64-.5.97-1.34-.2-2.68-.42-4.02-.58-1.32-.16-2.5.05-3.15,1.44,1.17.86,2.93-.12,3.67,1.48-1.74-.02-3.48-.1-5.22-.04-1.2.04-4.23,2.85-3.98,3.85.41,1.65,1.79,2.47,3.42,2.86,1.36.32,1.8-.24,1.31-1.56,1.03.07,1.48,1.33,2.63.49.87-.64,2.09-.8,3.15-1.17.43,1.27,1.52,1.56,2.18.63,1.24-1.75,2.89-1.46,4.55-1.48-1.3,1.39-2.61,2.8-4.58,3.24-.37.08-.96.15-.77.57.34.74.18,1.73.96,2.23.5.32,1.19.19,1.46-.23.81-1.25-1.02-.68-1.04-1.57h6.19s.02.07.03.1c-.73.09-1.46.19-2.2.28,3.04.5,5.89,2,9.06,1.62,1.99-.24,2.7,1.72,4.17,2.38-4.91-.44-9.82-.71-14.75-.28.56.4,1.13.7,1.7.69,4.25-.08,8.44.29,12.57,1.32.43.11,1.03.19,1.24-.25.32-.71-.62-.93-.78-1.49h4.74c-.35.77-1.31.1-1.74.74.13.17.28.33.39.51.49.82,2.36.42,1.96,1.68-.29.91-1.66.33-2.51.27-4.16-.27-8.32-.66-12.47-1.02-.51-.05-1-.36-1.84.03,2.56.65,3.9,2.5,5.24,4.28,1.61,2.14,4.29.6,6.11,1.7-.01.86-.55.86-.95.98-1.22.35-1.43.94-.59,1.94.53.63.95,1.35,1.38,2.07,1.23,2.07,1.03,2.55-1.25,3.17-1.68.46-.73,1.73-.25,1.98,1.68.87,1.9,2.46,2.38,3.94.83,2.55,2.19,4.29,5.22,3.87.4-.05.92,0,1.16.51-.63.79-2.33-.32-2.36,1.05-.05,1.81,1.45,2.6,2.68,2.78,1.11,1.65-3.04-.02-.83,2.23.04.04-.81.36-1.34.06-1.41-.79-1.51.07-1.43,1.18.18,2.53.5,2.05,3.7,2.74,2.09.45,4.46-.05,6.28,1.18,1.44.97,3.11-.63,4.48.71-1.06.81-2.42.78-3.33,1.77,1.15.84,2.3,1.67,3.44,2.5-1.59-.1-2.68-1.34-4.11-1.82-1.14-.38-2.31-1.04-3.18.45-.55.11-1.72-.31-.9.98.39.62.83,1.23.11,1.77-.8.6-1.23-.31-1.69-.7-1.29-1.1-2.6-1.45-3.98-.26-.75.64-1.34.44-2.01-.06-.33-.25-.81-.73-1.13-.14-.29.53.1,1.15.66,1.22,2.86.35,4.41,2.77,6.62,4.14.74.46,1.82,1.35,1.76,1.95-.28,3.15,2.17,5.61,1.97,8.73-.07,1.19.56,2.45,2.2,2.2,1.29-.19,2.55-1.5,3.8.26.29.4.82-.37,1.13-.8,1.89-2.61.69-5.51.61-8.3-.05.86-.1,1.72-.15,2.58.28-3.06-.96-5.6-2.59-8.02.63.37,1.26.74,2.01,1.18.61-2.13-.66-3.67-1.16-5.38.88.33,1.46.73,1.61,1.88.69,5.47,1.64,10.93.98,16.46-.17,1.44,1.06,1.57,1.67,2.26-.73.58-1.21.06-1.71.07-1.13.02-2.37.34-2.59,1.41-.19.93,1.19.86,1.86,1.26,1.12.66,2.73.27,3.55.87,1.24.91,2.28,2.43,2.03,4.38-.87-.45-1.51-1.04-1.91-1.87-.9-1.91-2.91-1.7-4.47-2.29-.75-.28-1.02.49-.9,1.17.12.72.59,1.45-.44,2.07-.51-1.07-1.65-1.57-2.01-2.87-.76-2.78-1.02-2.83-4.21-1.77,1.99,1.87,3.72,3.86,5.32,5.95.18.23.47.59.67.57,3.18-.32,5.74,1.45,8.84,2.8-.83-2.15.23-3.87.02-5.68.7,1.92-.1,4.03,1.01,5.93.35.6.42,1.27,1.01.64,1.01-1.08,2.31-.5,3.4-.91.18.82-.54.97-.98,1.34-.52.45-1.2.97-.96,1.67.32.94,1.35.69,1.98.51,1.86-.53,3.73-.47,5.61-.37,1.24.07,2.48.2,3.84.31-.85-1.54-2.34-1.77-3.71-2.42.32-.36.48-.72.7-.76,2.71-.51,3.08-2.11,2.11-4.37,1.7,1.85,2.24,4.46,4.04,6.23.56.55,1,3.64,2.22.32.05-.15.55-.14.85-.19,5-.8,9.51-2.86,14.6-5.44-3.56-1.37-6.75-.97-9.93-1.59,2.5-.53,4.82-1.07,7.18-.09.89.37,1.47.05,1.6-.95.59.42,1.4.72,1.74,1.29,1.66,2.88,1.87,3.02,5.03,2.26-.51,1.36,1.15,1.27,1.56,2.13-.92.09-1.7.16-2.72.26,1.64,1.31,3.04,2.43,4.52,3.61.76-2.16-.57-3.95.17-5.92.53-1.4-.88-1.1-1.76-.92.74-.9,1.58-1.62,2.86-1.5-.88,2.7-.79,2.89,1.95,3.74.5.16,1.14.28,1.06.96-.07.56-.67.65-1.09.53-1.65-.45-1.45.65-1.44,1.63,0,.53.01,1.06-.03,1.59-.13,1.83.84,2.34,2.41,1.89,1.58-.45,3.07-.41,5.09.49-2.61.79-4.8-.25-6.91.57.57,2.14,1.87,4.14,2.07,6.49.08.95.98.98,2.12,1.65.95.55,2.16,1.74.85,3.66,4.39-.59,8.51,1.13,12.67-.3,1.38-.47,2.69-.27,3.76.93-.7.46-1.46-.37-2.11.14,1.39,1.2,3.14,1.75,4.76,2.59-3.61-.87-7.21-1.68-10.9-1.98-.62-.05.36-.9-.45-.85-.83.04-1.66.05-2.49.07.3.73.33,1.52.65,2.29,1.48,3.48,3.52,6.09,7.57,6.68,1,.15,2.19.67,2.74,1.91-.83.39-1.35-.7-2.16-.34.35.63,1.4.93.95,2.11-1.55-.45-2.61-1.58-3.95-2.56,1.33,3.7,1.36,7.62,2.44,11.42.81,2.85,2.23,4.81,4.21,6.58,1.52,1.37,1.12,3.4,2.05,4.96-1.18-.87-1.27-2.61-2.76-3.46-.33,1.16.82,2.07.21,3.25-1.3-1.2-1.03-3.16-2.19-4.33-.4-.4-.42-1.38-1.14-1.2-.58.14-1.06.79-1.06,1.66-1.21-.68.48-3.05-1.88-2.91-1.05,4.61,1.27,9.31-.38,14.02-.68-1.69-1.34-3.33-2.11-5.22-1.08,1.34-1.93,2.49-1.87,4,.14,3.75.33,7.5.55,11.24.09,1.58-.91,2.43-2.7,2.04.21,2.69.85,5.25,1.53,7.79.4,1.48.71,2.82.09,4.4-.44,1.13-.34,2.52,0,3.81.15.56.23,1.36-.54,1.52-.7.14-.79-.63-.88-1.11-.23-1.24-1.06-2.39-.49-3.75.5-1.21-1.52-.62-1.34-1.88.19-1.31-.25-2.66-.06-4.05.53-3.86-.22-7.69-.52-11.53-.14-1.79.3-3.62.28-5.43-.02-3.12-1.07-5.86-4.05-8.33-.49,11.89-.94,23.48,1.28,35.06-.79-1.53-.88-3.3-1.75-4.77-.93.48-.37,1.53-1.08,2.07-1.69-1.78-1.63-4.15-2.22-6.33-1.96.96-.47,4.15-3.1,4.56h.02ZM287.46,145.3c-.18-.4-.4-.72-.91-.46-.76-.15-1.3-.02-.74.86.62.98,1.1,2.08,2.12,2.77l-.02.02c-.3-1.07-.6-2.13-.91-3.2.16,0,.31,0,.47,0,.31.99.47,2.07,1.5,2.64.05.03.43-.29.42-.43-.11-1.19-.82-1.87-1.93-2.2ZM215.9,227.77s.02.02.02.02c-.45-.63-.9-1.25-1.36-1.88,1.49.03,3.21.52,3.36-2,.94,1.38.61,2.83,1.01,4.19.76-.57.87-1.21.75-1.76-.81-3.67.78-7.73-1.84-11.1-.12-.15-.06-.44-.08-.66,2.43-.46-.43-2.52,1.15-3.31.49.17-.09,1.23,1.05,1.27-.07-1.29,1.97-3.31-1.56-3.01-.08-.97-1.67-.35-1.59-1.61.17-2.5-1.08-4.51-2.49-6.42-.37-.5-.59-1.48-1.47-1.03-.75.38-.38,1.17-.26,1.84.51,2.9.78,5.84,1.64,8.67-3.01.06-1.67,2.9-2.64,4.28-.65.93.21,1.7,1.36,2.05,1.03.31,1.28,1.62,1.13,2.27-.47,2.08.37,3.95.51,5.92-.37-.14-.74-.27-1.11-.41-.22-.21-.42-.42-.65-.61-.42-.36-.61-1.22-1.36-.9-.71.31-.26,1.06-.37,1.61-.27,1.35,1.19,1.97,1.31,3.09.28,2.57,1.12,4.94,2.19,7.26-1.17.19-1.88,1.05-2.72,1.96.8-2.84-1.98-4.14-2.35-6.42-1.13,5.41.2,10.09,3.83,14.32.85-1.95-.61-3.99,1-5.56,1.61,1.3.92,3.18,1.5,4.8,1.37-1.75-.08-3.84.98-5.48.63-.84.24-1.67.12-2.57-.39-2.78-1.54-5.48-.95-8.38-.03-.14-.06-.29-.1-.43ZM288,132c0,.8.69,1.48.38,2.32-1.17.58-1.7.23-1.53-1.07.14-1.05.12-2.1-1.11-2.36-1.12-.23-2.04-.86-3.44-1.45.85,2.85,1.6,5.38,2.39,8.05.91-.78.37-1.75.84-2.43q3.32,4.44,4.75,2.93c.48.65.4,1.43.5,2.17.09.67.16,1.53,1.06,1.43.81-.09,1.02-.96.92-1.61-.24-1.55-.49-3.14-1.65-4.35,0-.4,0-.81.01-1.21-.58-1.4-1.38-2.51-3.12-2.41ZM137.57,14.06c1.85.6,2.7-.76,3.66-1.89,0-.09-.01-.19-.02-.28,1.06.79,2.28,1.35,3.44.5,1.23-.91.3-2.83,1.47-3.93.07-.07-.82-1.21-1.53-.52-1.16,1.12-2.65.93-4.01,1.26-1.71.41-3.71.35-4.36,2.57-.21.22-.41.45-.62.67-.54,2,.17,2.47,1.97,1.63ZM144.59,182.36l-.35-.36c.24-.78,1.12-1.36.83-2.29-1.32-4.22-.28-8.59-.83-12.86-.07-.57.29-1.3-.4-1.63-.62-.3-.88.42-1.31.69-.29.18-.57.56-1.05.08.47-1.01,1.36-2.22-.48-2.84-1.13-.38-3.7,1.85-3.5,3.04.08.47-.03.98.93.83.62-.1,1.66.25,1.88,1.4.31,1.58.3,3.15.22,4.73-.03.53-.23,1.15-.93,1.04-.54-.09-.51-.65-.52-1.12-.02-1.43.19-2.84.4-4.27-.95,1.64-1.73,3.29-1.81,5.22-.23,5.29-.08,10.48,2.9,15.15.59.93,1.03,2.02,1.38,3.01.73,2.06,1.94,4.27-.19,6.85,2.98-1.35,5.02-3.15,7.57-3.97.96-.31.79-1.13.72-1.91-.25-3.02-.38-6.05-.73-9.06-.2-1.7-.73-3.36-1.11-5.04-.27.02-.54.05-.82.07.04,2.57.86,5.19-.2,7.69-.55-.88-.47-1.97-.69-2.96-.23-1.06-.76-1.66-1.92-1.49ZM217.61,140.07c-1.7-1.09-.85-2.53-.96-3.81-.33-3.85,1.18-8.51-4.27-10.25-.7-.22-.72-.86-.72-1.51.01-2.01-1.4-2.71-3.2-3.34,1.38,1.98-.7,2.75-1.01,3.99-.68,2.73.74,5.46,1.09,8.22.14,1.16,2.05,1.01,3.09,1.59.3.17.74.25.62.77-.54.35-1.03.02-1.52-.12-.7-.19-1.56-1.07-2.04-.39-.54.76.04,1.84.36,2.73.11.32.54.51.8.78,1.99,2.06,4,4.1,5.94,6.21,1.04,1.14,1.95,2.41,2.91,3.62-.1-4.48,1.24-8.96-.81-13.12-.58,1.52.85,3.04-.29,4.61ZM128.61,14.23c-.6.24-1.34.41-1.34.56.06,2.59-1.12,1.03-1.59.39-1.52-2.06-3.32-1.76-5.35-1.02-2.15.78-4.19,1.72-6.06,3.05-.41.29-.97.5-.9,1.18.1.94,2.72,3.6,3.63,3.4,1.32-.28,2.16.28,3.01,1.08,2.22,2.09,2.98-.72,4.15-1.46,1.39-.88-.66-1.32-.9-2.11,1.79-.02,3.58.29,4.42-1.78.25-.62.84-.77,1.45-.94.63-.17,1.51-.25,1.67-.99.2-.93-.68-1.49-1.26-1.99-1.16-.99-2.5-.92-4.02-.35.91,1.11,1.91.71,3.07.98ZM194.19,251.43c-.08-.69-.2-1-.14-1.27.52-2.34.65-4.69,1.6-7.03.83-2.07-.21-4.7-.14-7.14.12-4.23-.56-8.42-2.1-12.42-.33-.86.04-2.58-1.03-2.39-1.18.21-.34,1.79-.37,2.77-.01.37.16.74.22,1.11.34,2.39.91,4.74,1.03,7.17.08,1.56-1,2.75-1.05,4.34-.08,2.39.43,4.66.77,6.95.33,2.29-.52,4.76.15,6.67.97,2.77,2.04,5.36,1.63,8.34,0,0,.26.04.57.09.31-4.42.62-8.82.93-13.23-.19-.02-.38-.05-.57-.07-.74,1.83.2,4.09-1.48,6.1ZM257.19,122.4c.29-.35.56-.55.66-.81.94-2.42.56-5.09,1.46-7.54.26-.71-.63-1.1-1.22-1.45-2.95-1.79-6.04-.77-9.08-.42-.73.09-1.57.14-1.8,1.09-.21.87.3,1.44.92,1.93.65.52,1.27,1.1,1.97,1.53,2.56,1.6,5.26,3,7.09,5.67ZM217.86,125.17c.24.99.82,2.05.65,2.97-.98,5.24,2.17,9.79,2.36,14.83.02.63.03,2.44,1.48,2.26,1.33-.17,1.22-1.48,1.16-2.57-.03-.52.08-1.05.16-1.57.01-.09.16-.15.25-.22.32.24.01.8.63.95.51-1.81-.54-4,1.32-5.53.29-.24-.14-1-.87-1.29-1.53-.62-2.18-2.33-1.89-3.52.47-1.89-.42-2.97-1.31-4.56-.37,1.04-.09,2.01-.71,2.58-.52.47-.24,1.82-1.29,1.5-.77-.23-.36-1.2-.32-1.84.09-1.55-.17-2.96-1.6-4ZM217.01,39.67c-1.77-1.29-1.43-4.3-4.12-4.78-.16-.03-.37-.5-.34-.74.12-1.03-.54-1.36-1.28-1.86-2.25-1.5-4.26-3.52-7.38-1.99-.56.27-1.63-1.21-2.16-.23-.61,1.15.88,1.05,1.45,1.49.11.09.25.23.25.35.03,3.04,2.16,3.8,4.58,4.24,1.57.29,2.93,1.08,2.71,2.77-.18,1.41.54,1,1.06.82,1.73-.6,3.39.06,5.22-.07ZM189.14,238.6c.78-.74.66-1.66.68-2.55.06-2.43-.34-4.97.26-7.25.99-3.76-1.96-5.34-3.52-7.71-.29-.44-.68,0-.88.31-.42.65-.57,1.36-.52,2.16.14,1.96.23,3.93.28,5.9.1,3.43-.58,6.95.63,10.26.73,1.99.59,3.79.06,5.74-.33,1.22-.8,2.5-.41,4.34,1.54-1.91,2.62-3.6,2.34-5.6-.16-1.18.84-2.52-.41-3.53-1.05-.85-1.23-1.98-1.21-3.25.04-1.72-.12-3.35.67-5.1,1-2.22.49-4.84.69-7.66,1.32,2.37-.49,5.01,1.52,6.84.1.09-.07.59-.22.84-1.26,2.08-1.02,4.15.03,6.27ZM192.43,253.08c-.91,1.34.15,2.98-1.04,4.46.17-1.88-.77-3.09-1.97-4.15-.31-.27-.67-.41-.98-.06-.1.12-.06.56-.04.56,1.33.2.21,1.09.45,1.58.76,1.54-.72,2.78-.52,4.33.33,2.59,1.88,4.56,2.74,7.18,2.52-4.72,3.22-9.2,1.37-13.91ZM273.93,139.12c-.13,1.42,1.38,2.16,1.03,3.31-.87,2.81,2.07,4.7,1.69,7.37-.01.1.46.4.71.39,1.36-.03,2.13.46,2.01,1.95-.03.37.08.86.53.85.31,0,.79-.29.89-.56.37-1.08.86-2.21.86-3.32.01-1.98-.89-3.79-1.47-5.66-.23-.75-.55-1.01-1.29-.61-1.15.62-1.84.19-2.66-.8-.73-.9-1.37-1.9-2.29-2.93ZM286.8,107.76c-1.2.24-2.2.33-2.86,1.2-.63.84-.41,1.72-.17,2.59.1.37.45.8.82.51,1.06-.83,1.99-.19,2.95.13.8.27,1.21.02,1.58-.75,1-2.03.55-3.37-1.83-5.14-.63-.47-2-1.04-1.38-1.73,1.95-2.18-.59-2.3-1.3-3.11-.66-.75-1.85-1.09-2.65-.31-.88.86-.29,1.96.11,2.95.33.84,1.77.63,1.55,2.23-.15,1.14,1.9.02,2.59.97.08.11.23.18.58.46ZM308.1,137.24c-.18-3.19-1.27-6.12-2.67-8.94-.78-1.56-2.45-2.02-3.9-1.79-1.67.27-.21,1.77-.51,2.66-.05.14.03.33-.04.45-1.15,2.13.47,3.36,1.6,4.69.4.48.97,1.19,1.69.93.79-.28.55-1.17.52-1.81-.05-1.36-.21-2.71-.37-4.56,1.09,2.11.63,3.89.82,5.6.11.94.52,2.61,1.35,2.09,1.66-1.05.58.95,1.51.69ZM45.79,124.07c-2.03,1.72-2.69,3.87-2.57,6.23.15,2.9-.03,5.75-.58,8.59-.34,1.73-.38,3.46-.22,5.2.04.49.14,1.2.88,1.05.58-.12.37-.69.36-1.14-.02-1.81,0-3.62,0-5.43.5.89.59,1.79.82,2.65.19.71.38,1.56,1.36,1.59.96.03,1.16-.78,1.54-1.44,1.27-2.2.86-4.88,2.09-7.1.27-.5.24-1.34-.28-1.78-1.82,2.88-3.28,5.92-3.31,9.48-1.42-5.99-3.33-11.91-.07-17.89ZM242.9,118.2c.14,3.86,2.25,5.93,4.67,7.77.83.63,1.04-.39,1.55-.96.21,1.63.35,3.18,1.84,4.06.63.37,1.2,1.36,1.89.94.79-.49.39-1.52.11-2.28-1.73-4.7-5.61-7.11-10.06-9.52ZM251.02,105.85q-3.76-1.28-5.23,1.7c-.23.47-.52.92-.82,1.36-.41.62-.59,1.22-.11,1.89.48.67,1.11.65,1.83.46,1.75-.47,3.55-.81,5.26-1.41.67-.23,2.04.25,1.93-1-.08-.95-.94-1.74-1.93-2.06-.63-.2-1.34-.18-2.01-.27-.1-.02-.19-.14-.32-.24.37-.11.72-.22,1.41-.42ZM112.19,25.43c-1.56-.06-2.96-.58-3.22,1.46-.22,1.77.5,2.75,2.08,3.24.5.16,1.14.3,1.46-.22.43-.68-.29-.87-.69-1.16-.56-.4-1.33-.84-.77-1.59.57-.77,1.21,0,1.78.28.41.2.91.34,1.18.66,1.45,1.74,2.79.87,4.09-.15.53-.41.96-.96,1.38-1.49.35-.44,1.16-.73.75-1.47-.34-.62-1.08-.51-1.66-.44-2.24.27-4.48.61-6.39.87ZM244.54,129.48c-.51.44-.96,1-1.12.93-.62-.3-.62-.99-.56-1.59.13-1.39.23-2.77-1.09-3.71-.46-.33-1.56-.69-1.42-.01.43,2.08-.62,4.22.39,6.2.4.77.8,1.14-.3,1.88-.72.48-1.34,2.2-.17,2.97,1.05.69,1.96-.43,2.49-1.34.39-.66.5-1.49.86-2.68.05.82.05,1.19.1,1.55.08.64-.1,1.63.88,1.53,1.16-.12.69-1.1.58-1.81-.19-1.2-.39-2.39-.64-3.92ZM53.92,150.1c.23.05.47.11.7.16-.19-3.13,3.15-5.17,2.26-8.49-.6-.18-.19.8-.9.66.11-1.36.23-2.7.33-4.05.02-.29.05-.7-.34-.71-.25,0-.73.33-.71.41.44,1.87-1.35,3.32-.92,5.21.38,1.71,1.16,3.78-2.03,3.53-.46-.04-.55.88-1.22.76-.11-.86-.21-1.68-.31-2.51-.42,2.43-.85,4.83.63,7.03.25.37.37.91.95.76.47-.12.32-.61.4-.96.24-1.1.47-2.21.74-3.31.05-.2.24-.39.58-.17-.04.53-.09,1.1-.14,1.67ZM264.99,164.63c-.55,1.44,1.68,3.7-1.42,3.82-.22-.78.94-2.1-.46-2.23-1.14-.1-.93,1.36-1.07,2.17-.34,1.85,1,3.13,1.68,4.79.55-1.08-.37-2.13.44-3.29.24.77.5,1.25.54,1.76.09,1.2.02,2.42.13,3.62.07.76.37,1.61,1.3,1.62.99,0,.89-.97.88-1.57-.04-2.34-.24-4.67-.28-7.01-.03-1.37-.51-2.46-1.72-3.68ZM82.55,32.34c-2.08.03-3.57,1.28-5.28,1.87-.83.29-1.17,1.21-.18,2.15,1.66,1.58,3.62,1.53,6.53-.46,1.05-.72,3.06-1.62,2.67-2.41-.49-.99-2.47-1.05-3.74-1.15ZM258.28,153.94c-.12-.61-.23-1.1-.75-1.2-.7-.13-1.15.19-1.31.91-.84,3.83.15,7.34,1.85,10.72.07.13.19.24.3.34.27.25.53.65.94.39.19-.13.31-.51.31-.78.08-2.73,0-5.45-1.01-8.05-.31-.8-1.92-1.41-.34-2.34ZM225.53,90.23c1.29,2.99,2.8,5.65,3.27,8.71.18,1.2,1.48.71,2.34.64.69-.06,1.28-.62,1.02-1.22-.64-1.46-.02-3.54-1.61-4.43-1.76-.98-2.58-3.06-5.02-3.7ZM205.62,191.35c.4,1.25.15,2.31,1.2,2.77.6.26,1.09,1.13,1.76.78.81-.42.33-1.33.35-2.05.11-3.17-2.81-2.98-4.55-4.02-.68-.41-1.64-.32-1.89.88-.28,1.4-.1,2.43,1.43,3.09,1.28.56,1.57-.03,1.7-1.45ZM296.35,122.94c-.42-1.06-.79-1.88-1.08-2.74-.69-2.04-2.31-1.86-3.93-1.65-.51.07-.81.39-.65.96.11.38.38.85.75.65,1.86-1.03,1.71.56,2.09,1.51.36.91.68,1.84,1.11,2.72.77,1.6,2.38,1.5,3.52,1.02,1.33-.55.28-1.85.1-2.8-.09-.5-.35-1.08-1.02-1.02-.74.07-.24.94-.89,1.35ZM21.63,116.13c-2.24,1.5-2.63,3.56-2.89,5.91-.24,2.18,1.58,3.58,1.53,5.58,0,.12.33.36.5.35.49-.02.54-.45.57-.83.11-1.51.25-3.02.28-4.53.05-2.13.01-4.27.01-6.48ZM219.61,77.1c.91,3.26,3.16,5.28,3.49,8.15.07.64,1.19,1.73,1.84.83.66-.92,1.18-2.68.73-3.52-1.22-2.28-2.98-4.28-6.07-5.46ZM196.92,252.22c-.43,2.45,1.31,5.88,2.28,5.98,1.1-4.25-.02-8.65,1.33-13.19-.36,1.41-2.18.14-2.24,1.39-.11,2.14-.53,4.36.75,6.39.37.58.72,1.35-.22,1.95-.83-.68-.77-1.91-1.9-2.52ZM213,62.16c0-2.8-1.42-4.44-2.79-5.88-.95-.99-2.97-1.36-3.97-.36-1.02,1.02.31,2.54,1.25,2.88,1.99.72,3.46,2.25,5.51,3.36ZM255.45,103.79c0-.1,0-.2,0-.3-.37-.02-.76-.11-1.11-.03-.78.18-2.12-.56-2.24.68-.12,1.22,1.17,1.38,2.17,1.44,1.93.12,3.87-.03,5.23,1.92.39.56,1.57,1,2.39.1.83-.9.26-1.6-.36-2.34-.93-1.11-2.16-1.34-3.47-1.19-1.57.18-3.14.26-4.73-.14.71-.05,1.41-.1,2.12-.16ZM288.86,149.57c-.84,1.95-.37,3.77-.5,5.53-.06.77.4,1.82-1.22,1.8-.97-.01-1.39.97-.55,1.8,1.42,1.41,1.74,2.9.29,4.84,2.88-1.51,3.68-8.02,1.98-13.97ZM217.12,62.39c.9-.06,1.79-.13,2.69-.17.71-.04.89-.35.69-1.03-.24-.81-4.66-3.71-5.44-3.49-.19.05-.44.23-.49.39-.37,1.32.24,2.51.61,3.71.3.99,1.24.56,1.95.59ZM231.17,128.32c-.98,3.77-.49,7.41.68,11.61,2.07-4.56,1.83-8.27-.68-11.61ZM279.91,130.49c-.18-.76-.55-1.31-1.21-1.3-.9.01-.81.8-.68,1.37.41,1.68.74,3.38,1.09,5.05.26,1.23,2,2.17,3.14,3.18.22.2.56-.15.6-.47.14-1,.69-2.16-.91-2.57-.29-.07-.99-.26-.59-.61,1.12-.98.06-1.57-.38-2.01-.78-.8-2.94-.89-1.08-2.62ZM123.61,171.19c-1.43-3.13-3.74-6.4-5.29-7.51-.45-.32-1.02-1.02-1.51-.28-.41.61-.15,2.09.12,2.04,1.54-.29,1.07,1.18,1.65,1.61,1.69,1.28,1.95,4.25,5.04,4.14ZM255.44,169.36c-.11-.03-.22-.07-.33-.1,0-.98.02-1.96,0-2.94-.01-.55.19-1.28-.83-1.15-.88.11-.49.79-.5,1.18,0,3.42,1.77,6.35,2.73,9.51.03.11.37.13.72.24.28-3.05-.42-5.83-1.5-8.6-.1.62-.19,1.24-.29,1.85ZM226.2,207.17c-1.08-.88-.36-1.98-.49-2.95-.09-.66.21-1.93-.88-1.64-.71.19-1.15,1.39-1.71,2.13,1.73.97.8,2.82,1.36,4.19.33.81.16,2.2,1.07,2.29,1.28.12.11-1.37.75-1.92.28-.24.47-.59.65-.92.68-1.27.94-2.59.62-4.61-.68,1.48-.5,2.67-1.38,3.42ZM178.7,23.39c2.59.07,4.76-1.77,4.79-4.02,0-.56-.08-1.07-.65-1.32-.45-.2-.93-.12-1.26.24-1.16,1.28-2.32,2.57-3.41,3.92-.44.55-.44,1.16.53,1.19ZM150.97,188.26c2.42-4.94-.43-8.48-1.57-12.26.5,3.89.08,7.91,1.57,12.26ZM221.88,120.04c1.92,2.68,3.84,5.37,5.93,8.29,1.04-3.68-.66-6.12-5.93-8.29ZM74.53,32.25c3.36-2.53,7.22-3.6,11.95-3.98-4.85-1.87-9.83-.15-11.95,3.98Z"/>
      <path d="M285.67,90.75c-2.69-1.11-5.62-.95-8.84-1.69,1.15,1.17,1.72,2.34,1.49,3.73-.45-.5-.94-.97-1.35-1.5-1.99-2.51-5.04-3.52-8.1-2.65-.29.08-.57.32-.84.3-3.01-.25-5.12,1.67-7.45,3.06,1.51-6.02,8.61-13.3,13.68-13.87-.8,1.41-2.18,1.95-3.34,2.63-2.14,1.24-3.75,3.03-5.43,4.76-.64.66-1.3,1.55-.8,2.42.57.99,1.46.04,2.22-.01,6.47-.47,12.97-1.19,18.76,2.83Z"/>
      <path d="M42.78,159.87c2.22.74,1.96-.77,1.56-1.93-.39-1.13-.75-2.11.04-3.17.7.48.41,1.42.91,1.98.88-.65.13-2.77,1.72-2.44,1.81.38.78,2.2.86,3.33.09,1.26-.73,2.2-2.19,1.79-.92-.26-.6.38-.63.69-.08.85.11,1.65.67,2.34,1,1.22.85,2.69.83,4.12-.01.84-.48,1.4-1.13,1.84-.39-.78-1.76-.57-1.71-1.87.08-2.27-.23-4.51-.95-6.68,0,0,0,0,0,0Z"/>
      <path d="M214.48,255.62c.98-.11.96.61.86,1.19-.2,1.15.13,2.26.17,3.39.54,2.67,1.11,5.33,1.62,8,.28,1.46.48,2.95-.41,4.39-.67-.6-.46-1.32-.58-1.95-.08-.4.01-1.15-.6-.98-1.97.56-1.74-1.14-1.79-1.94-.23-4.05-.17-8.11.72-12.11Z"/>
      <path d="M287.9,183.1c.9,4.86,3.51,9.27,3.56,14.6,1.44-.95.64-2.31,1.26-3.3.77,2.46-.11,4.69-.42,6.72-.78,1.14-1.23-3.37-2.06.63.47-4.03-.9-7.31-1.39-10.9-1.32.88-.65,2.14-1.37,3.5.2-4.07-.78-7.67.43-11.25,0,0-.02,0-.02,0Z"/>
      <path d="M205.5,15.36c.72-1.1.02-1.14-.85-1.3-.69-.13-2.19-.07-.77-1.49.77-.78-.14-.97-.64-1.19-1.09-.48-2.2-.91-3.31-1.37.17-.32.34-.64.5-.97,2.93-.2,5.16,1.22,7.17,3.13.32.3.61.64.96.9.51.38,1.65.02,1.63.85-.03.93-1.11,1.01-1.87,1.32-.95.38-1.87.53-2.83.11Z"/>
      <path d="M240.04,224.42c-.38-1.28.74-1.57,1.42-2.14.77,2.44,1.5,4.9,2.33,7.32.58,1.69-1.84,1.79-1.7,3.43.04.4-.55,1.7-1.1,2.66-.46-2.05-.48-3.96-.47-5.9,0-1.79-.31-3.58-.49-5.36Z"/>
      <path d="M51.44,26.86c-.01.18-.02.35-.04.53-2.22,1.1-4.38.76-5.95-.94-1.47-1.58-3.18-1.69-5.09-.65-1.07.58-2.43,2.22-3.4.91-.49-.67,1.79-1.09,2.65-1.82,3.69-3.14,6.59.26,9.78,1.11.68.18,1.25.83,2.05.87Z"/>
      <path d="M265.6,218.92c.7,1.38,2.68,2.46,1.11,4.54-.43.57.17,1.3.27,1.96.55,3.66.52,7.27-1.39,10.7v-17.2Z"/>
      <path d="M52.83,31.15c-3.36-.76-6.7-1.7-10.2-1.49-.79.05-1.62.26-2.29.89.69.72,1.62.16,2.5.63-2.3.39-4.49.61-6.36,1.91-.32.22-1.02.32-1.26.12-.52-.41,0-.98.19-1.4.45-.98,1.48-1.27,2.39-1.56.56-.17,1.08-.3,1.62-.61,1.58-.91,3-1.58,5.14-.68,2.57,1.08,5.66.71,8.27,2.17Z"/>
      <path d="M39.58,162.14c.05,2.41.03,4.83.23,7.23.03.32-.31,2.91,1.62,1.06.51-.48.4.13.44.29.31,1.39.7,2.77.83,4.18.09.91-.14,1.14-1.3.62-1.44-.64-2.75-1.23-2.65-2.86.21-3.5.14-7.04.85-10.5,0,0-.02-.02-.02-.02Z"/>
      <path d="M104.01,232.02c-.4,7.49-.79,14.98-1.19,22.48-.21-7.5-.55-15.01-.26-22.5.48,0,.97.02,1.45.02Z"/>
      <path d="M321.09,160.47c.77-.86.39-1.72.89-2.37-.55,3.08,1.36,5.95.64,9.06-2.42-4.1-2.24-9.18-5.52-13.08q2.2.22,2.08-2.16c1.52,2.69.26,5.84,1.92,8.56Z"/>
      <path d="M249.12,207.78c1.94,2.73,2.96,5.84,3.37,8.99.25,1.94,1.08,3.87.54,5.95-1.53-4.93-3.37-9.77-3.91-14.94Z"/>
      <path d="M153.79,260.07c1-4.01,1.06-8.22,2.83-12.02.23-.5.44-1.31,1.22-1.06.6.19.6.83.31,1.35-1.66,2.97-1.71,6.41-2.86,9.53-.31.82-.42,1.75-1.5,2.2Z"/>
      <path d="M.41,85.59c-.14.15-.27.29-.41.44.14-.15.27-.29.41-.44Z"/>
      <path d="M.41,85.15c0,.15,0,.31,0,.46,0-.15,0-.31,0-.46Z"/>
      <path d="M136.21,11.76c1.37.2,2.74-1.63,4.12-.02,0,0-.07.09-.07.09-.14.14-.28.28-.43.41-.76.31-1.51.61-2.27.91-.72-.08-1.46-.09-1.97-.73.21-.22.41-.45.62-.67Z"/>
      <path d="M291.11,135.63c-.14.03-.28.06-.42.08-.08-.11-.16-.21-.25-.32-.06.12-.12.24-.18.36-.61-.5-1.02-1.26-1.88-1.42.31-.85-.39-1.53-.38-2.32,1.09.74,1.68,2.12,3.12,2.41,0,.4,0,.81-.01,1.21Z"/>
      <path d="M214.62,227.78c-1.47-.43-1.26-1.58-1.16-2.69.37.14.74.27,1.11.41-.02.14-.02.28-.01.41.45.63.9,1.25,1.36,1.88-.31,0-.62-.01-.93-.02,0,0-.19-.11-.19-.11l-.18.12Z"/>
      <path d="M141.22,12.17c-.31.03-.62.05-.93.08-.01-.14-.02-.28-.03-.41,0,0,.07-.09.07-.09.29.05.58.1.88.15,0,.09,0,.19.02.28Z"/>
      <path d="M216,228.2c-.04-.14-.07-.29-.1-.43.03.14.06.29.1.43Z"/>
      <path d="M144.59,182.36c-.1,1.13-.2,2.26-.31,3.48-.47-.31-.29-2.07-1.47-.63-.76.92-1.15.21-1.24-.6-.05-.44-.01-.91.08-1.35.57-2.81,1.19-5.6.49-8.5-.13-.55.1-1.2.2-1.79.08-.51.13-1.23.8-1.16.81.09.73.85.61,1.44-.48,2.37-.98,4.73-.4,7.17.15.64-.04,1.41.9,1.58.12.12.23.24.35.36Z"/>
      <path d="M137.55,14.08c0-.31,0-.62,0-.93.24.09.48.18.73.27-.24.22-.48.45-.72.67Z"/>
      <path d="M139.83,12.24c.16,0,.32,0,.48,0-.16,0-.32,0-.48,0Z"/>
      <path d="M286.54,144.83c.16.16.32.32.48.48-.16-.16-.32-.32-.48-.48Z"/>
    </g>
  </g>
</svg>