<?xml version="1.0" encoding="UTF-8"?>
<svg fill="#6A7F6B" id="Capa_2" data-name="Capa 2" xmlns="http://www.w3.org/2000/svg" viewBox="0 0 216.85 340.81">
  <g id="Layer_1" data-name="Layer 1">
    <g>
      <path d="M77.96,230.01c.57-2.72,1.98-4.83,4.4-6.26.37-.22,1.14-.55.59-1.16-.37-.41-.82.12-1.14.41-3.61,3.24-7.78,5.74-11.43,8.96-1.79,1.58-2.42,3.78-3.9,5.46-.26.29-.43.65-.68.95-.23.27-.43.76-.89.4-.28-.21-.22-.56-.06-.89.35-.69,1.54-1.5.73-2.09-.77-.57-1.47.7-2.16,1.23-.9.69-1.79,1.4-2.69,2.1l-.33-.39c1.36-1.18,2.63-2.48,4.1-3.51,1.72-1.21,2.73-2.92,3.78-4.63.19-.31.42-.83.29-1.08-1.24-2.42.76-3.64,1.88-5.15.68-.92,1.49-1.74,2.26-2.62-.81-.6-1.34.44-1.96-.01-.21-.58.68-.71.57-1.34-1.52.47-2.41,1.66-3.42,2.61-2.7,2.52-5.18,5.2-7.35,8.26-2.89,4.07-6.59,7.5-11.05,9.84-1.71.89-2.99,2.73-5.39,2.31,1.73-1.05,3.44-2.15,5.2-3.15,4.05-2.29,6.81-5.98,9.76-9.37,1.87-2.15,2.95-4.99,5.51-7.15-3.36.23-4.51,3.52-7.58,3.82-2.57.25-4.05,3.21-6.59,5.01.32-2.15,1.85-2.56,2.6-3.67-2.4.26-4.31,1.62-6.32,2.68-1.03.54-1.93,1.31-2.9,1.97-.79.53-1.52,1.29-2.6.52-.42-.3-.89.03-1.27.26-2.26,1.36-4.5,2.63-7.25,2.92-1.85.19-2.84,2.07-4.27,3.12-.7.52-1.23,1.26-2.06,1.72,1.19-.9.93-2.75,2.45-3.44.41-.19.81-.73.38-1.26-.19-.24-.4-.27.02-.46,4.48-2.09,6.61-6.83,10.6-9.47.77-.51-.07-2.03,1.76-1.89-2.51-1.2-4.79.78-6.91-.67,2.04.18,4-.62,6.04-.38,1.14.13,2.47-.11,2.52-1.16.05-.9-1.73-1.05-2.22-.74-2.8,1.74-5.88.35-8.75,1.04-.7.17-1.47.66-2.65-.34,4-.89,7.93-.57,11.92-2.49-3.97-.15-7.37-.15-10.72.65-4.95,1.2-9.87,2.46-14.62,4.38-1.99.8-4.08,1.32-6.13,1.97-.06-.19-.12-.38-.18-.57,8.08-2.93,16.15-5.86,24.23-8.79-.02-.2-.04-.41-.06-.61-9.36,4-19.01,1.58-28.54,1.8,1.15-.62,5.59-1.01,7.68-.6,3.74.73,7.51.42,11.25.09,1.07-.09,2.08-.91,3.12-1.67-5.98,1.22-11.75-.22-17.57-1.06,7.89,1.19,15.73.58,23.57-.7-8.84.07-17.65-.93-26.57-.28.34-.75,1.05-.13,1.52-.67-2.9-.28-5.68.71-8.48.17.34-.52.85-.19,1.28-.27,4.06-.74,8.11-.65,12.18-.1,1.64.22,2.85-1.27,4.6-1.13,2.77.22,5.57.15,8.35.02,1.81-.08,3.59-1.11,5.47-.17-4.97-2.8-10.42-2.83-16.23-2.78,3.53-1.7,7.05-.59,10.35-1.52-.69-.8-1.85-.75-2.34-1.79,2.81,1.43,5.83,2.04,8.89,2.42.66.08,1.77,1.19,2.13-.54.05-.26.78.2,1.19.37,3.35,1.36,6.55,3.14,10.21,3.66,1.92.27,3.46.13,3.8-2.23.02-.12.38-.2.75-.37-5.64-.37-10.99-1.23-16.18-3.04,2.63.51,5.24,1.32,7.88,1.46,2.75.15,5.71,1.11,8.3-.34,2.67-1.49,5.63-2.71,7.42-5.43.52-.8,1.56-1.15,1.91-2.31-1.89-.01-3.19,1.37-4.84,1.51-.51.04-1.25,1.07-1.42-.41-.03-.27-.83-.11-1.27,0-1.53.37-3.08.22-4.81.2,1.74-.97,3.44-.49,5.07-.67,1.7-.2,3.49-.05,4.82-1.66-1.34-.73-2.39.51-3.69.32.44-.82,1.44-.68,1.97-1.42-2.05-.8-3.92-.02-5.79.19-.7.08-1.37.4-2.07.51-.65.1-1.33.89-1.8-.64-.26-.83-2.23-.77-3.43-.53-1.13.23-2.15.25-3.2-.23-1.56-.71-3.11.81-4.7.06-.33-.16-.75-.16-1.13-.45,7.66-.5,15.2-1.89,22.87-2.29-2.84-.28-5.62-.75-8.59-.48.33-1.13,1.08-.88,1.64-.86.97.04,1.95.1,2.89.31,3.44.76,5.3-1.34,7.07-3.75.4-.55-.6-2.17,1.38-1.59-5.76-1.1-11.35-1.73-16.94-.06-.58.17-1.33.91-1.66-.46-.11-.44-1.06-.33-1.63-.31-1.69.07-3.34-.17-4.98-.61,3.82-.1,7.67.93,11.56-.03-.28-.72-.84-.37-1.29-.98,3.7.36,7.26.84,10.31-1.54,1.64-.36,2.63.75,3.76,1.61,1.77,1.35,2.41,1.37,3.16-.7.79-2.17,2.38-3.62,3.66-5.35.71-.97,1.47-1.9,2.21-2.85-2.67,1.29-5.13,2.78-7.29,4.74-.89.81-1.81,1.77-3.23,1.11.04-.05.08-.1.11-.16.46-.79,2.28-.8,1.73-1.89-.39-.76-1.76.13-2.68.31-1.74.35-3.45.8-5.25,1.23.05-.74.43-.98.79-.97,2.25.08,4.18-1.13,6.33-1.53,2.6-.48,4.95-1.74,6.5-4.08.32-.48,1.23-.78.56-1.58-.54-.64-1.22-.65-1.94-.32-1.06.48-2.11.96-3.16,1.45-.34.16-.64.47-1.18.08.42-.92,1.38-.97,2.12-1.34.83-.42,1.94-.57,1.93-1.87,1.87.39,3.56-.4,5.3-.81.47-.11,1.02-.39.49-.89-1.1-1.05.03-1.17.56-1.38,1.53-.62,3.11-1.15,4.91-1.8-1.28-.52-2.29-1.08-3.52-.59-3.38,1.37-6.68,2.99-10.41,3.22-1.84-.87-3.46.66-5.27.52,2.1-2.29,4.94-1.31,7.42-1.68,2.32-.35,4.25-1.41,6.72-2.39-2.35-.75-4.44-.07-6.36-.75,2.62.09,5.23-.26,7.86.04-1.37-1.86-3.28-.79-4.99-.89.73-1.5,2.05-1.11,3.19-1.15,1.32-.05,2.42-.71,3.99-1.06-1.53-.9-3.25.03-4.22-1.36.51-.5,1.16.42,1.73-.38-5.01-2.37-10.4-3.35-15.67-4.79,1.37-.15,2.76.07,4.16-.41-1.11-1.36-2.73-1.87-4.19-2.71,1.01-1,1.37-1.51-.48-2.24-1.71-.68-3.72-1.41-4.63-3.46-.29-.66-1.21-.71-1.89-.87-4.86-1.14-9.71-2.3-14.58-3.35-3.62-.78-7-2.18-10.39-3.69,3.49.63,6.98,1.26,10.48,1.89.97.17,1.81.5,2.96.22.71-.17,2.13.42,3.17.86,1.43.61,2.89,1.15,4.34,1.72.9.35,1.81.57,3.27.24-8.52-4.76-17.68-6.35-26.3-9.42-.56-.2-1.33-.07-1.66-1.19,6.95,1.97,13.72,3.89,20.88,5.92-.9-1.91-2.43-2.29-3.72-3.21.83-.19,1.5-.36.6-1.25-1.8-1.77-4.02-2.94-6.24-3.88-2.1-.9-3.86-2.26-6.28-3.42,2.16-.31,3.29,1.17,5.06,1.52-.52-.58-.89-1-1.28-1.44.62-.47.87.1,1.16.33,3.2,2.54,6.74,4.59,9.97,7.15,3.59,2.84,7.8,4.99,11.74,7.55-1.48-3.14-4.95-4.57-6.47-7.75-1.58-3.3-5.06-4.94-7.56-7.45-2.45-2.46-5.43-4.28-8.37-6.6,1.17-.14,1.66.43,2.22.81,3.42,2.33,7.11,4.33,9.8,7.58.7.84,1.69.23,2.38.92.93.93,1.73,1.91,2.32,3.09,1.38,2.76,3.54,4.73,6.14,6.33,1.72,1.06,2.5,3.05,3.77,4.57,3.54,4.25,8.35,6.74,12.71,9.85,1.26.9,3.1.64,4.55.22,1.04-.3,1.86-.22,2.78.06,6.01,1.8,12.17,1.44,18.3,1.1,4.84-.27,9.67-.88,14.49-1.43,3.65-.42,3.78-.65,4.14-4.31.12-1.23.26-2.47.55-3.66.35-1.47-.14-2.14-1.6-2.46-6.14-1.36-12.3-2.7-18.24-4.73-4.37-1.5-8.78-2.77-13.32-3.43-5-.73-10.07-.65-15.11-.78-1.2-.03-2.4,0-3.61,0,0-.21,0-.42.01-.62,4.78,0,9.55,0,14.33,0,.84,0,1.68.07,2.52.06.21,0,.54-.18.6-.36.15-.41-.19-.54-.53-.62-1.46-.36-2.86-.83-3.85-2.06-.32-.56-.85-.71-1.44-.73-.15-.11-.3-.21-.45-.32-.11-.03-.21-.05-.32-.07,0,0-.05-.03-.05-.03-.24-.14-.49-.28-.73-.43-2.07-1.21-4.43-1.72-6.61-2.69-.98-.43-2-.77-2.94-1.38,4.69.84,9.2,2.52,14.22,2.67-2.16-2.44-4.98-3.71-7.6-5.01-1.78-.88-3.58-2.02-5.71-2.3-2.31-.3-4.58-.88-6.86-1.37-2.22-.48-4.41-1.05-6.64-1.47-1.79-.34-3.16-1.41-4.66-2.29-.72-.42-1.53-.71-2.33-.94-.69-.2-.93-.51-.68-1.21.28-.78.76-.34,1.19-.23,3.18.86,6.38,1.68,9.54,2.61.92.27,2.38-.19,2.57.1,1.2,1.86,3.25.85,4.7,1.64.32.18.72.22,1.16.16-3.93-2.21-7.06-5.79-12.02-6.14.09-.21.19-.42.28-.62.86.24,1.72.48,2.58.71.38.1.81.18,1.06-.2.27-.42-.11-.71-.35-1.01-1.67-2.1-3.99-2.75-6.53-2.86-.96-.04-1.94.07-2.87-.51,1.2.28,2.28-.15,3.38-.41,1.06-.25.99-.71.4-1.48-.87-1.13-2.06-1.46-3.81-1.66,2.03-.65,3.45-1.01,5.31-.57,3.16.75,6.47,1.06,10.39.98-2.22-2.16-4.95-2.58-6.94-4.78,3.1.71,5.32,2.49,7.8,3.62,2.54,1.15,5.11,2.74,7.83,2.57,2.94-.19,5.52,1.16,8.54,1.23-.52-1.29-1.58-1.67-2.5-2.1-1.87-.89-3.76-1.74-5.81-2.2-.59-.13-1.7-.15-.54-1.25.55-.52-.13-.92-.58-1.14-1.03-.51-2.16-.51-3.24-.31-2.88.54-5.66.09-8.42-.79,2.16-.07,4.33.56,6.49.04-2.88-.41-5.76-1.06-8.69-.27.69-.61,3.65-1.16,5.83-1.03,2.05.12,4.07.68,6.2.27-3.81-.93-7.72-1.47-11.4-2.94,4.88,1.41,10,1.19,14.91,2.48-1.77-1.46-4.16-.97-6.11-2.09,1.53.73,2.4-.3,3.26-1.16.63-.63-.66-.79-.47-1.37,3.49,2.33,7.36,3.87,11.17,5.52-2.48-2.64-5.19-4.9-8.72-5.91-.94-.27-1.86-.65-2.76.08-1.21-.22-2-1.05-2.99-1.87,1.21-.41,1.67,1.3,2.86.61-1.93-2.85-5.63-1.31-7.89-3.3,4.38-.1,7.9,2.2,11.58,4.02.09-.14.18-.27.27-.41-.65-.54-1.33-1.05-1.95-1.63-.46-.43-1.29-.44-1.41-1.2-.03-.17.27-.54.44-.55.87-.05,1.09.8,1.58,1.27,1.58,1.51,3.51,2.35,5.46,3.08-1.76-2.77-3.77-5.36-5.14-8.26-1.38-2.91-1.11-3.05-4.19-2.64-.3.04-.61.08-1.01-.2.77-.37,1.54-.74,2.58-1.23-1.57-.65-3,.49-4.42-.21.91-.87,2.19-.05,3.09-1.13-1.06-.09-1.12-.47-1.23-1.5-.11-1.01-1.67-2.23-3.22-2.43-.57-.07-1.16-.07-1.8-.18,1.06-.13,1.4-1.09,1.5-1.73.17-1.08-2.89-3.13-4.35-3.24,1.68-.63,3.54-.47,5.26-.69,1.73-.22,3.6.64,5.43.92-1.27-.9-3.03-.66-4.58-2.31,3.38.92,6.25,1.71,9.25,2.53.12-1.43-.74-2.36-1.91-2.68-3.09-.85-5.67-2.85-9.08-3.75,1.12-.65,1.79,0,2.53.15.9.17,1.81,2.15,2.82-.16.4-.92,4.33-.15,5.23.81.18.19.38.35.71.23.46-.69-.49-.94-.49-1.51.05-.08.12-.16.18-.25.53.53,1.2-.56,1.45-.08,1.87,3.48,5.22,4.84,8.56,6.25.51.22.96.66,1.36,1.06,1.16,1.17,2.42,2.14,4.1,2.46.48.09,1.11.33,1.33.7,1.08,1.81,2.71,2.31,4.63,2.09,1.84-.21,3.24,1.18,4.94,1.34.43-.81-.6-.82-.53-1.39.07-.57-.03-1.13.89-.94,4.93,1.04,10.09.83,14.87,2.71.24.09.5.15.75.19q2.62.44,2.69-2.3c.03-1.11-.16-2.27.12-3.31.58-2.17-.56-3.07-2.25-3.84-7.1-3.25-14.43-5.75-22.13-7.06-3.09-.52-6-1.55-8.9-2.67-2.31-.9-4.63.09-6.93-.15-.93-.09-1.88.01-2.74-.49,4.96-.15,9.87-.57,14.75.7.01-.18.03-.35.04-.53-4.27-1.33-8.54-2.66-12.82-3.99l.13-.41c3.97,1.03,7.95,2.07,11.92,3.1-2.84-2.39-6.01-4.27-8.6-7.06.96.26,1.92.51,2.88.77.11.03.21.06.32.08.29.22.58.44.87.66.08.02.16.03.24.04,1.41.18,2.48,1.08,3.63,1.79,4.62,2.88,9.19,5.87,14.31,7.77,4.81,1.78,9.3,4.29,14.07,6.13,1.22.47,1.91.29,1.61-.99-.38-1.65-.31-3.13.32-4.69.68-1.67-.13-2.49-1.7-3.23-3.04-1.43-5.94-3.17-8.88-4.79-.32-.17-.71-.34-.69-1.08,1.31.62,2.54,1.19,3.76,1.77.09-.14.19-.28.28-.42-1.4-1.48-2.81-2.94-4.18-4.45-2.7-2.97-5.28-6.04-8.08-8.91-1.4-1.43-3.24-2.29-5.35-2.39-3.29-.15-6.39-1.22-9.52-2.14,3.04.04,5.91,1.21,9.03,1.2-1.88-1.56-5.74-2.68-10.88-3.35.53-.06,1.06-.12,1.82-.21-.5-.19-.77-.3-1.05-.41,2.99-.77,5.86-.02,8.48,1.19,2.74,1.27,5.68,2.05,8.31,3.67-1.37-4.02-4.32-6.95-6.78-10.62,1.44.39,1.72,1.49,2.42,2.13.57.52.95,1.24,1.5,1.79.56.56,1.1,1.79,1.86,1.36,1-.57-.05-1.47-.34-2.18-.34-.82.12-1.51.3-2.68.52,1.72.93,3.06,1.34,4.41.12-3.22-1.81-5.98-1.76-9.17,1.18,3.14,2.41,6.25,3.31,9.51.61-4.2-1.25-8.08-1.64-12.1,1.08,1.66,3,9.79,2.76,11.74-.47,3.79.4,5.73,3.91,7.25,3.54,1.53,6.44,3.99,9.65,6.01.59.37,1.27.6,2.32,1.09-.68-2-1.23-3.63-1.8-5.25-.43-1.23-1.09-2.42-1.26-3.68-.77-5.7-3.06-10.99-4.33-16.54-.4-1.74-1.43-3.33-1.21-5.36,1.16.87,1.34,2.29,2.39,3.16-1.9-4.96-3.75-9.93-4.31-15.26,1.16,2.55,3.28,4.31,5.03,6.5-.91-2.86-.2-5.65-.19-8.92,3.16,3.05,1.61,6.82,2.98,9.94V0c1.7,6.76,1.51,13.68,2.61,20.48.17-1.55.23-3.1.88-4.56.38,3.74-.23,7.53.79,11.36.11-.45.2-.8.29-1.15.28,5.18.77,10.3,2.34,15.58,3.77-6.95,8.35-13.12,11.52-20.16.28,1.49-.72,2.6-.61,4.05.98-2.52,1.96-5.03,3.09-7.93.44,1.49-.52,2.41-.24,4.01,1.8-3.71,3.59-6.87,3.66-10.69.55-.01.29.4.34.62.06.24.04.51.06.79.14-.05.27-.05.32-.11.22-.32.39-.68.64-.98.4-.47.73-1.45,1.35-1.13.8.42.16,1.31-.08,1.91-.91,2.22-1.8,4.44-2.43,7.27,2.55-1.94,4.82-3.67,7.3-5.55-.12,1.03-.74,1.51-1.25,1.97-7.04,6.39-12.2,14.31-17.61,21.99-2.06,2.93-3.33,6.45-4.82,9.77-.41.91-.42,2.03-.46,3.06-.03.69-.38,1.76.82,1.84.89.06,1.6-.4,1.8-1.42.52-2.62,1.96-4.96,2.35-7.62.02-.15.21-.27.5-.62.24,1.98-.88,3.53-.7,5.85.71-1.8,1.42-3.05,1.67-4.38.5-2.71,1.73-4.83,4.27-6.2-.35,3.5-2.57,6.22-3.83,9.4,1.47-2.14,3.62-3.46,5.7-4.97-.79,2.05-2.4,3.79-2.18,6.27,1.02-.4.88-1.57,1.55-2.15.65-.16.02,1.72.76.72,1.09-1.49,2.79-1.26,4.11-2.01,1.14-.64,2.37-.31,1.86,1.63,7.38-1.74,13.93-5.17,20.23-9.19-1.15,1.62-3.3,1.86-4.14,3.92,3.07-1.46,6.15-2.92,9.22-4.37.08.16.16.33.25.49-2.72,1.5-5.43,2.99-8.29,4.57,4.02.52,7.81-.67,11.66-.5-3.53.44-6.96,1.65-10.48,1.75-4.18.11-8.05,1.09-11.87,2.6-1.32.52-2.67.96-4,1.59,3.04-.43,6.02-.4,8.94.91-5.72-1.78-10.41,1.05-15.24,3.26,3.33-.57,6.5-1.9,9.93-2.1-3.79,1.09-7.5,2.44-11.26,3.86,1.29,0,2.58-.01,3.87,0,1.36.02,2.73-.03,4.07.14,1.32.16,2.6.56,4.01.88-.22.19-.32.34-.38.33-4.42-1.14-8.89-.24-13.34-.38-1.14-.04-2.18.25-3.19.73-1.5.71-2.41,1.61-2.25,3.57.24,2.9.06,5.84.06,9.13.61-1.13.51-2.21,1.3-2.84.74.51.34,1.53,1.05,2.11,1.3-.89.25-2.55,1.16-3.52,1.89,1.84-.06,3.58-.15,5.5,2.58-2.88,6.93-2.93,9.14-6.24.33-.49,1.05-.71,1.57-1.08.64-.45,1.32-1.11,2.09-.62.95.6-.16,1.22-.2,1.86-.02.42-.5.89.51,1.04,1.14.17-.48.79.02,1.26.79-.05,1.33-.69,2.04-.96.42-.17,1.01-.54,1.26-.16,1.06,1.59,2.05.48,3.15.1,2.08-.71,4.44-1.08,6.21-2.08,3.57-2.02,7.82-2.81,10.78-6,1.41-1.52,3.2-2.68,5.03-3.75-1.9,2.66-4.1,4.99-6.82,7.29,3.2-1.14,6-2.45,9.16-2.72-3.7,1.48-7.41,2.96-11.65,4.65,3.84-.91,7.3.35,10.56-1.09-1.17.89-1.18.89-4.06,1.28,3.68.44,7.28,1.79,11.09,1.94-3.95.62-7.66-.94-11.56-1.06.25.09.51.18,1,.35-4.05.76-7.88,1.51-11.73,2.16-1.5.25-2.78,1.03-4.2,1.48-.54.17-1.26.55-.97,1.22.3.69,1.02.23,1.55.1.37-.09.72-.27,1.15-.44,0,1.16-.39,1.54-1.59,1.62-1.37.09-2.71.68-4.38,1.15,1.32.49,2.23-.43,3.52.2-2.06.8-4.15.67-6.3,2.13,4.84-1.12,9.18-1.68,13.61-.94-5.18-.32-10.1.94-15.03,2.31,2.96-.33,5.92-1.03,8.97.2-4.72-.23-8.96,1.03-12.91,4.03.69.14,1.14.23,1.59.32-4.54-.16-7.08,2.64-9.32,6.07,1.49-.54,4.42-2.43,5.78-3.69.62-.58,1-1.31,2.24-.88.66.23,2.05-.47,2.53-1.15,1.12-1.59,1.84-.65,2.83.04-7.78,2.41-13.56,7.28-18.43,13.19.44.92.8.77,1.07.68,3.8-1.29,7.65-1.12,11.61-.81,4.29.34,8.4-.89,12.25-2.87.7-.36,1.28-1.13,2.17-.13.45.51,1.26.02,1.84-.21,1.91-.75,3.78-1.63,5.69-2.39,2.2-.88,3.08-2.65,3.29-4.85.19-2.04.75-4.04.67-6.13.86,2.3-.2,4.63.05,7.54.53-1.58,1.29-2.32,2.06-3.06.66-.64,1.23-.82,1.61.18.44,1.16.92.54,1.39.09.61-.58,1.18-1.2,1.76-1.81.55-.58.94-.26,1.47.12.81.58,0,.7-.21.93-.48.54-.5,1.13-.47,1.98,2.12-1.24,4.14-2.18,5.62-4.04,1.86-2.33,4.62-3.8,6.3-6.33.52-.79.88,1.19,1.49.03.3-.57.99-.93,1.5-1.38.11.12.23.24.34.36-1.64,1.61-3.27,3.21-4.91,4.82-.5.49-1.31.98-.97,1.71.32.68,1.18.62,1.92.44,1.02-.25.91.03,1.08,1.1.27,1.65-.43,1.17-1.25,1.29-1.1.17-1.28,1.47-2.21,1.99-4.57,2.53-8.27,6.19-11.99,9.76-2.6,2.49-5.35,4.9-7.34,8.32,1.94-.6,1.44.14.86,1.12,3.01-1.81,5.17-4.7,8.38-6.17-4.53,4.67-9.31,9.05-14.68,12.76,2.53-.85,5.13-1.41,7.32-3.04.46.76-.42.98-.34,1.26,6.12.66,12.27-.58,18.25,1.21-3.95-1.34-7.97.02-11.94-.33-3.16-.29-4.71.78-5.8,3.9.46.39.98.13,1.48.12,2.06-.04,4.04-.5,6.16.58,1.42.72,3.43.26,5.17.33,1.25.05,2.54-.12,3.68.73-2.68-1.22-5.37.79-8.05-.15-.3-.1-.67-.02-.95-.16-4.04-1.95-7.22.03-10.34,2.26-.41.29-.69.72-.31,1.15.58.65,1.31.48,1.95.08.75-.48,1.23-1.59,2.62-.96-.65.49-1.19.91-1.73,1.32,2.39-.52,4.78-.59,7.21-.58-2.14,1.45-5.24.51-7.28,3.1,3.44.61,6.41-.44,9.43-1.15-1.74,1.71-3.8,2.61-6.33,2.9,1.87,1.62,4.15,1.04,5.99,2.04-1.78-.23-3.55-.49-5.33-.69-1.22-.14-2.48-.34-3.49.66-1.05,1.04-.88,1.85.56,2.13,1.26.24,2.58.25,3.87.28,1.44.03,2.81-.01,4.19.78,1.17.68,2.67.72,4.06.89-1.52.43-2.94-.05-4.36-.44-2.31-.63-4.59-.83-6.8.34-.34.18-.81.25-.82.71-.01.47.43.64.79.73,2.42.63,4.71,1.8,7.37,1.3,2.51-.47,4.97.35,7.4.84,2.24.45,4.38-.06,6.56-.14-1.01,1.13-2.19,1.15-3.65.92-1.83-.28-3.73-.07-5.6-.07,2.59.7,5.23,1.09,7.9,1.21-4.97.85-9.72-1.22-15.2-1.28,2.14,1.39,3.9,2.23,5.67,3.12,2.26,1.13,5.42,1.16,6.28,4.36-2.26-1.51-4.36-3.38-7.56-3.72,2.94,2.31,4.72,5.2,6.92,7.72,2.49,2.86,1.67,2.44,3.48-.31.46-.7.3-1.13-.43-1.52-.44-.23-.85-.59-1.01-1.13,1.62.84,2.86.56,3.74-1.15,1.1-2.13,2.23-4.23,2.5-6.67.1-.9.11-1.72-1.03-1.94,1.05-.53,2.15-.72,3.5-.58-.82,1.82-1.62,3.51-2.34,5.24-.71,1.7-.96,3.58-2.23,5.05-.39.45-1.19,1.14-.44,1.85.64.61,1.43.46,2.1-.15.14-.12.34-.17.54-.26.62.65-.95,1.74.15,1.91,1.01.16,2.26.07,3.25-.62,2.44-1.72,4.85-3.49,7.33-5.14,2.09-1.39,4.17-2.78,6.01-4.83.22,1.31-.22,1.93-.98,2.43-3.58,2.34-5.94,6.11-9.55,8.38-1.88,1.18-3.46,2.62-4.85,4.4,1.82-.85,3.72-1.57,5.43-2.59,2.5-1.49,5.37-1.27,8.04-1.93.78-.2,1.9,1.06,3.13,1.23-3.16-.84-5.69.93-8.4,1.84-.55.19-1.56.21-.96,1.39.28.56-.44.48-.72.58-.85.3-1.73.53-2.6.78-1.11.31-1.08.39-2.03,1.66-.29.38-1.05.4-1.62.6,3.84.98,7.77-.21,11.6.62,1.31.28,2.64.48,3.94.85-6.08-.27-12.12.07-18.15.57,1.08.85,2.38-.37,3.49.71-.91.64-1.95.07-3,.59,2.14,0,4.08-.1,6.01.03,2.28.14,4.57-.85,6.88.57,1.11.68,2.79.21,4.21,0,2.25-.32,4.48-.46,6.99.55-2.63.31-5.02-.52-7.31.37-.02.57.72.32,1.04.86-4.57-.58-8.94-2.21-13.89-.76,4.84,1.41,9.24,2.98,13.81,4.07-6.62-.65-12.88-2.84-19.32-4.26,3.2,1.73,6.42,3.22,10.04,3.79,3.22.5,5.34,3.48,8.51,4.28-2.03.3-3.54-.9-5.12-1.74-1.79-.95-3.55-1.86-5.62-1.95-2.19-.1-4.11-1.12-6.08-1.94-2.02-.84-4.17-.9-6.3-.92-.87,0-1.74.27-2.7,1.09,1.82.34,3.36.62,4.91.91-1.35.23-2.72.46-3.97-.08-2.09-.91-3.77.13-5.52.94-.28.13-.61.31-.6.7.01.49.43.64.8.71,1.32.27,2.65.49,4.18.76-1.16.2-4.47.13-5.16-.13-.53-.2-1.03-.1-1.52.03-2.63.68-5.64.81-7.75,2.27-1.71,1.17-3.47.92-5.04,1.72-.23.11-1.68-.02-.38.93.4.29-.15.51-.43.54-.9.09-1.81.12-2.96.19,3.41,1.34,6.56,2.78,10.31,2.07-.34.78-1.07.25-1.3.86.73.24,1.45.52,2.19.71,4.34,1.1,6.94,5.05,10.95,6.78-8.09-4.89-16.58-8.5-26.1-8.99,1.39,1.11,3.08,1.04,4.84,1.22-.79.69-1.75.09-2.46.58.19.82,1.16.79,1.81,1.91-3.55-1.99-6.79-3.34-10.48-2.62,2.24,1.54,4.49,2.98,7.38,2.49,1.9,2.87,4.89.05,7.27,1.42-1.21.87-2.55.32-3.71.71-1.34.45-3.15-.74-4.12,1.16-.03.06-.48-.03-.68-.14-2.1-1.23-4.55-1.49-6.76-1.37-1.51.08-3.06.06-4.59.17-.32.02-.8.06-.7.43.1.39.45.84.81,1.03,2.25,1.16,4.51,2.32,7.07,2.62,2.93.35,5.9.5,8.69,1.76-2.7-.35-5.4-.7-8.23-1.07.18,1.95,1.8,2.82,3.05,3.63,1.3.84,2.58,1.57,3.76,2.65,2.02,1.85,4.7,2.38,7.41,2.46,3.11.09,6.19.51,9.27.89.42.05.83.26,1.39.45-.82.49-1.53.24-2.2.32-2.89-1.26-5.92-.96-9.1-1.14.36.57,1.04.48.89,1.06-.02.08-.48.06-.73.08-3.29-.53-6.61-.88-10.26-2.09q2.66,2.64,5.22,3.09c.54.09.93.42,1.3.79,1.94,1.92,3.44,1.95,5.64.11,1.75.85,3.13-.73,4.74-.75-1.28,1.54-3.2,1.85-4.93,2.44-1.96.67-3.63,1.96-5.59,2.58-1.4.44-2.94.34-4.5,1.09,1.85.92,2.42,3.12,4.43,3.79.67.22,1.34.78,2.03.46,2.41-1.11,5.11.19,7.57-1.21,2.29-1.3,4.91-2.01,7.38-2.98,1.54-.6,3.08-1.2,4.79-1.38-3.6,1.53-7.2,3.06-10.87,4.63.24.64.99.08,1.24.68-3.77.52-7.52,1.04-11.26,1.56l.02.28c2.14.3,4.29.57,6.42.92.57.09,1.07-.09,1.62.81.65,1.07,2.38.93,3.71.47.07-.03.1-.44.32-.35,4.05,1.48,8.62.65,12.53,2.83-6.98-1.43-13.98-1.69-21.35-.65,1.92,1.84,4.08,3.11,6.4,3.02,3.17-.13,6.23.69,9.37.5.32-.02.68-.09.97,0,.99.34,2.21-1.15,3.14.61.28.52,1.98.28,2.91-.32,4.11-2.63,8.88-4.26,12.31-7.93.66-.71,1.07-.4,1.64.18-3.58,2.37-6.68,5.31-10.43,7.52,5.2-.8,10.34-1.17,15.5-1.4-4.14,1.38-8.57,1.06-12.86,2.36.81.48,1.86-.17,2.49.73-.92.57-1.94,0-2.82.4q2.53,1.09,9.99.04c-1.27.54-2.07.88-2.88,1.22,1.7-.06,2.97,1.27,4.62,1.3-.9.23-1.79.36-2.67-.02-.94-.41-1.93-.08-2.89-.22-.98-.15-1.88.2-2.85.53.63.8,1.48.82,2.3.91.34.04.87-.12.77.52-.06.4-.39.4-.75.39-2.25-.06-4.37.18-6.3,1.64-.64.49-1.86.21-2.81.6h4.27c-1.79.95-3.83-.08-5.71,1.22,6.47,1.2,12.9.08,19.24.86-5.08.36-10.14.8-15.23,1.86.65.63,1.47.02,2.19.67h-2.44c3.57,2.02,7.83,2.19,11.09,4.81-.7.56-1.24-.14-1.85-.37-4.46-1.72-8.95-3.32-13.7-4.08-.41-.07-.98-.39-1.12.29-.09.42.36.66.71.83.58.29,1.15.69,1.77.79,1.93.32,2.96,1.68,3.94,3.3-1.63-.62-3.17-1.92-5.06-.52,2.15,1.9,5.14,2.48,7.21,4.51-2.07-1.54-4.78-1.51-6.96-3.07-1.1-.79-2.67-1.5-4.06-2.2-.64-.33-1.62-1.24-1.83.48,0,.08-.34.17-.52.16-1.93-.17-1.31.98-.87,1.84,1.26,2.47,2.66,4.88,2.61,7.85-.56-1.45-1.07-2.91-1.68-4.33-.46-1.07-1.16-2.06-1.53-3.15-.93-2.73-2.78-4.23-5.59-4.71-1.52-.26-3.16-1.33-4.46-.97-2.02.55-3.96.46-6.4.17,3.63,3.5,7.27,6.08,10.79,8.8.83.64,1.06,1.02.4,1.81-3.32-1.76-6.74-3.29-10.02-5.18,3.08,1.97,5.03,5.16,8.07,7.1-.5.12-.97-.39-1.69.05,2.53,2.2,4.39,5,7.45,6.48.35.17.69.36,1.04.53.53.25.63.67.32,1.11-.33.47-.71.08-1-.11-2.01-1.32-3.69-3.05-5.54-4.58-.77-.63-1.28-2.32-2.87-1.15-.06.04-.61-.58-.91-.9-3.59-3.82-7.18-7.64-10.86-11.43,1.21,2.21.82,5.19,3.02,6.86,3.12,2.36,4.18,6.36,7.51,8.66,3.12,2.15,6.08,4.61,9.18,6.84,1.71,1.23,3.08,2.86,4.82,4.06-4.41-2.03-7.63-5.9-12.18-8.04.59,1.85,2.6,2.59,2.84,4.44-2.76-1.85-4.25-4.93-6.87-7.01-1.62-1.29-2.94-3.23-4.57-5.12,1.43,4.13,3.58,7.43,6.63,10.02,1.91,1.62,3.69,3.57,6.36,4.05,4.6,5.83,11.6,6.65,18.01,8.68,2.21.7,4.54,1.11,6.64,2.04,1.43.63,2.91.49,4.29.97.33.11.91-.24.78.65-.13.9-.58.4-.87.33-1.51-.38-3.04-.7-4.5-1.23-4.45-1.62-9.07-2.65-13.64-3.82-.52-.13-1.01-.12-1.43.17,1.25,3.43,5.31,2.49,7.47,4.79-1.16.35-1.63-.82-2.55-.63.96,1.64,3.53,1.95,3.44,4.83-2.02-2.35-4.07-4.16-6.38-5.65-.22-.14-.41-.32-.63-.46-.83-.49-1.84-1.33-2.6-.41-.71.86.62,1.33,1.02,1.99.27.45,1.18.69.2,1.49-.54.45.3.99.67,1.39,4.51,4.93,8.57,10.27,13.51,14.8.18.17.29.41.33.72-1.95-1.15-3.57-2.69-5.03-4.43-.49.51.3.87-.18,1.49-1.41-3.13-3.57-5.59-6.39-8.23,1.06,3.64,2.84,6.17,5.21,8.41-.8.34-.91-.64-1.58-.39.75,1.71,1.51,3.42,2.25,5.13.18.41.43.87.39,1.28-.06.59.28,1.49-.47,1.72-.66.2-.89-.63-1.19-1.09-.64-.96-1.52-1.8-1.66-3.04.69.64,1.38,1.27,2.41,2.22-3.58-10.55-10.14-18.7-16.75-26.84,1.5,2.16,1.73,4.94,3.3,7.03,1.84,2.44,3.6,4.92,5.1,7.58,1.71,3.04,4,5.75,5.27,9.05-1.34-.39-1.91-1.42-2.57-2.59-1.84-3.26-3.93-6.38-5.92-9.54-.76.42.07.96-.49,1.36-1.53-2.91-3.05-5.81-4.57-8.71-.09.04-.18.07-.28.11,1.52,4.75,3.04,9.51,4.56,14.26-.15.06-.31.12-.46.17-.54-1.19-1.18-2.34-1.58-3.57-1.15-3.5-2.37-6.99-3.26-10.56-.89-3.53-3.02-6.26-5.36-9.56.06,1.08.09,1.63.13,2.19-1.16-2.9-2.15-5.87-4.41-8.22.4,4.88.7,9.74,1.81,14.57-.27-.57-.54-1.14-.94-1.99-.53,1.61-.77,3.03-.67,4.45.24,3.68-.11,7.38-.08,11.05.02,2.17-.35,4.8-1.15,7.07-.53,1.49-.24,3.09-.89,4.85-.24-3.42.56-6.4.93-9.43.06-.52.21-1.03.2-1.54-.16-6.21.56-12.41.57-18.59,0-5.34-.27-10.96-3.93-15.58-.9-1.14-1.36-2.65-2.21-4.38-.21,4.05-.16,7.71.3,11.32.13,1.05-.27,1.84-.37,2.76-.2,1.76.01,3.5.33,5.24.81,4.43-.31,8.96.66,13.41.25,1.15.09,2.42.55,4.13-.5-.59-.7-.72-.7-.84.12-3.51-.79-6.91-1.06-10.39-.63-8.1-.59-16.22-.91-24.33-.09-2.37-.82-4.74-1.52-7.03-.44-1.44-1.82-2.36-2.96-3.28-1.35-1.09-2.9-1.93-4.39-2.9-.33.61.22.74.37,1.04.12.25.21.48-.06.67-.25.17-.56.12-.68-.12-2.06-4.09-6.57-4.07-9.96-5.82-6.04-3.1-12.88-3.81-19.33-5.7-1.57-.46-1.15.72-1.1,1.49.37,5.7,1.08,11.4.89,17.12-.35,10.2-.25,20.44-1.52,30.56-.82,6.54-1.19,13.08-1.29,19.62-.1,7.19-.1,14.39.8,21.58.8,6.44,1.52,12.91,1.65,19.41.08,3.91.63,7.77,1.13,11.63.21,1.63-.06,2.47-1.95,2.35-5.43-.33-10.86-.53-16.29-.84-2.86-.16-2.95-.31-2.36-3.17.38-1.85.79-3.69,1.32-5.5,2.34-7.98,2.46-16.13,1.93-24.35-.28-4.35-.46-8.7-.5-13.06-.06-6.76-.84-13.51-.69-20.26.13-5.55,1.11-11.08,1.58-16.64.87-10.31,3.53-20.36,4.4-30.66.14-1.67.02-3.37.02-5.27-1.85,1.59-3.44,2.97-3.85,5.58-.53,3.38-1.82,6.62-2.3,10.06-.26,1.91-.03,3.74.11,5.62-.71.07-.15-.67-.93-.67-.23,5.4-1.61,10.81-.43,16.35-.91-2.49-.85-5.01-.76-7.64.09-2.56-.22-5.09.27-7.7.49-2.58.74-5.23.88-7.9.13-2.58,1.27-5.11,2.08-8.05-1.75,2.05-2.71,3.94-2.12,6.69-.92-.97-.27-1.9-.97-2.55-1.48,1.92-1.5,4.22-1.83,6.43-.68,4.56-1.33,9.13-2.07,13.68-.15.94-.23,2.02-1.25,2.64.32-2.37,1.22-4.58,1.39-6.97.19-2.78.66-5.54.91-8.32.03-.38.81-1.58-.75-1.22-.3.07-.05-.52.05-.77.44-1.14,1.18-2.16,1.4-3.89-2.56,2.58-4.89,4.82-6.67,7.64-.51-.57.17-.92-.13-1.67-2.77,5.24-6.34,9.46-11.62,11.99,1.2-1.91,1.43-4.31,3.29-5.76.71-.55,1.06-1.3.93-2.23-.12-.13-.24-.26-.37-.39h0c.06-2.58,2.5-3.58,3.6-5.47.31-.54,1.59-.79.58-1.81-.91-.91-1.54,0-1.94.44-1.84,2-3.55,4.12-5.32,6.18-.48.56-.76,1.23-1.82,1.14-.93-.08-1.4.95-1.53,1.76-.27,1.6-1.18,3.04-1.14,4.76-.38-1.63.11-3.52-1.99-4.68-.93.28-1.19,1.98-2.87,2.75.93-1.65,1.79-2.81,2.87-3.74,1.55-1.33,2.65-3.02,3.87-4.6.16-.2.39-.5.34-.68-.75-2.6,1.27-3.86,2.58-5.46.11-.13.12-.35.3-.92-3.81,1.61-5.48,5.76-9.65,6.75,1.95-1.61,3.59-3.15,4.35-5.37.58-1.01,1.91-1.61,1.67-3.07-.31,0-.63-.02-.94-.02,0,0-.09.09-.09.09ZM61.36,72.94l-.02.02s.02-.02.02-.02ZM124.82,102.59c.85,1.38,1.75.62,2.48-.06.36-.33.49-.72,1-.31,2.32.1,4.63-1.3,5.4-3.33.17-.44.32-.83.81-.96.07.85-.67,1.96.22,2.5,1,.6,2.14.17,3.02-.61.36-.32.79-.38,1.19-.57,1.76-.84,3.49-1.73,5.65-2.8-1.62-.41-2.77-.8-3.95-.98-1.86-.28-3.71-.25-5.35.88-2.23-1.5-4.72-.76-5.4,1.58-.2.67-.55,1.29-.82,1.94-.13-1.14.26-2.36-.37-3.53-1.18.87-1.47,2.23-2.35,3.14-.04-.68.31-1.25.54-1.85.15-.41.53-.87.2-1.27-.37-.46-.96-.28-1.46-.2-.79.13-1.35.65-1.41,1.41-.12,1.61-.13,3.24-.11,4.85,0,.56.43.26.71.17ZM157.46,97.15c1.12,1.6,2.64,1.3,4.12.78.87-.3,1.02-1.26,1.25-2.05.13-.45-.14-.7-.52-.9-1.75-.93-3.28-.47-4.2,1.25-.18.33-.44.62-.66.93.04-.32,0-.69.15-.95.85-1.55.26-2.13-1.32-2.46-3.3-.68-4.13-.45-6.74,2.4,1.09.5,1.92-.73,2.98-.48.28.47-1.11.87-.21,1.13,1.66.47,3.37,1.49,5.16.35ZM75.38,114.73c-1.99-.21-3.98-.41-5.96-.64-1.29-.15-2.55-.18-3.97,1.07,2.28.65,3.46,2.25,4.64,3.85.34.45.96.31,1.46.36.57,1.26,1.62.75,2.52.67,1.82-.16,3.58-.05,5.19.94-2.23-.04-4.43-.77-7.03-.15,1.82,1.42,3.5,2.6,5.02,3.96,1.52,1.36,3.21,1.77,5.18,1.64,3.22-.2,6.46-.24,9.69-.41,1.17-.06,2.34.48,4.06.04-4.65-1.71-8.55-4.02-13.22-3.86-1.33.05-2.75,0-3.72-1.23,2.99.71,6.09.32,9.33.97-1.11-1.24-2.68-1.45-3.59-2.55,2.19-.02,3.58,1.61,5.3,2.57,1.53.86,2.87,2.12,5.14,2.4-3.87-3.74-7.6-6.94-12.58-8.2-.45-.11-1.22-.62-1.27.49-2.46-1.23-4.83-1.24-7.06.55.28-.83.56-1.65.84-2.48.83-.15,1.82-.3,2.15-1.08.2-.47,1.36-.66.59-1.54-.57-.64-1.08-1.47-2.05-1.15-2.08.68-4.11,1.48-6.16,2.24,1.99.29,3.8.66,5.49,1.55ZM157.85,192.41c-.78.17-1.26-.1-1.77-.78-2.27-3.04-5.44-4.76-9.05-5.85.52.72,1.15,1.31,1.81,1.85,1.78,1.47,3.73,2.73,4.54,5.12.4,1.19,1.5,1.96,2.62,2.5,1.1.52,2.26.11,3.11-.52.77-.57-.4-1.01-.54-1.57,3.08,1.44,3.7,1.43,5.48-.15-2.5-1.3-5.1-2.19-7.97-2.81.65.82,1.21,1.52,1.76,2.21ZM148.1,152.22c-3.13-.84-9.54,1.64-11.74,4.63,2.49.05,4.35-1.7,6.61-2.05,1.97-.31,3.18-2.16,5.11-2.55-.77,2.69-3.62,2.32-5.37,3.64,9.35,1.36,11.38.96,13.97-3.1-2.94,1.24-5.35.18-7.8-.54-.24-.07-.52-.02-.77-.03ZM172.94,149.18c.08-.66,1.06-1.81-.73-1.51-2.99.49-5.97,1.03-8.95,1.59-.58.11-1.27.26-1.39,1.08q6.55,1.17,10.47-.9c-.79,2.31-.7,2.6,1.78,2.22,2.84-.44,5.64-1.27,8.41-2.07.72-.21,1.79-1.02.94-1.87-1.53-1.55-2.71-3.76-5.35-3.77-.97-2.16-2.93-3.72-3.57-6.09-.1-.35-.38-.68-.64-.96-.24-.25-.75-.35-.86-.07-.64,1.65-1.15.31-1.23-.14-.41-2.37-2.77-2.95-3.99-4.56-.26-.34-.71-.24-1.1-.15-2.68.67-5.37,1.33-8.49,2.11,3.16.27,5.93-.2,8.59.66-3.08-.42-6.07.02-9.08.79,2.86-.12,5.44,1.5,8.33,1.29-8.36-.85-16.69-1.29-25.54.26,3.25.78,6.02.92,8.8,1.06,2.12.1,4.17.65,6.12,1.49-4.65-.83-9.37-.91-14.06-1.41-1.47-.16-2.94-.52-4.44-.32-3.97.53-7.93,1.09-11.91,1.57-1.65.2-2.39.91-2.2,2.65.14,1.35.06,2.72.02,4.09-.03,1.14.41,1.59,1.59,1.65,3.55.17,7.09.44,10.3-1.63.52-.33,1.22-.43,1.85-.53,5.81-.89,11.55-2,16.95-4.46-.3,1.15-1.13,1.61-2.21,1.9-4.94,1.33-9.8,2.96-14.89,3.7-.97.14-1.81.56-2.55,1.42,4.05.08,8.03,1.12,12.08.36.69-.13,1.32-.48,1.93-.87.97-.6,2.82-1.64,2.95-1.47,1.07,1.41,2.15.43,2.92.03,3.67-1.91,7.67-3.18,10.97-5.81.68-.54,1.4-1.21,2.59-1.39-3.68,4.22-9.13,5.37-12.97,8.95,1.04.15,2.02.21,2.95.01,3.83-.81,7.65-1.67,11.45-2.58.64-.16,1.06-.01,1.62.29-2.05.98-4.4.76-6.18,2.18,3.98-.84,8.16-.38,11.95-2.08-.78,1.41-2.13,2.25-3.28,3.3ZM98.36,92.13c-3.73-1.64-6.91-4.48-11.08-5.17-.06,0-.09-.18-.18-.39,2.51.64,4.96,1.03,7.21,2.33,2.33,1.35,4.75,2.71,8.03,2.55-1.17-.77-2.01-1.35-2.87-1.9-2.3-1.45-4.66-2.8-6.88-4.35-2.39-1.67-3.62-1.7-5.77.26-.38.35-.7.85-1.14,1.01-1.64.62-1.76,1.87-1.61,3.33.13,1.22.06,2.48.32,3.67.51,2.28.53,4.81,2.75,6.37,5.42,3.81,11.67,4.11,17.95,4.22,1.2.02,2.4,0,3.91,0-1.65-2.25-3.45-3.91-5.05-5.74-1.82-2.08-4.21-3.66-5.56-6.16.5.03.77.43,1.11.72,3.6,3.15,6.9,6.61,10.31,9.97.51.5.89,1.28,1.93,1.22-.82-2.53-2.07-4.74-3.24-7.03-2.21-4.33-6.21-4.41-10.12-4.92ZM146.18,195.23c.04-.25.12-.41.07-.49-3-5.36-5.57-11-9.53-15.77-.79-.95-1.75-1.68-3.14-1.71-3.04-.05-6.09.17-9.12-.31-1.01-.16-2.21,0-2.32,1.44-.29,3.76-.52,7.52-.75,11.28-.04.69.09,1.47.95,1.4,2.47-.18,4.69.85,7.03,1.3,3.47.67,7.19-.2,10.45,1.74,2,1.19,4.22.9,6.37,1.11ZM114.56,119.61s.02,0,.04,0c0-1.62-.1-3.26.03-4.87.14-1.75-.54-2.6-2.22-3.01-4.69-1.16-9.22-2.89-14.1-3.41-2.67-.29-5.11-.04-7.59.82-1.38.48-1.63.99-.8,2.35,2.15,3.56,5.36,6.12,8.19,9.04.35.36.86.57,1.33.79,3.59,1.65,7.18,3.28,10.77,4.92.78.36,1.61.43,2.45.5,1.43.12,2-.41,1.93-1.88-.09-1.74-.02-3.5-.02-5.25ZM123.94,137.03c.26-.03.51-.07.77-.08,3.11-.08,6.12-.99,9.2-1.23,5.63-.44,10.56-2.26,14.26-6.76.44-.54,1.04-.96,1.59-1.4.42-.35,1.22-.43,1.04-1.2-.16-.67-.7-1.15-1.37-1.25-2.66-.37-5.09-1.45-7.6-2.3-.85-.29-1.65-.1-2.47.14-2.97.89-5.93,1.85-8.94,2.61-1.76.44-3.54.75-5.18,1.55-2.17,1.05-3.63,2.96-3.4,4.48.21,1.41.49,2.81.74,4.22.14.76.37,1.42,1.36,1.23ZM109.88,180.3c.98.25,1.27-.39,1.24-1.43-.04-1.62.01-3.24.32-4.85.27-1.43-.44-2.05-1.78-2.14-1.23-.08-2.47-.05-3.67-.25-5.2-.86-10.28-.43-15.28,1.2-1.67.55-3.34.71-5.13.6-2.88-.18-5.98-.72-8.12,2.12-.26.35-.79.58-.65,1.12.16.61.84.82,1.24.71,1.61-.45,2.95.58,4.45.71.99.09,1.86-.47,2.95-.03,2.28.91,4.72,1.26,7.18,1.5,5.67.55,11.39-.06,17.26.73ZM107.82,168.49c3.83.12,4.19.04,4.35-1.25.34-2.7.56-5.42.79-8.13.12-1.41-.42-2.06-1.95-1.65-4.62,1.25-9.35,2.03-13.99,3.18-2.52.62-4.83,2.12-7.22,3.27-.38.18-.85.54-.81,1.02.05.6.68.51,1.08.59,6.21,1.27,12.44,2.4,17.74,2.97ZM148.35,208.07c-1.68-.73-2.69-2.14-3.97-3.19-2.04-1.68-3.63-3.91-6.18-4.98-4.42-1.86-9.08-3.07-13.43-5.14-2.41-1.15-3.48-.36-3.71,2.25-.06.71.03,1.44-.08,2.14-.28,1.84.67,2.48,2.31,2.52,2.44.07,4.7.81,6.94,1.71,3,1.22,6.04,2.33,9.01,3.62,2.94,1.28,6.05.79,9.12,1.06ZM110.69,208.84c0-.73,0-.99,0-1.25,0-2.41-.28-2.58-2.41-1.53-2.73,1.35-5.44,2.75-8.19,4.05-3.44,1.63-5.74,4.6-8.47,7.07-.59.53-.85,1.44-1.23,2.19-.39.75-.11,1.16.7,1.06,2.29-.28,4.68-.02,6.83-1.15,2.81-1.48,5.7-2.83,8.4-4.49,2.35-1.43,5.06-2.82,4.38-5.95ZM89.07,132.08c1.81,1.12,4.21,1.09,5.67,2.32,4.46,3.76,9.66,5.4,15.19,6.47,5.36,1.03,5.33,1.06,5.07-4.44-.06-1.2-.52-1.66-1.65-1.96-2.39-.63-4.85-.77-7.26-1.22-5.63-1.06-11.32-1.06-17.01-1.16ZM140.66,216.27c-.53-1.23-1.38-2.03-2.39-2.63-2.3-1.36-4.34-3.06-6.46-4.66-2.74-2.07-5.92-3.12-9.32-3.53-.92-.11-1.51.14-1.56,1.19-.07,1.43-.17,2.85-.31,4.28-.11,1.09.36,1.59,1.37,1.98,5.48,2.15,11.34,2.48,17.03,3.6.48.1,1.03.17,1.64-.24ZM66.73,205.03c-.12-.12-.23-.24-.35-.36,1.17-.98,2.35-1.95,3.51-2.94.58-.5,1.38-.89,1.41-1.77.05-1.16-1.26-.62-1.8-1.2,1.78-.35,3.71-.11,4.89-2.34-2.34.13-4.37.66-5.66,2-2.24,2.33-4.55,4.61-6.7,7.03-.33.37-.83.81-.63,1.34.23.6.91.43,1.38.4,5.33-.36,10.73-.3,15.13-4.22,2.15-1.91,4.79-3.24,6.9-5.75-2.1.1-3.71.58-5.19,1.6-.6.41-1.17,1.02-2.1.64-2.14-.88-3.89.08-5.53,1.34-1.79,1.37-3.33,3.06-5.26,4.23ZM117.28,51.85c.05-1.52.24-2.72-1.06-3.44-4.09-2.26-8.36-4.12-12.64-5.97-.85-.37-1.19,0-.85.77.87,1.94,1.37,4.07,2.97,5.63,2.28,2.22,4.52,4.47,6.77,6.71.8.8,1.8,1.23,2.82,1.66.94.4,1.49.24,1.58-.88.13-1.62.28-3.23.4-4.49ZM141.58,152.22c-4.73.23-9.24-1.18-13.87-1.44-4.67-.27-4.94-.18-4.83,4.56,0,.39.05.78.04,1.17-.02,1.34.48,1.91,1.9,1.53,2.06-.54,4.16-.96,6.23-1.46,1.25-.3,2.59.21,3.8-.5,2.22-1.31,4.47-2.57,6.71-3.85ZM80.47,127.1c2.17,2.77,5.32,4.62,7.46,4.23,2.39-.43,4.76-.03,7.12-.01,3.85.02,7.72-.02,11.25.85-7.4-6.86-16.66-5.31-25.84-5.06ZM107.92,181.61c-2.89-.17-5.34-.37-7.79-.44-4.41-.12-8.81-.16-13.07-1.59-1.15-.39-2.4-.52-3.61-.69-.59-.08-1.45-.47-1.72.28-.25.68.56,1.08,1.07,1.44,3.47,2.46,6.91,4.14,11.6,3.72,4.54-.41,8.91-1.03,13.53-2.72ZM125.94,58.59c-1.48,1.54-2.72,2.84-3.97,4.14-.43.45-.61.98-.61,1.59.01,2.66.03,5.31.02,7.97,0,.98.42,1.38,1.42,1.36,2.1-.04,3.98-1.45,4.1-3.43.23-3.73.21-7.47-.97-11.62ZM52.49,224.32c-1.21.11-2.37.12-3.49.28-1.94.28-4.13,0-5.7,1.44-1.52,1.41-3.21,2.62-4.68,4.07-1.89,1.86-3.65,3.87-5.55,5.91,1.49-.06,2.91-.32,3.8-1.34,2.71-3.07,7.19-3.33,9.83-6.64,1.38-1.73,3.8-2.56,5.79-3.73ZM74.22,109.47c-1.69.27-3.18.25-4.69-.03-2.94-.55-5.93-.48-8.92-.44-.51,0-1.12-.1-1.36.5-.26.65.12,1.23.62,1.51,1.74.97,3.43,2.02,5.62,1.67,3.04-.5,6-1.15,8.73-3.2ZM111.89,80.1c-2.06-.03-3.17,1.02-2.19,2.1.72.79.58,1.5.74,2.28.14.7.29,1.39.46,2.09.38,1.6,1.9,1.96,3.03,1.96,1.4,0,.19-1.31.44-1.98.16-.42.36-.82.49-1.25,1.21-4.06.6-5.13-2.96-5.19ZM122.32,92.62c-.58,0-.57-.95-.91-.59-.6.64-.55,1.6-.33,2.4.16.6.7.31,1.12.11,2.42-1.14,4.35-5.59,3.5-8.35-.78-2.53-.46-2.06-2.85-1.18-.66.24-.71.83-.81,1.41-.36,2.05-.24,4.07.29,6.19ZM100.8,188.21c2.65.6,4.81,1.53,7.18,1.43,2.37-.1,3.74-2.52,2.68-4.64-.17-.34-.42-.53-.75-.42-2.96.99-6.22,1.22-9.1,3.64ZM97.95,205.93c3.91-2,7.97-2.64,11.73-4.18.6-.24,1.41-.23,1.25-1.13-.16-.93-.99-.68-1.58-.62-2.96.26-5.84.64-8.57,2.08-1.61.85-2.52,1.84-2.82,3.86ZM156.42,105.04c-.66,0-1.1.03-1.54,0-1.35-.11-1.9.76-2.03,1.85-.13,1.11.97.97,1.61,1.26,1.03.46,1.7-.14,2.33-.86.92-1.05,1.28-2.49,2.68-3.25.89-.48.85-1.82,1.22-2.77.23-.58-.23-.69-.77-.73-1.82-.15-3.13.69-4.22,2.02-.4.48-1.1.91-.94,1.59.15.67,1.09.16,1.66.89ZM93.53,170.57c-3.28-.41-6.31-.84-9.35-1.15-1.47-.15-2.34.88-3.1,1.96-.53.74-.2,1.11.57,1.09,3.94-.11,8.01.64,11.89-1.9ZM65.82,199.65c-4.09,3-8.17,5.98-11.85,9.53,1.26.97,1.84-.58,2.74-.25,1.41.51,2.34-.19,2.82-1.34.86-2.08,2.63-3.3,4.05-4.86.85-.94,1.81-1.78,2.25-3.08ZM81.18,201.53c2.65-.33,13.23-4.96,15.58-6.89-6.06.82-11.13,2.79-15.58,6.89ZM80.81,185.36c.61-.14,1.52.38,1.74-.34.22-.7-.59-1.2-1.14-1.62-1.29-.98-2.87-1.05-4.37-1.4-.65-.15-1.45.11-1.65-1-.06-.33-.95-.74-1.52-.3-.73.55-1.33,1.3-1.49,2.19-.13.7.69.66,1.13.76,2.44.57,4.8,1.49,7.31,1.71ZM108.77,86.25c.51-.77.13-1.32.04-1.85q-.81-4.61-5.58-4.33c-.58.04-1.49-.31-1.67.5-.15.68.67,1.06,1.19,1.38,1.13.71,1.99,1.75,3.07,2.45.96.62,2.4.37,2.95,1.84ZM161.99,94.35c.83.15,1.29.21,1.48-.19.63-1.33,1.4-2.63,1.64-4.12.1-.62-.32-1.08-.93-.88-1.22.39-2.58.51-3.6,1.32-.73.58-1.58,1.29-1.43,2.39.16,1.22,1.38.94,2.15,1.29.35.16.74.2.69.18ZM77.72,185.56c-1.75-1.07-3.76-.94-5.66-1.13-1.57-.15-2.15,1.48-2.21,2.49-.08,1.36,1.21.51,1.94.54.32.01.65.11.96.07,2.56-.32,5.24.15,7.64-1.36h-4.34c.51-.7,1.25-.09,1.67-.61ZM148.16,216.52c-4.49-2.48-7.97-5.76-12.74-6.64.65,1.1,1.84,1.23,2.87,1.67.52.22,1.18.24,1.46.85,1.56,3.47,4.29,4.97,8.41,4.11ZM146.03,101.33c3.15.19,5.9-1.1,8.82-.79.85.09,1.43-.69,1.47-1.52.04-.85-.84-.58-1.33-.75-2.06-.71-3.92-.45-5.85.73-1.31.81-.37,1.09.12,1.58-1.09.23-2.19-.11-3.23.75ZM128.53,171.54c-1.1-1.85-3-2.21-4.73-2.86-.42-.16-.8-.02-.86.48-.15,1.16-.31,2.32-.36,3.48-.04.85.55.92,1.2.69,1.58-.55,3.22-.93,4.74-1.78ZM72.68,207.28c-2.87-.19-9.29,1.34-10.92,2.56,4,.57,8.24.21,9.92-.92-.91-.07-1.7-.13-2.5-.2,1.21-.41,2.58-.19,3.5-1.44ZM134.63,159.49c4.12.31,7.98-.42,11.84-2.2-4.38-1.1-8.17.05-11.84,2.2ZM80.47,90.08c-.41-2.58-.78-5.13-1.21-7.66-.28-1.64-1.64-1.4-2.58-1.09-1.13.37-.33,1.28-.06,1.91,1.01,2.39,1.94,4.82,3.85,6.85ZM132.5,105.36c-.39,0-.77-.04-1.15,0-1.79.2-1.5,1.85-1.98,2.94-.2.44-.57,1.15-.08,1.41.9.47,1.88-.07,2.79-.28.96-.23,1.16-1.31,1.6-2.07,1.14-1.95,1.07-2.05-1.17-2.01ZM181.8,216.33c4.2,1.06,8.25.65,12.15-1.22-4.09.03-8.17.1-12.15,1.22ZM164.86,131.63c-4.22-.59-8.31-.28-12.46,2,4.57.51,8.45-1.13,12.46-2ZM175.21,133.88c.76,1.29,1.57,1.91,2.43,2.46,1.1.72,2.08,1.6,2.57,2.82,1.02,2.53,3.3,3.92,5,5.83.21.23.53.49.84.23.42-.36.09-.73-.15-1.01-1.63-1.92-3.34-3.77-4.91-5.74-1.48-1.86-3.27-3.27-5.78-4.6ZM104.87,128.14c2.39,1.12,4.31,2.04,6.25,2.91.7.31,1.44.59,2.19.74.74.14,1.25-.22,1.27-1.06.02-.71-.1-1.41-.96-1.4-2.81.06-5.42-1.28-8.75-1.19ZM134.13,194.22c6.2,3.06,10.79,3.93,13.15,2.45-4.59.2-8.67-2.11-13.15-2.45ZM142.27,70.23c-1.43-.08-2.69.32-3.91.85-1.12.49-2.22,1.01-2.7,2.32-.35.94-.54,1.36.85,1.25,2.95-.24,3.85-2.91,5.76-4.42ZM53.95,107.73c3.97.46,7.8.3,11.84.23-3.78-1.97-10.22-2.06-11.84-.23ZM143.55,202.15c1.74,2.28,4.19,3.73,6.3,5.56.4.34.92,1.09,1.45.56.55-.55.33-1.4-.3-1.89-2.26-1.78-4.53-3.56-7.46-4.23ZM104.17,106.68c3.07,1.26,5.84,1.95,8.6,2.64.53.13,1.3.94,1.64,0,.26-.71-.43-1.49-1.11-1.61-2.88-.52-5.69-1.79-9.12-1.03ZM104.56,196.13c.08.15.17.3.25.45,1.77-.25,3.55-.42,5.3-.79,1.54-.33.82-1.65.83-2.57,0-.59-.41-1.05-1.03-.66-1.81,1.15-3.57,2.37-5.35,3.57ZM33.34,219.67c4.21.22,8.52.99,12.58-2.3-4.52.83-8.55,1.56-12.58,2.3ZM127.85,166.94c2.68,1.16,5.02,3.87,8.54,1.92-2.59-2.24-5.67-1.63-8.54-1.92ZM86.67,225.86c2.72-1.43,5.19-2.74,8.13-4.29-5.05-.59-6.07-.03-8.13,4.29ZM129.64,165.2c-1.74-1.13-3.08-2.02-4.44-2.87-.47-.29-1.02-.81-1.58-.38-.64.5-.39,1.31-.36,2,.03.7.49,1.01,1.15,1.06,1.58.11,3.15.56,5.23.18ZM175.13,135.93c.87,3.45,3.21,5.27,5.27,7.28.29.29.7.4,1.07.16.37-.25.18-.59-.04-.83-1.94-2.14-3.49-4.66-6.3-6.61Z"/>
      <path d="M84.7,242.36c.13-.12.26-.25.39-.37,0,0,0,0,0,0,0,.13,0,.26-.01.39,0,0,.01,0,.01,0-.13,0-.26,0-.39,0Z"/>
      <path d="M78.08,230.29c-.03-.12-.04-.24-.03-.37.31,0,.62.02.94.02-.3.11-.61.23-.91.34Z"/>
    </g>
  </g>
</svg>